<?xml version="1.0" standalone="no"?>
<!DOCTYPE svg PUBLIC "-//W3C//DTD SVG 20010904//EN"
 "http://www.w3.org/TR/2001/REC-SVG-20010904/DTD/svg10.dtd">
<svg version="1.0" xmlns="http://www.w3.org/2000/svg"
 width="512.000000pt" height="512.000000pt" viewBox="0 0 512.000000 512.000000"
 preserveAspectRatio="xMidYMid meet">
<metadata>
Created by potrace 1.16, written by Peter Selinger 2001-2019
</metadata>
<g transform="translate(0.000000,512.000000) scale(0.100000,-0.100000)"
fill="#000000" stroke="none">
<path d="M1508 4432 c-564 -202 -1029 -370 -1032 -373 -5 -5 292 -2636 309
-2735 5 -30 45 -53 884 -518 483 -267 884 -486 891 -486 7 0 408 219 891 486
842 466 879 488 884 518 20 119 314 2731 308 2736 -15 14 -2065 740 -2086 739
-12 0 -484 -165 -1049 -367z m1697 -1574 c352 -792 643 -1449 647 -1459 7 -18
-3 -19 -236 -19 l-244 0 -129 323 -129 322 -555 3 -555 2 -129 -322 -130 -323
-244 -3 c-229 -2 -243 -1 -237 15 18 51 1292 2902 1296 2902 3 0 293 -648 645
-1441z"/>
<path d="M2369 2893 l-186 -448 189 -3 c103 -1 273 -1 377 0 l188 3 -186 448
c-102 246 -188 447 -191 447 -3 0 -89 -201 -191 -447z"/>
</g>
</svg>
