<?xml version="1.0" standalone="no"?>
<!DOCTYPE svg PUBLIC "-//W3C//DTD SVG 20010904//EN"
 "http://www.w3.org/TR/2001/REC-SVG-20010904/DTD/svg10.dtd">
<svg version="1.0" xmlns="http://www.w3.org/2000/svg"
 width="400.000000pt" height="400.000000pt" viewBox="0 0 400.000000 400.000000"
 preserveAspectRatio="xMidYMid meet">

<g transform="translate(0.000000,400.000000) scale(0.100000,-0.100000)"
fill="#000000" stroke="none">
<path d="M1760 3914 c-129 -47 -444 -162 -700 -256 -256 -93 -559 -204 -675
-245 -116 -42 -211 -77 -213 -78 -9 -7 271 -2451 281 -2458 7 -4 149 -86 317
-181 168 -95 400 -227 515 -293 116 -66 323 -183 461 -261 l252 -142 268 152
c148 83 348 196 444 250 576 329 760 433 797 451 35 17 43 26 47 56 3 20 47
394 96 831 50 437 111 974 136 1193 26 219 45 400 43 401 -2 2 -76 29 -164 60
-88 32 -223 81 -300 111 -77 29 -293 108 -480 175 -187 67 -463 167 -614 221
-151 55 -274 99 -275 99 -1 -1 -107 -39 -236 -86z m440 -1044 c705 -343 821
-401 815 -410 -3 -4 -69 -48 -148 -96 -78 -48 -173 -108 -211 -132 l-69 -44
218 -107 218 -106 -217 -135 c-120 -74 -288 -178 -374 -231 l-157 -95 -270
131 c-862 421 -1016 499 -1003 510 7 7 102 67 211 135 109 68 194 127 190 131
-4 4 -101 55 -215 113 l-207 104 262 163 c144 90 311 194 372 231 60 38 114
66 120 64 5 -2 215 -104 465 -226z"/>
</g>
</svg>
