<?xml version="1.0" standalone="no"?>
<!DOCTYPE svg PUBLIC "-//W3C//DTD SVG 20010904//EN"
 "http://www.w3.org/TR/2001/REC-SVG-20010904/DTD/svg10.dtd">
<svg version="1.0" xmlns="http://www.w3.org/2000/svg"
 width="512.000000pt" height="512.000000pt" viewBox="0 0 512.000000 512.000000"
 preserveAspectRatio="xMidYMid meet">

<g transform="translate(0.000000,512.000000) scale(0.100000,-0.100000)"
fill="#000000" stroke="none">
<path d="M598 5030 c-138 -24 -255 -85 -359 -189 -85 -85 -136 -169 -171 -281
l-23 -75 0 -1945 0 -1945 23 -75 c35 -112 86 -196 171 -281 85 -85 169 -136
281 -171 l75 -23 1945 0 1945 0 75 23 c112 35 196 86 281 171 85 85 124 149
166 266 l28 80 0 1950 0 1950 -23 75 c-35 112 -86 196 -171 281 -83 83 -165
134 -276 171 l-70 23 -1925 1 c-1059 1 -1946 -2 -1972 -6z m2297 -1001 c302
-37 501 -169 611 -406 51 -108 67 -190 61 -308 -6 -118 -30 -204 -85 -294 -50
-82 -146 -178 -222 -222 -33 -19 -60 -36 -60 -39 0 -3 24 -14 53 -24 205 -71
372 -249 432 -462 3 -12 10 -59 15 -105 19 -165 -22 -352 -109 -498 -114 -192
-277 -298 -551 -359 l-115 -26 -682 -3 -683 -4 0 1380 0 1381 623 0 c392 0
655 -4 712 -11z"/>
<path d="M1920 3280 l0 -402 438 5 c481 5 534 11 649 67 76 38 144 110 174
188 32 80 32 242 1 323 -41 103 -86 147 -191 188 l-66 26 -502 3 -503 3 0
-401z"/>
<path d="M1920 2060 l0 -462 468 5 c519 5 554 9 689 72 85 40 146 98 190 181
42 81 57 153 51 260 -11 193 -104 314 -291 377 -59 20 -85 21 -584 25 l-523 3
0 -461z"/>
</g>
</svg>
