<?xml version="1.0" standalone="no"?>
<!DOCTYPE svg PUBLIC "-//W3C//DTD SVG 20010904//EN"
 "http://www.w3.org/TR/2001/REC-SVG-20010904/DTD/svg10.dtd">
<svg version="1.0" xmlns="http://www.w3.org/2000/svg"
 width="512.000000pt" height="512.000000pt" viewBox="0 0 512.000000 512.000000"
 preserveAspectRatio="xMidYMid meet">

<g transform="translate(0.000000,512.000000) scale(0.100000,-0.100000)"
fill="#000000" stroke="none">
<path d="M590 4783 c1 -64 358 -4004 363 -4009 11 -11 1581 -446 1607 -445 28
1 1597 435 1607 445 5 5 362 3947 363 4009 0 16 -100 17 -1970 17 -1870 0
-1970 -1 -1970 -17z m3580 -330 c1 -49 -303 -3419 -309 -3425 -7 -7 -1269
-358 -1289 -358 -9 0 -12 62 -12 270 0 149 -2 270 -4 270 -9 0 -1008 279
-1011 282 -2 4 -66 737 -65 761 0 16 19 17 249 17 l248 0 6 -62 c3 -35 11
-124 18 -198 l11 -135 261 -70 c143 -39 266 -71 274 -73 11 -3 13 65 13 387
l0 391 -273 0 -273 0 -18 198 c-9 108 -20 221 -23 250 l-6 52 297 0 296 0 0
250 0 250 -597 2 -598 3 -17 180 c-9 99 -19 210 -23 248 l-6 67 620 0 621 0 0
230 0 230 805 0 c760 0 805 -1 805 -17z"/>
</g>
</svg>
