<?xml version="1.0" encoding="UTF-8"?>
<svg version="1.1" xmlns="http://www.w3.org/2000/svg" width="305" height="304">
<path d="M0 0 C0.99 0 1.98 0 3 0 C4.796875 2.01953125 4.796875 2.01953125 6.75 4.8125 C7.45640625 5.81925781 8.1628125 6.82601563 8.890625 7.86328125 C11.4109682 11.61112493 13.82278192 15.4179902 16.21875 19.24609375 C18.67599144 23.04511835 21.34328328 26.6716935 24.02734375 30.3125 C27.09326222 34.48943447 30.04028282 38.74753279 33 43 C34.08319028 44.54176718 35.16652698 46.0834315 36.25 47.625 C39.31610529 52.00416831 42.34832952 56.40604683 45.375 60.8125 C45.84397705 61.49497803 46.3129541 62.17745605 46.79614258 62.88061523 C50.56678925 68.36820066 50.56678925 68.36820066 52.30908203 70.90917969 C53.51678379 72.6698447 54.72687418 74.42884479 55.9375 76.1875 C56.62714844 77.19167969 57.31679687 78.19585937 58.02734375 79.23046875 C59.34357582 81.07840644 60.7146757 82.88844511 62.13671875 84.65625 C64.02178372 87.02740091 65.42712106 89.50597471 66.89453125 92.1484375 C68.01259222 94.02109086 69.23358443 95.70876743 70.5625 97.4375 C73.56018911 101.34426276 76.34900069 105.37229452 79.125 109.4375 C83.13592792 115.30836754 87.20147616 121.13631004 91.3125 126.9375 C92.31274115 128.35790313 93.31275042 129.77846959 94.3125 131.19921875 C95.89624096 133.44819727 97.49695062 135.67691251 99.125 137.89453125 C99.9603125 139.06048828 99.9603125 139.06048828 100.8125 140.25 C101.50279297 141.18585938 101.50279297 141.18585938 102.20703125 142.140625 C103.35702497 144.837162 102.89346521 146.22213545 102 149 C100.88392859 151.20431062 99.68669225 153.36830598 98.4375 155.5 C98.08397461 156.10730957 97.73044922 156.71461914 97.36621094 157.34033203 C94.89483751 161.56089593 92.33073451 165.72064689 89.75 169.875 C87.3233754 173.78299426 85.09089353 177.6604384 83.10546875 181.8046875 C78.68540111 190.58234833 73.43729752 198.97419996 68.36328125 207.3840332 C63.29084036 215.80931379 58.41761978 224.34326156 53.75 233 C51.67352041 236.82004533 49.62631279 240.52951524 47 244 C46.34 244 45.68 244 45 244 C40.94581779 229.16537874 38.39666466 213.97422368 36.08081055 198.78564453 C34.95327234 191.47335334 33.52575237 184.23920803 32 177 C24.94208937 179.40746528 18.12165141 182.20861525 11.31054688 185.22753906 C6.56739228 187.32555768 1.80047845 189.34932098 -3 191.3125 C-9.86475728 194.12077345 -16.71717075 196.9571613 -23.5625 199.8125 C-25.08713867 200.44828979 -25.08713867 200.44828979 -26.64257812 201.09692383 C-28.72416344 201.96506774 -30.80570612 202.8333139 -32.88720703 203.70166016 C-36.93053911 205.38812604 -40.97448596 207.07311394 -45.01855469 208.7578125 C-47.00239419 209.58435814 -48.98611863 210.41118001 -50.96972656 211.23828125 C-56.12989519 213.38961999 -61.29194211 215.53628034 -66.45703125 217.67578125 C-67.52115234 218.11728516 -68.58527344 218.55878906 -69.68164062 219.01367188 C-71.69403816 219.84850928 -73.7070121 220.68195933 -75.72070312 221.51367188 C-81.45057396 223.89278782 -87.09268497 226.40213032 -92.6940918 229.07104492 C-95 230 -95 230 -98 230 C-107.02677793 206.36683204 -107.02677793 206.36683204 -110.04296875 195.99609375 C-111.39474993 191.76419103 -113.09837227 187.68759692 -114.78979492 183.58374023 C-116.83291091 178.5698755 -118.41139139 173.50126927 -119.9375 168.3125 C-121.11823594 164.63138207 -122.52806817 161.07124444 -124 157.5 C-126.29329358 151.9270348 -128.1755281 146.32873961 -129.8828125 140.55078125 C-131.22302893 136.29114232 -132.75163309 132.12035135 -134.3125 127.9375 C-138.86210789 115.73677581 -143.12256623 103.44112169 -147.37109375 91.1328125 C-147.77602051 89.96049072 -148.18094727 88.78816895 -148.59814453 87.58032227 C-149.39340021 85.27657497 -150.18739383 82.97239153 -150.97998047 80.66772461 C-151.34365723 79.61335205 -151.70733398 78.55897949 -152.08203125 77.47265625 C-152.56506714 76.06898804 -152.56506714 76.06898804 -153.05786133 74.63696289 C-153.69241514 72.86090285 -154.3787333 71.10259748 -155.11206055 69.36499023 C-156.19668578 66.4761355 -156.14232259 64.05993577 -156 61 C-148.69406843 62.92663822 -141.49421017 65.0644384 -134.3203125 67.43359375 C-133.34569061 67.75280289 -132.37106873 68.07201202 -131.36691284 68.40089417 C-128.28542964 69.41054009 -125.20514459 70.42377846 -122.125 71.4375 C-118.06561637 72.77109621 -114.00570872 74.10308381 -109.9453125 75.43359375 C-108.97451248 75.75176559 -108.00371246 76.06993744 -107.00349426 76.39775085 C-100.92969122 78.38333617 -94.84407407 80.31314308 -88.72949219 82.16967773 C-84.32721972 83.50886634 -79.94557946 84.91201633 -75.5625 86.3125 C-73.6757875 86.91408211 -71.78906854 87.51564395 -69.90234375 88.1171875 C-68.46157471 88.57689941 -68.46157471 88.57689941 -66.99169922 89.04589844 C-61.87034147 90.67918276 -56.7475938 92.30809746 -51.625 93.9375 C-49.7630147 94.52992864 -47.90103495 95.12237472 -46.0390625 95.71484375 C-45.25740723 95.96355225 -44.47575195 96.21226074 -43.67041016 96.46850586 C-43.1191748 96.64389893 -42.56793945 96.81929199 -42 97 C-38.47708579 89.57813018 -34.9941212 82.18867366 -32.02734375 74.5234375 C-30.7828257 71.46656046 -29.39741372 68.48997749 -28 65.5 C-25.88519941 60.96979125 -23.93688143 56.42403763 -22.1171875 51.76953125 C-20.70756435 48.27504589 -19.20264082 44.82461781 -17.6875 41.375 C-17.387229 40.69131348 -17.08695801 40.00762695 -16.77758789 39.30322266 C-15.55807913 36.53099544 -14.33579024 33.76000463 -13.11181641 30.98974609 C-8.57837171 20.72424333 -4.23198957 10.39345766 0 0 Z " fill="#6399A0" transform="translate(183,25)"/>
<path d="M0 0 C1.175625 0.391875 2.35125 0.78375 3.5625 1.1875 C4.38878906 1.46207031 5.21507812 1.73664063 6.06640625 2.01953125 C8.15961271 2.71912489 10.25051933 3.42561535 12.33984375 4.13671875 C19.04467959 6.40505702 25.75973036 8.54392467 32.5625 10.5 C39.02401969 12.35875338 45.32248685 14.5112381 51.63671875 16.828125 C54.9008929 17.96546791 58.16403245 18.91024543 61.5 19.8125 C67.84426263 21.55967842 73.95903204 23.76900395 80.125 26.0625 C86.65435495 28.48790768 93.03364801 30.6500402 99.83984375 32.16796875 C105.09137144 33.55063302 110.15823736 35.46580673 115.265625 37.30175781 C121.70843655 39.59962895 128.19452456 41.60957933 134.7956543 43.40185547 C139.79389442 44.79389442 139.79389442 44.79389442 142 47 C141.34257812 47.268125 140.68515625 47.53625 140.0078125 47.8125 C133.64080016 50.43522595 127.34268679 53.17693049 121.0625 56 C114.76638615 58.82579418 108.43522742 61.43282839 101.96484375 63.83984375 C98.94789877 65.02038744 96.04929649 66.35728892 93.125 67.75 C88.99017121 69.68120115 85.54476838 70.69701544 81 71 C81 71.66 81 72.32 81 73 C77.535 73.99 77.535 73.99 74 75 C74 75.66 74 76.32 74 77 C60.05886547 83.01563476 46.07167826 88.91266702 32.04833984 94.73388672 C27.03034891 96.8180851 22.0153123 98.90936619 17 101 C15.00001445 101.83336801 13.00001444 102.66670133 11 103.5 C10.01 103.9125 9.02 104.325 8 104.75 C-1 108.5 -1 108.5 -4.00317383 109.7512207 C-5.99269083 110.58025365 -7.98211224 111.40951603 -9.97143555 112.23901367 C-15.13104437 114.3900845 -20.29251471 116.53651752 -25.45703125 118.67578125 C-26.52115234 119.11728516 -27.58527344 119.55878906 -28.68164062 120.01367188 C-30.69403816 120.84850928 -32.7070121 121.68195933 -34.72070312 122.51367188 C-40.47610315 124.90338787 -46.15214115 127.41869185 -51.79174805 130.07104492 C-54 131 -54 131 -56 131 C-55.42086439 127.42446713 -54.46992287 124.67859163 -52.75 121.5 C-50.21863605 116.59684232 -48.25364575 111.59161095 -46.31640625 106.4296875 C-42.28322013 95.92186135 -37.57037505 85.6745271 -32.82421875 75.47265625 C-29.89022498 69.11726257 -27.19010178 62.68545762 -24.58642578 56.18896484 C-22.87943227 51.97256193 -20.98224319 47.92103222 -18.91723633 43.86889648 C-17.63985958 41.26620311 -16.62615833 38.59445845 -15.625 35.875 C-11.00409129 23.64649767 -5.58958441 11.80758363 0 0 Z " fill="#77758E" transform="translate(142,124)"/>
<path d="M0 0 C7.30593157 1.92663822 14.50578983 4.0644384 21.6796875 6.43359375 C22.65430939 6.75280289 23.62893127 7.07201202 24.63308716 7.40089417 C27.71457036 8.41054009 30.79485541 9.42377846 33.875 10.4375 C37.93438363 11.77109621 41.99428926 13.10308996 46.0546875 14.43359375 C47.02553284 14.75176559 47.99637817 15.06993744 48.99664307 15.39775085 C55.06906289 17.38280923 61.15302662 19.31329264 67.26611328 21.16967773 C79.48584721 24.8809936 91.63154287 28.84706168 103.75 32.875 C104.64912109 33.17317627 105.54824219 33.47135254 106.47460938 33.77856445 C107.30283203 34.05531006 108.13105469 34.33205566 108.984375 34.6171875 C109.71366211 34.86065918 110.44294922 35.10413086 111.19433594 35.35498047 C113 36 113 36 115 37 C114.392493 40.68587244 113.35112238 43.71857572 111.75390625 47.08984375 C109.05542911 52.8756192 106.48164293 58.70743228 103.9375 64.5625 C103.51662109 65.52607422 103.09574219 66.48964844 102.66210938 67.48242188 C100.6681731 72.06692963 98.71924495 76.66009928 96.87890625 81.30859375 C95.37609316 85.10384635 93.74967955 88.81045833 92 92.5 C90.22439535 96.29979396 88.52257303 100.09206255 87 104 C85.03125336 109.05311636 82.73266043 113.93210668 80.4375 118.84375 C79.20921422 121.54063833 78.07540964 124.23978192 77 127 C75.47742697 130.90793745 73.77560465 134.70020604 72 138.5 C69.87483324 143.05316978 67.90365351 147.62093062 66.078125 152.30078125 C63.83553656 157.91537766 61.3987851 163.45081046 59 169 C57.29596804 166.44395206 56.27895011 164.39990795 55.1953125 161.5703125 C54.69427002 160.26344482 54.69427002 160.26344482 54.18310547 158.93017578 C53.83393066 158.00446777 53.48475586 157.07875977 53.125 156.125 C52.76422363 155.1747998 52.40344727 154.22459961 52.03173828 153.24560547 C49.7810265 147.25559435 47.78595574 141.24482188 45.9921875 135.1015625 C44.62705797 130.8341891 42.91633131 126.7231093 41.21044922 122.58447266 C39.16735899 117.57031881 37.58868319 112.50152286 36.0625 107.3125 C34.88176406 103.63138207 33.47193183 100.07124444 32 96.5 C29.70670642 90.9270348 27.8244719 85.32873961 26.1171875 79.55078125 C24.77697107 75.29114232 23.24836691 71.12035135 21.6875 66.9375 C17.13789211 54.73677581 12.87743377 42.44112169 8.62890625 30.1328125 C8.22397949 28.96049072 7.81905273 27.78816895 7.40185547 26.58032227 C6.60659979 24.27657497 5.81260617 21.97239153 5.02001953 19.66772461 C4.65634277 18.61335205 4.29266602 17.55897949 3.91796875 16.47265625 C3.59594482 15.53687744 3.2739209 14.60109863 2.94213867 13.63696289 C2.30758486 11.86090285 1.6212667 10.10259748 0.88793945 8.36499023 C-0.19668578 5.4761355 -0.14232259 3.05993577 0 0 Z " fill="#A3EBB9" transform="translate(27,86)"/>
<path d="M0 0 C0.99 0 1.98 0 3 0 C4.09062543 3.27187629 4.16226296 5.83542791 4.28515625 9.28125 C4.84523444 19.87582271 7.24999861 30.14622444 9.4375 40.5 C10.25543516 44.40487708 11.06691097 48.31101739 11.87109375 52.21875 C12.06541992 53.16234375 12.25974609 54.1059375 12.45996094 55.078125 C13.75420711 61.47957913 14.70208537 67.83828043 15.48754883 74.32226562 C16.61300144 82.39935858 18.43644194 90.36609384 20.11914062 98.34228516 C20.59825664 100.62285829 21.06898891 102.90504866 21.5390625 105.1875 C21.68590485 105.86989746 21.83274719 106.55229492 21.98403931 107.25537109 C22.8680607 111.56526672 23.13321092 115.60617666 23 120 C13.64346956 117.71757364 4.62578611 114.89829371 -4.43457031 111.64282227 C-9.91052688 109.68943837 -15.4047995 107.95186386 -21 106.375 C-27.84598552 104.42995443 -34.67310332 102.31464256 -41 99 C-41.33 98.34 -41.66 97.68 -42 97 C-41.0086733 94.60404423 -39.96083447 92.31932412 -38.8125 90 C-38.15153655 88.62861878 -37.49267871 87.25622071 -36.8359375 85.8828125 C-36.51592773 85.21411133 -36.19591797 84.54541016 -35.86621094 83.85644531 C-34.79606456 81.5629298 -33.84905141 79.23568443 -32.9375 76.875 C-31.44013227 73.0062645 -29.7565472 69.25839775 -28 65.5 C-25.88519941 60.96979125 -23.93688143 56.42403763 -22.1171875 51.76953125 C-20.70756435 48.27504589 -19.20264082 44.82461781 -17.6875 41.375 C-17.387229 40.69131348 -17.08695801 40.00762695 -16.77758789 39.30322266 C-15.55807913 36.53099544 -14.33579024 33.76000463 -13.11181641 30.98974609 C-8.57837171 20.72424333 -4.23198957 10.39345766 0 0 Z " fill="#7F85E7" transform="translate(183,25)"/>
<path d="M0 0 C5.52939925 0.66640968 10.43014745 2.47282467 15.625 4.375 C21.04155401 6.31950392 26.37858989 8.22753181 32 9.5 C38.26919542 10.93245368 44.22283014 13.12964841 50.26513672 15.30151367 C56.70806537 17.59960119 63.19435163 19.60953237 69.7956543 21.40185547 C74.79389442 22.79389442 74.79389442 22.79389442 77 25 C76.34257812 25.268125 75.68515625 25.53625 75.0078125 25.8125 C68.64080016 28.43522595 62.34268679 31.17693049 56.0625 34 C49.76638615 36.82579418 43.43522742 39.43282839 36.96484375 41.83984375 C33.94789877 43.02038744 31.04929649 44.35728892 28.125 45.75 C23.99017121 47.68120115 20.54476838 48.69701544 16 49 C16 49.66 16 50.32 16 51 C12.535 51.495 12.535 51.495 9 52 C7.87004221 46.52490722 6.74943001 41.04800942 5.63696289 35.56933594 C5.25826178 33.7107552 4.87713288 31.85266726 4.4934082 29.99511719 C0.40881302 10.20586597 0.40881302 10.20586597 0 0 Z " fill="#30446B" transform="translate(207,146)"/>
<path d="M0 0 C2.64752004 2.57784846 4.94432065 4.91648098 7 8 C6.01 8 5.02 8 4 8 C0 2.74285714 0 2.74285714 0 0 Z " fill="#649AB8" transform="translate(188,30)"/>
</svg>
