<?xml version="1.0" standalone="no"?>
<!DOCTYPE svg PUBLIC "-//W3C//DTD SVG 20010904//EN"
 "http://www.w3.org/TR/2001/REC-SVG-20010904/DTD/svg10.dtd">
<svg version="1.0" xmlns="http://www.w3.org/2000/svg"
 width="512.000000pt" height="512.000000pt" viewBox="0 0 512.000000 512.000000"
 preserveAspectRatio="xMidYMid meet">

<g transform="translate(0.000000,512.000000) scale(0.100000,-0.100000)"
fill="#000000" stroke="none">
<path d="M590 4783 c2 -65 358 -4005 363 -4009 11 -11 1581 -446 1607 -445 27
1 1597 435 1607 444 4 5 362 3962 363 4015 0 9 -401 12 -1970 12 -1870 0
-1970 -1 -1970 -17z m3210 -825 c0 -13 -9 -117 -20 -233 -11 -115 -20 -218
-20 -227 0 -17 -52 -18 -948 -18 l-948 0 23 -247 c12 -137 22 -249 23 -250 0
-2 405 -3 900 -3 713 0 900 -3 900 -12 1 -17 -132 -1512 -134 -1515 -1 -1
-229 -65 -506 -142 l-505 -140 -510 141 c-280 77 -511 141 -512 142 -6 4 -69
773 -64 779 4 4 117 6 252 5 l244 -3 17 -194 c10 -107 20 -196 22 -198 2 -2
124 -36 272 -76 l268 -72 276 74 276 75 23 265 c13 146 25 290 28 319 l6 52
-856 0 -856 0 -6 53 c-9 86 -125 1400 -125 1424 l0 23 1240 0 1240 0 0 -22z"/>
</g>
</svg>
