<?xml version="1.0" encoding="UTF-8"?>
<svg version="1.1" xmlns="http://www.w3.org/2000/svg" width="512" height="512">
<path d="M0 0 C0.8850119 0.00215515 1.7700238 0.0043103 2.68185425 0.00653076 C15.45622997 0.05647521 27.82313258 0.40645297 40.3125 3.3125 C41.6123584 3.59456299 41.6123584 3.59456299 42.93847656 3.88232422 C95.4646954 15.44545155 140.80130549 47.17200297 169.84375 92.359375 C183.18237354 113.55296573 191.92229786 135.85894962 197.3125 160.3125 C197.49039062 161.07369141 197.66828125 161.83488281 197.8515625 162.61914062 C203.70282119 188.5086384 202.44477331 219.66524638 196.3125 245.3125 C196.07644043 246.30024414 195.84038086 247.28798828 195.59716797 248.30566406 C182.12924612 302.47258639 147.51044365 346.16707747 100.171875 374.84375 C81.54618075 385.82054882 61.35830385 392.67345433 40.3125 397.3125 C39.55130859 397.49039062 38.79011719 397.66828125 38.00585938 397.8515625 C12.1163616 403.70282119 -19.04024638 402.44477331 -44.6875 396.3125 C-45.67524414 396.07644043 -46.66298828 395.84038086 -47.68066406 395.59716797 C-99.92283174 382.60781207 -143.27154064 349.68448448 -171.6875 304.3125 C-172.06616211 303.71308594 -172.44482422 303.11367188 -172.83496094 302.49609375 C-184.6628301 283.49764302 -191.96278323 262.08587343 -196.6875 240.3125 C-196.86394043 239.55420898 -197.04038086 238.79591797 -197.22216797 238.01464844 C-203.07730667 212.1220529 -201.82076383 180.96389632 -195.6875 155.3125 C-195.45144043 154.32475586 -195.21538086 153.33701172 -194.97216797 152.31933594 C-182.33763724 101.50424716 -150.23035741 57.01197626 -105.625 29.5 C-73.11944743 10.0029242 -37.95493467 -0.16636171 0 0 Z " fill="#0769AD" transform="translate(255.6875,55.6875)"/>
<path d="M0 0 C0.33 0.66 0.66 1.32 1 2 C0.30053644 3.68459393 -0.40657796 5.36656482 -1.15869141 7.02832031 C-10.9322154 29.93342181 -7.19044534 57.61683129 1.51513672 80.16967773 C11.35593144 104.34983009 27.388892 124.63398651 49.34423828 138.92089844 C50.92027647 139.94804217 52.47452846 141.00838721 54.02734375 142.0703125 C81.83804815 160.3244428 116.00593985 166.46335156 148.69555664 160.55175781 C168.22118454 156.39707875 188.91319877 146.25466372 201 130 C201.33 130.66 201.66 131.32 202 132 C200.83483127 134.3701985 199.62147986 136.56406696 198.25 138.8125 C197.84313965 139.48176514 197.4362793 140.15103027 197.01708984 140.84057617 C184.08784933 161.5356772 165.73137668 176.35305858 143 185 C142.04996094 185.37898437 141.09992188 185.75796875 140.12109375 186.1484375 C109.99090954 197.29534849 75.58168341 193.69448385 46.85546875 180.5625 C36.02583302 174.98119432 26.11496397 167.3676788 17.234375 159.08203125 C15.16383299 157.15266256 13.03830638 155.32371759 10.875 153.5 C-10.86840709 134.37103064 -25.10837209 102.73472875 -27 74 C-28.69927759 44.33018672 -17.75535055 22.9182539 0 0 Z " fill="#76CDF4" transform="translate(159,183)"/>
<path d="M0 0 C1.16807578 3.50422734 0.74835692 4.51074608 -0.375 7.9375 C-2.53391074 14.62608794 -3.18261448 20.1572386 -3.1875 27.1875 C-3.19974609 28.09564453 -3.21199219 29.00378906 -3.22460938 29.93945312 C-3.23740524 35.89806079 -2.56526775 41.25452149 -1 47 C-0.73960937 47.98226562 -0.47921875 48.96453125 -0.2109375 49.9765625 C3.78760445 62.64484027 10.0582835 74.14755311 19 84 C19.73734375 84.81855469 20.4746875 85.63710937 21.234375 86.48046875 C37.10118352 103.20284047 59.5859492 116.1637839 83 117 C84.19109375 117.06316406 85.3821875 117.12632812 86.609375 117.19140625 C105.62679766 117.90864551 125.03464679 111.73915173 139.36328125 98.87890625 C141.29087279 96.95836257 143.15608211 95.00047695 145 93 C145.99546492 91.9954854 146.99388396 90.99384633 148 90 C143.20588699 105.8414169 129.51231743 120.2494055 115.30078125 128.44921875 C110.80340484 130.56218731 106.20068807 132.21093632 101.5 133.8125 C100.62190674 134.11478516 99.74381348 134.41707031 98.83911133 134.72851562 C78.39156931 141.38877901 53.15017136 139.62995723 34 130 C9.84615256 117.2542005 -8.43160086 97.45922828 -17.04760742 71.3984375 C-21.25236867 56.66768119 -21.65097448 38.06710532 -15 24 C-14.49082031 22.92105469 -13.98164063 21.84210938 -13.45703125 20.73046875 C-9.67392173 13.29410472 -5.08984269 6.59696493 0 0 Z " fill="#76CDF3" transform="translate(220,162)"/>
<path d="M0 0 C1 3 1 3 0.0625 5.4375 C-3.64639618 17.8732107 0.36412356 30.81407265 6 42 C15.19021434 57.04947763 28.61503022 66.57075359 45.625 71 C57.9677266 73.34954252 71.5026911 73.21606872 82.5 66.5 C83.68029699 65.68608687 84.84905155 64.85491123 86 64 C86.825 63.401875 87.65 62.80375 88.5 62.1875 C88.995 61.795625 89.49 61.40375 90 61 C87.24254156 69.17024724 79.72452543 77.10294212 72 81 C58.08898513 87.23656956 43.4517665 88.47627915 28.94921875 83.25390625 C10.55910756 75.43506427 -1.34140266 63.42900441 -8.87109375 45.06640625 C-12.58157153 34.98777284 -12.1234249 23.88660912 -8.35546875 13.875 C-6.03252633 8.9479521 -3.12150422 4.4542813 0 0 Z " fill="#75CCF3" transform="translate(270,150)"/>
</svg>
