<?xml version="1.0" standalone="no"?>
<!DOCTYPE svg PUBLIC "-//W3C//DTD SVG 20010904//EN"
 "http://www.w3.org/TR/2001/REC-SVG-20010904/DTD/svg10.dtd">
<svg version="1.0" xmlns="http://www.w3.org/2000/svg"
 width="1000.000000pt" height="810.000000pt" viewBox="0 0 1000.000000 810.000000"
 preserveAspectRatio="xMidYMid meet">
<metadata>
Created by potrace 1.16, written by Peter Selinger 2001-2019
</metadata>
<g transform="translate(0.000000,810.000000) scale(0.100000,-0.100000)"
fill="#000000" stroke="none">
<path d="M1695 7851 c-11 -5 -23 -7 -27 -4 -5 2 -8 -10 -8 -27 0 -18 -4 -29
-10 -25 -6 4 -10 -16 -9 -52 0 -38 3 -51 8 -39 7 18 8 18 14 -5 4 -13 7 -88 7
-166 0 -104 3 -142 13 -145 9 -3 14 -52 18 -179 3 -96 6 -167 8 -159 2 11 5
10 11 -5 5 -11 9 -85 10 -165 1 -98 6 -158 15 -185 10 -28 15 -85 15 -192 0
-109 3 -152 12 -155 8 -3 15 -59 23 -179 5 -96 13 -179 17 -185 4 -6 10 -89
14 -185 4 -96 11 -179 16 -185 5 -7 11 -81 15 -165 3 -89 10 -160 17 -168 6
-8 12 -71 14 -153 2 -76 7 -136 12 -133 14 9 20 -56 20 -224 0 -94 4 -160 9
-153 14 23 21 -40 21 -190 0 -111 3 -143 15 -154 15 -15 17 -60 20 -444 1 -47
6 -109 13 -139 7 -29 12 -75 12 -100 0 -26 6 -56 14 -67 11 -15 15 -69 18
-226 2 -157 6 -202 14 -186 9 17 12 9 17 -48 4 -38 7 -121 7 -186 0 -77 4
-118 11 -120 7 -2 13 -48 17 -123 3 -69 9 -123 15 -127 7 -4 13 -61 15 -140 3
-84 9 -136 16 -140 7 -5 13 -72 17 -195 3 -103 6 -181 8 -173 2 11 5 10 11 -5
5 -11 9 -92 9 -180 1 -100 5 -155 10 -146 14 22 19 -29 26 -257 6 -216 14
-252 56 -252 11 0 19 -4 19 -10 0 -5 18 -10 39 -10 22 0 46 -7 55 -15 8 -8 32
-15 55 -15 23 0 41 -4 41 -10 0 -5 17 -10 38 -10 21 0 47 -7 58 -15 10 -8 36
-15 57 -15 20 0 37 -4 37 -10 0 -5 15 -10 34 -10 19 0 41 -7 50 -15 8 -8 31
-15 50 -15 20 0 36 -4 36 -9 0 -4 21 -11 47 -14 26 -3 49 -10 51 -16 2 -6 24
-11 48 -11 24 0 44 -4 44 -9 0 -5 23 -11 50 -15 29 -4 48 -11 45 -16 -4 -6 11
-10 35 -10 22 0 48 -4 58 -9 9 -6 34 -13 55 -16 20 -3 37 -10 37 -15 0 -6 17
-10 39 -10 21 0 52 -7 67 -15 16 -8 39 -15 52 -15 12 0 22 -4 22 -10 0 -5 14
-10 31 -10 17 0 40 -5 52 -12 12 -6 40 -13 62 -16 22 -2 42 -8 43 -13 2 -5 23
-9 46 -9 23 0 51 -7 62 -15 10 -8 34 -15 52 -15 17 0 32 -4 32 -10 0 -5 15
-10 33 -10 18 0 42 -7 53 -15 10 -8 36 -15 57 -15 20 0 37 -4 37 -9 0 -4 21
-11 47 -14 26 -3 49 -10 51 -16 2 -6 19 -11 38 -11 19 0 34 -4 34 -10 0 -5 15
-10 34 -10 19 0 41 -7 50 -15 8 -8 31 -15 50 -15 20 0 44 -4 54 -9 9 -6 34
-13 55 -16 20 -3 37 -10 37 -15 0 -6 15 -10 34 -10 18 0 47 -7 62 -15 16 -8
39 -15 52 -15 12 0 22 -4 22 -9 0 -5 19 -11 43 -14 71 -10 157 -31 157 -39 0
-4 50 -8 110 -8 67 0 110 4 110 10 0 6 11 10 25 10 14 0 42 7 62 15 19 8 53
15 75 15 24 0 37 4 33 10 -5 8 37 15 67 12 3 -1 12 5 18 13 7 9 29 15 51 15
22 0 39 4 39 9 0 5 18 12 40 16 22 4 42 11 46 16 3 5 23 9 45 9 21 0 39 4 39
10 0 5 18 13 40 16 22 4 43 11 46 15 3 5 25 9 49 9 24 0 45 5 47 11 2 6 25 13
51 16 26 3 50 10 53 14 3 5 20 9 37 9 18 0 41 7 51 15 11 8 37 15 58 15 21 0
38 5 38 10 0 6 15 10 33 10 17 1 43 7 57 15 14 8 37 14 52 15 14 0 28 4 30 9
2 5 22 11 46 14 24 2 49 10 55 16 6 6 26 11 44 11 18 0 33 4 33 8 0 10 86 32
153 39 26 3 47 9 47 13 0 5 18 11 40 15 22 4 42 11 46 16 3 5 23 9 45 9 21 0
39 4 39 10 0 5 17 12 38 15 20 3 45 10 54 16 10 5 34 9 53 9 21 0 34 4 30 10
-3 5 17 12 45 16 28 4 53 11 56 15 3 5 23 9 45 9 23 0 47 7 55 15 9 8 31 15
49 15 19 0 37 5 40 10 3 6 24 10 46 10 23 0 47 7 55 15 9 8 29 15 45 15 16 0
29 5 29 10 0 6 17 10 39 10 22 0 44 6 51 15 7 9 29 15 51 15 21 0 41 5 44 10
3 6 15 10 26 10 10 0 19 6 19 14 0 8 5 16 11 18 25 8 48 191 49 393 0 157 6
207 21 183 5 -7 9 73 9 184 0 197 5 243 21 216 5 -7 9 50 9 134 0 147 4 183
21 172 5 -3 9 59 9 144 0 151 6 216 20 207 4 -2 9 67 12 155 3 88 9 165 15
172 6 7 13 86 15 177 3 91 10 166 15 170 6 3 13 77 15 165 3 87 10 161 15 165
6 3 15 71 21 151 6 80 15 177 21 215 5 39 10 122 11 185 0 125 7 171 21 148 5
-7 9 65 9 167 0 185 6 238 21 213 5 -7 9 54 9 144 0 154 4 193 20 183 4 -3 10
71 11 164 3 106 8 173 15 182 8 9 13 72 16 167 2 96 7 155 14 160 7 4 13 71
16 180 3 95 10 178 16 185 5 6 12 80 15 163 3 84 10 160 16 170 6 11 15 78 20
149 6 72 15 166 20 210 5 44 10 126 10 181 1 112 9 167 22 158 5 -3 9 80 9
188 0 197 5 251 21 226 5 -7 9 38 9 107 -1 79 -5 125 -13 136 -11 15 -211 16
-2387 14 -2178 -2 -4041 6 -4165 19 -27 3 -59 2 -70 -3z m6573 -66 c14 -5 15
-151 2 -285 -5 -47 -14 -150 -19 -230 -6 -80 -15 -174 -21 -210 -6 -36 -15
-141 -20 -235 -6 -93 -14 -201 -19 -240 -6 -38 -10 -101 -11 -140 0 -38 -5
-86 -10 -105 -5 -19 -14 -100 -20 -180 -6 -80 -14 -170 -19 -200 -5 -30 -10
-89 -11 -130 0 -41 -7 -120 -15 -175 -8 -55 -15 -140 -15 -190 0 -49 -5 -108
-10 -130 -6 -22 -14 -99 -19 -170 -6 -72 -14 -168 -20 -215 -10 -84 -23 -229
-41 -465 -5 -66 -14 -156 -20 -200 -6 -44 -15 -152 -20 -240 -12 -190 -26
-353 -40 -450 -6 -39 -15 -135 -20 -215 -6 -80 -14 -167 -19 -195 -6 -27 -10
-89 -10 -137 -1 -47 -8 -122 -16 -165 -8 -43 -15 -116 -16 -163 0 -47 -5 -110
-10 -140 -5 -30 -13 -111 -18 -180 -5 -69 -14 -163 -20 -210 -12 -97 -28 -282
-41 -485 -5 -77 -14 -169 -20 -205 -5 -36 -12 -136 -15 -222 -6 -209 -10 -217
-125 -248 -25 -7 -63 -18 -85 -25 -43 -14 -136 -40 -200 -56 -22 -6 -53 -14
-70 -19 -16 -4 -57 -15 -90 -25 -33 -9 -82 -22 -110 -30 -27 -8 -75 -21 -105
-29 -30 -8 -104 -29 -165 -47 -60 -17 -126 -35 -145 -40 -107 -24 -157 -38
-340 -94 -41 -13 -104 -31 -140 -40 -90 -23 -170 -45 -200 -55 -14 -5 -38 -11
-55 -14 -31 -6 -166 -42 -265 -71 -92 -27 -112 -33 -210 -60 -52 -14 -117 -32
-145 -40 -238 -66 -259 -69 -347 -49 -121 26 -138 31 -283 74 -77 23 -151 45
-165 47 -25 5 -116 31 -275 78 -44 13 -132 37 -195 55 -63 18 -137 39 -165 47
-27 8 -93 25 -146 37 -53 13 -143 37 -200 54 -57 17 -158 45 -224 62 -66 17
-133 35 -150 41 -16 5 -97 27 -180 50 -82 23 -170 48 -195 56 -51 16 -147 41
-205 53 -22 4 -53 12 -70 18 -16 5 -56 18 -88 27 -41 12 -61 24 -67 39 -5 11
-14 70 -20 131 -6 60 -15 114 -20 120 -4 5 -9 55 -9 110 -3 122 -17 313 -30
380 -6 28 -10 91 -10 140 -1 50 -5 117 -11 150 -5 33 -14 132 -20 220 -7 87
-15 166 -20 175 -4 8 -10 44 -13 80 -3 36 -10 94 -16 130 -11 61 -19 152 -41
470 -5 74 -14 160 -20 190 -5 30 -12 135 -16 232 -3 98 -9 192 -15 210 -5 18
-9 58 -9 89 0 30 -6 100 -14 155 -8 54 -18 178 -21 274 -4 96 -13 200 -21 231
-8 31 -14 104 -14 161 0 58 -3 107 -6 110 -6 6 -7 16 -23 262 -6 82 -15 154
-21 160 -5 5 -10 39 -11 75 0 37 -4 89 -9 116 -5 28 -18 163 -29 300 -12 138
-28 306 -36 375 -8 69 -17 212 -19 319 -3 107 -9 197 -14 200 -5 3 -12 47 -16
97 -3 50 -9 101 -12 115 -3 13 -11 128 -18 254 -7 127 -17 239 -23 250 -6 11
-13 65 -17 120 -3 55 -8 138 -12 184 -7 96 4 128 45 133 43 5 6505 -2 6519 -7z"/>
<path d="M2930 6456 c0 -13 16 -192 35 -397 19 -206 35 -382 35 -391 0 -17 29
-18 470 -18 l470 0 0 -1405 c0 -1235 -2 -1405 -15 -1405 -24 0 -430 62 -434
66 -4 3 -59 589 -61 637 0 16 -27 17 -420 17 l-420 0 6 -42 c3 -24 29 -314 58
-646 30 -332 57 -606 60 -609 5 -5 2036 -412 2059 -413 4 0 7 1042 7 2315 l0
2315 -925 0 -925 0 0 -24z"/>
<path d="M5230 5230 l0 -1250 559 0 c308 0 562 -4 565 -9 6 -10 -90 -1061 -98
-1068 -3 -3 -233 -47 -510 -97 -278 -51 -508 -95 -511 -98 -3 -3 -4 -196 -3
-430 l3 -425 894 204 c492 111 896 205 899 207 3 4 231 2477 232 2523 0 10
-126 13 -582 15 l-583 3 -3 423 -2 422 620 0 c488 0 621 3 625 13 2 6 18 176
35 377 17 201 33 382 36 403 l6 37 -1091 0 -1091 0 0 -1250z"/>
</g>
</svg>
