<?xml version="1.0" encoding="UTF-8"?>
<svg version="1.1" xmlns="http://www.w3.org/2000/svg" width="360" height="360">
<path d="M0 0 C2.91821289 1.27832031 2.91821289 1.27832031 5.97265625 3.078125 C7.10864258 3.73828613 8.24462891 4.39844727 9.41503906 5.07861328 C10.63096576 5.80223012 11.84678356 6.52602997 13.0625 7.25 C14.32573187 7.98942786 15.58973841 8.72753377 16.85449219 9.46435547 C19.39287771 10.94482703 21.92758062 12.43130385 24.45947266 13.92285156 C29.19422107 16.70754957 33.97192945 19.41554415 38.75 22.125 C47.45153401 27.08548026 56.10499757 32.12724996 64.74511719 37.19384766 C66.61551555 38.28911161 68.48877573 39.37950703 70.36523438 40.46435547 C72.09748732 41.47398028 73.81814074 42.5038241 75.52539062 43.55517578 C76.30591797 44.02294434 77.08644531 44.49071289 77.890625 44.97265625 C78.56641602 45.389104 79.24220703 45.80555176 79.93847656 46.23461914 C82.66103207 47.24542107 84.24696114 46.81570494 87 46 C89.07933382 44.94624546 91.11761275 43.81008404 93.125 42.625 C93.73061768 42.27123291 94.33623535 41.91746582 94.96020508 41.55297852 C96.28359025 40.77957592 97.60522056 40.00316455 98.92529297 39.22412109 C102.50355745 37.11286926 106.09468086 35.0238631 109.6875 32.9375 C110.4702832 32.4825415 111.25306641 32.02758301 112.05957031 31.55883789 C120.25944734 26.81361309 128.54326788 22.22102396 136.84350586 17.65405273 C142.32950792 14.62864679 147.77699475 11.56497878 153.1484375 8.33984375 C154.09799316 7.77515381 155.04754883 7.21046387 156.02587891 6.62866211 C157.79035325 5.57374112 159.54596918 4.50380049 161.29052734 3.41625977 C165.23294687 1.07158316 167.27154693 -0.01724149 171.9609375 0.09375 C175 1 175 1 176.875 2.5 C179.8922399 9.20497755 179.14460244 17.54700678 179.12939453 24.76123047 C179.13202301 26.31677643 179.13202301 26.31677643 179.13470459 27.90374756 C179.13908075 31.30824492 179.13619963 34.71268968 179.1328125 38.1171875 C179.13348686 40.49935923 179.13445798 42.8815309 179.13571167 45.26370239 C179.137183 50.24823667 179.13505263 55.23275298 179.13037109 60.21728516 C179.12468039 66.58437471 179.12795226 72.95142205 179.13394356 79.31851006 C179.13756972 84.23605666 179.13640104 89.15359338 179.13381577 94.07114029 C179.13315186 96.41772593 179.13395605 98.76431249 179.13629532 101.11089706 C179.13885498 104.40061545 179.13493459 107.69026701 179.12939453 110.97998047 C179.13141876 111.93617279 179.13344299 112.89236511 179.13552856 113.87753296 C179.08114274 131.44493168 179.08114274 131.44493168 176.00390625 135.87109375 C172.13349751 138.61410125 168.13805592 140.86717949 163.9375 143.0625 C155.54739049 147.54611587 147.37114422 152.2996637 139.27319336 157.29125977 C138.47921143 157.77651123 137.68522949 158.2617627 136.8671875 158.76171875 C136.16706543 159.19444092 135.46694336 159.62716309 134.74560547 160.07299805 C133 161 133 161 131 161 C130.4492465 165.0568339 130.4492465 165.0568339 131 169 C133.27935771 171.38691082 136.00956361 172.71546712 138.9375 174.1875 C139.71714111 174.60749268 140.49678223 175.02748535 141.30004883 175.46020508 C142.83778297 176.28705597 144.38155393 177.102795 145.93164062 177.90625 C149.06483746 179.56308685 152.04471627 181.46814772 155.04296875 183.35546875 C158.51950613 184.50043615 161.48046196 183.72995111 164.7355957 182.16625977 C166.71119934 181.05529557 168.63743746 179.88389495 170.5625 178.6875 C172.06419056 177.77843701 173.56684122 176.87095863 175.0703125 175.96484375 C175.86469727 175.4838623 176.65908203 175.00288086 177.47753906 174.50732422 C182.7713013 171.34397849 188.15176676 168.32975157 193.51586914 165.2878418 C198.72919573 162.3226261 203.87388183 159.27199492 208.97094727 156.11035156 C211 155 211 155 213 155 C212.99000725 154.1146331 212.99000725 154.1146331 212.97981262 153.21138 C212.91339698 147.06325736 212.8681735 140.91523679 212.83520508 134.7668457 C212.82012692 132.47285828 212.7996613 130.17889963 212.77368164 127.88500977 C212.73725642 124.58602795 212.72026369 121.2874276 212.70703125 117.98828125 C212.69154739 116.96414627 212.67606354 115.94001129 212.66011047 114.88484192 C212.65800787 105.97104333 212.65800787 105.97104333 216 102 C219.4102152 99.27060115 223.22208564 97.18299297 227 95 C227.92425781 94.45811035 227.92425781 94.45811035 228.8671875 93.90527344 C230.81729181 92.7706495 232.78038714 91.66286294 234.75 90.5625 C235.36327148 90.20824951 235.97654297 89.85399902 236.60839844 89.48901367 C240.90201258 87.15665865 244.14788249 86.53732865 249 87 C252.1850357 88.76015131 252.83296972 89.49890916 254 93 C254.1114283 95.60466097 254.16763798 98.18328547 254.17700195 100.78857422 C254.18357315 101.58077362 254.19014435 102.37297302 254.19691467 103.18917847 C254.21662726 105.81101578 254.22830452 108.43279592 254.23828125 111.0546875 C254.24235678 111.95036564 254.2464323 112.84604378 254.25063133 113.76886368 C254.27148145 118.50785338 254.28578883 123.24681421 254.29516602 127.98583984 C254.30623986 132.88088534 254.34065389 137.77547743 254.38033772 142.67036247 C254.40647377 146.43475188 254.41485507 150.19903263 254.41844749 153.96350479 C254.42331975 155.76802769 254.43495191 157.57254553 254.45348549 159.37697983 C254.47781767 161.90256565 254.47692331 164.42696972 254.4699707 166.95263672 C254.48918579 168.06874329 254.48918579 168.06874329 254.50878906 169.20739746 C254.45972971 174.10002766 253.47507704 176.56639516 250 180 C247.44824219 181.72241211 247.44824219 181.72241211 244.546875 183.27734375 C243.46462646 183.86620361 242.38237793 184.45506348 241.26733398 185.06176758 C240.10661377 185.68075928 238.94589355 186.29975098 237.75 186.9375 C235.29533496 188.26823765 232.84503118 189.60692413 230.39453125 190.9453125 C229.77405411 191.28293106 229.15357697 191.62054962 228.51429749 191.96839905 C222.41709946 195.29475361 216.42142788 198.78687384 210.4375 202.3125 C202.86109161 206.765361 195.24817575 211.12820801 187.54858398 215.36425781 C180.98195182 218.98504777 174.49365905 222.73597099 168.0144043 226.51049805 C167.25683838 226.95176025 166.49927246 227.39302246 165.71875 227.84765625 C165.04779297 228.23961182 164.37683594 228.63156738 163.68554688 229.03540039 C159.99884182 231.14521668 158.18890089 230.81956757 154 230 C154 229.34 154 228.68 154 228 C153.175 227.773125 152.35 227.54625 151.5 227.3125 C147.89026076 225.95884778 145.02492229 224.24339016 141.83203125 222.12109375 C139.89004926 220.83810114 139.89004926 220.83810114 137 220 C137 219.34 137 218.68 137 218 C136.113125 217.71125 135.22625 217.4225 134.3125 217.125 C131.49617576 216.16851252 128.74916844 215.13201054 126 214 C126 213.34 126 212.68 126 212 C125.278125 211.731875 124.55625 211.46375 123.8125 211.1875 C121 210 121 210 118.4375 208.4375 C116.14569916 206.92319836 116.14569916 206.92319836 113.875 206.5 C112 206 112 206 110.61987305 204.59643555 C108.89865472 202.90012106 107.37108966 202.01309175 105.20703125 200.95703125 C104.49482422 200.60576172 103.78261719 200.25449219 103.04882812 199.89257812 C102.31083984 199.53615234 101.57285156 199.17972656 100.8125 198.8125 C100.06291016 198.44447266 99.31332031 198.07644531 98.54101562 197.69726562 C96.69667788 196.79271782 94.84868755 195.89562424 93 195 C93 194.34 93 193.68 93 193 C92.113125 192.79375 91.22625 192.5875 90.3125 192.375 C86.36943297 190.73825519 84.11184937 188.64959062 82 185 C81.28506725 182.16986543 81.2316268 179.44118218 81.22265625 176.53125 C81.2027916 175.73271606 81.18292694 174.93418213 81.16246033 174.1114502 C81.12543296 172.43079575 81.10004848 170.74984864 81.08569336 169.06884766 C81.06256218 166.50688702 81.00214399 163.94788159 80.93554688 161.38671875 C80.90405688 159.74743649 80.87468881 158.10811182 80.84765625 156.46875 C80.83114517 155.70921021 80.81463409 154.94967041 80.79762268 154.16711426 C80.7727851 149.72748163 81.15330247 146.06021791 83 142 C85.40418666 140.38497385 87.52654098 139.20381431 90.125 138 C91.66802512 137.23581752 93.20823093 136.46592503 94.74609375 135.69140625 C95.5851123 135.27004395 96.42413086 134.84868164 97.28857422 134.41455078 C102.3579328 131.7698665 107.26368651 128.84162592 112.1875 125.9375 C114.11830773 124.80047238 116.04929579 123.66375093 117.98046875 122.52734375 C118.93356934 121.96644043 119.88666992 121.40553711 120.86865234 120.82763672 C126.55456747 117.50900576 132.27781411 114.25557178 138 111 C138.02485249 106.28605527 138.04293186 101.5721493 138.05493164 96.8581543 C138.05993805 95.25691055 138.06674515 93.65567133 138.07543945 92.05444336 C138.08766764 89.74331542 138.09326536 87.43224831 138.09765625 85.12109375 C138.10281754 84.41351425 138.10797882 83.70593475 138.11329651 82.97691345 C138.11378966 78.53591829 137.72076256 74.36697315 137 70 C134.82114254 68.7147196 134.82114254 68.7147196 132 68 C129.08218915 68.83067325 129.08218915 68.83067325 126.0625 70.5625 C125.47549316 70.8711499 124.88848633 71.1797998 124.28369141 71.49780273 C118.37504502 74.66459181 112.6364435 78.13815857 106.875 81.5625 C104.07324174 83.22317853 101.27092994 84.88288516 98.46679688 86.53955078 C96.96505992 87.42864327 95.46570011 88.32178841 93.97070312 89.22216797 C92.37207098 90.17648954 90.74969067 91.09075052 89.125 92 C88.30257812 92.474375 87.48015625 92.94875 86.6328125 93.4375 C80.15849821 94.82073629 73.35030355 89.6470917 68 86.375 C66.51644657 85.48430724 65.03204918 84.59501889 63.546875 83.70703125 C62.79728516 83.2579541 62.04769531 82.80887695 61.27539062 82.34619141 C56.98220783 79.8062118 52.62260712 77.38483148 48.265625 74.95654297 C45.56119802 73.44727551 42.89016094 71.93003079 40.27734375 70.265625 C37.08298067 68.49037005 34.58654562 68.66164664 31 69 C28.10479112 71.89520888 28.74192894 73.99487209 28.72875977 78.04833984 C28.72091965 79.13641685 28.72091965 79.13641685 28.71292114 80.24647522 C28.70266843 81.82392585 28.69689853 83.40141043 28.69503975 84.97889328 C28.69138496 87.47548047 28.67468281 89.97166722 28.65428162 92.46817017 C28.5987859 99.56692054 28.5681852 106.66573063 28.54370117 113.76464844 C28.52782793 118.10481461 28.49760928 122.44469788 28.45893669 126.78471756 C28.44728198 128.43928652 28.4413563 130.09390608 28.44125557 131.74851608 C28.44106356 134.06360142 28.42280039 136.37790684 28.40063477 138.69287109 C28.39302879 140.66904922 28.39302879 140.66904922 28.38526917 142.68515015 C27.97850095 146.18497747 27.54035158 147.6020064 25 150 C20.1104425 151.38807075 17.30905996 151.50627189 12.81640625 149.0859375 C11.38516417 148.20346525 9.96736255 147.29888981 8.5625 146.375 C7.0721781 145.44180778 5.58129776 144.50950678 4.08984375 143.578125 C3.38456543 143.12888672 2.67928711 142.67964844 1.95263672 142.21679688 C-1.05157833 140.34470287 -4.17946412 138.72991258 -7.3359375 137.1328125 C-9.61036936 135.58449034 -10.60239408 134.41876911 -12 132 C-12.40159257 128.94824437 -12.60421655 126.10002698 -12.6796875 123.03515625 C-12.71270966 122.05627945 -12.74573181 121.07740265 -12.77975464 120.06886292 C-13.25229217 103.53287939 -13.14927363 86.97723797 -13.13037109 70.4362793 C-13.12463948 65.41732958 -13.12798852 60.39843297 -13.13394356 55.37948513 C-13.13757933 51.46122344 -13.1363974 47.54297408 -13.13381577 43.62471199 C-13.13315666 41.77462825 -13.13393863 39.92454334 -13.13629532 38.07446098 C-13.16656799 7.68699236 -13.16656799 7.68699236 -9 2 C-5.47112477 -0.35258349 -4.15662608 -0.41410176 0 0 Z " fill="#0D84FE" transform="translate(59,70)"/>
<path d="M0 0 C3.23613354 1.74253345 3.82395315 2.47185944 5 6 C5.25113489 10.5384404 5.27077623 15.07907028 5.29516602 19.62353516 C5.30669518 21.12102704 5.32716217 22.61847752 5.35668945 24.11572266 C5.399427 26.28316068 5.4155411 28.44938013 5.42578125 30.6171875 C5.44036377 31.91253418 5.45494629 33.20788086 5.4699707 34.54248047 C4.91359388 38.63567974 3.92364471 40.13127114 1 43 C-1.39428711 44.74511719 -1.39428711 44.74511719 -4.02734375 46.296875 C-4.98447266 46.86277344 -5.94160156 47.42867187 -6.92773438 48.01171875 C-8.41756836 48.87216797 -8.41756836 48.87216797 -9.9375 49.75 C-10.92685547 50.33910156 -11.91621094 50.92820313 -12.93554688 51.53515625 C-21.46364584 56.52469633 -21.46364584 56.52469633 -26 57 C-29.93614016 55.45641562 -31.63226576 54.55160136 -34 51 C-34.21923313 48.51695457 -34.32793132 46.14855106 -34.3359375 43.6640625 C-34.3425943 42.94769623 -34.3492511 42.23132996 -34.35610962 41.49325562 C-34.36622695 39.97860274 -34.37092692 38.46390538 -34.37060547 36.94921875 C-34.37497188 34.63987109 -34.41127729 32.33244616 -34.44921875 30.0234375 C-34.45508867 28.54948568 -34.45905689 27.07552481 -34.4609375 25.6015625 C-34.47530853 24.91494537 -34.48967957 24.22832825 -34.50448608 23.52090454 C-34.47207404 20.09376878 -34.07999087 18.1278315 -32.2487793 15.20141602 C-30.09506152 13.09305935 -28.18126784 11.63959285 -25.55859375 10.17578125 C-24.72779297 9.70462891 -23.89699219 9.23347656 -23.04101562 8.74804688 C-22.18185547 8.27431641 -21.32269531 7.80058594 -20.4375 7.3125 C-18.72751881 6.35087503 -17.01786933 5.38865988 -15.30859375 4.42578125 C-14.55376709 4.00723877 -13.79894043 3.58869629 -13.02124023 3.1574707 C-8.36364699 0.49028269 -5.45088704 -0.72531965 0 0 Z " fill="#0982FE" transform="translate(308,71)"/>
<path d="M0 0 C3.23613354 1.74253345 3.82395315 2.47185944 5 6 C5.25113489 10.5384404 5.27077623 15.07907028 5.29516602 19.62353516 C5.30669518 21.12102704 5.32716217 22.61847752 5.35668945 24.11572266 C5.399427 26.28316068 5.4155411 28.44938013 5.42578125 30.6171875 C5.44036377 31.91253418 5.45494629 33.20788086 5.4699707 34.54248047 C4.91573455 38.61993105 3.9036385 40.13694762 1 43 C-1.16650391 44.59326172 -1.16650391 44.59326172 -3.4765625 45.9296875 C-4.72953125 46.65671875 -4.72953125 46.65671875 -6.0078125 47.3984375 C-6.87148438 47.88570312 -7.73515625 48.37296875 -8.625 48.875 C-9.49640625 49.38546875 -10.3678125 49.8959375 -11.265625 50.421875 C-16.06969578 53.17343257 -16.06969578 53.17343257 -18 54 C-18.66 53.67 -19.32 53.34 -20 53 C-19.05362671 52.43285278 -19.05362671 52.43285278 -18.08813477 51.85424805 C-15.24073949 50.14097811 -12.40161213 48.41445832 -9.5625 46.6875 C-8.56927734 46.09259766 -7.57605469 45.49769531 -6.55273438 44.88476562 C-5.60849609 44.30791016 -4.66425781 43.73105469 -3.69140625 43.13671875 C-2.81685791 42.60780029 -1.94230957 42.07888184 -1.04125977 41.53393555 C1.28676609 40.08710057 1.28676609 40.08710057 2 37 C2.12018198 34.51023004 2.18800573 32.0491709 2.203125 29.55859375 C2.21167511 28.47337181 2.21167511 28.47337181 2.22039795 27.3662262 C2.22983198 25.83897356 2.23637559 24.31170072 2.24023438 22.78442383 C2.24997913 20.44251508 2.28103143 18.10146993 2.3125 15.75976562 C2.31902655 14.27604688 2.32427839 12.79232186 2.328125 11.30859375 C2.3404718 10.60649277 2.3528186 9.90439178 2.36553955 9.18101501 C2.39025665 6.99737272 2.39025665 6.99737272 2 4 C-1.51901881 1.65398746 -2.85692894 1.59053091 -7 2 C-9.81448635 3.2120549 -9.81448635 3.2120549 -12.51171875 4.9921875 C-13.51654297 5.61480469 -14.52136719 6.23742187 -15.55664062 6.87890625 C-16.58982422 7.53761719 -17.62300781 8.19632813 -18.6875 8.875 C-19.73228516 9.52597656 -20.77707031 10.17695312 -21.85351562 10.84765625 C-25.60004263 13.18772785 -29.32453916 15.54969277 -33 18 C-31.55495834 14.3602371 -29.89093786 13.00199743 -26.53515625 11.0546875 C-25.65279297 10.53519531 -24.77042969 10.01570313 -23.86132812 9.48046875 C-22.4759082 8.68576172 -22.4759082 8.68576172 -21.0625 7.875 C-19.24067868 6.81024949 -17.41905563 5.74515964 -15.59765625 4.6796875 C-14.78820557 4.21288574 -13.97875488 3.74608398 -13.14477539 3.26513672 C-8.46174941 0.50276442 -5.5142606 -0.73375242 0 0 Z " fill="#99C9FB" transform="translate(308,71)"/>
<path d="M0 0 C2 2 2 2 2.24609566 4.29197121 C2.24333028 5.7382644 2.24333028 5.7382644 2.24050903 7.21377563 C2.24325836 8.31877914 2.24600769 9.42378265 2.24884033 10.56227112 C2.24164978 11.78002731 2.23445923 12.99778351 2.22705078 14.25244141 C2.22734283 15.5304512 2.22763489 16.808461 2.22793579 18.12519836 C2.22851098 21.63535444 2.2167299 25.14537457 2.20278788 28.65549898 C2.19030814 32.32170712 2.1891122 35.98791818 2.18673706 39.65414429 C2.18051416 46.59917901 2.16409243 53.54415098 2.14403808 60.48915803 C2.12170423 68.39472837 2.11069199 76.30030165 2.10064721 84.20589566 C2.07972687 100.47063388 2.04453522 116.73530894 2 133 C1.67 133 1.34 133 1 133 C0.67 90.1 0.34 47.2 0 3 C-5.19057759 3 -9.09748502 3.019497 -14 4 C-9.56265215 -0.88108263 -6.50732801 -1.44607289 0 0 Z " fill="#177FFE" transform="translate(234,71)"/>
<path d="M0 0 C2.91821289 1.27832031 2.91821289 1.27832031 5.97265625 3.078125 C7.10880371 3.7383667 8.24495117 4.3986084 9.41552734 5.07885742 C10.63129981 5.80237855 11.84695469 6.52609731 13.0625 7.25 C14.32427122 7.98868806 15.58681273 8.72606184 16.85009766 9.4621582 C19.3869781 10.94196458 21.92018612 12.4277639 24.45068359 13.91845703 C29.22859986 16.72800807 34.05234598 19.45572155 38.875 22.1875 C49.65811166 28.33111961 60.33379409 34.65617868 71 41 C68 42 68 42 65.50170898 40.8828125 C64.50985596 40.30273438 63.51800293 39.72265625 62.49609375 39.125 C61.37541504 38.47660156 60.25473633 37.82820313 59.10009766 37.16015625 C57.87914282 36.440255 56.65827919 35.72019906 55.4375 35 C54.18074994 34.26854387 52.92341783 33.53808693 51.66552734 32.80859375 C49.06390784 31.29802394 46.46553925 29.78207805 43.86962891 28.26171875 C40.20674784 26.11795061 36.53344043 23.99275213 32.85546875 21.875 C31.72995605 21.22668213 30.60444336 20.57836426 29.44482422 19.91040039 C27.24756767 18.64598412 25.04998127 17.38214088 22.85205078 16.11889648 C18.38124457 13.54545851 13.91834116 10.96731568 9.51171875 8.28515625 C8.87024902 7.90037109 8.2287793 7.51558594 7.56787109 7.11914062 C5.98247876 6.16481823 4.40664261 5.19466405 2.83203125 4.22265625 C-0.65253859 2.71828334 -3.24057691 2.67406427 -7 3 C-9.40083438 4.35885116 -9.40083438 4.35885116 -11 6 C-8.65085129 0.57888759 -5.78518731 -0.57634635 0 0 Z " fill="#D3E7F9" transform="translate(59,70)"/>
<path d="M0 0 C0.33 0 0.66 0 1 0 C1.14505993 4.58300125 1.23399681 9.16541363 1.3125 13.75 C1.3753418 15.70292969 1.3753418 15.70292969 1.43945312 17.6953125 C1.45556641 18.94570312 1.47167969 20.19609375 1.48828125 21.484375 C1.51446533 22.63647461 1.54064941 23.78857422 1.56762695 24.97558594 C1 28 1 28 -1.40161133 30.32519531 C-7.32766999 34.14486669 -7.32766999 34.14486669 -10.12109375 33.54296875 C-10.74113281 33.36378906 -11.36117188 33.18460938 -12 33 C-11.21971436 32.72784668 -10.43942871 32.45569336 -9.63549805 32.17529297 C-6.28827097 30.74500007 -3.74986728 29.39889947 -1 27 C0.53216857 22.36987771 0.3613647 17.96297429 0.1875 13.125 C0.18459961 11.23394531 0.18459961 11.23394531 0.18164062 9.3046875 C0.16987766 6.19926521 0.10776777 3.10333017 0 0 Z " fill="#1C87FD" transform="translate(274,197)"/>
<path d="M0 0 C1.4375 2.0625 1.4375 2.0625 2 4 C1.34 3.67 0.68 3.34 0 3 C-4.84417698 2.83852743 -9.22874338 3.04574868 -14 4 C-9.63636441 -0.79999915 -6.4213637 -1.664798 0 0 Z " fill="#9FCBFA" transform="translate(234,71)"/>
<path d="M0 0 C0.66 0.33 1.32 0.66 2 1 C-0.00979059 4.01468588 -0.70736015 4.83789182 -4 6 C-6.1328125 5.546875 -6.1328125 5.546875 -8 5 C-6.71475739 4.13619741 -5.42157581 3.28419631 -4.125 2.4375 C-3.04605469 1.72400391 -3.04605469 1.72400391 -1.9453125 0.99609375 C-1.30335938 0.66738281 -0.66140625 0.33867187 0 0 Z " fill="#9ECCFB" transform="translate(270,225)"/>
<path d="M0 0 C0 0.66 0 1.32 0 2 C-4.15267176 5.11450382 -4.15267176 5.11450382 -7.3125 4.6875 C-7.869375 4.460625 -8.42625 4.23375 -9 4 C-2.25 0 -2.25 0 0 0 Z " fill="#A6CFF5" transform="translate(187,188)"/>
</svg>
