<?xml version="1.0" standalone="no"?>
<!DOCTYPE svg PUBLIC "-//W3C//DTD SVG 20010904//EN"
 "http://www.w3.org/TR/2001/REC-SVG-20010904/DTD/svg10.dtd">
<svg version="1.0" xmlns="http://www.w3.org/2000/svg"
 width="250.000000pt" height="250.000000pt" viewBox="0 0 250.000000 250.000000"
 preserveAspectRatio="xMidYMid meet">

<g transform="translate(0.000000,250.000000) scale(0.100000,-0.100000)"
fill="#000000" stroke="none">
<path d="M1663 1658 c-65 -84 -152 -198 -192 -253 -40 -55 -76 -101 -79 -102
-4 -1 -45 51 -92 117 -67 94 -90 120 -109 120 l-23 0 24 -32 c13 -18 57 -80
98 -137 67 -94 72 -105 60 -125 -7 -11 -53 -76 -101 -142 -49 -67 -89 -125
-89 -128 0 -3 9 -6 19 -6 14 0 49 40 113 130 51 71 95 130 98 130 3 0 47 -59
98 -130 64 -90 99 -130 113 -130 10 0 19 3 19 6 0 3 -45 67 -100 144 -55 76
-100 141 -100 145 0 5 333 495 363 533 5 6 7 12 4 12 -3 0 -59 -69 -124 -152z"/>
<path d="M292 1258 c3 -259 4 -283 20 -286 16 -3 18 16 20 255 l3 258 164
-240 c150 -220 408 -575 417 -575 2 0 -126 196 -286 435 -254 381 -293 435
-315 435 l-25 0 2 -282z"/>
<path d="M762 1258 l3 -283 190 0 c173 0 190 2 193 18 3 16 -10 17 -172 17
l-176 0 0 120 0 120 160 0 c153 0 160 1 160 20 0 19 -7 20 -160 20 l-160 0 0
105 0 105 170 0 c163 0 170 1 170 20 0 19 -7 20 -190 20 l-190 0 2 -282z"/>
<path d="M1632 1523 c3 -16 17 -18 100 -21 l98 -3 2 -262 c3 -225 5 -262 18
-262 13 0 15 37 18 262 l2 262 98 3 c78 2 97 6 97 18 0 13 -32 15 -218 18
-204 2 -218 1 -215 -15z"/>
<path d="M2150 1091 c0 -53 -12 -70 -36 -50 -19 16 -30 4 -14 -16 15 -18 41
-20 58 -3 14 14 16 118 2 118 -5 0 -10 -22 -10 -49z"/>
<path d="M2200 1125 c-18 -21 -3 -47 31 -55 13 -3 24 -12 24 -20 0 -16 -18
-17 -47 -5 -26 10 -23 -12 3 -25 25 -14 65 -6 73 15 9 25 -5 46 -35 52 -16 3
-29 12 -29 19 0 17 32 18 49 2 10 -11 12 -9 9 7 -4 26 -59 33 -78 10z"/>
<path d="M2050 1025 c0 -8 5 -15 10 -15 6 0 10 7 10 15 0 8 -4 15 -10 15 -5 0
-10 -7 -10 -15z"/>
</g>
</svg>
