<?xml version="1.0" encoding="UTF-8"?>
<svg version="1.1" xmlns="http://www.w3.org/2000/svg" width="441" height="441">
<path d="M0 0 C1.40324524 0.00456207 1.40324524 0.00456207 2.83483887 0.00921631 C17.8468802 0.08111612 32.14003884 1.04913406 46.8125 4.4375 C47.75287109 4.64117188 48.69324219 4.84484375 49.66210938 5.0546875 C76.74166411 10.99495543 103.28643221 22.17192378 125.8125 38.4375 C126.41094727 38.86224609 127.00939453 39.28699219 127.62597656 39.72460938 C137.49260699 46.75167213 146.49490658 54.39806496 155.17285156 62.84472656 C156.63111838 64.2613038 158.10731656 65.65936915 159.5859375 67.0546875 C190.57055496 96.86638569 209.15179693 137.94000804 217.8125 179.4375 C217.99329102 180.26282227 218.17408203 181.08814453 218.36035156 181.93847656 C223.68636834 207.08617011 223.27890763 237.36286617 217.8125 262.4375 C217.63557617 263.29069824 217.45865234 264.14389648 217.27636719 265.02294922 C208.24719598 308.00897759 187.9079144 344.63439483 157.8125 376.4375 C156.93722656 377.36691406 156.06195313 378.29632813 155.16015625 379.25390625 C116.69389431 418.96283744 60.69734415 441.12447871 5.89501953 442.02929688 C-13.57107841 442.20840528 -32.1831934 440.92392031 -51.1875 436.4375 C-52.2384082 436.19112793 -53.28931641 435.94475586 -54.37207031 435.69091797 C-92.41076357 426.41158276 -125.97076349 406.2017067 -154.1875 379.4375 C-154.69071777 378.96296387 -155.19393555 378.48842773 -155.71240234 377.99951172 C-181.08376673 353.91752513 -199.48013906 322.59106115 -210.1875 289.4375 C-210.41034668 288.76283691 -210.63319336 288.08817383 -210.86279297 287.39306641 C-216.65005903 269.71660423 -220.28601232 250.95779921 -220.390625 232.328125 C-220.39768463 231.48751526 -220.40474426 230.64690552 -220.41201782 229.78082275 C-220.63621647 195.25263824 -220.63621647 195.25263824 -217.1875 179.4375 C-216.88948486 177.98730469 -216.88948486 177.98730469 -216.58544922 176.5078125 C-213.47988865 161.58251169 -209.19920037 147.44545285 -203.1875 133.4375 C-202.67147217 132.22803711 -202.67147217 132.22803711 -202.14501953 130.99414062 C-191.99977679 107.59150142 -177.37077549 86.22876584 -159.63134766 67.92822266 C-158.23628934 66.4878733 -156.85803922 65.03130267 -155.48046875 63.57421875 C-148.58315258 56.43453715 -141.10643762 50.37961373 -133.1875 44.4375 C-131.76244141 43.3546875 -131.76244141 43.3546875 -130.30859375 42.25 C-123.53479272 37.20169414 -116.49212171 32.67677159 -109.1875 28.4375 C-108.5879248 28.08574707 -107.98834961 27.73399414 -107.37060547 27.37158203 C-74.8473788 8.52183487 -37.39836711 -0.26004767 0 0 Z " fill="#222222" transform="translate(220.1875,-0.4375)"/>
<path d="M0 0 C7.82411955 5.9202964 15.04954819 12.5526328 22.16796875 19.29296875 C26.03732652 17.69436085 28.55042331 15.17893038 31.54296875 12.29296875 C49.58614971 -4.63964743 71.87776737 -18.72066632 97.18359375 -18.15625 C105.23837616 -17.67448283 111.13095543 -14.30114679 117.16796875 -9.14453125 C117.82796875 -8.34015625 118.48796875 -7.53578125 119.16796875 -6.70703125 C119.84859375 -5.94390625 120.52921875 -5.18078125 121.23046875 -4.39453125 C135.20631993 14.99132683 132.18870062 40.90797668 128.67895508 63.09130859 C128.33159749 65.23027519 127.98070143 67.36867158 127.62548828 69.50634766 C127.0907971 72.76299927 126.61617241 76.023441 126.16796875 79.29296875 C127.24498047 79.586875 127.24498047 79.586875 128.34375 79.88671875 C146.75085493 85.20483624 165.42470648 92.87148006 180.16796875 105.29296875 C180.7815625 105.7621875 181.39515625 106.23140625 182.02734375 106.71484375 C190.58472854 113.45473089 197.12873089 123.51829304 198.58203125 134.390625 C199.15992726 147.14996069 193.79472565 156.78482054 185.58203125 166.08984375 C170.98079175 181.58223871 148.36684099 190.885505 128.16796875 196.29296875 C127.17796875 196.29296875 126.18796875 196.29296875 125.16796875 196.29296875 C125.43351562 197.34613281 125.6990625 198.39929688 125.97265625 199.484375 C132.16428728 224.51717436 136.31540843 254.64822775 123.16796875 278.29296875 C117.77502568 286.40746681 110.0714849 291.56447078 100.59375 293.9375 C81.36227091 296.75563945 63.1382254 287.97678358 47.8828125 276.9765625 C39.64622319 270.83087635 31.90687621 264.04565862 24.16796875 257.29296875 C20.06635062 258.97363179 17.05734839 261.88626104 13.79296875 264.79296875 C-1.35930366 277.97991691 -20.95399681 293.35463012 -41.83203125 294.29296875 C-43.11207031 294.3703125 -43.11207031 294.3703125 -44.41796875 294.44921875 C-54.41494642 294.78525161 -62.07915337 292.7445792 -69.796875 286.23828125 C-81.21997143 275.31946739 -84.81294516 259.89219885 -85.18725586 244.52612305 C-85.30298333 228.16568797 -82.96939155 212.10883543 -78.83203125 196.29296875 C-79.80914062 196.18726563 -80.78625 196.0815625 -81.79296875 195.97265625 C-101.10381787 193.17524502 -122.78449724 181.54873266 -136.83203125 168.29296875 C-137.47914063 167.75800781 -138.12625 167.22304687 -138.79296875 166.671875 C-145.27432199 160.99715306 -151.23296877 150.24080337 -152.10546875 141.578125 C-152.48183048 129.63587774 -148.87114188 120.71007536 -141.11328125 111.6640625 C-133.16603274 103.40382304 -123.93735585 97.51837164 -113.83203125 92.29296875 C-113.2390625 91.98617187 -112.64609375 91.679375 -112.03515625 91.36328125 C-88.30719151 79.29296875 -88.30719151 79.29296875 -78.83203125 79.29296875 C-79.09757812 78.17921875 -79.363125 77.06546875 -79.63671875 75.91796875 C-85.19903788 52.11776204 -90.64300108 21.44746772 -77.5546875 -0.88671875 C-72.70266233 -7.7951424 -66.04351705 -15.07588667 -57.65625 -17.30078125 C-35.99511942 -20.41662853 -17.36312857 -12.5983842 0 0 Z " fill="#60D7F7" transform="translate(200.83203125,85.70703125)"/>
<path d="M0 0 C0.91227859 -0.00095673 1.82455719 -0.00191345 2.76448059 -0.00289917 C4.68649363 -0.0035763 6.60850901 -0.00175477 8.53051758 0.00244141 C11.43120634 0.0077651 14.33173807 0.00249648 17.23242188 -0.00390625 C25.12432302 -0.0091168 33.02233769 0.01494768 40.90625 0.39453125 C41.87393311 0.44053467 42.84161621 0.48653809 43.83862305 0.53393555 C46.95130632 1.30077416 47.99068804 2.54010812 49.89453125 5.0703125 C51.04812334 7.07496151 52.16911399 9.09848848 53.26953125 11.1328125 C54.06218571 12.41343641 54.86498813 13.6878137 55.67578125 14.95703125 C61.26669973 23.75474667 66.39329761 32.80150324 71.39453125 41.9453125 C71.96316895 42.97736816 72.53180664 44.00942383 73.11767578 45.07275391 C73.90827393 46.53527588 73.90827393 46.53527588 74.71484375 48.02734375 C75.18422363 48.89206299 75.65360352 49.75678223 76.13720703 50.64770508 C77.87588198 54.46356801 78.74547175 56.79526802 77.30419922 60.84570312 C76.79518066 61.81701172 76.28616211 62.78832031 75.76171875 63.7890625 C74.90888306 65.43213379 74.90888306 65.43213379 74.03881836 67.10839844 C73.40830697 68.28369587 72.77685707 69.45849025 72.14453125 70.6328125 C71.50566099 71.8413235 70.86707321 73.04998387 70.22875977 74.25878906 C64.41810381 85.17500238 58.16072364 95.8599831 51.26953125 106.1328125 C51.00791702 106.72160187 50.7463028 107.31039124 50.47676086 107.91702271 C49.28471539 110.1918887 48.29630871 111.53367988 46.26953125 113.1328125 C41.60183062 114.29794555 36.91948578 114.31507389 32.1328125 114.34375 C30.72900347 114.36881571 29.32520988 114.39475996 27.9214325 114.42153931 C24.97989578 114.46790456 22.03978292 114.48493075 19.09790039 114.48486328 C16.09289743 114.4887643 13.09618117 114.54416902 10.09301758 114.64892578 C-13.89982197 115.47361267 -13.89982197 115.47361267 -20.01547241 111.73651123 C-23.49313761 108.36273826 -25.39300944 104.4823865 -27.03659058 99.97161865 C-27.96167689 97.52010128 -29.29644888 95.43763109 -30.7265625 93.25 C-31.54708573 91.83982689 -32.36097798 90.42577317 -33.16796875 89.0078125 C-33.61043945 88.23356934 -34.05291016 87.45932617 -34.50878906 86.66162109 C-35.92811845 84.15859432 -37.33173865 81.64740472 -38.73046875 79.1328125 C-39.24947754 78.20404297 -39.76848633 77.27527344 -40.30322266 76.31835938 C-41.88125147 73.4747351 -43.43476636 70.61911755 -44.98046875 67.7578125 C-45.47087646 66.87206543 -45.96128418 65.98631836 -46.46655273 65.07373047 C-46.90942627 64.23986816 -47.3522998 63.40600586 -47.80859375 62.546875 C-48.2046582 61.8142041 -48.60072266 61.0815332 -49.00878906 60.32666016 C-50.25679461 56.53282463 -49.07621454 53.8983058 -47.47802734 50.35986328 C-45.69854972 46.98619105 -43.91717252 43.61427603 -42.10546875 40.2578125 C-41.7766571 39.64408783 -41.44784546 39.03036316 -41.10906982 38.39804077 C-24.98458154 8.38692529 -24.98458154 8.38692529 -17.73046875 1.1328125 C-11.79495354 0.18054594 -6.00220964 -0.01415242 0 0 Z " fill="#222323" transform="translate(209.73046875,166.8671875)"/>
<path d="M0 0 C0.46065537 2.10365953 0.91837622 4.20796168 1.375 6.3125 C1.63023437 7.48425781 1.88546875 8.65601563 2.1484375 9.86328125 C2.43330773 11.24197795 2.71706871 12.62090409 3 14 C3.17644043 14.81412354 3.35288086 15.62824707 3.53466797 16.46704102 C6.98035128 33.46791245 8.20400503 55.58520551 -1.75 70.625 C-5.80226981 75.3107512 -9.80108457 77.55452769 -15.9453125 78.41015625 C-36.64825609 79.38294517 -54.15218504 64.73631267 -69 52 C-69.92039063 51.21109375 -70.84078125 50.4221875 -71.7890625 49.609375 C-73.54000277 48.08735625 -75.27957083 46.55630928 -77 45 C-75.6174066 40.83003915 -73.73637132 38.3837008 -70.6875 35.25 C-64.42019234 28.55392456 -58.97197265 21.29591994 -53.48876953 13.95361328 C-52.99747559 13.3089209 -52.50618164 12.66422852 -52 12 C-51.41597412 11.12738525 -50.83194824 10.25477051 -50.23022461 9.35571289 C-47.36720613 6.33160065 -45.5198605 6.08607178 -41.43359375 5.48828125 C-40.14259766 5.28783203 -38.85160156 5.08738281 -37.52148438 4.88085938 C-36.16025001 4.69073373 -34.79892106 4.50128415 -33.4375 4.3125 C-32.1032165 4.11332176 -30.76922653 3.9121666 -29.43554688 3.70898438 C-26.83437967 3.31564972 -24.23200111 2.93023438 -21.62841797 2.55322266 C-18.39049742 2.0595389 -15.18705259 1.48142146 -11.97265625 0.85546875 C-7.88936492 0.08403136 -4.14806104 -0.18435827 0 0 Z " fill="#222323" transform="translate(312,287)"/>
<path d="M0 0 C1.38452148 2.58520508 1.38452148 2.58520508 2.62109375 6.01953125 C2.84773209 6.63334152 3.07437042 7.24715179 3.30787659 7.87956238 C4.03284338 9.85208119 4.73574229 11.8316195 5.4375 13.8125 C6.13759627 15.74509527 6.84220583 17.67598472 7.54824829 19.60641479 C8.01331955 20.88138974 8.47473128 22.15770554 8.9324646 23.43533325 C10.76814251 28.51990154 12.90465539 33.43050844 15.19946289 38.32299805 C16.56247578 42.88092313 15.29268524 46.80882546 13.3984375 51.0390625 C13.07649414 51.77527832 12.75455078 52.51149414 12.42285156 53.27001953 C12.07706055 54.04716309 11.73126953 54.82430664 11.375 55.625 C7.91814968 63.53195854 4.98154602 71.51744683 2.43505859 79.76416016 C2.04181396 80.96758057 2.04181396 80.96758057 1.640625 82.1953125 C1.41922852 82.90703613 1.19783203 83.61875977 0.96972656 84.35205078 C0 86 0 86 -1.81469727 86.82128906 C-4.4511884 87.03689754 -6.11569128 86.5534676 -8.60546875 85.6640625 C-9.4984668 85.34630859 -10.39146484 85.02855469 -11.31152344 84.70117188 C-12.73513184 84.1684668 -12.73513184 84.1684668 -14.1875 83.625 C-15.65558105 83.08069336 -15.65558105 83.08069336 -17.15332031 82.52539062 C-33.24786864 76.39363499 -52.42072417 67.85924723 -61.09375 52 C-63.3112664 46.74366484 -64.1474168 41.49688928 -62.34375 36 C-53.73316628 16.99733248 -31.20649443 8.25419027 -12.8984375 1.34765625 C-4.08485776 -1.79885452 -4.08485776 -1.79885452 0 0 Z " fill="#222323" transform="translate(127,181)"/>
<path d="M0 0 C0.69931641 -0.020625 1.39863281 -0.04125 2.11914062 -0.0625 C7.74164872 -0.10457677 11.63102944 1.10824577 15.9453125 4.72265625 C26.76741225 17.30721225 25.80482407 33.58848839 25.1875 49.25 C24.77794528 53.65271326 24.05516953 57.91691094 23.1875 62.25 C22.91845226 63.69752411 22.6516709 65.14547064 22.38671875 66.59375 C21.67211891 70.48284656 20.93516418 74.36713069 20.1875 78.25 C-4.56176241 74.74698427 -4.56176241 74.74698427 -10.77734375 73.65625 C-13.8706718 73.1692702 -13.8706718 73.1692702 -17.25390625 73.28125 C-21.98141655 73.15670527 -25.903669 72.98334949 -29.54931641 69.67285156 C-33.21695611 65.52320301 -36.30052589 60.97476223 -39.36669922 56.37207031 C-41.32443108 53.4986145 -43.46292366 50.86000288 -45.6875 48.1875 C-46.38488281 47.34445313 -47.08226562 46.50140625 -47.80078125 45.6328125 C-50.75789668 42.13020976 -53.76285482 38.67227064 -56.8125 35.25 C-50.39472286 19.35309225 -25.45547964 7.8720972 -10.8125 1.25 C-7.17206737 0.03652246 -3.79194814 0.0275028 0 0 Z " fill="#222323" transform="translate(291.8125,82.75)"/>
<path d="M0 0 C8.37841582 0.74344866 16.68606628 1.8850423 25.00610352 3.10180664 C27.32419913 3.4392028 29.64347781 3.76750047 31.96289062 4.09570312 C33.45060189 4.31194308 34.93823511 4.52872081 36.42578125 4.74609375 C37.11231277 4.84200302 37.7988443 4.93791229 38.50617981 5.03672791 C44.82609453 5.98000829 48.64691431 6.99937596 52.53735352 12.23876953 C52.93752686 12.79935059 53.3377002 13.35993164 53.75 13.9375 C54.62743098 15.12218783 55.50636456 16.30576408 56.38671875 17.48828125 C56.82419434 18.0807666 57.26166992 18.67325195 57.71240234 19.28369141 C60.98435887 23.64505932 64.52760938 27.79816621 68 32 C69.68974077 34.06067537 71.37599788 36.12417007 73.0625 38.1875 C73.81660156 39.10917969 74.57070312 40.03085937 75.34765625 40.98046875 C75.89292969 41.64691406 76.43820313 42.31335938 77 43 C70.81517565 56.9308665 47.25335905 69.77873405 33.66015625 75.375 C25.99699232 77.99924639 17.50140383 80.06531107 9.6484375 77.1171875 C2.57116088 73.11468274 -0.70912659 67.53799061 -3.3125 60 C-8.3997168 40.51968202 -4.44367281 19.25211261 0 0 Z " fill="#222323" transform="translate(136,287)"/>
<path d="M0 0 C6.50844631 0.53545734 11.99535534 2.19089948 18.0625 4.5625 C19.44187744 5.09822632 19.44187744 5.09822632 20.84912109 5.64477539 C37.25582251 12.15915892 52.89081885 20.13054604 62 36 C63.89408597 41.68225791 63.55010237 47.33673081 61.2265625 52.86328125 C50.44757966 71.64068129 25.69698884 80.97803532 6 87 C4.33729814 87.35257825 2.67125081 87.69046872 1 88 C-2.11382602 80.30367894 -5.06627257 72.55448439 -7.98022461 64.78076172 C-10.1191833 59.13527235 -12.42137567 53.67654747 -15.28515625 48.3515625 C-17.20810634 42.02579227 -13.92957831 35.99655589 -11.375 30.3125 C-7.0420873 20.38455565 -3.45954123 10.25970195 0 0 Z " fill="#222323" transform="translate(321,180)"/>
<path d="M0 0 C17.163852 6.88493498 30.59320963 18.64112168 44 31.0625 C42.06219516 35.72219257 38.53271047 39.17217582 35.18310547 42.85302734 C31.96584721 46.48178465 29.32659556 50.06823887 26.92578125 54.2890625 C19.02002346 67.5910616 19.02002346 67.5910616 11.63964844 70.29248047 C3.95504198 71.99448741 -3.7498245 72.48389518 -11.60009766 72.85009766 C-15.90562594 73.11907723 -19.99318957 73.83804785 -24.1875 74.8125 C-27.28378303 75.50301152 -29.83000725 76.0625 -33 76.0625 C-33.65271686 73.10554082 -34.29727263 70.14716702 -34.9375 67.1875 C-35.21110352 65.95386719 -35.21110352 65.95386719 -35.49023438 64.6953125 C-39.20846744 47.3886277 -42.10115795 22.75524367 -32.5 7.0390625 C-24.22233065 -3.86849138 -12.30915884 -4.0890014 0 0 Z " fill="#222323" transform="translate(169,84.9375)"/>
<path d="M0 0 C6.98642427 5.00343542 12.53164948 11.25357408 14.765625 19.67578125 C15.70708145 28.43417913 15.47973604 36.09623017 10.765625 43.67578125 C10.39179688 44.31 10.01796875 44.94421875 9.6328125 45.59765625 C5.45860056 52.06630257 -0.29691662 55.98509395 -7.6484375 58.16796875 C-16.54047787 59.91413982 -24.42703012 59.33871414 -32.234375 54.67578125 C-33.17216797 54.14984375 -33.17216797 54.14984375 -34.12890625 53.61328125 C-40.9996758 49.30221016 -45.12620921 42.39300355 -47.234375 34.67578125 C-48.4469588 24.3921379 -47.28661613 16.19143457 -41.234375 7.67578125 C-30.7658005 -4.67957121 -14.18361613 -8.40602424 0 0 Z " fill="#60D8F9" transform="translate(240.234375,196.32421875)"/>
<path d="M0 0 C0.66 0 1.32 0 2 0 C2.25579834 0.50225098 2.51159668 1.00450195 2.77514648 1.52197266 C7.56559112 10.88516294 12.40771147 20.0884388 18.30639648 28.80908203 C21 32.81558052 21 32.81558052 21 35 C10.55414899 34.48915737 -0.02918033 33.32360656 -10 30 C-8.63218625 22.98095574 -6.49261049 16.5832708 -3.875 9.9375 C-3.50246094 8.97650391 -3.12992188 8.01550781 -2.74609375 7.02539062 C-1.83644515 4.68129617 -0.92101046 2.33964819 0 0 Z " fill="#232728" transform="translate(151,242)"/>
<path d="M0 0 C0.66 0 1.32 0 2 0 C3.48826994 3.87156452 4.96398454 7.74779846 6.4375 11.625 C7.06881836 13.26662109 7.06881836 13.26662109 7.71289062 14.94140625 C8.11572266 16.00488281 8.51855469 17.06835938 8.93359375 18.1640625 C9.4913147 19.62513428 9.4913147 19.62513428 10.06030273 21.11572266 C11.02321999 24.0712707 11.56737511 26.92577153 12 30 C1.83273018 32.74791076 -8.4118024 35.20544264 -19 35 C-17.46325857 30.71330023 -15.26293357 26.97691316 -12.875 23.125 C-8.26393738 15.57850788 -4.08247708 7.84236061 0 0 Z " fill="#232728" transform="translate(295,242)"/>
<path d="M0 0 C13.2 0 26.4 0 40 0 C35.47834326 9.04331349 27.75766011 16.54263666 21 24 C12.39044897 20.43207795 5.25251486 9.44225539 0 2 C0 1.34 0 0.68 0 0 Z " fill="#24292A" transform="translate(204,295)"/>
<path d="M0 0 C-4.81360742 8.48431923 -9.69411397 16.92397369 -14.67333984 25.31225586 C-15.07762207 25.99553955 -15.4819043 26.67882324 -15.8984375 27.3828125 C-16.43476807 28.28604248 -16.43476807 28.28604248 -16.98193359 29.20751953 C-18.06034797 31.10625295 -19.03983336 33.03918751 -20 35 C-20.66 35 -21.32 35 -22 35 C-23.48826994 31.12843548 -24.96398454 27.25220154 -26.4375 23.375 C-27.06881836 21.73337891 -27.06881836 21.73337891 -27.71289062 20.05859375 C-28.11572266 18.99511719 -28.51855469 17.93164062 -28.93359375 16.8359375 C-29.30540771 15.86188965 -29.67722168 14.8878418 -30.06030273 13.88427734 C-31.02321999 10.9287293 -31.56737511 8.07422847 -32 5 C-30.97845825 4.82609741 -30.97845825 4.82609741 -29.9362793 4.64868164 C-26.85293227 4.12238484 -23.77021514 3.59248493 -20.6875 3.0625 C-19.61564453 2.88009766 -18.54378906 2.69769531 -17.43945312 2.50976562 C-15.89741211 2.24389648 -15.89741211 2.24389648 -14.32421875 1.97265625 C-12.9024231 1.72914429 -12.9024231 1.72914429 -11.4519043 1.48071289 C-3.50245317 -0.07783229 -3.50245317 -0.07783229 0 0 Z " fill="#232627" transform="translate(173,170)"/>
<path d="M0 0 C7.30191376 0.60030831 14.42867584 1.70298082 21.625 3.0625 C22.62917969 3.24876953 23.63335937 3.43503906 24.66796875 3.62695312 C27.11268755 4.08097233 29.55664548 4.53870544 32 5 C30.63218625 12.01904426 28.49261049 18.4167292 25.875 25.0625 C25.50246094 26.02349609 25.12992187 26.98449219 24.74609375 27.97460938 C23.83644515 30.31870383 22.92101046 32.66035181 22 35 C21.34 35 20.68 35 20 35 C19.67837891 34.39639648 19.35675781 33.79279297 19.02539062 33.17089844 C10.78522206 17.69451113 10.78522206 17.69451113 1.328125 2.94921875 C0 1 0 1 0 0 Z " fill="#232627" transform="translate(275,170)"/>
<path d="M0 0 C3.83822262 1.52145762 5.71669764 3.79236536 8.25 7 C9.41595703 8.46566406 9.41595703 8.46566406 10.60546875 9.9609375 C11.39566406 10.96382812 12.18585938 11.96671875 13 13 C14.52069856 14.8751093 16.04152183 16.75011749 17.5625 18.625 C21 22.87329435 21 22.87329435 21 24 C7.8 24 -5.4 24 -19 24 C-16.293282 19.939923 -13.70734106 16.28834736 -10.625 12.5625 C-9.45517578 11.14710938 -9.45517578 11.14710938 -8.26171875 9.703125 C-5.53500815 6.44425844 -2.78287756 3.21101256 0 0 Z " fill="#222425" transform="translate(223,128)"/>
</svg>
