<?xml version="1.0" encoding="UTF-8"?>
<svg version="1.1" xmlns="http://www.w3.org/2000/svg" width="348" height="348">
<path d="M0 0 C2.3049883 1.73748697 4.50717027 3.54702529 6.69140625 5.43359375 C7.60212891 6.20123047 7.60212891 6.20123047 8.53125 6.984375 C19.34556756 16.8668466 26.61656792 32.98045857 28.69140625 47.43359375 C28.75737975 49.53682909 28.7770287 51.64195099 28.75390625 53.74609375 C28.74488281 54.81472656 28.73585938 55.88335937 28.7265625 56.984375 C28.71496094 57.79261719 28.70335937 58.60085937 28.69140625 59.43359375 C27.31551008 59.14618433 25.94073303 58.85341633 24.56640625 58.55859375 C23.80070312 58.39617187 23.035 58.23375 22.24609375 58.06640625 C21.40304688 57.85757813 20.56 57.64875 19.69140625 57.43359375 C18.64339844 57.2221875 17.59539062 57.01078125 16.515625 56.79296875 C13.69140625 55.43359375 13.69140625 55.43359375 12.40625 52.37890625 C12.14972656 51.11820313 11.89320313 49.8575 11.62890625 48.55859375 C11.32468541 47.19764033 11.01336726 45.83825581 10.6953125 44.48046875 C10.53691895 43.80048828 10.37852539 43.12050781 10.21533203 42.41992188 C8.93279564 37.55751924 6.72653618 33.0160972 4.69140625 28.43359375 C4.01763334 26.76978718 3.3487051 25.10397707 2.69140625 23.43359375 C2.03140625 23.43359375 1.37140625 23.43359375 0.69140625 23.43359375 C0.11390625 22.52609375 -0.46359375 21.61859375 -1.05859375 20.68359375 C-3.46416006 17.20888686 -5.78635604 15.67501775 -9.30859375 13.43359375 C-9.30859375 12.77359375 -9.30859375 12.11359375 -9.30859375 11.43359375 C-20.36825269 7.15243545 -31.439687 6.9470481 -42.55859375 11.17578125 C-56.63693012 17.61502033 -63.49796865 28.60927954 -69.30859375 42.43359375 C-77.46063989 65.37698135 -73.50003289 90.87839313 -63.55859375 112.55859375 C-63.130625 113.44804687 -62.70265625 114.3375 -62.26171875 115.25390625 C-61.30859375 117.43359375 -61.30859375 117.43359375 -61.30859375 119.43359375 C-60.72851562 119.459375 -60.1484375 119.48515625 -59.55078125 119.51171875 C-52.60218529 120.01623727 -48.64966988 121.78448129 -43.93359375 127.12109375 C-41.82542122 131.41852237 -41.62393369 134.73395184 -42.30859375 139.43359375 C-44.01042485 144.34999471 -46.76259846 147.86991926 -51.30859375 150.43359375 C-56.27686199 152.33934489 -60.63616886 153.18229899 -65.62109375 150.99609375 C-70.83025803 147.8537234 -73.69232517 143.85464888 -75.18359375 137.99609375 C-75.30859375 134.43359375 -75.30859375 134.43359375 -74.43359375 130.87109375 C-73.66814881 125.89570166 -76.11065467 122.33626971 -78.40771484 118.0559082 C-89.30080931 97.60373257 -94.02978781 69.91326673 -87.54296875 47.3671875 C-87.1368312 46.05433175 -86.72547215 44.74307851 -86.30859375 43.43359375 C-85.921875 42.18707031 -85.53515625 40.94054687 -85.13671875 39.65625 C-78.74875082 20.55456667 -68.26638978 6.23039708 -50.30859375 -3.44140625 C-33.83319071 -11.07184131 -15.23564247 -10.33755098 0 0 Z " fill="#8058C0" transform="translate(203.30859375,44.56640625)"/>
<path d="M0 0 C0.5775 0.226875 1.155 0.45375 1.75 0.6875 C2.28293835 2.43385165 2.80090663 4.18477652 3.3125 5.9375 C3.60253906 6.91203125 3.89257812 7.8865625 4.19140625 8.890625 C4.75831695 11.72914289 4.91537216 13.06680662 3.75 15.6875 C2.1484375 17.2578125 2.1484375 17.2578125 0.125 18.8125 C-9.26842822 26.71037346 -16.16943667 38.62586114 -17.48828125 50.90625 C-17.80571771 60.66324449 -15.2592114 70.45590862 -8.859375 77.98046875 C-8.32828125 78.54378906 -7.7971875 79.10710937 -7.25 79.6875 C-6.76015625 80.24050781 -6.2703125 80.79351562 -5.765625 81.36328125 C1.63797609 88.74855659 13.03404472 90.31966022 23.0703125 90.7890625 C47.38171511 90.11804714 71.19272185 77.44233729 87.82421875 60.02734375 C90.34209277 56.96810128 92.60956563 53.79160373 94.8125 50.5 C95.21952148 49.90541992 95.62654297 49.31083984 96.04589844 48.69824219 C97.81796245 45.92910096 98.78599646 44.21422377 98.55859375 40.88671875 C97.79604223 38.68701268 97.79604223 38.68701268 96.75 36.6875 C96.16762996 31.82950183 95.61506872 26.84276038 97.94921875 22.41015625 C101.1480094 18.59900265 104.23680335 16.05823553 109.265625 15.31640625 C115.12550131 15.17409497 119.341783 15.63439133 124.15625 19.13671875 C127.7500793 22.63365559 128.61532718 26.40810824 129.125 31.25 C128.55042426 36.51694433 126.78753552 39.9807348 122.875 43.5 C119.75 45.6875 119.75 45.6875 117 46.1875 C115.88625 46.435 115.88625 46.435 114.75 46.6875 C114.03080881 48.33218424 113.3724385 50.00381578 112.75 51.6875 C100.0789772 76.03248151 78.22645421 92.44206163 52.875 101.7421875 C50.51368775 102.47631343 48.15016629 103.09437818 45.75 103.6875 C44.83347656 103.96335937 43.91695313 104.23921875 42.97265625 104.5234375 C26.21895563 109.32278932 8.52348051 106.67648402 -7.25 99.6875 C-9.27955894 98.39960704 -11.28310528 97.06920291 -13.25 95.6875 C-13.93964844 95.2646875 -14.62929687 94.841875 -15.33984375 94.40625 C-24.17904218 88.57574279 -28.57162751 78.64950414 -31.25 68.6875 C-33.39108456 57.77562735 -34.20920191 47.24005027 -30.25 36.6875 C-29.9921875 35.86636719 -29.734375 35.04523438 -29.46875 34.19921875 C-26.57309634 25.79377964 -10.9914271 -1.5265871 0 0 Z " fill="#835CC1" transform="translate(104.25,130.3125)"/>
<path d="M0 0 C3.85544798 1.99657127 5.59805092 3.39707638 8 7 C10.31291267 7.53721511 10.31291267 7.53721511 13.03125 7.58984375 C14.06024414 7.64914063 15.08923828 7.7084375 16.14941406 7.76953125 C17.8079541 7.85267578 17.8079541 7.85267578 19.5 7.9375 C48.72701598 9.93081737 74.45125627 19.92620643 94.98046875 41.59375 C101.42258047 49.26945758 107.17290931 57.70992496 111 67 C111.31839844 67.76699219 111.63679687 68.53398437 111.96484375 69.32421875 C115.95361912 81.03320451 115.96487014 97.01851688 111.328125 108.49609375 C109.04480836 112.80081718 106.27428053 116.40661586 103 120 C102.4534375 120.62648438 101.906875 121.25296875 101.34375 121.8984375 C88.66438808 135.5945407 70.60957796 139.19458518 52.75146484 140.0078125 C46.1464206 139.98905816 40.21553328 138.12601029 34 136 C32.79601562 135.61585938 31.59203125 135.23171875 30.3515625 134.8359375 C27.55212222 133.92889275 24.77202717 132.98700967 22 132 C22.61394518 126.35566526 25.39823049 124.06896002 29.60546875 120.55078125 C32 119 32 119 35.4375 118.8125 C37.35124791 119.45041597 39.26386135 120.09209302 41.16845703 120.75683594 C47.35989886 122.7933785 52.9358275 123.51061984 59.4375 123.4375 C60.81228516 123.43049072 60.81228516 123.43049072 62.21484375 123.42333984 C69.11664905 123.27260795 74.78452322 122.08521855 81 119 C82.66244709 118.3228797 84.32810761 117.6534509 86 117 C86 116.34 86 115.68 86 115 C86.70125 114.319375 87.4025 113.63875 88.125 112.9375 C95.99161672 105.22776737 98.79215412 97.4177582 99.0625 86.46875 C98.56675627 76.92568312 94.58473564 67.65315625 89 60 C89 59.34 89 58.68 89 58 C88.34 58 87.68 58 87 58 C86.505 56.02 86.505 56.02 86 54 C85.34 54 84.68 54 84 54 C82.17270951 52.06469234 80.53104622 50.00952377 78.8515625 47.9453125 C76.97101715 45.96954966 75.44182905 45.13619801 73 44 C72.2575 43.21625 71.515 42.4325 70.75 41.625 C67.85592414 38.86247305 65.28548457 37.49076856 61.671875 35.89453125 C60 35 60 35 59 33 C57.00740599 32.26588642 55.00513489 31.55367271 52.9765625 30.92578125 C50.75038913 30.23338874 48.53881997 29.4937276 46.3359375 28.73046875 C37.48934168 25.71031862 29.41217067 24.19139582 20 24 C18.44539063 23.88978516 18.44539063 23.88978516 16.859375 23.77734375 C11.03998319 23.39360571 11.03998319 23.39360571 6.1875 26.3125 C5.1046875 27.6428125 5.1046875 27.6428125 4 29 C-0.07342137 31.68475499 -3.78035847 32.76475178 -8.6171875 32.6171875 C-13.43005228 31.37057662 -16.90267813 27.7521468 -20 24 C-22.08109711 19.73209926 -22.7492212 15.70806903 -22 11 C-17.1323989 1.62536085 -10.10087722 -1.16246487 0 0 Z " fill="#8158C0" transform="translate(169,98)"/>
<path d="M0 0 C2.14576637 -0.02685938 4.29162645 -0.04633088 6.4375 -0.0625 C7.63246094 -0.07410156 8.82742187 -0.08570313 10.05859375 -0.09765625 C13 0 13 0 14 1 C14.09893778 2.77446009 14.12799092 4.55286251 14.12939453 6.33007812 C14.13254669 7.46795776 14.13569885 8.6058374 14.13894653 9.77819824 C14.13591019 11.63595886 14.13591019 11.63595886 14.1328125 13.53125 C14.13376923 14.79263794 14.13472595 16.05402588 14.13571167 17.3536377 C14.13639375 20.02697138 14.13503529 22.70021437 14.13037109 25.37353516 C14.12467381 28.80706691 14.12795301 32.2405205 14.13394356 35.67404938 C14.13841762 38.93895243 14.13528883 42.20384593 14.1328125 45.46875 C14.13483673 46.70725708 14.13686096 47.94576416 14.13894653 49.22180176 C14.13421829 50.92862122 14.13421829 50.92862122 14.12939453 52.66992188 C14.12859894 53.67728394 14.12780334 54.684646 14.12698364 55.72253418 C14 58 14 58 13 59 C8.77509324 59.44562911 5.15544948 59.67636067 1.4375 57.5 C0.963125 57.005 0.48875 56.51 0 56 C-0.66 56.474375 -1.32 56.94875 -2 57.4375 C-6.77954537 59.92684655 -10.86648677 60.6531163 -16.0625 59.0625 C-21.0544739 55.55749705 -25.38039556 51.62140339 -26.8125 45.5625 C-26.874375 44.716875 -26.93625 43.87125 -27 43 C-29.50497004 41.74751498 -31.20853274 41.88625594 -34.0078125 41.90234375 C-34.99394531 41.90556641 -35.98007813 41.90878906 -36.99609375 41.91210938 C-38.54490234 41.92467773 -38.54490234 41.92467773 -40.125 41.9375 C-41.16527344 41.94201172 -42.20554688 41.94652344 -43.27734375 41.95117188 C-45.85161962 41.96298048 -48.42578146 41.97944925 -51 42 C-49.81355403 44.55820453 -49.81355403 44.55820453 -48 47 C-45.87012856 47.67613196 -45.87012856 47.67613196 -43.5625 47.4375 C-42.80066406 47.41558594 -42.03882813 47.39367187 -41.25390625 47.37109375 C-38.83967399 46.97360317 -37.15276806 46.12894631 -35 45 C-32.12306413 45.17980849 -30.97704775 46.0179896 -28.6875 47.8125 C-27 50 -27 50 -27.1875 51.96875 C-28.47453398 55.18633496 -30.56322158 56.2551207 -33.4921875 57.9453125 C-38.95443725 60.24252034 -44.80501421 60.83411079 -50.55859375 59.33203125 C-57.41110832 56.50089117 -62.49907716 52.87651096 -65.5 45.9375 C-67.94560001 38.39689996 -66.76271491 31.59071556 -63.3125 24.5625 C-62.549375 23.716875 -61.78625 22.87125 -61 22 C-60.57460937 21.51660156 -60.14921875 21.03320312 -59.7109375 20.53515625 C-54.76431192 15.95635667 -48.98272613 16.34926886 -42.54296875 16.578125 C-36.60440375 17.28525292 -33.76349272 19.14369187 -29.625 23.5 C-28.14876059 25.77113756 -27.39306518 27.34681001 -27 30 C-26.34 30 -25.68 30 -25 30 C-24.79375 29.13375 -24.5875 28.2675 -24.375 27.375 C-22.70968628 23.28741179 -20.46298016 20.70517789 -17 18 C-13.91493912 16.97164637 -11.7305728 16.86631566 -8.5 16.875 C-7.5409375 16.87242187 -6.581875 16.86984375 -5.59375 16.8671875 C-3 17 -3 17 0 18 C-0.185625 16.88625 -0.37125 15.7725 -0.5625 14.625 C-1.20322807 9.65935745 -0.65791037 4.93938863 0 0 Z M-9.70703125 29.078125 C-11.67524907 32.00369348 -11.35962526 34.51998052 -11.3125 38 C-11.30863281 39.2375 -11.30476563 40.475 -11.30078125 41.75 C-11.2463688 45.1457482 -11.2463688 45.1457482 -9 48 C-7.700625 47.855625 -6.40125 47.71125 -5.0625 47.5625 C-4.33160156 47.48128906 -3.60070312 47.40007812 -2.84765625 47.31640625 C-0.98859771 47.18113386 -0.98859771 47.18113386 0 46 C0.09986975 43.15664952 0.13877881 40.34302837 0.125 37.5 C0.12886719 36.70207031 0.13273437 35.90414062 0.13671875 35.08203125 C0.5089961 31.2316068 0.5089961 31.2316068 -1 28 C-5.5577181 27.53345347 -5.5577181 27.53345347 -9.70703125 29.078125 Z " fill="#3D3D3E" transform="translate(182,247)"/>
<path d="M0 0 C4.29 0 8.58 0 13 0 C13.33 10.23 13.66 20.46 14 31 C16.64 30.34 19.28 29.68 22 29 C21.99214478 28.0553186 21.99214478 28.0553186 21.98413086 27.09155273 C21.96319862 24.20687885 21.9502885 21.32222102 21.9375 18.4375 C21.92912109 17.44685547 21.92074219 16.45621094 21.91210938 15.43554688 C21.89463086 10.17451301 22.07691602 5.18235335 23 0 C27.00107462 -0.22400504 30.99968569 -0.38645348 35.00561523 -0.49438477 C36.36498621 -0.53940132 37.7239272 -0.60064542 39.08178711 -0.67895508 C50.4369339 -1.31697838 50.4369339 -1.31697838 54.42529297 2.04345703 C56.30859375 4.53515625 56.30859375 4.53515625 57.79858398 7.05102539 C58.39328491 8.01576782 58.39328491 8.01576782 59 9 C59.66 9 60.32 9 61 9 C62.29133839 7.24040598 62.29133839 7.24040598 63.5 5.0625 C65.78908189 1.10545906 65.78908189 1.10545906 68 0 C70.2072923 -0.07092842 72.41667452 -0.08415025 74.625 -0.0625 C75.81351562 -0.05347656 77.00203125 -0.04445313 78.2265625 -0.03515625 C79.14179688 -0.02355469 80.05703125 -0.01195312 81 0 C80.48351654 4.43381182 78.9195931 6.74608701 76.0625 10.125 C71.7329972 14.61256723 71.7329972 14.61256723 70.05859375 20.21484375 C71.63439914 24.8768738 74.64755626 28.58775588 77.49414062 32.56054688 C77.94080078 33.20185547 78.38746094 33.84316406 78.84765625 34.50390625 C79.4665271 35.36737671 79.4665271 35.36737671 80.09790039 36.24829102 C81 38 81 38 81 42 C74.61735835 43.065914 69.63634938 43.75756626 64 40 C62.00423604 37.13805422 60.44319399 34.17236652 59 31 C57.20857158 33.35284473 55.54670198 35.70055149 53.9375 38.1875 C52 41 52 41 50 42 C46.3922058 42.07074106 42.79533748 41.99664488 39.1875 41.9375 C36.1026494 41.76967812 36.1026494 41.76967812 34 43 C31.8359375 42.66015625 31.8359375 42.66015625 29.375 42.0625 C28.55773437 41.86785156 27.74046875 41.67320312 26.8984375 41.47265625 C25.95871094 41.23869141 25.95871094 41.23869141 25 41 C25 40.34 25 39.68 25 39 C24.175 39.474375 23.35 39.94875 22.5 40.4375 C17.01161559 42.88767161 13.06200437 43.61860131 7.25 41.875 C2.84191039 39.33187138 0.60739253 36.82217759 -1 32 C-1.34665121 29.03127289 -1.47090594 26.04684603 -1.625 23.0625 C-1.66931152 22.21381348 -1.71362305 21.36512695 -1.75927734 20.49072266 C-2.05279427 13.96523456 -2.10568693 7.46212581 -1 1 C-0.67 0.67 -0.34 0.34 0 0 Z M37 2 C37 13.55 37 25.1 37 37 C40.61721366 33.38278634 43.40258684 30.28110664 46.3125 26.1875 C47.00988281 25.21167969 47.70726562 24.23585938 48.42578125 23.23046875 C48.94527344 22.49441406 49.46476562 21.75835937 50 21 C46.4052207 14.12856346 42.51731456 7.51731456 37 2 Z " fill="#3E3E3F" transform="translate(201,264)"/>
<path d="M0 0 C1.06476563 -0.01224609 2.12953125 -0.02449219 3.2265625 -0.03710938 C20.00127437 -0.06802101 20.00127437 -0.06802101 25.4375 5.0625 C25.98277344 5.55492187 26.52804688 6.04734375 27.08984375 6.5546875 C30.41580473 10.40580022 30.79500263 13.57992565 30.8125 18.625 C30.82925781 19.73746094 30.84601563 20.84992188 30.86328125 21.99609375 C30.35668802 26.44648801 28.77523039 29.06684299 25.4375 32 C23.5 33.1875 23.5 33.1875 21.5 33.1875 C22.13615234 34.16360229 22.13615234 34.16360229 22.78515625 35.15942383 C24.69716521 38.10176399 26.59867585 41.05074527 28.5 44 C29.16773438 45.02416016 29.83546875 46.04832031 30.5234375 47.10351562 C31.15507813 48.08642578 31.78671875 49.06933594 32.4375 50.08203125 C33.31728516 51.44098511 33.31728516 51.44098511 34.21484375 52.82739258 C35.5 55.1875 35.5 55.1875 35.5 58.1875 C33.4377952 58.241848 31.37517184 58.28044961 29.3125 58.3125 C28.16394531 58.33570313 27.01539063 58.35890625 25.83203125 58.3828125 C20.44457831 58.06701807 20.44457831 58.06701807 17.5 56.1875 C15.04449184 52.77747393 13.20068573 49.02099253 11.25 45.30859375 C10.8375 44.55707031 10.425 43.80554688 10 43.03125 C9.6390625 42.34224609 9.278125 41.65324219 8.90625 40.94335938 C7.28705176 38.6261981 7.28705176 38.6261981 2.5 37.1875 C2.5 44.1175 2.5 51.0475 2.5 58.1875 C-10.25 58.3125 -10.25 58.3125 -12.5 57.1875 C-13.44542322 43.71885534 -13.52570876 30.36169175 -13.125 16.875 C-13.10357941 16.105047 -13.08215881 15.33509399 -13.06008911 14.54180908 C-12.99701292 12.3440156 -12.92609465 10.14665072 -12.8515625 7.94921875 C-12.80854004 6.67006592 -12.76551758 5.39091309 -12.72119141 4.07299805 C-12.23501809 -2.26925625 -5.09030107 0.00299429 0 0 Z M2.5 12.1875 C2.5 17.1375 2.5 22.0875 2.5 27.1875 C9.28858433 27.29497953 9.28858433 27.29497953 14.625 23.9375 C15.53839979 21.06681496 15.97025455 19.1657788 15.5 16.1875 C13.79518425 13.90515709 12.83893788 13.25742262 10.01953125 12.67578125 C8.67955078 12.58876953 8.67955078 12.58876953 7.3125 12.5 C4.9303125 12.3453125 4.9303125 12.3453125 2.5 12.1875 Z " fill="#3E3E3F" transform="translate(85.5,247.8125)"/>
<path d="M0 0 C4.39479224 2.32609394 7.82362669 5.83085678 9.36328125 10.578125 C9.44578125 11.135 9.52828125 11.691875 9.61328125 12.265625 C10.27328125 12.265625 10.93328125 12.265625 11.61328125 12.265625 C12.27328125 10.945625 12.93328125 9.625625 13.61328125 8.265625 C13.37158203 9.2865625 13.37158203 9.2865625 13.125 10.328125 C12.54056395 13.6830556 12.44412758 16.86054644 12.42578125 20.265625 C12.41160156 21.461875 12.39742187 22.658125 12.3828125 23.890625 C12.60655935 27.16718897 13.38134767 29.27155858 14.61328125 32.265625 C14.28328125 33.255625 13.95328125 34.245625 13.61328125 35.265625 C10.74783942 32.02642989 10.26791836 29.47400641 9.61328125 25.265625 C7.10831121 24.01313998 5.40474851 24.15188094 2.60546875 24.16796875 C1.61933594 24.17119141 0.63320312 24.17441406 -0.3828125 24.17773438 C-1.93162109 24.19030273 -1.93162109 24.19030273 -3.51171875 24.203125 C-4.55199219 24.20763672 -5.59226563 24.21214844 -6.6640625 24.21679688 C-9.23833837 24.22860548 -11.81250021 24.24507425 -14.38671875 24.265625 C-13.20027278 26.82382953 -13.20027278 26.82382953 -11.38671875 29.265625 C-9.25684731 29.94175696 -9.25684731 29.94175696 -6.94921875 29.703125 C-6.18738281 29.68121094 -5.42554688 29.65929687 -4.640625 29.63671875 C-2.22639274 29.23922817 -0.53948681 28.39457131 1.61328125 27.265625 C4.49021712 27.44543349 5.6362335 28.2836146 7.92578125 30.078125 C9.61328125 32.265625 9.61328125 32.265625 9.42578125 34.234375 C8.13874727 37.45195996 6.05005967 38.5207457 3.12109375 40.2109375 C-2.341156 42.50814534 -8.19173296 43.09973579 -13.9453125 41.59765625 C-20.79782707 38.76651617 -25.88579591 35.14213596 -28.88671875 28.203125 C-31.33231876 20.66252496 -30.14943366 13.85634056 -26.69921875 6.828125 C-25.55453125 5.5596875 -25.55453125 5.5596875 -24.38671875 4.265625 C-23.96132812 3.78222656 -23.5359375 3.29882812 -23.09765625 2.80078125 C-17.15087653 -2.70380203 -7.36580386 -2.26640119 0 0 Z " fill="#383839" transform="translate(145.38671875,264.734375)"/>
<path d="M0 0 C4.29 0 8.58 0 13 0 C13.33 10.23 13.66 20.46 14 31 C17.3 30.67 20.6 30.34 24 30 C24 20.76 24 11.52 24 2 C27.96 2 31.92 2 36 2 C36 15.2 36 28.4 36 42 C33.36749612 43.31625194 32.19820944 42.74813658 29.375 42.0625 C28.55773437 41.86785156 27.74046875 41.67320312 26.8984375 41.47265625 C25.95871094 41.23869141 25.95871094 41.23869141 25 41 C25 40.34 25 39.68 25 39 C24.175 39.474375 23.35 39.94875 22.5 40.4375 C17.01161559 42.88767161 13.06200437 43.61860131 7.25 41.875 C2.84191039 39.33187138 0.60739253 36.82217759 -1 32 C-1.34665121 29.03127289 -1.47090594 26.04684603 -1.625 23.0625 C-1.66931152 22.21381348 -1.71362305 21.36512695 -1.75927734 20.49072266 C-2.05279427 13.96523456 -2.10568693 7.46212581 -1 1 C-0.67 0.67 -0.34 0.34 0 0 Z " fill="#464547" transform="translate(201,264)"/>
<path d="M0 0 C2.14576637 -0.02685938 4.29162645 -0.04633088 6.4375 -0.0625 C7.63246094 -0.07410156 8.82742187 -0.08570313 10.05859375 -0.09765625 C13 0 13 0 14 1 C14.09893778 2.77446009 14.12799092 4.55286251 14.12939453 6.33007812 C14.13254669 7.46795776 14.13569885 8.6058374 14.13894653 9.77819824 C14.1369223 11.01670532 14.13489807 12.2552124 14.1328125 13.53125 C14.13376923 14.79263794 14.13472595 16.05402588 14.13571167 17.3536377 C14.13639375 20.02697138 14.13503529 22.70021437 14.13037109 25.37353516 C14.12467381 28.80706691 14.12795301 32.2405205 14.13394356 35.67404938 C14.13841762 38.93895243 14.13528883 42.20384593 14.1328125 45.46875 C14.13483673 46.70725708 14.13686096 47.94576416 14.13894653 49.22180176 C14.13421829 50.92862122 14.13421829 50.92862122 14.12939453 52.66992188 C14.12859894 53.67728394 14.12780334 54.684646 14.12698364 55.72253418 C14 58 14 58 13 59 C11.48071962 59.07179964 9.95832518 59.08392007 8.4375 59.0625 C7.61121094 59.05347656 6.78492188 59.04445313 5.93359375 59.03515625 C5.29550781 59.02355469 4.65742188 59.01195312 4 59 C4 58.67 4 58.34 4 58 C6.64 57.67 9.28 57.34 12 57 C12 38.85 12 20.7 12 2 C8.37 2 4.74 2 1 2 C1 7.94 1 13.88 1 20 C-0.65 19.67 -2.3 19.34 -4 19 C-10.6056668 18.4620385 -15.11430915 19.34770077 -20.3125 23.625 C-21.199375 24.40875 -22.08625 25.1925 -23 26 C-21.55536047 22.62917442 -19.75336875 20.41962708 -17 18 C-13.91493912 16.97164637 -11.7305728 16.86631566 -8.5 16.875 C-7.06140625 16.87113281 -7.06140625 16.87113281 -5.59375 16.8671875 C-3 17 -3 17 0 18 C-0.185625 16.88625 -0.37125 15.7725 -0.5625 14.625 C-1.20322807 9.65935745 -0.65791037 4.93938863 0 0 Z " fill="#AFACB3" transform="translate(182,247)"/>
<path d="M0 0 C4.07502794 -0.07420211 8.14979392 -0.1286257 12.2253418 -0.16479492 C13.61147919 -0.17987397 14.99756894 -0.2003405 16.38354492 -0.22631836 C18.37658146 -0.26273716 20.36996723 -0.27813018 22.36328125 -0.29296875 C23.56251221 -0.3086792 24.76174316 -0.32438965 25.99731445 -0.34057617 C29 0 29 0 30.91479492 1.51831055 C31.2729126 2.00726807 31.63103027 2.49622559 32 3 C31.67 3.66 31.34 4.32 31 5 C30.34 4.34 29.68 3.68 29 3 C25.87803664 2.53513282 25.87803664 2.53513282 22.375 2.375 C21.18648437 2.30023438 19.99796875 2.22546875 18.7734375 2.1484375 C17.85820312 2.09945313 16.94296875 2.05046875 16 2 C14.52094762 4.95810476 14.87809097 7.9547155 14.90234375 11.1953125 C14.90446617 12.25647781 14.90446617 12.25647781 14.90663147 13.33908081 C14.912234 15.60109669 14.92478682 17.86301398 14.9375 20.125 C14.94251468 21.65755065 14.94707764 23.19010286 14.95117188 24.72265625 C14.96220423 28.48180888 14.97947048 32.24088772 15 36 C16.27348212 34.27278316 17.54367057 32.54313762 18.8125 30.8125 C19.52019531 29.84957031 20.22789062 28.88664062 20.95703125 27.89453125 C23.20723789 24.70637997 25.25450752 21.49098496 27 18 C27.86476686 20.42134721 28.1422798 21.60873054 27.25 24.0625 C26.004516 25.9930002 24.61714849 27.38285151 23 29 C22.67 29.99 22.34 30.98 22 32 C21.34 32 20.68 32 20 32 C19.566875 33.11375 19.566875 33.11375 19.125 34.25 C18.18620664 36.5448282 17.10883447 38.78233105 16 41 C19.63 41 23.26 41 27 41 C27 41.33 27 41.66 27 42 C24.85423363 42.02685938 22.70837355 42.04633088 20.5625 42.0625 C19.36753906 42.07410156 18.17257813 42.08570313 16.94140625 42.09765625 C14 42 14 42 13 41 C12.91134792 38.1156618 12.88478704 35.25537842 12.90234375 32.37109375 C12.9037587 31.50686295 12.90517365 30.64263214 12.90663147 29.75221252 C12.91224761 26.98060708 12.92480281 24.2090812 12.9375 21.4375 C12.94251292 19.5631522 12.94707619 17.68880315 12.95117188 15.81445312 C12.96222228 11.20960456 12.9794977 6.60481579 13 2 C9.04 2 5.08 2 1 2 C1 11.24 1 20.48 1 30 C0.34 29.67 -0.32 29.34 -1 29 C-1.02927632 25.47918442 -1.04689119 21.95840061 -1.0625 18.4375 C-1.07087891 17.44685547 -1.07925781 16.45621094 -1.08789062 15.43554688 C-1.09111328 14.46552734 -1.09433594 13.49550781 -1.09765625 12.49609375 C-1.10289307 11.61107178 -1.10812988 10.7260498 -1.11352539 9.81420898 C-0.97965712 6.49571535 -0.51310542 3.27925851 0 0 Z " fill="#CBC7D0" transform="translate(224,264)"/>
<path d="M0 0 C1.06476563 -0.01224609 2.12953125 -0.02449219 3.2265625 -0.03710938 C20.00127437 -0.06802101 20.00127437 -0.06802101 25.4375 5.0625 C25.98277344 5.55492187 26.52804688 6.04734375 27.08984375 6.5546875 C30.44786373 10.44292116 30.7951149 13.65616517 30.8125 18.75 C30.82925781 19.88566406 30.84601563 21.02132813 30.86328125 22.19140625 C30.5 25.1875 30.5 25.1875 28.98046875 27.08984375 C28.49191406 27.45207031 28.00335938 27.81429688 27.5 28.1875 C27.5 26.8675 27.5 25.5475 27.5 24.1875 C28.16 24.1875 28.82 24.1875 29.5 24.1875 C29.25326625 14.89650513 29.25326625 14.89650513 24.5 7.1875 C17.26125073 2.47490872 10.46739721 2.53376507 2 2.4375 C-2.455 2.355 -6.91 2.2725 -11.5 2.1875 C-11.5 20.3375 -11.5 38.4875 -11.5 57.1875 C-11.83 57.1875 -12.16 57.1875 -12.5 57.1875 C-13.44542322 43.71885534 -13.52570876 30.36169175 -13.125 16.875 C-13.10357941 16.105047 -13.08215881 15.33509399 -13.06008911 14.54180908 C-12.99701292 12.3440156 -12.92609465 10.14665072 -12.8515625 7.94921875 C-12.80854004 6.67006592 -12.76551758 5.39091309 -12.72119141 4.07299805 C-12.23501809 -2.26925625 -5.09030107 0.00299429 0 0 Z " fill="#E3E0E8" transform="translate(85.5,247.8125)"/>
<path d="M0 0 C0.62261719 0.185625 1.24523437 0.37125 1.88671875 0.5625 C1.31824219 0.9028125 0.74976563 1.243125 0.1640625 1.59375 C-13.30420973 10.04795761 -21.11599781 23.82629237 -24.66015625 39.20703125 C-27.1541038 52.17125858 -26.3677238 65.48045624 -25.11328125 78.5625 C-29.45611952 71.32443621 -28.26415678 61.97835356 -28.23828125 53.875 C-28.24214844 52.65232422 -28.24601562 51.42964844 -28.25 50.16992188 C-28.24871094 48.99623047 -28.24742188 47.82253906 -28.24609375 46.61328125 C-28.24496582 45.54762939 -28.24383789 44.48197754 -28.24267578 43.3840332 C-28.13036083 40.93493145 -27.82126298 38.89771482 -27.11328125 36.5625 C-26.45328125 36.5625 -25.79328125 36.5625 -25.11328125 36.5625 C-25.17515625 35.53125 -25.23703125 34.5 -25.30078125 33.4375 C-24.81065294 23.30818162 -15.04830486 10.60604107 -7.60546875 3.83203125 C-7.11304688 3.41308594 -6.620625 2.99414062 -6.11328125 2.5625 C-5.03046875 1.5725 -5.03046875 1.5725 -3.92578125 0.5625 C-2.11328125 -0.4375 -2.11328125 -0.4375 0 0 Z " fill="#CEC2E2" transform="translate(156.11328125,56.4375)"/>
<path d="M0 0 C0.66 1.32 1.32 2.64 2 4 C2.66 4 3.32 4 4 4 C4.66 2.68 5.32 1.36 6 0 C5.83886719 0.680625 5.67773438 1.36125 5.51171875 2.0625 C4.9272827 5.4174306 4.83084633 8.59492144 4.8125 12 C4.79123047 13.794375 4.79123047 13.794375 4.76953125 15.625 C4.9932781 18.90156397 5.76806642 21.00593358 7 24 C6.67 24.99 6.34 25.98 6 27 C3.13455817 23.76080489 2.65463711 21.20838141 2 17 C-0.50497004 15.74751498 -2.20853274 15.88625594 -5.0078125 15.90234375 C-5.99394531 15.90556641 -6.98007813 15.90878906 -7.99609375 15.91210938 C-9.54490234 15.92467773 -9.54490234 15.92467773 -11.125 15.9375 C-12.16527344 15.94201172 -13.20554688 15.94652344 -14.27734375 15.95117188 C-16.85161962 15.96298048 -19.42578146 15.97944925 -22 16 C-20.90696099 18.58738328 -20.90696099 18.58738328 -19 21 C-16.26622386 21.60393692 -16.26622386 21.60393692 -13.3125 21.3125 C-11.82169922 21.24482422 -11.82169922 21.24482422 -10.30078125 21.17578125 C-9.54152344 21.11777344 -8.78226563 21.05976563 -8 21 C-8.33 21.66 -8.66 22.32 -9 23 C-13.39431783 24.28924201 -16.91179714 24.56677232 -21 22.4375 C-23 20 -23 20 -24 14 C-15.75 14 -7.5 14 1 14 C0.67 9.38 0.34 4.76 0 0 Z " fill="#C7C3CD" transform="translate(153,273)"/>
<path d="M0 0 C2.89493029 1.59592311 5.43661148 3.67588483 7.578125 6.1953125 C7.248125 6.8553125 6.918125 7.5153125 6.578125 8.1953125 C6.03542969 7.77378906 5.49273437 7.35226562 4.93359375 6.91796875 C3.86044922 6.09619141 3.86044922 6.09619141 2.765625 5.2578125 C2.05792969 4.71253906 1.35023438 4.16726563 0.62109375 3.60546875 C-3.74975463 0.58849693 -8.31118935 0.72683298 -13.421875 1.1953125 C-19.59381789 3.14976108 -23.70398663 5.99379326 -26.796875 11.7578125 C-27.81367044 17.35018743 -27.94149016 24.20958976 -25.3125 29.375 C-24.421875 31.1953125 -24.421875 31.1953125 -25.421875 34.1953125 C-26.0728009 32.94795683 -26.71739169 31.69729418 -27.359375 30.4453125 C-27.71902344 29.74921875 -28.07867187 29.053125 -28.44921875 28.3359375 C-31.26732364 22.13384321 -30.02099178 16.6699973 -28.421875 10.1953125 C-26.734375 6.7578125 -26.734375 6.7578125 -24.421875 4.1953125 C-23.99648437 3.71191406 -23.57109375 3.22851562 -23.1328125 2.73046875 C-17.21128998 -2.75073543 -7.30395776 -2.42679887 0 0 Z " fill="#D8D5DC" transform="translate(145.421875,264.8046875)"/>
<path d="M0 0 C3.16726906 2.61160782 4.20994159 5.58125444 5.625 9.375 C6.05039062 10.49648437 6.47578125 11.61796875 6.9140625 12.7734375 C9.00385772 18.98268517 9.21331706 24.68086436 9.25 31.1875 C9.270625 32.08275391 9.29125 32.97800781 9.3125 33.90039062 C9.35005278 40.40171488 8.18975618 45.88734352 6 52 C5.67 52 5.34 52 5 52 C4.8749538 45.49759763 4.8749538 45.49759763 5.49560547 43.02783203 C6.03031853 40.87810952 6.12930498 39.01693286 6.1328125 36.8046875 C6.13474609 36.0103833 6.13667969 35.2160791 6.13867188 34.39770508 C6.1319043 33.14896606 6.1319043 33.14896606 6.125 31.875 C6.12209961 30.60209106 6.12209961 30.60209106 6.11914062 29.3034668 C6.07897041 23.4771113 5.75830415 17.78206915 5 12 C4.34 12 3.68 12 3 12 C2.67 9.36 2.34 6.72 2 4 C1.34 4 0.68 4 0 4 C0 2.68 0 1.36 0 0 Z " fill="#AF98D4" transform="translate(274,155)"/>
<path d="M0 0 C1.88638658 0.62879553 3.77109524 1.26450467 5.63647461 1.953125 C12.72652096 4.37966493 19.24483599 4.54375808 26.6875 4.375 C27.83476562 4.36146484 28.98203125 4.34792969 30.1640625 4.33398438 C32.96404958 4.29898454 35.76301217 4.24988859 38.5625 4.1875 C34.34096834 8.40903166 28.41883912 7.47698644 22.82958984 7.51757812 C16.20406976 7.43837286 10.67114589 6.20320924 4.3828125 4.0625 C1.41792814 2.989956 1.41792814 2.989956 -2.4375 3.1875 C-4.86797008 4.70173658 -4.86797008 4.70173658 -7.1875 6.6875 C-7.98671875 7.3371875 -8.7859375 7.986875 -9.609375 8.65625 C-10.21265625 9.1615625 -10.8159375 9.666875 -11.4375 10.1875 C-11.1075 11.1775 -10.7775 12.1675 -10.4375 13.1875 C-11.4275 13.1875 -12.4175 13.1875 -13.4375 13.1875 C-12.82355482 7.54316526 -10.03926951 5.25646002 -5.83203125 1.73828125 C-3.4375 0.1875 -3.4375 0.1875 0 0 Z " fill="#D6CDE5" transform="translate(204.4375,216.8125)"/>
<path d="M0 0 C3.23000416 -0.22022756 5.39975854 -0.3082321 8.3125 1.1875 C10 3 10 3 11 8 C6.05 8 1.1 8 -4 8 C-3.34 6.02 -2.68 4.04 -2 2 C-1.34 2 -0.68 2 0 2 C0 1.34 0 0.68 0 0 Z " fill="#DEDCE1" transform="translate(133,273)"/>
<path d="M0 0 C0.33 0 0.66 0 1 0 C0.93143799 0.65991943 0.86287598 1.31983887 0.79223633 1.99975586 C0.11856128 8.86135036 -0.24305664 15.66908938 -0.3125 22.5625 C-0.34150391 23.52607422 -0.37050781 24.48964844 -0.40039062 25.48242188 C-0.45390668 31.5873687 0.45773115 36.17998257 3.03833008 41.72631836 C4.05887169 44.13919068 4.56628978 46.42248152 5 49 C-1.65677317 43.61118363 -2.38454561 33.56506607 -3.44921875 25.66796875 C-4.40938987 16.30371926 -2.94786169 8.84358506 0 0 Z " fill="#CFC3E3" transform="translate(75,164)"/>
<path d="M0 0 C1.18851562 0.00902344 2.37703125 0.01804687 3.6015625 0.02734375 C4.51679688 0.03894531 5.43203125 0.05054688 6.375 0.0625 C5.6137883 5.19849156 3.79736706 7.28912093 0.375 11.0625 C0.045 10.4025 -0.285 9.7425 -0.625 9.0625 C0.6875 6.4375 0.6875 6.4375 2.375 4.0625 C3.035 4.0625 3.695 4.0625 4.375 4.0625 C4.375 3.4025 4.375 2.7425 4.375 2.0625 C0.22142175 1.89688683 -3.59830752 1.96909003 -7.625 3.0625 C-9.60150577 5.25291332 -10.56948093 7.20471534 -11.66015625 9.93359375 C-12.625 12.0625 -12.625 12.0625 -15.625 14.0625 C-18.84765625 8.7890625 -18.84765625 8.7890625 -19.625 7.0625 C-19.295 6.4025 -18.965 5.7425 -18.625 5.0625 C-18.17125 5.7225 -17.7175 6.3825 -17.25 7.0625 C-16.71375 7.7225 -16.1775 8.3825 -15.625 9.0625 C-14.965 9.0625 -14.305 9.0625 -13.625 9.0625 C-12.33366161 7.30290598 -12.33366161 7.30290598 -11.125 5.125 C-8.05591543 -0.18039923 -6.07128101 -0.05952236 0 0 Z " fill="#CAC6D0" transform="translate(275.625,263.9375)"/>
<path d="M0 0 C0.66 0.33 1.32 0.66 2 1 C0.96359375 2.03253906 0.96359375 2.03253906 -0.09375 3.0859375 C-2.12862043 5.11937492 -4.14608606 7.16871219 -6.15625 9.2265625 C-7.27076901 10.35943829 -8.38535323 11.49224992 -9.5 12.625 C-10.05558594 13.19734375 -10.61117187 13.7696875 -11.18359375 14.359375 C-14.2458732 17.45768127 -17.10251438 19.94945719 -21 22 C-16.30576629 12.05269522 -8.81942192 6.12580537 0 0 Z " fill="#B49DD8" transform="translate(148,44)"/>
<path d="M0 0 C0.99 0.33 1.98 0.66 3 1 C2.29875 1.69867188 1.5975 2.39734375 0.875 3.1171875 C-1.07654439 5.06735756 -3.01158089 7.03234797 -4.9375 9.0078125 C-5.9582866 10.04692091 -6.97912041 11.08598295 -8 12.125 C-8.50789063 12.64964844 -9.01578125 13.17429688 -9.5390625 13.71484375 C-12.47945363 16.6929322 -15.26781313 19.01041509 -19 21 C-15.0150717 12.32128596 -7.06323712 6.13947371 0 0 Z " fill="#B39DD6" transform="translate(102,130)"/>
<path d="M0 0 C2.35949012 2.12115778 3.53812522 3.84382751 4.5703125 6.8359375 C4.82683594 7.57070312 5.08335937 8.30546875 5.34765625 9.0625 C5.60417969 9.825625 5.86070312 10.58875 6.125 11.375 C6.38925781 12.13039063 6.65351563 12.88578125 6.92578125 13.6640625 C8.99889737 19.68346565 10.13297659 24.89913022 10.0625 31.3125 C10.05347656 32.38113281 10.04445312 33.44976562 10.03515625 34.55078125 C10.02355469 35.35902344 10.01195312 36.16726562 10 37 C7.03 36.34 4.06 35.68 1 35 C1 34.67 1 34.34 1 34 C3.64 34 6.28 34 9 34 C7.06223761 23.74826266 5.03086254 14.01273222 0.953125 4.37109375 C0 2 0 2 0 0 Z " fill="#E0DAEB" transform="translate(222,67)"/>
<path d="M0 0 C0.66 0.33 1.32 0.66 2 1 C0.97630691 5.24101424 0.1006212 7.8993788 -3 11 C-3.33 11.99 -3.66 12.98 -4 14 C-4.66 14 -5.32 14 -6 14 C-6.28875 14.7425 -6.5775 15.485 -6.875 16.25 C-7.81379336 18.5448282 -8.89116553 20.78233105 -10 23 C-6.37 23 -2.74 23 1 23 C1 23.33 1 23.66 1 24 C-3.29 24 -7.58 24 -12 24 C-12.33 23.34 -12.66 22.68 -13 22 C-10.11807062 15.97414765 -5.93873908 10.8963329 -1.828125 5.671875 C0.28234196 3.12691814 0.28234196 3.12691814 0 0 Z " fill="#D9D7DD" transform="translate(250,282)"/>
<path d="M0 0 C1.15933071 3.69842826 0.55588994 6.10136213 -0.45678711 9.82910156 C-2.47693849 17.90244363 -2.12188721 26.30767759 -2.0625 34.5625 C-2.05798828 35.76197266 -2.05347656 36.96144531 -2.04882812 38.19726562 C-2.03713769 41.13156359 -2.02075138 44.06575449 -2 47 C-2.33 47 -2.66 47 -3 47 C-6.0837999 30.61563704 -5.25517383 15.76552148 0 0 Z " fill="#E1DAEB" transform="translate(118,85)"/>
<path d="M0 0 C1.34226779 0.29530673 2.67369617 0.63971255 4 1 C6.38943295 1.08220526 8.78104847 1.10745472 11.171875 1.09765625 C11.8542926 1.0962413 12.53671021 1.09482635 13.23980713 1.09336853 C15.40991684 1.08779084 17.5799217 1.07524254 19.75 1.0625 C21.22525892 1.05748211 22.70051947 1.05291971 24.17578125 1.04882812 C27.78388798 1.03782875 31.39193375 1.02057953 35 1 C30.72278914 3.85147391 26.60812863 3.84683937 21.5625 4.3125 C20.57362793 4.40515137 19.58475586 4.49780273 18.56591797 4.59326172 C11.1226439 5.17089398 5.02240179 4.75562602 -2 2 C-1.34 1.34 -0.68 0.68 0 0 Z " fill="#C1B1DB" transform="translate(209,233)"/>
<path d="M0 0 C2.398529 3.5977935 4.73961686 7.22804062 7.0625 10.875 C7.52205078 11.58269531 7.98160156 12.29039062 8.45507812 13.01953125 C10.75449995 16.64593219 12.57957248 19.62412168 13 24 C11.41870971 24.22331199 9.83478911 24.42804644 8.25 24.625 C6.92742187 24.79902344 6.92742187 24.79902344 5.578125 24.9765625 C3 25 3 25 -1 23 C3.29 23 7.58 23 12 23 C11.34 21.35 10.68 19.7 10 18 C9.34 18 8.68 18 8 18 C7.66226562 17.37351562 7.32453125 16.74703125 6.9765625 16.1015625 C6.53054688 15.28429687 6.08453125 14.46703125 5.625 13.625 C5.18414062 12.81289063 4.74328125 12.00078125 4.2890625 11.1640625 C3.0556107 8.89185698 3.0556107 8.89185698 1 7 C1 6.01 1 5.02 1 4 C0.34 4 -0.32 4 -1 4 C-0.67 2.68 -0.34 1.36 0 0 Z " fill="#D2CFD6" transform="translate(269,282)"/>
<path d="M0 0 C3.43970364 1.71985182 3.95727648 5.32943114 5.16796875 8.81640625 C7.21562455 16.65133336 6.88306235 23.88105236 3 31 C1.85315636 27.55946907 2.1828192 25.63896239 2.625 22.0625 C3.17193595 16.03269997 2.41707797 11.2338124 0.69140625 5.4609375 C0 3 0 3 0 0 Z " fill="#BFAEDB" transform="translate(265,168)"/>
<path d="M0 0 C1.60568666 0.28317926 3.20952047 0.57687791 4.8125 0.875 C6.15248047 1.11863281 6.15248047 1.11863281 7.51953125 1.3671875 C10 2 10 2 13 4 C14.83244795 4.42808123 16.68444991 4.77530951 18.54296875 5.0703125 C19.61611328 5.24433594 20.68925781 5.41835937 21.79492188 5.59765625 C22.91447266 5.77167969 24.03402344 5.94570312 25.1875 6.125 C26.31865234 6.30675781 27.44980469 6.48851562 28.61523438 6.67578125 C31.4091781 7.12375535 34.20403028 7.56488137 37 8 C37 8.33 37 8.66 37 9 C28.08296037 8.87860466 19.73273527 8.33531703 11.1875 5.625 C10.52492188 5.41593018 9.86234375 5.20686035 9.1796875 4.99145508 C5.65416094 3.79575048 2.82558239 2.43412891 0 0 Z " fill="#C7B8DE" transform="translate(95,228)"/>
<path d="M0 0 C3.32132706 2.59929944 3.49950189 4.91901537 4 9 C4.06522873 11.29083289 4.0858841 13.58335794 4.0625 15.875 C4.05347656 17.02742188 4.04445312 18.17984375 4.03515625 19.3671875 C4.02355469 20.23601562 4.01195312 21.10484375 4 22 C0.55780734 18.91868238 0.3037606 16.63234918 0 12 C0.13574128 10.60082068 0.30265142 9.20432686 0.5 7.8125 C0.91769122 4.62760448 1.09762552 2.92700138 0 0 Z " fill="#BCAADA" transform="translate(128,167)"/>
<path d="M0 0 C0.83660156 -0.00773437 1.67320312 -0.01546875 2.53515625 -0.0234375 C3.34339844 -0.02085938 4.15164062 -0.01828125 4.984375 -0.015625 C5.70850586 -0.01336914 6.43263672 -0.01111328 7.17871094 -0.00878906 C9.54734928 0.28715114 11.1858405 1.07895289 13.25 2.25 C10.67750734 3.53624633 9.99869971 2.94658828 7.25 2.25 C-1.88929004 1.63757335 -10.00830763 2.5602485 -18.75 5.25 C-18.42 4.26 -18.09 3.27 -17.75 2.25 C-11.80829042 0.23358272 -6.23331793 -0.05871257 0 0 Z " fill="#D8CEE7" transform="translate(176.75,50.75)"/>
<path d="M0 0 C2.625 -0.4375 2.625 -0.4375 6 0 C9.72257815 3.260465 12.85504602 6.90653006 13.203125 11.93359375 C13.21859375 13.08988281 13.2340625 14.24617188 13.25 15.4375 C13.28867188 17.16806641 13.28867188 17.16806641 13.328125 18.93359375 C13 22 13 22 11.484375 23.91015625 C10.99453125 24.26980469 10.5046875 24.62945312 10 25 C10 23.68 10 22.36 10 21 C10.66 21 11.32 21 12 21 C11.75148015 11.71414668 11.75148015 11.71414668 7 4 C4.68945496 2.70093819 2.52423766 1.87377457 0 1 C0 0.67 0 0.34 0 0 Z " fill="#DAD6E0" transform="translate(103,251)"/>
<path d="M0 0 C0.33 0.66 0.66 1.32 1 2 C0.67 2.66 0.34 3.32 0 4 C0.03715706 5.96074973 0.15240797 7.92044361 0.3125 9.875 C0.39113281 10.92429687 0.46976562 11.97359375 0.55078125 13.0546875 C0.83843535 15.96146749 0.83843535 15.96146749 2.10546875 18.1953125 C3 20 3 20 2 23 C1.3490741 21.75264433 0.70448331 20.50198168 0.0625 19.25 C-0.29714844 18.55390625 -0.65679687 17.8578125 -1.02734375 17.140625 C-2.74022914 13.37090133 -3.14859579 10.49045194 -2.6875 6.375 C-2.60886719 5.59898437 -2.53023438 4.82296875 -2.44921875 4.0234375 C-2 2 -2 2 0 0 Z " fill="#BBB8C1" transform="translate(118,276)"/>
<path d="M0 0 C1.4540625 0.495 1.4540625 0.495 2.9375 1 C1.9475 1.33 0.9575 1.66 -0.0625 2 C-3.11724187 3.37835914 -5.65581906 5.08821128 -8.3125 7.125 C-9.01890625 7.66382813 -9.7253125 8.20265625 -10.453125 8.7578125 C-10.98421875 9.16773438 -11.5153125 9.57765625 -12.0625 10 C-11.7325 10.99 -11.4025 11.98 -11.0625 13 C-12.0525 13 -13.0425 13 -14.0625 13 C-13.44912828 7.3609374 -10.65776247 5.09479226 -6.49609375 1.5390625 C-3.93659242 -0.07962695 -2.93954321 -0.44483885 0 0 Z " fill="#E9E5F0" transform="translate(205.0625,217)"/>
<path d="M0 0 C3.17325358 2.62260075 4.28734555 5.64750421 5.75 9.4375 C6.19859375 10.57058594 6.6471875 11.70367187 7.109375 12.87109375 C7.9689772 15.89101199 8.14949552 17.14728855 7 20 C7 19.01 7 18.02 7 17 C6.34 17 5.68 17 5 17 C5 15.35 5 13.7 5 12 C4.34 12 3.68 12 3 12 C2.67 9.36 2.34 6.72 2 4 C1.34 4 0.68 4 0 4 C0 2.68 0 1.36 0 0 Z " fill="#C4B4DE" transform="translate(274,155)"/>
<path d="M0 0 C0.66 0.33 1.32 0.66 2 1 C1.401875 1.886875 0.80375 2.77375 0.1875 3.6875 C-1.13773369 5.69428245 -2.42189529 7.73020338 -3.625 9.8125 C-5 12 -5 12 -7 13 C-10.22265625 7.7265625 -10.22265625 7.7265625 -11 6 C-10.67 5.34 -10.34 4.68 -10 4 C-9.54625 4.66 -9.0925 5.32 -8.625 6 C-8.08875 6.66 -7.5525 7.32 -7 8 C-6.34 8 -5.68 8 -5 8 C-3.63722914 6.21034453 -3.63722914 6.21034453 -2.375 4 C-1.92898438 3.2575 -1.48296875 2.515 -1.0234375 1.75 C-0.68570312 1.1725 -0.34796875 0.595 0 0 Z " fill="#DBD7E0" transform="translate(267,265)"/>
<path d="M0 0 C0.33 0.66 0.66 1.32 1 2 C-0.21131129 3.82448127 -1.44476743 5.63427436 -2.6875 7.4375 C-3.71423828 8.95150391 -3.71423828 8.95150391 -4.76171875 10.49609375 C-7.22694014 13.25387196 -8.37942004 13.75270995 -12 14 C-11.67 13.34 -11.34 12.68 -11 12 C-10.34 12 -9.68 12 -9 12 C-9 11.34 -9 10.68 -9 10 C-7.3563186 8.31066078 -5.6857124 6.64740076 -4 5 C-2.64444707 3.35135455 -1.30368347 1.68996005 0 0 Z " fill="#CFC2E2" transform="translate(264,203)"/>
<path d="M0 0 C0.33 0 0.66 0 1 0 C1 3.96 1 7.92 1 12 C-3.455 11.01 -3.455 11.01 -8 10 C-8 9.67 -8 9.34 -8 9 C-5.36 9 -2.72 9 0 9 C0 6.03 0 3.06 0 0 Z " fill="#CCBFE0" transform="translate(231,92)"/>
<path d="M0 0 C1.5 1.3125 1.5 1.3125 3 3 C3 3.99 3 4.98 3 6 C-1.29 6 -5.58 6 -10 6 C-10 5.67 -10 5.34 -10 5 C-5.545 4.505 -5.545 4.505 -1 4 C-0.67 2.68 -0.34 1.36 0 0 Z " fill="#C3C2C4" transform="translate(118,300)"/>
<path d="M0 0 C-5.1468192 3.16727335 -9.158256 3.35050464 -15 3 C-15.33 2.34 -15.66 1.68 -16 1 C-14.4840625 1.061875 -14.4840625 1.061875 -12.9375 1.125 C-8.75315521 0.99216366 -3.6620554 -1.8310277 0 0 Z " fill="#CDC0E1" transform="translate(173,127)"/>
<path d="M0 0 C5.7097955 0.41778991 8.60957142 2.57546571 13 6 C9.81888031 6 8.24420962 5.40539647 5.375 4.125 C4.57835937 3.77695312 3.78171875 3.42890625 2.9609375 3.0703125 C1 2 1 2 0 0 Z " fill="#D3C8E4" transform="translate(192,40)"/>
<path d="M0 0 C1.69433918 3.0469629 2.49467112 5.82821466 3.125 9.25 C3.29257813 10.14203125 3.46015625 11.0340625 3.6328125 11.953125 C3.75398438 12.62859375 3.87515625 13.3040625 4 14 C3.67 13.34 3.34 12.68 3 12 C2.34 12 1.68 12 1 12 C0.03929566 9.11788698 -0.10581883 7.30149956 -0.0625 4.3125 C-0.05347656 3.50425781 -0.04445313 2.69601563 -0.03515625 1.86328125 C-0.02355469 1.24839844 -0.01195313 0.63351563 0 0 Z " fill="#D1C6E4" transform="translate(105,131)"/>
<path d="M0 0 C-0.99 0.33 -1.98 0.66 -3 1 C-1.68 2.98 -0.36 4.96 1 7 C0.67 7.66 0.34 8.32 0 9 C-0.61875 8.195625 -1.2375 7.39125 -1.875 6.5625 C-3.74164041 3.96125481 -3.74164041 3.96125481 -6 3 C-6 2.01 -6 1.02 -6 0 C-2.25 -1.125 -2.25 -1.125 0 0 Z " fill="#BCB8C2" transform="translate(110,280)"/>
<path d="M0 0 C0.66 0.33 1.32 0.66 2 1 C1.21625 1.598125 0.4325 2.19625 -0.375 2.8125 C-3.14574323 4.91085249 -3.14574323 4.91085249 -5 8 C-6.32 7.67 -7.64 7.34 -9 7 C-6.03 4.69 -3.06 2.38 0 0 Z " fill="#D7CDE7" transform="translate(182,199)"/>
<path d="M0 0 C0.99 0.33 1.98 0.66 3 1 C0.69 3.64 -1.62 6.28 -4 9 C-4.33 8.34 -4.66 7.68 -5 7 C-1.125 1.125 -1.125 1.125 0 0 Z " fill="#E3DFE9" transform="translate(122,268)"/>
<path d="M0 0 C-1.90401138 1.90401138 -3.33425686 2.93520439 -6.046875 3.19921875 C-8.03233273 3.1886578 -10.0169914 3.09915043 -12 3 C-12 2.67 -12 2.34 -12 2 C-7.82262526 0.40861915 -4.46839215 -0.21278058 0 0 Z " fill="#96939A" transform="translate(150,303)"/>
<path d="M0 0 C1.2077558 3.62326739 0.54311128 4.64146369 -1 8 C-1.99 8 -2.98 8 -4 8 C-2.87548273 5.0280615 -1.77706209 2.66559313 0 0 Z " fill="#C7B8E0" transform="translate(202,176)"/>
<path d="" fill="#FFFFFF" transform="translate(0,0)"/>
</svg>
