<?xml version="1.0" encoding="UTF-8"?>
<svg version="1.1" xmlns="http://www.w3.org/2000/svg" width="512" height="512">
<path d="M0 0 C0.97984863 0.24137695 1.95969727 0.48275391 2.96923828 0.73144531 C55.19875781 13.95726727 99.97076704 46.71331063 127.72265625 93.02734375 C131.49999159 99.5148892 134.81291689 106.20727417 138 113 C138.52207031 114.08023438 139.04414063 115.16046875 139.58203125 116.2734375 C149.25379197 137.35226166 155.00331544 161.5379994 155.23828125 184.75 C155.25304001 185.96121521 155.25304001 185.96121521 155.26809692 187.19689941 C155.83934126 246.28069427 136.93202722 297.60358919 95.375 340 C78.75380396 356.58754188 59.17674823 369.06406878 38 379 C36.91976563 379.52207031 35.83953125 380.04414063 34.7265625 380.58203125 C-0.91534359 396.93588404 -46.63205788 402.02680458 -85 393 C-85.90379395 392.79600586 -86.80758789 392.59201172 -87.73876953 392.38183594 C-106.96790921 387.96585099 -124.60823325 381.25258351 -142 372 C-143.15886719 371.39671875 -144.31773437 370.7934375 -145.51171875 370.171875 C-160.17939813 362.21085404 -173.03841383 351.5650695 -185 340 C-185.49306641 339.53271484 -185.98613281 339.06542969 -186.49414062 338.58398438 C-214.17013505 312.32909365 -232.10146764 277.87203896 -241 241 C-241.21172852 240.14680176 -241.42345703 239.29360352 -241.64160156 238.41455078 C-248.14027256 211.01405285 -247.80719462 178.29010456 -241 151 C-240.77505859 150.08541016 -240.55011719 149.17082031 -240.31835938 148.22851562 C-233.49045555 121.19904511 -221.49701135 94.81408441 -204 73 C-202.78570312 71.47826172 -202.78570312 71.47826172 -201.546875 69.92578125 C-172.69641233 34.4829659 -134.3716012 10.70844304 -90 0 C-89.14680176 -0.21172852 -88.29360352 -0.42345703 -87.41455078 -0.64160156 C-60.04398884 -7.13317254 -27.25459466 -6.85152263 0 0 Z " fill="#CC6699" transform="translate(301,60)"/>
<path d="M0 0 C1.15177734 -0.01224609 2.30355469 -0.02449219 3.49023438 -0.03710938 C19.86195876 -0.06465574 37.55780888 2.43635832 49.9375 14.1875 C50.63488281 14.84492188 51.33226562 15.50234375 52.05078125 16.1796875 C58.99772952 23.3171371 62.07747745 30.6639449 62.375 40.625 C61.6227902 60.00010099 51.21877078 78.8817336 37.32421875 92.1484375 C29.00119914 99.25910238 20.23244886 105.32340673 9.9375 109.1875 C8.26300781 109.83138672 8.26300781 109.83138672 6.5546875 110.48828125 C-12.77155409 117.44326628 -37.45324033 121.89208433 -56.765625 112.93359375 C-63.0851663 109.46163019 -68.78405616 104.74438768 -72.0625 98.1875 C-72.10272391 95.8545134 -72.10570247 93.52043334 -72.0625 91.1875 C-70 90.3125 -70 90.3125 -67.0625 90.1875 C-65.1463857 91.51541177 -63.52640344 93.0296803 -61.82421875 94.62109375 C-52.93788871 102.52224308 -39.1016833 100.76368007 -28.0625 100.1875 C-23.53424895 99.62445087 -19.39442808 98.60657989 -15.0625 97.1875 C-14.43537109 96.98350586 -13.80824219 96.77951172 -13.16210938 96.56933594 C7.59935746 89.67893608 26.65558124 77.6831094 36.78515625 57.6484375 C40.05695906 50.66119761 41.40734594 44.28759657 38.75 36.875 C34.91571251 31.18967717 29.32007098 28.33180224 22.9375 26.1875 C8.65322106 23.4315168 -7.12561044 24.20553155 -21.0625 28.1875 C-22.17109375 28.4659375 -23.2796875 28.744375 -24.421875 29.03125 C-51.63330375 36.17271094 -77.98467132 50.62541216 -99.0625 69.1875 C-99.77921875 69.80882812 -100.4959375 70.43015625 -101.234375 71.0703125 C-109.69212049 78.90520077 -116.14288776 89.16742017 -117.46875 100.73046875 C-117.74594246 111.50632565 -115.65499251 118.73954319 -108.671875 127.0234375 C-103.02152697 132.92160782 -96.80429667 137.90227412 -90.2734375 142.7734375 C-87.17831376 145.08220229 -84.17485553 147.49032383 -81.1875 149.9375 C-80.29675781 150.66195312 -79.40601563 151.38640625 -78.48828125 152.1328125 C-76.0625 154.1875 -76.0625 154.1875 -74.10546875 156.1171875 C-73.53441406 156.67664063 -72.96335937 157.23609375 -72.375 157.8125 C-71.91738281 158.29976562 -71.45976562 158.78703125 -70.98828125 159.2890625 C-68.40317312 160.49509672 -66.43605626 159.95060987 -63.68725586 159.51123047 C-58.40928247 158.86025914 -53.0755248 158.96234184 -47.76367188 158.94726562 C-45.69880976 158.9375532 -43.63494256 158.90644606 -41.5703125 158.875 C-27.73700268 158.76309298 -16.54828486 161.8927256 -6.25 171.5 C0.53148716 178.74531529 4.53485231 187.87172594 4.24609375 197.859375 C3.22197337 205.58565028 -1.05192705 211.42912975 -7.0625 216.1875 C-10.53596151 218.20586277 -13.02637014 218.53846781 -17.0625 218.1875 C-17.7225 217.5275 -18.3825 216.8675 -19.0625 216.1875 C-19.0625 214.3125 -19.0625 214.3125 -18.0625 212.1875 C-17.134375 211.589375 -16.20625 210.99125 -15.25 210.375 C-11.46049868 207.77436184 -9.67644511 205.45228233 -8.0625 201.1875 C-7.14251699 195.66760197 -8.6363841 191.97389678 -11.45703125 187.328125 C-16.7960132 180.2094824 -25.14280864 176.57718364 -33.625 174.5859375 C-38.72981527 173.994243 -43.8037551 174.08390475 -48.9375 174.125 C-50.54238281 174.13176758 -50.54238281 174.13176758 -52.1796875 174.13867188 C-54.80734986 174.15040251 -57.43489538 174.16681772 -60.0625 174.1875 C-59.74023438 175.33089844 -59.41796875 176.47429687 -59.0859375 177.65234375 C-55.44345319 192.32220754 -58.0881311 208.32504827 -65.1875 221.5 C-73.69188015 234.97282399 -85.18553241 242.36053048 -100.0625 247.1875 C-101.0525 247.5175 -102.0425 247.8475 -103.0625 248.1875 C-122.53177965 249.26356558 -122.53177965 249.26356558 -129.875 243.5625 C-135.71454814 237.87233565 -137.3025573 232.98169157 -137.5 224.8125 C-137.06569423 211.52011128 -132.7281891 202.61453988 -123.1640625 193.28125 C-114.14502493 184.94720262 -103.7694666 178.73198727 -93.22216797 172.53100586 C-91.06965329 171.19194998 -89.0665042 169.73817011 -87.0625 168.1875 C-88.1040625 167.46046875 -89.145625 166.7334375 -90.21875 165.984375 C-118.63766154 146.08144448 -118.63766154 146.08144448 -130.0625 135.1875 C-130.69414062 134.61902344 -131.32578125 134.05054688 -131.9765625 133.46484375 C-140.95114744 125.10306087 -147.93360813 113.30185918 -148.625 100.875 C-147.84777376 83.77602272 -136.52857917 68.96664618 -125.0625 57.1875 C-124.32773438 56.39085937 -123.59296875 55.59421875 -122.8359375 54.7734375 C-103.82771983 34.74805768 -78.18522579 21.80935854 -53.0625 11.1875 C-51.89976562 10.67703125 -50.73703125 10.1665625 -49.5390625 9.640625 C-33.89423642 3.12529897 -16.85883516 0.00921752 0 0 Z " fill="#FEFDFD" transform="translate(303.0625,135.8125)"/>
<path d="M0 0 C0.69572179 13.91443575 0.10849493 24.33767725 -9.3125 35.4375 C-15.66774559 42.0144402 -22.399117 46.5253489 -31.6875 47.3125 C-35 47 -35 47 -36.9375 46 C-38.7409208 42.60532555 -38.69598616 39.66867281 -38 36 C-34.16197345 24.79795502 -14.13531934 0 0 0 Z " fill="#CC689A" transform="translate(227,317)"/>
</svg>
