<?xml version="1.0" encoding="UTF-8"?>
<svg version="1.1" xmlns="http://www.w3.org/2000/svg" width="250" height="263">
<path d="M0 0 C0.05423638 1.91635217 0.09289963 3.83314925 0.125 5.75 C0.14820313 6.81734375 0.17140625 7.8846875 0.1953125 8.984375 C-0.00047297 12.00730273 -0.46727944 13.44903851 -2 16 C-3.65668289 19.03622551 -4.52015941 21.79058586 -5.1875 25.1875 C-5.36667969 26.06792969 -5.54585937 26.94835937 -5.73046875 27.85546875 C-5.81941406 28.56316406 -5.90835938 29.27085938 -6 30 C-4.47020988 31.52979012 -3.14152801 31.20659065 -1 31.25 C6.77800803 31.20464718 14.39302263 29.48256636 22 28 C22 27.34 22 26.68 22 26 C22.59683594 26.03480469 23.19367188 26.06960937 23.80859375 26.10546875 C30.80701254 26.32384437 37.2500644 25.4021632 44.07202148 23.97924805 C49.94788486 22.80652563 53.78733335 23.10407408 59 26 C58.14142457 31.0083567 56.71206508 35.75108066 53.60400391 39.83374023 C51.97353986 42.03573528 50.65565363 44.260386 49.3359375 46.66015625 C48.85382813 47.53607422 48.37171875 48.41199219 47.875 49.31445312 C47.1325 50.67473633 47.1325 50.67473633 46.375 52.0625 C45.87226563 52.97322266 45.36953125 53.88394531 44.8515625 54.82226562 C42.1103428 59.76952941 42.1103428 59.76952941 40 65 C39.33333333 66.33333333 38.66666667 67.66666667 38 69 C37.67 69.99 37.34 70.98 37 72 C36.34 72 35.68 72 35 72 C32.85023556 75.93536601 30.70586522 79.87364558 28.5625 83.8125 C27.95083984 84.93205078 27.33917969 86.05160156 26.70898438 87.20507812 C26.12568359 88.27822266 25.54238281 89.35136719 24.94140625 90.45703125 C24.40201416 91.44678955 23.86262207 92.43654785 23.30688477 93.45629883 C21.90987041 96.01662204 21.90987041 96.01662204 21 99 C20.00902193 100.34005233 19.00752024 101.67234013 18 103 C15.53208687 107.0926039 13.21487191 111.27063719 10.875 115.4375 C10.22917969 116.56994141 9.58335937 117.70238281 8.91796875 118.86914062 C8.30308594 119.96291016 7.68820313 121.05667969 7.0546875 122.18359375 C6.49249512 123.17931396 5.93030273 124.17503418 5.35107422 125.20092773 C4.06955846 127.85589307 3.42005269 130.09646041 3 133 C2.34 133 1.68 133 1 133 C0.525625 134.11375 0.05125 135.2275 -0.4375 136.375 C-2.68756797 141.5951577 -2.68756797 141.5951577 -4.34130859 143.73803711 C-6.32414299 146.44203486 -7.91017834 149.26023722 -9.5390625 152.19140625 C-10.02854874 153.07118385 -10.02854874 153.07118385 -10.52792358 153.96873474 C-11.21342211 155.20255613 -11.89744861 156.4371964 -12.58007812 157.67260742 C-13.62476048 159.56206679 -14.67531642 161.44817061 -15.7265625 163.33398438 C-16.39358191 164.5362627 -17.0602604 165.73873024 -17.7265625 166.94140625 C-18.33064941 168.03138916 -18.93473633 169.12137207 -19.55712891 170.24438477 C-21.08054207 172.97509694 -21.08054207 172.97509694 -22 176 C-22.9944096 177.33750788 -23.99539175 178.67013533 -25 180 C-26.16077074 181.96552565 -27.29064739 183.94944655 -28.3984375 185.9453125 C-28.71527496 186.51522919 -29.03211243 187.08514587 -29.35855103 187.67233276 C-30.02725066 188.87678947 -30.69449002 190.08205792 -31.36035156 191.28808594 C-32.36143585 193.10044353 -33.36781944 194.90977472 -34.375 196.71875 C-38.08355905 203.40030321 -41.65259159 210.12993547 -45 217 C-46.30992243 219.61984486 -47.25045672 220.03394425 -50 221 C-53.18351958 220.80509064 -55.24920177 220.56957107 -57.8125 218.625 C-59 217 -59 217 -60 214 C-60.495 213.34 -60.99 212.68 -61.5 212 C-63 210 -63 210 -64 207 C-65.09999426 204.91947031 -66.23107333 202.85530571 -67.37890625 200.80078125 C-67.71043198 200.20573288 -68.0419577 199.61068451 -68.38352966 198.99760437 C-69.44079889 197.10122566 -70.50159775 195.20684821 -71.5625 193.3125 C-72.28083266 192.02552104 -72.99893436 190.73841314 -73.71679688 189.45117188 C-75.47518918 186.29928184 -77.23675199 183.14917675 -79 180 C-79.66 180 -80.32 180 -81 180 C-81.12375 179.21625 -81.2475 178.4325 -81.375 177.625 C-81.79117993 174.85942178 -81.79117993 174.85942178 -84 173 C-84.33 172.01 -84.66 171.02 -85 170 C-87.0269643 166.97392122 -87.0269643 166.97392122 -90 165 C-90.1436499 164.10748535 -90.2872998 163.2149707 -90.43530273 162.29541016 C-91.05491463 158.67953408 -92.18981238 156.42987034 -94.03515625 153.2734375 C-94.67243652 152.17177246 -95.3097168 151.07010742 -95.96630859 149.93505859 C-96.66486718 148.74827121 -97.36360187 147.56158746 -98.0625 146.375 C-98.77778462 145.1458853 -99.49212561 143.91622102 -100.20556641 142.68603516 C-101.31909615 140.76684482 -102.43357438 138.84825115 -103.55169678 136.93173218 C-106.25018929 132.30577584 -108.91065426 127.65948627 -111.55078125 123 C-111.91601395 122.3562442 -112.28124664 121.7124884 -112.657547 121.04922485 C-114.08085768 118.54036862 -115.50404479 116.03145408 -116.92312622 113.52020264 C-117.90144656 111.79039515 -118.88421333 110.06310467 -119.8671875 108.3359375 C-120.42519043 107.35157715 -120.98319336 106.3672168 -121.55810547 105.35302734 C-122.92107228 102.92328897 -122.92107228 102.92328897 -125 101 C-125.33 100.01 -125.66 99.02 -126 98 C-128.0269643 94.97392122 -128.0269643 94.97392122 -131 93 C-131.1455835 92.10522949 -131.29116699 91.21045898 -131.44116211 90.28857422 C-132.04565647 86.7313269 -133.14175591 84.49288785 -134.94140625 81.3828125 C-135.81635742 79.85527344 -135.81635742 79.85527344 -136.70898438 78.296875 C-137.32064453 77.25015625 -137.93230469 76.2034375 -138.5625 75.125 C-139.17802734 74.05507812 -139.79355469 72.98515625 -140.42773438 71.8828125 C-141.94372995 69.25038607 -143.46798931 66.62312757 -145 64 C-145.66 64 -146.32 64 -147 64 C-147.12375 63.21625 -147.2475 62.4325 -147.375 61.625 C-147.79117993 58.85942178 -147.79117993 58.85942178 -150 57 C-150.66 56.67 -151.32 56.34 -152 56 C-152.12246094 55.14148438 -152.24492187 54.28296875 -152.37109375 53.3984375 C-153.14945702 49.19237512 -154.87276007 46.24809301 -157.0625 42.625 C-157.62807617 41.66400391 -157.62807617 41.66400391 -158.20507812 40.68359375 C-159.12839617 39.11745934 -160.06305393 37.55801966 -161 36 C-161.66 36 -162.32 36 -163 36 C-163.66666667 34 -164.33333333 32 -165 30 C-163.26147562 26.52295123 -162.12846176 24.44037532 -158.4375 23 C-154.44940216 23 -150.86581265 23.72191815 -146.96875 24.51953125 C-142.31075174 25.27339149 -137.70359305 25.16376146 -133 25 C-133 25.66 -133 26.32 -133 27 C-121.90147112 29.38195987 -121.90147112 29.38195987 -110.625 29.9375 C-102.30898771 29.61417137 -94.04571393 32.13239387 -86 34 C-86 31.36 -86 28.72 -86 26 C-85.67 26 -85.34 26 -85 26 C-85.01160156 26.63808594 -85.02320312 27.27617188 -85.03515625 27.93359375 C-85.04417969 28.75988281 -85.05320312 29.58617188 -85.0625 30.4375 C-85.07410156 31.26121094 -85.08570312 32.08492187 -85.09765625 32.93359375 C-85.23267348 34.99163938 -85.23267348 34.99163938 -84 36 C-84.10828125 34.96552734 -84.10828125 34.96552734 -84.21875 33.91015625 C-84.81193942 27.90411341 -85.09892295 22.0343 -85 16 C-83.68 15.34 -82.36 14.68 -81 14 C-81 13.34 -81 12.68 -81 12 C-78.03 12 -75.06 12 -72 12 C-72 11.34 -72 10.68 -72 10 C-70.43784452 9.83013455 -68.8752548 9.66426036 -67.3125 9.5 C-66.44238281 9.4071875 -65.57226562 9.314375 -64.67578125 9.21875 C-62.10276661 9.00840136 -59.58015636 8.96280856 -57 9 C-57 8.34 -57 7.68 -57 7 C-53.7 7 -50.4 7 -47 7 C-47 6.34 -47 5.68 -47 5 C-45.98292969 4.90912109 -45.98292969 4.90912109 -44.9453125 4.81640625 C-44.01460938 4.73261719 -43.08390625 4.64882813 -42.125 4.5625 C-41.22007812 4.48128906 -40.31515625 4.40007813 -39.3828125 4.31640625 C-38.26648438 4.21199219 -37.15015625 4.10757812 -36 4 C-35.25621094 3.93941406 -34.51242188 3.87882812 -33.74609375 3.81640625 C-26.73334713 3.19990105 -20.00609832 1.83997124 -13.1484375 0.28515625 C-8.43346706 -0.72312204 -4.77681082 -1.23322894 0 0 Z M-41 5 C-37 6 -37 6 -37 6 Z M-2 10 C-1 12 -1 12 -1 12 Z M-110 31 C-106 32 -106 32 -106 32 Z M-8 31 C-8.33 31.99 -8.66 32.98 -9 34 C-8.01 33.67 -7.02 33.34 -6 33 C-6.66 32.34 -7.32 31.68 -8 31 Z M-105 32 C-105 32.33 -105 32.66 -105 33 C-103.35 33 -101.7 33 -100 33 C-100 32.67 -100 32.34 -100 32 C-101.65 32 -103.3 32 -105 32 Z M-5 32 C-5 32.33 -5 32.66 -5 33 C-3.35 33 -1.7 33 0 33 C0 32.67 0 32.34 0 32 C-1.65 32 -3.3 32 -5 32 Z M-99 33 C-99 33.33 -99 33.66 -99 34 C-97.35 34 -95.7 34 -94 34 C-94 33.67 -94 33.34 -94 33 C-95.65 33 -97.3 33 -99 33 Z M-93 34 C-89 35 -89 35 -89 35 Z " fill="#8A70FB" transform="translate(178,21)"/>
<path d="M0 0 C0.05423638 1.91635217 0.09289963 3.83314925 0.125 5.75 C0.14820313 6.81734375 0.17140625 7.8846875 0.1953125 8.984375 C-0.00047297 12.00730273 -0.46727944 13.44903851 -2 16 C-3.66451662 19.0342111 -4.45704819 21.71615365 -5.0625 25.125 C-5.90277778 29.80555556 -5.90277778 29.80555556 -7 32 C-10.48350525 39.28083979 -14 46.82422001 -14 55 C-9.84124608 55.18081539 -6.25487813 54.91242922 -2.1875 54 C2.92275238 52.88532129 7.78972076 52.80045739 13 53 C14.27526351 56.82579054 13.52080677 57.59309373 11.76217651 61.13748169 C10.97993965 62.73177505 10.97993965 62.73177505 10.18190002 64.35827637 C9.59706345 65.52411255 9.01222687 66.68994873 8.40966797 67.89111328 C7.79643598 69.13089632 7.18403401 70.3710902 6.57240295 71.61166382 C4.90616356 74.98410556 3.22700718 78.34995644 1.54451895 81.71431589 C0.14209019 84.52095082 -1.25467399 87.33038869 -2.651636 90.1397475 C-5.94702838 96.76607993 -9.25351952 103.38679368 -12.56640625 110.00439453 C-15.98656315 116.83686372 -19.38585502 123.67942939 -22.77537835 130.52713978 C-25.68398254 136.40113816 -28.60639822 142.26812175 -31.53981102 148.12977016 C-33.29266434 151.63289513 -35.03986334 155.13857006 -36.77344131 158.65127945 C-38.40405317 161.95403452 -40.05166975 165.24772351 -41.71287727 168.53519058 C-42.6102162 170.32171633 -43.48972379 172.11716335 -44.36872864 173.91278076 C-44.90713882 174.97000336 -45.44554901 176.02722595 -46.00027466 177.1164856 C-46.46154818 178.04083467 -46.92282169 178.96518375 -47.3980732 179.91754341 C-49 182 -49 182 -51.62498283 182.86771965 C-52.4087385 182.91137217 -53.19249416 182.95502468 -54 183 C-54.33 182.67 -54.66 182.34 -55 182 C-54.43225485 176.8759359 -53.4223035 171.84423141 -52.40625 166.79296875 C-52.09488764 165.22073568 -51.78369505 163.64846899 -51.47265625 162.07617188 C-50.9874931 159.63395557 -50.50091204 157.19204698 -50.01123047 154.75073242 C-48.29499837 146.17909693 -46.63586148 137.734264 -46 129 C-49.37814093 129.39742834 -52.40799465 129.75453437 -55.5625 131.0625 C-58.51350095 132.19750037 -60.86399693 132.21381839 -64 132 C-64.33 131.67 -64.66 131.34 -65 131 C-64.826392 124.12983427 -63.37814837 117.38167881 -61.9375 110.6875 C-60.27947957 103.41735648 -60.27947957 103.41735648 -60 96 C-65.90279988 95.58817675 -71.01439157 96.84843274 -76.71875 98.34375 C-80.2233064 99.04466128 -83.43533123 99.10802027 -87 99 C-87.22243993 90.81915352 -87.03432533 82.80006117 -86.28417969 74.65136719 C-84.48759954 55.12359057 -84.81445733 35.59045123 -85 16 C-83.68 15.34 -82.36 14.68 -81 14 C-81 13.34 -81 12.68 -81 12 C-78.03 12 -75.06 12 -72 12 C-72 11.34 -72 10.68 -72 10 C-70.43784452 9.83013455 -68.8752548 9.66426036 -67.3125 9.5 C-66.44238281 9.4071875 -65.57226562 9.314375 -64.67578125 9.21875 C-62.10276661 9.00840136 -59.58015636 8.96280856 -57 9 C-57 8.34 -57 7.68 -57 7 C-53.7 7 -50.4 7 -47 7 C-47 6.34 -47 5.68 -47 5 C-46.32195312 4.93941406 -45.64390625 4.87882812 -44.9453125 4.81640625 C-44.01460937 4.73261719 -43.08390625 4.64882813 -42.125 4.5625 C-41.22007812 4.48128906 -40.31515625 4.40007813 -39.3828125 4.31640625 C-38.26648438 4.21199219 -37.15015625 4.10757812 -36 4 C-34.88431641 3.90912109 -34.88431641 3.90912109 -33.74609375 3.81640625 C-26.73334713 3.19990105 -20.00609832 1.83997124 -13.1484375 0.28515625 C-8.43346706 -0.72312204 -4.77681082 -1.23322894 0 0 Z M-41 5 C-37 6 -37 6 -37 6 Z M-2 10 C-1 12 -1 12 -1 12 Z " fill="#FEC720" transform="translate(178,21)"/>
<path d="M0 0 C0 3.96 0 7.92 0 12 C-0.495 11.01 -0.495 11.01 -1 10 C-1.66 10 -2.32 10 -3 10 C-3.433125 9.484375 -3.86625 8.96875 -4.3125 8.4375 C-5.94964884 6.70141479 -5.94964884 6.70141479 -8.5 7.1875 C-11.20696281 7.94271259 -11.20696281 7.94271259 -14 10 C-17.16499891 10.75684757 -19.38219222 11.15068482 -22.5625 10.375 C-25.1370872 9.70744098 -25.1370872 9.70744098 -27.5 11.5625 C-28.325 12.036875 -29.15 12.51125 -30 13 C-30.78375 12.67 -31.5675 12.34 -32.375 12 C-35.13292602 10.59937664 -35.13292602 10.59937664 -38.3125 12.4375 C-38.90546875 12.73398437 -39.4984375 13.03046875 -40.109375 13.3359375 C-42.36128651 14.12689815 -43.72538107 13.96391356 -46.0625 13.5625 C-50.21846441 12.9687908 -52.17245282 13.48678367 -56 15 C-56.99 15 -57.98 15 -59 15 C-59.99 15.66 -60.98 16.32 -62 17 C-63.91043912 17.26350884 -65.82189822 17.52220109 -67.73828125 17.73828125 C-73.48961084 18.34824279 -73.48961084 18.34824279 -79 20 C-81.46816138 23.47085195 -82.38441961 26.81405335 -83 31 C-83.33 31 -83.66 31 -84 31 C-85.03590199 25.94997778 -85.10251672 21.12583611 -85 16 C-83.68 15.34 -82.36 14.68 -81 14 C-81 13.34 -81 12.68 -81 12 C-78.03 12 -75.06 12 -72 12 C-72 11.34 -72 10.68 -72 10 C-70.43784452 9.83013455 -68.8752548 9.66426036 -67.3125 9.5 C-66.44238281 9.4071875 -65.57226562 9.314375 -64.67578125 9.21875 C-62.10276661 9.00840136 -59.58015636 8.96280856 -57 9 C-57 8.34 -57 7.68 -57 7 C-53.7 7 -50.4 7 -47 7 C-47 6.34 -47 5.68 -47 5 C-46.32195312 4.93941406 -45.64390625 4.87882812 -44.9453125 4.81640625 C-44.01460937 4.73261719 -43.08390625 4.64882813 -42.125 4.5625 C-41.22007812 4.48128906 -40.31515625 4.40007813 -39.3828125 4.31640625 C-38.26648438 4.21199219 -37.15015625 4.10757812 -36 4 C-34.88431641 3.90912109 -34.88431641 3.90912109 -33.74609375 3.81640625 C-26.73334713 3.19990105 -20.00609832 1.83997124 -13.1484375 0.28515625 C-8.43346706 -0.72312204 -4.77681082 -1.23322894 0 0 Z M-41 5 C-37 6 -37 6 -37 6 Z " fill="#FDDE4E" transform="translate(178,21)"/>
<path d="M0 0 C2 2 2 2 2.046875 4.42578125 C1.94890625 5.37839844 1.8509375 6.33101562 1.75 7.3125 C1.61851563 8.72982422 1.61851563 8.72982422 1.484375 10.17578125 C0.99727323 13.01589884 0.1671978 15.37380495 -1 18 C0.17755859 17.65775391 0.17755859 17.65775391 1.37890625 17.30859375 C7.33724365 15.67827566 11.95634968 14.48908742 18 16 C20.96247031 21.05140005 19.47889895 25.37206725 18.26171875 30.75390625 C17.96138481 32.160709 17.96138481 32.160709 17.65498352 33.59593201 C17.01280624 36.58792936 16.35039338 39.57503165 15.6875 42.5625 C15.25193112 44.57718815 14.81767135 46.5921598 14.38476562 48.60742188 C11.33663626 62.73642306 11.33663626 62.73642306 10 68 C10.66 68 11.32 68 12 68 C12.26280762 67.14841309 12.52561523 66.29682617 12.79638672 65.41943359 C14.04457907 61.87335202 15.56468609 58.64453121 17.2578125 55.2890625 C17.56572723 54.67606293 17.87364197 54.06306335 18.19088745 53.43148804 C19.16515063 51.49406342 20.14496917 49.5595124 21.125 47.625 C21.7907353 46.30357212 22.45610353 44.98195924 23.12109375 43.66015625 C24.74315823 40.43795475 26.37021374 37.21830407 28 34 C28.99 34.33 29.98 34.66 31 35 C28.55112125 40.12010642 26.07889103 45.22797118 23.58422852 50.32592773 C22.7388241 52.06201739 21.89990759 53.80128192 21.06762695 55.54370117 C19.87058157 58.04687351 18.65071704 60.53772489 17.42578125 63.02734375 C16.87389885 64.2007859 16.87389885 64.2007859 16.31086731 65.39793396 C13.63680418 70.75110964 13.63680418 70.75110964 10.28588867 72.06079102 C8 72 8 72 7 71 C7.56774515 65.8759359 8.5776965 60.84423141 9.59375 55.79296875 C9.90511236 54.22073568 10.21630495 52.64846899 10.52734375 51.07617188 C11.0125069 48.63395557 11.49908796 46.19204698 11.98876953 43.75073242 C13.70500163 35.17909693 15.36413852 26.734264 16 18 C12.62185907 18.39742834 9.59200535 18.75453437 6.4375 20.0625 C3.48649905 21.19750037 1.13600307 21.21381839 -2 21 C-2.33 20.67 -2.66 20.34 -3 20 C-2.8225071 13.24161665 -1.4426326 6.58288662 0 0 Z " fill="#F9AC1F" transform="translate(116,132)"/>
<path d="M0 0 C3.3 0.33 6.6 0.66 10 1 C10 1.66 10 2.32 10 3 C5.9195446 3.86832448 1.8352803 4.71719228 -2.25 5.5625 C-3.40886719 5.80935547 -4.56773438 6.05621094 -5.76171875 6.31054688 C-6.87675781 6.53935547 -7.99179688 6.76816406 -9.140625 7.00390625 C-10.16704102 7.21861572 -11.19345703 7.4333252 -12.25097656 7.65454102 C-14.8930768 7.98656338 -16.50892539 7.85728404 -19 7 C-19 6.01 -19 5.02 -19 4 C-16.03 4 -13.06 4 -10 4 C-10 3.34 -10 2.68 -10 2 C-6.7 2 -3.4 2 0 2 C0 1.34 0 0.68 0 0 Z " fill="#FEE45B" transform="translate(131,26)"/>
<path d="M0 0 C0.99 0 1.98 0 3 0 C3.11185009 12.71362727 2.93078947 25.31799345 2 38 C1.67 38 1.34 38 1 38 C-0.12924521 27.39316104 -0.12115261 17.31579742 0.78125 6.6875 C1.02704235 4.1171634 1.02704235 4.1171634 1 2 C0.34 1.67 -0.32 1.34 -1 1 C-0.67 0.67 -0.34 0.34 0 0 Z " fill="#749CE8" transform="translate(91,57)"/>
<path d="M0 0 C0.99 0.33 1.98 0.66 3 1 C2.67 1.99 2.34 2.98 2 4 C0.906875 4.04125 -0.18625 4.0825 -1.3125 4.125 C-5.18391212 4.60618923 -5.18391212 4.60618923 -6.875 7.75 C-7.83424576 10.52115441 -8.57403581 13.10344349 -9 16 C-9.33 16 -9.66 16 -10 16 C-11.03590199 10.94997778 -11.10251672 6.12583611 -11 1 C-10.28972656 1.01160156 -9.57945313 1.02320313 -8.84765625 1.03515625 C-7.92855469 1.04417969 -7.00945312 1.05320313 -6.0625 1.0625 C-4.68771484 1.07990234 -4.68771484 1.07990234 -3.28515625 1.09765625 C-1.03406673 1.25949049 -1.03406673 1.25949049 0 0 Z " fill="#FEDF3B" transform="translate(104,36)"/>
<path d="M0 0 C-2.2586256 2.2586256 -3.01053473 2.38783215 -6.0625 2.9375 C-6.93777344 3.09863281 -7.81304687 3.25976562 -8.71484375 3.42578125 C-9.79894531 3.61527344 -10.88304687 3.80476563 -12 4 C-13.48052977 4.26398093 -14.96099396 4.52832979 -16.44140625 4.79296875 C-20.62597979 5.53810691 -24.81253053 6.27132202 -29 7 C-28.67 6.01 -28.34 5.02 -28 4 C-23.71043104 3.13505996 -19.41807029 2.28487565 -15.125 1.4375 C-13.90167969 1.19064453 -12.67835938 0.94378906 -11.41796875 0.68945312 C-9.66806641 0.34624023 -9.66806641 0.34624023 -7.8828125 -0.00390625 C-6.80402832 -0.21861572 -5.72524414 -0.4333252 -4.61376953 -0.65454102 C-2 -1 -2 -1 0 0 Z " fill="#FDE666" transform="translate(174,21)"/>
<path d="M0 0 C1.83691257 3.78187881 2.15837626 5.94568308 1 10 C0.34 10 -0.32 10 -1 10 C-1.33 7.36 -1.66 4.72 -2 2 C-2.99 2.165 -3.98 2.33 -5 2.5 C-9.02732942 3.08474517 -12.93474623 3.07132024 -17 3 C-11.03062058 -0.21428123 -6.76090464 -1.35218093 0 0 Z " fill="#FCB411" transform="translate(134,148)"/>
<path d="M0 0 C0.66 0 1.32 0 2 0 C1.03644647 9.41002278 1.03644647 9.41002278 0 14 C-0.66 14 -1.32 14 -2 14 C-1.85866501 12.22880197 -1.71176792 10.45804713 -1.5625 8.6875 C-1.48128906 7.70136719 -1.40007812 6.71523437 -1.31640625 5.69921875 C-1 3 -1 3 0 0 Z " fill="#FCA710" transform="translate(126,187)"/>
<path d="M0 0 C0.79921875 0.00902344 1.5984375 0.01804687 2.421875 0.02734375 C3.02515625 0.03894531 3.6284375 0.05054687 4.25 0.0625 C4.25 0.7225 4.25 1.3825 4.25 2.0625 C2.45991533 2.28401549 0.66781838 2.48932213 -1.125 2.6875 C-2.12273437 2.80351563 -3.12046875 2.91953125 -4.1484375 3.0390625 C-5.00695312 3.04679687 -5.86546875 3.05453125 -6.75 3.0625 C-7.41 2.4025 -8.07 1.7425 -8.75 1.0625 C-5.75519083 0.1901588 -3.11424089 -0.04579766 0 0 Z " fill="#F4C532" transform="translate(179.75,74.9375)"/>
<path d="M0 0 C2.31 0 4.62 0 7 0 C5.84414715 3.91211733 4.64465038 6.8745041 2 10 C1 7 1 7 2.4375 3.8125 C2.953125 2.884375 3.46875 1.95625 4 1 C2.68 0.67 1.36 0.34 0 0 Z " fill="#F8C730" transform="translate(185,75)"/>
<path d="M0 0 C1.98983228 3.97966457 2.22400716 4.67675132 1.625 8.75 C1.51414063 9.54921875 1.40328125 10.3484375 1.2890625 11.171875 C1.19367188 11.77515625 1.09828125 12.3784375 1 13 C0.01 13 -0.98 13 -2 13 C-1.34 8.71 -0.68 4.42 0 0 Z " fill="#F7A427" transform="translate(128,174)"/>
<path d="M0 0 C0.66 0 1.32 0 2 0 C1.34 2.64 0.68 5.28 0 8 C-1.32 8.33 -2.64 8.66 -4 9 C-3.35494404 5.51669784 -2.01782732 2.90567134 0 0 Z " fill="#42C0FE" transform="translate(17,45)"/>
<path d="M0 0 C1.06546953 3.1964086 1.07427838 5.65747276 1 9 C0.67 8.34 0.34 7.68 0 7 C-0.66 7 -1.32 7 -2 7 C-3.625 5 -3.625 5 -5 3 C-3.35 2.01 -1.7 1.02 0 0 Z " fill="#FDE13E" transform="translate(177,24)"/>
<path d="M0 0 C0.33 0.99 0.66 1.98 1 3 C2.32 2.67 3.64 2.34 5 2 C5.33 2.99 5.66 3.98 6 5 C4.34385343 5.38218767 2.67542976 5.71395102 1 6 C0 5 0 5 -0.0625 2.4375 C-0.041875 1.633125 -0.02125 0.82875 0 0 Z " fill="#F7A225" transform="translate(123,198)"/>
<path d="M0 0 C0.66 0.66 1.32 1.32 2 2 C1.9765625 4.1640625 1.9765625 4.1640625 1.625 6.625 C1.51414063 7.44226563 1.40328125 8.25953125 1.2890625 9.1015625 C1.19367188 9.72804687 1.09828125 10.35453125 1 11 C-1.30903272 7.01647791 -0.86516528 4.49885947 0 0 Z " fill="#F8AC26" transform="translate(132,156)"/>
<path d="M0 0 C0.99 0.33 1.98 0.66 3 1 C1.68 3.64 0.36 6.28 -1 9 C-2.25541557 5.23375329 -1.37061958 3.62811066 0 0 Z " fill="#F8B025" transform="translate(153,148)"/>
<path d="M0 0 C3.63 0.33 7.26 0.66 11 1 C11 1.33 11 1.66 11 2 C7.37 1.67 3.74 1.34 0 1 C0 0.67 0 0.34 0 0 Z " fill="#3FB1FF" transform="translate(23,43)"/>
<path d="M0 0 C0 0.33 0 0.66 0 1 C-3.3 1.33 -6.6 1.66 -10 2 C-6.00889681 0.0044484 -4.30013434 -0.19546065 0 0 Z " fill="#FFE057" transform="translate(167,20)"/>
<path d="M0 0 C1.98 0 3.96 0 6 0 C6 0.33 6 0.66 6 1 C4.02 1 2.04 1 0 1 C0 0.67 0 0.34 0 0 Z " fill="#7171F4" transform="translate(189,49)"/>
<path d="M0 0 C1.98 0 3.96 0 6 0 C6 0.33 6 0.66 6 1 C4.02 1 2.04 1 0 1 C0 0.67 0 0.34 0 0 Z " fill="#47C2FF" transform="translate(56,49)"/>
<path d="M0 0 C1.98 0 3.96 0 6 0 C6 0.33 6 0.66 6 1 C4.02 1 2.04 1 0 1 C0 0.67 0 0.34 0 0 Z " fill="#54C8FF" transform="translate(45,47)"/>
<path d="M0 0 C1.98 0 3.96 0 6 0 C6 0.33 6 0.66 6 1 C4.02 1 2.04 1 0 1 C0 0.67 0 0.34 0 0 Z " fill="#8D71FF" transform="translate(216,44)"/>
<path d="M0 0 C1.98 0 3.96 0 6 0 C6 0.33 6 0.66 6 1 C4.02 1 2.04 1 0 1 C0 0.67 0 0.34 0 0 Z " fill="#B89BFF" transform="translate(222,43)"/>
<path d="M0 0 C0.33 0 0.66 0 1 0 C1 1.98 1 3.96 1 6 C0.67 6 0.34 6 0 6 C0 4.02 0 2.04 0 0 Z " fill="#FFE65F" transform="translate(179,21)"/>
<path d="M0 0 C1.98 0 3.96 0 6 0 C6 0.33 6 0.66 6 1 C4.02 1 2.04 1 0 1 C0 0.67 0 0.34 0 0 Z " fill="#FFE963" transform="translate(146,23)"/>
<path d="M0 0 C1.65 0 3.3 0 5 0 C5 0.33 5 0.66 5 1 C3.35 1 1.7 1 0 1 C0 0.67 0 0.34 0 0 Z " fill="#A6A6FF" transform="translate(184,50)"/>
<path d="M0 0 C1.65 0 3.3 0 5 0 C5 0.33 5 0.66 5 1 C3.35 1 1.7 1 0 1 C0 0.67 0 0.34 0 0 Z " fill="#4BD7FF" transform="translate(62,50)"/>
<path d="M0 0 C1.65 0 3.3 0 5 0 C5 0.33 5 0.66 5 1 C3.35 1 1.7 1 0 1 C0 0.67 0 0.34 0 0 Z " fill="#7777FF" transform="translate(195,48)"/>
<path d="M0 0 C1.65 0 3.3 0 5 0 C5 0.33 5 0.66 5 1 C3.35 1 1.7 1 0 1 C0 0.67 0 0.34 0 0 Z " fill="#61C4FF" transform="translate(51,48)"/>
<path d="M0 0 C1.65 0 3.3 0 5 0 C5 0.33 5 0.66 5 1 C3.35 1 1.7 1 0 1 C0 0.67 0 0.34 0 0 Z " fill="#9966FF" transform="translate(206,46)"/>
<path d="M0 0 C1.65 0 3.3 0 5 0 C5 0.33 5 0.66 5 1 C3.35 1 1.7 1 0 1 C0 0.67 0 0.34 0 0 Z " fill="#7F66FF" transform="translate(211,45)"/>
<path d="M0 0 C1.65 0 3.3 0 5 0 C5 0.33 5 0.66 5 1 C3.35 1 1.7 1 0 1 C0 0.67 0 0.34 0 0 Z " fill="#2AD4FF" transform="translate(34,45)"/>
<path d="M0 0 C1.65 0 3.3 0 5 0 C5 0.33 5 0.66 5 1 C3.35 1 1.7 1 0 1 C0 0.67 0 0.34 0 0 Z " fill="#FFF44B" transform="translate(101,32)"/>
<path d="M0 0 C1.65 0 3.3 0 5 0 C5 0.33 5 0.66 5 1 C3.35 1 1.7 1 0 1 C0 0.67 0 0.34 0 0 Z " fill="#FFFF44" transform="translate(116,29)"/>
<path d="M0 0 C1.65 0 3.3 0 5 0 C5 0.33 5 0.66 5 1 C3.35 1 1.7 1 0 1 C0 0.67 0 0.34 0 0 Z " fill="#FFC748" transform="translate(152,22)"/>
<path d="M0 0 C1.65 0 3.3 0 5 0 C5 0.33 5 0.66 5 1 C3.35 1 1.7 1 0 1 C0 0.67 0 0.34 0 0 Z " fill="#FFE13B" transform="translate(167,19)"/>
<path d="M0 0 C4 1 4 1 4 1 Z " fill="#D400FF" transform="translate(124,243)"/>
<path d="M0 0 C0.99 0.495 0.99 0.495 2 1 C1.67 1.66 1.34 2.32 1 3 C0.67 2.01 0.34 1.02 0 0 Z " fill="#7A25FF" transform="translate(109,221)"/>
<path d="M0 0 C0 3 0 3 0 3 Z " fill="#9A25FF" transform="translate(152,203)"/>
<path d="M0 0 C0.99 0.495 0.99 0.495 2 1 C1.67 1.66 1.34 2.32 1 3 C0.67 2.01 0.34 1.02 0 0 Z " fill="#358AFF" transform="translate(43,105)"/>
<path d="M0 0 C4 1 4 1 4 1 Z " fill="#9B9BFF" transform="translate(179,51)"/>
<path d="M0 0 C1 4 1 4 1 4 Z " fill="#FFD925" transform="translate(173,44)"/>
<path d="M0 0 C1 4 1 4 1 4 Z " fill="#FFEF20" transform="translate(175,37)"/>
<path d="M0 0 C4 1 4 1 4 1 Z " fill="#FFFF83" transform="translate(127,27)"/>
<path d="M0 0 C4 1 4 1 4 1 Z " fill="#FFEF45" transform="translate(142,24)"/>
<path d="" fill="#FFD111" transform="translate(0,0)"/>
<path d="" fill="#3BEEFF" transform="translate(0,0)"/>
<path d="M0 0 C3 1 3 1 3 1 Z " fill="#7F2AFF" transform="translate(228,42)"/>
<path d="" fill="#FFE92A" transform="translate(0,0)"/>
<path d="M0 0 C3 1 3 1 3 1 Z " fill="#00D4FF" transform="translate(19,42)"/>
<path d="" fill="#FFC32D" transform="translate(0,0)"/>
<path d="M0 0 C3 1 3 1 3 1 Z " fill="#FFE28D" transform="translate(173,18)"/>
<path d="M0 0 C2 1 2 1 2 1 Z " fill="#DF20FF" transform="translate(128,242)"/>
<path d="M0 0 C2 1 2 1 2 1 Z " fill="#DF20FF" transform="translate(122,242)"/>
<path d="" fill="#DF20DF" transform="translate(0,0)"/>
<path d="" fill="#E519FF" transform="translate(0,0)"/>
<path d="" fill="#9F20FF" transform="translate(0,0)"/>
<path d="" fill="#DF20FF" transform="translate(0,0)"/>
<path d="" fill="#D42AFF" transform="translate(0,0)"/>
<path d="" fill="#CC19FF" transform="translate(0,0)"/>
<path d="" fill="#5F20FF" transform="translate(0,0)"/>
<path d="" fill="#CC19FF" transform="translate(0,0)"/>
<path d="" fill="#DF20FF" transform="translate(0,0)"/>
<path d="" fill="#D42AFF" transform="translate(0,0)"/>
<path d="" fill="#9F20FF" transform="translate(0,0)"/>
<path d="" fill="#D42AFF" transform="translate(0,0)"/>
<path d="" fill="#DF20FF" transform="translate(0,0)"/>
<path d="" fill="#DF20FF" transform="translate(0,0)"/>
<path d="" fill="#DF20FF" transform="translate(0,0)"/>
<path d="" fill="#952AFF" transform="translate(0,0)"/>
<path d="" fill="#952AFF" transform="translate(0,0)"/>
<path d="" fill="#952AFF" transform="translate(0,0)"/>
<path d="" fill="#D42AFF" transform="translate(0,0)"/>
<path d="" fill="#5F20FF" transform="translate(0,0)"/>
<path d="" fill="#5F20FF" transform="translate(0,0)"/>
<path d="" fill="#9F20FF" transform="translate(0,0)"/>
<path d="" fill="#9F20FF" transform="translate(0,0)"/>
<path d="" fill="#956AFF" transform="translate(0,0)"/>
<path d="" fill="#AA55FF" transform="translate(0,0)"/>
<path d="" fill="#DF20FF" transform="translate(0,0)"/>
<path d="" fill="#9F60FF" transform="translate(0,0)"/>
<path d="" fill="#5F20FF" transform="translate(0,0)"/>
<path d="" fill="#D46AFF" transform="translate(0,0)"/>
<path d="" fill="#8C19FF" transform="translate(0,0)"/>
<path d="" fill="#AA55FF" transform="translate(0,0)"/>
<path d="" fill="#CC33FF" transform="translate(0,0)"/>
<path d="" fill="#AA55FF" transform="translate(0,0)"/>
<path d="" fill="#DF20FF" transform="translate(0,0)"/>
<path d="" fill="#9F20FF" transform="translate(0,0)"/>
<path d="" fill="#8C73FF" transform="translate(0,0)"/>
<path d="" fill="#D46AFF" transform="translate(0,0)"/>
<path d="" fill="#D46AFF" transform="translate(0,0)"/>
<path d="" fill="#5F20FF" transform="translate(0,0)"/>
<path d="" fill="#DF20FF" transform="translate(0,0)"/>
<path d="" fill="#DF20FF" transform="translate(0,0)"/>
<path d="" fill="#DF20FF" transform="translate(0,0)"/>
<path d="" fill="#956AFF" transform="translate(0,0)"/>
<path d="" fill="#952AFF" transform="translate(0,0)"/>
<path d="" fill="#D42AFF" transform="translate(0,0)"/>
<path d="" fill="#DF20FF" transform="translate(0,0)"/>
<path d="" fill="#BF40FF" transform="translate(0,0)"/>
<path d="" fill="#FF2AFF" transform="translate(0,0)"/>
<path d="" fill="#956AFF" transform="translate(0,0)"/>
<path d="" fill="#9F20FF" transform="translate(0,0)"/>
<path d="" fill="#D4AAFF" transform="translate(0,0)"/>
<path d="" fill="#952AFF" transform="translate(0,0)"/>
<path d="" fill="#DFBFFF" transform="translate(0,0)"/>
<path d="" fill="#4C19FF" transform="translate(0,0)"/>
<path d="" fill="#956AFF" transform="translate(0,0)"/>
<path d="" fill="#9F20FF" transform="translate(0,0)"/>
<path d="" fill="#956AFF" transform="translate(0,0)"/>
<path d="" fill="#AA55FF" transform="translate(0,0)"/>
<path d="" fill="#CC33FF" transform="translate(0,0)"/>
<path d="" fill="#8080FF" transform="translate(0,0)"/>
<path d="" fill="#CC19FF" transform="translate(0,0)"/>
<path d="" fill="#AA7FFF" transform="translate(0,0)"/>
<path d="" fill="#DF20FF" transform="translate(0,0)"/>
<path d="" fill="#B44AFF" transform="translate(0,0)"/>
<path d="" fill="#4C33FF" transform="translate(0,0)"/>
<path d="" fill="#8080FF" transform="translate(0,0)"/>
<path d="" fill="#AA55FF" transform="translate(0,0)"/>
<path d="" fill="#DF20FF" transform="translate(0,0)"/>
<path d="" fill="#956AFF" transform="translate(0,0)"/>
<path d="" fill="#BFBFFF" transform="translate(0,0)"/>
<path d="" fill="#D46AFF" transform="translate(0,0)"/>
<path d="" fill="#8080FF" transform="translate(0,0)"/>
<path d="" fill="#D42AFF" transform="translate(0,0)"/>
<path d="" fill="#8080FF" transform="translate(0,0)"/>
<path d="" fill="#BF20FF" transform="translate(0,0)"/>
<path d="" fill="#4040FF" transform="translate(0,0)"/>
<path d="" fill="#9F60FF" transform="translate(0,0)"/>
<path d="" fill="#BFBFFF" transform="translate(0,0)"/>
<path d="" fill="#952AFF" transform="translate(0,0)"/>
<path d="" fill="#956AFF" transform="translate(0,0)"/>
<path d="" fill="#DF20FF" transform="translate(0,0)"/>
<path d="" fill="#4040FF" transform="translate(0,0)"/>
<path d="" fill="#CC19FF" transform="translate(0,0)"/>
<path d="" fill="#8080FF" transform="translate(0,0)"/>
<path d="" fill="#956AFF" transform="translate(0,0)"/>
<path d="" fill="#6A95FF" transform="translate(0,0)"/>
<path d="" fill="#AA55FF" transform="translate(0,0)"/>
<path d="" fill="#334CFF" transform="translate(0,0)"/>
<path d="" fill="#4C33FF" transform="translate(0,0)"/>
<path d="" fill="#40BFFF" transform="translate(0,0)"/>
<path d="" fill="#8C73FF" transform="translate(0,0)"/>
<path d="" fill="#8080FF" transform="translate(0,0)"/>
<path d="" fill="#956AFF" transform="translate(0,0)"/>
<path d="" fill="#40BFFF" transform="translate(0,0)"/>
<path d="" fill="#5F20FF" transform="translate(0,0)"/>
<path d="" fill="#6A8AFF" transform="translate(0,0)"/>
<path d="" fill="#8C73FF" transform="translate(0,0)"/>
<path d="" fill="#AA55FF" transform="translate(0,0)"/>
<path d="" fill="#BFBFFF" transform="translate(0,0)"/>
<path d="" fill="#D42AFF" transform="translate(0,0)"/>
<path d="" fill="#6080FF" transform="translate(0,0)"/>
<path d="" fill="#BF20FF" transform="translate(0,0)"/>
<path d="" fill="#956AFF" transform="translate(0,0)"/>
<path d="" fill="#2A55FF" transform="translate(0,0)"/>
<path d="" fill="#8080FF" transform="translate(0,0)"/>
<path d="" fill="#8080FF" transform="translate(0,0)"/>
<path d="" fill="#D4AAFF" transform="translate(0,0)"/>
<path d="" fill="#6A95FF" transform="translate(0,0)"/>
<path d="" fill="#CC33FF" transform="translate(0,0)"/>
<path d="" fill="#334CFF" transform="translate(0,0)"/>
<path d="" fill="#9F60FF" transform="translate(0,0)"/>
<path d="" fill="#809FFF" transform="translate(0,0)"/>
<path d="" fill="#956AFF" transform="translate(0,0)"/>
<path d="" fill="#6A95FF" transform="translate(0,0)"/>
<path d="" fill="#405FFF" transform="translate(0,0)"/>
<path d="" fill="#DF20FF" transform="translate(0,0)"/>
<path d="" fill="#609FFF" transform="translate(0,0)"/>
<path d="" fill="#9F80FF" transform="translate(0,0)"/>
<path d="" fill="#6A95FF" transform="translate(0,0)"/>
<path d="" fill="#4040FF" transform="translate(0,0)"/>
<path d="" fill="#73A6FF" transform="translate(0,0)"/>
<path d="" fill="#8C73FF" transform="translate(0,0)"/>
<path d="" fill="#6AD4FF" transform="translate(0,0)"/>
<path d="" fill="#956AFF" transform="translate(0,0)"/>
<path d="" fill="#956AFF" transform="translate(0,0)"/>
<path d="" fill="#338CFF" transform="translate(0,0)"/>
<path d="" fill="#5F40FF" transform="translate(0,0)"/>
<path d="" fill="#55AAFF" transform="translate(0,0)"/>
<path d="" fill="#8060FF" transform="translate(0,0)"/>
<path d="" fill="#AA55FF" transform="translate(0,0)"/>
<path d="" fill="#20DFFF" transform="translate(0,0)"/>
<path d="" fill="#20DFFF" transform="translate(0,0)"/>
<path d="" fill="#4040FF" transform="translate(0,0)"/>
<path d="" fill="#6AD4D4" transform="translate(0,0)"/>
<path d="" fill="#BF40FF" transform="translate(0,0)"/>
<path d="" fill="#2AD4FF" transform="translate(0,0)"/>
<path d="" fill="#956AFF" transform="translate(0,0)"/>
<path d="" fill="#956AFF" transform="translate(0,0)"/>
<path d="" fill="#19CCFF" transform="translate(0,0)"/>
<path d="" fill="#60DFFF" transform="translate(0,0)"/>
<path d="" fill="#CC33FF" transform="translate(0,0)"/>
<path d="" fill="#8080FF" transform="translate(0,0)"/>
<path d="M0 0 C2 1 2 1 2 1 Z " fill="#956AFF" transform="translate(231,43)"/>
<path d="M0 0 C2 1 2 1 2 1 Z " fill="#2A95FF" transform="translate(17,43)"/>
<path d="M0 0 C2 1 2 1 2 1 Z " fill="#FFFF00" transform="translate(176,19)"/>
<path d="" fill="#FF80FF" transform="translate(0,0)"/>
<path d="" fill="#8000FF" transform="translate(0,0)"/>
<path d="" fill="#FF55FF" transform="translate(0,0)"/>
<path d="" fill="#FF00FF" transform="translate(0,0)"/>
<path d="" fill="#BF40FF" transform="translate(0,0)"/>
<path d="" fill="#BF40FF" transform="translate(0,0)"/>
<path d="" fill="#BF40FF" transform="translate(0,0)"/>
<path d="" fill="#BF40FF" transform="translate(0,0)"/>
<path d="" fill="#BF40FF" transform="translate(0,0)"/>
<path d="" fill="#AA55FF" transform="translate(0,0)"/>
<path d="" fill="#BF40FF" transform="translate(0,0)"/>
<path d="" fill="#BF40FF" transform="translate(0,0)"/>
<path d="" fill="#BF40FF" transform="translate(0,0)"/>
<path d="" fill="#BF40FF" transform="translate(0,0)"/>
<path d="" fill="#BF40FF" transform="translate(0,0)"/>
<path d="" fill="#BF40FF" transform="translate(0,0)"/>
<path d="" fill="#BF40FF" transform="translate(0,0)"/>
<path d="" fill="#8040FF" transform="translate(0,0)"/>
<path d="" fill="#BF80FF" transform="translate(0,0)"/>
<path d="" fill="#BF40FF" transform="translate(0,0)"/>
<path d="" fill="#8080FF" transform="translate(0,0)"/>
<path d="" fill="#BF40FF" transform="translate(0,0)"/>
<path d="" fill="#8080FF" transform="translate(0,0)"/>
<path d="" fill="#8080FF" transform="translate(0,0)"/>
<path d="" fill="#BF40FF" transform="translate(0,0)"/>
<path d="" fill="#8080BF" transform="translate(0,0)"/>
<path d="" fill="#8040FF" transform="translate(0,0)"/>
<path d="" fill="#8080FF" transform="translate(0,0)"/>
<path d="" fill="#8080FF" transform="translate(0,0)"/>
<path d="" fill="#BF40FF" transform="translate(0,0)"/>
<path d="" fill="#6699FF" transform="translate(0,0)"/>
<path d="" fill="#BF40FF" transform="translate(0,0)"/>
<path d="" fill="#BF40FF" transform="translate(0,0)"/>
<path d="" fill="#8040FF" transform="translate(0,0)"/>
<path d="" fill="#4080FF" transform="translate(0,0)"/>
<path d="" fill="#40BFFF" transform="translate(0,0)"/>
<path d="" fill="#8080FF" transform="translate(0,0)"/>
<path d="" fill="#40BFFF" transform="translate(0,0)"/>
<path d="" fill="#BF80FF" transform="translate(0,0)"/>
<path d="" fill="#55AAFF" transform="translate(0,0)"/>
<path d="" fill="#AA55FF" transform="translate(0,0)"/>
<path d="" fill="#40BFFF" transform="translate(0,0)"/>
<path d="" fill="#8080FF" transform="translate(0,0)"/>
<path d="" fill="#33CCFF" transform="translate(0,0)"/>
<path d="" fill="#8080FF" transform="translate(0,0)"/>
<path d="" fill="#55AAFF" transform="translate(0,0)"/>
<path d="" fill="#AA55FF" transform="translate(0,0)"/>
<path d="" fill="#55AAFF" transform="translate(0,0)"/>
<path d="" fill="#AA55FF" transform="translate(0,0)"/>
<path d="" fill="#55AAFF" transform="translate(0,0)"/>
<path d="" fill="#FFFF55" transform="translate(0,0)"/>
<path d="" fill="#FFFF00" transform="translate(0,0)"/>
<path d="" fill="#FFAA55" transform="translate(0,0)"/>
<path d="" fill="#FFFF00" transform="translate(0,0)"/>
</svg>
