<?xml version="1.0" standalone="no"?>
<!DOCTYPE svg PUBLIC "-//W3C//DTD SVG 20010904//EN"
 "http://www.w3.org/TR/2001/REC-SVG-20010904/DTD/svg10.dtd">
<svg version="1.0" xmlns="http://www.w3.org/2000/svg"
 width="512.000000pt" height="512.000000pt" viewBox="0 0 512.000000 512.000000"
 preserveAspectRatio="xMidYMid meet">
<metadata>
Created by potrace 1.16, written by Peter Selinger 2001-2019
</metadata>
<g transform="translate(0.000000,512.000000) scale(0.100000,-0.100000)"
fill="#000000" stroke="none">
<path d="M2235 5105 c-462 -60 -885 -237 -1255 -523 -117 -91 -316 -287 -413
-407 -276 -342 -459 -746 -537 -1186 -28 -156 -39 -531 -21 -702 43 -399 182
-790 398 -1122 98 -150 184 -257 318 -394 419 -430 948 -690 1550 -760 134
-16 460 -13 605 4 748 93 1416 512 1833 1150 210 321 344 690 392 1075 20 162
20 477 0 640 -92 742 -510 1412 -1140 1826 -329 216 -695 350 -1085 399 -152
18 -501 18 -645 0z m-375 -1852 c53 -24 91 -60 116 -111 16 -31 20 -72 24
-262 6 -202 8 -230 27 -270 24 -50 22 -57 -33 -91 -42 -26 -62 -19 -94 28 -13
21 -25 40 -27 42 -1 2 -20 -11 -42 -28 -68 -54 -127 -75 -211 -75 -156 0 -237
87 -228 244 5 89 40 142 124 185 52 27 66 30 153 30 53 0 117 -4 144 -8 l47
-8 0 58 c-1 131 -61 181 -203 170 -39 -3 -99 -15 -131 -26 -84 -30 -86 -29
-86 29 0 46 2 51 33 66 106 56 294 69 387 27z m1722 13 c88 -20 108 -38 108
-91 0 -24 -4 -46 -9 -49 -5 -3 -35 3 -67 15 -86 30 -221 24 -258 -10 -35 -33
-36 -92 -3 -125 14 -14 74 -40 148 -65 166 -55 213 -93 230 -186 18 -99 -41
-200 -143 -246 -102 -45 -341 -26 -398 31 -24 24 -28 98 -7 106 8 3 38 -5 68
-17 67 -26 209 -37 262 -20 73 24 102 107 54 155 -14 14 -75 40 -152 66 -110
36 -134 49 -169 84 -64 64 -82 146 -47 221 56 121 207 173 383 131z m-1362
-21 c7 -8 45 -142 85 -298 40 -155 75 -275 78 -267 3 8 34 136 69 284 34 148
68 275 76 282 17 18 126 19 139 2 6 -7 40 -141 77 -298 37 -156 68 -286 70
-287 2 -2 36 126 77 284 41 157 80 293 88 300 21 21 125 14 129 -10 5 -24
-208 -706 -226 -723 -8 -9 -35 -14 -72 -14 -51 0 -61 3 -73 23 -8 12 -42 142
-77 289 -35 147 -65 266 -67 265 -1 -2 -32 -126 -68 -277 -36 -150 -70 -279
-76 -287 -7 -8 -33 -13 -70 -13 -59 0 -82 12 -93 48 -3 9 -50 167 -106 351
-56 183 -99 339 -96 347 8 20 119 19 136 -1z m1577 -936 c35 -13 43 -26 43
-71 0 -103 -68 -273 -140 -347 -40 -41 -67 -49 -63 -20 1 8 18 60 38 116 20
56 38 124 42 151 5 46 3 51 -21 67 -24 16 -45 17 -182 12 -127 -4 -154 -3
-154 8 0 29 126 83 225 99 44 6 181 -3 212 -15z m-2370 -93 c283 -143 579
-232 888 -266 136 -15 437 -12 572 5 207 27 417 81 617 157 77 30 78 30 97 11
20 -19 20 -20 -1 -46 -31 -39 -196 -133 -320 -184 -655 -264 -1404 -152 -1932
291 -64 53 -78 73 -61 89 9 9 -2 14 140 -57z"/>
<path d="M1628 2839 c-58 -17 -88 -59 -88 -126 0 -47 4 -59 29 -84 26 -25 37
-29 88 -29 125 1 203 72 203 184 0 37 -4 45 -22 50 -46 12 -174 15 -210 5z"/>
</g>
</svg>
