<?xml version="1.0" standalone="no"?>
<!DOCTYPE svg PUBLIC "-//W3C//DTD SVG 20010904//EN"
 "http://www.w3.org/TR/2001/REC-SVG-20010904/DTD/svg10.dtd">
<svg version="1.0" xmlns="http://www.w3.org/2000/svg"
 width="512.000000pt" height="512.000000pt" viewBox="0 0 512.000000 512.000000"
 preserveAspectRatio="xMidYMid meet">
<metadata>
Created by potrace 1.16, written by Peter Selinger 2001-2019
</metadata>
<g transform="translate(0.000000,512.000000) scale(0.100000,-0.100000)"
fill="#000000" stroke="none">
<path d="M3821 4998 c-41 -21 -55 -40 -156 -210 -203 -341 -326 -477 -510
-564 -99 -47 -174 -64 -286 -64 -117 0 -227 20 -372 66 -164 53 -252 92 -938
415 -478 225 -644 299 -672 299 -49 0 -96 -21 -128 -56 -15 -16 -139 -284
-285 -614 -231 -522 -259 -591 -258 -637 0 -71 36 -123 106 -156 29 -14 154
-72 278 -130 124 -58 360 -171 525 -252 165 -81 377 -179 470 -220 324 -139
660 -240 950 -286 164 -26 479 -36 624 -20 373 41 696 170 1007 402 124 91
373 339 488 484 86 109 248 346 341 500 27 44 64 104 82 134 52 86 45 181 -19
237 -12 11 -111 74 -218 139 -172 105 -438 268 -783 480 -130 80 -176 90 -246
53z"/>
<path d="M1998 2560 c-387 -32 -751 -177 -1078 -428 -168 -129 -417 -396 -576
-617 -55 -76 -302 -463 -328 -514 -24 -46 -21 -131 7 -172 23 -35 45 -49 486
-319 121 -74 313 -192 426 -262 216 -134 262 -155 317 -144 68 13 89 36 200
223 207 349 334 488 531 578 92 42 156 55 271 55 114 0 225 -20 369 -66 164
-54 253 -93 938 -415 475 -223 645 -299 673 -299 48 0 95 21 127 56 15 16 139
284 285 614 231 522 259 591 258 637 0 71 -36 123 -106 156 -29 14 -163 77
-298 140 -135 63 -371 177 -525 252 -561 275 -899 402 -1260 474 -234 47 -518
67 -717 51z"/>
</g>
</svg>
