<?xml version="1.0" standalone="no"?>
<!DOCTYPE svg PUBLIC "-//W3C//DTD SVG 20010904//EN"
 "http://www.w3.org/TR/2001/REC-SVG-20010904/DTD/svg10.dtd">
<svg version="1.0" xmlns="http://www.w3.org/2000/svg"
 width="957.000000pt" height="1024.000000pt" viewBox="0 0 957.000000 1024.000000"
 preserveAspectRatio="xMidYMid meet">
<metadata>
Created by potrace 1.16, written by Peter Selinger 2001-2019
</metadata>
<g transform="translate(0.000000,1024.000000) scale(0.100000,-0.100000)"
fill="#000000" stroke="none">
<path d="M0 5120 l0 -5120 4785 0 4785 0 0 5120 0 5120 -4785 0 -4785 0 0
-5120z m6323 4354 c105 -42 217 -127 391 -294 186 -180 342 -394 460 -632 102
-207 147 -353 148 -478 1 -78 -18 -122 -65 -150 -101 -62 -257 18 -470 240
-262 273 -384 494 -456 826 -26 121 -76 225 -145 299 l-55 60 25 -75 c37 -109
53 -205 65 -375 20 -303 72 -511 160 -635 16 -24 16 -32 3 -99 -23 -123 -16
-120 -97 -45 -94 86 -257 194 -432 285 -77 40 -138 70 -135 67 3 -3 70 -61
150 -128 165 -141 457 -428 547 -541 87 -107 185 -254 223 -333 82 -172 112
-310 130 -591 6 -93 15 -186 21 -206 5 -20 34 -67 65 -105 146 -178 309 -416
389 -567 93 -175 122 -332 112 -601 -5 -133 -11 -181 -35 -276 -33 -129 -84
-260 -136 -354 -35 -63 -36 -63 -88 -70 -29 -4 -138 -20 -241 -37 -154 -24
-195 -28 -227 -19 -37 10 -130 47 -138 55 -2 1 10 29 26 61 16 33 39 87 52
120 18 52 20 66 10 85 -13 23 -13 23 -54 -27 -126 -153 -286 -298 -445 -404
-119 -79 -217 -125 -340 -158 -133 -35 -354 -37 -479 -4 -350 92 -896 367
-1250 629 -41 30 -76 52 -79 49 -3 -3 -3 -20 1 -39 5 -27 38 -65 159 -183 83
-82 206 -193 272 -246 109 -87 322 -244 363 -267 9 -5 14 -12 11 -15 -3 -3
-147 -21 -320 -41 -172 -20 -323 -38 -335 -40 -20 -4 -20 -5 13 -262 18 -142
37 -294 42 -338 6 -44 26 -204 45 -355 41 -319 122 -956 167 -1313 17 -137 29
-250 27 -252 -5 -5 -310 -56 -314 -52 -2 1 -19 50 -39 107 -43 123 -128 307
-187 400 -136 215 -342 418 -528 517 -214 114 -488 156 -774 118 -155 -20
-157 -34 -5 -34 140 0 226 -11 349 -46 115 -33 311 -132 392 -199 223 -185
435 -552 542 -942 104 -379 90 -633 -50 -904 -83 -161 -179 -257 -329 -330
-270 -132 -614 -127 -888 12 -86 43 -193 111 -231 147 -37 35 -116 134 -116
146 0 4 -11 30 -24 58 -13 29 -38 86 -56 127 -18 41 -38 82 -45 90 -7 8 -27
42 -45 75 -58 109 -154 213 -402 438 -148 133 -198 241 -198 423 0 155 73 364
191 544 63 95 231 259 509 495 474 403 667 627 761 885 22 59 24 81 24 225 -1
337 -87 611 -253 805 l-30 35 -7 -38 c-4 -21 -5 -58 -2 -83 3 -31 1 -44 -7
-41 -15 5 -91 150 -114 218 -13 35 -44 85 -86 138 -64 79 -67 81 -76 57 -5
-14 -12 -60 -16 -103 l-7 -78 -19 45 c-23 53 -68 225 -68 258 0 57 -29 -9 -55
-123 -6 -26 -8 -28 -17 -11 -22 39 -69 256 -74 346 -4 63 -14 117 -30 160 -84
233 -116 430 -118 727 -1 116 2 214 5 217 3 4 26 -5 51 -19 84 -47 189 -68
338 -68 149 0 234 14 346 59 100 40 175 87 234 146 108 110 134 191 134 413 0
83 -6 188 -13 235 -35 247 -126 550 -276 930 -128 324 -305 705 -265 573 4
-16 25 -84 45 -153 155 -519 241 -881 266 -1114 24 -232 -26 -439 -141 -583
-77 -97 -294 -240 -419 -277 -72 -21 -121 -20 -217 4 -314 78 -723 453 -914
835 -124 250 -120 327 33 585 37 63 63 116 58 118 -5 2 -43 -9 -83 -23 -40
-15 -82 -29 -93 -31 -36 -9 135 145 295 265 l154 116 -82 3 c-45 2 -82 6 -82
11 0 8 192 102 280 138 l45 18 -115 5 -115 5 40 21 c54 29 590 260 690 297
111 41 263 49 346 18 82 -31 128 -68 194 -157 153 -206 324 -320 574 -384 l81
-20 69 35 c93 46 244 107 366 146 94 30 105 37 180 106 94 87 218 173 293 202
68 27 69 27 37 -10 -30 -37 -69 -111 -79 -153 l-7 -28 43 32 c80 60 220 152
224 147 2 -2 -10 -23 -26 -46 -34 -47 -76 -128 -69 -135 2 -2 77 32 167 76 89
45 165 79 167 76 3 -2 -18 -33 -45 -69 l-50 -64 93 -7 c50 -4 180 -8 287 -10
179 -3 201 -1 265 19 164 52 280 153 448 391 134 189 169 223 261 257 163 59
259 64 369 19z m2581 -4686 c3 -24 15 -155 26 -293 11 -137 29 -356 40 -485
11 -129 25 -291 30 -360 5 -69 19 -235 30 -370 11 -135 29 -353 41 -485 11
-132 24 -296 29 -365 12 -149 47 -576 59 -710 5 -52 7 -97 5 -99 -4 -4 -341
-66 -1234 -226 -201 -36 -439 -79 -530 -95 -91 -16 -329 -59 -530 -95 -560
-101 -724 -130 -995 -179 -137 -25 -454 -82 -703 -126 -249 -45 -456 -80 -459
-77 -6 7 -23 145 -113 897 -16 140 -39 327 -50 415 -71 586 -139 1150 -170
1420 -11 94 -29 238 -39 320 -11 83 -16 153 -12 157 4 4 54 14 111 22 58 7
198 26 311 42 l206 28 89 -32 c139 -48 310 -90 417 -102 166 -19 349 16 507
96 80 40 213 146 275 219 26 30 54 56 63 59 10 3 118 24 242 46 227 41 291 53
745 136 138 25 313 57 390 70 77 14 370 67 650 119 281 51 522 94 537 94 24 1
27 -3 32 -41z"/>
<path d="M6155 7464 c-34 -8 -95 -37 -95 -44 0 -4 11 -12 25 -18 30 -14 31
-30 5 -79 -25 -47 -25 -104 -1 -174 41 -121 101 -212 188 -286 l55 -47 102 2
c70 2 117 -2 151 -12 28 -9 51 -16 53 -16 6 0 1 185 -8 267 -12 112 -39 187
-91 254 -43 54 -124 111 -192 135 -44 16 -158 26 -192 18z"/>
<path d="M4436 7190 c-87 -14 -212 -56 -286 -97 -117 -66 -186 -154 -225 -288
-44 -151 17 -337 147 -446 l57 -48 96 39 c126 52 245 88 385 116 129 26 135
31 178 124 59 128 27 345 -62 419 -24 20 -20 65 10 100 14 17 22 36 18 42 -22
36 -199 57 -318 39z"/>
<path d="M6610 5873 c-164 -18 -451 -89 -555 -138 -30 -15 -64 -40 -77 -57
-26 -38 -36 -125 -18 -168 16 -38 80 -96 185 -165 201 -134 382 -189 510 -154
83 23 196 170 283 371 46 107 55 214 23 266 -12 18 -33 37 -47 42 -24 9 -228
11 -304 3z"/>
<path d="M8340 3653 c-173 -366 -320 -667 -326 -669 -11 -5 -69 32 -580 368
-137 90 -254 167 -260 171 -8 4 -137 -203 -365 -583 -194 -325 -357 -590 -364
-590 -10 0 -311 85 -647 184 -86 25 -161 46 -166 46 -5 0 -38 -44 -73 -97 -85
-132 -227 -348 -458 -702 -106 -162 -195 -300 -197 -305 -5 -13 32 -335 38
-342 3 -2 63 7 134 20 112 22 264 50 729 136 301 56 657 122 778 144 75 14
197 37 270 50 275 51 1277 238 1402 261 307 57 416 77 520 96 60 11 110 21
112 22 1 1 -5 70 -13 152 -7 83 -25 272 -39 420 -28 301 -63 685 -101 1090
-13 149 -35 386 -49 528 -13 142 -25 260 -27 262 -2 1 -145 -297 -318 -662z"/>
</g>
</svg>
