<svg fill="none" height="32" viewBox="0 0 32 32" width="32" xmlns="http://www.w3.org/2000/svg"><circle cx="16" cy="16" fill="#1794d4" r="14"/><g fill="#fff"><path d="m18 7h-2v2h2z"/><path d="m10 10h2v2h-2z"/><path d="m6.00155 16.9414c.17089 2.9013 1.89872 7.0586 7.99845 7.0586 6.8 0 9.8333-5 10.5-7.5.8333 0 2.7-.5 3.5-2.5-.5-.5-2.5-.5-3.5 0 0-.8-.5-2.5-1.5-3-.6667.6667-1.7 2.4-.5 4-.5 1-1.8333 1-2.5 1h-13.0571c-.52948 0-.97249.4128-.94135.9414z"/><path d="m9 13h-2v2h2z"/><path d="m10 13h2v2h-2z"/><path d="m15 13h-2v2h2z"/><path d="m16 13h2v2h-2z"/><path d="m21 13h-2v2h2z"/><path d="m15 10h-2v2h2z"/><path d="m16 10h2v2h-2z"/></g></svg>