<?xml version="1.0" encoding="UTF-8"?>
<svg version="1.1" xmlns="http://www.w3.org/2000/svg" width="512" height="512">
<path d="M0 0 C7.85004783 4.37459283 14.10219053 11.32930028 20.40057373 17.63513184 C21.6010325 18.83113392 21.6010325 18.83113392 22.82574296 20.05129766 C25.48873504 22.70566465 28.14818565 25.36355042 30.80761719 28.02148438 C32.72300769 29.9327757 34.63911658 31.84334632 36.55516052 33.75398254 C41.74556377 38.93086642 46.93224404 44.11146937 52.11809826 49.29290962 C55.35861896 52.53065964 58.59987287 55.76767497 61.84125519 59.00456238 C70.82489045 67.97601827 79.80758801 76.9484107 88.7868309 85.924263 C89.36022788 86.49744041 89.93362486 87.07061783 90.52439751 87.66116425 C91.38645984 88.52289917 91.38645984 88.52289917 92.26593757 89.40204287 C93.43038261 90.56604445 94.5948292 91.73004448 95.75927734 92.89404297 C96.33687397 93.47141817 96.9144706 94.04879336 97.50957015 94.64366478 C106.88059323 104.01073498 116.25835793 113.37102478 125.63902745 122.72843355 C135.2816814 132.3473705 144.91869654 141.97192679 154.55008245 151.60214663 C159.95335279 157.00450094 165.35900738 162.40442033 170.77089691 167.79814148 C175.37550255 172.38734214 179.97492938 176.98165525 184.56770936 181.58269203 C186.90975314 183.92863953 189.25494286 186.27127961 191.60513878 188.6090641 C194.15453913 191.14578777 196.6945237 193.6915838 199.23236084 196.23986816 C199.97398743 196.97343835 200.71561403 197.70700854 201.47971416 198.46280813 C208.86946192 205.92392891 212.39610284 212.80234525 213.0625 223.4375 C212.40413057 235.01804951 205.9595509 243.14305839 198.00494385 251.00299072 C197.19847845 251.81569608 196.39201305 252.62840145 195.5611093 253.46573424 C192.87078969 256.17194014 190.16648178 258.86370334 187.46191406 261.55566406 C185.52313217 263.49766958 183.58733746 265.4426433 181.65136719 267.38745117 C176.94573068 272.11082975 172.2293982 276.82338465 167.50908068 281.53208712 C163.67134812 285.36076863 159.83755889 289.19335781 156.00652313 293.02873993 C155.46027756 293.57559843 154.91403199 294.12245693 154.35123353 294.6858869 C153.24139786 295.79700153 152.13157114 296.9081251 151.02175328 298.01925752 C140.62615672 308.42624725 130.21835825 318.82096447 119.8063142 329.21149513 C110.88181885 338.11812066 101.96786274 347.03518124 93.06152344 355.95996094 C82.7069529 366.33596051 72.34589478 376.70541067 61.9744699 387.06456542 C60.86755156 388.17020963 59.76064154 389.27586217 58.65373993 390.38152313 C58.10918744 390.92545852 57.56463496 391.4693939 57.00358088 392.02981217 C53.17537055 395.85457571 49.35180719 399.68394684 45.53003693 403.51514435 C40.86941804 408.18700719 36.20168725 412.85162364 31.52482775 417.50723055 C29.14094615 419.88063386 26.76148849 422.25805272 24.38838959 424.64226532 C21.8107431 427.23086683 19.22104961 429.8067945 16.62799072 432.37994385 C15.88720913 433.12964833 15.14642754 433.8793528 14.38319802 434.6517756 C6.13366355 442.77917393 -1.42726814 446.73962838 -13.10375977 446.75219727 C-26.92747558 446.47163908 -35.0796626 436.44298913 -44.2688446 427.26005554 C-45.46824502 426.0672285 -45.46824502 426.0672285 -46.69187576 424.85030395 C-49.35252674 422.20293592 -52.00965793 419.55206465 -54.66674805 416.90112305 C-56.58079827 414.99498161 -58.49502577 413.08901949 -60.40942383 411.18322754 C-66.13603914 405.48100767 -71.85782343 399.77395263 -77.57871768 394.06599376 C-79.19613497 392.45229544 -80.81367886 390.83872411 -82.43126702 389.22519708 C-92.49350651 379.18818251 -102.55415146 369.14957261 -112.61001873 359.10617352 C-114.93310811 356.78601336 -117.25621375 354.46586948 -119.5793457 352.14575195 C-120.15668002 351.56916369 -120.73401434 350.99257542 -121.32884363 350.39851478 C-130.68995275 341.05007054 -140.06130609 331.7119653 -149.43687465 322.37802484 C-159.07760599 312.77974713 -168.70885493 303.17203558 -178.33099395 293.55511886 C-183.72777111 288.16175001 -189.12861406 282.77259563 -194.54016685 277.39404869 C-199.1459269 272.81633624 -203.74303904 268.23015516 -208.32920798 263.63281211 C-210.66686755 261.28997968 -213.00965418 258.95272666 -215.3609333 256.62355232 C-217.9147464 254.09244426 -220.45257852 251.54629408 -222.98710632 248.99589539 C-223.72582008 248.27106372 -224.46453383 247.54623206 -225.22563285 246.79943579 C-231.55210671 240.37522016 -236.46773971 232.94731348 -237.00390625 223.71875 C-236.63544672 211.06108146 -230.64371481 202.53147495 -221.87994385 193.87200928 C-221.07347845 193.05930392 -220.26701305 192.24659855 -219.4361093 191.40926576 C-216.74578969 188.70305986 -214.04148178 186.01129666 -211.33691406 183.31933594 C-209.39813217 181.37733042 -207.46233746 179.4323567 -205.52636719 177.48754883 C-200.82073068 172.76417025 -196.1043982 168.05161535 -191.38408068 163.34291288 C-187.54634812 159.51423137 -183.71255889 155.68164219 -179.88152313 151.84626007 C-179.06215478 151.02597232 -179.06215478 151.02597232 -178.22623353 150.1891131 C-177.11639786 149.07799847 -176.00657114 147.9668749 -174.89675328 146.85574248 C-164.50115672 136.44875275 -154.09335825 126.05403553 -143.6813142 115.66350487 C-134.75681885 106.75687934 -125.84286274 97.83981876 -116.93652344 88.91503906 C-106.5819529 78.53903949 -96.22089478 68.16958933 -85.8494699 57.81043458 C-84.74255156 56.70479037 -83.63564154 55.59913783 -82.52873993 54.49347687 C-81.98418744 53.94954148 -81.43963496 53.4056061 -80.87858088 52.84518783 C-77.05037055 49.02042429 -73.22680719 45.19105316 -69.40503693 41.35985565 C-64.74441804 36.68799281 -60.07668725 32.02337636 -55.39982775 27.36776945 C-53.01594615 24.99436614 -50.63648849 22.61694728 -48.26338959 20.23273468 C-45.6857431 17.64413317 -43.09604961 15.0682055 -40.50299072 12.49505615 C-39.76220913 11.74535167 -39.02142754 10.9956472 -38.25819802 10.2232244 C-28.0390197 0.15534322 -14.20548677 -5.82151297 0 0 Z " fill="#DD4C35" transform="translate(267.9375,33.5625)"/>
<path d="M0 0 C3.69025955 1.52858214 5.85934698 3.72187601 8.55883789 6.63330078 C9.90788963 8.07456833 9.90788963 8.07456833 11.28419495 9.54495239 C11.76183352 10.05840336 12.23947208 10.57185432 12.73158455 11.10086441 C15.29097739 13.83770062 17.89126014 16.5353252 20.48632812 19.23828125 C23.77830865 22.66777488 27.05611194 26.1069963 30.27856445 29.60205078 C42.92510716 44.67670153 42.92510716 44.67670153 60.20237732 51.55551147 C62.56042949 51.40971726 64.80566675 51.12395727 67.12841797 50.69897461 C72.90047321 49.65688896 77.04764255 51.04134523 82 54 C90.26455802 59.85555265 94.82610838 66.47832513 98 76 C97.75668945 77.24676514 97.51337891 78.49353027 97.26269531 79.77807617 C96.0840626 86.81402247 96.00978216 92.861372 99.93579102 99.05279541 C105.97552477 106.55933431 112.97911133 113.12691835 120.01782227 119.68255615 C122.34284393 121.87035402 124.61960947 124.10512058 126.8962059 126.34310627 C129.61656869 129.01374654 132.36105987 131.65895924 135.109375 134.30078125 C135.63021416 134.80464167 136.15105331 135.30850208 136.68767548 135.827631 C138.15837377 137.24060734 139.6485794 138.6331954 141.13964844 140.0246582 C142.40539703 141.21657524 142.40539703 141.21657524 143.69671631 142.43257141 C145.83160379 144.25064454 145.83160379 144.25064454 148.11431885 143.76554871 C149.04773102 143.3866021 149.04773102 143.3866021 150 143 C161.95718327 141.92138811 171.41172969 143.99504344 180.875 151.5625 C187.4791073 158.03428457 191.1742411 165.13765025 191.60668945 174.40087891 C191.69817303 185.51308359 188.87097364 194.84854623 181 203 C173.41848292 209.41736858 164.53335507 212.7072483 154.57421875 212.34765625 C143.93780108 210.91117496 134.951643 205.2875841 128.3203125 196.953125 C122.56612735 188.44101679 122.33687205 180.05562877 123 170 C123.36641602 168.98309082 123.73283203 167.96618164 124.11035156 166.91845703 C123.92563418 160.3593552 119.00157414 157.02134562 114.47265625 152.69140625 C113.60668823 151.83349487 112.74072021 150.9755835 111.84851074 150.0916748 C108.60817017 146.89318704 105.33321376 143.72992205 102.0625 140.5625 C94.781875 133.446875 87.50125 126.33125 80 119 C79.67 158.93 79.34 198.86 79 240 C80.65 240.66 82.3 241.32 84 242 C90.39090521 246.09673411 95.14104505 253.4752522 97.52734375 260.6484375 C99.42271763 270.07831415 98.56578253 279.50144903 94 288 C88.50534938 295.99854204 81.09936438 302.11004381 71.6328125 304.52734375 C61.01876743 306.43283255 51.62521959 304.41257858 42.6875 298.3125 C38.44367727 294.86004585 35.63639658 290.75536953 33 286 C32.65839844 285.40832031 32.31679687 284.81664062 31.96484375 284.20703125 C28.36590887 276.62415915 28.52624048 266.3068118 31.20703125 258.47265625 C34.52123585 251.68482962 38.19602262 245.84805894 44.625 241.6875 C45.40101563 241.17574219 46.17703125 240.66398438 46.9765625 240.13671875 C49 239 49 239 51 239 C51.07968205 223.0661922 51.10792794 207.13317413 51.07515812 191.19924736 C51.06113746 183.80053097 51.06386602 176.40253252 51.10620117 169.00390625 C51.14306397 162.55418622 51.14832074 156.10534168 51.11582941 149.65558445 C51.0997263 146.24095783 51.099311 142.8279729 51.13676643 139.41347885 C51.17066629 135.59829959 51.14869598 131.78724843 51.11352539 127.97216797 C51.13653214 126.84359879 51.15953888 125.7150296 51.1832428 124.55226135 C51.15491365 118.72461766 51.15491365 118.72461766 48.05611992 114.06149673 C45.72088311 112.46094323 45.72088311 112.46094323 43.30191708 111.25781441 C37.1003311 107.86914143 33.01510154 101.49775809 30.6484375 94.984375 C29.17653522 88.21007778 28.95616265 79.81452913 30.79466248 73.09603882 C31.32532557 69.90137864 31.32532557 69.90137864 29.22206116 67.38027954 C28.33159592 66.50535858 27.44113068 65.63043762 26.52368164 64.72900391 C26.03614914 64.24044922 25.54861664 63.75189453 25.04631042 63.24853516 C23.43363004 61.64072472 21.79760153 60.0591115 20.16015625 58.4765625 C19.03619573 57.36566023 17.91377276 56.25320036 16.79283142 55.13925171 C13.84059447 52.21372197 10.86794431 49.30981934 7.89056396 46.40991211 C4.85519864 43.44619726 1.83959173 40.46252752 -1.17773438 37.48046875 C-7.09932107 31.6339207 -13.04261913 25.81007001 -19 20 C-12.74442981 12.61438461 -12.74442981 12.61438461 -9.5703125 9.47265625 C-9.003125 8.90869141 -8.4359375 8.34472656 -7.8515625 7.76367188 C-7.28179687 7.20228516 -6.71203125 6.64089844 -6.125 6.0625 C-5.23554688 5.17981445 -5.23554688 5.17981445 -4.328125 4.27929688 C-2.88773534 2.85052326 -1.4442033 1.42491868 0 0 Z " fill="#FEFEFE" transform="translate(193,81)"/>
</svg>
