<svg fill="none" height="32" viewBox="0 0 32 32" width="32" xmlns="http://www.w3.org/2000/svg"><path d="m0 16c0 8.8366 7.16344 16 16 16 8.8366 0 16-7.1634 16-16 0-8.83656-7.1634-16-16-16-8.83656 0-16 7.16344-16 16z" fill="#fc6d26"/><path clip-rule="evenodd" d="m23.9525 16.8631-.8392-2.5786c-.0045-.0238-.0113-.047-.0203-.0694l-1.6837-5.18266c-.0448-.13372-.1308-.24984-.2455-.33181-.1148-.08197-.2525-.12558-.3936-.12463-.1406-.00085-.2778.04338-.3915.1262-.1136.08282-.1978.19988-.24.33401l-1.6048 4.93869h-5.0652l-1.6072-4.93869c-.0421-.13366-.1258-.25039-.2389-.33316-.1131-.08278-.2497-.12729-.3898-.12705h-.0038c-.1411.00003-.2787.04456-.3931.12727-.1144.0827-.1998.19938-.2441.33342l-1.68508 5.18881c0 .0028-.00135.0053-.00275.0079l-.00244.0053-.85434 2.6249c-.06278.1925-.06293.3999-.0004.5925.0625.1926.18442.3604.34827.4794l7.38134 5.3634c.0649.0471.1432.0722.2234.0718.0802-.0005.1581-.0264.2226-.0741l7.3827-5.3611c.164-.119.2859-.2869.3483-.4797.0624-.1927.0621-.4002-.0009-.5927zm-11.2782-2.8882-1.4486-4.45252-1.4434 4.45252zm9.5483 0-1.4458-4.45252-1.4481 4.45252zm-9.3033.758 2.0575 6.3325-4.9391-6.3325zm4.1065 6.3339 1.973-6.071.0849-.2629h2.884l-4.4685 5.7245zm-3.3112-6.3367h4.5743l-2.2888 7.0386zm-4.87536 2.5946c-.03482-.0253-.0607-.061-.07394-.102-.01325-.041-.01313-.0851.0003-.126l.63437-1.9494 4.65263 5.9648zm9.10836 3.786 5.2138-3.786c.0349-.0254.0607-.0617.0739-.1028.0131-.041.0129-.0852-.0007-.1261l-.6344-1.9485-4.6351 5.9407z" fill="#fff" fill-rule="evenodd"/></svg>