<?xml version="1.0" encoding="UTF-8"?>
<svg version="1.1" xmlns="http://www.w3.org/2000/svg" width="512" height="512">
<path d="M0 0 C1.01790619 0.00215515 2.03581238 0.0043103 3.08456421 0.00653076 C17.69363523 0.05620146 32.02575853 0.30709809 46.375 3.3125 C47.34985352 3.51117676 48.32470703 3.70985352 49.32910156 3.91455078 C97.7109774 14.03517194 141.69928269 35.9516877 177.375 70.3125 C178.3640332 71.26068604 178.3640332 71.26068604 179.37304688 72.22802734 C188.86130305 81.37247479 197.6012044 90.66984009 205.375 101.3125 C206.23306152 102.46355017 207.09113451 103.61459177 207.94921875 104.765625 C213.98736829 112.95680614 219.34595521 121.47054105 224.375 130.3125 C224.73948242 130.94430176 225.10396484 131.57610352 225.47949219 132.22705078 C247.08534998 169.97532572 256.85198095 212.74189997 256.6875 255.9375 C256.68534485 256.95540619 256.6831897 257.97331238 256.68096924 259.02206421 C256.63129854 273.63113523 256.38040191 287.96325853 253.375 302.3125 C253.07698486 303.77478027 253.07698486 303.77478027 252.77294922 305.26660156 C242.65232806 353.6484774 220.7358123 397.63678269 186.375 433.3125 C185.74287598 433.97185547 185.11075195 434.63121094 184.45947266 435.31054688 C175.31502521 444.79880305 166.01765991 453.5387044 155.375 461.3125 C154.22394983 462.17056152 153.07290823 463.02863451 151.921875 463.88671875 C143.73224019 469.92427396 135.22961724 475.30707302 126.375 480.3125 C125.66778809 480.7146875 124.96057617 481.116875 124.23193359 481.53125 C101.09654164 494.5566741 75.92537591 503.30551461 49.9375 508.625 C49.21860596 508.77235596 48.49971191 508.91971191 47.7590332 509.0715332 C33.08339502 511.86090125 18.55831162 512.66142619 3.64770508 512.62817383 C0.70811513 512.6250221 -2.2304558 512.64854926 -5.16992188 512.67382812 C-18.54306192 512.71848737 -31.43916711 511.51301542 -44.625 509.3125 C-46.33055054 509.03031616 -46.33055054 509.03031616 -48.07055664 508.74243164 C-91.33802759 500.97044532 -132.38793216 480.98345309 -165.625 452.3125 C-166.37007813 451.67828125 -167.11515625 451.0440625 -167.8828125 450.390625 C-181.38779833 438.57948485 -194.05918743 425.82889772 -204.625 411.3125 C-205.48149066 410.16255169 -206.33826433 409.01281411 -207.1953125 407.86328125 C-213.23534209 399.67315742 -218.61867614 391.16870382 -223.625 382.3125 C-224.0271875 381.60528809 -224.429375 380.89807617 -224.84375 380.16943359 C-237.8691741 357.03404164 -246.61801461 331.86287591 -251.9375 305.875 C-252.08485596 305.15610596 -252.23221191 304.43721191 -252.3840332 303.6965332 C-255.35789088 288.05024391 -255.99800362 272.57681954 -255.9375 256.6875 C-255.93534485 255.66959381 -255.9331897 254.65168762 -255.93096924 253.60293579 C-255.88129854 238.99386477 -255.63040191 224.66174147 -252.625 210.3125 C-252.42632324 209.33764648 -252.22764648 208.36279297 -252.02294922 207.35839844 C-241.90232806 158.9765226 -219.9858123 114.98821731 -185.625 79.3125 C-184.99287598 78.65314453 -184.36075195 77.99378906 -183.70947266 77.31445312 C-174.56502521 67.82619695 -165.26765991 59.0862956 -154.625 51.3125 C-153.47394983 50.45443848 -152.32290823 49.59636549 -151.171875 48.73828125 C-142.98224019 42.70072604 -134.47961724 37.31792698 -125.625 32.3125 C-124.91778809 31.9103125 -124.21057617 31.508125 -123.48193359 31.09375 C-100.34654164 18.0683259 -75.17537591 9.31948539 -49.1875 4 C-48.46860596 3.85264404 -47.74971191 3.70528809 -47.0090332 3.5534668 C-31.36274391 0.57960912 -15.88931954 -0.06050362 0 0 Z " fill="#A3D3FE" transform="translate(255.625,-0.3125)"/>
<path d="M0 0 C7.8755386 6.75046166 7.8755386 6.75046166 10.57875729 9.42498302 C11.19880546 10.03625646 11.81885363 10.64752989 12.45769113 11.27732676 C13.11432625 11.9293714 13.77096136 12.58141604 14.44749451 13.2532196 C15.16401359 13.96112304 15.88053268 14.66902648 16.61876446 15.39838153 C19.00396451 17.75631445 21.38570099 20.11771265 23.76733398 22.47924805 C25.48250199 24.17667905 27.19780183 25.87397685 28.91322327 27.57115173 C44.51468194 43.01413905 60.0796101 58.49409543 75.63526821 73.98320293 C77.71306439 76.05195189 79.79094172 78.12061931 81.86889648 80.18920898 C82.38530494 80.70329753 82.9017134 81.21738608 83.4337706 81.74705306 C91.81038834 90.08484934 100.20766692 98.40152734 108.61308955 106.71027329 C117.25351381 115.25213948 125.87297359 123.81473219 134.47295815 132.39731437 C139.29790378 137.21136448 144.13182126 142.0156035 148.98986626 146.79627037 C153.55630732 151.28999446 158.09439124 155.8110925 162.6142025 160.35172462 C164.27680398 162.01289644 165.94885379 163.6646735 167.63088608 165.3061676 C169.92735357 167.5500973 172.18729391 169.82548624 174.44139099 172.11186218 C175.11364116 172.75275321 175.78589132 173.39364424 176.4785127 174.05395621 C180.12993331 177.84200753 181.39586641 180.33812246 181.43774509 185.66634846 C181.32957363 187.44692733 181.18424197 189.22567842 181 191 C180.92399565 191.91781067 180.84799129 192.83562134 180.76968378 193.78124446 C175.80321771 250.26868315 150.18223024 304.31836077 111 345 C110.36787598 345.65935547 109.73575195 346.31871094 109.08447266 346.99804688 C99.94002521 356.48630305 90.64265991 365.2262044 80 373 C78.84894983 373.85806152 77.69790823 374.71613451 76.546875 375.57421875 C68.35724019 381.61177396 59.85461724 386.99457302 51 392 C50.29278809 392.4021875 49.58557617 392.804375 48.85693359 393.21875 C25.72154164 406.2441741 0.55037591 414.99301461 -25.4375 420.3125 C-26.15639404 420.45985596 -26.87528809 420.60721191 -27.6159668 420.7590332 C-42.29160498 423.54840125 -56.81668838 424.34892619 -71.72729492 424.31567383 C-74.66688487 424.3125221 -77.6054558 424.33604926 -80.54492188 424.36132812 C-90.50160613 424.39528801 -100.26538029 423.95854848 -110.14453125 422.66796875 C-111.06183517 422.5514949 -111.9791391 422.43502106 -112.92424011 422.3150177 C-113.78044449 422.19067856 -114.63664886 422.06633942 -115.51879883 421.93823242 C-116.26591629 421.83024826 -117.01303375 421.7222641 -117.78279114 421.61100769 C-122.54481321 420.29871269 -125.92673789 417.3236611 -129.35969543 413.89427185 C-130.19957001 413.06003693 -131.03944458 412.225802 -131.9047699 411.36628723 C-133.26639 409.99859444 -133.26639 409.99859444 -134.65551758 408.60327148 C-135.63119878 407.63030227 -136.60730453 406.65775862 -137.58380127 405.68560791 C-140.22653895 403.05196812 -142.86293524 400.41206537 -145.49794984 397.77070117 C-148.25627305 395.00730884 -151.01947885 392.24880574 -153.78190613 389.48951721 C-158.41639483 384.85866366 -163.04665765 380.22361615 -167.67456055 375.58618164 C-173.030321 370.21951825 -178.39327451 364.86012386 -183.75998384 359.50441116 C-188.36669985 354.90675791 -192.96952349 350.3052352 -197.56908911 345.70042855 C-200.31680217 342.94959269 -203.06586005 340.20013743 -205.81842995 337.45416069 C-208.40272366 334.8756258 -210.98211109 332.29228313 -213.557724 329.70507812 C-214.95943539 328.2994433 -216.36609943 326.89875281 -217.77287292 325.4981842 C-218.59864838 324.6667691 -219.42442383 323.835354 -220.27522278 322.97874451 C-220.99878873 322.25442451 -221.72235468 321.5301045 -222.46784687 320.78383541 C-224 319 -224 319 -224 317 C-224.99 316.67 -225.98 316.34 -227 316 C-231.7095339 270.46420778 -231.7095339 270.46420778 -224.49365234 261.06103516 C-218.5333356 255.01480415 -210.32616924 252.01976015 -202.45849609 249.27294922 C-197.80400894 247.55979829 -193.87978258 245.13602926 -189.75 242.4375 C-187.83683114 241.28583596 -185.92083333 240.1388347 -184 239 C-182.72769531 239.73355713 -182.72769531 239.73355713 -181.4296875 240.48193359 C-175.34753056 243.97777221 -169.25003246 247.41888444 -163.0625 250.7265625 C-145.59850502 260.26270241 -132.24844713 271.13361194 -119 286 C-118.44707275 285.59330078 -117.89414551 285.18660156 -117.32446289 284.76757812 C-109.38800265 279.05981139 -100.99963722 274.24096123 -92.51977539 269.40673828 C-90.63347446 268.32905887 -88.75216313 267.24302839 -86.87109375 266.15625 C-85.76693115 265.52525391 -84.66276855 264.89425781 -83.52514648 264.24414062 C-74.01524278 258.38738771 -66.33544041 250.60467095 -58.52734375 242.72265625 C-57.35237436 241.54394849 -56.17695653 240.36568759 -55.00111389 239.18785095 C-51.93401537 236.11318077 -48.87297547 233.03254923 -45.81323242 229.95056152 C-42.67931259 226.79604258 -39.53959746 223.64730296 -36.40039062 220.49804688 C-30.2612967 214.33761741 -24.12860232 208.17086689 -18 202 C-19.56380965 198.70628088 -21.24716295 196.50688351 -23.84375 193.92578125 C-24.59527344 193.17619141 -25.34679687 192.42660156 -26.12109375 191.65429688 C-26.90613281 190.88150391 -27.69117188 190.10871094 -28.5 189.3125 C-29.28503906 188.52810547 -30.07007813 187.74371094 -30.87890625 186.93554688 C-34.59448109 183.00663013 -34.59448109 183.00663013 -39 180 C-39.25072266 180.57524414 -39.50144531 181.15048828 -39.75976562 181.74316406 C-41.16728827 184.30441196 -42.78170025 186.04057392 -44.84375 188.109375 C-45.59527344 188.86347656 -46.34679687 189.61757813 -47.12109375 190.39453125 C-47.90613281 191.17183594 -48.69117188 191.94914063 -49.5 192.75 C-50.28503906 193.54277344 -51.07007813 194.33554687 -51.87890625 195.15234375 C-52.63042969 195.90128906 -53.38195312 196.65023437 -54.15625 197.421875 C-54.84525391 198.10862305 -55.53425781 198.79537109 -56.24414062 199.50292969 C-58 201 -58 201 -60 201 C-60.74757038 191.16350584 -61.31269722 181.33389585 -61.6579895 171.47461987 C-61.82395575 166.89229012 -62.04756422 162.32955849 -62.4140625 157.75854492 C-64.65143995 129.1043884 -64.65143995 129.1043884 -58.62291718 121.19276428 C-51.34269802 113.8219665 -41.54415941 109.75635383 -32.13021851 105.83111572 C-25.5701225 103.03414575 -19.64917911 99.16244167 -13.625 95.375 C-11.59880709 94.14958081 -9.57059684 92.92748102 -7.5390625 91.7109375 C-6.70584473 91.20868652 -5.87262695 90.70643555 -5.01416016 90.18896484 C-3.70170135 89.41421644 -2.36316784 88.68158392 -1 88 C-0.505 44.44 -0.505 44.44 0 0 Z " fill="#65B0FB" transform="translate(331,88)"/>
<path d="M0 0 C3.07799467 1.14709146 5.81013021 2.78679754 8.61132812 4.47802734 C9.24028992 4.85239929 9.86925171 5.22677124 10.51727295 5.61248779 C12.58290865 6.84391596 14.64401268 8.08271762 16.70507812 9.32177734 C18.1407442 10.17987002 19.57661906 11.03761348 21.01269531 11.89501953 C31.64586095 18.25179367 42.24363765 24.66781224 52.81640625 31.12451172 C53.87794922 31.77226563 54.93949219 32.42001953 56.03320312 33.08740234 C56.93973633 33.64202148 57.84626953 34.19664063 58.78027344 34.76806641 C62.03552214 36.86549792 62.03552214 36.86549792 65.19519043 37.91902161 C68.92346231 39.51452471 71.36163416 40.9087833 74.20507812 43.82177734 C76.60300541 49.98030733 76.09153107 57.05316051 76.08007812 63.55224609 C76.10851294 65.50893107 76.13931311 67.46558297 76.17236328 69.42219543 C76.22608741 73.52093107 76.23245786 77.61658759 76.20898438 81.71557617 C76.19010883 85.90708576 76.24548983 90.08652832 76.37304688 94.27612305 C77.3784586 127.6416272 77.3784586 127.6416272 72.39547729 135.77572632 C67.91533631 140.18639441 62.76549424 142.1858566 56.82000732 143.96115112 C52.82479723 145.27605577 49.51136147 147.43577837 45.99023438 149.69287109 C44.70733391 150.45891506 43.42128527 151.21971237 42.13208008 151.97509766 C41.50000641 152.34880493 40.86793274 152.72251221 40.21670532 153.10754395 C38.88490137 153.8945029 37.55283789 154.68102278 36.22055054 155.46716309 C29.30949473 159.54721451 22.42171976 163.64493915 15.65820312 167.96630859 C14.69261475 168.58127197 13.72702637 169.19623535 12.73217773 169.82983398 C10.97445555 170.95775446 9.2246411 172.09813467 7.48461914 173.25317383 C6.71819092 173.74503174 5.9517627 174.23688965 5.16210938 174.74365234 C4.51218018 175.17258789 3.86225098 175.60152344 3.19262695 176.04345703 C0.43222737 177.12442422 -0.98175596 176.71719672 -3.79492188 175.82177734 C-5.81706953 174.79676248 -7.79879684 173.69036803 -9.74804688 172.53271484 C-10.31680038 172.19753845 -10.88555389 171.86236206 -11.47154236 171.51702881 C-13.33356362 170.4172452 -15.1892373 169.30721387 -17.04492188 168.19677734 C-18.34578088 167.42522604 -19.64697343 166.65423683 -20.94848633 165.88378906 C-24.26669889 163.91673113 -27.57937366 161.94056511 -30.88995361 159.96069336 C-32.69579724 158.88104061 -34.50269618 157.80318208 -36.31005859 156.72607422 C-50.50998083 148.25909165 -50.50998083 148.25909165 -54.29013062 145.87612915 C-56.86733901 144.30142737 -59.49786705 143.0112336 -62.24093628 141.74975586 C-74.14734546 135.93922479 -74.14734546 135.93922479 -76.8901844 130.74938583 C-78.68529904 124.92454571 -78.59839105 118.91914277 -78.57226562 112.87646484 C-78.61242766 110.9374326 -78.65624305 108.99847297 -78.70350647 107.05960083 C-78.77941791 103.00450519 -78.78526474 98.95642275 -78.74584961 94.90087891 C-78.71304271 90.76549948 -78.78894547 86.65634992 -78.97143555 82.52490234 C-80.46182364 48.47495621 -80.46182364 48.47495621 -73.03436279 40.36581421 C-66.51982924 34.47747533 -58.37263119 31.16790197 -50.23416138 28.1550293 C-45.94077697 26.49066043 -42.25668943 24.32886661 -38.43554688 21.79443359 C-37.35144531 21.13233887 -36.26734375 20.47024414 -35.15039062 19.78808594 C-33.61318359 18.84570068 -33.61318359 18.84570068 -32.04492188 17.88427734 C-30.31018083 16.82829149 -28.57445855 15.77393005 -26.83874512 14.71954346 C-22.35145742 11.99348825 -17.87305905 9.25385738 -13.40429688 6.49755859 C-11.86820216 5.56336668 -10.33177493 4.62972117 -8.79492188 3.69677734 C-8.12493164 3.27662354 -7.45494141 2.85646973 -6.76464844 2.42358398 C-2.34789918 -0.23312927 -2.34789918 -0.23312927 0 0 Z " fill="#FD6C53" transform="translate(256.794921875,43.17822265625)"/>
<path d="M0 0 C0.23763233 4.99800965 0.46670599 9.99622713 0.68505859 14.99511719 C0.90162446 19.93466577 1.14800041 24.87196006 1.40478516 29.80957031 C1.73131463 36.20425823 1.96099203 42.5978955 2.11827278 48.99896622 C2.21230224 52.70585791 2.34550971 56.40315449 2.5637207 60.10498047 C3.9338399 84.01225694 3.9338399 84.01225694 -0.77401733 90.4112854 C-5.38704925 94.47408721 -10.67921921 96.76077633 -16.37399292 98.93896484 C-20.25428863 100.50679389 -23.67957921 102.65340643 -27.21484375 104.87109375 C-28.49885906 105.63559741 -29.78515158 106.3962898 -31.07373047 107.15307617 C-42.79639978 114.08346986 -54.48501443 121.04505852 -65.98413086 128.34350586 C-66.76022705 128.83214111 -67.53632324 129.32077637 -68.3359375 129.82421875 C-69.33439697 130.45976685 -69.33439697 130.45976685 -70.35302734 131.1081543 C-72 132 -72 132 -74 132 C-74.37165347 120.70007002 -74.65545634 109.40160495 -74.82899475 98.09679604 C-74.91231641 92.84634385 -75.02516759 87.60008727 -75.20703125 82.35205078 C-75.38164274 77.28121635 -75.47668529 72.21439849 -75.51803589 67.14078903 C-75.5474738 65.21139619 -75.60497612 63.28221021 -75.69168091 61.35454178 C-76.32630063 46.65276493 -76.32630063 46.65276493 -72.43780518 42.21857262 C-68.61295324 39.06948172 -64.40687738 36.87617701 -59.89884663 34.86630154 C-57.39023492 33.72180985 -55.08316963 32.31188099 -52.75 30.84765625 C-51.16782306 29.91730145 -49.58447081 28.98894275 -48 28.0625 C-46.14951166 26.97434583 -44.29926803 25.88577548 -42.44921875 24.796875 C-41.4442334 24.20583984 -40.43924805 23.61480469 -39.40380859 23.00585938 C-33.26000573 19.38532542 -27.12689412 15.74676867 -20.99438477 12.10714722 C-18.83849657 10.82792537 -16.68195658 9.54980734 -14.52539062 8.27172852 C-13.1900646 7.47939611 -11.85477638 6.68699998 -10.51953125 5.89453125 C-9.90487503 5.53051208 -9.29021881 5.16649292 -8.65693665 4.79144287 C-0.59155006 0 -0.59155006 0 0 0 Z " fill="#DA0404" transform="translate(330,88)"/>
<path d="M0 0 C1.24837646 0.76618652 1.24837646 0.76618652 2.52197266 1.54785156 C8.13755384 4.91304369 13.55018267 8.00531783 19.79476929 10.04267883 C28.57085358 12.9244084 38.26576963 16.54897933 43 25 C45.69243499 33.62132702 45.52212415 42.74301692 45.375 51.6875 C45.36329773 52.87621704 45.35159546 54.06493408 45.33953857 55.28967285 C45.26899582 58.74739706 45.10905604 62.18488867 44.8984375 65.63671875 C44.82979492 67.21573219 44.82979492 67.21573219 44.75976562 68.8266449 C44.10296811 75.89158292 44.10296811 75.89158292 41.12210083 78.88717651 C38.81444237 80.45351814 36.48890779 81.74482067 34 83 C32.78284862 83.72823852 31.57026243 84.4641971 30.36376953 85.20996094 C29.20505332 85.88751412 28.04470941 86.56229083 26.8828125 87.234375 C26.25897675 87.59847473 25.63514099 87.96257446 24.99240112 88.33770752 C23.03811689 89.47776541 21.08169648 90.61408824 19.125 91.75 C17.14727702 92.90085927 15.17002626 94.05251927 13.19332886 95.20513916 C11.97308256 95.91639115 10.75218691 96.62653063 9.5305481 97.33538818 C6.96693376 98.82724361 4.46934284 100.35377144 2 102 C-2.67434663 101.74901467 -6.30591408 99.29452321 -10.20703125 96.921875 C-10.89125656 96.51342346 -11.57548187 96.10497192 -12.28044128 95.68414307 C-14.46194615 94.37954821 -16.63718338 93.06488162 -18.8125 91.75 C-20.26328185 90.88085906 -21.71445021 90.01236292 -23.16601562 89.14453125 C-30.68757148 84.63866655 -30.68757148 84.63866655 -33.08395386 83.13446045 C-35.0090456 81.95062827 -35.0090456 81.95062827 -37.19070435 80.98907471 C-40.45494656 79.35757211 -42.5388704 78.20422675 -43.87763977 74.70806885 C-44.3964954 71.7717491 -44.62832022 68.93195672 -44.765625 65.953125 C-44.83154343 64.87277985 -44.89746185 63.79243469 -44.96537781 62.67935181 C-45.13269569 59.2008097 -45.20797721 55.73222219 -45.25 52.25 C-45.27015167 51.07939026 -45.29030334 49.90878052 -45.31106567 48.70269775 C-45.40501855 27.09503117 -45.40501855 27.09503117 -38.92245483 20.52662659 C-32.91853796 15.60066538 -25.72377289 12.8094478 -18.45849609 10.27294922 C-13.80400894 8.55979829 -9.87978258 6.13602926 -5.75 3.4375 C-3.83683114 2.28583596 -1.92083333 1.1388347 0 0 Z " fill="#4253CE" transform="translate(147,327)"/>
<path d="M0 0 C5.85658514 2.8583236 11.57888763 5.80642682 17.12890625 9.22265625 C18.42435325 10.00975267 19.72009904 10.79635747 21.01611328 11.58251953 C21.6723468 11.98174622 22.32858032 12.3809729 23.00469971 12.79229736 C26.28947118 14.78048289 29.59601865 16.73153603 32.90234375 18.68359375 C34.23110831 19.46944562 35.5598026 20.25541634 36.88842773 21.04150391 C37.55155975 21.43380188 38.21469177 21.82609985 38.8979187 22.23028564 C71.56673923 41.56673923 71.56673923 41.56673923 74 44 C74.09516211 46.7388842 74.12554594 49.45247941 74.11352539 52.19165039 C74.11367142 53.05011063 74.11381744 53.90857086 74.1139679 54.79304504 C74.11326847 57.64460738 74.1054747 60.49610525 74.09765625 63.34765625 C74.09579218 65.31920842 74.09436822 67.29076105 74.09336853 69.26231384 C74.08954251 74.46226267 74.07971152 79.66218375 74.06866455 84.86212158 C74.05845222 90.16393661 74.05387129 95.4657561 74.04882812 100.76757812 C74.03808933 111.17839763 74.02101191 121.58919651 74 132 C69.81848023 130.38483069 66.04934782 128.37593458 62.21484375 126.0703125 C61.5656044 125.68382034 60.91636505 125.29732819 60.24745178 124.89912415 C58.14202763 123.64457585 56.03971562 122.38491605 53.9375 121.125 C52.48258675 120.2563156 51.02750769 119.38790885 49.57226562 118.51977539 C46.01330754 116.3955442 42.45686092 114.26714816 38.90106201 112.13763428 C36.2707206 110.56358433 33.63735105 108.9946322 31.00390625 107.42578125 C23.23121686 102.78870708 15.49308862 98.10081315 7.8125 93.3125 C7.13380859 92.88960693 6.45511719 92.46671387 5.75585938 92.03100586 C1.12710781 89.12710781 1.12710781 89.12710781 0 88 C-0.09516211 85.2611158 -0.12554594 82.54752059 -0.11352539 79.80834961 C-0.11367142 78.94988937 -0.11381744 78.09142914 -0.1139679 77.20695496 C-0.11326847 74.35539262 -0.1054747 71.50389475 -0.09765625 68.65234375 C-0.09579218 66.68079158 -0.09436822 64.70923895 -0.09336853 62.73768616 C-0.08954251 57.53773733 -0.07971152 52.33781625 -0.06866455 47.13787842 C-0.05845222 41.83606339 -0.05387129 36.5342439 -0.04882812 31.23242188 C-0.03808933 20.82160237 -0.02101191 10.41080349 0 0 Z " fill="#FE432E" transform="translate(182,88)"/>
<path d="M0 0 C4.2877031 1.71508124 7.26429719 3.4452127 10.9375 6.07421875 C13.74550499 7.33463008 15.09511748 6.94331542 18 6 C20.6388948 4.61280584 20.6388948 4.61280584 23.1875 2.9375 C27.79764706 0 27.79764706 0 30 0 C30 25.41 30 50.82 30 77 C34.97382334 72.64790458 39.79875415 68.36206628 44.4375 63.6875 C44.96537109 63.16349609 45.49324219 62.63949219 46.03710938 62.09960938 C48.86976913 59.31556864 48.86976913 59.31556864 51 56 C54.46629835 57.48653506 56.69022036 59.45722351 59.328125 62.1328125 C60.12734375 62.93847656 60.9265625 63.74414062 61.75 64.57421875 C62.575 65.41597656 63.4 66.25773437 64.25 67.125 C65.09046875 67.97449219 65.9309375 68.82398438 66.796875 69.69921875 C68.86915683 71.79504923 70.93662393 73.89540713 73 76 C71.40752446 79.93467549 68.69337631 82.57577776 65.72412109 85.50292969 C65.18738266 86.03996017 64.65064423 86.57699066 64.09764099 87.1302948 C62.32760717 88.89893859 60.55060143 90.66039824 58.7734375 92.421875 C57.54274656 93.64883466 56.3124973 94.87623749 55.08267212 96.10406494 C51.84843484 99.33067488 48.60823592 102.55123291 45.36676025 105.77056885 C42.05859466 109.05825672 38.75610054 112.35163068 35.453125 115.64453125 C28.97428921 122.10193298 22.48914131 128.55295568 16 135 C12.06532451 133.40752446 9.42422224 130.69337631 6.49707031 127.72412109 C5.96003983 127.18738266 5.42300934 126.65064423 4.8697052 126.09764099 C3.10106141 124.32760717 1.33960176 122.55060143 -0.421875 120.7734375 C-1.64883466 119.54274656 -2.87623749 118.3124973 -4.10406494 117.08267212 C-7.33067488 113.84843484 -10.55123291 110.60823592 -13.77056885 107.36676025 C-17.05825672 104.05859466 -20.35163068 100.75610054 -23.64453125 97.453125 C-30.10193298 90.97428921 -36.55295568 84.48914131 -43 78 C-39.81597912 74.23327844 -36.63838094 70.50997409 -33.1328125 67.03515625 C-32.47539062 66.38095703 -31.81796875 65.72675781 -31.140625 65.05273438 C-30.47546875 64.39595703 -29.8103125 63.73917969 -29.125 63.0625 C-28.43664062 62.37865234 -27.74828125 61.69480469 -27.0390625 60.99023438 C-25.36167911 59.32449948 -23.68116658 57.66191658 -22 56 C-14.66051951 62.29098328 -7.83536555 69.16463445 -1 76 C-0.67 50.92 -0.34 25.84 0 0 Z " fill="#E8ECF4" transform="translate(241,212)"/>
<path d="M0 0 C4.06249741 1.56966038 7.61026368 3.46330534 11.33203125 5.73828125 C11.92747238 6.10092575 12.52291351 6.46357025 13.13639832 6.83720398 C15.03062413 7.99208973 16.92156007 9.15224379 18.8125 10.3125 C20.07075659 11.08041732 21.32921838 11.84799852 22.58789062 12.61523438 C23.20002411 12.989133 23.81215759 13.36303162 24.44284058 13.7482605 C25.65280901 14.48683104 26.86367553 15.22393246 28.07546997 15.95950317 C30.57752646 17.4843355 33.04486222 19.03089123 35.45849609 20.69287109 C39.29308319 23.37075737 39.29308319 23.37075737 43.82275391 23.84375 C47.48192244 22.8720206 50.11312591 21.39853709 53.32421875 19.39453125 C53.91112991 19.03284348 54.49804108 18.6711557 55.10273743 18.29850769 C56.97013549 17.14557782 58.82905778 15.97980001 60.6875 14.8125 C63.12625116 13.29387436 65.56835626 11.78072437 68.01171875 10.26953125 C68.60201874 9.903367 69.19231873 9.53720276 69.80050659 9.15994263 C75.0901086 5.89885287 80.5112764 2.91236291 86 0 C86.33067827 7.1153797 86.55766744 14.22877207 86.71411133 21.35009766 C86.77933797 23.76979584 86.86794946 26.18898442 86.98071289 28.60693359 C87.8898247 48.6073935 87.8898247 48.6073935 83.55810547 54.09155273 C80.72618367 55.83090278 78.0139114 57.11738777 74.89022827 58.23944092 C71.59120933 59.56684611 68.73933431 61.58492335 65.78125 63.53515625 C64.57267771 64.29220054 63.36173042 65.04546652 62.1484375 65.79492188 C60.30243228 66.93937567 58.45988815 68.08795399 56.62597656 69.25170898 C54.81103435 70.40182069 52.98525776 71.53258691 51.15625 72.66015625 C50.09212891 73.32668213 49.02800781 73.99320801 47.93164062 74.67993164 C44.50091728 76.22472854 43.48219676 76.30785333 40 75 C37.53172762 73.70066517 35.17109884 72.36824686 32.79296875 70.921875 C32.10874344 70.51342346 31.42451813 70.10497192 30.71955872 69.68414307 C28.53805385 68.37954821 26.36281662 67.06488162 24.1875 65.75 C22.73671815 64.88085906 21.28554979 64.01236292 19.83398438 63.14453125 C12.26743546 58.61171301 12.26743546 58.61171301 9.91989136 57.13212585 C7.98974478 55.94479346 7.98974478 55.94479346 5.77468872 55.01008606 C3.43002886 53.86993755 1.78812617 52.90488505 0 51 C-1.10677528 47.11040574 -0.93342063 43.37164126 -0.78125 39.35546875 C-0.76993042 38.2305452 -0.75861084 37.10562164 -0.74694824 35.9466095 C-0.70221308 32.3584971 -0.60184465 28.77440142 -0.5 25.1875 C-0.45986981 22.75331297 -0.42336826 20.31906322 -0.390625 17.88476562 C-0.3024873 11.92180985 -0.16867644 5.96119182 0 0 Z " fill="#4253CE" transform="translate(213,373)"/>
<path d="M0 0 C0.40776938 7.07805815 0.68663385 14.15307376 0.87890625 21.24023438 C0.95907728 23.64665824 1.0680637 26.05230944 1.20703125 28.45605469 C2.29566427 47.77929074 2.29566427 47.77929074 -1.40957642 52.97756958 C-5.07693956 56.30986501 -9.31988472 58.2300683 -13.87310791 60.08166504 C-17.11809624 61.48276397 -19.89908939 63.35495169 -22.85546875 65.29296875 C-24.96534542 66.59244631 -27.07600876 67.89064757 -29.1875 69.1875 C-30.26580078 69.86619141 -31.34410156 70.54488281 -32.45507812 71.24414062 C-33.49470703 71.87900391 -34.53433594 72.51386719 -35.60546875 73.16796875 C-36.98448364 74.02297974 -36.98448364 74.02297974 -38.39135742 74.89526367 C-41.61049612 76.25853954 -42.72297045 76.16759281 -46 75 C-48.47965904 73.70077424 -50.85235309 72.36837411 -53.2421875 70.921875 C-53.92878448 70.51342346 -54.61538147 70.10497192 -55.32278442 69.68414307 C-56.77208879 68.82003697 -58.21930717 67.95242378 -59.66455078 67.08154297 C-61.85634393 65.76123815 -64.05443302 64.45199315 -66.25390625 63.14453125 C-67.66705341 62.30012607 -69.07982606 61.45509373 -70.4921875 60.609375 C-71.14033417 60.22271667 -71.78848083 59.83605835 -72.45626831 59.43768311 C-73.703236 58.6847248 -74.94124955 57.91670579 -76.16911316 57.13298035 C-77.99558853 55.96423651 -77.99558853 55.96423651 -79.99946594 55.00239563 C-82.09491153 53.83196522 -83.48570121 52.86969825 -85 51 C-85.96096576 47.18136341 -85.81608821 43.49042262 -85.68359375 39.57421875 C-85.67368912 38.47149124 -85.66378448 37.36876373 -85.65357971 36.23262024 C-85.61444542 32.71621791 -85.52661747 29.20295605 -85.4375 25.6875 C-85.40238526 23.30147742 -85.37044655 20.91540584 -85.34179688 18.52929688 C-85.26468678 12.68512941 -85.14760579 6.84278903 -85 1 C-80.86816065 2.51347655 -77.15354883 4.53965151 -73.37890625 6.7734375 C-72.75652573 7.13845367 -72.1341452 7.50346985 -71.49290466 7.87954712 C-70.1817207 8.64949783 -68.87152074 9.42112643 -67.56225586 10.19433594 C-65.5744373 11.36795217 -63.58340841 12.53595945 -61.59179688 13.703125 C-60.31230587 14.45539908 -59.03300279 15.2079929 -57.75390625 15.9609375 C-57.16621964 16.3058725 -56.57853302 16.6508075 -55.97303772 17.00619507 C-53.17179174 18.66304895 -50.54837988 20.34310248 -47.95288086 22.31494141 C-45.1448101 24.23933937 -45.1448101 24.23933937 -42.0859375 24.00708008 C-38.28463287 22.76654356 -35.0155809 20.96169019 -31.625 18.88671875 C-30.59366943 18.27048393 -30.59366943 18.27048393 -29.54150391 17.64179993 C-27.35556384 16.33251549 -25.17789955 15.01010618 -23 13.6875 C-21.53696079 12.80970887 -20.07342348 11.93274738 -18.609375 11.05664062 C-11.01939043 6.52365895 -11.01939043 6.52365895 -3.6015625 1.71801758 C-1 0 -1 0 0 0 Z " fill="#354CBC" transform="translate(407,353)"/>
<path d="M0 0 C3.86140222 1.43405845 7.29785785 3.23146925 10.84765625 5.31640625 C11.408479 5.64488052 11.96930176 5.9733548 12.54711914 6.31178284 C14.38779854 7.39162898 16.22524122 8.47684573 18.0625 9.5625 C19.35143868 10.32087292 20.64042046 11.07917258 21.92944336 11.83740234 C32.16143971 17.86745823 42.32602413 24.00700048 52.45922852 30.20141602 C53.53615967 30.85940186 54.61309082 31.5173877 55.72265625 32.1953125 C56.75632324 32.84008545 57.78999023 33.4848584 58.85498047 34.14916992 C61.99727977 36.06250608 61.99727977 36.06250608 65.44580078 37.6262207 C73.49962611 41.56062882 73.49962611 41.56062882 74.93969727 45.703125 C75.18363651 48.86740952 75.05577086 51.77982785 74.75 54.9375 C74.66878906 56.53561523 74.66878906 56.53561523 74.5859375 58.16601562 C74.44496376 60.78577755 74.24861148 63.38862323 74 66 C73.67 66 73.34 66 73 66 C72.505 55.605 72.505 55.605 72 45 C55.07530235 55.01194776 38.171407 65.05225453 21.38964844 75.30249023 C0.57716508 88 0.57716508 88 -1 88 C-1.13506612 58.64909316 -0.83301998 29.33958392 0 0 Z " fill="#FE432E" transform="translate(257,44)"/>
<path d="M0 0 C11.35233849 4.5409354 11.35233849 4.5409354 15 8 C16.43882105 12.07736177 16.26850447 15.96080948 16.13525391 20.24755859 C16.13671417 21.47738464 16.13817444 22.70721069 16.13967896 23.9743042 C16.13391606 27.33577596 16.08391271 30.69105411 16.01393938 34.05142927 C15.95128493 37.56662067 15.94554148 41.08190109 15.9336853 44.5975647 C15.90264343 51.24927539 15.82064233 57.89933611 15.72019041 64.55032122 C15.60828748 72.12444764 15.55340277 79.69865427 15.50323606 87.27340198 C15.39880078 102.84988919 15.22299304 118.42473158 15 134 C11.1708839 132.21863094 8.52739853 129.79752195 5.58886719 126.81591797 C5.06159027 126.28893311 4.53431335 125.76194824 3.99105835 125.21899414 C2.25487928 123.48142524 0.525886 121.73688686 -1.203125 119.9921875 C-2.40766437 118.78391678 -3.61264697 117.57608778 -4.8180542 116.36868286 C-7.98548106 113.19362923 -11.14685513 110.01261478 -14.30700684 106.83032227 C-17.53437089 103.58247924 -20.76742228 100.34030867 -24 97.09765625 C-30.33891303 90.73731018 -36.67144624 84.37065247 -43 78 C-39.81597912 74.23327844 -36.63838094 70.50997409 -33.1328125 67.03515625 C-32.47539062 66.38095703 -31.81796875 65.72675781 -31.140625 65.05273438 C-30.47546875 64.39595703 -29.8103125 63.73917969 -29.125 63.0625 C-28.43664062 62.37865234 -27.74828125 61.69480469 -27.0390625 60.99023438 C-25.36167911 59.32449948 -23.68116658 57.66191658 -22 56 C-14.66051951 62.29098328 -7.83536555 69.16463445 -1 76 C-0.67 50.92 -0.34 25.84 0 0 Z " fill="#FDFEFE" transform="translate(241,212)"/>
<path d="M0 0 C9.83644669 5.59144385 19.61990566 11.26795596 29.375 17 C30.70829012 17.78262571 32.04162329 18.56517809 33.375 19.34765625 C36.58382692 21.23093102 39.79208097 23.11517905 43 25 C39.72842474 28.6376617 35.97511884 31.00718846 31.78515625 33.44140625 C31.09240097 33.85035629 30.39964569 34.25930634 29.68589783 34.6806488 C27.48140189 35.98031212 25.27210048 37.27153809 23.0625 38.5625 C21.58105019 39.43368383 20.0999269 40.30542318 18.61914062 41.17773438 C15.89532985 42.78155042 13.16953956 44.38189159 10.44165039 45.97875977 C7.08439955 47.89310505 7.08439955 47.89310505 4.35327148 49.83178711 C2 51 2 51 -0.4074707 50.9128418 C-3.69536399 49.75515906 -6.48268297 48.17645891 -9.48046875 46.39453125 C-10.09336258 46.03284348 -10.70625641 45.6711557 -11.33772278 45.29850769 C-13.2917194 44.14321686 -15.23960802 42.97804786 -17.1875 41.8125 C-18.47682551 41.04817319 -19.76653591 40.28449524 -21.05664062 39.52148438 C-28.0549399 35.37629994 -35.02531247 31.18481252 -42 27 C-42 43.5 -42 60 -42 77 C-42.33 77 -42.66 77 -43 77 C-47.7095339 31.46420778 -47.7095339 31.46420778 -40.49365234 22.06103516 C-34.5333356 16.01480415 -26.32616924 13.01976015 -18.45849609 10.27294922 C-13.80400894 8.55979829 -9.87978258 6.13602926 -5.75 3.4375 C-3.83683114 2.28583596 -1.92083333 1.1388347 0 0 Z " fill="#7484F1" transform="translate(147,327)"/>
<path d="M0 0 C2.54040021 1.29946413 4.91823241 2.62411569 7.33984375 4.11328125 C8.02502579 4.52410446 8.71020782 4.93492767 9.41615295 5.35820007 C11.59542384 6.66743736 13.7665264 7.98955919 15.9375 9.3125 C17.39204106 10.19034363 18.84711463 11.06730556 20.30273438 11.94335938 C22.3644201 13.18427713 24.4253089 14.42629883 26.48191833 15.6756134 C30.61736823 18.18621501 34.79046791 20.61551338 39 23 C35.72842474 26.6376617 31.97511884 29.00718846 27.78515625 31.44140625 C27.09240097 31.85035629 26.39964569 32.25930634 25.68589783 32.6806488 C23.48140189 33.98031212 21.27210048 35.27153809 19.0625 36.5625 C17.58105019 37.43368383 16.0999269 38.30542318 14.61914062 39.17773438 C11.89532985 40.78155042 9.16953956 42.38189159 6.44165039 43.97875977 C3.08439955 45.89310505 3.08439955 45.89310505 0.35327148 47.83178711 C-2 49 -2 49 -4.4074707 48.9128418 C-7.69536399 47.75515906 -10.48268297 46.17645891 -13.48046875 44.39453125 C-14.09336258 44.03284348 -14.70625641 43.6711557 -15.33772278 43.29850769 C-17.2917194 42.14321686 -19.23960802 40.97804786 -21.1875 39.8125 C-22.47682551 39.04817319 -23.76653591 38.28449524 -25.05664062 37.52148438 C-32.0549399 33.37629994 -39.02531247 29.18481252 -46 25 C-46 41.5 -46 58 -46 75 C-46.33 75 -46.66 75 -47 75 C-51.71401655 29.42086572 -51.71401655 29.42086572 -44.46142578 20.04492188 C-38.52837873 14.06214613 -30.50313508 11.11071884 -22.67431641 8.43603516 C-17.57596715 6.44344444 -13.37870422 3.57392878 -8.90893555 0.44799805 C-5.25344092 -1.37161913 -3.86621834 -1.22799216 0 0 Z " fill="#5F6AE9" transform="translate(368,329)"/>
<path d="M0 0 C3.95137807 1.0654772 7.1572318 2.87142111 10.61108398 4.99536133 C11.29626602 5.40618454 11.98144806 5.81700775 12.68739319 6.24028015 C14.86666408 7.54951744 17.03776663 8.87163927 19.20874023 10.19458008 C20.66328129 11.07242371 22.11835486 11.94938564 23.57397461 12.82543945 C25.63566033 14.06635721 27.69654913 15.30837891 29.75315857 16.55769348 C33.88860847 19.06829509 38.06170815 21.49759346 42.27124023 23.88208008 C39.14036299 27.3217365 35.83786204 29.4966981 31.81811523 31.81567383 C30.88953705 32.35539574 30.88953705 32.35539574 29.94219971 32.90602112 C27.97189543 34.04977739 25.99682907 35.18498072 24.02124023 36.31958008 C22.06534148 37.44976769 20.11048575 38.58172527 18.15637207 39.71499634 C16.89815779 40.44359461 15.63848936 41.16968799 14.37731934 41.89315796 C11.0505269 43.80919712 7.83616053 45.82255678 4.66186523 47.97973633 C1.27124023 49.88208008 1.27124023 49.88208008 -1.03564453 49.72412109 C-4.41182265 48.66851069 -7.15971001 47.1071948 -10.20922852 45.31176758 C-10.82212234 44.95245148 -11.43501617 44.59313538 -12.06648254 44.22293091 C-13.3619341 43.46137245 -14.65533099 42.6963094 -15.94677734 41.92797852 C-17.8880476 40.7738528 -19.83600613 39.63179267 -21.78540039 38.49145508 C-28.9920391 34.25136231 -35.9734276 29.82365454 -42.72875977 24.88208008 C-38.82014412 21.58386381 -34.74281982 18.97641606 -30.34594727 16.40551758 C-29.64986359 15.99419586 -28.95377991 15.58287415 -28.23660278 15.15908813 C-26.0277801 13.85477458 -23.8159119 12.55573727 -21.60375977 11.25708008 C-19.38510159 9.95023219 -17.16708793 8.64230061 -14.94949341 7.33364868 C-13.57351909 6.52212546 -12.19681802 5.7118329 -10.81930542 4.90292358 C-2.31642607 -0.10010144 -2.31642607 -0.10010144 0 0 Z " fill="#5F6AE9" transform="translate(256.728759765625,348.117919921875)"/>
<path d="M0 0 C0.33067827 7.1153797 0.55766744 14.22877207 0.71411133 21.35009766 C0.77933797 23.76979584 0.86794946 26.18898442 0.98071289 28.60693359 C1.88947313 48.5996588 1.88947313 48.5996588 -2.43530273 54.09375 C-5.26590201 55.83658825 -7.97434586 57.12387648 -11.10006714 58.24267578 C-14.42482196 59.56794227 -17.32523395 61.5684818 -20.32421875 63.5 C-21.54677389 64.25204762 -22.77138943 65.0007561 -23.99804688 65.74609375 C-25.86702026 66.88701513 -27.73509317 68.02926661 -29.6003418 69.17626953 C-31.44328333 70.30918862 -33.28958819 71.43642741 -35.13671875 72.5625 C-36.21655029 73.22378906 -37.29638184 73.88507813 -38.40893555 74.56640625 C-41 76 -41 76 -43 76 C-43.25416769 69.00819831 -43.42891409 62.01759153 -43.54931641 55.0222168 C-43.5995171 52.64448539 -43.66769616 50.26706135 -43.75439453 47.89038086 C-43.87613836 44.4665146 -43.93249384 41.04673385 -43.9765625 37.62109375 C-44.02817535 36.56353378 -44.07978821 35.50597382 -44.13296509 34.41636658 C-44.13630727 29.98920533 -44.11430272 27.1606969 -40.96086121 23.8759613 C-38.38561896 22.04138912 -35.78343911 20.49671039 -33 19 C-31.74733461 18.22995509 -30.4970349 17.45603439 -29.25024414 16.67651367 C-28.0977421 16.00265759 -26.94269356 15.33313816 -25.78515625 14.66796875 C-25.16273544 14.30528397 -24.54031464 13.94259918 -23.89903259 13.56892395 C-21.95588715 12.43764996 -20.00938729 11.31231965 -18.0625 10.1875 C-16.09135886 9.04359661 -14.12094578 7.89845377 -12.15098572 6.7525177 C-10.3832596 5.72499319 -8.61368015 4.70065902 -6.84399414 3.67651367 C-0.60725208 0 -0.60725208 0 0 0 Z " fill="#354CBC" transform="translate(299,373)"/>
<path d="M0 0 C0 16.5 0 33 0 50 C-4.38199892 48.24720043 -8.27483327 46.21316951 -12.3125 43.82421875 C-13.00384033 43.41718216 -13.69518066 43.01014557 -14.4074707 42.59077454 C-15.86424026 41.73111565 -17.31986777 40.86951884 -18.77441406 40.00610352 C-20.98816209 38.69451367 -23.20865695 37.39491251 -25.4296875 36.09570312 C-26.84938875 35.25593557 -28.26867365 34.41546365 -29.6875 33.57421875 C-30.34596924 33.19069748 -31.00443848 32.80717621 -31.68286133 32.41203308 C-35.70332168 30.00573151 -38.81975854 27.44665509 -42 24 C-41.07251953 23.45061768 -40.14503906 22.90123535 -39.18945312 22.33520508 C-35.71492235 20.27676242 -32.24114329 18.21705403 -28.76757812 16.15698242 C-27.27038385 15.2692726 -25.77299189 14.38189609 -24.27539062 13.49487305 C-22.11014284 12.21232461 -19.94563305 10.92853831 -17.78125 9.64453125 C-17.12257935 9.25473587 -16.46390869 8.86494049 -15.78527832 8.46333313 C-11.69203941 6.03309329 -7.66260951 3.5260519 -3.67175293 0.9304657 C-2 0 -2 0 0 0 Z " fill="#7484F1" transform="translate(256,348)"/>
<path d="M0 0 C8.94280269 5.08816112 17.85643136 10.22295511 26.73217773 15.42724609 C29.17412346 16.85847319 31.6182426 18.28597283 34.06263733 19.7130127 C35.26660507 20.42112549 36.46690759 21.13550996 37.66331482 21.85632324 C40.65001737 23.65363188 43.63696055 25.33840515 46.76782227 26.87304688 C55.38837713 31.26870912 55.38837713 31.26870912 57.01635742 35.87695312 C57.28165936 39.18235433 57.14581915 42.20230993 56.8125 45.5 C56.75384766 46.60859375 56.69519531 47.7171875 56.63476562 48.859375 C56.48217678 51.58249896 56.26963804 54.28638831 56 57 C49.4909572 51.63404477 43.55865719 45.72246515 37.59765625 39.765625 C36.50914068 38.68032749 35.420552 37.59510329 34.33189392 36.50994873 C32.06511334 34.24912104 29.80037343 31.98627168 27.53686523 29.72216797 C24.63097687 26.81617721 21.71822295 23.91717205 18.80373478 21.01980972 C16.56049857 18.78765545 14.32178495 16.55100822 12.08434868 14.31304169 C11.01140909 13.24128425 9.93684279 12.17115282 8.86064339 11.10266876 C7.36465146 9.61641677 5.87506016 8.12403331 4.38696289 6.62988281 C3.53759659 5.78194153 2.68823029 4.93400024 1.81312561 4.06036377 C0 2 0 2 0 0 Z " fill="#67B0F9" transform="translate(185,178)"/>
</svg>
