<svg viewBox="0 0 100 100" xmlns="http://www.w3.org/2000/svg"><circle cx="50" cy="50" fill="#d71e00" r="50"/><path d="m85.36 14.64a50 50 0 0 1 -70.72 70.72z" fill="#c21a00"/><path d="m58.79 32.55a19.22 19.22 0 0 1 5.62 4l10.42-3.79a29.77 29.77 0 0 0 -53.92 19.63l10.42-3.79a19.29 19.29 0 0 1 27.46-16.05" fill="#fff"/><path d="m26.72 55.51-9.89 3.61a30.05 30.05 0 0 0 4.65 10.08l10.39-3.78a19.54 19.54 0 0 1 -5.15-9.91" fill="#fff"/><path d="m72.46 38.87-9.9 3.6a19.39 19.39 0 0 1 2.44 10.9l10.4-3.78a30.22 30.22 0 0 0 -2.92-10.72" fill="#fff"/><path d="m35.63 49.11a16.24 16.24 0 0 1 0-2.09l-10.38 3.79c.05.67.14 1.33.24 2z" fill="#c3c3c3"/><path d="m35.62 48.2c0-.4 0-.79.05-1.18-.03.39-.05.78-.05 1.18z" fill="#d5d5d5"/><path d="m35.62 48.62v.49l-10.13 3.69c-.1-.66-.19-1.32-.24-2a30.5 30.5 0 0 0 .82 4.94l9.9-3.6a19.83 19.83 0 0 1 -.35-3.52z" fill="#d5d5d5"/><path d="m80.19 32.76c-.32-.53-.66-1.06-1-1.57l-10.44 3.81a17.85 17.85 0 0 1 1.25 1.46z" fill="#c3c3c3"/><path d="m80.18 32.76-10.18 3.7a21 21 0 0 1 1.78 2.64l9.89-3.6a29.32 29.32 0 0 0 -1.49-2.74z" fill="#d5d5d5"/><path d="m68.75 35 10.41-3.79z" fill="#d5d5d5"/><path d="m26.39 67.42a29.9 29.9 0 0 0 2.61 3.21l11.32-4.12a19.33 19.33 0 0 1 -3.57-2.88zm53.9-19.62-10.4 3.78a19 19 0 0 1 -.89 4.48l11.32-4.13a30 30 0 0 0 0-4.13" fill="#d5d5d5"/><g fill="#fff"><path d="m69 56.06c.1-.29.18-.58.26-.87a19 19 0 0 1 -1.13 3.08 19.36 19.36 0 0 1 -25.72 9.36 18.43 18.43 0 0 1 -2.3-1.3l.24.18-11.3 4.12a29.49 29.49 0 0 0 9 6.47 29.84 29.84 0 0 0 39.6-14.42 29.49 29.49 0 0 0 2.71-10.75z"/><path d="m27.61 69c-.42-.51-.83-1-1.22-1.58.39.58.8 1.07 1.22 1.58z"/><path d="m80.29 47.8c0 .67.08 1.33.09 2-.01-.67-.04-1.34-.09-2z"/><path d="m29 70.52c-.36-.37-.7-.76-1-1.16.25.4.59.79 1 1.16z"/><path d="m69.38 54.77c.1-.42.19-.85.27-1.28-.08.43-.17.86-.27 1.28z"/><path d="m80.33 51.83c0-.55 0-1.1 0-1.65.04.55.03 1.1 0 1.65z"/><path d="m38.73 65.35-.41-.35z"/><path d="m69.72 53.06c.07-.49.14-1 .17-1.46-.03.48-.1.97-.17 1.46z"/></g></svg>