<?xml version="1.0" encoding="UTF-8"?>
<svg version="1.1" xmlns="http://www.w3.org/2000/svg" width="300" height="300">
<path d="M0 0 C9.06437934 7.65756208 13.90503954 15.29518833 15.125 27.3125 C15.64159751 38.32894198 12.27568335 45.71147497 6.25 54.75 C5.59 54.75 4.93 54.75 4.25 54.75 C4.25 55.41 4.25 56.07 4.25 56.75 C2.08984375 58.40625 2.08984375 58.40625 -0.8125 60.25 C-1.75222656 60.8584375 -2.69195312 61.466875 -3.66015625 62.09375 C-9.54821559 65.24992846 -15.0825375 66.07643158 -21.6875 66 C-22.68426758 66.01160156 -22.68426758 66.01160156 -23.70117188 66.0234375 C-27.35270713 66.00927053 -30.09676686 65.64332229 -33.50741577 64.31948853 C-36.14033683 63.65207685 -37.25561209 63.49342272 -39.69205093 64.75788498 C-41.82524479 66.51788283 -43.73948568 68.3885984 -45.66650391 70.37255859 C-46.41215607 71.10068756 -47.15780823 71.82881653 -47.92605591 72.57901001 C-50.3853273 74.99424591 -52.80618553 77.44426998 -55.2265625 79.8984375 C-56.92239774 81.58753774 -58.61971519 83.27515106 -60.31845093 84.96133423 C-63.87350421 88.50163855 -67.40982716 92.05941462 -70.93408203 95.63037109 C-75.45587176 100.2091385 -80.02107699 104.74154174 -84.6012516 109.26181602 C-88.1143619 112.73881057 -91.60332826 116.23924857 -95.08543015 119.74727249 C-96.7598484 121.42836721 -98.44174255 123.10204941 -100.13109207 124.76813889 C-102.48825275 127.09992977 -104.81101796 129.46132547 -107.12744141 131.83349609 C-108.18535889 132.86105011 -108.18535889 132.86105011 -109.26464844 133.90936279 C-112.74811012 137.36216196 -112.74811012 137.36216196 -113.71747017 141.93839836 C-113.16059631 144.38909453 -113.16059631 144.38909453 -111.75 147.75 C-110.29137704 159.34789112 -111.86314626 169.23919069 -118.4375 179 C-125.11802482 187.26319279 -134.93954764 191.58497058 -145.31640625 193.1328125 C-154.63597337 193.5815878 -163.85772858 190.3086796 -171.0078125 184.375 C-178.16638479 177.69794603 -183.15521339 169.85818753 -183.98828125 159.90234375 C-184.258763 148.1862132 -181.37347445 138.98141763 -173.4375 130.1875 C-165.05349786 122.58340504 -156.6103018 119.17899138 -145.1015625 119.5078125 C-142.78426218 119.74647134 -140.6820686 120.19881645 -138.4375 120.8125 C-134.57851165 121.79359873 -133.40876101 122.06756288 -129.75 120.75 C-127.08400683 118.69458643 -124.74814495 116.33557158 -122.37353516 113.95458984 C-121.64943451 113.24392365 -120.92533386 112.53325745 -120.17929077 111.80105591 C-117.78849473 109.44826229 -115.41307874 107.08065366 -113.0390625 104.7109375 C-111.3850123 103.06973792 -109.73066041 101.42884234 -108.07601929 99.78823853 C-104.61072736 96.34690108 -101.15380975 92.89738949 -97.70166016 89.44287109 C-93.27289909 85.01370306 -88.81724445 80.61270778 -84.35401344 76.21831322 C-80.92947645 72.83820421 -77.52322802 69.44011752 -74.12189865 66.03667068 C-72.48641563 64.40591409 -70.84442808 62.78165437 -69.19594193 61.16404343 C-66.89457643 58.90178714 -64.61985373 56.61568623 -62.35009766 54.32177734 C-61.66240295 53.65656067 -60.97470825 52.99134399 -60.26617432 52.30596924 C-58.5203293 50.51242151 -57.0270567 48.90272612 -55.75 46.75 C-55.62695823 42.97140156 -55.62695823 42.97140156 -56.75 39.75 C-59.3452042 29.8511497 -58.17638914 19.8133651 -53.15625 10.9296875 C-47.9002329 3.02412079 -41.07392658 -2.85407536 -31.875 -5.6875 C-20.6266026 -7.76199952 -9.32469121 -6.91581264 0 0 Z " fill="#414042" transform="translate(278.75,8.25)"/>
<path d="M0 0 C3.09352789 1.37819578 3.92293455 3.45363279 5.57495117 6.3762207 C6.06362167 7.22635239 6.06362167 7.22635239 6.56216431 8.09365845 C7.26717435 9.32309906 7.96642416 10.55585672 8.66055298 11.79147339 C10.13586774 14.41712315 11.63867808 17.02662168 13.14073181 19.63703918 C13.92304552 20.99677419 14.70400172 22.35729106 15.48365784 23.71855164 C19.66282261 31.00325104 24.00684097 38.18470515 28.37573242 45.35668945 C29.09349238 46.53934681 29.81118617 47.72204434 30.52880859 48.90478516 C33.61688265 53.97802305 36.74634183 58.99319987 40.06323242 63.91918945 C39.03971987 67.28109198 37.89948917 68.016529 34.81713867 69.84887695 C33.42802074 70.5143166 32.03014281 71.16166275 30.62573242 71.79418945 C29.87654541 72.13788574 29.1273584 72.48158203 28.35546875 72.83569336 C16.209064 78.24553158 3.31804666 82.47559582 -9.93676758 83.91918945 C-11.44303711 84.08354492 -11.44303711 84.08354492 -12.97973633 84.2512207 C-34.2607855 86.27413412 -56.33775197 83.8231131 -75.93676758 74.91918945 C-75.24536035 70.47190392 -73.68384562 66.49346778 -71.97973633 62.35668945 C-71.53078003 61.25191254 -71.53078003 61.25191254 -71.07275391 60.12481689 C-70.09447553 57.72105615 -69.10969463 55.32002753 -68.12426758 52.91918945 C-67.44670942 51.26140611 -66.76938387 49.60352769 -66.09228516 47.94555664 C-64.71501225 44.57563226 -63.33467873 41.20698222 -61.95239258 37.83911133 C-60.35945585 33.95570967 -58.77761708 30.06794987 -57.20170593 26.1776123 C-56.10475533 23.47218419 -55.00211148 20.76910472 -53.89785767 18.06665039 C-53.38328852 16.80451574 -52.87088703 15.54149511 -52.36068726 14.27758789 C-51.65676621 12.53573166 -50.9435107 10.79765625 -50.22973633 9.05981445 C-49.83294678 8.08560547 -49.43615723 7.11139648 -49.02734375 6.10766602 C-47.93676758 3.91918945 -47.93676758 3.91918945 -45.93676758 2.91918945 C-44.54473572 3.34635803 -43.17229195 3.83784541 -41.81176758 4.35668945 C-29.8109781 8.1199428 -15.63150661 6.76655897 -4.43676758 1.16918945 C-1.93676758 -0.08081055 -1.93676758 -0.08081055 0 0 Z " fill="#93D500" transform="translate(157.936767578125,209.080810546875)"/>
<path d="M0 0 C3.7998095 1.5787189 6.24222178 3.97021463 9.15161133 6.84521484 C9.65123383 7.33651382 10.15085632 7.82781281 10.6656189 8.33399963 C12.30988003 9.95422883 13.9464399 11.58195955 15.58203125 13.2109375 C16.72206651 14.34200575 17.8621789 15.47299627 19.00236511 16.60391235 C21.38738548 18.97246189 23.76799358 21.34535338 26.14624023 23.72070312 C29.19909631 26.7681579 32.26780373 29.79910468 35.34065723 32.82637596 C37.69874375 35.15478148 40.04555772 37.4942991 42.38934898 39.83708572 C43.51643575 40.95995728 44.64765787 42.07869342 45.78299904 43.19321823 C47.36581192 44.74928529 48.93217217 46.320251 50.49536133 47.89599609 C51.39152664 48.78709076 52.28769196 49.67818542 53.21101379 50.59628296 C55 53 55 53 54.8745575 55.17984009 C53.73119912 57.55943787 52.28578246 59.52361792 50.6875 61.625 C43.78564972 71.32146451 42.42190693 79.89046533 40 92 C14.59 92 -10.82 92 -37 92 C-37 74.56367261 -37 74.56367261 -35.3125 67 C-35.13170898 66.1553418 -34.95091797 65.31068359 -34.76464844 64.44042969 C-29.34572263 40.04141621 -17.73693796 17.73693796 0 0 Z " fill="#4C5930" transform="translate(39,73)"/>
<path d="M0 0 C25.41 0 50.82 0 77 0 C77 18.71148184 77 18.71148184 75.4375 25.8125 C75.26041504 26.64378418 75.08333008 27.47506836 74.90087891 28.33154297 C69.44198729 52.48839248 57.72371737 74.58957242 40 92 C36.92306169 90.62702186 34.80542976 89.05785373 32.42480469 86.68359375 C31.74440125 86.00949463 31.0639978 85.33539551 30.36297607 84.64086914 C29.63991272 83.91375732 28.91684937 83.18664551 28.171875 82.4375 C27.42286926 81.69040771 26.67386353 80.94331543 25.90216064 80.17358398 C24.32293796 78.59572081 22.74623226 77.01533501 21.171875 75.43261719 C18.75221054 73.00222035 16.32203811 70.58269939 13.890625 68.1640625 C12.35873303 66.63084948 10.82746128 65.09701648 9.296875 63.5625 C8.56571472 62.83538818 7.83455444 62.10827637 7.08123779 61.35913086 C6.41344299 60.68503174 5.74564819 60.01093262 5.05761719 59.31640625 C4.46567566 58.72287354 3.87373413 58.12934082 3.26385498 57.51782227 C2 56 2 56 2 54 C1.4225 53.7525 0.845 53.505 0.25 53.25 C-2.32939979 51.81700012 -4.06121592 50.21575324 -6 48 C-6 47.34 -6 46.68 -6 46 C-6.556875 45.79375 -7.11375 45.5875 -7.6875 45.375 C-10.92501302 43.44999226 -12.68231141 40.96149098 -15 38 C-13.48228612 34.7617095 -11.62306669 31.89969931 -9.625 28.9375 C-3.64202286 19.55877907 -1.864375 11.18624999 0 0 Z " fill="#6AA439" transform="translate(183,164)"/>
<path d="M0 0 C0.89375839 0.0023616 1.78751678 0.00472321 2.70835876 0.00715637 C3.38604813 0.01019272 4.06373749 0.01322906 4.76196289 0.01635742 C4.78508699 10.03863506 4.80287832 20.06090639 4.81377506 30.08320522 C4.81900375 34.73646929 4.82610112 39.38971516 4.83740234 44.04296875 C4.84823175 48.52980288 4.85423984 53.01661947 4.85684013 57.50346565 C4.85869429 59.21916035 4.86231471 60.93485404 4.86769295 62.65054131 C4.8749041 65.04520655 4.8759538 67.43979838 4.87548828 69.83447266 C4.87908356 70.55088425 4.88267883 71.26729584 4.88638306 72.00541687 C4.87601505 76.90230526 4.87601505 76.90230526 3.76196289 78.01635742 C1.26419855 78.48320147 -1.23165792 78.91398327 -3.73803711 79.32885742 C-9.41079047 80.31408204 -14.39630888 81.54928191 -19.53881836 84.24682617 C-21.23803711 85.01635742 -21.23803711 85.01635742 -24.23803711 85.01635742 C-25.76794509 82.79449936 -27.0676224 80.62345015 -28.36303711 78.26635742 C-29.25115803 76.70373365 -30.14198813 75.14264783 -31.03491211 73.58276367 C-31.53571289 72.70507324 -32.03651367 71.82738281 -32.55249023 70.9230957 C-35.4609118 65.90750081 -38.48851403 60.9642124 -41.50827026 56.01519775 C-43.34512718 53.00354599 -45.17580722 49.98814141 -47.00756836 46.97338867 C-49.062519 43.5927371 -51.11841829 40.21266964 -53.17700195 36.83422852 C-54.88902102 34.02244472 -56.59553492 31.20739971 -58.30053711 28.39135742 C-58.80697754 27.56273193 -59.31341797 26.73410645 -59.83520508 25.88037109 C-60.28911621 25.12860596 -60.74302734 24.37684082 -61.21069336 23.60229492 C-61.60522705 22.95309082 -61.99976074 22.30388672 -62.40625 21.63500977 C-63.23803711 20.01635742 -63.23803711 20.01635742 -63.23803711 18.01635742 C-42.97152236 7.59740589 -23.09302001 -0.07932491 0 0 Z " fill="#6AA439" transform="translate(127.238037109375,34.983642578125)"/>
<path d="M0 0 C4.24135957 1.41378652 5.28466914 4.45249655 7.3125 8.1875 C7.90853027 9.27671753 7.90853027 9.27671753 8.51660156 10.38793945 C15.7986789 23.89516104 19.90021369 37.03046268 23 52 C23.21011719 52.969375 23.42023438 53.93875 23.63671875 54.9375 C24.18907439 59.59391742 24 64.31093613 24 69 C-1.41 69 -26.82 69 -53 69 C-56 56 -56 56 -54.23478699 52.31071472 C-52.81942749 50.82870483 -52.81942749 50.82870483 -51.19995117 49.38354492 C-50.38130836 48.56139748 -50.38130836 48.56139748 -49.54612732 47.72264099 C-47.74703912 45.93463224 -45.89830501 44.20987618 -44.04296875 42.48046875 C-42.77968321 41.24705292 -41.51990423 40.01003629 -40.26350403 38.76960754 C-36.95861131 35.52559804 -33.60855635 32.33249583 -30.246521 29.14788818 C-26.81981014 25.88532628 -23.43835588 22.57657225 -20.05273438 19.27148438 C-13.41182954 12.80180185 -6.72226433 6.38503034 0 0 Z " fill="#4C5930" transform="translate(236,91)"/>
<path d="M0 0 C17.67328782 1.17821919 17.67328782 1.17821919 25.25 3.0625 C26.12914062 3.27801514 27.00828125 3.49353027 27.9140625 3.71557617 C41.71356972 7.29025153 56.79379706 12.92639582 68 22 C68 26.11474616 65.84609823 27.63338992 63.10986328 30.40527344 C62.3292881 31.21300957 62.3292881 31.21300957 61.53294373 32.0370636 C59.80416819 33.81996008 58.06357936 35.59065082 56.3203125 37.359375 C55.42884836 38.26730679 55.42884836 38.26730679 54.51937485 39.19358063 C51.37194404 42.39774624 48.21515438 45.59235409 45.05078125 48.77978516 C41.78722085 52.07093494 38.55757075 55.39335932 35.33464241 58.72423935 C32.84790353 61.28199163 30.33690268 63.81485453 27.81878281 66.34168243 C26.61746072 67.55575577 25.42539242 68.77906035 24.24307632 70.01165009 C14.98757537 79.63471767 14.98757537 79.63471767 10.07415771 80.53771973 C7.50611676 80.31326072 5.41693777 79.87475684 3 79 C2.01 78.67 1.02 78.34 0 78 C0 52.26 0 26.52 0 0 Z " fill="#4C5930" transform="translate(136,35)"/>
<path d="M0 0 C25.74 0 51.48 0 78 0 C81.375 13.5 81.375 13.5 82 19 C81.24195068 19.44166504 80.48390137 19.88333008 79.70288086 20.33837891 C63.0316751 30.05979226 46.44112049 39.89239822 30 50 C28.56380816 50.88152032 27.12761074 51.76303154 25.69140625 52.64453125 C22.79183387 54.42575052 19.89473724 56.21093015 17 58 C13.91046332 55.38221892 12.54830896 52.33262279 10.875 48.6875 C10.35679688 47.57761719 9.83859375 46.46773437 9.3046875 45.32421875 C8.0662636 42.1688333 7.41593048 39.35280545 7 36 C6.01 35.67 5.02 35.34 4 35 C4.66 35 5.32 35 6 35 C5.3503125 33.329375 5.3503125 33.329375 4.6875 31.625 C3.07716693 26.80166903 2.15974176 21.93894287 1.3125 16.9375 C1.18125732 16.18227051 1.05001465 15.42704102 0.91479492 14.64892578 C0.73460815 13.53686768 0.73460815 13.53686768 0.55078125 12.40234375 C0.44419189 11.74741943 0.33760254 11.09249512 0.2277832 10.41772461 C-0.09801698 6.9596333 0 3.47340485 0 0 Z " fill="#92D500" transform="translate(2,169)"/>
<path d="M0 0 C4.50046315 0.25002573 7.41788227 2.41754304 11 5 C9.08589409 10.96330833 6.95625099 16.78164698 4.55859375 22.56640625 C4.07218163 23.74999222 4.07218163 23.74999222 3.57594299 24.95748901 C2.53272623 27.49371127 1.48522277 30.02813629 0.4375 32.5625 C-0.28211167 34.30923941 -1.00151156 36.05606609 -1.72070312 37.80297852 C-7.10994583 50.88406568 -12.53072528 63.95216041 -18 77 C-31.53564686 72.92497167 -43.2314092 63.99367354 -53 54 C-48.13049729 48.14029922 -42.89773872 42.7367377 -37.515625 37.34765625 C-36.17041779 35.99745644 -36.17041779 35.99745644 -34.79803467 34.61997986 C-32.91336764 32.73027345 -31.02761953 30.84172033 -29.14013672 28.95483398 C-26.71841429 26.53321409 -24.30369818 24.1047315 -21.8905983 21.67452335 C-19.58258099 19.35276577 -17.26742749 17.0381463 -14.953125 14.72265625 C-14.08544495 13.84779068 -13.21776489 12.97292511 -12.3237915 12.07154846 C-11.52245789 11.27329147 -10.72112427 10.47503448 -9.89550781 9.65258789 C-9.18968567 8.94534073 -8.48386353 8.23809357 -7.75665283 7.50941467 C-6 6 -6 6 -4 6 C-3.566875 5.071875 -3.566875 5.071875 -3.125 4.125 C-2 2 -2 2 0 0 Z " fill="#4C5930" transform="translate(96,205)"/>
<path d="M0 0 C3.39531723 1.13177241 4.12550184 2.03312013 6.25 4.8125 C6.79140625 5.49957031 7.3328125 6.18664062 7.890625 6.89453125 C9 9 9 9 8.87477112 10.80487061 C7.60492069 13.99140241 5.54269352 15.81544644 3.11303711 18.22753906 C2.35203957 18.98919373 2.35203957 18.98919373 1.57566833 19.76623535 C-0.10009267 21.43990925 -1.78622269 23.10271128 -3.47265625 24.765625 C-4.63773273 25.92510527 -5.80214786 27.08525042 -6.96592712 28.24603271 C-10.02866897 31.29732787 -13.10031331 34.33950625 -16.17388916 37.37988281 C-19.30949644 40.4847856 -22.43661367 43.5982131 -25.56445312 46.7109375 C-31.70135102 52.81567432 -37.84767857 58.91080744 -44 65 C-53.3728146 60.71405068 -59.91936559 48.54623272 -65 40 C-61.21570086 36.8165256 -57.22809345 34.22163328 -52.96875 31.734375 C-52.29638306 31.33728333 -51.62401611 30.94019165 -50.93127441 30.53106689 C-48.78964538 29.26705621 -46.64500681 28.00826854 -44.5 26.75 C-41.69685799 25.10075147 -38.89498638 23.44935793 -36.09375 21.796875 C-35.40723358 21.39210434 -34.72071716 20.98733368 -34.01339722 20.57029724 C-26.11922041 15.90550306 -18.32387491 11.08472661 -10.5546875 6.21484375 C-9.32834382 5.45537572 -8.10179176 4.69624403 -6.875 3.9375 C-6.24335937 3.53595703 -5.61171875 3.13441406 -4.9609375 2.72070312 C-3.35324574 1.73462947 -1.68010289 0.85689458 0 0 Z " fill="#6AA439" transform="translate(85,191)"/>
<path d="M0 0 C6.44690639 5.31014254 12.29949437 11.17126884 18.18359375 17.0859375 C19.24954109 18.15375345 20.31571205 19.22134622 21.38209534 20.28872681 C24.16750139 23.07792318 26.94988929 25.870111 29.73162842 28.66296387 C32.57901064 31.52063575 35.42927986 34.37542502 38.27929688 37.23046875 C43.85567081 42.81751842 49.42885494 48.40773634 55 54 C53.11330208 58.23185106 50.23940979 60.54596387 46.625 63.3125 C45.75875 64.01342773 45.75875 64.01342773 44.875 64.72851562 C40.63736945 68.00348809 40.63736945 68.00348809 38.03710938 67.98925781 C34.89503543 66.46340886 33.94677387 64.13004974 32.2421875 61.12109375 C31.72528351 60.2225618 31.72528351 60.2225618 31.19793701 59.30587769 C30.46127732 58.02226007 29.7303726 56.73532576 29.00469971 55.44546509 C27.4908415 52.75468416 25.94998099 50.07975461 24.41012573 47.40379333 C23.64888109 46.08035868 22.889047 44.75611165 22.13064575 43.43104553 C19.39663772 38.65920189 16.57384506 33.95520506 13.625 29.3125 C13.24988281 28.71856445 12.87476563 28.12462891 12.48828125 27.51269531 C11.73578512 26.32211104 10.98252982 25.13200625 10.22851562 23.94238281 C7.75786289 20.03608051 5.31039195 16.11586597 2.875 12.1875 C2.38854004 11.41510986 1.90208008 10.64271973 1.40087891 9.84692383 C0.95663574 9.12786865 0.51239258 8.40881348 0.0546875 7.66796875 C-0.54110107 6.71313599 -0.54110107 6.71313599 -1.14892578 5.73901367 C-2 4 -2 4 -2 1 C-1.34 0.67 -0.68 0.34 0 0 Z " fill="#4C5930" transform="translate(164,204)"/>
<path d="M0 0 C3.06188634 3.65317365 5.59332525 7.46408824 7.984375 11.57421875 C8.35750824 12.20759659 8.73064148 12.84097443 9.11508179 13.49354553 C10.32995443 15.55631404 11.53990752 17.62192438 12.75 19.6875 C14.44740444 22.57345879 16.14844015 25.45725596 17.8515625 28.33984375 C18.28012543 29.06535431 18.70868835 29.79086487 19.15023804 30.5383606 C21.97575367 35.30778628 24.85057706 40.04355376 27.7734375 44.75390625 C28.14537231 45.35365768 28.51730713 45.95340912 28.9005127 46.57133484 C30.65432464 49.39486993 32.41625189 52.21285044 34.18652344 55.02612305 C34.80817383 56.02297119 35.42982422 57.01981934 36.0703125 58.046875 C36.61445801 58.91151367 37.15860352 59.77615234 37.71923828 60.66699219 C38.90040709 62.81858371 39.55033386 64.60131868 40 67 C35.6606818 67 35.06912169 66.53111182 32.13887024 63.6365509 C31.6576622 63.14096176 31.17645416 62.64537262 30.68066406 62.13476562 C30.16314072 61.61782639 29.64561737 61.10088715 29.1124115 60.56828308 C27.40383127 58.85691569 25.70985452 57.13181589 24.015625 55.40625 C22.83394284 54.21710774 21.65137456 53.02884544 20.46795654 51.84143066 C17.35523736 48.71343719 14.25471607 45.57361805 11.15655518 42.43121338 C7.9931387 39.22688323 4.81837188 36.03384329 1.64453125 32.83984375 C-4.58149509 26.57091485 -10.79469781 20.28943865 -17 14 C-13.73407833 10.69893888 -10.45275723 7.63577124 -6.8125 4.75 C-5.95269531 4.06421875 -5.09289062 3.3784375 -4.20703125 2.671875 C-2 1 -2 1 0 0 Z " fill="#92D500" transform="translate(60,56)"/>
</svg>
