<?xml version="1.0" encoding="UTF-8"?>
<svg version="1.1" xmlns="http://www.w3.org/2000/svg" width="512" height="512">
<path d="M0 0 C1.99165377 -0.00135932 3.98330728 -0.0031422 5.97496033 -0.00531006 C11.32412027 -0.00982134 16.67326066 -0.0081211 22.02242088 -0.00493097 C27.65756655 -0.00237445 33.2927107 -0.00475399 38.92785645 -0.00631714 C48.38566382 -0.00812931 57.84346335 -0.00575763 67.30126953 -0.00097656 C78.18886395 0.00446421 89.07643964 0.00270088 99.9640336 -0.00280297 C109.36251436 -0.00736135 118.76098953 -0.00797137 128.15947104 -0.0053643 C133.75060934 -0.00381646 139.34173887 -0.00356635 144.93287659 -0.00690079 C150.19272793 -0.00981934 155.45255544 -0.00773172 160.71240425 -0.00200653 C162.6266075 -0.00070007 164.54081279 -0.00103636 166.45501518 -0.0032692 C175.83863453 -0.01319384 185.19815214 0.08957912 194.57141113 0.55935669 C195.32486927 0.59599769 196.0783274 0.63263868 196.8546176 0.67039001 C222.97449029 2.13580318 246.7691886 11.40954321 264.82617188 30.75439453 C268.08088267 34.47782582 270.85441582 38.22655272 273.31835938 42.50830078 C274.33531512 44.29984287 274.33531512 44.29984287 276.32617188 46.00439453 C291.19779409 61.80549313 291.41950208 90.99175814 291.88085938 111.14892578 C291.90179531 112.03710306 291.92273125 112.92528034 291.94430161 113.84037209 C292.67279002 146.07447478 292.4759431 178.32887773 292.45474124 210.56911385 C292.4504136 217.91822598 292.45349363 225.26732085 292.45836937 232.61643189 C292.46296161 239.8389728 292.46352235 247.06150647 292.46093071 254.28404838 C292.45940389 258.54223616 292.45907167 262.80041251 292.46246719 267.05859947 C292.47381018 283.62973419 292.38803013 300.18889583 291.89599609 316.75366211 C291.84105578 318.69043713 291.84105578 318.69043713 291.78500557 320.66633892 C290.79826945 350.30721186 282.95532678 377.12903455 260.83789062 398.07470703 C255.49946448 402.88034114 249.54086941 406.5726038 243.32617188 410.12939453 C242.62234375 410.54576172 241.91851562 410.96212891 241.19335938 411.39111328 C221.41272638 422.22336468 198.32563366 422.58293888 176.40185547 422.51757812 C174.07345841 422.52165432 171.74506329 422.52700202 169.41667175 422.5335083 C163.15440132 422.5470616 156.89228092 422.54193368 150.63000822 422.53237104 C144.71175278 422.52549261 138.79351498 422.53077347 132.875259 422.53515263 C120.44247557 422.54366587 108.00975897 422.53393603 95.57698651 422.51775153 C84.95037951 422.50434574 74.32387086 422.50668651 63.69726562 422.52050781 C51.29990547 422.5366251 38.90260354 422.54284887 26.50523436 422.53367102 C19.96341 422.52901904 13.42165312 422.52830114 6.87983322 422.53828049 C0.72855012 422.54701081 -5.42254904 422.54081843 -11.57381248 422.52359772 C-13.81739562 422.51966541 -16.0609945 422.52071027 -18.30457115 422.52738571 C-34.51082918 422.57112258 -50.55691947 421.87718628 -65.98632812 416.37939453 C-66.72286621 416.12480469 -67.4594043 415.87021484 -68.21826172 415.60791016 C-77.90179908 412.13403313 -88.23417862 407.38923377 -95.67382812 400.12939453 C-95.67382812 399.46939453 -95.67382812 398.80939453 -95.67382812 398.12939453 C-96.23714844 397.89607422 -96.80046875 397.66275391 -97.38085938 397.42236328 C-111.66482387 389.36786201 -119.99379686 368.97298861 -124.56835938 354.25048828 C-128.80454192 338.91258596 -128.99192626 323.04316413 -129.08789062 307.25048828 C-129.10683178 305.22820874 -129.12650546 303.20593595 -129.14685059 301.18367004 C-129.19868157 295.76861801 -129.23845118 290.35354324 -129.2751236 284.93836975 C-129.29896699 281.54714426 -129.3261251 278.15596152 -129.35443115 274.76477051 C-129.61485703 243.54800585 -129.77174323 212.33063977 -129.79631805 181.11278152 C-129.79877449 178.43780507 -129.8027207 175.76283428 -129.8069458 173.08786011 C-129.83167309 154.84183338 -129.72309773 136.60016276 -129.3468895 118.35759735 C-129.3103866 116.56503023 -129.27635599 114.7724106 -129.245121 112.97974396 C-128.29744785 60.37710326 -128.29744785 60.37710326 -111.67382812 44.12939453 C-110.35827137 42.37623627 -109.06884474 40.60331869 -107.79882812 38.81689453 C-92.91012775 18.27425731 -72.62325558 6.38835101 -47.67382812 2.12939453 C-42.104088 1.36779125 -36.57915421 0.86117322 -30.96594238 0.57498169 C-30.14451516 0.53285431 -29.32308793 0.49072693 -28.47676897 0.44732296 C-18.9853061 -0.00096013 -9.50002016 -0.01108136 0 0 Z " fill="#FD6128" transform="translate(174.673828125,48.87060546875)"/>
<path d="M0 0 C0.66 0.33 1.32 0.66 2 1 C1.67386719 1.77601562 1.34773438 2.55203125 1.01171875 3.3515625 C-4.56379493 17.13410074 -7.15489712 31.02564076 -7.14044189 45.86958313 C-7.14341302 46.83489824 -7.14638414 47.80021335 -7.1494453 48.79478043 C-7.15808493 52.01464444 -7.15963655 55.23447105 -7.16113281 58.4543457 C-7.16576449 60.76949644 -7.17078962 63.08464643 -7.17617798 65.39979553 C-7.18927386 71.68138866 -7.19574194 77.9629711 -7.20018864 84.24457574 C-7.20312508 88.17588649 -7.20723105 92.10719435 -7.21169281 96.03850365 C-7.2237982 106.94788765 -7.23418034 117.85726915 -7.2375679 128.76665974 C-7.23778747 129.46389057 -7.23800703 130.1611214 -7.23823325 130.87948043 C-7.23845153 131.57827953 -7.23866981 132.27707862 -7.2388947 132.99705344 C-7.23933815 134.41283055 -7.23978471 135.82860766 -7.24023438 137.24438477 C-7.2404558 137.94664317 -7.24067723 138.64890158 -7.24090537 139.37244054 C-7.24484535 150.72727949 -7.26227648 162.08205396 -7.2855939 173.43686805 C-7.30940403 185.12719388 -7.3217742 196.81748751 -7.32293582 208.50783795 C-7.32397955 215.0582703 -7.32979444 221.6086117 -7.34775543 228.15902138 C-7.36434857 234.33064801 -7.3663375 240.50211643 -7.35761642 246.67375755 C-7.35685192 248.92498069 -7.36111018 251.17621273 -7.37107468 253.42741394 C-7.50780464 286.27414984 -1.16222899 313.82198402 21.953125 338.046875 C40.47769946 355.60494992 66.33290884 361.1647748 91.08558655 361.14044189 C92.04993809 361.14341302 93.01428963 361.14638414 94.00786394 361.1494453 C97.21236427 361.15805899 100.41682693 361.15963428 103.62133789 361.16113281 C105.93017658 361.16576619 108.23901451 361.17079154 110.54785156 361.17617798 C116.80233332 361.189254 123.05680437 361.19573755 129.31129766 361.20018864 C133.22551761 361.20312715 137.13973468 361.20723341 141.05395317 361.21169281 C151.91709948 361.22379249 162.78024261 361.23417757 173.64339542 361.2375679 C174.68393958 361.23789725 174.68393958 361.23789725 175.74550482 361.23823325 C176.44074369 361.23845153 177.13598255 361.23866981 177.85228926 361.2388947 C179.26081979 361.23933815 180.66935033 361.23978471 182.07788086 361.24023438 C182.77654227 361.2404558 183.47520368 361.24067723 184.19503664 361.24090537 C195.50260069 361.24484905 206.81010013 361.26229407 218.11763925 361.2855939 C229.76055935 361.30938879 241.40344393 361.32151617 253.04638857 361.32293582 C259.56989969 361.32398017 266.09331955 361.3298091 272.61680794 361.34775543 C278.75890718 361.36432498 284.90084739 361.36634872 291.04296112 361.35761642 C293.28535071 361.35685079 295.52774916 361.36112555 297.77011681 361.37107468 C328.66327406 361.50000295 355.66868464 355.80150909 378.3984375 333.6640625 C396.47607689 314.59924826 403.16541789 289.54384827 403.14044189 263.80052185 C403.14341302 262.82391965 403.14638414 261.84731746 403.1494453 260.84112126 C403.15806058 257.59516243 403.15963442 254.3492408 403.16113281 251.10327148 C403.16576607 248.76487653 403.17079141 246.42648233 403.17617798 244.08808899 C403.18925508 237.75303128 403.19573776 231.41798415 403.20018864 225.08291507 C403.20312697 221.11844222 403.20723319 217.15397222 403.21169281 213.18950081 C403.22387639 202.18738553 403.2341777 191.18527216 403.2375679 180.18315029 C403.23778747 179.48055136 403.23800703 178.77795242 403.23823325 178.05406261 C403.23845153 177.3498989 403.23866981 176.64573519 403.2388947 175.92023319 C403.23933815 174.49361575 403.23978471 173.0669983 403.24023438 171.64038086 C403.2404558 170.93274761 403.24067723 170.22511435 403.24090537 169.49603767 C403.24484914 158.04297716 403.26229438 146.58998043 403.2855939 135.13694452 C403.3093872 123.34486394 403.32177335 111.55281525 403.32293582 99.7607103 C403.32384808 93.1533687 403.32981133 86.54610055 403.34775543 79.93877983 C403.36432252 73.71788672 403.36634989 67.49715062 403.35761642 61.27624321 C403.35685066 59.00482765 403.36112729 56.73340334 403.37107468 54.46200943 C403.43843042 38.11106903 402.68016675 22.8523124 396.671875 7.41796875 C395.94602026 4.80573569 396.08527868 3.51548363 397 1 C400.81002057 7.92288843 402.92800278 14.91335197 404.75 22.5625 C404.96035889 23.43608154 405.17071777 24.30966309 405.38745117 25.2097168 C408.01955277 36.70376537 408.28577576 48.27050493 408.5546875 60.01953125 C408.57562344 60.90770853 408.59655937 61.79588581 408.61812973 62.71097755 C409.34661814 94.94508025 409.14977122 127.1994832 409.12856936 159.43971932 C409.12424173 166.78883145 409.12732176 174.13792632 409.1321975 181.48703736 C409.13678974 188.70957827 409.13735047 195.93211194 409.13475883 203.15465385 C409.13323201 207.41284163 409.1328998 211.67101798 409.13629532 215.92920494 C409.1476383 232.50033966 409.06185826 249.0595013 408.56982422 265.62426758 C408.51488391 267.5610426 408.51488391 267.5610426 408.45883369 269.53694439 C407.47209757 299.17781733 399.6291549 325.99964001 377.51171875 346.9453125 C372.1732926 351.75094661 366.21469754 355.44320927 360 359 C359.29617188 359.41636719 358.59234375 359.83273437 357.8671875 360.26171875 C338.0865545 371.09397015 314.99946178 371.45354435 293.07568359 371.38818359 C290.74728653 371.39225979 288.41889141 371.39760749 286.09049988 371.40411377 C279.82822945 371.41766707 273.56610904 371.41253915 267.30383635 371.40297651 C261.38558091 371.39609808 255.4673431 371.40137894 249.54908712 371.4057581 C237.11630369 371.41427134 224.68358709 371.4045415 212.25081463 371.388357 C201.62420763 371.37495121 190.99769899 371.37729198 180.37109375 371.39111328 C167.97373359 371.40723057 155.57643166 371.41345434 143.17906249 371.40427649 C136.63723813 371.39962451 130.09548124 371.39890661 123.55366135 371.40888596 C117.40237824 371.41761628 111.25127909 371.4114239 105.10001564 371.39420319 C102.85643251 371.39027088 100.61283362 371.39131574 98.36925697 371.39799118 C82.16299895 371.44172805 66.11690866 370.74779175 50.6875 365.25 C49.95096191 364.99541016 49.21442383 364.74082031 48.45556641 364.47851562 C38.77202904 361.00463859 28.4396495 356.25983924 21 349 C21 348.34 21 347.68 21 347 C20.43667969 346.76667969 19.87335938 346.53335937 19.29296875 346.29296875 C5.00900426 338.23846748 -3.31996873 317.84359408 -7.89453125 303.12109375 C-12.13071379 287.78319143 -12.31809814 271.91376959 -12.4140625 256.12109375 C-12.43300366 254.09881421 -12.45267733 252.07654142 -12.47302246 250.05427551 C-12.52485344 244.63922347 -12.56462306 239.22414871 -12.60129547 233.80897522 C-12.62513886 230.41774973 -12.65229697 227.02656699 -12.68060303 223.63537598 C-12.94102891 192.41861132 -13.09791511 161.20124524 -13.12248993 129.98338699 C-13.12494636 127.30841054 -13.12889258 124.63343975 -13.13311768 121.95846558 C-13.15784496 103.71243885 -13.04926961 85.47076823 -12.67306137 67.22820282 C-12.63655847 65.4356357 -12.60252787 63.64301607 -12.57129288 61.85034943 C-11.6672087 11.6672087 -11.6672087 11.6672087 0 0 Z " fill="#050302" transform="translate(58,100)"/>
<path d="M0 0 C1.54296875 1.50390625 1.54296875 1.50390625 3.1875 3.5625 C6.76515463 7.85109882 10.71231805 11.43621241 15 15 C13.45615336 19.19460221 10.37951682 21.38569612 6.9375 24 C6.3189917 24.47638916 5.7004834 24.95277832 5.06323242 25.44360352 C-21.82762682 45.97570326 -50.93883875 62.59587343 -81 78 C-81.13529767 82.54374682 -80.85002002 86.28743569 -79.5 90.625 C-78.38299853 94.23456957 -77.83603675 97.21518166 -78 101 C-82.88118631 100.56534748 -84.93725509 98.53204888 -88.30078125 95.08984375 C-88.7820195 94.60294571 -89.26325775 94.11604767 -89.75907898 93.61439514 C-91.28657021 92.06460092 -92.79952748 90.50145808 -94.3125 88.9375 C-95.3486791 87.88124806 -96.3857791 86.82589867 -97.42382812 85.77148438 C-99.95996895 83.1913578 -102.48326459 80.5990748 -105 78 C-101.07751736 73.3491913 -97.04808281 68.83476553 -92.85644531 64.42553711 C-92.27310425 63.80992416 -91.68976318 63.19431122 -91.08874512 62.56004333 C-85.70961724 56.89858408 -80.27456579 51.29161729 -74.82063675 45.70226192 C-71.17647685 41.96537071 -67.55367982 38.21215316 -63.97558594 34.41186523 C-33.7449045 2.35287089 -33.7449045 2.35287089 -9 1 C-2.7906075 0 -2.7906075 0 0 0 Z " fill="#FEFCFC" transform="translate(247,287)"/>
<path d="M0 0 C1.14076834 0.81161384 2.27221351 1.63748542 3.375 2.5 C2.83875 2.7475 2.3025 2.995 1.75 3.25 C-4.8290544 6.71266021 -9.63145595 11.22920912 -14.83349609 16.48144531 C-15.63416504 17.2818222 -16.43483398 18.0821991 -17.25976562 18.90682983 C-19.89409375 21.54254665 -22.52127475 24.18526763 -25.1484375 26.828125 C-26.97788532 28.66130457 -28.80777641 30.49404187 -30.63809204 32.32635498 C-34.95526437 36.65037253 -39.26795568 40.97881248 -43.57848704 45.30944896 C-48.48870793 50.24207085 -53.40464959 55.16897448 -58.32106662 60.09541941 C-68.42873018 70.22395447 -78.52923327 80.35960724 -88.625 90.5 C-91.74466041 89.01136264 -93.86512613 87.49711308 -96.296875 85.0234375 C-96.96074219 84.353125 -97.62460938 83.6828125 -98.30859375 82.9921875 C-99.33146484 81.94417969 -99.33146484 81.94417969 -100.375 80.875 C-101.07238281 80.16859375 -101.76976562 79.4621875 -102.48828125 78.734375 C-104.20512488 76.99401297 -105.91711832 75.24915019 -107.625 73.5 C-100.58826987 65.12075596 -92.97891299 57.40916507 -84.65234375 50.30859375 C-82.21071366 48.13041508 -79.92451968 45.82751992 -77.625 43.5 C-74.08511226 39.92233907 -70.47947126 36.52022695 -66.65234375 33.25390625 C-65.24658423 32.03774821 -63.86505267 30.79323499 -62.50390625 29.52734375 C-18.41930213 -11.43491067 -18.41930213 -11.43491067 0 0 Z " fill="#FEFBF9" transform="translate(322.625,176.5)"/>
<path d="M0 0 C3.35208201 1.30845857 6.16692667 2.94960319 8.4375 5.8125 C9.58356056 10.26940218 9.62810907 13.68668104 7.625 17.875 C2.76649866 24.30185966 -4.0888401 29.28989728 -10.3125 34.3125 C-15.12665588 38.20320708 -19.64924334 42.33000466 -24.16333008 46.55786133 C-28.35293609 50.45968389 -32.72154714 54.07310178 -37.1875 57.65625 C-40.98164129 60.81803441 -44.56283765 64.18545364 -48.16625977 67.56079102 C-51.491548 70.65780084 -54.88719939 73.59621684 -58.4375 76.4375 C-63.60282984 80.57735995 -68.42596135 85.02422986 -73.23022461 89.57202148 C-76.04655516 92.23011761 -78.82288839 94.76743509 -82 97 C-85.45201639 95.52278578 -87.64961936 93.56205999 -90.25 90.875 C-90.95640625 90.15054688 -91.6628125 89.42609375 -92.390625 88.6796875 C-92.92171875 88.12539063 -93.4528125 87.57109375 -94 87 C-89.62755498 81.77162467 -85.03120604 76.88792003 -80.20629883 72.0769043 C-79.44946304 71.31831619 -78.69262726 70.55972809 -77.91285706 69.77815247 C-75.430078 67.29099977 -72.94369211 64.80748995 -70.45703125 62.32421875 C-68.72386808 60.59038153 -66.99085334 58.85639592 -65.25798035 57.12226868 C-61.63593098 53.49874866 -58.01208801 49.87703462 -54.38696289 46.2565918 C-49.7362954 41.61163829 -45.09015441 36.96218705 -40.44533253 32.31138897 C-36.87244499 28.73489328 -33.29718581 25.16077611 -29.72119713 21.58738136 C-28.00641116 19.87326308 -26.29236938 18.15839999 -24.57908058 16.44278526 C-22.19030085 14.05147303 -19.79835127 11.6633778 -17.40551758 9.27612305 C-16.69637207 8.56495331 -15.98722656 7.85378357 -15.2565918 7.12106323 C-14.60483475 6.47212601 -13.9530777 5.82318878 -13.28157043 5.15458679 C-12.7169299 4.59032329 -12.15228937 4.02605978 -11.57053852 3.44469738 C-7.67247219 -0.14103206 -5.18975824 -0.51897582 0 0 Z " fill="#FEFBFA" transform="translate(330,184)"/>
<path d="M0 0 C0.78375 0.598125 1.5675 1.19625 2.375 1.8125 C0.73766942 6.10263033 -2.51755484 8.86920858 -5.76171875 11.96875 C-6.99065244 13.16754032 -8.21915537 14.36677237 -9.44726562 15.56640625 C-11.38470014 17.44789399 -13.32575461 19.32521532 -15.2746582 21.19482422 C-17.15641557 23.00428835 -19.02237337 24.82887491 -20.88671875 26.65625 C-21.47619797 27.21364868 -22.06567719 27.77104736 -22.67301941 28.34533691 C-24.49118173 30.08224665 -24.49118173 30.08224665 -26.625 32.8125 C-26.15900926 36.99223297 -23.89480979 38.86164395 -20.93359375 41.7265625 C-20.46889175 42.18227631 -20.00418976 42.63799011 -19.52540588 43.10751343 C-18.04474943 44.55820942 -16.55457988 45.99856269 -15.0625 47.4375 C-13.09680993 49.34037132 -11.13877335 51.25031186 -9.18359375 53.1640625 C-8.31017334 54.00791504 -7.43675293 54.85176758 -6.53686523 55.72119141 C-4.625 57.8125 -4.625 57.8125 -4.625 59.8125 C-13.27441031 63.4819468 -22.00227325 64.4655255 -30.9375 61.125 C-40.85759541 56.54527544 -47.05786362 49.86020004 -51.625 39.8125 C-54.03242309 30.18280763 -53.47097427 20.50674796 -48.625 11.8125 C-43.41839151 3.74483437 -37.44314022 -1.91498803 -28.140625 -4.68359375 C-18.48233281 -6.61825166 -8.32454717 -5.46541531 0 0 Z " fill="#FEFCFB" transform="translate(376.625,127.1875)"/>
<path d="M0 0 C1.83372444 5.50117332 -1.559698 10.97629578 -4 16 C-10.90599108 28.78875647 -19.88768304 39.72388317 -29.6640625 50.41796875 C-31.52590462 52.47595812 -33.34187138 54.55865105 -35.15209961 56.66137695 C-38.90231512 60.94981784 -42.86010271 64.98818478 -46.90234375 69 C-47.6249086 69.7211499 -48.34747345 70.4422998 -49.0919342 71.18530273 C-51.37142604 73.45925415 -53.6543924 75.72967954 -55.9375 78 C-57.49567506 79.55315235 -59.05361993 81.10653567 -60.61132812 82.66015625 C-64.40489759 86.44277586 -68.20131615 90.2225169 -72 94 C-76.20119584 91.96558772 -79.01334593 89.38893179 -82.3125 86.125 C-82.87517578 85.59519531 -83.43785156 85.06539063 -84.01757812 84.51953125 C-85.61328125 82.9453125 -85.61328125 82.9453125 -88 80 C-87.67691469 77.00977998 -87.18083484 76.17117191 -84.953125 74.0625 C-84.06109375 73.381875 -83.1690625 72.70125 -82.25 72 C-77.80898333 68.50241174 -73.61612751 64.87313608 -69.5 61 C-65.60519111 57.35019084 -61.66654693 53.84292719 -57.5 50.5 C-52.09563218 46.16072656 -47.05044877 41.49603585 -41.984375 36.7734375 C-37.36646239 32.46894486 -32.59238393 28.35687595 -27.7890625 24.26171875 C-26.58835784 23.23719457 -25.38784247 22.2124485 -24.1875 21.1875 C-23.28366577 20.41587524 -23.28366577 20.41587524 -22.36157227 19.62866211 C-17.6069398 15.55444825 -12.96983634 11.36939567 -8.35546875 7.13671875 C-5.63525404 4.66912763 -2.85226755 2.31264936 0 0 Z " fill="#FEFBFA" transform="translate(339,206)"/>
<path d="M0 0 C1.99165377 -0.00135932 3.98330728 -0.0031422 5.97496033 -0.00531006 C11.32412027 -0.00982134 16.67326066 -0.0081211 22.02242088 -0.00493097 C27.65756655 -0.00237445 33.2927107 -0.00475399 38.92785645 -0.00631714 C48.38566382 -0.00812931 57.84346335 -0.00575763 67.30126953 -0.00097656 C78.18886395 0.00446421 89.07643964 0.00270088 99.9640336 -0.00280297 C109.36251436 -0.00736135 118.76098953 -0.00797137 128.15947104 -0.0053643 C133.75060934 -0.00381646 139.34173887 -0.00356635 144.93287659 -0.00690079 C150.19272793 -0.00981934 155.45255544 -0.00773172 160.71240425 -0.00200653 C162.6266075 -0.00070007 164.54081279 -0.00103636 166.45501518 -0.0032692 C175.83863453 -0.01319384 185.19815214 0.08957912 194.57141113 0.55935669 C195.32486927 0.59599769 196.0783274 0.63263868 196.8546176 0.67039001 C223.00807562 2.13768743 246.88690981 11.42160759 264.88867188 30.87939453 C273.15792023 40.1945006 273.15792023 40.1945006 273.57617188 45.00439453 C273.49367188 45.70564453 273.41117187 46.40689453 273.32617188 47.12939453 C270.67335492 44.56845003 268.3816719 41.97381919 266.20117188 39.00439453 C250.73797304 19.05293671 229.83716907 9.55390398 205.32617188 6.12939453 C193.83754729 4.8516331 182.33105498 4.98091386 170.78881836 4.98413086 C168.6321863 4.98113379 166.47555478 4.97773001 164.31892395 4.97395325 C158.49208756 4.96516373 152.66526587 4.96277724 146.83842349 4.96213746 C143.18799168 4.96142397 139.53756354 4.95928398 135.88713264 4.95664024 C123.12323903 4.94740278 110.35935583 4.94330326 97.59545898 4.9440918 C85.74460586 4.94469182 73.89379836 4.93415071 62.04295677 4.91834813 C51.83015018 4.90522076 41.61735841 4.89991009 31.40454346 4.90054721 C25.32198578 4.90080071 19.23946867 4.8980317 13.15691948 4.88736916 C7.4284651 4.87760053 1.70008936 4.87766829 -4.028368 4.88488579 C-6.11469133 4.8859209 -8.20101979 4.88363371 -10.28733444 4.87752533 C-36.77503501 4.80508064 -64.44243711 5.89429039 -86.49023438 22.51611328 C-88.67382812 24.12939453 -88.67382812 24.12939453 -91.15039062 25.54345703 C-94.01100329 27.34130338 -96.13533471 29.39572221 -98.48632812 31.81689453 C-99.67162109 33.02925781 -99.67162109 33.02925781 -100.88085938 34.26611328 C-101.76837891 35.1884375 -101.76837891 35.1884375 -102.67382812 36.12939453 C-103.16882813 34.64439453 -103.16882813 34.64439453 -103.67382812 33.12939453 C-92.3222857 16.10208089 -70.3342429 6.63068606 -51.06054688 2.70751953 C-44.37609517 1.56645972 -37.73148714 0.91992531 -30.96594238 0.57498169 C-30.14451516 0.53285431 -29.32308793 0.49072693 -28.47676897 0.44732296 C-18.9853061 -0.00096013 -9.50002016 -0.01108136 0 0 Z " fill="#FDAF75" transform="translate(174.673828125,48.87060546875)"/>
<path d="M0 0 C0.33 0 0.66 0 1 0 C1.97903832 26.16207965 -6.10404835 50.86192414 -23.2578125 70.59765625 C-36.39435606 84.32275462 -53.39128185 93.42718944 -72 97 C-73.20196266 97.24992596 -73.20196266 97.24992596 -74.4282074 97.50490093 C-85.53774609 99.53178111 -96.64350002 99.28876355 -107.8984375 99.2746582 C-110.2012295 99.2790118 -112.50402004 99.2841971 -114.80680847 99.29014587 C-121.03247319 99.3034813 -127.25807699 99.30412034 -133.4837532 99.30158257 C-138.69913496 99.30050857 -143.91450462 99.30540748 -149.12988377 99.310188 C-162.15103593 99.32189774 -175.17215363 99.32106905 -188.193308 99.31463119 C-199.45271817 99.30947129 -210.71204157 99.32069747 -221.97143459 99.33972941 C-233.57831433 99.35919561 -245.18514951 99.3670581 -256.79204559 99.36360615 C-263.28992239 99.36180303 -269.78771982 99.36433123 -276.2855835 99.37832069 C-282.40558388 99.39100435 -288.52541243 99.38885642 -294.64541054 99.37590981 C-296.87483087 99.37356676 -299.10426369 99.37619569 -301.33366966 99.38453293 C-332.69179954 99.49322189 -360.69089824 94.96130745 -384.625 72.8125 C-401.72568276 54.66909268 -411.0468986 30.47684608 -411.125 5.5625 C-411.08375 4.386875 -411.0425 3.21125 -411 2 C-409.25032901 5.10003947 -408.5726197 7.79996152 -408.0625 11.3125 C-407.12194572 17.4449139 -405.88620965 23.49104214 -404.5859375 29.5546875 C-404.03653383 32.78518111 -403.89007097 35.73210976 -404 39 C-403.34 39 -402.68 39 -402 39 C-401.45730469 40.09699219 -400.91460937 41.19398438 -400.35546875 42.32421875 C-399.6329203 43.77869939 -398.91025804 45.2331235 -398.1875 46.6875 C-397.65286133 47.7693457 -397.65286133 47.7693457 -397.10742188 48.87304688 C-395.57880065 51.94431338 -394.05222323 54.91604913 -392.23828125 57.83203125 C-391 60 -391 60 -391 63 C-390.1028125 63.13921875 -390.1028125 63.13921875 -389.1875 63.28125 C-386.46850196 64.17463507 -385.72168004 65.24029495 -384 67.5 C-369.17003336 85.10074597 -346.16781679 92.39686162 -323.98709106 94.54170227 C-314.4326565 95.30431713 -304.84696794 95.14788738 -295.26904297 95.14526367 C-293.07975711 95.14825999 -290.89047178 95.15166361 -288.70118713 95.15544128 C-282.78145361 95.16423799 -276.86173457 95.16661759 -270.94199514 95.16725707 C-267.23513357 95.16797011 -263.52827562 95.17010923 -259.82141495 95.17275429 C-247.5325489 95.18151801 -235.24369162 95.18617578 -222.95482241 95.18542381 C-222.29426226 95.18538386 -221.63370212 95.1853439 -220.953125 95.18530273 C-219.96105392 95.18524141 -219.96105392 95.18524141 -218.94894101 95.18517885 C-207.57924728 95.18474768 -196.20959656 95.19612357 -184.83991325 95.2110464 C-174.47259464 95.22416407 -164.10529063 95.22948485 -153.7379638 95.22884732 C-147.56043995 95.22859355 -141.38295603 95.23137762 -135.20544052 95.24202538 C-129.38918297 95.2517776 -123.57300292 95.25173718 -117.75674248 95.24450874 C-115.63571623 95.24347166 -113.51468496 95.24577297 -111.39366722 95.2518692 C-79.39936656 95.33778886 -50.68625287 91.51250052 -26.375 68.875 C-17.60912013 59.74844887 -11.89232781 48.54973076 -7 37 C-6.34 37 -5.68 37 -5 37 C-5.061875 35.576875 -5.061875 35.576875 -5.125 34.125 C-5.11759193 30.36911046 -4.43814186 26.96833764 -3.64453125 23.30859375 C-2.74382979 18.68499291 -2.06349612 14.03430046 -1.375 9.375 C-1.23989014 8.46081299 -1.10478027 7.54662598 -0.96557617 6.60473633 C-0.64182371 4.40342782 -0.31986499 2.20187626 0 0 Z " fill="#D43112" transform="translate(461,363)"/>
<path d="M0 0 C6.79427213 8.43117597 9.04246618 17.32176533 8 28 C5.93987723 37.64376309 1.13843315 44.40296487 -6 51 C-11.63758093 48.58630037 -15.49012406 43.83810665 -19.75 39.5625 C-20.63816406 38.69044922 -21.52632813 37.81839844 -22.44140625 36.91992188 C-23.28058594 36.08138672 -24.11976563 35.24285156 -24.984375 34.37890625 C-26.14018066 33.22757202 -26.14018066 33.22757202 -27.31933594 32.05297852 C-29 30 -29 30 -29 27 C-26.8269043 24.64379883 -26.8269043 24.64379883 -24 22 C-22.25561857 20.23395338 -20.51216931 18.46698566 -18.76953125 16.69921875 C-17.29153843 15.20651301 -15.81260636 13.71474498 -14.33325195 12.22338867 C-13.31228118 11.19225573 -12.29309704 10.15935094 -11.27563477 9.12475586 C-9.79907634 7.62406525 -8.31626141 6.12981715 -6.83203125 4.63671875 C-5.95264893 3.74686279 -5.0732666 2.85700684 -4.16723633 1.94018555 C-2 0 -2 0 0 0 Z " fill="#FEFAF8" transform="translate(384,133)"/>
<path d="M0 0 C0.66 0.33 1.32 0.66 2 1 C1.67386719 1.77601562 1.34773438 2.55203125 1.01171875 3.3515625 C-4.46897885 16.89971763 -7.14090325 30.63477618 -7.15821838 45.23815918 C-7.16315636 46.13520899 -7.16809434 47.03225881 -7.17318195 47.95649195 C-7.18846657 50.94430017 -7.19689292 53.93208705 -7.20532227 56.91992188 C-7.2149079 59.06885972 -7.22491838 61.2177957 -7.23532104 63.36672974 C-7.26230187 69.18837246 -7.2833483 75.01002324 -7.30332303 80.83169365 C-7.32522475 86.92024061 -7.35259293 93.00876296 -7.37937927 99.09729004 C-7.42924961 110.62136589 -7.4742094 122.14545545 -7.51740164 133.66955805 C-7.56682242 146.79163837 -7.62172257 159.91369398 -7.67708123 173.03575039 C-7.79081439 200.02381053 -7.89767225 227.01189438 -8 254 C-8.33 254 -8.66 254 -9 254 C-9.33 250.37 -9.66 246.74 -10 243 C-10.66 243.33 -11.32 243.66 -12 244 C-12.73572191 207.30941807 -13.11014754 170.62520842 -13.12338257 133.92715836 C-13.12497115 131.05221442 -13.12850753 128.17727905 -13.13256836 125.30233765 C-13.1567552 105.85751362 -13.07569329 86.41597237 -12.67306137 66.97476196 C-12.63657246 65.19533275 -12.60254034 63.41585099 -12.57129288 61.63632202 C-11.66253784 11.66253784 -11.66253784 11.66253784 0 0 Z " fill="#050505" transform="translate(58,100)"/>
<path d="M0 0 C0 0.33 0 0.66 0 1 C0.62536211 1.00423194 1.25072422 1.00846388 1.8950367 1.01282406 C17.4110446 1.11804518 32.92702279 1.22688872 48.44297981 1.33933926 C55.94765314 1.39364913 63.45233071 1.44689301 70.95703125 1.49731445 C101.26235273 1.70156842 131.56550134 1.94417654 161.8671875 2.47265625 C163.58505148 2.50069242 163.58505148 2.50069242 165.33761978 2.52929497 C168.53362134 2.58248205 171.72944342 2.64178926 174.92529297 2.70336914 C176.31455553 2.72576125 176.31455553 2.72576125 177.731884 2.74860573 C182.57586347 2.85070265 187.22028235 3.19826468 192 4 C192 4.33 192 4.66 192 5 C190.8124625 4.99815641 189.624925 4.99631283 188.40140152 4.99441338 C160.1311612 4.95097878 131.86092174 4.91805973 103.59065534 4.89786934 C100.10145246 4.89536831 96.61224965 4.89277963 93.12304688 4.89013672 C92.0812104 4.88934979 92.0812104 4.88934979 91.01832673 4.88854696 C79.81240361 4.87987438 68.60650129 4.864122 57.40059045 4.84569441 C45.8788876 4.82690732 34.35719928 4.81601421 22.83548141 4.81182301 C16.37378261 4.80922754 9.91213076 4.80317546 3.45044708 4.78853989 C-2.64635542 4.77484421 -8.74309217 4.7708013 -14.8399086 4.77378464 C-17.06329075 4.77323979 -19.28667537 4.76933443 -21.5100441 4.76158905 C-48.36088433 4.67273354 -76.43349378 5.51225268 -98.81640625 22.38671875 C-101 24 -101 24 -103.4765625 25.4140625 C-106.33717516 27.21190885 -108.46150659 29.26632768 -110.8125 31.6875 C-111.99779297 32.89986328 -111.99779297 32.89986328 -113.20703125 34.13671875 C-114.09455078 35.05904297 -114.09455078 35.05904297 -115 36 C-115.495 34.515 -115.495 34.515 -116 33 C-104.64845758 15.97268636 -82.66041478 6.50129153 -63.38671875 2.578125 C-42.5128487 -0.98511925 -21.09525514 -0.12272367 0 0 Z " fill="#FDA162" transform="translate(187,49)"/>
<path d="M0 0 C3.3208015 1.66040075 3.78679771 5.34488093 4.9375 8.6875 C5.20328857 9.45263916 5.46907715 10.21777832 5.74291992 11.00610352 C11.30705968 27.45282022 12.18511104 43.73951178 12.5625 60.9375 C12.59426834 62.30390121 12.59426834 62.30390121 12.62667847 63.69790649 C13.17678138 87.79595455 13.09563955 111.89736156 13 136 C11.68 136.33 10.36 136.66 9 137 C9 177.26 9 217.52 9 259 C8.67 259 8.34 259 8 259 C7.99761165 257.85092698 7.99522329 256.70185396 7.99276257 255.51796055 C7.93527256 228.17689039 7.86245034 200.83589617 7.77101372 173.49491752 C7.75974697 170.12201894 7.74860829 166.74911996 7.73754883 163.3762207 C7.7342433 162.36909121 7.7342433 162.36909121 7.730871 161.34161567 C7.6955996 150.50228085 7.67067834 139.66294608 7.64965298 128.82357533 C7.62780964 117.68265735 7.59446059 106.54180884 7.55129844 95.40095228 C7.52744382 89.15118578 7.50866427 82.90150046 7.50238609 76.65168953 C7.49630003 70.75755041 7.47617399 64.86361882 7.44572449 58.96955681 C7.43700039 56.81749798 7.43320986 54.66541196 7.43499184 52.51333618 C7.44404783 36.51616045 6.47249838 21.56180282 0.76953125 6.41796875 C0 4 0 4 0 0 Z " fill="#26120B" transform="translate(454,101)"/>
<path d="M0 0 C0.33 0 0.66 0 1 0 C1 61.71 1 123.42 1 187 C0.67 187 0.34 187 0 187 C-0.33 183.37 -0.66 179.74 -1 176 C-1.66 176.33 -2.32 176.66 -3 177 C-3.13195961 168.688295 -3.26244331 160.37656858 -3.39115143 152.06481266 C-3.4509892 148.20343472 -3.51129536 144.3420654 -3.57275391 140.48071289 C-3.63228217 136.73946809 -3.6904732 132.99820447 -3.74781799 129.25692558 C-3.76968314 127.84472376 -3.79199355 126.43252874 -3.81480408 125.02034187 C-3.8900951 120.34702884 -3.95222472 115.67368144 -4 111 C-4.00832855 110.234492 -4.0166571 109.46898399 -4.02523804 108.68027878 C-4.04819255 106.32648511 -4.06333009 103.97276503 -4.07617188 101.61889648 C-4.08372749 100.88700891 -4.09128311 100.15512133 -4.09906769 99.40105534 C-4.11488436 94.22976873 -4.11488436 94.22976873 -3 92 C-2.34 92 -1.68 92 -1 92 C-0.67 61.64 -0.34 31.28 0 0 Z " fill="#361B10" transform="translate(49,167)"/>
<path d="M0 0 C5.23380697 4.37625212 10.12876938 8.97545497 14.9375 13.8125 C15.62134766 14.49248047 16.30519531 15.17246094 17.00976562 15.87304688 C17.65494141 16.51951172 18.30011719 17.16597656 18.96484375 17.83203125 C19.5487085 18.41702393 20.13257324 19.0020166 20.73413086 19.60473633 C22 21 22 21 22 22 C8.93556777 22.42067939 -3.99950897 21.15151581 -17 20 C-16.42619828 16.33622257 -15.02730342 14.67232775 -12.40234375 12.109375 C-11.68369141 11.40039062 -10.96503906 10.69140625 -10.22460938 9.9609375 C-9.46986328 9.23132813 -8.71511719 8.50171875 -7.9375 7.75 C-7.17888672 7.00492187 -6.42027344 6.25984375 -5.63867188 5.4921875 C-3.76567793 3.65453306 -1.88604389 1.82424276 0 0 Z " fill="#FEF9F8" transform="translate(138,368)"/>
<path d="M0 0 C0.66 0.33 1.32 0.66 2 1 C-0.11905463 3.17277714 -2.24472878 5.33826908 -4.375 7.5 C-4.97828125 8.12003906 -5.5815625 8.74007812 -6.203125 9.37890625 C-6.78320312 9.96542969 -7.36328125 10.55195312 -7.9609375 11.15625 C-8.49509277 11.70087891 -9.02924805 12.24550781 -9.57958984 12.80664062 C-11 14 -11 14 -13 14 C-13.26167969 14.71414062 -13.52335937 15.42828125 -13.79296875 16.1640625 C-15.05364149 19.12603146 -16.59442817 21.65503706 -18.3125 24.375 C-27.87503927 40.65716147 -30.05229397 58.67893136 -30.55834961 77.22045898 C-30.57847607 77.92139895 -30.59860252 78.62233892 -30.61933887 79.3445195 C-31.18186766 99.19980105 -31.22482171 119.06228396 -31.30332303 138.92410207 C-31.32560584 144.32917175 -31.35278202 149.7342171 -31.37937927 155.13926697 C-31.4287476 165.31670349 -31.47388692 175.49415392 -31.51740164 185.67161697 C-31.56726024 197.28281835 -31.62199358 208.89399528 -31.67708123 220.50517285 C-31.79004058 244.33675896 -31.89705752 268.16836865 -32 292 C-32.33 292 -32.66 292 -33 292 C-33.06860338 263.13316399 -33.12161414 234.26633768 -33.15319599 205.39943603 C-33.15694761 201.98276191 -33.16083062 198.56608795 -33.16479492 195.14941406 C-33.16558185 194.46928487 -33.16636878 193.78915567 -33.16717956 193.0884165 C-33.18019367 182.11068969 -33.2038252 171.13301054 -33.23145839 160.1553119 C-33.2596243 148.87092558 -33.27597556 137.58656286 -33.28226548 126.30213964 C-33.2861612 119.97238141 -33.29525552 113.64273091 -33.31719017 107.31300735 C-33.33771005 101.34258814 -33.34380275 95.37231995 -33.33932304 89.40186882 C-33.34014136 87.22279347 -33.34601383 85.04371251 -33.35761642 82.86466789 C-33.44504281 65.58252142 -32.06654728 49.66135086 -26.18359375 33.33203125 C-24.93189519 29.96428777 -24.93189519 29.96428777 -24.03515625 26.26171875 C-23.00594093 23.01871953 -22.4550418 22.13612705 -20 20 C-18.1916099 17.39016429 -16.4535315 14.74126868 -14.71875 12.08203125 C-13.86796875 11.05142578 -13.86796875 11.05142578 -13 10 C-12.01 10 -11.02 10 -10 10 C-7.41381863 7.77931288 -7.41381863 7.77931288 -4.8125 5 C-3.91144531 4.071875 -3.01039062 3.14375 -2.08203125 2.1875 C-1.05142578 1.1046875 -1.05142578 1.1046875 0 0 Z " fill="#DA5F2E" transform="translate(83,73)"/>
<path d="M0 0 C1.48046875 1.50390625 1.48046875 1.50390625 3.1875 3.5625 C6.18677493 7.10996174 9.33995132 10.36522872 12.71484375 13.5546875 C14 15 14 15 14 17 C10.17844214 17.84210331 6.35558331 18.67801026 2.53149414 19.50854492 C0.601684 19.92896357 -1.32710037 20.35408197 -3.25585938 20.77929688 C-9.83881878 22.20589121 -16.2870774 23.42293701 -23 24 C-22.46416884 19.94374064 -20.43776033 18.06415346 -17.59765625 15.234375 C-16.26250977 13.90019531 -16.26250977 13.90019531 -14.90039062 12.5390625 C-13.96388672 11.61867188 -13.02738281 10.69828125 -12.0625 9.75 C-11.11986651 8.80526206 -10.17780257 7.85995548 -9.23632812 6.9140625 C-2.26683218 0 -2.26683218 0 0 0 Z " fill="#FEF9F7" transform="translate(213,253)"/>
<path d="M0 0 C-12.46047345 7.25898195 -30.63458143 5.42368967 -44.44775391 5.37231445 C-46.760871 5.37474772 -49.07398704 5.3784722 -51.38710022 5.38337708 C-57.62043009 5.39271534 -63.85360099 5.38342098 -70.08691835 5.37004495 C-76.63683348 5.35865531 -83.18674163 5.36284366 -89.73666382 5.36479187 C-100.72974122 5.36621296 -111.72275992 5.35471693 -122.71582031 5.33618164 C-133.99220651 5.31717403 -145.2685208 5.31009794 -156.54492188 5.31567383 C-170.18718517 5.32239977 -183.82940074 5.31905788 -197.47166061 5.30657005 C-202.66185471 5.30194598 -207.8520293 5.30104066 -213.04222488 5.3031559 C-219.16059732 5.30504999 -225.27887851 5.2968493 -231.39723015 5.2810955 C-233.63239476 5.27688073 -235.86756869 5.275983 -238.10273552 5.27878571 C-249.90996494 5.29133694 -261.34458207 5.02217153 -273 3 C-273 2.67 -273 2.34 -273 2 C-270.08326698 1.97254122 -267.16680282 1.95294449 -264.25 1.9375 C-263.44433594 1.92912109 -262.63867188 1.92074219 -261.80859375 1.91210938 C-257.49734599 1.89513596 -253.28321607 2.04652408 -248.99493408 2.49702454 C-239.5975921 3.30068676 -230.17697555 3.14791013 -220.75292969 3.14526367 C-218.61638328 3.14825999 -216.47983741 3.15166361 -214.34329224 3.15544128 C-208.5709196 3.16423271 -202.79856181 3.16661721 -197.02618313 3.16725707 C-193.41655512 3.1679698 -189.80693085 3.17010823 -186.19730377 3.17275429 C-173.59637717 3.18198832 -160.99546112 3.1860912 -148.39453125 3.18530273 C-136.65877169 3.18470095 -124.92305794 3.19527741 -113.18730998 3.2110464 C-103.09615385 3.22412136 -93.0050127 3.22948672 -82.91384816 3.22884732 C-76.8931385 3.22859253 -70.87246969 3.23143435 -64.85176849 3.24202538 C-59.19477181 3.25170673 -53.53785506 3.25178525 -47.88085556 3.24450874 C-45.80723072 3.24346328 -43.73360088 3.24582349 -41.65998459 3.2518692 C-38.82569912 3.25959681 -35.99168928 3.25493933 -33.15740967 3.24723816 C-31.93230183 3.2549535 -31.93230183 3.2549535 -30.68244433 3.26282471 C-25.46663675 3.23158865 -21.02366878 2.41000352 -16 1 C-10.68942898 0.20266214 -5.37035407 -0.14132511 0 0 Z " fill="#B1290E" transform="translate(397,457)"/>
<path d="M0 0 C1.74967099 3.10003947 2.4273803 5.79996152 2.9375 9.3125 C3.87805428 15.4449139 5.11379035 21.49104214 6.4140625 27.5546875 C6.96346617 30.78518111 7.10992903 33.73210976 7 37 C7.66 37 8.32 37 9 37 C9.54269531 38.09699219 10.08539063 39.19398438 10.64453125 40.32421875 C11.3670797 41.77869939 12.08974196 43.2331235 12.8125 44.6875 C13.34713867 45.7693457 13.34713867 45.7693457 13.89257812 46.87304688 C15.42119935 49.94431338 16.94777677 52.91604913 18.76171875 55.83203125 C20 58 20 58 20 61 C20.8971875 61.13921875 20.8971875 61.13921875 21.8125 61.28125 C24.53149804 62.17463507 25.27831996 63.24029495 27 65.5 C36.03150389 76.21891863 49.05165933 83.58166036 62.3125 87.8125 C63.529375 88.204375 64.74625 88.59625 66 89 C66.33 89.66 66.66 90.32 67 91 C69.52733235 91.65555119 69.52733235 91.65555119 72 92 C72 92.66 72 93.32 72 94 C66.08739071 93.47634963 61.20629099 92.24517863 55.75 89.9375 C55.01128662 89.62731934 54.27257324 89.31713867 53.51147461 88.99755859 C31.66379053 79.4998025 15.66842993 61.87574982 6.78857422 40.04003906 C1.84813415 27.2591359 -0.48061316 13.69747495 0 0 Z " fill="#CB3514" transform="translate(50,365)"/>
<path d="M0 0 C0.33 0 0.66 0 1 0 C1.97903832 26.16207965 -6.10404835 50.86192414 -23.2578125 70.59765625 C-30.84631757 78.52614811 -39.52119284 84.46025798 -49.25 89.4375 C-49.91136963 89.77982666 -50.57273926 90.12215332 -51.25415039 90.47485352 C-55.54289078 92.58457211 -59.23758732 93.56200609 -64 94 C-63 92 -63 92 -60.6015625 91.03515625 C-58.62266205 90.38850768 -56.64349652 89.74266971 -54.6640625 89.09765625 C-51.97453773 87.98950895 -50.96063332 87.05326166 -49 85 C-47.20614824 83.96692105 -45.39063563 82.97112119 -43.5625 82 C-26.20329045 72.02947456 -14.00404704 55.57133684 -7 37 C-6.34 37 -5.68 37 -5 37 C-5.04125 36.05125 -5.0825 35.1025 -5.125 34.125 C-5.11759193 30.36911046 -4.43814186 26.96833764 -3.64453125 23.30859375 C-2.74382979 18.68499291 -2.06349612 14.03430046 -1.375 9.375 C-1.17233521 8.00371948 -1.17233521 8.00371948 -0.96557617 6.60473633 C-0.64182371 4.40342782 -0.31986499 2.20187626 0 0 Z " fill="#D13715" transform="translate(461,363)"/>
<path d="M0 0 C1.01578125 0.13277344 2.0315625 0.26554687 3.078125 0.40234375 C4.46873223 0.58086765 5.85935827 0.75924502 7.25 0.9375 C8.24386719 1.06801758 8.24386719 1.06801758 9.2578125 1.20117188 C11.50330863 1.48715487 13.75062598 1.74623386 16 2 C16.76244648 2.08705169 17.52489296 2.17410337 18.31044388 2.26379299 C28.82801205 3.29821753 39.36800735 3.17614018 49.92480469 3.20532227 C52.133445 3.21491496 54.34208353 3.22492583 56.55072021 3.23532104 C62.51675001 3.26222555 68.48278759 3.28331287 74.44884396 3.30332303 C80.69485308 3.32527233 86.94083859 3.35261704 93.18682861 3.37937927 C103.66067471 3.42353446 114.13452936 3.46438967 124.60839844 3.50268555 C135.39096016 3.54211923 146.17351109 3.58356397 156.95605469 3.62768555 C157.62198902 3.63040982 158.28792334 3.63313409 158.9740375 3.63594092 C162.31522198 3.64962169 165.65640629 3.66334385 168.99759054 3.67708123 C196.66503821 3.79071619 224.33250865 3.89759511 252 4 C252 4.33 252 4.66 252 5 C223.02633014 5.02342306 194.05266171 5.04102521 165.07898426 5.05181217 C162.39372062 5.05283192 159.70845699 5.05387324 157.02319336 5.05493164 C156.02212365 5.05532511 156.02212365 5.05532511 155.00083032 5.05572652 C144.9054175 5.05979224 134.81000947 5.06680275 124.71459961 5.07543945 C112.97915746 5.0854474 101.2437196 5.0918679 89.5082733 5.09408849 C83.30198142 5.09538527 77.09570177 5.0984051 70.88941383 5.10573006 C65.03146676 5.11258697 59.1735368 5.11459757 53.31558609 5.11310768 C51.18131733 5.11337971 49.04704792 5.11532686 46.91278267 5.11920547 C33.24413242 5.14279828 19.64725739 4.77458187 6 4 C6 3.34 6 2.68 6 2 C4.35 2 2.7 2 1 2 C0.67 1.34 0.34 0.68 0 0 Z " fill="#EF3815" transform="translate(116,455)"/>
<path d="M0 0 C21.11158063 -1.22715323 36.89710471 5.25848753 52.84008789 18.99682617 C67.66186076 32.30506664 67.66186076 32.30506664 68.203125 39.8203125 C68.10257813 40.89925781 68.10257813 40.89925781 68 42 C65.34718305 39.4390555 63.05550003 36.84442466 60.875 33.875 C45.0785858 13.49360964 24.6548099 5.21661739 0 1 C0 0.67 0 0.34 0 0 Z " fill="#FBA367" transform="translate(380,54)"/>
<path d="M0 0 C1.875 0.625 1.875 0.625 4 2 C4.74870258 3.97075845 5.39359935 5.98091043 6 8 C6.47860945 9.50147982 6.95782216 11.00276741 7.4375 12.50390625 C7.95946682 14.18975364 8.48027317 15.8759607 9 17.5625 C9.26039063 18.38041016 9.52078125 19.19832031 9.7890625 20.04101562 C14.40678334 35.11857382 14.26839693 49.83423784 14.1953125 65.45703125 C14.19157623 67.81499613 14.18873216 70.17296257 14.18673706 72.53092957 C14.17914898 78.69740179 14.15954255 84.86377783 14.1373291 91.0302124 C14.11676605 97.33848775 14.1077131 103.64677883 14.09765625 109.95507812 C14.07629161 122.30342737 14.04221475 134.65170565 14 147 C13.67 147 13.34 147 13 147 C12.98969254 145.91244415 12.97938507 144.82488831 12.96876526 143.70437622 C12.87036527 133.37920233 12.76757821 123.05407985 12.66066074 112.72899055 C12.60585004 107.42269828 12.55250455 102.11640027 12.50268555 96.81005859 C12.45441515 91.67472164 12.40206369 86.53944007 12.34705925 81.40417099 C12.32691524 79.45971967 12.30816209 77.51525335 12.29092598 75.57077408 C12.20601816 66.0908449 12.05773226 56.62430126 11.56225586 47.15576172 C11.50913538 46.09134196 11.50913538 46.09134196 11.45494175 45.00541878 C10.71483154 32.29121535 7.70036442 19.91597417 1.75 8.625 C0.16948349 5.6244882 -0.4315363 3.45229037 0 0 Z " fill="#DA6933" transform="translate(448,93)"/>
<path d="M0 0 C4.69004145 1.30355564 7.74281397 3.12159399 11.5 6.1875 C19.35679018 12.24845243 27.81477105 16.78227219 37.3125 19.8125 C38.529375 20.204375 39.74625 20.59625 41 21 C41.495 21.99 41.495 21.99 42 23 C44.52733235 23.65555119 44.52733235 23.65555119 47 24 C47 24.66 47 25.32 47 26 C41.08739071 25.47634963 36.20629099 24.24517863 30.75 21.9375 C30.01128662 21.62731934 29.27257324 21.31713867 28.51147461 20.99755859 C17.63114936 16.26759842 8.3377681 9.43000005 0 1 C0 0.67 0 0.34 0 0 Z " fill="#C73112" transform="translate(75,433)"/>
<path d="M0 0 C0.66 0.33 1.32 0.66 2 1 C-0.11905463 3.17277714 -2.24472878 5.33826908 -4.375 7.5 C-4.97828125 8.12003906 -5.5815625 8.74007812 -6.203125 9.37890625 C-6.78320312 9.96542969 -7.36328125 10.55195312 -7.9609375 11.15625 C-8.49509277 11.70087891 -9.02924805 12.24550781 -9.57958984 12.80664062 C-11 14 -11 14 -13 14 C-13.26167969 14.71414062 -13.52335937 15.42828125 -13.79296875 16.1640625 C-15.05364149 19.12603146 -16.59442817 21.65503706 -18.3125 24.375 C-23.91606217 33.84268524 -26.9214841 44.22950849 -29 55 C-29.33 55 -29.66 55 -30 55 C-30.82454363 47.21264354 -28.9017158 40.84773352 -26.2890625 33.61328125 C-24.94227969 30.00769467 -24.94227969 30.00769467 -24.0234375 26.23046875 C-23.0025899 23.00817499 -22.44214653 22.12490691 -20 20 C-18.1916099 17.39016429 -16.4535315 14.74126868 -14.71875 12.08203125 C-13.86796875 11.05142578 -13.86796875 11.05142578 -13 10 C-12.01 10 -11.02 10 -10 10 C-7.41381863 7.77931288 -7.41381863 7.77931288 -4.8125 5 C-3.91144531 4.071875 -3.01039062 3.14375 -2.08203125 2.1875 C-1.39496094 1.465625 -0.70789063 0.74375 0 0 Z " fill="#E77D42" transform="translate(83,73)"/>
<path d="M0 0 C1.13199353 0.9080162 2.25532363 1.82683826 3.375 2.75 C4.00148437 3.26046875 4.62796875 3.7709375 5.2734375 4.296875 C7.08312318 6.08199481 8.00117455 7.67949644 9 10 C6.25124318 10.67218507 3.50119274 11.33792435 0.75 12 C-0.02730469 12.19078125 -0.80460938 12.3815625 -1.60546875 12.578125 C-2.35957031 12.75859375 -3.11367187 12.9390625 -3.890625 13.125 C-4.92751465 13.37636719 -4.92751465 13.37636719 -5.98535156 13.6328125 C-8 14 -8 14 -12 14 C-10.41332422 10.09714233 -7.86649519 7.66479018 -4.875 4.75 C-3.96492187 3.85796875 -3.05484375 2.9659375 -2.1171875 2.046875 C-1.41851562 1.37140625 -0.71984375 0.6959375 0 0 Z " fill="#FEF5F2" transform="translate(232,274)"/>
<path d="M0 0 C0.33 0 0.66 0 1 0 C1 14.85 1 29.7 1 45 C0.67 45 0.34 45 0 45 C-0.33 41.37 -0.66 37.74 -1 34 C-1.99 34.495 -1.99 34.495 -3 35 C-3 27.08 -3 19.16 -3 11 C-2.01 11 -1.02 11 0 11 C0 7.37 0 3.74 0 0 Z " fill="#160B08" transform="translate(49,309)"/>
<path d="M0 0 C0.99 0 1.98 0 3 0 C-0.35908631 8.02735497 -10.40051986 11.32542971 -17.7890625 14.80078125 C-21.21085912 16.07875152 -24.37707637 16.61215553 -28 17 C-27 15 -27 15 -24.6015625 14.03515625 C-22.62266205 13.38850768 -20.64349652 12.74266971 -18.6640625 12.09765625 C-15.95771789 10.98257878 -14.97710966 10.06285166 -13 8 C-10.98419516 6.74899917 -8.93943108 5.54401519 -6.875 4.375 C-3.22643296 2.48094686 -3.22643296 2.48094686 0 0 Z " fill="#CD3213" transform="translate(425,440)"/>
<path d="M0 0 C-1.63778045 4.19625909 -4.73323182 6.98676785 -7.8828125 10.078125 C-8.45707977 10.64956238 -9.03134705 11.22099976 -9.62301636 11.80975342 C-11.4523581 13.62792945 -13.28854193 15.43901492 -15.125 17.25 C-16.36894774 18.48391329 -17.6124427 19.71828322 -18.85546875 20.953125 C-21.89842367 23.97406743 -24.94753254 26.98867092 -28 30 C-28.33 29.01 -28.66 28.02 -29 27 C-28.28287842 26.28432861 -27.56575684 25.56865723 -26.8269043 24.83129883 C-24.12848635 22.1329994 -21.4485085 19.41682686 -18.76953125 16.69921875 C-17.29153843 15.20651301 -15.81260636 13.71474498 -14.33325195 12.22338867 C-13.31228118 11.19225573 -12.29309704 10.15935094 -11.27563477 9.12475586 C-9.79907634 7.62406525 -8.31626141 6.12981715 -6.83203125 4.63671875 C-5.95264893 3.74686279 -5.0732666 2.85700684 -4.16723633 1.94018555 C-2 0 -2 0 0 0 Z " fill="#FEE4D7" transform="translate(384,133)"/>
<path d="M0 0 C3.29897972 1.64948986 3.78287773 5.24576259 4.9375 8.5625 C5.33509521 9.6915979 5.33509521 9.6915979 5.74072266 10.84350586 C8.31132942 18.42813879 9.78781287 26.09951719 11 34 C9.68 33.67 8.36 33.34 7 33 C6.74476563 31.36804688 6.74476563 31.36804688 6.484375 29.703125 C5.17528803 21.66237709 3.65374528 14.07679926 0.76953125 6.41796875 C0 4 0 4 0 0 Z " fill="#080808" transform="translate(454,101)"/>
<path d="M0 0 C1.9375 0.375 1.9375 0.375 4 1 C5.59724574 4.19449147 5.3721131 7.52472945 5 11 C3.75 14 3.75 14 2 16 C0.68 16 -0.64 16 -2 16 C-1.85833643 14.08302063 -1.71150416 12.16642277 -1.5625 10.25 C-1.48128906 9.18265625 -1.40007812 8.1153125 -1.31640625 7.015625 C-1.05909227 4.56320038 -0.68187782 2.36078709 0 0 Z " fill="#FD7C3C" transform="translate(380,150)"/>
<path d="M0 0 C1.67396926 2.99515987 2.38756235 5.55030573 2.875 8.9375 C3.5073676 13.08644843 4.22449295 17.20237558 5.05078125 21.31640625 C5.23721191 22.25170166 5.42364258 23.18699707 5.61572266 24.15063477 C5.99311736 26.03132376 6.37678134 27.91076694 6.76708984 29.78881836 C6.94062988 30.6628833 7.11416992 31.53694824 7.29296875 32.4375 C7.4530542 33.21996094 7.61313965 34.00242187 7.77807617 34.80859375 C8.01433617 37.14156378 7.70485049 38.77888299 7 41 C2.65212417 27.44192917 -0.50451071 14.37855518 0 0 Z " fill="#C53B19" transform="translate(50,365)"/>
<path d="M0 0 C1.875 0.625 1.875 0.625 4 2 C4.73762496 3.97493136 5.38912452 5.98225978 6 8 C6.42663858 9.26925809 6.85646324 10.53744859 7.2890625 11.8046875 C7.735116 13.1612149 8.1804176 14.51798976 8.625 15.875 C8.85445313 16.54402344 9.08390625 17.21304688 9.3203125 17.90234375 C10.8960016 22.77009757 11.21740774 26.8851969 11 32 C9.20657806 28.72917761 8.20194359 25.45792842 7.1875 21.875 C5.6208853 16.61353932 3.66293129 11.98539721 0.953125 7.21875 C-0.14616737 4.65974153 -0.17474599 2.75710335 0 0 Z " fill="#CF7C4B" transform="translate(448,93)"/>
<path d="M0 0 C0.33 0 0.66 0 1 0 C1 8.25 1 16.5 1 25 C0.01 25 -0.98 25 -2 25 C-2.05816623 21.58340509 -2.09365195 18.16693795 -2.125 14.75 C-2.14175781 13.78191406 -2.15851562 12.81382812 -2.17578125 11.81640625 C-2.18222656 10.88183594 -2.18867187 9.94726562 -2.1953125 8.984375 C-2.20578613 8.12553711 -2.21625977 7.26669922 -2.22705078 6.38183594 C-1.98293323 3.82096404 -1.28990512 2.20488971 0 0 Z " fill="#010101" transform="translate(48,295)"/>
<path d="M0 0 C0.66 0.33 1.32 0.66 2 1 C-0.11905463 3.17277714 -2.24472878 5.33826908 -4.375 7.5 C-4.97828125 8.12003906 -5.5815625 8.74007812 -6.203125 9.37890625 C-6.78320312 9.96542969 -7.36328125 10.55195312 -7.9609375 11.15625 C-8.49509277 11.70087891 -9.02924805 12.24550781 -9.57958984 12.80664062 C-11 14 -11 14 -13 14 C-13.2475 14.721875 -13.495 15.44375 -13.75 16.1875 C-15.10983674 19.24713266 -16.82917754 21.4673738 -19 24 C-19.703125 22.328125 -19.703125 22.328125 -20 20 C-18.671875 17.421875 -18.671875 17.421875 -16.75 14.75 C-16.12609375 13.85796875 -15.5021875 12.9659375 -14.859375 12.046875 C-14.24578125 11.37140625 -13.6321875 10.6959375 -13 10 C-12.01 10 -11.02 10 -10 10 C-7.41381863 7.77931288 -7.41381863 7.77931288 -4.8125 5 C-3.91144531 4.071875 -3.01039062 3.14375 -2.08203125 2.1875 C-1.39496094 1.465625 -0.70789063 0.74375 0 0 Z " fill="#F38F51" transform="translate(83,73)"/>
<path d="M0 0 C-13.00423655 7.53394057 -31.67361355 5.33678666 -46 5 C-46 4.67 -46 4.34 -46 4 C-45.37544922 3.98018066 -44.75089844 3.96036133 -44.10742188 3.93994141 C-41.23790619 3.84383068 -38.36903453 3.73450513 -35.5 3.625 C-34.02660156 3.57859375 -34.02660156 3.57859375 -32.5234375 3.53125 C-26.70653395 3.29857386 -21.60324359 2.5557813 -16 1 C-10.68942898 0.20266214 -5.37035407 -0.14132511 0 0 Z " fill="#A1250D" transform="translate(397,457)"/>
<path d="M0 0 C0.33 0 0.66 0 1 0 C1.42990219 11.4879418 0.16108478 22.93620326 -3 34 C-3.66 34 -4.32 34 -5 34 C-4.85506104 33.14841309 -4.71012207 32.29682617 -4.56079102 31.41943359 C-4.00775921 28.0473119 -3.50842585 24.67215596 -3.02734375 21.2890625 C-2.85009766 20.04511719 -2.67285156 18.80117188 -2.49023438 17.51953125 C-2.30783203 16.23433594 -2.12542969 14.94914062 -1.9375 13.625 C-1.74941404 12.30337615 -1.56126361 10.98176148 -1.37304688 9.66015625 C-0.91473104 6.44019373 -0.4570705 3.22013949 0 0 Z " fill="#CE3F1B" transform="translate(461,363)"/>
<path d="M0 0 C0.66 0.33 1.32 0.66 2 1 C1.39671875 1.26554687 0.7934375 1.53109375 0.171875 1.8046875 C-1.02695312 2.33449219 -1.02695312 2.33449219 -2.25 2.875 C-3.03890625 3.22304688 -3.8278125 3.57109375 -4.640625 3.9296875 C-6.94760583 4.92861252 -6.94760583 4.92861252 -8.828125 6.0625 C-11.95245308 7.41113083 -15.14948424 7.73943734 -18.5 8.125 C-19.55380859 8.25237549 -19.55380859 8.25237549 -20.62890625 8.38232422 C-26.760502 9.07365886 -32.83213743 9.21026804 -39 9 C-39 8.67 -39 8.34 -39 8 C-37.329375 7.85304688 -37.329375 7.85304688 -35.625 7.703125 C-24.30989728 6.62513969 -12.74446558 5.25631748 -2.17578125 0.8125 C-1.45777344 0.544375 -0.73976563 0.27625 0 0 Z " fill="#E93715" transform="translate(408,450)"/>
<path d="M0 0 C12.1270037 0.81997534 12.1270037 0.81997534 17 3 C17.33 3.66 17.66 4.32 18 5 C20.52733235 5.65555119 20.52733235 5.65555119 23 6 C23 6.66 23 7.32 23 8 C17.14016367 7.48334032 12.39106117 6.24718923 7 3.9375 C6.32066406 3.65583984 5.64132813 3.37417969 4.94140625 3.08398438 C3.29060213 2.39808689 1.64474531 1.70030171 0 1 C0 0.67 0 0.34 0 0 Z " fill="#B22A0F" transform="translate(99,451)"/>
<path d="M0 0 C6.27 0 12.54 0 19 0 C18.67 0.66 18.34 1.32 18 2 C18.66 2.66 19.32 3.32 20 4 C13.29221378 3.22602467 6.65425699 2.14231412 0 1 C0 0.67 0 0.34 0 0 Z " fill="#FD9D5A" transform="translate(380,54)"/>
<path d="M0 0 C2.0625 0.4375 2.0625 0.4375 4 1 C-1.66507011 4.08900201 -6.50857435 6.57664615 -13 7 C-11.53073487 4.06146974 -9.55564859 3.97311286 -6.5 2.9375 C-2.9728355 1.94590766 -2.9728355 1.94590766 0 0 Z " fill="#AE290F" transform="translate(410,450)"/>
<path d="M0 0 C0.99 0 1.98 0 3 0 C3.14285714 8.57142857 3.14285714 8.57142857 2 12 C1.34 12 0.68 12 0 12 C0 8.04 0 4.08 0 0 Z " fill="#0A0A0A" transform="translate(46,320)"/>
<path d="M0 0 C2.28459758 2.28459758 2.97129748 4.12537344 4.125 7.125 C4.47820313 8.03507812 4.83140625 8.94515625 5.1953125 9.8828125 C5.46085937 10.58148438 5.72640625 11.28015625 6 12 C5.01 12 4.02 12 3 12 C0.58314288 7.77050005 -0.34833144 4.87664009 0 0 Z " fill="#D83B17" transform="translate(58,402)"/>
<path d="M0 0 C0.66 0 1.32 0 2 0 C2.66 0.99 3.32 1.98 4 3 C4.99 3.33 5.98 3.66 7 4 C7.33 6.31 7.66 8.62 8 11 C4.32966073 7.72291137 2.30718811 4.28477792 0 0 Z " fill="#F08F54" transform="translate(440,85)"/>
<path d="M0 0 C4.97093824 0.41153737 9.44508386 0.79600832 14 3 C14 3.33 14 3.66 14 4 C11.36 4 8.72 4 6 4 C6 3.34 6 2.68 6 2 C4.35 2 2.7 2 1 2 C0.67 1.34 0.34 0.68 0 0 Z " fill="#DC3413" transform="translate(116,455)"/>
<path d="M0 0 C-0.49831724 3.68754757 -1.10067643 5.60490662 -4 8 C-4.93423645 4.98968256 -5.04449911 4.13349732 -4 1 C-2 0 -2 0 0 0 Z " fill="#BF794D" transform="translate(64,95)"/>
<path d="M0 0 C1.3921875 0.0928125 1.3921875 0.0928125 2.8125 0.1875 C2.8125 0.8475 2.8125 1.5075 2.8125 2.1875 C-1.6425 2.6825 -1.6425 2.6825 -6.1875 3.1875 C-3.1875 0.1875 -3.1875 0.1875 0 0 Z " fill="#FEAE74" transform="translate(120.1875,52.8125)"/>
<path d="M0 0 C1 2 1 2 0.44140625 3.9453125 C0.15136719 4.66460937 -0.13867188 5.38390625 -0.4375 6.125 C-0.72496094 6.84945312 -1.01242188 7.57390625 -1.30859375 8.3203125 C-1.53675781 8.87460938 -1.76492187 9.42890625 -2 10 C-2.33 10 -2.66 10 -3 10 C-3.36923077 3.47692308 -3.36923077 3.47692308 -1.5 1.0625 C-1.005 0.711875 -0.51 0.36125 0 0 Z " fill="#ED8B51" transform="translate(60,102)"/>
<path d="M0 0 C2.31 0.66 4.62 1.32 7 2 C4.03312999 3.64826111 1.34373475 4.44271087 -2 5 C-1.125 1.125 -1.125 1.125 0 0 Z " fill="#FDA060" transform="translate(113,54)"/>
<path d="M0 0 C0.66 0 1.32 0 2 0 C2.33 2.31 2.66 4.62 3 7 C1.68 6.67 0.36 6.34 -1 6 C-0.67 4.02 -0.34 2.04 0 0 Z " fill="#121212" transform="translate(462,128)"/>
<path d="M0 0 C0.33 0 0.66 0 1 0 C1.36923077 6.52307692 1.36923077 6.52307692 -0.5 8.9375 C-0.995 9.288125 -1.49 9.63875 -2 10 C-1.54177532 6.53058454 -1.10868317 3.32604951 0 0 Z " fill="#DA824E" transform="translate(56,108)"/>
<path d="" fill="#000307" transform="translate(0,0)"/>
<path d="" fill="#000000" transform="translate(0,0)"/>
</svg>
