<?xml version="1.0" standalone="no"?>
<!DOCTYPE svg PUBLIC "-//W3C//DTD SVG 20010904//EN"
 "http://www.w3.org/TR/2001/REC-SVG-20010904/DTD/svg10.dtd">
<svg version="1.0" xmlns="http://www.w3.org/2000/svg"
 width="225.000000pt" height="225.000000pt" viewBox="0 0 225.000000 225.000000"
 preserveAspectRatio="xMidYMid meet">
<metadata>
Created by potrace 1.16, written by Peter Selinger 2001-2019
</metadata>
<g transform="translate(0.000000,225.000000) scale(0.100000,-0.100000)"
fill="#000000" stroke="none">
<path d="M1033 2195 c-69 -19 -77 -23 -423 -224 -356 -208 -401 -247 -450
-390 -20 -61 -21 -78 -18 -484 l3 -422 32 -68 c54 -115 101 -151 446 -351 170
-99 334 -189 365 -202 72 -30 201 -32 277 -6 85 29 682 381 737 434 31 31 62
75 86 125 l37 78 3 402 c3 343 1 412 -13 465 -20 80 -67 159 -126 212 -26 22
-189 124 -364 225 -388 225 -445 245 -592 206z m212 -73 c79 -27 662 -371 712
-420 24 -23 56 -68 71 -100 l27 -57 3 -416 c3 -407 2 -418 -19 -475 -38 -101
-98 -150 -399 -325 -362 -210 -401 -229 -480 -235 -51 -5 -79 -2 -126 15 -88
29 -672 371 -725 424 -23 23 -56 71 -73 107 l-31 65 0 410 c0 409 0 410 24
469 40 101 94 144 386 313 346 200 371 214 414 229 51 18 157 16 216 -4z"/>
</g>
</svg>
