<?xml version="1.0" standalone="no"?>
<!DOCTYPE svg PUBLIC "-//W3C//DTD SVG 20010904//EN"
 "http://www.w3.org/TR/2001/REC-SVG-20010904/DTD/svg10.dtd">
<svg version="1.0" xmlns="http://www.w3.org/2000/svg"
 width="489.000000pt" height="510.000000pt" viewBox="0 0 489.000000 510.000000"
 preserveAspectRatio="xMidYMid meet">
<metadata>
Created by potrace 1.16, written by Peter Selinger 2001-2019
</metadata>
<g transform="translate(0.000000,510.000000) scale(0.100000,-0.100000)"
fill="#000000" stroke="none">
<path d="M2295 4804 c-16 -2 -72 -9 -124 -15 -480 -56 -974 -327 -1297 -712
-537 -640 -635 -1537 -248 -2275 302 -577 860 -974 1518 -1079 139 -22 464
-22 605 1 435 69 820 260 1130 560 286 278 473 603 565 986 43 176 56 292 56
487 0 416 -115 799 -343 1138 -149 222 -367 438 -589 582 -213 139 -480 247
-728 293 -182 34 -416 49 -545 34z m1119 -740 c14 -5 16 -44 16 -334 0 -298
-2 -330 -17 -349 -13 -14 -112 -50 -338 -121 -417 -132 -477 -151 -472 -156 2
-2 180 -60 396 -128 216 -69 401 -132 412 -142 18 -16 19 -35 19 -349 0 -380
7 -352 -97 -385 -32 -10 -263 -83 -513 -163 -1254 -400 -1320 -420 -1335 -407
-13 11 -15 61 -15 326 0 214 4 321 11 338 8 16 28 31 53 41 42 15 369 118 621
196 77 23 143 45 148 49 4 3 -174 63 -395 133 -294 93 -408 133 -420 148 -16
19 -18 51 -18 344 0 293 2 325 18 344 13 17 234 91 957 321 517 164 943 299
947 299 3 1 13 -2 22 -5z"/>
</g>
</svg>
