<?xml version="1.0" standalone="no"?>
<!DOCTYPE svg PUBLIC "-//W3C//DTD SVG 20010904//EN"
 "http://www.w3.org/TR/2001/REC-SVG-20010904/DTD/svg10.dtd">
<svg version="1.0" xmlns="http://www.w3.org/2000/svg"
 width="2048.000000pt" height="2048.000000pt" viewBox="0 0 2048.000000 2048.000000"
 preserveAspectRatio="xMidYMid meet">
<metadata>
Created by potrace 1.16, written by Peter Selinger 2001-2019
</metadata>
<g transform="translate(0.000000,2048.000000) scale(0.100000,-0.100000)"
fill="#000000" stroke="none">
<path d="M1 15648 c1 -2690 6 -4786 10 -4728 5 58 15 165 24 239 8 74 15 152
15 175 0 53 43 362 75 537 14 74 25 145 25 158 0 23 30 176 76 381 46 208 64
283 99 410 13 47 35 128 49 180 15 52 36 122 47 155 12 33 24 77 29 97 4 20
16 60 27 90 36 98 65 183 74 220 5 21 17 57 28 80 10 24 26 63 34 88 30 87 40
115 55 150 18 41 48 117 71 180 9 25 27 66 39 91 12 25 22 49 22 55 0 5 11 31
24 59 13 27 38 84 56 125 42 95 116 256 138 295 8 17 19 37 22 45 4 8 15 31
25 50 10 19 22 42 25 50 9 18 29 57 86 163 24 45 54 102 68 127 13 25 39 71
57 104 19 32 43 75 55 95 11 20 30 52 42 71 12 19 33 55 47 80 14 25 43 74 65
109 22 34 40 67 40 71 0 4 7 13 15 20 8 7 27 34 42 61 14 27 30 49 35 49 4 0
8 4 8 9 0 11 82 135 92 139 4 2 8 8 8 13 0 5 21 40 48 77 26 38 52 75 57 83
13 20 82 115 167 231 9 13 45 60 80 104 170 221 230 294 239 294 5 0 9 6 9 13
0 7 10 23 23 35 12 11 33 35 47 53 14 17 30 37 35 43 6 6 42 47 79 91 38 44
81 92 95 107 14 15 58 61 96 104 91 99 480 488 579 579 43 39 89 82 104 96 15
14 63 57 107 95 44 37 85 73 91 79 6 5 26 21 43 35 18 14 42 35 53 48 12 12
28 22 35 22 7 0 13 4 13 9 0 10 197 168 231 186 11 5 19 13 19 16 0 4 27 26
61 50 33 24 87 64 119 89 61 47 172 128 198 145 9 6 46 31 84 58 37 26 72 47
77 47 5 0 11 4 13 8 3 8 126 92 135 92 2 0 9 5 16 10 15 14 100 69 189 123 38
23 92 56 121 74 29 18 61 37 72 42 11 6 43 24 70 40 44 26 105 60 290 163 46
25 437 219 550 273 49 23 65 30 215 95 41 18 91 40 110 48 37 17 107 44 180
71 25 9 67 27 94 39 27 12 53 22 59 22 5 0 35 11 66 24 67 28 140 54 201 72
25 7 106 34 180 59 219 74 448 141 620 182 36 8 106 25 155 38 178 45 310 75
330 75 11 0 72 11 135 24 157 34 399 76 433 76 15 0 85 9 155 20 70 12 181 25
247 30 66 5 192 16 280 24 88 9 180 17 205 19 25 2 -2139 4 -4807 5 l-4853 2
1 -4832z"/>
<path d="M10970 20464 c85 -7 191 -18 234 -24 44 -5 103 -10 133 -10 30 0 124
-11 209 -25 85 -14 167 -25 182 -25 71 0 698 -122 899 -175 51 -14 101 -25
111 -25 10 0 51 -11 92 -25 41 -13 83 -25 94 -25 10 0 55 -12 100 -26 44 -14
119 -37 166 -51 47 -14 110 -35 141 -45 31 -11 72 -23 90 -28 19 -5 86 -27
149 -50 63 -23 128 -46 145 -51 16 -5 49 -18 72 -29 24 -11 50 -20 58 -20 9 0
38 -11 65 -25 27 -14 54 -25 60 -25 6 0 36 -11 66 -25 30 -14 58 -25 63 -25 8
0 60 -23 187 -81 22 -11 43 -19 47 -19 14 0 638 -304 697 -339 8 -5 22 -12 30
-15 8 -3 42 -21 75 -41 33 -19 78 -44 100 -55 22 -12 65 -36 95 -55 30 -19 64
-39 75 -44 11 -6 41 -23 66 -38 112 -68 163 -99 187 -115 15 -10 41 -25 57
-34 17 -9 39 -24 50 -34 11 -9 49 -34 85 -55 36 -21 72 -45 80 -53 8 -8 40
-30 71 -50 124 -81 229 -155 229 -164 0 -4 5 -8 11 -8 6 0 23 -9 37 -21 36
-28 184 -140 252 -191 30 -23 69 -53 86 -67 17 -14 45 -37 63 -51 18 -14 40
-32 49 -41 9 -9 44 -39 78 -65 54 -43 89 -73 217 -184 16 -14 43 -38 61 -55
217 -200 289 -268 396 -375 141 -140 271 -276 375 -395 39 -43 82 -90 98 -104
15 -14 27 -31 27 -38 0 -7 4 -13 9 -13 12 0 393 -461 436 -528 6 -9 17 -24 26
-34 9 -10 34 -44 55 -76 21 -31 42 -59 45 -62 4 -3 29 -37 55 -75 26 -39 50
-72 54 -75 6 -5 93 -132 115 -168 21 -34 147 -228 176 -270 16 -23 29 -44 29
-46 0 -2 18 -33 40 -67 22 -35 51 -84 65 -109 14 -25 34 -58 44 -75 28 -48 73
-126 99 -175 13 -25 36 -67 52 -95 15 -27 51 -95 79 -150 28 -55 55 -107 60
-115 16 -27 147 -302 181 -380 18 -41 43 -97 55 -125 13 -27 34 -77 48 -110
14 -33 37 -88 51 -121 14 -34 26 -66 26 -71 0 -5 11 -33 25 -61 14 -29 25 -57
25 -63 0 -5 11 -35 25 -65 14 -30 25 -61 25 -69 0 -7 11 -40 24 -72 31 -78 56
-148 71 -203 7 -25 20 -63 29 -85 10 -22 21 -58 26 -80 4 -22 17 -67 29 -100
31 -89 62 -195 71 -240 4 -22 17 -71 28 -110 29 -100 48 -178 96 -390 44 -193
126 -641 126 -684 0 -14 11 -102 25 -195 13 -94 33 -279 45 -411 11 -132 22
-256 24 -275 1 -19 4 2128 4 4773 l2 4807 -4832 -1 c-4102 -1 -4810 -3 -4678
-15z"/>
<path d="M2 4848 l-2 -4848 4838 1 c2660 1 4797 5 4747 10 -266 23 -446 41
-585 60 -85 12 -189 25 -230 29 -117 13 -465 78 -671 125 -58 14 -114 25 -124
25 -10 0 -57 11 -104 24 -47 13 -115 32 -151 41 -224 58 -203 52 -400 112
-161 49 -245 76 -308 100 -34 12 -69 23 -77 23 -8 0 -34 9 -58 19 -38 18 -93
39 -187 71 -19 7 -59 23 -88 36 -29 13 -58 24 -66 24 -7 0 -35 11 -62 25 -27
14 -55 25 -61 25 -7 0 -39 12 -70 26 -66 30 -124 57 -233 104 -175 76 -516
243 -645 316 -33 18 -78 42 -100 53 -22 11 -67 37 -100 56 -33 20 -69 40 -80
46 -11 5 -45 25 -75 44 -30 19 -74 44 -97 55 -23 12 -47 28 -54 36 -6 8 -15
14 -20 14 -5 0 -41 21 -81 47 -102 66 -101 65 -146 90 -22 12 -46 28 -53 36
-8 7 -41 30 -74 51 -33 20 -80 52 -105 70 -25 17 -74 52 -110 76 -36 25 -67
47 -70 50 -3 3 -36 28 -75 55 -38 27 -75 54 -82 60 -7 5 -33 26 -59 45 -26 19
-74 56 -108 83 -33 26 -71 55 -84 65 -12 9 -28 22 -35 27 -6 6 -61 50 -120 99
-60 49 -119 98 -132 110 -13 11 -32 28 -42 36 -86 73 -205 179 -236 211 -21
22 -40 39 -44 39 -9 0 -525 521 -619 625 -45 50 -114 128 -154 175 -40 47 -91
106 -114 132 -22 25 -53 61 -68 80 -14 18 -51 65 -82 103 -31 39 -65 79 -76
90 -11 12 -20 26 -20 32 0 6 -4 13 -8 15 -8 3 -115 141 -137 177 -5 8 -15 20
-21 26 -6 5 -31 39 -55 75 -24 36 -49 70 -55 75 -9 9 -33 43 -124 180 -8 12
-33 49 -55 81 -22 32 -42 64 -45 69 -3 6 -27 44 -54 85 -80 123 -96 149 -96
159 0 5 -7 14 -16 22 -8 7 -27 33 -40 58 -23 43 -53 96 -95 166 -42 70 -139
246 -199 364 -36 69 -73 140 -82 156 -25 44 -150 308 -188 395 -18 41 -43 98
-56 127 -13 28 -24 56 -24 61 0 5 -11 30 -25 56 -14 26 -25 51 -25 56 0 5 -11
34 -25 64 -14 30 -25 59 -25 65 0 6 -11 34 -23 63 -23 52 -32 74 -64 168 -8
25 -24 64 -34 88 -11 23 -23 59 -28 80 -9 37 -38 122 -74 220 -11 30 -23 70
-27 90 -4 20 -17 64 -28 97 -11 33 -32 101 -46 150 -13 50 -35 124 -46 165
-12 41 -26 96 -30 121 -5 26 -18 78 -29 116 -12 39 -21 79 -21 89 0 10 -11 66
-25 124 -41 177 -75 344 -75 371 0 15 -9 71 -21 125 -11 55 -24 140 -30 189
-5 50 -16 131 -25 180 -8 50 -19 144 -24 210 -5 66 -16 192 -24 280 -9 88 -17
180 -19 205 -2 25 -4 -2136 -5 -4802z"/>
<path d="M20462 9448 c-26 -326 -35 -411 -58 -568 -13 -91 -24 -176 -24 -190
1 -38 -77 -456 -127 -680 -66 -303 -175 -702 -245 -900 -11 -30 -26 -75 -33
-100 -7 -25 -29 -90 -50 -145 -20 -55 -40 -113 -45 -130 -4 -16 -17 -50 -29
-75 -11 -25 -21 -51 -21 -58 0 -6 -11 -35 -25 -64 -14 -28 -25 -56 -25 -61 0
-11 -59 -152 -133 -317 -16 -36 -37 -83 -47 -105 -43 -98 -219 -458 -256 -525
-7 -14 -43 -79 -79 -145 -36 -66 -70 -127 -75 -135 -5 -8 -11 -22 -15 -30 -3
-8 -21 -40 -40 -70 -19 -30 -46 -75 -60 -100 -14 -25 -37 -63 -50 -85 -14 -22
-34 -56 -44 -76 -11 -19 -27 -41 -35 -48 -9 -8 -16 -18 -16 -24 0 -5 -11 -25
-25 -43 -14 -18 -25 -35 -25 -37 0 -5 -81 -129 -90 -137 -3 -3 -9 -12 -15 -22
-5 -9 -29 -44 -52 -78 -24 -34 -43 -66 -43 -70 0 -4 -9 -15 -20 -25 -11 -10
-34 -41 -52 -69 -18 -28 -45 -67 -60 -86 -32 -40 -29 -36 -83 -110 -21 -30
-50 -69 -64 -86 -15 -18 -35 -44 -46 -58 -11 -15 -25 -32 -30 -39 -6 -6 -26
-32 -45 -57 -49 -63 -86 -108 -128 -155 -10 -11 -60 -71 -112 -132 -51 -62
-97 -113 -101 -113 -5 0 -9 -6 -9 -13 0 -7 -12 -24 -27 -38 -16 -13 -59 -60
-98 -104 -94 -105 -520 -532 -619 -620 -43 -39 -93 -83 -111 -100 -61 -57
-110 -101 -174 -154 -35 -29 -70 -58 -76 -64 -7 -7 -27 -23 -44 -37 -18 -14
-42 -35 -53 -47 -12 -13 -27 -23 -34 -23 -7 0 -14 -4 -16 -8 -5 -13 -167 -142
-178 -142 -5 0 -13 -6 -17 -13 -11 -17 -171 -137 -183 -137 -5 0 -13 -6 -17
-13 -10 -17 -180 -137 -193 -137 -6 0 -10 -4 -10 -9 0 -5 -23 -24 -52 -43 -78
-50 -79 -51 -142 -93 -32 -22 -66 -44 -75 -50 -9 -5 -31 -20 -48 -32 -17 -13
-34 -23 -39 -23 -4 0 -22 -11 -40 -25 -18 -14 -36 -25 -39 -25 -3 0 -21 -11
-38 -24 -18 -13 -42 -27 -54 -31 -13 -3 -23 -10 -23 -15 0 -4 -15 -15 -32 -24
-18 -9 -55 -30 -83 -46 -27 -16 -72 -42 -99 -57 -26 -16 -69 -40 -95 -55 -25
-14 -66 -37 -91 -50 -97 -52 -238 -127 -256 -136 -11 -5 -35 -17 -54 -27 -19
-10 -42 -22 -50 -25 -13 -6 -44 -22 -100 -51 -26 -14 -202 -95 -280 -129 -41
-18 -98 -43 -127 -56 -28 -13 -56 -24 -61 -24 -5 0 -30 -11 -56 -25 -26 -14
-51 -25 -56 -25 -5 0 -34 -11 -64 -25 -30 -14 -60 -25 -65 -25 -6 0 -34 -11
-63 -25 -28 -14 -57 -25 -64 -25 -6 0 -37 -11 -68 -25 -31 -14 -63 -25 -72
-25 -8 0 -34 -9 -57 -20 -23 -12 -58 -25 -77 -29 -36 -9 -123 -39 -218 -74
-30 -11 -70 -23 -90 -27 -20 -4 -64 -17 -97 -28 -89 -30 -318 -93 -475 -131
-25 -6 -72 -17 -105 -25 -65 -16 -220 -50 -410 -91 -66 -14 -132 -25 -146 -25
-15 0 -71 -9 -125 -21 -55 -11 -139 -24 -189 -30 -49 -5 -130 -16 -180 -25
-49 -8 -144 -19 -210 -24 -66 -5 -192 -16 -280 -24 -88 -9 -180 -17 -205 -19
-25 -2 2136 -4 4803 -5 l4847 -2 0 4795 c0 2637 -1 4795 -3 4795 -2 0 -8 -64
-15 -142z"/>
</g>
</svg>
