<?xml version="1.0" standalone="no"?>
<!DOCTYPE svg PUBLIC "-//W3C//DTD SVG 20010904//EN"
 "http://www.w3.org/TR/2001/REC-SVG-20010904/DTD/svg10.dtd">
<svg version="1.0" xmlns="http://www.w3.org/2000/svg"
 width="512.000000pt" height="512.000000pt" viewBox="0 0 512.000000 512.000000"
 preserveAspectRatio="xMidYMid meet">
<metadata>
Created by potrace 1.16, written by Peter Selinger 2001-2019
</metadata>
<g transform="translate(0.000000,512.000000) scale(0.100000,-0.100000)"
fill="#000000" stroke="none">
<path d="M1389 4716 c-2 -2 -38 -7 -79 -10 -250 -21 -446 -100 -601 -244 -170
-157 -255 -336 -295 -622 -12 -88 -16 -2326 -4 -2495 6 -88 12 -167 14 -175 1
-8 6 -37 11 -65 27 -171 132 -364 266 -490 131 -123 321 -213 506 -239 143
-21 416 -26 1353 -26 1153 0 1287 5 1468 51 234 59 441 218 559 429 37 66 87
206 98 275 5 28 10 57 11 65 2 8 8 87 14 175 12 168 9 2416 -3 2485 -4 19 -9
55 -12 80 -53 412 -362 721 -785 785 -19 2 -53 8 -75 12 -42 7 -2438 16 -2446
9z m2181 -887 c184 -89 343 -169 354 -178 47 -40 46 -18 46 -1083 0 -961 -1
-1005 -19 -1045 -24 -51 -23 -51 -428 -248 -312 -152 -323 -157 -357 -145 -55
18 -61 35 -13 37 30 1 47 8 63 26 20 24 21 35 27 543 4 286 7 883 7 1327 0
777 -1 809 -19 845 -19 37 -55 62 -89 62 -15 0 -15 2 -2 10 44 28 89 13 430
-151z"/>
</g>
</svg>
