<?xml version="1.0" encoding="UTF-8"?>
<svg version="1.1" xmlns="http://www.w3.org/2000/svg" width="512" height="512">
<path d="M0 0 C0.66483398 0.35175293 1.32966797 0.70350586 2.01464844 1.06591797 C18.67626924 9.93908845 33.56048463 20.98260645 47.49609375 33.71875 C49.16076737 35.23539492 50.84054101 36.73563528 52.53515625 38.21875 C72.45236414 55.70402679 87.55515066 77.77610222 100 101 C100.50611816 101.9283667 100.50611816 101.9283667 101.02246094 102.87548828 C117.19508552 132.71989745 126.92578197 167.62625897 127.23828125 201.65234375 C127.2480751 202.54194794 127.25786896 203.43155212 127.26795959 204.34811401 C127.51527838 232.64402983 125.22439954 258.76698826 117 286 C116.74911621 286.83515137 116.49823242 287.67030273 116.23974609 288.53076172 C106.07437445 321.53716779 88.09593076 352.35443519 64.41015625 377.4375 C62.38118286 379.59472292 60.46178419 381.79251215 58.5625 384.0625 C21.16928734 426.82273848 -39.5406126 451.92802758 -95.22705078 456.25048828 C-136.20346104 458.92657077 -176.34359927 452.51991608 -214 436 C-214.7312207 435.68450195 -215.46244141 435.36900391 -216.21582031 435.04394531 C-238.28291995 425.44739229 -257.98377545 411.84123955 -276 396 C-277.34578125 394.82244141 -277.34578125 394.82244141 -278.71875 393.62109375 C-288.00565429 385.38039936 -296.30832476 376.75147979 -304 367 C-304.78117187 366.03578125 -305.56234375 365.0715625 -306.3671875 364.078125 C-346.62692387 313.39973481 -363.41442439 248.13426933 -356.39794922 184.19873047 C-349.60288014 129.57971511 -324.64727777 81.54446342 -287 42 C-286.31550781 41.27425781 -285.63101563 40.54851562 -284.92578125 39.80078125 C-279.67438559 34.3789549 -273.91325297 29.67904694 -268 25 C-267.03449219 24.21753906 -266.06898438 23.43507812 -265.07421875 22.62890625 C-190.09154113 -36.91896352 -83.98515204 -44.860979 0 0 Z " fill="#EBB494" transform="translate(369,42)"/>
<path d="M0 0 C0.66483398 0.35175293 1.32966797 0.70350586 2.01464844 1.06591797 C18.67626924 9.93908845 33.56048463 20.98260645 47.49609375 33.71875 C49.16076737 35.23539492 50.84054101 36.73563528 52.53515625 38.21875 C72.45236414 55.70402679 87.55515066 77.77610222 100 101 C100.50611816 101.9283667 100.50611816 101.9283667 101.02246094 102.87548828 C117.19508552 132.71989745 126.92578197 167.62625897 127.23828125 201.65234375 C127.2480751 202.54194794 127.25786896 203.43155212 127.26795959 204.34811401 C127.51527838 232.64402983 125.22439954 258.76698826 117 286 C116.74911621 286.83515137 116.49823242 287.67030273 116.23974609 288.53076172 C106.07437445 321.53716779 88.09593076 352.35443519 64.41015625 377.4375 C62.38118286 379.59472292 60.46178419 381.79251215 58.5625 384.0625 C21.16928734 426.82273848 -39.5406126 451.92802758 -95.22705078 456.25048828 C-136.20346104 458.92657077 -176.34359927 452.51991608 -214 436 C-214.7312207 435.68450195 -215.46244141 435.36900391 -216.21582031 435.04394531 C-238.28291995 425.44739229 -257.98377545 411.84123955 -276 396 C-277.34578125 394.82244141 -277.34578125 394.82244141 -278.71875 393.62109375 C-288.00565429 385.38039936 -296.30832476 376.75147979 -304 367 C-304.78117187 366.03578125 -305.56234375 365.0715625 -306.3671875 364.078125 C-346.62692387 313.39973481 -363.41442439 248.13426933 -356.39794922 184.19873047 C-349.60288014 129.57971511 -324.64727777 81.54446342 -287 42 C-286.31550781 41.27425781 -285.63101563 40.54851562 -284.92578125 39.80078125 C-279.67438559 34.3789549 -273.91325297 29.67904694 -268 25 C-267.03449219 24.21753906 -266.06898438 23.43507812 -265.07421875 22.62890625 C-190.09154113 -36.91896352 -83.98515204 -44.860979 0 0 Z M-192 53 C-192.84788086 53.6182666 -192.84788086 53.6182666 -193.71289062 54.24902344 C-214.0689017 69.23230324 -233.03917813 86.57102425 -248 107 C-248.85761005 108.13967137 -249.71568576 109.27899248 -250.57421875 110.41796875 C-257.26619411 119.41993561 -262.98214836 128.96429671 -268 139 C-268.54599854 138.87882812 -269.09199707 138.75765625 -269.65454102 138.6328125 C-280.54567141 136.27870762 -291.21134336 134.58743665 -302.375 134.5 C-303.31802979 134.48195313 -304.26105957 134.46390625 -305.23266602 134.4453125 C-312.57872118 134.50841955 -317.5279373 136.35103063 -323.33984375 140.78515625 C-325.57244639 143.76371084 -326.55868385 146.9054922 -327.5625 150.4375 C-327.77156982 151.14543701 -327.98063965 151.85337402 -328.19604492 152.58276367 C-328.81627486 154.71703503 -329.41239138 156.85654105 -330 159 C-330.32484375 160.17304688 -330.6496875 161.34609375 -330.984375 162.5546875 C-333.93392666 174.15811241 -333.51008503 183.35164271 -329.5 194.625 C-329.13688721 195.67260498 -328.77377441 196.72020996 -328.3996582 197.79956055 C-324.55000056 208.66159954 -320.13112247 219.05586152 -314.015625 228.84375 C-304.67460398 243.84947724 -304.67460398 243.84947724 -306.37890625 252.40625 C-306.58386719 253.2621875 -306.78882813 254.118125 -307 255 C-308.96949858 275.91249401 -302.01341606 303.11541794 -289.7265625 320.15234375 C-286.51532324 323.88417641 -283.90433821 326.53677787 -279.484375 328.80078125 C-275.29028274 331.10149228 -273.83270663 334.17154548 -271.8125 338.375 C-258.98414946 362.90267176 -235.0990938 378.53587109 -213 394 C-205.6427424 399.15424766 -198.38454515 404.395787 -191.3125 409.9375 C-190.72380127 410.39842041 -190.13510254 410.85934082 -189.52856445 411.33422852 C-188.00576483 412.53956427 -186.50182376 413.76862745 -185 415 C-184.37480469 415.45503906 -183.74960938 415.91007812 -183.10546875 416.37890625 C-181.26647299 419.07566681 -181.82169229 421.84989706 -182 425 C-169.55221529 429.3513746 -157.01719667 431.9593524 -144 434 C-142.38146118 434.26695679 -142.38146118 434.26695679 -140.73022461 434.53930664 C-136.58426755 435.05134414 -132.55453466 435.16188929 -128.3828125 435.16796875 C-127.56738983 435.17129715 -126.75196716 435.17462555 -125.91183472 435.17805481 C-124.18895018 435.18309645 -122.46605597 435.18546399 -120.74316406 435.18530273 C-118.16714323 435.18746463 -115.59156887 435.20558139 -113.015625 435.22460938 C-56.6434924 435.41626264 -2.46387615 412.45673765 38.15234375 373.6953125 C39.79039365 372.1448949 41.45645123 370.62084443 43.19140625 369.1796875 C48.19006624 364.88278324 49.63662589 360.01662549 51.65234375 353.83984375 C54.65156362 344.92354958 59.53288666 336.61634218 64.08984375 328.421875 C82.7388674 294.8184456 92.89738 260.9737573 93.125 222.3125 C93.13225098 221.12442749 93.13225098 221.12442749 93.13964844 219.91235352 C93.22389587 215.82466641 93.22389587 215.82466641 92 212 C91.65639668 209.33880256 91.36003522 206.6889528 91.09765625 204.01953125 C91.01503036 203.21448654 90.93240448 202.40944183 90.84727478 201.58000183 C90.58198468 198.99119557 90.32185013 196.40190756 90.0625 193.8125 C87.92881196 170.89885357 87.92881196 170.89885357 83.6875 148.3125 C83.4702124 147.41748779 83.2529248 146.52247559 83.02905273 145.6003418 C78.57961617 127.90681657 69.59582854 112.33889524 56 100 C52.28339185 98.20936861 48.91831384 97.60993197 44.828125 97.21875 C43.61946777 97.09991455 42.41081055 96.9810791 41.16552734 96.85864258 C39.87340332 96.74029053 38.5812793 96.62193848 37.25 96.5 C35.89401612 96.37227367 34.53805938 96.2442589 33.18212891 96.1159668 C30.43015426 95.85757547 27.67772239 95.6050683 24.92480469 95.35693359 C21.43017388 95.03912131 17.93781827 94.70344634 14.4453125 94.36328125 C-23.31685454 90.83596318 -63.18072866 91.97903462 -99.37963867 104.33251953 C-102 105 -102 105 -105 104 C-106.21875 102.6171875 -106.21875 102.6171875 -107.5 100.875 C-115.04662605 91.75537993 -127.58868127 85.79389986 -139.26953125 84.69140625 C-146.16197758 84.44063367 -151.13816018 84.37629815 -156.38671875 89.1640625 C-163.18181835 96.89698456 -165.38769608 105.09970385 -165.3125 115.25 C-165.31121094 115.9814624 -165.30992187 116.7129248 -165.30859375 117.46655273 C-165.19573281 123.91726092 -163.98828746 129.85761196 -162 136 C-162.68964844 136.21785156 -163.37929687 136.43570313 -164.08984375 136.66015625 C-167.77212753 138.35548959 -170.55701914 140.77520409 -173.5625 143.4375 C-174.17528809 143.97318604 -174.78807617 144.50887207 -175.41943359 145.06079102 C-177.28661518 146.69946123 -179.14390054 148.34879789 -181 150 C-181.8046167 150.70769531 -181.8046167 150.70769531 -182.62548828 151.4296875 C-232.64775838 195.48366256 -262.69281729 262.69745975 -276 327 C-276.66 327 -277.32 327 -278 327 C-298.12202008 286.59102524 -286.23060447 234.5843724 -272.61328125 193.58056641 C-260.78003654 159.064705 -242.18596184 126.50436057 -217 100 C-215.80523226 98.63131037 -214.61719728 97.25670024 -213.4375 95.875 C-184.43389263 62.58212675 -140.28636293 32.68647796 -95.37744141 29.14501953 C-79.61002886 28.18323651 -64.5033431 29.11043577 -49 32 C-46.00744721 32.54787583 -43.01475777 33.09499623 -40.02197266 33.64160156 C-38.09454265 33.99713147 -36.16834375 34.35942334 -34.24365234 34.72949219 C-33.37047363 34.89481445 -32.49729492 35.06013672 -31.59765625 35.23046875 C-30.82945557 35.37895264 -30.06125488 35.52743652 -29.26977539 35.68041992 C-26.81995221 36.02535039 -24.47079344 36.05370697 -22 36 C-24.95732792 33.59411172 -27.79672723 32.10576265 -31.33203125 30.6953125 C-32.37045166 30.27902588 -33.40887207 29.86273926 -34.47875977 29.43383789 C-35.57889404 29.00192139 -36.67902832 28.57000488 -37.8125 28.125 C-39.50620728 27.45682251 -39.50620728 27.45682251 -41.23413086 26.77514648 C-96.03945549 5.31728879 -145.42825631 19.02797565 -192 53 Z " fill="#E49B71" transform="translate(369,42)"/>
<path d="M0 0 C0.33 0 0.66 0 1 0 C1.33 25.08 1.66 50.16 2 76 C28.93829959 56.40850939 41.25933581 33.26366002 48 1 C48.33 1 48.66 1 49 1 C50.14195515 42.87168891 38.17134097 79.48850839 18.44628906 115.8605957 C11.06267276 128.99826058 11.06267276 128.99826058 5.39453125 142.91821289 C3.56993215 148.55328207 0.77713484 151.90611811 -3.5 155.9375 C-4.12656494 156.54376221 -4.75312988 157.15002441 -5.39868164 157.7746582 C-10.68763415 162.83468088 -16.17798995 167.56081555 -22 172 C-22.55768066 172.42877441 -23.11536133 172.85754883 -23.68994141 173.29931641 C-45.22814376 189.78484246 -69.06444911 201.9746194 -95 210 C-95.77182617 210.23944336 -96.54365234 210.47888672 -97.33886719 210.72558594 C-118.37888084 217.13989877 -139.07202502 219.23463424 -161 219.25 C-161.86783112 219.25067474 -162.73566223 219.25134949 -163.62979126 219.25204468 C-176.31498502 219.2363834 -188.59134223 218.86889884 -201 216 C-201.87720703 215.80180664 -202.75441406 215.60361328 -203.65820312 215.39941406 C-219.91527676 211.66744433 -219.91527676 211.66744433 -226 209 C-225.36502397 204.33125818 -223.44829079 200.43092499 -221.38671875 196.25390625 C-220.63079686 194.69374949 -219.87536489 193.13335528 -219.12036133 191.57275391 C-218.52452744 190.34748993 -218.52452744 190.34748993 -217.91665649 189.09747314 C-187.05339593 126.57471438 -187.05339593 126.57471438 -189.70019531 58.90576172 C-193.2099998 49.42487477 -198.092492 41.18902833 -204 33 C-204.66 32.01 -205.32 31.02 -206 30 C-201.53970239 31.548832 -197.83299299 33.95616297 -193.9375 36.5625 C-175.81433523 48.47282308 -157.17790289 59.86747855 -138 70 C-137.34209473 70.34820801 -136.68418945 70.69641602 -136.00634766 71.05517578 C-110.74615173 84.30917389 -79.43130576 98.91435435 -50.4375 89.9375 C-44.66991428 88.01828491 -39.78957504 85.31485724 -35.015625 81.55078125 C-33 80 -33 80 -30.859375 79.04296875 C-28.48904665 77.71339381 -28.09763665 76.44577128 -27 74 C-25.99721828 72.79721749 -24.97406476 71.61129319 -23.9375 70.4375 C-18.16788132 63.15908983 -14.69828514 54.4534982 -11 46 C-10.57589844 45.04222656 -10.15179688 44.08445312 -9.71484375 43.09765625 C-4.33217338 29.65187643 -1.81061307 14.32276007 0 0 Z " fill="#FEFEFE" transform="translate(413,258)"/>
<path d="M0 0 C0 0.33 0 0.66 0 1 C-7.26261582 0.71007522 -14.17317197 -0.36962269 -21.25 -1.9375 C-49.92522329 -8.17589533 -79.25249726 -8.2603306 -107 2 C-107.67595215 2.24733887 -108.3519043 2.49467773 -109.04833984 2.74951172 C-139.32208881 14.02519142 -163.7702071 34.06778409 -187 56 C-187.67804688 56.63550781 -188.35609375 57.27101563 -189.0546875 57.92578125 C-193.29883696 62.02324352 -196.98627448 66.5223313 -200.6796875 71.1171875 C-202.18791279 72.99104316 -203.71316932 74.8513613 -205.2578125 76.6953125 C-246.69477093 126.21753112 -270.06402271 196.48363955 -266 261 C-264.73626242 271.22106271 -261.26122279 280.66589294 -257 290 C-256.324629 291.66315851 -255.65525001 293.32881191 -255 295 C-267.74291532 289.71635219 -272.00124436 277.9816287 -277.25390625 266.18359375 C-282.24287186 253.68183287 -285.17358844 238.67079216 -285.125 225.1875 C-285.13080078 223.92873047 -285.13080078 223.92873047 -285.13671875 222.64453125 C-285 220 -285 220 -284.45703125 217.26171875 C-282.71841554 207.60129011 -286.82229077 201.96454494 -291.74804688 194.06884766 C-302.62251215 176.0988362 -314.75801263 152.34976693 -309.79296875 131.140625 C-309.27175486 129.17333647 -308.73648152 127.20972125 -308.1875 125.25 C-307.79594727 123.76693359 -307.79594727 123.76693359 -307.39648438 122.25390625 C-303.35201871 107.29437647 -303.35201871 107.29437647 -298 103.625 C-297.319375 103.14289063 -296.63875 102.66078125 -295.9375 102.1640625 C-284.57821641 95.33933163 -264.21824143 100.18936758 -252 103 C-250.00244701 103.34769694 -248.00312074 103.68596433 -246 104 C-245.34257812 102.67162109 -245.34257812 102.67162109 -244.671875 101.31640625 C-237.23794222 86.66088153 -227.72990551 73.42617734 -217 61 C-216.319375 60.20851563 -215.63875 59.41703125 -214.9375 58.6015625 C-205.15546286 47.4888806 -194.71989459 37.05973694 -183 28 C-181.73528809 26.99528113 -180.4709947 25.99003529 -179.20703125 24.984375 C-153.01193133 4.33680068 -124.76814512 -11.18917914 -92 -18 C-90.824375 -18.24878906 -89.64875 -18.49757812 -88.4375 -18.75390625 C-56.88929159 -24.50823508 -28.23315004 -12.91251421 0 0 Z " fill="#FEFDFD" transform="translate(347,77)"/>
<path d="M0 0 C1.59618164 -0.00580078 1.59618164 -0.00580078 3.22460938 -0.01171875 C24.87376502 0.01469877 24.87376502 0.01469877 31.6875 5.125 C37.43427355 12.34530523 37.34085403 19.19582827 36.6875 28.125 C33.87531757 41.14701672 25.4764366 54.35753807 16.6875 64.125 C16.11257813 64.78113281 15.53765625 65.43726563 14.9453125 66.11328125 C10.75645134 70.62065028 6.21956988 73.48469392 0.6875 76.125 C0.07390625 76.44597656 -0.5396875 76.76695312 -1.171875 77.09765625 C-9.16830191 80.77122844 -18.86081085 80.16561999 -27.125 77.6875 C-44.61403424 71.04727844 -65.48930838 59.30411141 -74.3125 42.125 C-75.04967522 37.12859017 -74.85739671 34.33987436 -71.9375 30.1875 C-57.72745061 13.30067386 -36.4885812 2.87513691 -14.65966797 0.3125 C-9.78004989 -0.07730099 -4.89201253 -0.01758662 0 0 Z " fill="#FEFEFE" transform="translate(396.3125,138.875)"/>
<path d="M0 0 C1.36691554 2.73383109 0.65518553 3.87238376 -0.1875 6.78515625 C-0.47052979 7.77805664 -0.75355957 8.77095703 -1.04516602 9.79394531 C-1.51780884 11.41187988 -1.51780884 11.41187988 -2 13.0625 C-2.65516189 15.35019915 -3.3101037 17.63796133 -3.96484375 19.92578125 C-4.30370605 21.10092285 -4.64256836 22.27606445 -4.99169922 23.48681641 C-6.24763634 27.86282976 -7.47297375 32.24697768 -8.6940918 36.6328125 C-9.55960651 39.73961368 -10.4315037 42.84456523 -11.3046875 45.94921875 C-12.42847961 49.94799215 -13.53626129 53.9507078 -14.6328125 57.95703125 C-15.1508774 59.82556639 -15.66909896 61.69405809 -16.1875 63.5625 C-16.4131665 64.40071289 -16.63883301 65.23892578 -16.87133789 66.10253906 C-18.95858676 73.56534527 -21.18647893 80.67923054 -28 85 C-31.8517577 87.02217279 -33.83176205 86.96564179 -38 86 C-37.88128787 83.85380963 -37.75449311 81.70806688 -37.625 79.5625 C-37.55539062 78.36753906 -37.48578125 77.17257812 -37.4140625 75.94140625 C-36.87977896 68.60424836 -35.88765314 61.30097316 -35 54 C-35.21615967 55.02883301 -35.43231934 56.05766602 -35.6550293 57.11767578 C-36.46661411 60.95709076 -37.30151042 64.79113017 -38.14331055 68.62402344 C-38.50346973 70.27923683 -38.85740913 71.93581695 -39.20483398 73.59375 C-39.70722887 75.9856959 -40.23227165 78.37172752 -40.76171875 80.7578125 C-40.91090256 81.49242706 -41.06008636 82.22704163 -41.21379089 82.98391724 C-42.51763806 88.69803266 -44.83648648 92.83656494 -49.81640625 96.2421875 C-56.34835667 98.60947155 -63.6252123 99.36071992 -70.3359375 97.2734375 C-72.36123999 96.3189846 -74.15359132 95.26398447 -76 94 C-76.84884766 93.43925781 -76.84884766 93.43925781 -77.71484375 92.8671875 C-82.80176979 89.11107096 -84.0659024 84.80229281 -86 79 C-86.22051622 76.64027709 -86.39115396 74.27578153 -86.53515625 71.91015625 C-86.57813339 71.21039169 -86.62111053 70.51062714 -86.66539001 69.78965759 C-86.75555972 68.30447124 -86.84368769 66.81915973 -86.92993164 65.33374023 C-87.06021404 63.10166442 -87.19852861 60.87019693 -87.33789062 58.63867188 C-87.83649171 50.41639926 -88.13412888 42.24147432 -88 34 C-87.31075439 33.95512451 -86.62150879 33.91024902 -85.91137695 33.86401367 C-67.73464623 32.8136139 -67.73464623 32.8136139 -50 29 C-49.32984863 28.80422363 -48.65969727 28.60844727 -47.96923828 28.40673828 C-29.01141988 22.82009442 -13.74077979 14.48352464 0 0 Z " fill="#E49B72" transform="translate(419,336)"/>
<path d="M0 0 C13.78741579 5.87405978 22.72042007 13.6166214 29.4296875 27.03515625 C29.79357568 30.892371 29.9944212 33.19279567 27.80078125 36.46484375 C25.16524046 39.32182207 22.34048295 41.61611327 19.1796875 43.84765625 C18.57995117 44.2748999 17.98021484 44.70214355 17.36230469 45.14233398 C10.46209021 49.91347612 3.0127464 53.49331289 -4.5703125 57.03515625 C-5.5603125 57.53015625 -5.5603125 57.53015625 -6.5703125 58.03515625 C-21.9549307 59.35168837 -21.9549307 59.35168837 -27.9921875 54.71875 C-34.72783128 47.53295181 -36.95881028 38.32768968 -36.8828125 28.72265625 C-36.87717285 27.9757251 -36.8715332 27.22879395 -36.86572266 26.45922852 C-36.6162596 15.06667046 -33.0960482 7.56089195 -25.0703125 -0.46484375 C-17.30095799 -3.79456711 -7.86628283 -2.77254231 0 0 Z " fill="#FEFEFD" transform="translate(240.5703125,128.96484375)"/>
</svg>
