<?xml version="1.0" encoding="UTF-8"?>
<svg version="1.1" xmlns="http://www.w3.org/2000/svg" width="245" height="222">
<path d="M0 0 C1.61975353 0.83772529 3.2330722 1.68803131 4.83911133 2.55175781 C5.6070401 2.95914185 6.37496887 3.36652588 7.16616821 3.78625488 C16.7907326 9.04041138 23.34840858 14.80985755 29.77661133 23.73925781 C31.37575968 25.62259453 33.0390583 27.42184042 34.71411133 29.23925781 C38.71283867 33.58355419 41.02818338 36.12997412 41.04223633 42.17675781 C41.04481445 43.23636719 41.04739258 44.29597656 41.05004883 45.38769531 C41.04231445 46.49371094 41.03458008 47.59972656 41.02661133 48.73925781 C41.0343457 49.84527344 41.04208008 50.95128906 41.05004883 52.09082031 C41.0474707 53.15042969 41.04489258 54.21003906 41.04223633 55.30175781 C41.03998047 56.27242187 41.03772461 57.24308594 41.03540039 58.24316406 C40.77661133 60.73925781 40.77661133 60.73925781 38.77661133 63.73925781 C39.43661133 64.39925781 40.09661133 65.05925781 40.77661133 65.73925781 C41.23256079 69.72081117 41.10064545 73.7346091 41.08911133 77.73925781 C41.10522461 78.85816406 41.12133789 79.97707031 41.13793945 81.12988281 C41.13858398 82.19722656 41.13922852 83.26457031 41.13989258 84.36425781 C41.14287354 85.34652344 41.14585449 86.32878906 41.14892578 87.34082031 C41.02606201 88.13230469 40.90319824 88.92378906 40.77661133 89.73925781 C39.78661133 90.39925781 38.79661133 91.05925781 37.77661133 91.73925781 C38.26411865 92.12210937 38.75162598 92.50496094 39.25390625 92.89941406 C41.31933021 95.3950105 41.14975534 96.96522965 41.13989258 100.17675781 C41.13892578 101.76617187 41.13892578 101.76617187 41.13793945 103.38769531 C41.12182617 104.49371094 41.10571289 105.59972656 41.08911133 106.73925781 C41.09233398 107.84527344 41.09555664 108.95128906 41.09887695 110.09082031 C41.04369082 118.33863857 41.04369082 118.33863857 38.77661133 121.73925781 C39.43661133 122.39925781 40.09661133 123.05925781 40.77661133 123.73925781 C42.36731371 131.78597145 43.17223335 142.6504587 39.62084961 150.19433594 C36.73997449 154.42973115 33.17112189 157.86576885 29.36108398 161.26269531 C27.28132698 163.20081093 25.66421861 165.40483116 23.96411133 167.67675781 C19.08229266 173.14193846 12.50128318 175.7479851 5.94946289 178.73339844 C2.30698644 180.41957855 -1.26625651 182.24184281 -4.84838867 184.05175781 C-6.13192466 184.69432086 -7.4157638 185.33627883 -8.69995117 185.97753906 C-12.10310051 187.61053859 -12.10310051 187.61053859 -14.71118164 189.28930664 C-19.74426677 191.36712484 -24.53892552 191.47847892 -29.94213867 191.70019531 C-31.09700775 191.74844452 -32.25187683 191.79669373 -33.44174194 191.84640503 C-56.10999332 192.61787981 -76.70154994 192.90968452 -97.09838867 181.98925781 C-98.24053833 181.3848587 -98.24053833 181.3848587 -99.40576172 180.76824951 C-109.50194673 175.2666412 -116.97003394 168.63263964 -124.22338867 159.73925781 C-125.13136668 158.64459017 -126.04006121 157.55051646 -126.94946289 156.45703125 C-128.49265435 154.58811426 -130.02502265 152.71017925 -131.54370117 150.82128906 C-133.05612045 148.87107576 -133.05612045 148.87107576 -134.22338867 147.73925781 C-134.50397357 143.78811236 -134.45520303 139.82418059 -134.47338867 135.86425781 C-134.49401367 134.74921875 -134.51463867 133.63417969 -134.53588867 132.48535156 C-134.54104492 131.41671875 -134.54620117 130.34808594 -134.55151367 129.24707031 C-134.56085938 128.26367676 -134.57020508 127.2802832 -134.57983398 126.26708984 C-134.17162335 123.37214946 -133.48856653 122.50878784 -131.22338867 120.73925781 C-132.21338867 120.07925781 -133.20338867 119.41925781 -134.22338867 118.73925781 C-134.61157227 116.35668945 -134.61157227 116.35668945 -134.62182617 113.39941406 C-134.62569336 112.33658203 -134.62956055 111.27375 -134.63354492 110.17871094 C-134.61614258 108.50711914 -134.61614258 108.50711914 -134.59838867 106.80175781 C-134.60999023 105.69123047 -134.6215918 104.58070312 -134.63354492 103.43652344 C-134.62967773 102.37240234 -134.62581055 101.30828125 -134.62182617 100.21191406 C-134.61844238 99.23488525 -134.61505859 98.25785645 -134.61157227 97.2512207 C-134.16832579 94.38294209 -133.4690301 93.50209748 -131.22338867 91.73925781 C-132.21338867 91.07925781 -133.20338867 90.41925781 -134.22338867 89.73925781 C-134.59570312 87.35668945 -134.59570312 87.35668945 -134.58666992 84.39941406 C-134.58602539 83.33658203 -134.58538086 82.27375 -134.5847168 81.17871094 C-134.56860352 80.06431641 -134.55249023 78.94992188 -134.53588867 77.80175781 C-134.53911133 76.69123047 -134.54233398 75.58070312 -134.5456543 74.43652344 C-134.4903759 66.13973866 -134.4903759 66.13973866 -132.22338867 62.73925781 C-132.88338867 62.07925781 -133.54338867 61.41925781 -134.22338867 60.73925781 C-135.81527885 52.68653562 -136.62749599 41.80891912 -133.05151367 34.26806641 C-130.16366026 30.03983103 -126.60544719 26.57824685 -122.7956543 23.18164062 C-120.77501181 21.32792078 -119.10799327 19.26339494 -117.41088867 17.11425781 C-111.19736479 10.12175533 -102.07499018 6.52114817 -93.82177734 2.43554688 C-91.89534285 1.48155939 -89.97226715 0.52104563 -88.04956055 -0.44042969 C-63.78206567 -12.52573251 -24.42313459 -11.71108787 0 0 Z " fill="#0C3F6B" transform="translate(169.223388671875,19.2607421875)"/>
<path d="M0 0 C1.61975353 0.83772529 3.2330722 1.68803131 4.83911133 2.55175781 C5.6070401 2.95914185 6.37496887 3.36652588 7.16616821 3.78625488 C16.7907326 9.04041138 23.34840858 14.80985755 29.77661133 23.73925781 C31.37575968 25.62259453 33.0390583 27.42184042 34.71411133 29.23925781 C38.71283867 33.58355419 41.02818338 36.12997412 41.04223633 42.17675781 C41.04481445 43.23636719 41.04739258 44.29597656 41.05004883 45.38769531 C41.04231445 46.49371094 41.03458008 47.59972656 41.02661133 48.73925781 C41.0343457 49.84527344 41.04208008 50.95128906 41.05004883 52.09082031 C41.0474707 53.15042969 41.04489258 54.21003906 41.04223633 55.30175781 C41.03998047 56.27242187 41.03772461 57.24308594 41.03540039 58.24316406 C40.77661133 60.73925781 40.77661133 60.73925781 38.77661133 63.73925781 C39.43661133 64.39925781 40.09661133 65.05925781 40.77661133 65.73925781 C41.23256079 69.72081117 41.10064545 73.7346091 41.08911133 77.73925781 C41.10522461 78.85816406 41.12133789 79.97707031 41.13793945 81.12988281 C41.13858398 82.19722656 41.13922852 83.26457031 41.13989258 84.36425781 C41.14287354 85.34652344 41.14585449 86.32878906 41.14892578 87.34082031 C41.02606201 88.13230469 40.90319824 88.92378906 40.77661133 89.73925781 C39.78661133 90.39925781 38.79661133 91.05925781 37.77661133 91.73925781 C38.26411865 92.12210937 38.75162598 92.50496094 39.25390625 92.89941406 C41.31933021 95.3950105 41.14975534 96.96522965 41.13989258 100.17675781 C41.13892578 101.76617187 41.13892578 101.76617187 41.13793945 103.38769531 C41.12182617 104.49371094 41.10571289 105.59972656 41.08911133 106.73925781 C41.09233398 107.84527344 41.09555664 108.95128906 41.09887695 110.09082031 C41.04369082 118.33863857 41.04369082 118.33863857 38.77661133 121.73925781 C39.43661133 122.39925781 40.09661133 123.05925781 40.77661133 123.73925781 C42.36731371 131.78597145 43.17223335 142.6504587 39.62084961 150.19433594 C36.73997449 154.42973115 33.17112189 157.86576885 29.36108398 161.26269531 C27.28132698 163.20081093 25.66421861 165.40483116 23.96411133 167.67675781 C19.08229266 173.14193846 12.50128318 175.7479851 5.94946289 178.73339844 C2.30698644 180.41957855 -1.26625651 182.24184281 -4.84838867 184.05175781 C-6.13192466 184.69432086 -7.4157638 185.33627883 -8.69995117 185.97753906 C-12.10310051 187.61053859 -12.10310051 187.61053859 -14.71118164 189.28930664 C-19.74426677 191.36712484 -24.53892552 191.47847892 -29.94213867 191.70019531 C-31.09700775 191.74844452 -32.25187683 191.79669373 -33.44174194 191.84640503 C-56.10999332 192.61787981 -76.70154994 192.90968452 -97.09838867 181.98925781 C-98.24053833 181.3848587 -98.24053833 181.3848587 -99.40576172 180.76824951 C-109.50194673 175.2666412 -116.97003394 168.63263964 -124.22338867 159.73925781 C-125.13136668 158.64459017 -126.04006121 157.55051646 -126.94946289 156.45703125 C-128.49265435 154.58811426 -130.02502265 152.71017925 -131.54370117 150.82128906 C-133.05612045 148.87107576 -133.05612045 148.87107576 -134.22338867 147.73925781 C-134.50397357 143.78811236 -134.45520303 139.82418059 -134.47338867 135.86425781 C-134.49401367 134.74921875 -134.51463867 133.63417969 -134.53588867 132.48535156 C-134.54104492 131.41671875 -134.54620117 130.34808594 -134.55151367 129.24707031 C-134.56085938 128.26367676 -134.57020508 127.2802832 -134.57983398 126.26708984 C-134.17162335 123.37214946 -133.48856653 122.50878784 -131.22338867 120.73925781 C-132.21338867 120.07925781 -133.20338867 119.41925781 -134.22338867 118.73925781 C-134.61157227 116.35668945 -134.61157227 116.35668945 -134.62182617 113.39941406 C-134.62569336 112.33658203 -134.62956055 111.27375 -134.63354492 110.17871094 C-134.61614258 108.50711914 -134.61614258 108.50711914 -134.59838867 106.80175781 C-134.60999023 105.69123047 -134.6215918 104.58070312 -134.63354492 103.43652344 C-134.62967773 102.37240234 -134.62581055 101.30828125 -134.62182617 100.21191406 C-134.61844238 99.23488525 -134.61505859 98.25785645 -134.61157227 97.2512207 C-134.16832579 94.38294209 -133.4690301 93.50209748 -131.22338867 91.73925781 C-132.21338867 91.07925781 -133.20338867 90.41925781 -134.22338867 89.73925781 C-134.59570312 87.35668945 -134.59570312 87.35668945 -134.58666992 84.39941406 C-134.58602539 83.33658203 -134.58538086 82.27375 -134.5847168 81.17871094 C-134.56860352 80.06431641 -134.55249023 78.94992188 -134.53588867 77.80175781 C-134.53911133 76.69123047 -134.54233398 75.58070312 -134.5456543 74.43652344 C-134.4903759 66.13973866 -134.4903759 66.13973866 -132.22338867 62.73925781 C-132.88338867 62.07925781 -133.54338867 61.41925781 -134.22338867 60.73925781 C-135.81527885 52.68653562 -136.62749599 41.80891912 -133.05151367 34.26806641 C-130.16366026 30.03983103 -126.60544719 26.57824685 -122.7956543 23.18164062 C-120.77501181 21.32792078 -119.10799327 19.26339494 -117.41088867 17.11425781 C-111.19736479 10.12175533 -102.07499018 6.52114817 -93.82177734 2.43554688 C-91.89534285 1.48155939 -89.97226715 0.52104563 -88.04956055 -0.44042969 C-63.78206567 -12.52573251 -24.42313459 -11.71108787 0 0 Z M-95.22338867 5.30175781 C-95.95706665 5.70239441 -96.69074463 6.10303101 -97.44665527 6.51580811 C-104.8374589 10.66172019 -111.72997845 15.19121839 -117.22338867 21.73925781 C-118.0406543 22.68929687 -118.85791992 23.63933594 -119.69995117 24.61816406 C-120.76342773 25.94654297 -120.76342773 25.94654297 -121.84838867 27.30175781 C-124.1486505 30.16255276 -126.33285605 32.84499864 -128.97729492 35.39941406 C-132.46785283 39.57393265 -131.76349895 44.44575372 -131.53588867 49.61425781 C-131.51333008 50.58878906 -131.49077148 51.56332031 -131.4675293 52.56738281 C-131.4088962 54.95961296 -131.3269002 57.34861931 -131.22338867 59.73925781 C-129.24338867 59.73925781 -127.26338867 59.73925781 -125.22338867 59.73925781 C-125.41088867 62.05175781 -125.41088867 62.05175781 -126.22338867 64.73925781 C-127.05870117 65.07957031 -127.89401367 65.41988281 -128.75463867 65.77050781 C-131.40357128 67.44616158 -131.40357128 67.44616158 -131.6328125 69.85131836 C-131.71631935 72.55792263 -131.65790923 75.22165593 -131.53588867 77.92675781 C-131.51333008 78.86712891 -131.49077148 79.8075 -131.4675293 80.77636719 C-131.40858094 83.09893255 -131.32636652 85.41829557 -131.22338867 87.73925781 C-129.24338867 87.73925781 -127.26338867 87.73925781 -125.22338867 87.73925781 C-125.22338867 90.70925781 -125.22338867 93.67925781 -125.22338867 96.73925781 C-127.20338867 96.73925781 -129.18338867 96.73925781 -131.22338867 96.73925781 C-131.36849029 100.00962509 -131.4573824 103.27916788 -131.53588867 106.55175781 C-131.5777832 107.48052734 -131.61967773 108.40929687 -131.6628418 109.36621094 C-131.70887231 111.91630163 -131.70900041 114.23417305 -131.22338867 116.73925781 C-128.88585787 118.79347179 -128.88585787 118.79347179 -126.22338867 119.73925781 C-125.41088867 122.42675781 -125.41088867 122.42675781 -125.22338867 124.73925781 C-127.20338867 124.73925781 -129.18338867 124.73925781 -131.22338867 124.73925781 C-132.58103697 137.20289074 -132.58103697 137.20289074 -129.53588867 148.97363281 C-127.22845506 151.42528102 -124.78329501 153.55501096 -122.22338867 155.73925781 C-120.60453241 157.66832969 -119.02075713 159.6273847 -117.47338867 161.61425781 C-111.96777403 168.60842752 -106.12126835 171.95418289 -98.16088867 175.61425781 C-96.37773407 176.44369289 -94.59518672 177.27443465 -92.81323242 178.10644531 C-91.51714302 178.70008881 -91.51714302 178.70008881 -90.19487 179.3057251 C-87.22338867 180.73925781 -87.22338867 180.73925781 -84.52436829 182.28826904 C-76.75507593 186.65148319 -70.62237923 187.56007314 -61.80151367 187.32519531 C-60.57551453 187.31670563 -59.34951538 187.30821594 -58.08636475 187.29946899 C-54.21443513 187.26618885 -50.34467662 187.19095041 -46.47338867 187.11425781 C-43.83018982 187.08412573 -41.18695796 187.05675567 -38.54370117 187.03222656 C-32.10287056 186.96648065 -25.66328478 186.86638758 -19.22338867 186.73925781 C-19.22338867 186.40925781 -19.22338867 186.07925781 -19.22338867 185.73925781 C-37.37338867 185.73925781 -55.52338867 185.73925781 -74.22338867 185.73925781 C-74.22338867 174.51925781 -74.22338867 163.29925781 -74.22338867 151.73925781 C-70.53151367 151.83207031 -66.83963867 151.92488281 -63.03588867 152.02050781 C-59.37171905 152.08329136 -55.70761435 152.13164091 -52.04321289 152.17871094 C-49.53934946 152.21839892 -47.03566436 152.27256877 -44.5324707 152.34277344 C-27.40875007 152.81022145 -13.55198954 150.93882569 2.39764404 144.61717224 C5.61575382 143.4295876 8.78980393 142.72177373 12.15161133 142.05175781 C21.60568927 139.53613064 29.20839411 132.67713345 36.77661133 126.73925781 C36.77661133 133.00925781 36.77661133 139.27925781 36.77661133 145.73925781 C37.10661133 145.73925781 37.43661133 145.73925781 37.77661133 145.73925781 C37.77661133 138.80925781 37.77661133 131.87925781 37.77661133 124.73925781 C35.79661133 124.73925781 33.81661133 124.73925781 31.77661133 124.73925781 C31.96411133 122.42675781 31.96411133 122.42675781 32.77661133 119.73925781 C34.02958008 119.22878906 34.02958008 119.22878906 35.30786133 118.70800781 C37.95679393 117.03235404 37.95679393 117.03235404 38.18603516 114.62719727 C38.269542 111.920593 38.21113189 109.2568597 38.08911133 106.55175781 C38.06655273 105.61138672 38.04399414 104.67101562 38.02075195 103.70214844 C37.96180359 101.37958308 37.87958918 99.06022006 37.77661133 96.73925781 C35.79661133 96.73925781 33.81661133 96.73925781 31.77661133 96.73925781 C31.77661133 93.76925781 31.77661133 90.79925781 31.77661133 87.73925781 C33.75661133 87.73925781 35.73661133 87.73925781 37.77661133 87.73925781 C37.92171295 84.46889053 38.01060506 81.19934775 38.08911133 77.92675781 C38.13100586 76.99798828 38.17290039 76.06921875 38.21606445 75.11230469 C38.26209497 72.56221399 38.26222307 70.24434257 37.77661133 67.73925781 C35.43908053 65.68504384 35.43908053 65.68504384 32.77661133 64.73925781 C31.96411133 62.05175781 31.96411133 62.05175781 31.77661133 59.73925781 C33.75661133 59.73925781 35.73661133 59.73925781 37.77661133 59.73925781 C37.77661133 52.80925781 37.77661133 45.87925781 37.77661133 38.73925781 C37.11661133 38.40925781 36.45661133 38.07925781 35.77661133 37.73925781 C36.10661133 44.33925781 36.43661133 50.93925781 36.77661133 57.73925781 C35.58422852 56.89621094 34.3918457 56.05316406 33.16333008 55.18457031 C31.59693853 54.07777868 30.03053147 52.97100899 28.46411133 51.86425781 C27.67842773 51.30867188 26.89274414 50.75308594 26.08325195 50.18066406 C25.32592773 49.64570312 24.56860352 49.11074219 23.78833008 48.55957031 C22.74358521 47.8211792 22.74358521 47.8211792 21.67773438 47.06787109 C16.95294654 43.76591971 12.81881283 42.54654946 7.27514648 41.06762695 C4.17114425 40.19435697 1.1860049 39.161965 -1.8203125 37.99755859 C-17.33830661 32.17173522 -31.67547868 31.90154108 -48.09838867 32.30175781 C-50.64782416 32.33697729 -53.19730743 32.36889719 -55.74682617 32.39746094 C-61.90787657 32.46747287 -68.06208269 32.60457278 -74.22338867 32.73925781 C-74.22338867 21.51925781 -74.22338867 10.29925781 -74.22338867 -1.26074219 C-55.74338867 -1.26074219 -37.26338867 -1.26074219 -18.22338867 -1.26074219 C-18.71838867 -2.25074219 -18.71838867 -2.25074219 -19.22338867 -3.26074219 C-58.4522341 -6.30078641 -58.4522341 -6.30078641 -95.22338867 5.30175781 Z " fill="#2272BA" transform="translate(169.223388671875,19.2607421875)"/>
<path d="M0 0 C1.2699884 -0.01936111 2.53997681 -0.03872223 3.84844971 -0.05867004 C7.9536102 -0.1130137 12.0585885 -0.13475581 16.1640625 -0.1484375 C16.8597509 -0.15147511 17.5554393 -0.15451271 18.27220917 -0.15764236 C35.53017165 -0.22029154 52.54825704 -0.07682717 69.4140625 4.0390625 C70.42928986 4.28097321 70.42928986 4.28097321 71.46502686 4.527771 C80.24007134 6.69862734 88.51961046 10.00726435 95.7890625 15.4765625 C96.1190625 16.4665625 96.4490625 17.4565625 96.7890625 18.4765625 C98.4390625 19.1365625 100.0890625 19.7965625 101.7890625 20.4765625 C101.7890625 26.4165625 101.7890625 32.3565625 101.7890625 38.4765625 C98.64316591 38.50423901 95.49752628 38.52371634 92.3515625 38.5390625 C91.49240234 38.54744141 90.63324219 38.55582031 89.74804688 38.56445312 C84.30756226 38.58409386 78.93278091 38.36359876 73.50585938 37.9765625 C61.70179572 37.22450307 49.88895936 37.35204603 38.06640625 37.37890625 C35.62447641 37.38077557 33.18254619 37.38219704 30.74061584 37.38319397 C24.37038097 37.38697873 18.00016957 37.39677363 11.62994385 37.40789795 C5.10681475 37.41819983 -1.41631821 37.42271024 -7.93945312 37.42773438 C-20.69662646 37.43840026 -33.45377634 37.45596343 -46.2109375 37.4765625 C-46.2109375 27.9065625 -46.2109375 18.3365625 -46.2109375 8.4765625 C-42.4365625 7.5278125 -38.6621875 6.5790625 -34.7734375 5.6015625 C-33.01688843 5.15901123 -33.01688843 5.15901123 -31.22485352 4.70751953 C-30.27280029 4.46888184 -29.32074707 4.23024414 -28.33984375 3.984375 C-26.90233765 3.62303467 -26.90233765 3.62303467 -25.43579102 3.25439453 C-23.83948853 2.86936768 -23.83948853 2.86936768 -22.2109375 2.4765625 C-21.57690002 2.3041806 -20.94286255 2.13179871 -20.28961182 1.95419312 C-13.54657902 0.2429537 -6.93229614 0.08750252 0 0 Z " fill="#2272BA" transform="translate(104.2109375,67.5234375)"/>
<path d="M0 0 C1.10666016 0.00451172 2.21332031 0.00902344 3.35351562 0.01367188 C6.00653548 0.02515681 8.65952642 0.0430722 11.3125 0.0625 C11.3125 6.0025 11.3125 11.9425 11.3125 18.0625 C8.8375 19.0525 8.8375 19.0525 6.3125 20.0625 C5.61428518 21.37958705 4.94822818 22.71414103 4.3125 24.0625 C-5.22503 31.5283534 -18.97333412 32.96690966 -30.46948242 35.37988281 C-32.18367568 35.74350351 -33.89690226 36.11925791 -35.58821106 36.5776825 C-42.5379987 38.37044539 -49.34174057 38.36849113 -56.48828125 38.36328125 C-57.80104538 38.36756638 -59.11380951 38.3718515 -60.46635437 38.37626648 C-63.23403994 38.38368659 -66.00159786 38.3834688 -68.76928711 38.37817383 C-72.28239562 38.37239235 -75.79497463 38.38929825 -79.3079958 38.4125185 C-82.70144428 38.43096377 -86.09478321 38.42706707 -89.48828125 38.42578125 C-91.35447868 38.43959587 -91.35447868 38.43959587 -93.25837708 38.45368958 C-101.17875831 38.4122777 -108.097247 37.2612212 -115.6875 35.0625 C-117.6070876 34.59085139 -119.52869641 34.12727163 -121.453125 33.67578125 C-122.68724121 33.38247925 -122.68724121 33.38247925 -123.94628906 33.08325195 C-124.93338867 32.84952881 -125.92048828 32.61580566 -126.9375 32.375 C-130.155 31.611875 -133.3725 30.84875 -136.6875 30.0625 C-136.6875 20.4925 -136.6875 10.9225 -136.6875 1.0625 C-133.63653076 1.06773682 -130.58556152 1.07297363 -127.44213867 1.07836914 C-117.29215695 1.09503746 -107.14217458 1.10602384 -96.99218273 1.11431217 C-90.84626216 1.1195014 -84.70035577 1.12652595 -78.55444336 1.13793945 C-72.60865962 1.14891053 -66.66288942 1.15480655 -60.71709633 1.15737724 C-58.46364441 1.15920613 -56.21019312 1.16277662 -53.95674706 1.16823006 C-41.84010682 1.1963513 -29.78882564 1.04771295 -17.69396973 0.28735352 C-11.79862658 -0.07445407 -5.90407718 -0.04788085 0 0 Z " fill="#2272BA" transform="translate(194.6875,116.9375)"/>
<path d="M0 0 C1.6677067 19.39956259 1.6677067 19.39956259 -3.875 26.0625 C-5.56276038 27.72942383 -7.27136657 29.37550112 -9 31 C-9.7115625 31.9075 -10.423125 32.815 -11.15625 33.75 C-17.68703397 42.02845855 -25.71217575 46.25542653 -35.17480469 50.57958984 C-38.12200415 51.99159043 -38.12200415 51.99159043 -41.14550781 54.08056641 C-54.32475148 62.43674865 -68.45170772 60.67324743 -83.5 60 C-86.17296763 59.90672013 -88.84613107 59.82682854 -91.51953125 59.74609375 C-98.01676165 59.54871973 -104.50376945 59.27280758 -111 59 C-111 47.78 -111 36.56 -111 25 C-105.4621875 25.0309375 -105.4621875 25.0309375 -99.8125 25.0625 C-96.14815172 25.05523737 -92.48410961 25.03432924 -88.81982422 25.01220703 C-86.31624863 25.00420634 -83.81258345 25.00989645 -81.30908203 25.03076172 C-64.27731619 25.16067081 -50.26377929 23.10932262 -34.38922119 16.875 C-31.12916613 15.68107614 -27.89872274 14.94875555 -24.5 14.25 C-16.21641761 12.04648547 -9.93696978 6.44305604 -3.47363281 1.03808594 C-2 0 -2 0 0 0 Z " fill="#2272BA" transform="translate(206,146)"/>
<path d="M0 0 C1.61975353 0.83772529 3.2330722 1.68803131 4.83911133 2.55175781 C5.6070401 2.95914185 6.37496887 3.36652588 7.16616821 3.78625488 C16.7907326 9.04041138 23.34840858 14.80985755 29.77661133 23.73925781 C31.37575968 25.62259453 33.0390583 27.42184042 34.71411133 29.23925781 C38.71283867 33.58355419 41.02818338 36.12997412 41.04223633 42.17675781 C41.04481445 43.23636719 41.04739258 44.29597656 41.05004883 45.38769531 C41.04231445 46.49371094 41.03458008 47.59972656 41.02661133 48.73925781 C41.0343457 49.84527344 41.04208008 50.95128906 41.05004883 52.09082031 C41.0474707 53.15042969 41.04489258 54.21003906 41.04223633 55.30175781 C41.03998047 56.27242187 41.03772461 57.24308594 41.03540039 58.24316406 C40.77661133 60.73925781 40.77661133 60.73925781 38.77661133 63.73925781 C39.43661133 64.39925781 40.09661133 65.05925781 40.77661133 65.73925781 C41.23256079 69.72081117 41.10064545 73.7346091 41.08911133 77.73925781 C41.10522461 78.85816406 41.12133789 79.97707031 41.13793945 81.12988281 C41.13858398 82.19722656 41.13922852 83.26457031 41.13989258 84.36425781 C41.14287354 85.34652344 41.14585449 86.32878906 41.14892578 87.34082031 C41.02606201 88.13230469 40.90319824 88.92378906 40.77661133 89.73925781 C39.78661133 90.39925781 38.79661133 91.05925781 37.77661133 91.73925781 C38.26411865 92.12210937 38.75162598 92.50496094 39.25390625 92.89941406 C41.31933021 95.3950105 41.14975534 96.96522965 41.13989258 100.17675781 C41.13892578 101.76617187 41.13892578 101.76617187 41.13793945 103.38769531 C41.12182617 104.49371094 41.10571289 105.59972656 41.08911133 106.73925781 C41.09233398 107.84527344 41.09555664 108.95128906 41.09887695 110.09082031 C41.04369082 118.33863857 41.04369082 118.33863857 38.77661133 121.73925781 C39.43661133 122.39925781 40.09661133 123.05925781 40.77661133 123.73925781 C42.36731371 131.78597145 43.17223335 142.6504587 39.62084961 150.19433594 C36.73997449 154.42973115 33.17112189 157.86576885 29.36108398 161.26269531 C27.28132698 163.20081093 25.66421861 165.40483116 23.96411133 167.67675781 C19.08229266 173.14193846 12.50128318 175.7479851 5.94946289 178.73339844 C2.30698644 180.41957855 -1.26625651 182.24184281 -4.84838867 184.05175781 C-6.13192466 184.69432086 -7.4157638 185.33627883 -8.69995117 185.97753906 C-12.10310051 187.61053859 -12.10310051 187.61053859 -14.71118164 189.28930664 C-19.74426677 191.36712484 -24.53892552 191.47847892 -29.94213867 191.70019531 C-31.09700775 191.74844452 -32.25187683 191.79669373 -33.44174194 191.84640503 C-56.10999332 192.61787981 -76.70154994 192.90968452 -97.09838867 181.98925781 C-98.24053833 181.3848587 -98.24053833 181.3848587 -99.40576172 180.76824951 C-109.50194673 175.2666412 -116.97003394 168.63263964 -124.22338867 159.73925781 C-125.13136668 158.64459017 -126.04006121 157.55051646 -126.94946289 156.45703125 C-128.49265435 154.58811426 -130.02502265 152.71017925 -131.54370117 150.82128906 C-133.05612045 148.87107576 -133.05612045 148.87107576 -134.22338867 147.73925781 C-134.50397357 143.78811236 -134.45520303 139.82418059 -134.47338867 135.86425781 C-134.49401367 134.74921875 -134.51463867 133.63417969 -134.53588867 132.48535156 C-134.54104492 131.41671875 -134.54620117 130.34808594 -134.55151367 129.24707031 C-134.56085938 128.26367676 -134.57020508 127.2802832 -134.57983398 126.26708984 C-134.17162335 123.37214946 -133.48856653 122.50878784 -131.22338867 120.73925781 C-132.21338867 120.07925781 -133.20338867 119.41925781 -134.22338867 118.73925781 C-134.61157227 116.35668945 -134.61157227 116.35668945 -134.62182617 113.39941406 C-134.62569336 112.33658203 -134.62956055 111.27375 -134.63354492 110.17871094 C-134.61614258 108.50711914 -134.61614258 108.50711914 -134.59838867 106.80175781 C-134.60999023 105.69123047 -134.6215918 104.58070312 -134.63354492 103.43652344 C-134.62967773 102.37240234 -134.62581055 101.30828125 -134.62182617 100.21191406 C-134.61844238 99.23488525 -134.61505859 98.25785645 -134.61157227 97.2512207 C-134.16832579 94.38294209 -133.4690301 93.50209748 -131.22338867 91.73925781 C-132.21338867 91.07925781 -133.20338867 90.41925781 -134.22338867 89.73925781 C-134.59570312 87.35668945 -134.59570312 87.35668945 -134.58666992 84.39941406 C-134.58602539 83.33658203 -134.58538086 82.27375 -134.5847168 81.17871094 C-134.56860352 80.06431641 -134.55249023 78.94992188 -134.53588867 77.80175781 C-134.53911133 76.69123047 -134.54233398 75.58070312 -134.5456543 74.43652344 C-134.4903759 66.13973866 -134.4903759 66.13973866 -132.22338867 62.73925781 C-132.88338867 62.07925781 -133.54338867 61.41925781 -134.22338867 60.73925781 C-135.81527885 52.68653562 -136.62749599 41.80891912 -133.05151367 34.26806641 C-130.16366026 30.03983103 -126.60544719 26.57824685 -122.7956543 23.18164062 C-120.77501181 21.32792078 -119.10799327 19.26339494 -117.41088867 17.11425781 C-111.19736479 10.12175533 -102.07499018 6.52114817 -93.82177734 2.43554688 C-91.89534285 1.48155939 -89.97226715 0.52104563 -88.04956055 -0.44042969 C-63.78206567 -12.52573251 -24.42313459 -11.71108787 0 0 Z M-117.22338867 21.73925781 C-118.0406543 22.68929687 -118.85791992 23.63933594 -119.69995117 24.61816406 C-120.76342773 25.94654297 -120.76342773 25.94654297 -121.84838867 27.30175781 C-124.1486505 30.16255276 -126.33285605 32.84499864 -128.97729492 35.39941406 C-132.46785283 39.57393265 -131.76349895 44.44575372 -131.53588867 49.61425781 C-131.51333008 50.58878906 -131.49077148 51.56332031 -131.4675293 52.56738281 C-131.4088962 54.95961296 -131.3269002 57.34861931 -131.22338867 59.73925781 C-129.24338867 59.73925781 -127.26338867 59.73925781 -125.22338867 59.73925781 C-125.41088867 62.05175781 -125.41088867 62.05175781 -126.22338867 64.73925781 C-127.05870117 65.07957031 -127.89401367 65.41988281 -128.75463867 65.77050781 C-131.40357128 67.44616158 -131.40357128 67.44616158 -131.6328125 69.85131836 C-131.71631935 72.55792263 -131.65790923 75.22165593 -131.53588867 77.92675781 C-131.51333008 78.86712891 -131.49077148 79.8075 -131.4675293 80.77636719 C-131.40858094 83.09893255 -131.32636652 85.41829557 -131.22338867 87.73925781 C-129.24338867 87.73925781 -127.26338867 87.73925781 -125.22338867 87.73925781 C-125.22338867 90.70925781 -125.22338867 93.67925781 -125.22338867 96.73925781 C-127.20338867 96.73925781 -129.18338867 96.73925781 -131.22338867 96.73925781 C-131.36849029 100.00962509 -131.4573824 103.27916788 -131.53588867 106.55175781 C-131.5777832 107.48052734 -131.61967773 108.40929687 -131.6628418 109.36621094 C-131.70887231 111.91630163 -131.70900041 114.23417305 -131.22338867 116.73925781 C-128.88585787 118.79347179 -128.88585787 118.79347179 -126.22338867 119.73925781 C-125.41088867 122.42675781 -125.41088867 122.42675781 -125.22338867 124.73925781 C-127.20338867 124.73925781 -129.18338867 124.73925781 -131.22338867 124.73925781 C-132.58103697 137.20289074 -132.58103697 137.20289074 -129.53588867 148.97363281 C-127.22845506 151.42528102 -124.78329501 153.55501096 -122.22338867 155.73925781 C-120.60453241 157.66832969 -119.02075713 159.6273847 -117.47338867 161.61425781 C-111.96777403 168.60842752 -106.12126835 171.95418289 -98.16088867 175.61425781 C-96.37773407 176.44369289 -94.59518672 177.27443465 -92.81323242 178.10644531 C-91.94933395 178.50257019 -91.08543549 178.89869507 -90.19535828 179.30682373 C-88.27171788 180.23398263 -86.37571572 181.22185979 -84.51997375 182.27838135 C-76.8401596 186.56512616 -70.6489684 187.6507252 -61.92651367 187.60644531 C-60.07784698 187.62217087 -60.07784698 187.62217087 -58.1918335 187.63821411 C-55.60016879 187.65098245 -53.00838762 187.64847445 -50.41674805 187.63134766 C-46.49597959 187.61435572 -42.581081 187.67188459 -38.66088867 187.73535156 C-24.04104437 187.81716213 -13.52858466 186.7236911 -1.22338867 178.73925781 C0.52743656 177.87149473 2.29169417 177.02979741 4.07348633 176.22753906 C14.22329214 171.34315777 21.54178673 166.09120331 28.52612305 157.23535156 C29.77661133 155.73925781 29.77661133 155.73925781 32.28051758 153.42675781 C37.35988734 148.47989334 38.18969284 144.43994035 38.31274414 137.55371094 C38.26011717 133.27243614 38.08307557 129.00971912 37.77661133 124.73925781 C35.79661133 124.73925781 33.81661133 124.73925781 31.77661133 124.73925781 C31.96411133 122.42675781 31.96411133 122.42675781 32.77661133 119.73925781 C34.02958008 119.22878906 34.02958008 119.22878906 35.30786133 118.70800781 C37.95679393 117.03235404 37.95679393 117.03235404 38.18603516 114.62719727 C38.269542 111.920593 38.21113189 109.2568597 38.08911133 106.55175781 C38.06655273 105.61138672 38.04399414 104.67101562 38.02075195 103.70214844 C37.96180359 101.37958308 37.87958918 99.06022006 37.77661133 96.73925781 C35.79661133 96.73925781 33.81661133 96.73925781 31.77661133 96.73925781 C31.77661133 93.76925781 31.77661133 90.79925781 31.77661133 87.73925781 C33.75661133 87.73925781 35.73661133 87.73925781 37.77661133 87.73925781 C37.92171295 84.46889053 38.01060506 81.19934775 38.08911133 77.92675781 C38.13100586 76.99798828 38.17290039 76.06921875 38.21606445 75.11230469 C38.26209497 72.56221399 38.26222307 70.24434257 37.77661133 67.73925781 C35.43908053 65.68504384 35.43908053 65.68504384 32.77661133 64.73925781 C31.96411133 62.05175781 31.96411133 62.05175781 31.77661133 59.73925781 C33.75661133 59.73925781 35.73661133 59.73925781 37.77661133 59.73925781 C39.38333285 45.28692504 39.38333285 45.28692504 33.83911133 32.55175781 C32.1849296 30.91325553 30.49648045 29.30867081 28.77661133 27.73925781 C27.13647616 25.91945212 25.51091258 24.08638683 23.90161133 22.23925781 C22.53550439 20.73115409 21.16165565 19.22998825 19.77661133 17.73925781 C19.37007324 17.28832764 18.96353516 16.83739746 18.54467773 16.37280273 C-1.29207311 -1.95468966 -28.00290522 -5.93389956 -53.85131836 -5.42578125 C-76.67440798 -4.49268496 -101.9915253 3.58316938 -117.22338867 21.73925781 Z " fill="#E8E9EB" transform="translate(169.223388671875,19.2607421875)"/>
<path d="M0 0 C1.68554688 0.56982422 1.68554688 0.56982422 3.71875 1.5546875 C4.47752441 1.91739746 5.23629883 2.28010742 6.01806641 2.65380859 C7.24662354 3.25829834 7.24662354 3.25829834 8.5 3.875 C9.34353027 4.2870166 10.18706055 4.6990332 11.05615234 5.12353516 C12.82340154 5.98758943 14.58949458 6.85401194 16.35449219 7.72265625 C18.86618607 8.93538995 21.39705764 10.08528297 23.9453125 11.21875 C32.39159765 15.05591345 38.61222886 18.44692925 44.03125 26.28515625 C45.90387308 29.08595525 45.90387308 29.08595525 48.53125 31.18359375 C52.06710491 34.2447274 54.64237456 36.7007213 55.38671875 41.48632812 C55.77359218 47.67200448 55.49830037 53.82788975 55 60 C52.31165056 58.72742159 49.96949289 57.33493033 47.6015625 55.5390625 C39.66230328 49.68061698 32.88583227 45.75488533 23.15380859 43.54248047 C18.43542614 42.35405995 13.81919386 40.79719827 9.1875 39.3125 C8.20120605 39.0021582 7.21491211 38.69181641 6.19873047 38.37207031 C4.82225342 37.93459473 4.82225342 37.93459473 3.41796875 37.48828125 C2.17696411 37.09443237 2.17696411 37.09443237 0.91088867 36.69262695 C-1 36 -1 36 -2 35 C-2.08847743 32.47905924 -2.11527301 29.98569107 -2.09765625 27.46484375 C-2.0962413 26.71159317 -2.09482635 25.95834259 -2.09336853 25.18226624 C-2.08775376 22.7673044 -2.07519883 20.35243399 -2.0625 17.9375 C-2.0574869 16.30403779 -2.05292366 14.67057414 -2.04882812 13.03710938 C-2.03777954 9.02470415 -2.02050506 5.01236759 -2 1 C-1.34 0.67 -0.68 0.34 0 0 Z " fill="#4C95D0" transform="translate(151,17)"/>
<path d="M0 0 C0 5.94 0 11.88 0 18 C-1.65 18.66 -3.3 19.32 -5 20 C-5.69821482 21.31708705 -6.36427182 22.65164103 -7 24 C-19.87365878 34.07733126 -41.57317577 35.42886263 -57 38 C-57 26.12 -57 14.24 -57 2 C-37.91728608 0.67825358 -19.12989912 -0.30965664 0 0 Z " fill="#4D96D1" transform="translate(206,117)"/>
<path d="M0 0 C1.6677067 19.39956259 1.6677067 19.39956259 -3.875 26.0625 C-5.56276038 27.72942383 -7.27136657 29.37550112 -9 31 C-9.7115625 31.9075 -10.423125 32.815 -11.15625 33.75 C-17.82311671 42.2009578 -25.9954539 46.23931402 -35.55175781 50.8125 C-37.95302314 51.97721426 -40.3178844 53.19497312 -42.6796875 54.4375 C-44.11967983 55.18771469 -45.55977869 55.93772498 -47 56.6875 C-47.66402832 57.03901123 -48.32805664 57.39052246 -49.01220703 57.75268555 C-50.63793469 58.57875974 -52.31646037 59.29922663 -54 60 C-54.99 59.67 -55.98 59.34 -57 59 C-57 47.78 -57 36.56 -57 25 C-52.3115228 22.6557614 -48.09968683 21.01052286 -43.125 19.625 C-42.3832251 19.40787354 -41.6414502 19.19074707 -40.87719727 18.96704102 C-37.23131878 17.8999075 -33.58548481 16.88753175 -29.89453125 15.98828125 C-19.97686647 13.42978652 -13.04992546 8.90688173 -5.1328125 2.44921875 C-2 0 -2 0 0 0 Z " fill="#4C95D0" transform="translate(206,146)"/>
<path d="M0 0 C7.179848 0.897481 14.13498264 2.1442988 21.18896484 3.68164062 C22.55396329 3.97527213 23.92085842 4.26023169 25.28955078 4.53613281 C34.73832976 6.44364348 43.24967584 8.96828667 51 15 C51.495 16.485 51.495 16.485 52 18 C54.475 18.99 54.475 18.99 57 20 C57 25.94 57 31.88 57 38 C38.22937211 38.28226508 19.73984966 37.15767411 1 36 C0.67 24.12 0.34 12.24 0 0 Z " fill="#4E97D2" transform="translate(149,68)"/>
<path d="M0 0 C0.495 0.99 0.495 0.99 1 2 C-17.48 2 -35.96 2 -55 2 C-55 13.22 -55 24.44 -55 36 C-36.85 36 -18.7 36 0 36 C0 36.33 0 36.66 0 37 C-1.03997887 37.00213753 -1.03997887 37.00213753 -2.10096741 37.00431824 C-8.70415448 37.022308 -15.30672607 37.06438538 -21.90960026 37.13209057 C-25.30253118 37.16607017 -28.69502581 37.19142437 -32.08813477 37.19555664 C-53.08212711 37.22075373 -53.08212711 37.22075373 -73 43 C-74.86306401 43.5637622 -76.73671497 44.09422807 -78.62109375 44.58203125 C-79.42998047 44.79150391 -80.23886719 45.00097656 -81.07226562 45.21679688 C-81.85279297 45.41337891 -82.63332031 45.60996094 -83.4375 45.8125 C-84.69530273 46.13637695 -84.69530273 46.13637695 -85.97851562 46.46679688 C-87.98446237 46.98261175 -89.99204302 47.49206686 -92 48 C-92.02896822 43.56251365 -92.04678788 39.12505153 -92.0625 34.6875 C-92.07087891 33.42486328 -92.07925781 32.16222656 -92.08789062 30.86132812 C-92.09111328 29.65283203 -92.09433594 28.44433594 -92.09765625 27.19921875 C-92.10289307 26.08377686 -92.10812988 24.96833496 -92.11352539 23.8190918 C-92 21 -92 21 -91 18 C-63.67131425 -3.39689831 -33.06519819 -2.16983188 0 0 Z " fill="#145798" transform="translate(150,16)"/>
<path d="M0 0 C3.91233315 0.53895105 7.10899806 1.34568369 10.671875 3.03125 C36.2231054 13.77902427 64.79000348 11.30538971 92 11 C92 11.33 92 11.66 92 12 C73.85 12 55.7 12 37 12 C37 23.22 37 34.44 37 46 C55.15 46 73.3 46 92 46 C92 46.33 92 46.66 92 47 C84.3181786 47.20489193 76.63707548 47.34378641 68.953125 47.43945312 C66.34608635 47.47938306 63.73922332 47.53374806 61.1328125 47.60351562 C45.26611958 48.01721774 33.44570494 47.75973105 20 39 C18.29127063 38.14578688 16.56779678 37.31968518 14.82421875 36.5390625 C14.12232422 36.21292969 13.42042969 35.88679688 12.69726562 35.55078125 C12.03404297 35.24527344 11.37082031 34.93976563 10.6875 34.625 C3.40460526 31.26973684 3.40460526 31.26973684 0 29 C-0.34057617 26.11083984 -0.34057617 26.11083984 -0.29296875 22.4609375 C-0.28330078 21.15898437 -0.27363281 19.85703125 -0.26367188 18.515625 C-0.23860388 17.13541077 -0.21320902 15.75520244 -0.1875 14.375 C-0.17245517 12.98699337 -0.15876641 11.59897133 -0.14648438 10.2109375 C-0.1110257 6.80690491 -0.06160298 3.40364378 0 0 Z " fill="#125697" transform="translate(58,159)"/>
<path d="M0 0 C3.114375 -0.020625 6.22875 -0.04125 9.4375 -0.0625 C10.84986938 -0.07615601 10.84986938 -0.07615601 12.29077148 -0.09008789 C20.93253937 -0.11672554 29.30664167 0.48862598 38 1 C38 12.88 38 24.76 38 37 C33.33966767 36.33423824 28.87960868 35.60843059 24.296875 34.625 C23.0696875 34.36203125 21.8425 34.0990625 20.578125 33.828125 C19.31484375 33.55484375 18.0515625 33.2815625 16.75 33 C15.47125 32.72671875 14.1925 32.4534375 12.875 32.171875 C3.39676339 30.13225446 3.39676339 30.13225446 0 29 C0 19.43 0 9.86 0 0 Z " fill="#135899" transform="translate(58,118)"/>
<path d="M0 0 C0 11.88 0 23.76 0 36 C-5.56819731 36.61868859 -10.49948365 37.12325822 -16.00390625 37.09765625 C-17.6756189 37.09390991 -17.6756189 37.09390991 -19.38110352 37.09008789 C-21.45089478 37.07643188 -21.45089478 37.07643188 -23.5625 37.0625 C-30.2140625 37.0315625 -30.2140625 37.0315625 -37 37 C-37 27.43 -37 17.86 -37 8 C-33.225625 7.05125 -29.45125 6.1025 -25.5625 5.125 C-23.80595093 4.68244873 -23.80595093 4.68244873 -22.01391602 4.23095703 C-17.33813098 3.05894423 -12.66020019 1.89600421 -7.96484375 0.8046875 C-7.28929443 0.64726074 -6.61374512 0.48983398 -5.91772461 0.32763672 C-4 0 -4 0 0 0 Z " fill="#135798" transform="translate(95,68)"/>
<path d="M0 0 C1.6677952 19.40059204 1.6677952 19.40059204 -3.9375 26.125 C-5.59404479 27.78154479 -7.28263503 29.40659521 -9 31 C-10.67973272 32.88426638 -12.34697757 34.77975823 -14 36.6875 C-15.30822023 38.14789168 -16.63357184 39.59392102 -18 41 C-18.33 41 -18.66 41 -19 41 C-19.05805933 36.75005737 -19.09361654 32.50021676 -19.125 28.25 C-19.14175781 27.0434375 -19.15851563 25.836875 -19.17578125 24.59375 C-19.18222656 23.43359375 -19.18867188 22.2734375 -19.1953125 21.078125 C-19.20578613 20.00981445 -19.21625977 18.94150391 -19.22705078 17.84082031 C-18.93142721 14.1420291 -18.14812937 12.06897263 -15.42773438 9.53613281 C-14.82251953 9.09624023 -14.21730469 8.65634766 -13.59375 8.203125 C-12.93246094 7.71972656 -12.27117187 7.23632812 -11.58984375 6.73828125 C-10.55537109 6.00158203 -10.55537109 6.00158203 -9.5 5.25 C-8.46552734 4.49009766 -8.46552734 4.49009766 -7.41015625 3.71484375 C-2.27345856 0 -2.27345856 0 0 0 Z " fill="#2170B7" transform="translate(206,146)"/>
<path d="M0 0 C8.25 0 16.5 0 25 0 C25 5.94 25 11.88 25 18 C23.35 18.66 21.7 19.32 20 20 C19.3008176 21.31657366 18.63461701 22.65111769 18 24 C15.94140625 25.51953125 15.94140625 25.51953125 13.5625 26.8125 C12.78003906 27.25207031 11.99757812 27.69164062 11.19140625 28.14453125 C9 29 9 29 6 28 C6 19.09 6 10.18 6 1 C4.02 1 2.04 1 0 1 C0 0.67 0 0.34 0 0 Z " fill="#2272B9" transform="translate(181,117)"/>
<path d="M0 0 C12 6 12 6 14 10 C15.65 10.66 17.3 11.32 19 12 C19 17.94 19 23.88 19 30 C12.07 30 5.14 30 -2 30 C-1.34 29.67 -0.68 29.34 0 29 C0 19.43 0 9.86 0 0 Z " fill="#2272B9" transform="translate(187,76)"/>
<path d="M0 0 C4.05666957 3.22663055 7.38198103 6.42044257 10.625 10.5 C11.72714844 11.87671875 11.72714844 11.87671875 12.8515625 13.28125 C13.56054688 14.1784375 14.26953125 15.075625 15 16 C16.11761719 17.08861328 16.11761719 17.08861328 17.2578125 18.19921875 C19.9013667 22.44905812 19.42980772 26.41965521 19.25 31.3125 C19.23195312 32.24384766 19.21390625 33.17519531 19.1953125 34.13476562 C19.14834888 36.42424197 19.08269475 38.71158184 19 41 C18.41049561 40.69811768 17.82099121 40.39623535 17.21362305 40.08520508 C15.37565874 39.18416269 13.48332176 38.39506205 11.58203125 37.63671875 C7.1441894 35.49980774 3.53505833 33.33942874 1 29 C-1.10957046 19.60735569 -0.49771023 9.55715491 0 0 Z " fill="#206FB7" transform="translate(187,36)"/>
<path d="M0 0 C-0.47566406 0.71929687 -0.47566406 0.71929687 -0.9609375 1.453125 C-2.47415767 5.16222106 -2.46691411 8.77809202 -2.625 12.75 C-2.66367187 13.54277344 -2.70234375 14.33554688 -2.7421875 15.15234375 C-2.836108 17.10119416 -2.91912822 19.05056451 -3 21 C-1.35 21 0.3 21 2 21 C3.49297212 23.98594424 3.11755228 26.70853624 3 30 C2.67 30.66 2.34 31.32 2 32 C0.35 32 -1.3 32 -3 32 C-3 38.27 -3 44.54 -3 51 C-1.68 51.66 -0.36 52.32 1 53 C-3.875 52.125 -3.875 52.125 -5 51 C-5.08669432 49.5112814 -5.10703494 48.018555 -5.09765625 46.52734375 C-5.09443359 45.62822266 -5.09121094 44.72910156 -5.08789062 43.80273438 C-5.07951172 42.85720703 -5.07113281 41.91167969 -5.0625 40.9375 C-5.05798828 39.98810547 -5.05347656 39.03871094 -5.04882812 38.06054688 C-5.0370011 35.70696935 -5.02052025 33.35351523 -5 31 C-3.02 31 -1.04 31 1 31 C1 28.03 1 25.06 1 22 C-0.98 22 -2.96 22 -5 22 C-5.08685287 18.70849875 -5.14033895 15.4172904 -5.1875 12.125 C-5.21263672 11.18785156 -5.23777344 10.25070313 -5.26367188 9.28515625 C-5.27333984 8.38925781 -5.28300781 7.49335937 -5.29296875 6.5703125 C-5.3086792 5.74289551 -5.32438965 4.91547852 -5.34057617 4.06298828 C-5.22818604 3.38220215 -5.1157959 2.70141602 -5 2 C-2 0 -2 0 0 0 Z " fill="#021E47" transform="translate(43,85)"/>
<path d="M0 0 C3.3 0 6.6 0 10 0 C10.16729064 3.96907474 10.32788226 7.93835721 10.48217773 11.90795898 C10.53565802 13.25927079 10.59099194 14.61051052 10.64819336 15.96166992 C10.72993571 17.90002989 10.80453323 19.83868704 10.87890625 21.77734375 C10.9260376 22.94515381 10.97316895 24.11296387 11.02172852 25.31616211 C11 28 11 28 10 29 C8.33382885 29.04063832 6.66611905 29.042721 5 29 C5.99 28.34 6.98 27.68 8 27 C8.510605 24.28995497 8.510605 24.28995497 8.51171875 21.1171875 C8.54716797 19.95058594 8.58261719 18.78398437 8.61914062 17.58203125 C8.65297852 15.74705078 8.65297852 15.74705078 8.6875 13.875 C8.72166016 12.64394531 8.75582031 11.41289062 8.79101562 10.14453125 C8.87371564 7.0964449 8.94279427 4.04865429 9 1 C6.03 1 3.06 1 0 1 C0 0.67 0 0.34 0 0 Z " fill="#5CA3DC" transform="translate(177,118)"/>
<path d="M0 0 C0.33 0 0.66 0 1 0 C1.01981934 0.9286084 1.03963867 1.8572168 1.06005859 2.81396484 C1.13808613 6.2545052 1.22477462 9.69459891 1.31738281 13.13476562 C1.35569998 14.62458889 1.39054808 16.11450554 1.421875 17.60449219 C1.46746729 19.74448048 1.52546874 21.88382436 1.5859375 24.0234375 C1.6173584 25.31169434 1.6487793 26.59995117 1.68115234 27.92724609 C1.68458268 31.10481505 1.68458268 31.10481505 4 33 C2.35 32.67 0.7 32.34 -1 32 C-0.67 21.44 -0.34 10.88 0 0 Z " fill="#549DD6" transform="translate(150,20)"/>
<path d="M0 0 C0 3.69349436 -0.88153908 5.00493457 -3 8 C-5.6875 10.3125 -5.6875 10.3125 -8 12 C-8.66 11.67 -9.32 11.34 -10 11 C-6.7 7.37 -3.4 3.74 0 0 Z " fill="#082955" transform="translate(58,35)"/>
<path d="M0 0 C-0.31710938 0.48984375 -0.63421875 0.9796875 -0.9609375 1.484375 C-2.41373615 5.001677 -2.46584752 8.49665393 -2.625 12.25 C-2.66367187 12.99507812 -2.70234375 13.74015625 -2.7421875 14.5078125 C-2.83605108 16.3381524 -2.91909718 18.16904143 -3 20 C-3.33 20 -3.66 20 -4 20 C-4 13.73 -4 7.46 -4 1 C-2 0 -2 0 0 0 Z " fill="#052A56" transform="translate(43,85)"/>
</svg>
