<?xml version="1.0" encoding="UTF-8"?>
<svg version="1.1" xmlns="http://www.w3.org/2000/svg" width="512" height="512">
<path d="M0 0 C2.62036133 0.26538086 2.62036133 0.26538086 4.20361328 1.59130859 C8.36577811 7.54428665 11.63393946 13.80168879 14.80786133 20.32788086 C15.66021362 22.05578857 15.66021362 22.05578857 16.52978516 23.81860352 C20.44917965 31.78886066 24.28209876 39.79980916 28.0793457 47.82885742 C31.07887771 54.13739697 34.17205388 60.3949123 37.30786133 66.63647461 C37.71861404 67.45444519 38.12936676 68.27241577 38.55256653 69.11517334 C40.62187366 73.23273173 42.69714253 77.34717589 44.77929688 81.45825195 C45.54281243 82.97334442 46.30624405 84.48847919 47.06958008 86.00366211 C47.42838257 86.70776718 47.78718506 87.41187225 48.15686035 88.13731384 C50.62036133 93.0390325 50.62036133 93.0390325 50.62036133 95.26538086 C51.28036133 95.26538086 51.94036133 95.26538086 52.62036133 95.26538086 C52.98387695 94.08459961 53.34739258 92.90381836 53.72192383 91.68725586 C55.80391088 85.4534986 58.45047446 79.46721608 61.1262207 73.47094727 C61.9977005 71.51011772 62.85201669 69.54234635 63.70629883 67.57397461 C64.26776033 66.30919017 64.83022583 65.04485085 65.39379883 63.78100586 C65.89314941 62.64953125 66.3925 61.51805664 66.90698242 60.35229492 C68.7668448 57.00146849 70.71909974 54.75739504 73.62036133 52.26538086 C76.55786133 51.64038086 76.55786133 51.64038086 79.62036133 52.26538086 C84.26124596 55.60904832 86.67400681 58.5061739 89.23901367 63.70800781 C89.55200409 64.33296646 89.86499451 64.95792511 90.18746948 65.6018219 C91.20718079 67.64607757 92.20675661 69.69948019 93.20629883 71.75366211 C93.91394275 73.18202106 94.62283484 74.60976225 95.33291626 76.03691101 C97.18987541 79.77743424 99.02985699 83.5260594 100.86633301 87.27667236 C102.74674343 91.10936315 104.64322121 94.93408335 106.53833008 98.75952148 C110.24804066 106.25380118 113.93983922 113.75672365 117.62036133 121.26538086 C123.0487083 116.74591462 128.04913435 111.94096108 133.00317383 106.90991211 C134.59809223 105.3023576 136.19314839 103.69493974 137.78833008 102.08764648 C140.27643867 99.57466173 142.76290989 97.06009766 145.24682617 94.54296875 C147.66121327 92.09838398 150.08177783 89.66005181 152.50317383 87.22241211 C153.24286407 86.46926224 153.98255432 85.71611237 154.74465942 84.94013977 C163.0059249 76.63887178 163.0059249 76.63887178 168.68286133 75.82788086 C172.37705896 76.37808051 173.25593239 77.43498308 175.62036133 80.26538086 C179.38010289 89.79027756 180.26726191 101.06406862 181.99023438 111.14160156 C182.31542475 113.02367969 182.64099692 114.90569187 182.96691895 116.78764343 C183.84497021 121.86502088 184.71728551 126.94336757 185.58820319 132.02197289 C186.31716607 136.26966449 187.04894884 140.51686832 187.78071433 144.76407784 C189.50653323 154.78114019 191.22767422 164.79899843 192.94580078 174.81738281 C194.71692987 185.14437001 196.49565859 195.47002771 198.27815408 205.79505855 C199.81111185 214.67613672 201.33953455 223.55798707 202.86428481 232.44047803 C203.77383857 237.73890763 204.68506469 243.03703536 205.60059166 248.33443642 C206.46029591 253.31009293 207.31431999 258.28669165 208.16399384 263.26407051 C208.47640574 265.0885182 208.79080393 266.91262707 209.10734749 268.73636246 C209.53956588 271.22844457 209.96453933 273.72165949 210.38774109 276.21528625 C210.51409602 276.933773 210.64045096 277.65225975 210.77063483 278.39251882 C211.49649191 282.72672131 211.90977158 286.87356566 211.62036133 291.26538086 C209.55786133 293.3190918 209.55786133 293.3190918 206.62036133 294.99975586 C205.52208008 295.6462207 204.42379883 296.29268555 203.29223633 296.95874023 C202.06843405 297.64456565 200.84447079 298.33010387 199.62036133 299.01538086 C198.35323367 299.75042675 197.0876346 300.48811332 195.82348633 301.22827148 C193.14314408 302.79314196 190.45529423 304.34382557 187.76098633 305.88452148 C181.67326771 309.37293315 175.65450553 312.97720758 169.62805176 316.57000732 C167.60664802 317.77354573 165.58312194 318.97343236 163.55883789 320.17211914 C155.37747846 325.01752772 147.22136231 329.90202222 139.09643555 334.8414917 C137.38267217 335.88289989 135.66753683 336.92204925 133.95239258 337.96118164 C128.60512175 341.20675453 123.27408419 344.47242734 117.97930908 347.80276489 C115.46932346 349.37921271 112.95199817 350.94371868 110.43395996 352.50726318 C109.24818827 353.24812107 108.06596016 353.99468902 106.88781738 354.74761963 C96.54344229 361.35629661 86.50542898 365.51935692 74.05786133 364.06616211 C60.46610894 360.89990161 48.04154105 351.42225786 36.29223633 344.28491211 C29.58290755 340.22072136 22.7995047 336.29319999 15.99536133 332.39038086 C8.25875728 327.9481309 0.55936061 323.46585557 -7.07104492 318.84350586 C-10.80994515 316.59240985 -14.57610217 314.38849611 -18.34448242 312.18725586 C-19.29506279 311.6316951 -19.29506279 311.6316951 -20.2648468 311.06491089 C-23.46333173 309.19611459 -26.66328362 307.32989235 -29.86523438 305.46704102 C-31.07320577 304.76187715 -32.28113384 304.05663906 -33.48901367 303.35131836 C-34.55087891 302.73305176 -35.61274414 302.11478516 -36.70678711 301.4777832 C-41.67456496 298.53149621 -46.51818614 295.38264761 -51.37963867 292.26538086 C-46.27029961 259.98928964 -41.15000266 227.71495229 -36.01799011 195.44245911 C-35.51646258 192.28854477 -35.01494417 189.13462899 -34.51342773 185.98071289 C-34.38743718 185.18841872 -34.26144662 184.39612455 -34.13163817 183.57982147 C-32.23626697 171.66024536 -30.34406849 159.74016842 -28.45340669 147.81984448 C-25.75291569 130.79389324 -23.0466714 113.76886909 -20.3325758 96.74508095 C-18.93486395 87.97712547 -17.53980988 79.20876441 -16.15139771 70.43933105 C-14.96023004 62.91576805 -13.7638463 55.39305774 -12.56077886 47.87138802 C-11.94255826 44.00516595 -11.3268341 40.13858906 -10.71773911 36.27091789 C-10.15630705 32.70632309 -9.5877412 29.14293994 -9.01366127 25.58036089 C-8.70971661 23.68260246 -8.41327132 21.78364756 -8.11713505 19.884655 C-4.97853465 0.55521362 -4.97853465 0.55521362 0 0 Z " fill="#FEC927" transform="translate(175.379638671875,73.734619140625)"/>
<path d="M0 0 C2.62036133 0.26538086 2.62036133 0.26538086 4.20361328 1.59130859 C8.36577811 7.54428665 11.63393946 13.80168879 14.80786133 20.32788086 C15.66021362 22.05578857 15.66021362 22.05578857 16.52978516 23.81860352 C20.44917965 31.78886066 24.28209876 39.79980916 28.0793457 47.82885742 C31.07887771 54.13739697 34.17205388 60.3949123 37.30786133 66.63647461 C37.71861404 67.45444519 38.12936676 68.27241577 38.55256653 69.11517334 C40.62187366 73.23273173 42.69714253 77.34717589 44.77929688 81.45825195 C45.54281243 82.97334442 46.30624405 84.48847919 47.06958008 86.00366211 C47.42838257 86.70776718 47.78718506 87.41187225 48.15686035 88.13731384 C50.62036133 93.0390325 50.62036133 93.0390325 50.62036133 95.26538086 C51.28036133 95.26538086 51.94036133 95.26538086 52.62036133 95.26538086 C52.98387695 94.08459961 53.34739258 92.90381836 53.72192383 91.68725586 C55.80391088 85.4534986 58.45047446 79.46721608 61.1262207 73.47094727 C61.9977005 71.51011772 62.85201669 69.54234635 63.70629883 67.57397461 C64.26776033 66.30919017 64.83022583 65.04485085 65.39379883 63.78100586 C65.89314941 62.64953125 66.3925 61.51805664 66.90698242 60.35229492 C68.7668448 57.00146849 70.71909974 54.75739504 73.62036133 52.26538086 C76.55786133 51.64038086 76.55786133 51.64038086 79.62036133 52.26538086 C84.23081045 55.59440209 86.67244143 58.49146003 89.25488281 63.64453125 C89.56947952 64.26306473 89.88407623 64.88159821 90.20820618 65.51887512 C91.23329368 67.54355871 92.23786398 69.57762368 93.24145508 71.61303711 C93.95184718 73.03164324 94.66312967 74.4498038 95.3752594 75.86753845 C96.85913173 78.82949554 98.33302654 81.79614387 99.79980469 84.76660156 C101.68082692 88.57427069 103.58499099 92.36979669 105.49652004 96.16222477 C106.9663121 99.08402736 108.42445436 102.01152047 109.87904549 104.94091606 C110.57696024 106.34326125 111.27833371 107.74389062 111.98321342 109.14274788 C112.96448976 111.09478188 113.92998761 113.05384669 114.89160156 115.015625 C115.44420151 116.12861465 115.99680145 117.24160431 116.56614685 118.38832092 C117.70856813 121.5061063 117.71957121 122.25670647 116.62036133 125.26538086 C115.43291664 126.8265717 115.43291664 126.8265717 113.90762329 128.35005569 C113.32800528 128.93626355 112.74838726 129.52247141 112.15120506 130.12644315 C111.50890261 130.7606892 110.86660015 131.39493525 110.20483398 132.04840088 C109.18780616 133.07033197 109.18780616 133.07033197 108.15023232 134.11290812 C105.86871685 136.40172634 103.57660842 138.67963398 101.28442383 140.95776367 C99.64981414 142.5931639 98.01585735 144.22921693 96.38250732 145.86587524 C91.93903192 150.31449393 87.48626132 154.75370212 83.03166962 159.19118595 C78.37990641 163.82794298 73.73621961 168.47277473 69.09155273 173.11663818 C61.2919723 180.91304498 53.4862944 188.70331236 45.67700195 196.48999023 C37.63443895 204.5092799 29.59644982 212.53311559 21.5637207 220.56225586 C21.06870756 221.05704623 20.57369442 221.5518366 20.06368089 222.06162062 C19.06653102 223.0583279 18.06938143 224.05503547 17.07223213 225.05174331 C16.58039534 225.54336053 16.08855856 226.03497775 15.58181763 226.54149246 C14.84597669 227.27700942 14.84597669 227.27700942 14.09527028 228.02738531 C5.98770158 236.13103418 -2.12425422 244.23029019 -10.23639679 252.32936001 C-13.01200226 255.10085856 -15.78701491 257.87294965 -18.56195068 260.64511871 C-22.91290007 264.99119016 -27.26648854 269.33460084 -31.62218475 273.67591476 C-33.22551467 275.27470586 -34.82798992 276.87435455 -36.42957306 278.47489548 C-38.6054409 280.64902912 -40.78434023 282.82007622 -42.96411133 284.99029541 C-43.60641378 285.63346435 -44.24871624 286.27663329 -44.91048241 286.93929219 C-49.26543144 291.26538086 -49.26543144 291.26538086 -50.37963867 291.26538086 C-49.81467681 283.32873812 -48.91507943 275.52405322 -47.64712524 267.67060852 C-47.47279477 266.56822993 -47.29846429 265.46585134 -47.11885107 264.33006734 C-46.53894787 260.67020553 -45.95272773 257.01138551 -45.36645508 253.35253906 C-44.94717466 250.71521563 -44.52823759 248.07783965 -44.10969543 245.44039917 C-43.09336294 239.041528 -42.07215523 232.64344436 -41.04902078 226.2456576 C-40.21722904 221.04410305 -39.38695992 215.84230766 -38.5577507 210.64034081 C-35.94725504 194.26452441 -33.33154278 177.8895498 -30.71182422 161.51520642 C-28.64776421 148.6126705 -26.59170385 135.70887449 -24.53932901 122.80447517 C-22.42855114 109.53339043 -20.31210463 96.26322079 -18.18965089 82.99399823 C-16.99947225 75.55251233 -15.8115684 68.11068033 -14.62968826 60.66787148 C-13.62405807 54.33532861 -12.61310678 48.00366329 -11.59532858 41.67306105 C-11.07669467 38.4462055 -10.56131295 35.2188908 -10.05093956 31.99071693 C-9.4963778 28.48570676 -8.93242408 24.98233144 -8.36611938 21.47920227 C-8.12928419 19.96080615 -8.12928419 19.96080615 -7.88766444 18.41173536 C-4.96375202 0.55356504 -4.96375202 0.55356504 0 0 Z " fill="#FE9F00" transform="translate(175.379638671875,73.734619140625)"/>
<path d="M0 0 C0.66 0 1.32 0 2 0 C7.65153506 11.24238125 13.28054426 22.49579484 18.88537598 33.76153564 C19.90438779 35.80798501 20.92588553 37.85316946 21.94824219 39.89794922 C23.54081424 43.0925248 25.11753627 46.29426887 26.6875 49.5 C27.15003174 50.42240479 27.61256348 51.34480957 28.08911133 52.29516602 C28.49669678 53.13619873 28.90428223 53.97723145 29.32421875 54.84375 C29.67572998 55.55724609 30.02724121 56.27074219 30.3894043 57.00585938 C31.17520506 59.57220111 30.96731081 60.48416149 30 63 C28.38944957 64.89071265 26.78574212 66.60617848 25.02037048 68.34039307 C24.49682136 68.86650547 23.97327223 69.39261787 23.43385798 69.93467307 C21.67511851 71.69835975 19.90585995 73.45110014 18.13647461 75.20410156 C16.87461516 76.46511494 15.61341565 77.72678899 14.35282898 78.98907471 C10.92579923 82.41696663 7.48958593 85.83551812 4.05168223 89.25249958 C0.46152548 92.82392655 -3.12016037 96.40382785 -6.70274353 99.98284912 C-13.48950105 106.76027532 -20.28387101 113.5300167 -27.08099121 120.29704833 C-34.81832942 128.00087643 -42.54716998 135.7132056 -50.27529919 143.42627001 C-66.1740779 159.29367505 -82.08352849 175.15034394 -98 191 C-98.33 190.34 -98.66 189.68 -99 189 C-97.92700195 186.45996094 -97.92700195 186.45996094 -96.23828125 183.234375 C-95.93691757 182.65403503 -95.63555389 182.07369507 -95.32505798 181.47576904 C-94.32879283 179.5629222 -93.32085528 177.65649746 -92.3125 175.75 C-91.61310698 174.41367291 -90.91421819 173.07708182 -90.21582031 171.74023438 C-85.85877666 163.42227624 -81.38491288 155.17254407 -76.84301758 146.95410156 C-71.43140148 137.09083681 -66.35739096 127.05460307 -61.24182129 117.03588867 C-56.60549103 107.9602304 -51.94491832 98.91272361 -47 90 C-40.24629942 77.82125535 -33.97382027 65.39424665 -27.633255 52.99743652 C-27.23478867 52.21839966 -26.83632233 51.43936279 -26.42578125 50.63671875 C-25.83756844 49.48653259 -25.83756844 49.48653259 -25.23747253 48.31311035 C-21.30357437 40.62719871 -17.28487427 32.98777975 -13.24365234 25.35791016 C-10.60330578 20.35192918 -7.99128279 15.33108597 -5.375 10.3125 C-4.84076416 9.28785645 -4.30652832 8.26321289 -3.75610352 7.20751953 C-2.50378409 4.80516133 -1.25173203 2.4026643 0 0 Z " fill="#F57F16" transform="translate(226,172)"/>
</svg>
