<?xml version="1.0" encoding="UTF-8"?>
<svg version="1.1" xmlns="http://www.w3.org/2000/svg" width="512" height="512">
<path d="M0 0 C0.66 0 1.32 0 2 0 C2.35191406 0.73524902 2.70382813 1.47049805 3.06640625 2.22802734 C4.40565758 5.01012092 5.75645194 7.78624191 7.11474609 10.55908203 C7.97715071 12.32812934 8.82664986 14.1034497 9.67578125 15.87890625 C14.88430431 26.47555661 21.65407599 34.81754746 29.75 43.3125 C30.97141794 44.61191922 32.19277099 45.91139944 33.4140625 47.2109375 C35.65022368 49.57870795 37.896199 51.93659724 40.1484375 54.2890625 C90.98297604 107.79344753 114.90017717 182.1314525 113.07037354 254.86761475 C111.34711294 307.0840548 87.9774356 358.73821194 52.41357422 396.48046875 C50.95235268 398.05121882 49.52270784 399.64640035 48.09765625 401.25 C40.50240324 409.74706405 32.34748787 417.18965307 23.2578125 424.078125 C17.669642 428.83483761 16.69940798 435.63308225 15.89453125 442.640625 C15.80918121 443.37828598 15.72383118 444.11594696 15.63589478 444.8759613 C14.71501252 453.60019035 14.78049611 462.30127654 14.875 471.0625 C14.88507034 472.71939551 14.89418888 474.37629708 14.90234375 476.03320312 C14.92398939 480.02229036 14.95828491 484.01107426 15 488 C13.56214591 487.68782439 12.1247295 487.37363239 10.6875 487.05859375 C9.48673828 486.79647095 9.48673828 486.79647095 8.26171875 486.52905273 C3.29567454 485.36741437 3.29567454 485.36741437 1 483 C0.14729335 479.38897272 0.16866775 475.69500049 0 472 C-0.55578089 446.49600186 -0.55578089 446.49600186 -11.1171875 424.796875 C-12.35743305 423.76619449 -13.61074632 422.7510864 -14.875 421.75 C-16.23449327 420.62150057 -17.59254008 419.49125658 -18.94921875 418.359375 C-19.63032715 417.79798828 -20.31143555 417.23660156 -21.01318359 416.65820312 C-35.38608432 404.66253567 -47.79029776 390.95732458 -59 376 C-59.43054688 375.42636719 -59.86109375 374.85273438 -60.3046875 374.26171875 C-66.81358653 365.52401489 -72.61693022 356.46955693 -78 347 C-78.3697998 346.35756348 -78.73959961 345.71512695 -79.12060547 345.05322266 C-110.76927318 289.62343023 -113.55334673 223.79806056 -97.81640625 162.95996094 C-95.89909486 156.00856045 -93.52169363 149.26394692 -90.94628906 142.53271484 C-89.95041891 139.86729768 -89.03000666 137.18320429 -88.1171875 134.48828125 C-83.97220444 122.51029904 -78.85632498 111.33587134 -72.875 100.1875 C-72.36877609 99.24272797 -72.36877609 99.24272797 -71.85232544 98.27886963 C-61.01708123 78.16751336 -61.01708123 78.16751336 -53.8125 69.8125 C-51.2393996 66.76608682 -48.75852755 63.71051195 -46.4609375 60.453125 C-36.84223785 46.8902908 -25.2000414 35.00631523 -12.59765625 24.171875 C-4.7689046 17.40283791 -1.93887019 10.05151123 0 0 Z " fill="#4EA93F" transform="translate(253,12)"/>
<path d="M0 0 C2.05541538 2.61635031 3.68625817 5.16499295 5.12890625 8.16015625 C10.10193098 18.20991736 14.98381189 26.07891921 23 34 C24.20045866 35.36370094 25.38906996 36.73797325 26.5625 38.125 C29.0470048 40.99352662 31.65912405 43.6622929 34.375 46.3125 C39.33011853 51.23430681 43.73027186 56.48021705 48 62 C48.51191895 62.65726074 49.02383789 63.31452148 49.55126953 63.99169922 C93.11561515 120.3084475 116.1658144 192.85340358 107.9375 264 C101.72911279 311.2624681 81.04377794 355.85156512 48.41357422 390.48046875 C46.95235268 392.05121882 45.52270784 393.64640035 44.09765625 395.25 C36.10771332 404.1899345 27.53184882 413.06492497 17 419 C3.68011918 408.09842607 2.27321608 389.65217943 0.4609375 373.55078125 C-0.63850388 361.23760012 0.43341264 348.87459475 1.28862 336.5760498 C3.1092461 309.83283451 3.19980036 283.07873146 3.18867874 256.28697205 C3.18748469 253.08393246 3.18803919 249.88089613 3.18869019 246.67785645 C3.18690146 205.14855807 2.68949021 163.62776737 2.09606981 122.1034956 C2.06264281 119.76001195 2.02948395 117.41652464 1.99639511 115.07303619 C1.68222528 59.85051671 1.68222528 59.85051671 -0.9140625 4.71875 C-1 2 -1 2 0 0 Z " fill="#439934" transform="translate(257,18)"/>
<path d="M0 0 C0.66 0 1.32 0 2 0 C2.03963867 0.57218262 2.07927734 1.14436523 2.12011719 1.73388672 C3.3725565 29.35352558 3.3725565 29.35352558 15.8125 53.125 C16.534375 53.74375 17.25625 54.3625 18 55 C16.1697035 60.62162498 16.1697035 60.62162498 14.99951172 63.23071289 C13.76459735 66.65221599 13.28587303 70.02767096 12.8828125 73.62109375 C12.75605637 74.72970009 12.75605637 74.72970009 12.6267395 75.86070251 C11.71664742 84.58968708 11.78045515 93.29747908 11.875 102.0625 C11.88507034 103.71939551 11.89418888 105.37629708 11.90234375 107.03320312 C11.92398939 111.02229036 11.95828491 115.01107426 12 119 C10.56214591 118.68782439 9.1247295 118.37363239 7.6875 118.05859375 C6.88699219 117.88384521 6.08648437 117.70909668 5.26171875 117.52905273 C0.29567454 116.36741437 0.29567454 116.36741437 -2 114 C-2.85270665 110.38897272 -2.83133225 106.69500049 -3 103 C-3.25475519 99.57982189 -3.55935136 96.16504962 -3.875 92.75 C-3.95830566 91.83903564 -4.04161133 90.92807129 -4.12744141 89.98950195 C-4.77161582 83.37287681 -5.83176253 77.00427038 -7.31640625 70.51953125 C-8.90373851 62.34703774 -9.18871779 56.11728049 -6.8125 48.125 C-4.01498045 37.76246802 -2.80560461 27.33317088 -1.6875 16.6875 C-1.5574205 15.45039276 -1.5574205 15.45039276 -1.42471313 14.18829346 C-0.93192831 9.46054894 -0.45830997 4.731205 0 0 Z " fill="#C1C1A7" transform="translate(256,381)"/>
<path d="M0 0 C0.33 0 0.66 0 1 0 C0.9285376 0.93457031 0.8570752 1.86914062 0.78344727 2.83203125 C0.02931501 13.57034772 -0.12022817 24.23859726 -0.0625 35 C-0.05746627 36.66145696 -0.05290673 38.32291542 -0.04882812 39.984375 C-0.03799087 43.98962171 -0.02083374 47.99479334 0 52 C-1.43785409 51.68782439 -2.8752705 51.37363239 -4.3125 51.05859375 C-5.11300781 50.88384521 -5.91351563 50.70909668 -6.73828125 50.52905273 C-11.70432546 49.36741437 -11.70432546 49.36741437 -14 47 C-15.81023088 40.53029911 -15.36575954 36.33965001 -12.1784668 30.41577148 C-9.71755217 25.37107494 -8.14180253 19.94307561 -6.375 14.625 C-5.59656004 12.28204836 -4.812964 9.94080149 -4.0234375 7.6015625 C-3.68231934 6.57369629 -3.34120117 5.54583008 -2.98974609 4.48681641 C-2 2 -2 2 0 0 Z " fill="#CDCCB7" transform="translate(268,448)"/>
<path d="M0 0 C0.66 0 1.32 0 2 0 C2.04487549 0.57741943 2.08975098 1.15483887 2.13598633 1.74975586 C2.35309954 4.47975846 2.58112552 7.20866847 2.8125 9.9375 C2.89580566 10.93354248 2.97911133 11.92958496 3.06494141 12.95581055 C3.74742403 20.53282236 5.02601727 27.78458436 6.8046875 35.17578125 C7.02985963 39.5846515 6.09172571 41.7739248 4.16210938 45.6418457 C2.20776578 49.60760301 0.80845297 53.78207507 -0.6875 57.9375 C-1.29457664 59.61364242 -1.90260269 61.28944138 -2.51171875 62.96484375 C-2.77428467 63.6930835 -3.03685059 64.42132324 -3.30737305 65.17163086 C-4 67 -4 67 -5 69 C-5.66 69 -6.32 69 -7 69 C-10.28093708 61.66614064 -8.535813 54.9407037 -6.6149292 47.42515564 C-4.05975482 37.33366145 -2.78142371 27.28015387 -1.75 16.9375 C-1.57651875 15.28049418 -1.40204352 13.62359211 -1.2265625 11.96679688 C-0.80631054 7.9789601 -0.39928768 3.98998805 0 0 Z " fill="#A5A985" transform="translate(256,381)"/>
<path d="M0 0 C3.45912345 3.18474539 5.22403698 6.34674614 6 11 C5.10620701 12.85959773 4.19754133 14.71357419 3.21362305 16.52709961 C0.18007475 22.70831278 -1.62043074 29.5200735 -3.73242188 36.06054688 C-4.11076172 37.19427734 -4.48910156 38.32800781 -4.87890625 39.49609375 C-5.38272827 41.04574829 -5.38272827 41.04574829 -5.89672852 42.62670898 C-6.4428479 43.80148804 -6.4428479 43.80148804 -7 45 C-8.485 45.495 -8.485 45.495 -10 46 C-10.99 40.72 -11.98 35.44 -13 30 C-12.34 30 -11.68 30 -11 30 C-10.649375 28.741875 -10.29875 27.48375 -9.9375 26.1875 C-8.29380462 20.6926343 -6.35104153 15.31943443 -4.375 9.9375 C-4.06167725 9.07987061 -3.74835449 8.22224121 -3.42553711 7.33862305 C-3.12784424 6.53465088 -2.83015137 5.73067871 -2.5234375 4.90234375 C-2.25450684 4.17523193 -1.98557617 3.44812012 -1.70849609 2.69897461 C-1 1 -1 1 0 0 Z " fill="#B5B497" transform="translate(262,420)"/>
<path d="M0 0 C0.66 0 1.32 0 2 0 C2.33 9.57 2.66 19.14 3 29 C-6 27 -6 27 -9 26 C-8.30312214 23.0297706 -7.41450617 20.18352418 -6.40625 17.3046875 C-6.09816406 16.42425781 -5.79007812 15.54382813 -5.47265625 14.63671875 C-5.15167969 13.72535156 -4.83070313 12.81398438 -4.5 11.875 C-4.01853516 10.49634766 -4.01853516 10.49634766 -3.52734375 9.08984375 C-1.13127309 2.26254618 -1.13127309 2.26254618 0 0 Z " fill="#DAD9C7" transform="translate(265,471)"/>
<path d="M0 0 C0.33 0 0.66 0 1 0 C1.33 4.62 1.66 9.24 2 14 C-0.97 13.505 -0.97 13.505 -4 13 C-4.33 12.34 -4.66 11.68 -5 11 C-4.00390625 8.3984375 -4.00390625 8.3984375 -2.5625 5.375 C-2.08941406 4.37210937 -1.61632812 3.36921875 -1.12890625 2.3359375 C-0.75636719 1.56507813 -0.38382812 0.79421875 0 0 Z " fill="#EAE8DB" transform="translate(266,486)"/>
<path d="M0 0 C0.99 0 1.98 0 3 0 C2.39816251 2.02045442 1.72693904 4.02111039 1 6 C0.01 6.495 0.01 6.495 -1 7 C-0.67 4.69 -0.34 2.38 0 0 Z " fill="#CDCBB6" transform="translate(271,436)"/>
</svg>
