<?xml version="1.0" encoding="UTF-8"?>
<svg version="1.1" xmlns="http://www.w3.org/2000/svg" width="256" height="256">
<path d="M0 0 C1.16692383 0.36206543 1.16692383 0.36206543 2.35742188 0.73144531 C19.51676195 6.19248429 34.16162787 14.56332882 48 26 C48.77085937 26.6290625 49.54171875 27.258125 50.3359375 27.90625 C55.0491663 31.87908653 59.12096201 36.21502957 63 41 C63.69996094 41.86238281 64.39992187 42.72476563 65.12109375 43.61328125 C75.66206627 57.11376426 82.93038452 71.66081205 88 88 C88.2259082 88.70833984 88.45181641 89.41667969 88.68457031 90.14648438 C95.12454176 111.29649814 94.70003659 138.99189667 88 160 C87.75862305 160.77794922 87.51724609 161.55589844 87.26855469 162.35742188 C81.80751571 179.51676195 73.43667118 194.16162787 62 208 C61.3709375 208.77085937 60.741875 209.54171875 60.09375 210.3359375 C56.12091347 215.0491663 51.78497043 219.12096201 47 223 C46.13761719 223.69996094 45.27523437 224.39992187 44.38671875 225.12109375 C30.88623574 235.66206627 16.33918795 242.93038452 0 248 C-0.70833984 248.2259082 -1.41667969 248.45181641 -2.14648438 248.68457031 C-23.29649814 255.12454176 -50.99189667 254.70003659 -72 248 C-72.77794922 247.75862305 -73.55589844 247.51724609 -74.35742188 247.26855469 C-91.51676195 241.80751571 -106.16162787 233.43667118 -120 222 C-121.15628906 221.05640625 -121.15628906 221.05640625 -122.3359375 220.09375 C-127.0491663 216.12091347 -131.12096201 211.78497043 -135 207 C-135.69996094 206.13761719 -136.39992187 205.27523437 -137.12109375 204.38671875 C-147.66206627 190.88623574 -154.93038452 176.33918795 -160 160 C-160.2259082 159.29166016 -160.45181641 158.58332031 -160.68457031 157.85351562 C-167.12454176 136.70350186 -166.70003659 109.00810333 -160 88 C-159.75862305 87.22205078 -159.51724609 86.44410156 -159.26855469 85.64257812 C-153.80751571 68.48323805 -145.43667118 53.83837213 -134 40 C-133.3709375 39.22914062 -132.741875 38.45828125 -132.09375 37.6640625 C-128.12091347 32.9508337 -123.78497043 28.87903799 -119 25 C-118.13761719 24.30003906 -117.27523437 23.60007812 -116.38671875 22.87890625 C-102.88623574 12.33793373 -88.33918795 5.06961548 -72 0 C-71.29166016 -0.2259082 -70.58332031 -0.45181641 -69.85351562 -0.68457031 C-48.70350186 -7.12454176 -21.00810333 -6.70003659 0 0 Z " fill="#FEFEFE" transform="translate(164,4)"/>
<path d="M0 0 C2.90609255 1.45304628 3.20660932 3.48601254 4.5 6.4375 C7.3285178 12.2734686 10.74227514 15.98521899 15.41796875 20.39453125 C32.77455734 37.9086683 42.00749115 64.61171378 42.3125 88.8125 C42.18863693 112.80149129 33.28060822 133.42428848 17.07421875 150.98828125 C15.31116585 152.69821014 13.67213239 153.9307369 11.625 155.25 C5.98042751 161.16336166 6.09100764 171.17277084 5 179 C3.35 179.33 1.7 179.66 0 180 C-0.08636719 178.68644531 -0.17273438 177.37289062 -0.26171875 176.01953125 C-0.40245717 174.28375738 -0.54445033 172.54808492 -0.6875 170.8125 C-0.76774414 169.51602539 -0.76774414 169.51602539 -0.84960938 168.19335938 C-1.22719844 163.90854436 -1.5040466 161.61608053 -4.2578125 158.1953125 C-5.16273437 157.47085938 -6.06765625 156.74640625 -7 156 C-25.18624009 138.81945061 -38.30171471 118.69758092 -39.2734375 93.03125 C-39.95208797 63.19092131 -31.08467942 36.91037087 -10.94921875 14.7421875 C-8.63387392 12.37230564 -6.47129622 10.30570565 -3.6875 8.5 C-1.06251293 6.16667816 -0.75486464 3.33398551 0 0 Z " fill="#28A456" transform="translate(127,38)"/>
<path d="M0 0 C0.33 0 0.66 0 1 0 C1.25523437 1.44632813 1.25523437 1.44632813 1.515625 2.921875 C1.75796875 4.18515625 2.0003125 5.4484375 2.25 6.75 C2.48203125 8.00296875 2.7140625 9.2559375 2.953125 10.546875 C3.70335778 14.06606056 3.70335778 14.06606056 6.18359375 16.02734375 C6.78300781 16.67832031 7.38242188 17.32929688 8 18 C7.76953125 21.20703125 7.76953125 21.20703125 6.8125 24.8125 C5.59966699 29.54512922 4.61486685 34.14938378 4 39 C1.525 39.495 1.525 39.495 -1 40 C-1.05534912 39.44014404 -1.11069824 38.88028809 -1.16772461 38.3034668 C-1.4207582 35.76444195 -1.6790698 33.225981 -1.9375 30.6875 C-2.02451172 29.80642578 -2.11152344 28.92535156 -2.20117188 28.01757812 C-2.28818359 27.17001953 -2.37519531 26.32246094 -2.46484375 25.44921875 C-2.543396 24.66893311 -2.62194824 23.88864746 -2.70288086 23.0847168 C-2.96337997 20.81117999 -2.96337997 20.81117999 -4 18 C-3.33333333 16.66666667 -2.66666667 15.33333333 -2 14 C-1.55916776 11.59447101 -1.18939025 9.17529618 -0.875 6.75 C-0.70742187 5.48671875 -0.53984375 4.2234375 -0.3671875 2.921875 C-0.24601562 1.95765625 -0.12484375 0.9934375 0 0 Z " fill="#A9ADAB" transform="translate(128,178)"/>
</svg>
