<?xml version="1.0" encoding="UTF-8"?>
<svg version="1.1" xmlns="http://www.w3.org/2000/svg" width="348" height="300">
<path d="M0 0 C0.93457031 0.78761719 1.86914062 1.57523438 2.83203125 2.38671875 C15.04978395 13.09926994 25.15670798 25.76835498 33 40 C33.33338379 40.60247559 33.66676758 41.20495117 34.01025391 41.82568359 C53.21001022 76.97268003 56.9741203 118.3922645 46.25 156.8125 C34.91489221 195.21747207 8.39552879 227.39733371 -26.61108398 246.78759766 C-62.17376891 265.59222005 -103.99145717 268.94813195 -142.42529297 257.80224609 C-178.66575951 246.51017583 -210.97610327 221.36711952 -229.32421875 187.8828125 C-231.36284415 183.98663626 -233.2158601 180.01814012 -235 176 C-235.27537598 175.38979004 -235.55075195 174.77958008 -235.83447266 174.15087891 C-252.11607578 137.5933312 -252.20489867 95.87447597 -238.10498047 58.63623047 C-231.8605034 42.86123196 -223.23653581 28.72096111 -212 16 C-211.14664063 15.01386719 -210.29328125 14.02773438 -209.4140625 13.01171875 C-184.90982305 -14.8557608 -148.73197594 -33.19194724 -111.61328125 -35.83984375 C-70.1106297 -37.67942074 -32.10821726 -27.28952615 0 0 Z " fill="#4378A0" transform="translate(272,36)"/>
<path d="M0 0 C6.10562429 5.23339225 8.2987104 10.05484796 8.92578125 18.1171875 C8.94487596 19.45299424 8.94844339 20.78910161 8.9375 22.125 C8.93121582 23.17554565 8.93121582 23.17554565 8.92480469 24.24731445 C8.74989929 32.28086825 7.19008274 38.30111845 1.625 44.25 C4.265 45.9 6.905 47.55 9.625 49.25 C7.875 54.125 7.875 54.125 5.625 55.25 C4.1317752 54.32491451 2.6798406 53.33282315 1.25 52.3125 C-3.94078452 49.03727272 -7.60072314 48.91061401 -13.609375 49.21875 C-18.82662132 49.27770194 -21.97715691 47.29838232 -26.125 44.1875 C-32.12499143 36.35417786 -32.16123597 26.76127127 -31.375 17.25 C-30.25990652 10.42005243 -27.91875125 4.61963799 -22.375 0.25 C-15.17262621 -3.73752112 -7.26643562 -3.76778143 0 0 Z " fill="#E4892E" transform="translate(225.375,147.75)"/>
<path d="M0 0 C3.63 0 7.26 0 11 0 C14.63 11.55 18.26 23.1 22 35 C25.96 23.45 29.92 11.9 34 0 C37.63 0 41.26 0 45 0 C45.43685966 4.54829775 45.86352814 9.09741042 46.28173828 13.64746094 C46.42461131 15.1874212 46.57002057 16.72714878 46.71826172 18.26660156 C47.73788288 28.87898511 48.19607962 39.33907831 48 50 C45.36 50 42.72 50 40 50 C39.01 37.46 38.02 24.92 37 12 C35.35 17.61 33.7 23.22 32 29 C30.75181594 32.86526629 29.49404436 36.71785623 28.1875 40.5625 C27.87619141 41.48740234 27.56488281 42.41230469 27.24414062 43.36523438 C26.49897141 45.57781374 25.75097701 47.78938671 25 50 C22.69 50 20.38 50 18 50 C14.04 37.46 10.08 24.92 6 12 C5.34 24.54 4.68 37.08 4 50 C1.36 50 -1.28 50 -4 50 C-3.760035 45.12894191 -3.51139897 40.25842386 -3.25537109 35.38818359 C-3.16976332 33.73790938 -3.08635934 32.08751908 -3.00537109 30.43701172 C-2.50031673 20.18004343 -1.68260581 10.14311942 0 0 Z " fill="#FAFBFC" transform="translate(70,146)"/>
<path d="M0 0 C3.48298626 0.81269679 5.69433748 1.9685041 8.68359375 3.84765625 C11.24309753 5.12015057 13.70328655 5.60650533 16.5 6.1875 C30.06011573 9.34022691 39.8091752 19.0471147 46.99609375 30.54296875 C48.36513054 33.14383374 49.44346548 35.56690268 50.47265625 38.30078125 C54.3406465 48.4330748 57.30796386 53.72575207 67.3828125 58.26953125 C72.29770313 60.61294198 76.78062393 63.5576846 78.75 68.875 C70.32142857 71.16071429 70.32142857 71.16071429 65.75 70.875 C68.81087931 74.19095259 72.20796729 76.77644658 75.84765625 79.41015625 C77.63834122 80.78902044 79.19318608 82.24058787 80.75 83.875 C80.42 84.535 80.09 85.195 79.75 85.875 C62.39676617 75.84710668 62.39676617 75.84710668 61.03515625 71.6953125 C60.94105469 71.09460938 60.84695313 70.49390625 60.75 69.875 C63.96182149 67.96891902 66.28882603 67.65233753 70 67.75 C70.89203125 67.76804687 71.7840625 67.78609375 72.703125 67.8046875 C73.37859375 67.82789063 74.0540625 67.85109375 74.75 67.875 C74.75 67.215 74.75 66.555 74.75 65.875 C73.698125 65.50375 73.698125 65.50375 72.625 65.125 C69.75 63.875 69.75 63.875 67.0625 62 C64.08327243 60.08879741 62.22911843 59.43898085 58.92578125 58.5 C53.0731844 56.1994526 51.46257208 52.703139 48.99609375 47.125 C48.54363281 46.01125 48.09117187 44.8975 47.625 43.75 C41.72840198 29.77654922 34.17983245 17.58290797 19.625 11.5625 C16.80358841 10.53059483 14.025149 9.6750411 11.125 8.875 C7.63615819 7.84126909 4.72443117 6.42098828 1.546875 4.6796875 C-0.37819332 3.67064297 -0.37819332 3.67064297 -3.25 3.875 C-2.16728468 7.0247173 -0.78527016 9.63239775 1.0625 12.375 C4.05130391 16.99084509 5.79868236 21.95631659 7.63671875 27.1171875 C8.57596796 29.9616366 8.57596796 29.9616366 10.75 31.875 C11.08333333 37.20833333 11.08333333 37.20833333 9.75 39.875 C9.60056144 42.14244274 9.52855098 44.4153175 9.5 46.6875 C9.47421875 47.91082031 9.4484375 49.13414063 9.421875 50.39453125 C9.76822871 54.06835454 10.61059882 55.91924837 12.75 58.875 C12.9975 57.6375 13.245 56.4 13.5 55.125 C14.26988688 51.27556562 15.85252366 49.48979572 18.75 46.875 C20.26012131 49.64043196 21.75630148 52.41316807 23.25 55.1875 C23.67925781 55.97318359 24.10851562 56.75886719 24.55078125 57.56835938 C25.15986328 58.7043457 25.15986328 58.7043457 25.78125 59.86328125 C26.34682617 60.90802612 26.34682617 60.90802612 26.92382812 61.97387695 C27.75 63.875 27.75 63.875 27.75 66.875 C26.43485396 65.41905245 25.12296283 63.96016421 23.8125 62.5 C22.71615234 61.28183594 22.71615234 61.28183594 21.59765625 60.0390625 C19.75 57.875 19.75 57.875 18.75 55.875 C17.76 58.185 16.77 60.495 15.75 62.875 C13.5 62.75 13.5 62.75 10.75 61.875 C5.46618733 55.41700673 5.15632728 48.93379135 5.75 40.875 C6.36875 39.01875 6.36875 39.01875 7 37.125 C8.14882011 33.8565821 8.14882011 33.8565821 6.1875 31.25 C5.80335938 30.77175781 5.41921875 30.29351562 5.0234375 29.80078125 C3.28274154 27.16837908 2.37718023 24.4043637 1.3125 21.4375 C-0.12331724 17.51352742 -1.46875088 14.21998476 -4.0625 10.9375 C-6.25 7.875 -6.25 7.875 -6.75 4.5625 C-6.585 3.675625 -6.42 2.78875 -6.25 1.875 C-3.25 -0.125 -3.25 -0.125 0 0 Z " fill="#F5F7F9" transform="translate(200.25,62.125)"/>
<path d="M0 0 C4.09851276 2.40564879 5.54188667 4.56957873 7 9 C8.35710403 18.06195269 9.25949806 27.62554095 3.9375 35.5625 C0.42749196 38.47505986 -1.40406085 38.77844646 -5.84765625 38.453125 C-9.15644668 37.75653754 -10.79623369 36.5376703 -13 34 C-15.15064405 28.97930633 -15.33476105 24.42741343 -15.3125 19.0625 C-15.32861328 18.28970703 -15.34472656 17.51691406 -15.36132812 16.72070312 C-15.36641949 10.69761814 -14.39543976 5.75031973 -10.3125 1.0625 C-6.88112632 -0.5140771 -3.66116675 -0.65507954 0 0 Z " fill="#4479A1" transform="translate(218,152)"/>
<path d="M0 0 C0.61875 0.474375 1.2375 0.94875 1.875 1.4375 C1.215 2.7575 0.555 4.0775 -0.125 5.4375 C-0.77726562 5.34210938 -1.42953125 5.24671875 -2.1015625 5.1484375 C-7.34013193 4.48395819 -11.16726816 4.21956733 -16.125 6.4375 C-16.82055339 8.94149221 -17.30189403 10.78888854 -16.609375 13.328125 C-14.33243273 16.56377981 -11.16536014 18.04223386 -7.75 19.9375 C3.06701081 26.00911718 3.06701081 26.00911718 4.58984375 30.5859375 C5.10573361 35.74483612 4.95862553 39.01763674 1.875 43.4375 C-2.39397111 47.59109352 -6.50981549 49.13574794 -12.375 49.8125 C-17.39824047 49.31017595 -21.55164276 47.49873143 -26.125 45.4375 C-25.795 43.7875 -25.465 42.1375 -25.125 40.4375 C-24.32835937 40.60507813 -23.53171875 40.77265625 -22.7109375 40.9453125 C-14.73767001 42.67936675 -14.73767001 42.67936675 -7.125 40.4375 C-4.90438006 37.64620492 -4.90438006 37.64620492 -4.9375 34.625 C-6.78483835 29.66635496 -10.67632022 28.00753793 -15.125 25.4375 C-24.39990182 20.07370136 -24.39990182 20.07370136 -26.125 15.4375 C-26.66135899 10.61026908 -26.64517901 8.45859214 -24.4375 4.125 C-18.02021063 -3.33293089 -8.67202795 -4.33601397 0 0 Z " fill="#E4892E" transform="translate(186.125,147.5625)"/>
<path d="M0 0 C2.64 0 5.28 0 8 0 C8.23710693 0.78238037 8.47421387 1.56476074 8.71850586 2.37084961 C9.78823688 5.8940681 10.86280096 9.41579391 11.9375 12.9375 C12.31068359 14.16919922 12.68386719 15.40089844 13.06835938 16.66992188 C13.42607422 17.83974609 13.78378906 19.00957031 14.15234375 20.21484375 C14.48226318 21.29886475 14.81218262 22.38288574 15.15209961 23.49975586 C15.76455912 25.9120764 15.76455912 25.9120764 17 27 C19.51855006 18.05058909 21.69450978 9.22431907 23 0 C25.64 0 28.28 0 31 0 C29.19553246 16.85449471 24.56212282 34.17154944 13 47 C8.55464669 49.89914347 5.26188885 50.31571333 0 50 C-0.33 48.35 -0.66 46.7 -1 45 C-0.36191406 44.80664062 0.27617188 44.61328125 0.93359375 44.4140625 C2.17302734 44.02347656 2.17302734 44.02347656 3.4375 43.625 C4.26121094 43.36976563 5.08492187 43.11453125 5.93359375 42.8515625 C8.17798016 42.19117773 8.17798016 42.19117773 9 40 C9.84512288 32.04816195 7.05719514 25.18321898 4.5 17.75 C3.64860192 15.2472325 2.80714515 12.74157574 1.96875 10.234375 C1.40317383 8.58260254 1.40317383 8.58260254 0.82617188 6.89746094 C0 4 0 4 0 0 Z " fill="#F9FBFC" transform="translate(123,159)"/>
<path d="M0 0 C2.64 0 5.28 0 8 0 C8 14.52 8 29.04 8 44 C13.28 44 18.56 44 24 44 C24 45.98 24 47.96 24 50 C16.08 50 8.16 50 0 50 C0 33.5 0 17 0 0 Z " fill="#E5892E" transform="translate(241,146)"/>
<path d="M0 0 C0.598125 0.185625 1.19625 0.37125 1.8125 0.5625 C4.16408762 1.22093687 4.16408762 1.22093687 7 0 C7 1.65 7 3.3 7 5 C4.50935112 5.68707555 2.62113708 6 0 6 C0 4.02 0 2.04 0 0 Z " fill="#DC8834" transform="translate(275,190)"/>
</svg>
