<?xml version="1.0" encoding="UTF-8"?>
<svg version="1.1" xmlns="http://www.w3.org/2000/svg" width="198" height="187">
<path d="M0 0 C4.52522778 3.33796371 8.6572876 7.05733987 10.81640625 12.33984375 C10.81640625 13.32984375 10.81640625 14.31984375 10.81640625 15.33984375 C10.25050781 15.46101563 9.68460938 15.5821875 9.1015625 15.70703125 C8.36808594 15.87460937 7.63460937 16.0421875 6.87890625 16.21484375 C6.14800781 16.37726562 5.41710937 16.5396875 4.6640625 16.70703125 C2.60940331 17.16945898 2.60940331 17.16945898 1.81640625 19.33984375 C1.81640625 27.00499587 4.69034876 32.6906368 8.22265625 39.30078125 C9.81640625 42.33984375 9.81640625 42.33984375 10.81640625 45.33984375 C10.33880859 45.73316895 9.86121094 46.12649414 9.36914062 46.53173828 C7.40262486 48.82167787 7.28276288 50.28667935 6.97265625 53.26953125 C6.86050781 54.22988281 6.74835938 55.19023438 6.6328125 56.1796875 C6.52839844 57.18128906 6.42398438 58.18289062 6.31640625 59.21484375 C5.00040993 71.74117913 5.00040993 71.74117913 1.81640625 75.33984375 C-2.12149211 77.2866699 -5.93041496 77.71313105 -10.12109375 76.46484375 C-14.99292504 71.44538121 -14.56403222 62.97357524 -14.80859375 56.33984375 C-14.84726563 55.46972656 -14.8859375 54.59960938 -14.92578125 53.703125 C-15.01900262 51.58233889 -15.10233511 49.4611219 -15.18359375 47.33984375 C-16.50359375 46.67984375 -17.82359375 46.01984375 -19.18359375 45.33984375 C-18.77027265 42.37770918 -18.36662004 39.75689221 -17.16015625 37.0078125 C-16.04518669 33.96171567 -15.91708336 31.57588032 -15.93359375 28.33984375 C-15.9284375 27.32921875 -15.92328125 26.31859375 -15.91796875 25.27734375 C-16.19336387 22.23179775 -16.78971512 20.0547502 -18.18359375 17.33984375 C-22.45564254 15.5089657 -25.93240748 16.92278166 -30.18359375 18.33984375 C-30.90445667 11.70790493 -28.92283889 6.82470588 -25.18359375 1.33984375 C-18.90771137 -5.18640627 -7.31358004 -4.29043004 0 0 Z " fill="#336691" transform="translate(116.18359375,36.66015625)"/>
<path d="M0 0 C9.06799233 -0.27688526 15.32429142 1.12983371 22.51953125 6.703125 C26.29509711 10.38660388 27.39353225 13.13572556 27.51953125 18.390625 C27.34490327 29.3384562 23.51128246 40.75220622 18.08203125 50.203125 C19.38140625 50.3475 20.68078125 50.491875 22.01953125 50.640625 C25.95703125 51.078125 25.95703125 51.078125 27.08203125 52.203125 C27.45703125 55.515625 27.45703125 55.515625 27.08203125 59.203125 C23.74413452 62.73175869 19.90573811 65.04508171 14.98828125 65.3203125 C13.01915597 65.32724604 11.05003835 65.26983711 9.08203125 65.203125 C9.13423828 66.12931641 9.13423828 66.12931641 9.1875 67.07421875 C9.39959896 73.70988615 9.23290992 80.59597155 4.65234375 85.83984375 C-0.12294482 89.98555448 -4.37310955 90.62299196 -10.47265625 90.54296875 C-12.91796875 90.203125 -12.91796875 90.203125 -15.91796875 88.140625 C-20.22635573 81.81268163 -20.18529247 75.58422994 -19.91796875 68.203125 C-20.48644531 68.29851562 -21.05492187 68.39390625 -21.640625 68.4921875 C-27.03412843 69.26654692 -30.65037756 68.82392229 -35.91796875 67.203125 C-36.76359375 67.38875 -37.60921875 67.574375 -38.48046875 67.765625 C-42.17946538 68.42954747 -43.83321819 67.25962537 -46.91796875 65.203125 C-50.99574158 60.17152461 -53.19947366 55.47952834 -55.10546875 49.328125 C-55.35232422 48.57660156 -55.59917969 47.82507813 -55.85351562 47.05078125 C-59.30959236 36.30468665 -62.97320382 23.07066587 -58.73046875 12.078125 C-55.29293972 6.62549275 -51.31421294 2.73292352 -44.91796875 1.203125 C-38.57663008 0.66737442 -32.30372516 1.25467326 -26.01171875 2.08203125 C-23.72340591 2.34409102 -23.72340591 2.34409102 -20.91796875 1.203125 C-13.95921758 0.5775325 -6.97598643 0.3616663 0 0 Z M-7.875 3.98828125 C-10.83960593 4.30004669 -13.76800061 4.17890051 -16.7421875 4.04296875 C-19.02158887 4.0886232 -19.02158887 4.0886232 -21.3203125 5.26171875 C-24.56627397 6.43807471 -26.43796743 6.03398242 -29.79296875 5.328125 C-37.50836038 3.88502608 -43.85976004 3.35878474 -50.91796875 7.203125 C-55.40187837 11.56903699 -56.98007375 16.36202333 -57.29296875 22.515625 C-57.00962507 35.05830538 -52.96357976 54.22121548 -43.91796875 63.203125 C-41.02130279 64.52627754 -41.02130279 64.52627754 -37.91796875 64.203125 C-35.23690374 62.15209904 -35.23690374 62.15209904 -33.04296875 59.265625 C-32.26179688 58.32847656 -31.480625 57.39132813 -30.67578125 56.42578125 C-30.09570312 55.69230469 -29.515625 54.95882812 -28.91796875 54.203125 C-27.26796875 54.863125 -25.61796875 55.523125 -23.91796875 56.203125 C-26.56450225 58.8496585 -29.48018139 59.80254497 -32.91796875 61.203125 C-32.58796875 62.193125 -32.25796875 63.183125 -31.91796875 64.203125 C-28.78155127 65.77133374 -25.34617392 65.58475539 -21.91796875 65.203125 C-19.71417854 64.25835477 -19.71417854 64.25835477 -17.91796875 63.203125 C-17.86189453 64.83121094 -17.86189453 64.83121094 -17.8046875 66.4921875 C-17.73899 67.93753239 -17.67254399 69.38284339 -17.60546875 70.828125 C-17.57163086 71.89740234 -17.57163086 71.89740234 -17.53710938 72.98828125 C-17.29896751 77.70782007 -16.50233207 81.11479728 -13.91796875 85.203125 C-10.17613 87.69768417 -8.35553839 87.57919022 -3.91796875 87.203125 C-0.17849771 85.90869272 1.57474978 85.01675982 3.6796875 81.640625 C5.36747809 77.50342244 5.8613555 73.74690836 6.26953125 69.328125 C6.35138672 68.544375 6.43324219 67.760625 6.51757812 66.953125 C6.716148 65.03750971 6.90054872 63.12043458 7.08203125 61.203125 C7.99726562 61.38230469 8.9125 61.56148437 9.85546875 61.74609375 C13.86004139 62.31332741 16.32734952 61.66327901 20.08203125 60.203125 C22.52301943 58.34891661 22.52301943 58.34891661 24.08203125 56.203125 C24.08203125 55.543125 24.08203125 54.883125 24.08203125 54.203125 C20.45203125 54.203125 16.82203125 54.203125 13.08203125 54.203125 C13.08203125 50.32817496 14.47160364 48.41207793 16.33203125 45.015625 C21.52306772 35.07315809 25.18846518 24.46124079 23.08203125 13.203125 C20.02727602 7.82675579 14.86434569 5.34973213 9.09765625 3.6015625 C3.49306759 2.4936787 -2.27309174 3.17203514 -7.875 3.98828125 Z " fill="#000000" transform="translate(117.91796875,27.796875)"/>
<path d="M0 0 C-0.34933594 0.67546875 -0.69867188 1.3509375 -1.05859375 2.046875 C-1.51363281 2.93890625 -1.96867187 3.8309375 -2.4375 4.75 C-2.88996094 5.63171875 -3.34242187 6.5134375 -3.80859375 7.421875 C-6.32068898 12.85788434 -6.41523233 18.346658 -6.75 24.25 C-6.81832031 25.16652344 -6.88664062 26.08304688 -6.95703125 27.02734375 C-7.30163515 33.22137796 -6.45069358 37.31540149 -4 43 C-4 46.68014865 -4.84245748 47.44245023 -7.1875 50.1875 C-7.77917969 50.90292969 -8.37085937 51.61835937 -8.98046875 52.35546875 C-11 54 -11 54 -13.58203125 54.4296875 C-16 54 -16 54 -18.5 50.9375 C-22.01564661 44.71580363 -23.93794352 37.80328125 -26 31 C-26.25007813 30.2678125 -26.50015625 29.535625 -26.7578125 28.78125 C-29.01359688 21.5373227 -29.51038312 11.62576564 -26.60546875 4.65234375 C-21.23976787 -4.21215965 -8.63500798 -3.83778132 0 0 Z " fill="#336691" transform="translate(91,36)"/>
<path d="M0 0 C9.6591855 -0.53745082 16.94247366 -0.19404624 24.5625 6.125 C28.31900401 13.63800801 25.614662 21.80819518 23.2890625 29.4375 C21.3225316 34.8722763 18.77993784 39.94051313 16 45 C15.01 45 14.02 45 13 45 C13.33 44.34 13.66 43.68 14 43 C14.32586511 38.79840253 14.32468595 34.5876579 14.375 30.375 C14.43107422 28.62896484 14.43107422 28.62896484 14.48828125 26.84765625 C14.57725908 18.11794238 13.01588163 13.24122168 7.05078125 6.94140625 C6.47714844 6.48636719 5.90351562 6.03132813 5.3125 5.5625 C4.73113281 5.08941406 4.14976563 4.61632813 3.55078125 4.12890625 C1.9846433 2.92363747 1.9846433 2.92363747 0 2 C0 1.34 0 0.68 0 0 Z " fill="#336691" transform="translate(114,33)"/>
<path d="M0 0 C2.44907005 8.29962627 2.26546543 15.79488114 -1.625 23.6875 C-2.305625 24.8321875 -2.305625 24.8321875 -3 26 C-7.31566167 25.52048204 -9.2019941 24.29764982 -12 21 C-13.65497356 17.69005287 -13.10084335 14.00877 -13.0625 10.375 C-13.05798828 9.57320312 -13.05347656 8.77140625 -13.04882812 7.9453125 C-13.03703168 5.96350994 -13.01909605 3.98174567 -13 2 C-8.07287859 -0.71480202 -5.55672448 -1.22247938 0 0 Z M-5 1 C-5 1.66 -5 2.32 -5 3 C-4.01 2.67 -3.02 2.34 -2 2 C-2.99 1.67 -3.98 1.34 -5 1 Z " fill="#326690" transform="translate(98,55)"/>
<path d="M0 0 C2.95887459 -0.08069658 5.9155659 -0.14034665 8.875 -0.1875 C9.71675781 -0.21263672 10.55851562 -0.23777344 11.42578125 -0.26367188 C12.23144531 -0.27333984 13.03710938 -0.28300781 13.8671875 -0.29296875 C14.98262939 -0.31653442 14.98262939 -0.31653442 16.12060547 -0.34057617 C17.05090576 -0.17199097 17.05090576 -0.17199097 18 0 C20.20914 3.31371 20.22481553 4.3446021 20.125 8.1875 C20.10695312 9.08855469 20.08890625 9.98960937 20.0703125 10.91796875 C20.04710937 11.60503906 20.02390625 12.29210937 20 13 C18.35 13 16.7 13 15 13 C15 10.03 15 7.06 15 4 C14.01 4 13.02 4 12 4 C12 6.97 12 9.94 12 13 C10.35 13 8.7 13 7 13 C7 10.03 7 7.06 7 4 C6.34 4 5.68 4 5 4 C5 6.97 5 9.94 5 13 C3.35 13 1.7 13 0 13 C0 8.71 0 4.42 0 0 Z " fill="#000000" transform="translate(113,142)"/>
<path d="M0 0 C1.51400391 0.01740234 1.51400391 0.01740234 3.05859375 0.03515625 C4.07050781 0.04417969 5.08242187 0.05320313 6.125 0.0625 C7.29869141 0.07990234 7.29869141 0.07990234 8.49609375 0.09765625 C8.57706699 2.36790593 8.63527079 4.638977 8.68359375 6.91015625 C8.71839844 8.17472656 8.75320312 9.43929687 8.7890625 10.7421875 C8.49609375 14.09765625 8.49609375 14.09765625 7.27734375 16.03515625 C4.97615958 17.40779242 3.47045347 17.40088928 0.80859375 17.28515625 C0.00035156 17.25808594 -0.80789062 17.23101562 -1.640625 17.203125 C-2.25550781 17.16832031 -2.87039062 17.13351563 -3.50390625 17.09765625 C-3.64828125 16.02515625 -3.79265625 14.95265625 -3.94140625 13.84765625 C-4.36458465 10.33083904 -4.36458465 10.33083904 -5.19140625 7.97265625 C-5.64451926 5.25397822 -4.68636256 3.52826088 -3.50390625 1.09765625 C-2.50390625 0.09765625 -2.50390625 0.09765625 0 0 Z M0.49609375 3.09765625 C0.16609375 4.74765625 -0.16390625 6.39765625 -0.50390625 8.09765625 C0.81609375 8.42765625 2.13609375 8.75765625 3.49609375 9.09765625 C3.49609375 7.44765625 3.49609375 5.79765625 3.49609375 4.09765625 C2.50609375 3.76765625 1.51609375 3.43765625 0.49609375 3.09765625 Z M-1.50390625 13.09765625 C2.49609375 14.09765625 2.49609375 14.09765625 2.49609375 14.09765625 Z " fill="#000000" transform="translate(69.50390625,141.90234375)"/>
<path d="M0 0 C1.98 0 3.96 0 6 0 C6.8394882 2.10171867 7.67139656 4.20646625 8.5 6.3125 C8.9640625 7.48425781 9.428125 8.65601563 9.90625 9.86328125 C11 13 11 13 11 16 C9.35 16 7.7 16 6 16 C6 15.01 6 14.02 6 13 C4.02 13 2.04 13 0 13 C-0.33 13.99 -0.66 14.98 -1 16 C-2.65 16 -4.3 16 -6 16 C-4.43551329 10.3856009 -2.83604813 5.13189662 0 0 Z M2 6 C2 6.99 2 7.98 2 9 C2.66 9 3.32 9 4 9 C3.67 8.01 3.34 7.02 3 6 C2.67 6 2.34 6 2 6 Z " fill="#000000" transform="translate(85,139)"/>
<path d="M0 0 C8.3984375 -0.1953125 8.3984375 -0.1953125 11 0 C13 2 13 2 13.3125 5.9375 C13.24063201 8.57745097 13.16841808 9.73053107 11.75 12 C10 13 10 13 6 13 C5.67 14.32 5.34 15.64 5 17 C3.35 17 1.7 17 0 17 C0 11.39 0 5.78 0 0 Z M5 3 C5 4.98 5 6.96 5 9 C5.99 9 6.98 9 8 9 C9.33333333 6 9.33333333 6 8 3 C7.01 3 6.02 3 5 3 Z " fill="#000000" transform="translate(50,142)"/>
<path d="M0 0 C1.65 0 3.3 0 5 0 C5 5.61 5 11.22 5 17 C3.411875 17.061875 1.82375 17.12375 0.1875 17.1875 C-1.15248047 17.23970703 -1.15248047 17.23970703 -2.51953125 17.29296875 C-5 17 -5 17 -6.7734375 15.60546875 C-8.26867857 13.648322 -8.78276636 12.4619812 -9 10 C-7.55172414 5.55172414 -7.55172414 5.55172414 -6 4 C-4.00041636 3.95919217 -1.99954746 3.95745644 0 4 C0 2.68 0 1.36 0 0 Z M-3 7 C-3.33 8.65 -3.66 10.3 -4 12 C-2.68 12.33 -1.36 12.66 0 13 C0 11.02 0 9.04 0 7 C-0.99 7 -1.98 7 -3 7 Z " fill="#000000" transform="translate(105,138)"/>
<path d="M0 0 C2.05078125 0.03255208 4.1015625 0.06510417 6.15234375 0.09765625 C6.181296 3.38930454 6.19912605 6.68092024 6.21484375 9.97265625 C6.22322266 10.90980469 6.23160156 11.84695312 6.24023438 12.8125 C6.24345703 13.70839844 6.24667969 14.60429688 6.25 15.52734375 C6.25523682 16.35476074 6.26047363 17.18217773 6.26586914 18.03466797 C6.15234375 20.09765625 6.15234375 20.09765625 5.15234375 22.09765625 C4.49234375 22.09765625 3.83234375 22.09765625 3.15234375 22.09765625 C-0.94142286 14.8970132 -3.80860584 9.47164555 -2.84765625 1.09765625 C-1.84765625 0.09765625 -1.84765625 0.09765625 0 0 Z " fill="#336690" transform="translate(121.84765625,53.90234375)"/>
<path d="M0 0 C3.63 0 7.26 0 11 0 C12.87184371 3.74368742 13.23999767 4.8400791 13.125 8.75 C13.10695312 9.54921875 13.08890625 10.3484375 13.0703125 11.171875 C13.03550781 12.07679688 13.03550781 12.07679688 13 13 C11.35 13 9.7 13 8 13 C8 10.03 8 7.06 8 4 C7.01 4 6.02 4 5 4 C5 6.97 5 9.94 5 13 C3.35 13 1.7 13 0 13 C0 8.71 0 4.42 0 0 Z " fill="#000000" transform="translate(143,142)"/>
<path d="M0 0 C1.65 0 3.3 0 5 0 C5 4.29 5 8.58 5 13 C3.35 13 1.7 13 0 13 C0 8.71 0 4.42 0 0 Z " fill="#000000" transform="translate(135,142)"/>
<path d="M0 0 C1.32 0.66 2.64 1.32 4 2 C3.1059808 5.08842997 2.58228792 6.63399045 -0.1875 8.375 C-3.70517295 9.1567051 -6.48847281 8.68853474 -10 8 C-10 7.34 -10 6.68 -10 6 C-8.906875 5.566875 -7.81375 5.13375 -6.6875 4.6875 C-3.90591207 3.50504359 -1.93638061 2.39199957 0 0 Z " fill="#346691" transform="translate(97,83)"/>
<path d="M0 0 C4.29 0.33 8.58 0.66 13 1 C9.04725898 4.95274102 9.04725898 4.95274102 5.8359375 5.09765625 C4.61777344 5.08025391 4.61777344 5.08025391 3.375 5.0625 C2.14910156 5.04896484 2.14910156 5.04896484 0.8984375 5.03515625 C-0.04128906 5.01775391 -0.04128906 5.01775391 -1 5 C-0.67 3.35 -0.34 1.7 0 0 Z " fill="#336690" transform="translate(126,83)"/>
<path d="M0 0 C1.65 0 3.3 0 5 0 C5 0.99 5 1.98 5 3 C3.35 3 1.7 3 0 3 C0 2.01 0 1.02 0 0 Z " fill="#000000" transform="translate(135,138)"/>
</svg>
