<?xml version="1.0" encoding="UTF-8"?>
<svg version="1.1" xmlns="http://www.w3.org/2000/svg" width="268" height="251">
<path d="M0 0 C0.66 0 1.32 0 2 0 C2 12.54 2 25.08 2 38 C-14.31074182 46.15537091 -14.31074182 46.15537091 -23.3125 48.75 C-24.29307373 49.0402002 -25.27364746 49.33040039 -26.28393555 49.62939453 C-42.7927159 54.3815351 -59.16708256 56.17894468 -76.3125 56.125 C-78.18518555 56.13080078 -78.18518555 56.13080078 -80.09570312 56.13671875 C-81.29775391 56.13542969 -82.49980469 56.13414062 -83.73828125 56.1328125 C-84.82149658 56.13168457 -85.90471191 56.13055664 -87.02075195 56.12939453 C-90 56 -90 56 -95 55 C-95.66 59.29 -96.32 63.58 -97 68 C-81.19349144 71.95162714 -59.57763996 70.14822854 -44 66 C-43.24460938 65.81195801 -42.48921875 65.62391602 -41.7109375 65.43017578 C-28.71305743 62.14674828 -17.01174737 57.0136398 -5.05908203 51.00585938 C-2.75012759 49.87793759 -0.41034056 48.89088563 2 48 C3.17210616 50.34421233 3.12677084 51.73032235 3.12939453 54.34204102 C3.13254669 55.2395961 3.13569885 56.13715118 3.13894653 57.06190491 C3.13591019 58.51819557 3.13591019 58.51819557 3.1328125 60.00390625 C3.13376923 60.9975267 3.13472595 61.99114716 3.13571167 63.01487732 C3.13639286 65.11725935 3.1345428 67.21964348 3.13037109 69.32202148 C3.12501638 72.55261928 3.13032105 75.78307839 3.13671875 79.01367188 C3.13605807 81.05208364 3.13477711 83.09049532 3.1328125 85.12890625 C3.13483673 86.10179092 3.13686096 87.0746756 3.13894653 88.07704163 C3.13421829 89.41864601 3.13421829 89.41864601 3.12939453 90.78735352 C3.12859894 91.57852066 3.12780334 92.36968781 3.12698364 93.18482971 C3 95 3 95 2 96 C-0.33297433 96.04092937 -2.66705225 96.04241723 -5 96 C-5.33 94.35 -5.66 92.7 -6 91 C-6.65371582 91.2266333 -7.30743164 91.4532666 -7.98095703 91.68676758 C-24.34213795 97.32989337 -39.59197754 102.16140756 -57 103 C-57.17015625 103.61746094 -57.3403125 104.23492187 -57.515625 104.87109375 C-59.22185424 110.8338204 -61.33581117 116.40114631 -64 122 C-64.99 122 -65.98 122 -67 122 C-67 121.34 -67 120.68 -67 120 C-71.62 120 -76.24 120 -81 120 C-81 114.72 -81 109.44 -81 104 C-81.99 104 -82.98 104 -84 104 C-83.9175 104.763125 -83.835 105.52625 -83.75 106.3125 C-84 109 -84 109 -85.5625 110.8125 C-88.80428616 112.39183172 -91.44288878 112.20521796 -95 112 C-95 114.64 -95 117.28 -95 120 C-96.32 120 -97.64 120 -99 120 C-99 114.06 -99 108.12 -99 102 C-103.95 102.33 -108.9 102.66 -114 103 C-113.938125 104.464375 -113.87625 105.92875 -113.8125 107.4375 C-113.84693733 113.52429842 -114.50036562 119.12602424 -118.6171875 123.859375 C-122.80407223 127.63296209 -125.80755257 128.84054928 -131.4375 129.25 C-135.32409146 128.97725674 -136.99058896 128.42424779 -140 126 C-143.49616963 121.13033516 -144.13278518 117.15395533 -144.0625 111.25 C-144.05347656 110.26515625 -144.04445312 109.2803125 -144.03515625 108.265625 C-144.02355469 107.51796875 -144.01195312 106.7703125 -144 106 C-144.80824219 106.01160156 -145.61648437 106.02320313 -146.44921875 106.03515625 C-147.51785156 106.04417969 -148.58648437 106.05320312 -149.6875 106.0625 C-151.27111328 106.07990234 -151.27111328 106.07990234 -152.88671875 106.09765625 C-155.73106916 106.00843572 -158.22457217 105.57099864 -161 105 C-162.11375 105.103125 -163.2275 105.20625 -164.375 105.3125 C-168.69316362 104.94024452 -170.32399839 103.95074933 -173.375 100.98828125 C-182.38235796 89.96725914 -187.09764099 68.35892118 -185.7421875 54.33203125 C-184.64308343 47.56754527 -182.55267697 42.9676885 -177 38.6875 C-168.93998304 34.15374046 -158.93501015 35.73182146 -150.05859375 36.78125 C-147.8478298 37.05283348 -147.8478298 37.05283348 -145 37 C-145 26.44 -145 15.88 -145 5 C-139.4003125 7.3203125 -139.4003125 7.3203125 -133.6875 9.6875 C-97.94745513 24.11422599 -60.60393722 26.25574469 -24.1875 12.1875 C-11.25123526 7.36538704 -11.25123526 7.36538704 0 0 Z M-128 34 C-128 34.33 -128 34.66 -128 35 C-121.73 35.33 -115.46 35.66 -109 36 C-112.79163027 33.47224649 -115.80874031 33.77556965 -120.1875 33.875 C-121.31188477 33.88853516 -121.31188477 33.88853516 -122.45898438 33.90234375 C-124.30612654 33.92587422 -126.15310412 33.96174439 -128 34 Z M-144 35 C-144 35.33 -144 35.66 -144 36 C-139.05 36 -134.1 36 -129 36 C-129 35.67 -129 35.34 -129 35 C-133.95 35 -138.9 35 -144 35 Z M-125 38 C-125 38.33 -125 38.66 -125 39 C-122.36 39 -119.72 39 -117 39 C-117 38.67 -117 38.34 -117 38 C-119.64 38 -122.28 38 -125 38 Z M-166 39 C-162 40 -162 40 -162 40 Z M-142 39 C-142 39.33 -142 39.66 -142 40 C-139.69 40 -137.38 40 -135 40 C-135 39.67 -135 39.34 -135 39 C-137.31 39 -139.62 39 -142 39 Z M-134 41 C-131.69 41.33 -129.38 41.66 -127 42 C-126.67 41.01 -126.34 40.02 -126 39 C-129.76687864 39 -130.91190305 39.23537317 -134 41 Z M-161 40 C-161 40.33 -161 40.66 -161 41 C-159.35 41 -157.7 41 -156 41 C-156 40.67 -156 40.34 -156 40 C-157.65 40 -159.3 40 -161 40 Z M-151 42 C-159.70720836 51.81499569 -159.20401219 65.03386752 -159.36328125 77.37109375 C-158.97469181 81.25280976 -157.84961551 83.60822486 -156 87 C-156 90.77910478 -156.99703962 91.46106101 -159.5 94.1875 C-160.47453125 95.26064453 -160.47453125 95.26064453 -161.46875 96.35546875 C-161.9740625 96.89816406 -162.479375 97.44085938 -163 98 C-165.25 97.875 -165.25 97.875 -168 97 C-172.99307683 90.94475956 -174.77769823 83.38403104 -177 76 C-177.23976563 75.21496094 -177.47953125 74.42992187 -177.7265625 73.62109375 C-179.73032079 65.97989609 -179.65738627 57.8530674 -180 50 C-183.64070471 55.46105706 -182.48264073 61.8080352 -181.27734375 68.046875 C-177.78761724 85.28545951 -177.78761724 85.28545951 -169 100 C-165.81478898 101.8492228 -165.81478898 101.8492228 -162 101 C-158.60043584 97.97395483 -155.78385685 94.59186973 -153 91 C-151.9275 91.33 -150.855 91.66 -149.75 92 C-146.00268399 93.1717751 -146.00268399 93.1717751 -142 93 C-142 94.65 -142 96.3 -142 98 C-144.96349281 98.98783094 -146.9712663 99.13410525 -150.0625 99.125 C-151.37927734 99.12886719 -151.37927734 99.12886719 -152.72265625 99.1328125 C-155 99 -155 99 -157 98 C-157 98.99 -157 99.98 -157 101 C-152.65895204 103.23629743 -149.72484891 103.03087613 -145 102 C-143.65225524 101.36297073 -142.31501535 100.70210885 -141 100 C-141.05220703 101.61068359 -141.05220703 101.61068359 -141.10546875 103.25390625 C-141.13362918 104.69008839 -141.16092691 106.12628762 -141.1875 107.5625 C-141.21263672 108.26697266 -141.23777344 108.97144531 -141.26367188 109.69726562 C-141.33534254 114.88144374 -140.47862301 118.41830292 -138 123 C-134.29017554 125.4732163 -131.30111858 125.54710902 -127 125 C-123.23767316 123.32785474 -121.21839148 121.42403903 -119 118 C-117.19069484 111.76902394 -116.75650358 105.45265515 -117 99 C-116.443125 99.04640625 -115.88625 99.0928125 -115.3125 99.140625 C-109.58013712 99.41175027 -104.56118821 98.76996169 -100 95 C-99.23777306 92.93436741 -99.23777306 92.93436741 -99 91 C-100.65 91 -102.3 91 -104 91 C-103.34 91.66 -102.68 92.32 -102 93 C-106.62197306 95.21854707 -109.76824163 96.38281159 -115 96 C-115.495 94.02 -115.495 94.02 -116 92 C-115.4225 91.97550781 -114.845 91.95101562 -114.25 91.92578125 C-110.73073456 90.47775016 -109.63268044 87.43225924 -108 84.1875 C-107.65187256 83.51477051 -107.30374512 82.84204102 -106.94506836 82.14892578 C-102.57707326 73.49066156 -98.8957808 64.12297825 -98.8125 54.3125 C-98.79832031 53.54550781 -98.78414063 52.77851563 -98.76953125 51.98828125 C-98.81838864 49.76762091 -98.81838864 49.76762091 -101 48 C-101.07476562 49.12535156 -101.14953125 50.25070313 -101.2265625 51.41015625 C-102.17818739 63.23490476 -104.45980183 73.50290603 -110.69140625 83.79296875 C-112.17000368 85.85908685 -112.17000368 85.85908685 -112 88 C-112.66 88 -113.32 88 -114 88 C-119.09702985 92.47831525 -118.97228113 98.15415688 -119.5625 104.5 C-120.80184385 117.30921833 -120.80184385 117.30921833 -124 121 C-126.58320006 121.86106669 -128.33321624 122.21653619 -131 122.3125 C-132.0209375 122.36857422 -132.0209375 122.36857422 -133.0625 122.42578125 C-135 122 -135 122 -136.57983398 120.34887695 C-138.34306064 117.43259645 -138.48221686 115.38572742 -138.66015625 111.9921875 C-138.73169922 110.84105469 -138.80324219 109.68992187 -138.87695312 108.50390625 C-138.93818359 107.30636719 -138.99941406 106.10882813 -139.0625 104.875 C-139.19094098 102.49693429 -139.3272563 100.11927657 -139.47265625 97.7421875 C-139.55398804 96.16219971 -139.55398804 96.16219971 -139.63696289 94.55029297 C-139.76285039 91.83688516 -139.76285039 91.83688516 -142 90 C-142.99 90 -143.98 90 -145 90 C-144.71125 89.34515625 -144.4225 88.6903125 -144.125 88.015625 C-140.98080905 80.28615559 -139.21189108 72.42652185 -141.8984375 64.2734375 C-142.90783213 61.87349341 -142.90783213 61.87349341 -145 60 C-149.63096229 59.65049341 -152.78153718 60.17030528 -157 62 C-154.95966288 54.41997661 -153.08024616 48.0680718 -148 42 C-148.99 42 -149.98 42 -151 42 Z M-125 43 C-124.01 44.485 -124.01 44.485 -123 46 C-122.34 45.67 -121.68 45.34 -121 45 C-122.32 44.34 -123.64 43.68 -125 43 Z M-179 46 C-178 48 -178 48 -178 48 Z M-180 48 C-179 50 -179 50 -179 50 Z M-119 48 C-118.34 49.32 -117.68 50.64 -117 52 C-117 51.01 -117 50.02 -117 49 C-117.66 48.67 -118.32 48.34 -119 48 Z M-116 52 C-115.34 53.98 -114.68 55.96 -114 58 C-114.63808594 58.19335938 -115.27617188 58.38671875 -115.93359375 58.5859375 C-116.75988281 58.84632813 -117.58617188 59.10671875 -118.4375 59.375 C-119.67306641 59.75785156 -119.67306641 59.75785156 -120.93359375 60.1484375 C-123.17798016 60.80882227 -123.17798016 60.80882227 -124 63 C-124.55823287 69.59144202 -123.2287207 73.6757486 -120.125 79.4375 C-119.76019531 80.15615234 -119.39539063 80.87480469 -119.01953125 81.61523438 C-117.21645708 85.46088988 -117.21645708 85.46088988 -114 88 C-111.26970985 82.08697551 -111.66994297 76.40480622 -111.6875 70 C-111.67138672 68.824375 -111.65527344 67.64875 -111.63867188 66.4375 C-111.63802734 65.303125 -111.63738281 64.16875 -111.63671875 63 C-111.63373779 61.96875 -111.63075684 60.9375 -111.62768555 59.875 C-112.05372206 56.58515999 -113.06576521 54.66934828 -115 52 C-115.33 52 -115.66 52 -116 52 Z M-109 92 C-105 93 -105 93 -105 93 Z M-148 93 C-147 95 -147 95 -147 95 Z M-95 103 C-95 104.98 -95 106.96 -95 109 C-92.08347826 109.16681109 -92.08347826 109.16681109 -89 109 C-88.34 108.34 -87.68 107.68 -87 107 C-87.3185177 104.89179203 -87.3185177 104.89179203 -88 103 C-90.31 103 -92.62 103 -95 103 Z M-77 104 C-77 108.29 -77 112.58 -77 117 C-73.7 117 -70.4 117 -67 117 C-66.67 117.66 -66.34 118.32 -66 119 C-65.16260219 116.8765984 -64.33019717 114.7512272 -63.5 112.625 C-62.80390625 110.84996094 -62.80390625 110.84996094 -62.09375 109.0390625 C-60.88712206 106.2246756 -60.88712206 106.2246756 -61 104 C-66.28 104 -71.56 104 -77 104 Z " fill="#33748F" transform="translate(212,102)"/>
<path d="M0 0 C-0.33 12.54 -0.66 25.08 -1 38 C-48.39668016 60.34965406 -98.76285193 59.41238269 -148 43 C-148 30.13 -148 17.26 -148 4 C-144.4525 5.546875 -140.905 7.09375 -137.25 8.6875 C-101.45493264 23.83325735 -62.94115539 25.05881542 -26.46435547 11.02441406 C-18.79784093 7.90628879 -11.56777557 4.58850361 -4.75512695 -0.14233398 C-3 -1 -3 -1 0 0 Z " fill="#069AAB" transform="translate(215,55)"/>
<path d="M0 0 C2.89262641 2.68601024 3.79570401 4.12709896 4.6875 7.9375 C3.86395663 11.60601139 2.38257975 13.23174558 -0.58203125 15.4921875 C-11.11051627 22.05760789 -22.90076157 24.95885228 -35 27 C-36.05501709 27.17877686 -37.11003418 27.35755371 -38.19702148 27.54174805 C-48.00750965 29.0322093 -57.6419546 29.34046932 -67.55004883 29.31567383 C-70.16725824 29.31252436 -72.78332056 29.33603887 -75.40039062 29.36132812 C-97.22648198 29.44367336 -124.14119015 27.29269549 -142.125 13.625 C-144 11 -144 11 -144.75 7.5625 C-143.91342117 3.58875058 -142.71042481 1.88152313 -139.45703125 -0.53125 C-104.81121482 -21.24162675 -34.23031321 -22.10419011 0 0 Z " fill="#079AAB" transform="translate(211,36)"/>
<path d="M0 0 C0.66 0 1.32 0 2 0 C2 12.54 2 25.08 2 38 C-14.31074182 46.15537091 -14.31074182 46.15537091 -23.3125 48.75 C-24.29307373 49.0402002 -25.27364746 49.33040039 -26.28393555 49.62939453 C-42.7927159 54.3815351 -59.16708256 56.17894468 -76.3125 56.125 C-78.18518555 56.13080078 -78.18518555 56.13080078 -80.09570312 56.13671875 C-81.29775391 56.13542969 -82.49980469 56.13414062 -83.73828125 56.1328125 C-84.82149658 56.13168457 -85.90471191 56.13055664 -87.02075195 56.12939453 C-89.79265777 56.00900528 -92.30289558 55.62891841 -95 55 C-95.33 55.99 -95.66 56.98 -96 58 C-96.02578125 57.27554688 -96.0515625 56.55109375 -96.078125 55.8046875 C-96.42921295 49.82023383 -96.76346127 45.56242632 -101 41 C-107.12205284 36.47017461 -111.92883484 34.83166794 -119.5625 34.875 C-120.24763672 34.87113281 -120.93277344 34.86726563 -121.63867188 34.86328125 C-125.44562188 34.81277382 -125.44562188 34.81277382 -129 36 C-132.31515981 36.07062924 -135.61839466 35.99676613 -138.93359375 35.9375 C-142.04199474 35.84909275 -142.04199474 35.84909275 -145 37 C-145 26.44 -145 15.88 -145 5 C-139.4003125 7.3203125 -139.4003125 7.3203125 -133.6875 9.6875 C-97.94745513 24.11422599 -60.60393722 26.25574469 -24.1875 12.1875 C-11.25123526 7.36538704 -11.25123526 7.36538704 0 0 Z " fill="#089BAB" transform="translate(212,102)"/>
<path d="M0 0 C0.99 0.33 1.98 0.66 3 1 C3.02527002 7.53278786 3.04283292 14.06556321 3.05493164 20.59838867 C3.05997317 22.82267732 3.06680623 25.04696263 3.07543945 27.27124023 C3.08751298 30.46078309 3.09322996 33.65028229 3.09765625 36.83984375 C3.10281754 37.84087631 3.10797882 38.84190887 3.11329651 39.87327576 C3.11337204 40.79415482 3.11344757 41.71503387 3.11352539 42.66381836 C3.115746 43.47878281 3.11796661 44.29374725 3.12025452 45.13340759 C3 47 3 47 2 48 C-0.33297433 48.04092937 -2.66705225 48.04241723 -5 48 C-5.33 46.35 -5.66 44.7 -6 43 C-6.65371582 43.2266333 -7.30743164 43.4532666 -7.98095703 43.68676758 C-24.34213795 49.32989337 -39.59197754 54.16140756 -57 55 C-57.17015625 55.61746094 -57.3403125 56.23492187 -57.515625 56.87109375 C-59.22185424 62.8338204 -61.33581117 68.40114631 -64 74 C-64.99 74 -65.98 74 -67 74 C-67 73.34 -67 72.68 -67 72 C-71.62 72 -76.24 72 -81 72 C-81 66.72 -81 61.44 -81 56 C-81.99 56 -82.98 56 -84 56 C-84 57.65 -84 59.3 -84 61 C-85.32 61.66 -86.64 62.32 -88 63 C-89.04449911 59.86650268 -88.93423645 59.01031744 -88 56 C-90.31 55.67 -92.62 55.34 -95 55 C-95 56.98 -95 58.96 -95 61 C-95.33 61 -95.66 61 -96 61 C-96 58.36 -96 55.72 -96 53 C-93.36 53 -90.72 53 -88 53 C-88 52.34 -88 51.68 -88 51 C-91.63 51 -95.26 51 -99 51 C-98.34 49.68 -97.68 48.36 -97 47 C-96.74930087 44.37429296 -96.74930087 44.37429296 -97 42 C-98.49743119 40.50256881 -99.98824239 40.66797307 -102.0625 40.4375 C-103.361875 40.293125 -104.66125 40.14875 -106 40 C-104.65023313 35.81258372 -103.13132987 31.74763548 -101.4375 27.6875 C-101.00308594 26.63949219 -100.56867188 25.59148437 -100.12109375 24.51171875 C-99 22 -99 22 -98 21 C-95.45961423 20.94831946 -92.945261 20.95853479 -90.40625 21.0078125 C-88.80078813 21.02538041 -87.19531888 21.04228346 -85.58984375 21.05859375 C-83.07156438 21.08909781 -80.55366532 21.12398985 -78.03564453 21.17138672 C-62.93626935 21.4405324 -48.75944613 19.85753245 -34.25 15.4375 C-33.43926025 15.19354492 -32.62852051 14.94958984 -31.79321289 14.69824219 C-20.85343221 11.22343751 -9.57363202 6.38242135 0 0 Z M-77 56 C-77 60.29 -77 64.58 -77 69 C-73.7 69 -70.4 69 -67 69 C-66.67 69.66 -66.34 70.32 -66 71 C-65.16260219 68.8765984 -64.33019717 66.7512272 -63.5 64.625 C-62.80390625 62.84996094 -62.80390625 62.84996094 -62.09375 61.0390625 C-60.88712206 58.2246756 -60.88712206 58.2246756 -61 56 C-66.28 56 -71.56 56 -77 56 Z " fill="#069AAA" transform="translate(212,150)"/>
<path d="M0 0 C1.29550781 -0.02578125 2.59101562 -0.0515625 3.92578125 -0.078125 C9.88246548 0.44146116 14.4456616 3.11420756 18.6875 7.25 C24.6875 16.1716152 24.6875 16.1716152 24.6875 18.25 C21.3875 18.91 18.0875 19.57 14.6875 20.25 C13.65252728 28.52978178 15.92552084 33.62446243 19.84179688 40.71484375 C21.78567802 44.25610317 22.6875 46.11799184 22.6875 50.25 C22.0275 50.25 21.3675 50.25 20.6875 50.25 C20.61233154 50.98114014 20.53716309 51.71228027 20.4597168 52.46557617 C20.11068522 55.79100554 19.74304337 59.11412333 19.375 62.4375 C19.25705078 63.58798828 19.13910156 64.73847656 19.01757812 65.92382812 C18.89189453 67.03564453 18.76621094 68.14746094 18.63671875 69.29296875 C18.52674561 70.31414795 18.41677246 71.33532715 18.3034668 72.38745117 C17.48810492 76.17663784 16.09654093 79.15407928 13 81.5625 C9.60600451 82.57152569 6.13805806 83.21373008 2.6875 82.25 C-0.83858855 78.60317765 -1.8208894 76.1769988 -2 71.14453125 C-2.05929688 69.99662109 -2.11859375 68.84871094 -2.1796875 67.66601562 C-2.26866049 65.25196898 -2.357198 62.83790625 -2.4453125 60.42382812 C-2.50460938 59.27978516 -2.56390625 58.13574219 -2.625 56.95703125 C-2.66238281 55.9100708 -2.69976562 54.86311035 -2.73828125 53.78442383 C-3.04201734 51.09096703 -3.04201734 51.09096703 -5.35546875 49.89331055 C-6.00128906 49.68101807 -6.64710937 49.46872559 -7.3125 49.25 C-6.8991789 46.28786543 -6.49552629 43.66704846 -5.2890625 40.91796875 C-4.17409294 37.87187192 -4.04598961 35.48603657 -4.0625 32.25 C-4.05734375 31.239375 -4.0521875 30.22875 -4.046875 29.1875 C-4.34227037 25.92077472 -4.90872711 22.65377289 -7.3125 20.25 C-11.47714926 20.08982118 -15.25976192 20.26751804 -19.3125 21.25 C-18.79276725 13.97374155 -17.01102898 8.43917061 -12.25 2.8125 C-8.46730141 -0.23806338 -4.68805138 0.05564453 0 0 Z " fill="#0D5979" transform="translate(74.3125,142.75)"/>
<path d="M0 0 C1.12148438 -0.01417969 2.24296875 -0.02835938 3.3984375 -0.04296875 C6.57384842 0.18384632 8.76734718 0.83359332 11.625 2.1875 C11.356875 2.8475 11.08875 3.5075 10.8125 4.1875 C10.420625 5.1775 10.02875 6.1675 9.625 7.1875 C9.37234375 7.78046875 9.1196875 8.3734375 8.859375 8.984375 C5.72131004 16.67571069 5.52811374 24.13128123 5.375 32.375 C5.35348877 33.05240234 5.33197754 33.72980469 5.30981445 34.42773438 C5.27917075 39.14108318 6.37831643 42.1020833 8.625 46.1875 C8.625 49.86664713 7.79697787 50.58576865 5.4375 53.3125 C4.84582031 54.01632813 4.25414063 54.72015625 3.64453125 55.4453125 C1.29957562 57.46823361 -0.33566402 57.84104719 -3.375 58.1875 C-9.13178976 52.59518994 -11.02202728 45.71539555 -13.375 38.1875 C-13.69855469 37.20394531 -14.02210937 36.22039062 -14.35546875 35.20703125 C-16.10922663 29.23766758 -16.72375654 23.44041462 -16.875 17.25 C-16.9056958 16.52772217 -16.9363916 15.80544434 -16.96801758 15.0612793 C-16.96940962 11.09164181 -16.57787817 9.42495967 -13.96875 6.37109375 C-13.1128125 5.65050781 -12.256875 4.92992187 -11.375 4.1875 C-10.715 3.1975 -10.055 2.2075 -9.375 1.1875 C-6.0588381 0.0821127 -3.48963365 0.01996358 0 0 Z " fill="#0C5879" transform="translate(48.375,142.8125)"/>
<path d="M0 0 C9.73540581 -0.36917971 16.6218969 -0.36131444 25 4.875 C28.79082912 10.7981705 27.69993598 17.57854822 26.3359375 24.24609375 C23.9618551 32.67924734 20.10639666 40.30627368 16 48 C15.34 48 14.68 48 14 48 C14.15863525 47.29584961 14.31727051 46.59169922 14.48071289 45.86621094 C15.41721117 40.69719836 15.35287638 35.49082859 15.4375 30.25 C15.48326172 29.10789063 15.52902344 27.96578125 15.57617188 26.7890625 C15.68077458 18.87564036 14.34645931 13.92914871 9 8 C7.07620613 6.16048109 5.13276258 4.61142062 3 3 C1.9870984 2.01307024 0.98390945 1.01583571 0 0 Z " fill="#155E7D" transform="translate(84,142)"/>
<path d="M0 0 C2.76298395 9.84313031 2.06101843 16.57321826 -2 26 C-3 27 -3 27 -5.3125 27.3125 C-8.80189641 26.90675623 -9.80731881 25.66254144 -12 23 C-13.17426264 20.65147472 -13.11508173 19.26225935 -13.09765625 16.6484375 C-13.09443359 15.79765625 -13.09121094 14.946875 -13.08789062 14.0703125 C-13.07951172 13.18085938 -13.07113281 12.29140625 -13.0625 11.375 C-13.05798828 10.4778125 -13.05347656 9.580625 -13.04882812 8.65625 C-13.03702591 6.43743352 -13.02056155 4.21874982 -13 2 C-8.07287859 -0.71480202 -5.55672448 -1.22247938 0 0 Z M-5 2 C-4.67 2.66 -4.34 3.32 -4 4 C-3.34 4 -2.68 4 -2 4 C-2 3.34 -2 2.68 -2 2 C-2.99 2 -3.98 2 -5 2 Z " fill="#155E7D" transform="translate(68,164)"/>
<path d="M0 0 C2.5 0.25 2.5 0.25 4.5 2.25 C4.74291992 4.46484375 4.74291992 4.46484375 4.73046875 7.1875 C4.72853516 8.16460937 4.72660156 9.14171875 4.72460938 10.1484375 C4.71236328 11.17195312 4.70011719 12.19546875 4.6875 13.25 C4.68685547 14.27351562 4.68621094 15.29703125 4.68554688 16.3515625 C4.64032251 23.96935497 4.64032251 23.96935497 3.5 26.25 C1.19 26.25 -1.12 26.25 -3.5 26.25 C-5.7177325 20.96156096 -5.63764456 16.58929365 -5.25 11 C-5.21003906 10.1853125 -5.17007813 9.370625 -5.12890625 8.53125 C-4.63468786 0.46346879 -4.63468786 0.46346879 0 0 Z " fill="#095677" transform="translate(224.5,171.75)"/>
<path d="M0 0 C2.6495391 0.45700469 4.08458331 1.36494373 5.90234375 3.328125 C7.0218792 6.68673134 7.00093378 9.2328124 6.96484375 12.765625 C6.95582031 13.89871094 6.94679687 15.03179687 6.9375 16.19921875 C6.92589844 17.23175781 6.91429687 18.26429688 6.90234375 19.328125 C6.90234375 20.648125 6.90234375 21.968125 6.90234375 23.328125 C6.24234375 22.998125 5.58234375 22.668125 4.90234375 22.328125 C2.08064372 21.38755832 0.70985031 21.29219005 -2.16015625 21.453125 C-6.09765625 21.328125 -6.09765625 21.328125 -8.3125 19.7265625 C-10.6330109 16.60885202 -10.63303334 14.68422791 -10.59765625 10.828125 C-10.613125 9.14203125 -10.613125 9.14203125 -10.62890625 7.421875 C-9.53472752 1.04989299 -5.8497084 -0.30501273 0 0 Z M-5.91015625 4.890625 C-7.542552 8.24133206 -7.4923486 10.64432974 -7.09765625 14.328125 C-6.07774831 16.82911482 -6.07774831 16.82911482 -4.09765625 18.328125 C-1.55507162 18.82827453 -1.55507162 18.82827453 0.90234375 18.328125 C3.1530942 16.49700652 3.1530942 16.49700652 3.16796875 13.796875 C3.1628125 12.8171875 3.15765625 11.8375 3.15234375 10.828125 C3.1575 9.8484375 3.16265625 8.86875 3.16796875 7.859375 C3.1530942 5.15924348 3.1530942 5.15924348 0.90234375 3.328125 C-2.18677816 2.85287547 -3.50777354 2.81960542 -5.91015625 4.890625 Z " fill="#33738E" transform="translate(219.09765625,200.671875)"/>
<path d="M0 0 C3.625 0.375 3.625 0.375 7 1 C7.02888514 4.14581423 7.04675923 7.29159469 7.0625 10.4375 C7.07087891 11.33533203 7.07925781 12.23316406 7.08789062 13.15820312 C7.09111328 14.01220703 7.09433594 14.86621094 7.09765625 15.74609375 C7.10289307 16.53685303 7.10812988 17.3276123 7.11352539 18.14233398 C7 20 7 20 6 21 C2.5 21.125 2.5 21.125 -1 21 C-3.15732833 18.84267167 -2.18520919 14.05201247 -2.1875 11.0625 C-2.19974609 10.22525391 -2.21199219 9.38800781 -2.22460938 8.52539062 C-2.22654297 7.72423828 -2.22847656 6.92308594 -2.23046875 6.09765625 C-2.23457764 5.36039307 -2.23868652 4.62312988 -2.24291992 3.86352539 C-2 2 -2 2 0 0 Z " fill="#075576" transform="translate(208,177)"/>
<path d="M0 0 C0.90105469 0.02707031 1.80210937 0.05414063 2.73046875 0.08203125 C3.76107422 0.13423828 3.76107422 0.13423828 4.8125 0.1875 C4.89960289 3.29148978 4.95292309 6.39516548 5 9.5 C5.02513672 10.38107422 5.05027344 11.26214844 5.07617188 12.16992188 C5.09067383 13.44125977 5.09067383 13.44125977 5.10546875 14.73828125 C5.12903442 15.90870972 5.12903442 15.90870972 5.15307617 17.1027832 C4.72526296 19.72149076 3.88895761 20.58731725 1.8125 22.1875 C-0.91257798 22.57828556 -3.41871956 22.32366953 -6.1875 22.1875 C-6.1875 20.8675 -6.1875 19.5475 -6.1875 18.1875 C-4.2075 18.1875 -2.2275 18.1875 -0.1875 18.1875 C0.1425 17.5275 0.4725 16.8675 0.8125 16.1875 C-0.30125 16.249375 -1.415 16.31125 -2.5625 16.375 C-3.75875 16.313125 -4.955 16.25125 -6.1875 16.1875 C-8.33303377 12.96919935 -8.48333868 11.91963493 -8.5 8.1875 C-8.51675781 7.32125 -8.53351563 6.455 -8.55078125 5.5625 C-8.1875 3.1875 -8.1875 3.1875 -6.9921875 1.38671875 C-4.55474097 -0.23296975 -2.89937656 -0.11296272 0 0 Z M-3.1875 3.1875 C-5.75437367 7.0378105 -5.02038724 8.77319763 -4.1875 13.1875 C-2.52138095 13.230221 -0.85367115 13.22813832 0.8125 13.1875 C2.20537806 12.01713695 2.20537806 12.01713695 2 8.75 C2.20814928 5.13717279 2.20814928 5.13717279 -0.1875 3.1875 C-1.1775 3.1875 -2.1675 3.1875 -3.1875 3.1875 Z " fill="#1E6482" transform="translate(183.1875,205.8125)"/>
<path d="M0 0 C7.82176894 0.03265874 13.11585889 1.76299458 19 7 C23.89758261 12.61430201 23.40762302 18.44150951 23.3359375 25.57421875 C23.03318708 28.661569 22.63410131 30.41811993 21 33 C20.67 32.01 20.34 31.02 20 30 C19.34 30.99 18.68 31.98 18 33 C18.165 31.700625 18.33 30.40125 18.5 29.0625 C18.67213782 27.37554932 18.83862684 25.68801443 19 24 C19.09152344 23.22269531 19.18304688 22.44539063 19.27734375 21.64453125 C19.59315139 17.16930588 19.17449711 14.60697334 16.3125 11.0625 C13.76797383 8.47007686 11.56490932 6.93813403 8 6 C7.40703125 5.82082031 6.8140625 5.64164063 6.203125 5.45703125 C2.63452648 4.71673688 -0.91257609 5.0386252 -4.5390625 5.16015625 C-7 5 -7 5 -9 3 C-5.7 3 -2.4 3 1 3 C0.67 2.01 0.34 1.02 0 0 Z " fill="#457F98" transform="translate(93,137)"/>
<path d="M0 0 C2 1.25 2 1.25 3 3 C3 4.32 3 5.64 3 7 C2.01 7 1.02 7 0 7 C-0.66 6.01 -1.32 5.02 -2 4 C-4.56282742 3.27034634 -4.56282742 3.27034634 -7 3 C-6.80358387 4.94170385 -6.80358387 4.94170385 -6 7 C-4.19276027 8.30764044 -4.19276027 8.30764044 -2 9.1875 C1.96440129 10.96440129 1.96440129 10.96440129 3 12 C3.25 15.4375 3.25 15.4375 3 19 C-0.67273717 21.44849145 -3.73060968 21.71299677 -8 21 C-10.5 19.1875 -10.5 19.1875 -12 17 C-12 16.01 -12 15.02 -12 14 C-10.68 14 -9.36 14 -8 14 C-7.67 14.99 -7.34 15.98 -7 17 C-5.02 17 -3.04 17 -1 17 C-1 16.01 -1 15.02 -1 14 C-4.3 12.35 -7.6 10.7 -11 9 C-11.35555556 3.66666667 -11.35555556 3.66666667 -10 1.125 C-6.78886477 -0.68126357 -3.59069305 -0.55356518 0 0 Z " fill="#3A7892" transform="translate(203,201)"/>
<path d="M0 0 C2.01822917 0.06510417 4.03645833 0.13020833 6.0546875 0.1953125 C6.08370144 3.6327948 6.10149085 7.07024562 6.1171875 10.5078125 C6.12556641 11.48427734 6.13394531 12.46074219 6.14257812 13.46679688 C6.14580078 14.40458984 6.14902344 15.34238281 6.15234375 16.30859375 C6.15758057 17.17266846 6.16281738 18.03674316 6.16821289 18.92700195 C6.0546875 21.1953125 6.0546875 21.1953125 5.0546875 24.1953125 C4.3946875 24.1953125 3.7346875 24.1953125 3.0546875 24.1953125 C-4.72494705 10.34899046 -4.72494705 10.34899046 -3.9453125 2.1953125 C-1.9453125 0.1953125 -1.9453125 0.1953125 0 0 Z M0.0546875 2.1953125 C0.3846875 2.8553125 0.7146875 3.5153125 1.0546875 4.1953125 C1.3846875 3.5353125 1.7146875 2.8753125 2.0546875 2.1953125 C1.3946875 2.1953125 0.7346875 2.1953125 0.0546875 2.1953125 Z " fill="#2B6D8A" transform="translate(92.9453125,162.8046875)"/>
<path d="M0 0 C9 0 9 0 11.5625 1.4375 C13.66155794 5.17929894 13.66568876 8.79687211 13 13 C12.01 14.485 12.01 14.485 11 16 C9.0546875 16.29296875 9.0546875 16.29296875 6.875 16.1875 C5.59625 16.125625 4.3175 16.06375 3 16 C3 17.98 3 19.96 3 22 C2.01 22 1.02 22 0 22 C0 14.74 0 7.48 0 0 Z M4 3 C2.79438816 3.98267859 2.79438816 3.98267859 2.90234375 5.84765625 C2.91394531 6.57855469 2.92554688 7.30945313 2.9375 8.0625 C2.958125 9.361875 2.97875 10.66125 3 12 C5.39719432 12.67958603 5.39719432 12.67958603 8 13 C8.66 12.34 9.32 11.68 10 11 C9.67673447 7.40320934 9.67673447 7.40320934 9 4 C7.34385343 3.61781233 5.67542976 3.28604898 4 3 Z " fill="#48819A" transform="translate(159,206)"/>
<path d="M0 0 C0.66 0 1.32 0 2 0 C2.03738281 1.07378906 2.07476562 2.14757812 2.11328125 3.25390625 C2.17899112 4.6901362 2.24543668 6.12633262 2.3125 7.5625 C2.33505859 8.26697266 2.35761719 8.97144531 2.38085938 9.69726562 C2.63726342 14.75541805 3.65074778 18.49291611 6 23 C9.18616887 24.59308443 12.53197768 24.39273189 16 24 C18.83658587 22.68326167 18.83658587 22.68326167 21 21 C21.66 20.67 22.32 20.34 23 20 C22.67 20.78375 22.34 21.5675 22 22.375 C20.88133489 24.84332497 20.88133489 24.84332497 21 27 C15.55664186 29.12423732 10.77271773 30.19730993 5.25 27.8125 C1.10360804 24.47235092 -0.09379927 21.36814879 -0.6875 16.1875 C-0.80355166 14.79260452 -0.91174084 13.39692939 -1 12 C-0.67 12 -0.34 12 0 12 C0 8.04 0 4.08 0 0 Z " fill="#447E97" transform="translate(69,202)"/>
<path d="M0 0 C0.66 0 1.32 0 2 0 C0.35739358 8.04877144 -2.86937652 15.43924894 -6 23 C-6.99 23 -7.98 23 -9 23 C-9.33 21.68 -9.66 20.36 -10 19 C-13.3 19 -16.6 19 -20 19 C-20 14.05 -20 9.1 -20 4 C-18.21142578 4.06960937 -18.21142578 4.06960937 -16.38671875 4.140625 C-14.82033753 4.17814311 -13.25392924 4.21454323 -11.6875 4.25 C-10.90181641 4.28351563 -10.11613281 4.31703125 -9.30664062 4.3515625 C-7.13381215 4.38854681 -5.13968621 4.3852005 -3 4 C-1.044354 2.11860773 -1.044354 2.11860773 0 0 Z M-19 5 C-19 9.29 -19 13.58 -19 18 C-15.7 18 -12.4 18 -9 18 C-8.67 18.66 -8.34 19.32 -8 20 C-7.16260219 17.8765984 -6.33019717 15.7512272 -5.5 13.625 C-4.80390625 11.84996094 -4.80390625 11.84996094 -4.09375 10.0390625 C-2.88712206 7.2246756 -2.88712206 7.2246756 -3 5 C-8.28 5 -13.56 5 -19 5 Z " fill="#639AAD" transform="translate(154,201)"/>
<path d="M0 0 C2.3125 1.25 2.3125 1.25 3.3125 2.25 C3.5944205 6.70178105 3.54433445 11.16535808 3.5625 15.625 C3.583125 16.883125 3.60375 18.14125 3.625 19.4375 C3.63015625 20.64148438 3.6353125 21.84546875 3.640625 23.0859375 C3.65464355 24.74955322 3.65464355 24.74955322 3.66894531 26.44677734 C3.3125 29.25 3.3125 29.25 1.95214844 31.14697266 C0.3125 32.25 0.3125 32.25 -2.25 32.0625 C-4.6875 31.25 -4.6875 31.25 -6.6875 29.25 C-7.17506262 24.78941657 -7.0579032 20.29667547 -7.0625 15.8125 C-7.08699219 14.55888672 -7.11148438 13.30527344 -7.13671875 12.01367188 C-7.14058594 10.81419922 -7.14445313 9.61472656 -7.1484375 8.37890625 C-7.15665527 7.27619385 -7.16487305 6.17348145 -7.17333984 5.03735352 C-6.6875 2.25 -6.6875 2.25 -4.82666016 0.32006836 C-2.6875 -0.75 -2.6875 -0.75 0 0 Z M-2.6875 1.25 C-6.56898523 5.78471079 -6.13580911 10.66362598 -6.0625 16.3125 C-6.07410156 17.21033203 -6.08570313 18.10816406 -6.09765625 19.03320312 C-6.10733515 24.19132764 -6.10733515 24.19132764 -4.1640625 28.87109375 C-3.67679688 29.32613281 -3.18953125 29.78117187 -2.6875 30.25 C0.43447478 28.9410428 0.43447478 28.9410428 2.3125 26.25 C2.57768877 22.98536547 2.54404074 19.71171113 2.5625 16.4375 C2.583125 15.53451172 2.60375 14.63152344 2.625 13.70117188 C2.66647302 6.97295753 2.66647302 6.97295753 -0.6875 1.25 C-1.3475 1.25 -2.0075 1.25 -2.6875 1.25 Z " fill="#33738E" transform="translate(239.6875,166.75)"/>
<path d="M0 0 C0.99 0 1.98 0 3 0 C3 5.94 3 11.88 3 18 C6.3 18 9.6 18 13 18 C13 18.99 13 19.98 13 21 C8.71 21 4.42 21 0 21 C0 14.07 0 7.14 0 0 Z " fill="#286B88" transform="translate(230,201)"/>
<path d="M0 0 C0.65742187 0.22816406 1.31484375 0.45632812 1.9921875 0.69140625 C3.3228048 0.87852431 4.6564438 1.04530928 5.9921875 1.19140625 C8.72861065 1.51303808 11.33960569 1.91773655 13.9921875 2.69140625 C11.03292163 3.67782821 9.637874 3.66821548 6.6171875 3.44140625 C2.80719609 3.37965598 2.26033792 3.46496812 -0.8203125 6.06640625 C-1.5421875 6.93265625 -2.2640625 7.79890625 -3.0078125 8.69140625 C-5.1953125 9.87890625 -5.1953125 9.87890625 -7.0078125 10.69140625 C-7.6678125 11.35140625 -8.3278125 12.01140625 -9.0078125 12.69140625 C-9.3378125 12.03140625 -9.6678125 11.37140625 -10.0078125 10.69140625 C-10.9978125 11.18640625 -10.9978125 11.18640625 -12.0078125 11.69140625 C-10.95050758 6.14055542 -8.37315609 3.95333038 -4.078125 0.6953125 C-2.0078125 -0.30859375 -2.0078125 -0.30859375 0 0 Z " fill="#6D9AAE" transform="translate(40.0078125,139.30859375)"/>
<path d="M0 0 C1.32 0.33 2.64 0.66 4 1 C4 6.61 4 12.22 4 18 C3.67 18 3.34 18 3 18 C3 12.72 3 7.44 3 2 C2.01 2 1.02 2 0 2 C0 3.65 0 5.3 0 7 C-1.98 7.99 -1.98 7.99 -4 9 C-5.04449911 5.86650268 -4.93423645 5.01031744 -4 2 C-6.31 1.67 -8.62 1.34 -11 1 C-11 2.98 -11 4.96 -11 7 C-11.33 7 -11.66 7 -12 7 C-12 4.36 -12 1.72 -12 -1 C-3.70588235 -2.38235294 -3.70588235 -2.38235294 0 0 Z " fill="#5997AB" transform="translate(128,204)"/>
<path d="M0 0 C2.63654213 4.4994271 2.05046654 8.04042029 1 13 C-0.63232771 17.19741412 -2.15728164 19.61486446 -6 22 C-6 19.09750315 -5.59447628 17.55305823 -4.625 14.875 C-3.23459664 10.87431108 -2.25142663 6.90194508 -1.4296875 2.75 C-1 1 -1 1 0 0 Z " fill="#377690" transform="translate(96,206)"/>
<path d="M0 0 C2.5 1.3125 2.5 1.3125 4 3 C4 3.99 4 4.98 4 6 C3.34 6 2.68 6 2 6 C2 8.97 2 11.94 2 15 C1.67 15 1.34 15 1 15 C0.93941406 14.28972656 0.87882813 13.57945312 0.81640625 12.84765625 C0.73261719 11.92855469 0.64882812 11.00945312 0.5625 10.0625 C0.48128906 9.14597656 0.40007812 8.22945312 0.31640625 7.28515625 C0.23955024 5.03840268 0.23955024 5.03840268 -1 4 C-3.41583753 3.66625723 -3.41583753 3.66625723 -6 4 C-7.81476003 5.39585785 -7.81476003 5.39585785 -9 7 C-9.33 6.67 -9.66 6.34 -10 6 C-10.66 6.66 -11.32 7.32 -12 8 C-11.65447612 5.44312331 -11.24912987 3.42498625 -9.9375 1.1875 C-6.80025892 -0.73532518 -3.52522071 -0.53197496 0 0 Z " fill="#49829A" transform="translate(221,201)"/>
<path d="M0 0 C1.1446875 0.3403125 1.1446875 0.3403125 2.3125 0.6875 C2 3.0625 2 3.0625 1.3125 5.6875 C-2.00121 7.89664 -3.0321021 7.91231553 -6.875 7.8125 C-7.77605469 7.79445312 -8.67710938 7.77640625 -9.60546875 7.7578125 C-10.29253906 7.73460937 -10.97960938 7.71140625 -11.6875 7.6875 C-11.6875 6.6975 -11.6875 5.7075 -11.6875 4.6875 C-10.6975 4.3575 -9.7075 4.0275 -8.6875 3.6875 C-8.0275 4.0175 -7.3675 4.3475 -6.6875 4.6875 C-6.3575 4.0275 -6.0275 3.3675 -5.6875 2.6875 C-3.76763463 0.09568175 -3.30281016 -0.38404769 0 0 Z " fill="#437E97" transform="translate(68.6875,194.3125)"/>
<path d="M0 0 C-0.33 0.99 -0.66 1.98 -1 3 C-1.99 3.33 -2.98 3.66 -4 4 C-4.72256829 8.48133574 -4.72256829 8.48133574 -5 13 C-3.35 13 -1.7 13 0 13 C-1.32 13.33 -2.64 13.66 -4 14 C-4 14.66 -4 15.32 -4 16 C-5.9375 15.625 -5.9375 15.625 -8 15 C-9.22691067 12.54617866 -9.20175931 10.80015897 -9.25 8.0625 C-9.27578125 7.18722656 -9.3015625 6.31195313 -9.328125 5.41015625 C-9 3 -9 3 -7.68359375 1.1953125 C-5.17555044 -0.58534006 -2.98539002 -0.199026 0 0 Z " fill="#3B7892" transform="translate(184,206)"/>
<path d="M0 0 C0.87527344 -0.01417969 1.75054687 -0.02835938 2.65234375 -0.04296875 C5.0625 0.1875 5.0625 0.1875 8.0625 2.1875 C4.98557254 4.8690279 2.86515337 5.60837807 -1.1875 5.875 C-2.07953125 5.94074219 -2.9715625 6.00648438 -3.890625 6.07421875 C-4.56609375 6.11160156 -5.2415625 6.14898437 -5.9375 6.1875 C-6.2675 4.5375 -6.5975 2.8875 -6.9375 1.1875 C-4.47380468 -0.04434766 -2.7480499 0.02017658 0 0 Z M0.0625 1.1875 C4.0625 2.1875 4.0625 2.1875 4.0625 2.1875 Z " fill="#50879E" transform="translate(102.9375,192.8125)"/>
<path d="M0 0 C0.66 0 1.32 0 2 0 C2 6.27 2 12.54 2 19 C5.3 19 8.6 19 12 19 C12 19.66 12 20.32 12 21 C8.04 21 4.08 21 0 21 C0 14.07 0 7.14 0 0 Z " fill="#0C5979" transform="translate(132,201)"/>
<path d="M0 0 C7.36259293 -0.22424141 13.87049629 0.09879901 21 2 C17.77551853 4.14965431 17.20069035 4.22152284 13.55078125 3.9765625 C12.70322266 3.925 11.85566406 3.8734375 10.98242188 3.8203125 C10.10134766 3.75585938 9.22027344 3.69140625 8.3125 3.625 C7.41982422 3.56828125 6.52714844 3.5115625 5.60742188 3.453125 C3.40412587 3.31173702 1.20198461 3.16034022 -1 3 C-0.67 2.01 -0.34 1.02 0 0 Z " fill="#2C6E8A" transform="translate(42,138)"/>
<path d="M0 0 C2 1.25 2 1.25 3 3 C3 4.32 3 5.64 3 7 C2.01 7 1.02 7 0 7 C-0.66 6.01 -1.32 5.02 -2 4 C-4.56282742 3.27034634 -4.56282742 3.27034634 -7 3 C-7.33 3.66 -7.66 4.32 -8 5 C-8.33 4.67 -8.66 4.34 -9 4 C-9.33 5.65 -9.66 7.3 -10 9 C-10.33 9 -10.66 9 -11 9 C-11.35555556 3.66666667 -11.35555556 3.66666667 -10 1.125 C-6.78886477 -0.68126357 -3.59069305 -0.55356518 0 0 Z " fill="#468099" transform="translate(203,201)"/>
<path d="M0 0 C1.32 0.33 2.64 0.66 4 1 C3.34 7.27 2.68 13.54 2 20 C1.34 20 0.68 20 0 20 C0 13.4 0 6.8 0 0 Z " fill="#0B5778" transform="translate(159,207)"/>
<path d="M0 0 C0.66 0.33 1.32 0.66 2 1 C1.34 1.66 0.68 2.32 0 3 C0 3.99 0 4.98 0 6 C-1.27754554 8.0360882 -2.60699818 10.04109119 -4 12 C-4.66 11.34 -5.32 10.68 -6 10 C-6.99 10.495 -6.99 10.495 -8 11 C-6.68206814 5.33289301 -4.51290803 3.33562767 0 0 Z " fill="#5B8FA4" transform="translate(36,140)"/>
<path d="M0 0 C0.33 0.99 0.66 1.98 1 3 C2.90178785 3.60061233 2.90178785 3.60061233 5 4 C5.99 4.66 6.98 5.32 8 6 C3.71 6 -0.58 6 -5 6 C-3.86695008 2.60085025 -2.87481525 1.94745549 0 0 Z " fill="#1D6684" transform="translate(105,187)"/>
<path d="M0 0 C0.66 0 1.32 0 2 0 C2.33 6.6 2.66 13.2 3 20 C2.01 20.33 1.02 20.66 0 21 C-0.33 18.03 -0.66 15.06 -1 12 C-0.67 12 -0.34 12 0 12 C0 8.04 0 4.08 0 0 Z " fill="#6D9BAE" transform="translate(69,202)"/>
<path d="M0 0 C0.33 0 0.66 0 1 0 C1.19622241 4.21878192 0.80230168 7.17010894 -1 11 C-2.32 11 -3.64 11 -5 11 C-4.34 8.69 -3.68 6.38 -3 4 C-2.34 4 -1.68 4 -1 4 C-0.67 2.68 -0.34 1.36 0 0 Z " fill="#206784" transform="translate(113,166)"/>
<path d="M0 0 C1.32 0 2.64 0 4 0 C4.33 0.99 4.66 1.98 5 3 C6.65 3.33 8.3 3.66 10 4 C8.68 4.33 7.36 4.66 6 5 C6 5.66 6 6.32 6 7 C3.5625 6.3125 3.5625 6.3125 1 5 C0.1875 2.375 0.1875 2.375 0 0 Z " fill="#6696AA" transform="translate(191,215)"/>
<path d="M0 0 C0.66 0.33 1.32 0.66 2 1 C1.67 1.33 1.34 1.66 1 2 C1.66 2.33 2.32 2.66 3 3 C2.67 3.66 2.34 4.32 2 5 C0.35 5 -1.3 5 -3 5 C-3.33 5.66 -3.66 6.32 -4 7 C-4.99 6.34 -5.98 5.68 -7 5 C-7.66 4.67 -8.32 4.34 -9 4 C-7.54618103 3.30300448 -6.08677047 2.61766134 -4.625 1.9375 C-3.40683594 1.36322266 -3.40683594 1.36322266 -2.1640625 0.77734375 C-1.44992188 0.52082031 -0.73578125 0.26429688 0 0 Z " fill="#6595AA" transform="translate(64,139)"/>
<path d="M0 0 C1.9453125 -0.29296875 1.9453125 -0.29296875 4.125 -0.1875 C5.40375 -0.125625 6.6825 -0.06375 8 0 C8.33 0.99 8.66 1.98 9 3 C5.37 3 1.74 3 -2 3 C-1.34 2.01 -0.68 1.02 0 0 Z " fill="#165F7E" transform="translate(85,137)"/>
<path d="M0 0 C2.3125 1.375 2.3125 1.375 3.3125 4.375 C2.6525 5.035 1.9925 5.695 1.3125 6.375 C0.6525 5.055 -0.0075 3.735 -0.6875 2.375 C-3.96523504 3.12650023 -3.96523504 3.12650023 -5.6875 6.375 C-6.0175 5.055 -6.3475 3.735 -6.6875 2.375 C-3.40003602 -0.79070605 -3.40003602 -0.79070605 0 0 Z " fill="#87ACBC" transform="translate(239.6875,166.625)"/>
<path d="M0 0 C0.33 1.98 0.66 3.96 1 6 C0.01 6 -0.98 6 -2 6 C-2.66 5.01 -3.32 4.02 -4 3 C-6.05003955 1.80767387 -6.05003955 1.80767387 -8 1 C-5.10765685 0.17361624 -3.11257569 0 0 0 Z " fill="#6092A7" transform="translate(205,202)"/>
<path d="M0 0 C0.99 0.66 1.98 1.32 3 2 C3 2.99 3 3.98 3 5 C2.34 5 1.68 5 1 5 C1 7.97 1 10.94 1 14 C0.67 14 0.34 14 0 14 C-0.06058594 13.30132812 -0.12117187 12.60265625 -0.18359375 11.8828125 C-0.26738281 10.97273437 -0.35117188 10.06265625 -0.4375 9.125 C-0.51871094 8.22007812 -0.59992188 7.31515625 -0.68359375 6.3828125 C-0.86989285 3.98889139 -0.86989285 3.98889139 -2 2 C-1.34 2 -0.68 2 0 2 C0 1.34 0 0.68 0 0 Z " fill="#719DB0" transform="translate(222,202)"/>
<path d="M0 0 C0 2.62113708 -0.31292445 4.50935112 -1 7 C-2.65 7.33 -4.3 7.66 -6 8 C-6 6.68 -6 5.36 -6 4 C-3.5625 2.3125 -3.5625 2.3125 -1 1 C-0.67 0.67 -0.34 0.34 0 0 Z " fill="#6394A8" transform="translate(91,222)"/>
<path d="M0 0 C2.31 0.33 4.62 0.66 7 1 C6.34 2.32 5.68 3.64 5 5 C5 4.34 5 3.68 5 3 C3.02 3.99 3.02 3.99 1 5 C0.67 3.35 0.34 1.7 0 0 Z " fill="#709DB0" transform="translate(61,163)"/>
<path d="M0 0 C3 3.625 3 3.625 3 7 C1.68 7 0.36 7 -1 7 C-1.04254356 5.00045254 -1.04080783 2.99958364 -1 1 C-0.67 0.67 -0.34 0.34 0 0 Z " fill="#2B6E8A" transform="translate(194,204)"/>
<path d="M0 0 C0.33 0 0.66 0 1 0 C1.22245393 1.60226955 1.42746669 3.20696767 1.625 4.8125 C1.74101563 5.70582031 1.85703125 6.59914062 1.9765625 7.51953125 C2 10 2 10 0 13 C-0.66 13 -1.32 13 -2 13 C-1.34 8.71 -0.68 4.42 0 0 Z " fill="#82A9BA" transform="translate(100,177)"/>
<path d="M0 0 C2.875 0.3125 2.875 0.3125 6 1 C6.66 1.99 7.32 2.98 8 4 C5.36 4 2.72 4 0 4 C0 2.68 0 1.36 0 0 Z " fill="#709DB0" transform="translate(177,224)"/>
<path d="M0 0 C0.94875 0.04125 1.8975 0.0825 2.875 0.125 C2.545 1.115 2.215 2.105 1.875 3.125 C0.885 3.455 -0.105 3.785 -1.125 4.125 C-1.785 4.785 -2.445 5.445 -3.125 6.125 C-3.125 5.135 -3.125 4.145 -3.125 3.125 C-3.785 2.795 -4.445 2.465 -5.125 2.125 C-3.125 0.125 -3.125 0.125 0 0 Z " fill="#6796AA" transform="translate(181.125,205.875)"/>
<path d="M0 0 C0.33 0.99 0.66 1.98 1 3 C-0.95216435 4.95216435 -2.53199953 5.84826645 -5 7 C-4.1875 4.0625 -4.1875 4.0625 -3 1 C-2.01 0.67 -1.02 0.34 0 0 Z " fill="#367690" transform="translate(107,183)"/>
<path d="M0 0 C0.99 0.99 1.98 1.98 3 3 C2.67 3.99 2.34 4.98 2 6 C0.68 5.34 -0.64 4.68 -2 4 C-1 1 -1 1 0 0 Z " fill="#5C8FA4" transform="translate(224,218)"/>
<path d="M0 0 C2.05078125 0.03255208 4.1015625 0.06510417 6.15234375 0.09765625 C5.82234375 1.41765625 5.49234375 2.73765625 5.15234375 4.09765625 C5.15234375 3.10765625 5.15234375 2.11765625 5.15234375 1.09765625 C2.6796761 1.44210506 2.6796761 1.44210506 0.15234375 2.09765625 C-0.17765625 2.75765625 -0.50765625 3.41765625 -0.84765625 4.09765625 C-0.84765625 3.43765625 -0.84765625 2.77765625 -0.84765625 2.09765625 C-1.50765625 1.76765625 -2.16765625 1.43765625 -2.84765625 1.09765625 C-1.84765625 0.09765625 -1.84765625 0.09765625 0 0 Z " fill="#79A3B4" transform="translate(92.84765625,162.90234375)"/>
<path d="M0 0 C0.33 0.66 0.66 1.32 1 2 C1.66 2 2.32 2 3 2 C2.34 3.65 1.68 5.3 1 7 C0.34 7 -0.32 7 -1 7 C-0.67 4.69 -0.34 2.38 0 0 Z " fill="#4C849C" transform="translate(147,216)"/>
</svg>
