<?xml version="1.0" encoding="UTF-8"?>
<svg version="1.1" xmlns="http://www.w3.org/2000/svg" width="176" height="178">
<path d="M0 0 C2.59548318 0.00315221 5.18981356 -0.02035904 7.78515625 -0.0456543 C39.07682547 -0.16301013 39.07682547 -0.16301013 48.86328125 7.31567383 C55.39521549 14.61140965 54.44259787 23.7570727 54.17578125 32.87817383 C54.15065485 34.37878751 54.12784936 35.87944195 54.10742188 37.38012695 C54.05279772 41.02616751 53.96676961 44.67065454 53.86328125 48.31567383 C43.81080117 55.9163295 28.6137095 53.38853335 16.60162354 52.90673828 C5.5376141 52.46883866 -5.44913147 52.15223688 -16.51171875 52.81567383 C-37.92342743 54.06965677 -37.92342743 54.06965677 -47.13671875 48.31567383 C-47.23633604 43.90492679 -47.30853544 39.49479287 -47.35644531 35.08325195 C-47.37643794 33.58573993 -47.40364174 32.08830475 -47.43847656 30.59106445 C-47.82914511 13.35568733 -47.82914511 13.35568733 -41.44921875 6.50317383 C-28.65874694 -0.06490629 -14.04155699 -0.03552493 0 0 Z M-20.13671875 23.31567383 C-20.46671875 23.97567383 -20.79671875 24.63567383 -21.13671875 25.31567383 C-4.75622109 28.09539464 11.49400041 28.35103716 27.86328125 25.31567383 C24.70602506 23.21083637 23.98953514 23.06846792 20.3918457 23.08862305 C19.49113846 23.08877411 18.59043121 23.08892517 17.66242981 23.08908081 C16.6935936 23.09940338 15.72475739 23.10972595 14.7265625 23.12036133 C13.73198532 23.12319122 12.73740814 23.12602112 11.71269226 23.12893677 C8.53359995 23.14013894 5.35478853 23.16524369 2.17578125 23.19067383 C0.02148844 23.20070358 -2.13280878 23.20982943 -4.28710938 23.21801758 C-9.57040847 23.24007837 -14.85354354 23.27355627 -20.13671875 23.31567383 Z " fill="#FC8B83" transform="translate(86.13671875,28.684326171875)"/>
<path d="M0 0 C2.87626095 0.49569604 5.10004519 1.51385527 7.625 2.9375 C12.26668094 5.3099147 16.86046974 6.29662255 22 7 C22.62253662 7.08757568 23.24507324 7.17515137 23.88647461 7.26538086 C31.99185121 8.24777108 40.12367748 8.18609135 48.27563477 8.18530273 C50.79655939 8.18748619 53.31704318 8.20568889 55.83789062 8.22460938 C64.15358957 8.2522837 72.01354288 7.88471729 80.22729492 6.4206543 C84.13937285 5.82714278 87.82503808 5.95037554 91.75 6.3125 C92.79414063 6.38500977 92.79414063 6.38500977 93.859375 6.45898438 C98.84350198 6.84350198 98.84350198 6.84350198 100 8 C100.30743828 11.40768826 100.27843776 14.83015122 100.3125 18.25 C100.35600586 19.68279297 100.35600586 19.68279297 100.40039062 21.14453125 C100.43917381 25.43454765 100.42546448 28.2294035 98.32421875 32.03515625 C82.98203177 45.00510592 49.82585231 41.97438634 31.16015625 40.7265625 C23.96185836 40.095788 17.10924837 38.69482732 10.1875 36.625 C9.19061157 36.3297644 9.19061157 36.3297644 8.17358398 36.02856445 C4.13846983 34.71006746 1.61442927 33.34603478 -1 30 C-1.4699707 26.8996582 -1.4699707 26.8996582 -1.42578125 23.30078125 C-1.41740234 22.00978516 -1.40902344 20.71878906 -1.40039062 19.38867188 C-1.38596924 18.7202124 -1.37154785 18.05175293 -1.35668945 17.36303711 C-1.31242096 15.3088322 -1.29522421 13.25579581 -1.28320312 11.20117188 C-1.16764422 1.16764422 -1.16764422 1.16764422 0 0 Z " fill="#FC8A81" transform="translate(40,116)"/>
<path d="M0 0 C2.59548318 0.00315221 5.18981356 -0.02035904 7.78515625 -0.0456543 C39.07682547 -0.16301013 39.07682547 -0.16301013 48.86328125 7.31567383 C55.39521549 14.61140965 54.44259787 23.7570727 54.17578125 32.87817383 C54.15065485 34.37878751 54.12784936 35.87944195 54.10742188 37.38012695 C54.05279772 41.02616751 53.96676961 44.67065454 53.86328125 48.31567383 C53.53328125 48.31567383 53.20328125 48.31567383 52.86328125 48.31567383 C52.86328125 38.41567383 52.86328125 28.51567383 52.86328125 18.31567383 C48.40828125 20.79067383 48.40828125 20.79067383 43.86328125 23.31567383 C41.05664062 24.25048828 41.05664062 24.25048828 38.70703125 24.67895508 C37.39025391 24.92548828 37.39025391 24.92548828 36.046875 25.17700195 C34.71849609 25.40033203 34.71849609 25.40033203 33.36328125 25.62817383 C32.47769531 25.79639648 31.59210938 25.96461914 30.6796875 26.13793945 C24.9943362 27.1606348 19.63670217 27.47409087 13.86328125 27.31567383 C13.86328125 26.98567383 13.86328125 26.65567383 13.86328125 26.31567383 C19.30828125 25.32567383 19.30828125 25.32567383 24.86328125 24.31567383 C10.01328125 24.31567383 -4.83671875 24.31567383 -20.13671875 24.31567383 C-15.51671875 24.97567383 -10.89671875 25.63567383 -6.13671875 26.31567383 C-6.13671875 26.64567383 -6.13671875 26.97567383 -6.13671875 27.31567383 C-18.45831646 28.02051099 -32.11039905 26.1600965 -43.13671875 20.31567383 C-43.79671875 19.65567383 -44.45671875 18.99567383 -45.13671875 18.31567383 C-45.46671875 28.21567383 -45.79671875 38.11567383 -46.13671875 48.31567383 C-46.46671875 48.31567383 -46.79671875 48.31567383 -47.13671875 48.31567383 C-47.23633604 43.90492679 -47.30853544 39.49479287 -47.35644531 35.08325195 C-47.37643794 33.58573993 -47.40364174 32.08830475 -47.43847656 30.59106445 C-47.82914511 13.35568733 -47.82914511 13.35568733 -41.44921875 6.50317383 C-28.65874694 -0.06490629 -14.04155699 -0.03552493 0 0 Z " fill="#F2928B" transform="translate(86.13671875,28.684326171875)"/>
<path d="M0 0 C1.19496094 -0.020625 2.38992187 -0.04125 3.62109375 -0.0625 C12.61364431 -0.10147097 22.67742455 0.11828303 30.375 5.25 C30.3125 7.0625 30.3125 7.0625 29.375 9.25 C20.56977271 14.2268676 9.96262432 14.61880323 0.0625 14.5625 C-0.93499268 14.55903564 -1.93248535 14.55557129 -2.96020508 14.55200195 C-22.56563209 14.26478364 -22.56563209 14.26478364 -29.625 8.25 C-29.3515625 6.35546875 -29.3515625 6.35546875 -28.625 4.25 C-19.32964838 -0.07714644 -10.10010138 0.04275175 0 0 Z " fill="#FDF8F6" transform="translate(89.625,32.75)"/>
<path d="M0 0 C-2.475 1.485 -2.475 1.485 -5 3 C-4.84624461 5.43993749 -4.84624461 5.43993749 -4 8 C13.76383085 19.87844043 46.999703 16.51415197 67 13 C73.20660703 11.75867859 78.71349941 10.61611325 84 7 C85.32793606 4.93299345 85.32793606 4.93299345 86 3 C89.37399163 8.15730382 90.49202605 11.37137818 90.390625 17.68359375 C90.38496521 18.38396255 90.37930542 19.08433136 90.37347412 19.80592346 C90.3512922 22.01717945 90.30113806 24.22674373 90.25 26.4375 C90.22991115 27.94724203 90.21166458 29.45700975 90.1953125 30.96679688 C90.15148947 34.64506999 90.08259341 38.32236956 90 42 C89.67 42 89.34 42 89 42 C89 32.1 89 22.2 89 12 C86.03 13.65 83.06 15.3 80 17 C77.19335937 17.93481445 77.19335937 17.93481445 74.84375 18.36328125 C73.52697266 18.60981445 73.52697266 18.60981445 72.18359375 18.86132812 C70.85521484 19.0846582 70.85521484 19.0846582 69.5 19.3125 C68.61441406 19.48072266 67.72882813 19.64894531 66.81640625 19.82226562 C61.13105495 20.84496098 55.77342092 21.15841704 50 21 C50 20.67 50 20.34 50 20 C55.445 19.01 55.445 19.01 61 18 C46.15 18 31.3 18 16 18 C20.62 18.66 25.24 19.32 30 20 C30 20.33 30 20.66 30 21 C17.67840229 21.70483716 4.0263197 19.84442267 -7 14 C-7.66 13.34 -8.32 12.68 -9 12 C-9.33 21.9 -9.66 31.8 -10 42 C-10.33 42 -10.66 42 -11 42 C-11.09961729 37.58925296 -11.17181669 33.17911905 -11.21972656 28.76757812 C-11.23971919 27.2700661 -11.26692299 25.77263092 -11.30175781 24.27539062 C-11.65210111 8.81906872 -11.65210111 8.81906872 -7 2 C-3.75 -1.25 -3.75 -1.25 0 0 Z " fill="#FDF1EE" transform="translate(50,35)"/>
<path d="M0 0 C3.68416439 3.45390411 3.93001139 6.93267373 4.25 11.8125 C4.17570104 16.22916052 3.22260146 19.16792852 1 23 C-1.6875 24.4375 -1.6875 24.4375 -4 25 C-4 25.66 -4 26.32 -4 27 C-1.36 27 1.28 27 4 27 C4.33 28.32 4.66 29.64 5 31 C1.27538833 33.48307445 -1.69126127 33.40828774 -6 33 C-8.4375 32.3125 -8.4375 32.3125 -10 31 C-10.2165625 29.7625 -10.2165625 29.7625 -10.4375 28.5 C-10.623125 27.675 -10.80875 26.85 -11 26 C-13.39068734 24.89363605 -13.39068734 24.89363605 -16 24 C-19.93889876 19.77975133 -20.30341431 15.7104353 -20.21875 10.02734375 C-19.77380437 5.90365123 -18.04820612 2.98057992 -15.0625 0.1875 C-9.93134973 -2.76679864 -5.40970376 -1.9195723 0 0 Z M-11.75 5.5 C-13.51282743 9.02565486 -13.48424095 12.12607243 -13 16 C-12.13734032 18.40557853 -12.13734032 18.40557853 -11 20 C-8.3335118 20.21620175 -6.55995679 20.30894168 -4.1875 19 C-2.28992232 15.8040797 -2.48659341 12.56609439 -3 9 C-4.0636649 5.99879395 -4.0636649 5.99879395 -6 4 C-9.87797662 3.56613908 -9.87797662 3.56613908 -11.75 5.5 Z " fill="#DC5E4D" transform="translate(136,86)"/>
<path d="M0 0 C2.87626095 0.49569604 5.10004519 1.51385527 7.625 2.9375 C12.26668094 5.3099147 16.86046974 6.29662255 22 7 C22.62253662 7.08757568 23.24507324 7.17515137 23.88647461 7.26538086 C31.99185121 8.24777108 40.12367748 8.18609135 48.27563477 8.18530273 C50.79655939 8.18748619 53.31704318 8.20568889 55.83789062 8.22460938 C64.15358957 8.2522837 72.01354288 7.88471729 80.22729492 6.4206543 C84.13937285 5.82714278 87.82503808 5.95037554 91.75 6.3125 C92.79414063 6.38500977 92.79414063 6.38500977 93.859375 6.45898438 C98.84350198 6.84350198 98.84350198 6.84350198 100 8 C100.30743828 11.40768826 100.27843776 14.83015122 100.3125 18.25 C100.35600586 19.68279297 100.35600586 19.68279297 100.40039062 21.14453125 C100.43978017 25.50162082 100.44759246 28.22733487 98.23046875 32.0546875 C96.13415679 33.88299461 94.60796332 34.96832525 92 35.875 C91.34 36.11992187 90.68 36.36484375 90 36.6171875 C87.69057943 37.05922503 86.21563994 36.72206123 84 36 C84.99 35.67 85.98 35.34 87 35 C87.495 34.01 87.495 34.01 88 33 C90.3140622 32.26924352 92.64828869 31.59861742 95 31 C95 30.01 95 29.02 95 28 C95.66 28 96.32 28 97 28 C97 21.73 97 15.46 97 9 C94.23625 8.979375 91.4725 8.95875 88.625 8.9375 C87.75568848 8.928396 86.88637695 8.91929199 85.99072266 8.90991211 C81.8643644 8.7857673 81.8643644 8.7857673 78 10 C76.60142127 10.10942084 75.19790303 10.15899441 73.79516602 10.17700195 C72.92061768 10.18967102 72.04606934 10.20234009 71.14501953 10.21539307 C70.19095215 10.22294617 69.23688477 10.23049927 68.25390625 10.23828125 C66.7675769 10.25263214 66.7675769 10.25263214 65.2512207 10.26727295 C62.02161567 10.29202402 58.79218828 10.30442645 55.5625 10.3125 C53.93004837 10.31792313 53.93004837 10.31792313 52.26461792 10.32345581 C35.77503005 10.34558006 19.07254177 10.22126647 3 6 C2.67 5.67 2.34 5.34 2 5 C1.88345564 8.5622231 1.8126361 12.12395342 1.75 15.6875 C1.71648438 16.69490234 1.68296875 17.70230469 1.6484375 18.74023438 C1.59084745 23.10268034 1.55899066 26.14520413 3.58203125 30.06640625 C6.62482283 32.49965638 9.1572015 33.31385053 12.9375 34.25 C13.92133667 34.49520386 13.92133667 34.49520386 14.92504883 34.74536133 C20.34581382 36.02110414 25.72820625 36.57922921 31.29296875 36.82421875 C34 37 34 37 35.67993164 37.49121094 C39.04029262 38.22813531 42.4023921 38.23722572 45.828125 38.31640625 C46.95163361 38.3475779 46.95163361 38.3475779 48.09783936 38.37937927 C50.48180288 38.44457088 52.86587312 38.50361783 55.25 38.5625 C56.86980254 38.60571416 58.48959443 38.64932937 60.109375 38.69335938 C64.07280832 38.80022096 68.0363486 38.90157333 72 39 C72 39.33 72 39.66 72 40 C51.55129381 42.19111291 30.04673522 42.5635556 10.1875 36.625 C9.19061157 36.3297644 9.19061157 36.3297644 8.17358398 36.02856445 C4.13846983 34.71006746 1.61442927 33.34603478 -1 30 C-1.4699707 26.8996582 -1.4699707 26.8996582 -1.42578125 23.30078125 C-1.41740234 22.00978516 -1.40902344 20.71878906 -1.40039062 19.38867188 C-1.38596924 18.7202124 -1.37154785 18.05175293 -1.35668945 17.36303711 C-1.31242096 15.3088322 -1.29522421 13.25579581 -1.28320312 11.20117188 C-1.16764422 1.16764422 -1.16764422 1.16764422 0 0 Z " fill="#F7CBC5" transform="translate(40,116)"/>
<path d="M0 0 C0.33 1.65 0.66 3.3 1 5 C-2.73437848 5.87867729 -6.16774573 6.08912219 -10 6 C-10 6.66 -10 7.32 -10 8 C-9.30132812 8.25394531 -8.60265625 8.50789063 -7.8828125 8.76953125 C-6.51769531 9.28580078 -6.51769531 9.28580078 -5.125 9.8125 C-4.22007813 10.14894531 -3.31515625 10.48539063 -2.3828125 10.83203125 C0 12 0 12 2 15 C2.39274738 18.09288558 2.63577985 20.04689172 2 23 C-0.9852983 26.41176949 -2.72180694 26.89309658 -7.22265625 27.26953125 C-16.24121622 27.37939189 -16.24121622 27.37939189 -19 26 C-19 24.35 -19 22.7 -19 21 C-15.73086376 19.96884721 -13.13958652 20.0361016 -9.75 20.4375 C-8.85796875 20.53933594 -7.9659375 20.64117187 -7.046875 20.74609375 C-6.37140625 20.82988281 -5.6959375 20.91367188 -5 21 C-5.68273194 17.86189693 -5.68273194 17.86189693 -8.21484375 16.68359375 C-9.11332031 16.27238281 -10.01179688 15.86117187 -10.9375 15.4375 C-15.81550802 13.18449198 -15.81550802 13.18449198 -18 11 C-18.43379255 7.09586703 -18.62596319 4.88098522 -16.3125 1.625 C-11.13318367 -2.01451959 -5.94845173 -0.84237334 0 0 Z " fill="#E26655" transform="translate(111,85)"/>
<path d="M0 0 C4.44654632 0.06361297 8.2361408 0.4137032 12.375 2.1875 C14.70287996 4.89084447 15.29942779 6.66929056 15.8125 10.1875 C15.25824529 13.98810375 14.11240012 15.52408366 11.375 18.1875 C7.9475859 20.03303067 5.23994842 20.4083542 1.375 20.1875 C1.395625 21.321875 1.41625 22.45625 1.4375 23.625 C1.375 27.1875 1.375 27.1875 0.375 28.1875 C-2.125 28.3125 -2.125 28.3125 -4.625 28.1875 C-6.39949594 26.41300406 -5.75530072 23.83732739 -5.7578125 21.4375 C-5.75910156 20.2721875 -5.76039062 19.106875 -5.76171875 17.90625 C-5.75785156 16.6790625 -5.75398438 15.451875 -5.75 14.1875 C-5.75386719 12.9603125 -5.75773437 11.733125 -5.76171875 10.46875 C-5.76042969 9.3034375 -5.75914063 8.138125 -5.7578125 6.9375 C-5.75668457 5.85984375 -5.75555664 4.7821875 -5.75439453 3.671875 C-5.53305089 -0.57792296 -3.81231312 0.02879391 0 0 Z M2.375 6.1875 C0.95922523 7.37174326 0.95922523 7.37174326 1.3125 10.75 C1.333125 11.884375 1.35375 13.01875 1.375 14.1875 C3.355 13.8575 5.335 13.5275 7.375 13.1875 C7.705 11.5375 8.035 9.8875 8.375 8.1875 C5.55990007 5.9101499 5.55990007 5.9101499 2.375 6.1875 Z " fill="#F4A99C" transform="translate(26.625,83.8125)"/>
<path d="M0 0 C2.56898233 0.01607898 5.13638719 0.00005328 7.70532227 -0.01904297 C21.74174192 -0.03708863 36.00097468 0.72850132 48.63696289 7.39111328 C48.63696289 8.05111328 48.63696289 8.71111328 48.63696289 9.39111328 C47.64696289 9.39111328 46.65696289 9.39111328 45.63696289 9.39111328 C45.63696289 8.73111328 45.63696289 8.07111328 45.63696289 7.39111328 C39.69407281 7.02694542 39.69407281 7.02694542 34.07446289 8.57861328 C30.72135043 9.69631744 28.92964801 8.63686977 25.79711914 7.21533203 C21.10498417 5.42502375 16.28668079 5.26353611 11.31274414 5.25830078 C10.11842773 5.25701172 8.92411133 5.25572266 7.69360352 5.25439453 C5.84025391 5.26019531 5.84025391 5.26019531 3.94946289 5.26611328 C2.73323242 5.26224609 1.51700195 5.25837891 0.26391602 5.25439453 C-7.00142942 5.26219415 -14.14241311 5.57780887 -21.36303711 6.39111328 C-21.69303711 5.73111328 -22.02303711 5.07111328 -22.36303711 4.39111328 C-26.98303711 4.72111328 -31.60303711 5.05111328 -36.36303711 5.39111328 C-26.59972222 -1.11776331 -11.32938193 -0.08400911 0 0 Z " fill="#F4AAA4" transform="translate(86.363037109375,28.60888671875)"/>
<path d="M0 0 C4.29 0 8.58 0 13 0 C13.33 0.99 13.66 1.98 14 3 C15.48011371 2.69201674 16.95907325 2.378482 18.4375 2.0625 C19.67306641 1.80146484 19.67306641 1.80146484 20.93359375 1.53515625 C22.97661204 1.19247006 22.97661204 1.19247006 24 0 C25.44289787 -0.09295815 26.89029785 -0.11746513 28.33618164 -0.11352539 C29.71750023 -0.11341209 29.71750023 -0.11341209 31.12672424 -0.11329651 C32.12775681 -0.10813522 33.12878937 -0.10297394 34.16015625 -0.09765625 C35.17975937 -0.0962413 36.19936249 -0.09482635 37.24986267 -0.09336853 C40.52077107 -0.08775097 43.79161213 -0.0751955 47.0625 -0.0625 C49.27408756 -0.05748726 51.48567618 -0.05292396 53.69726562 -0.04882812 C59.13153357 -0.03777584 64.56576197 -0.02102063 70 0 C70 0.99 70 1.98 70 3 C61.1000996 5.25230895 52.12935211 5.68091585 43 6 C42.28279785 6.02868164 41.5655957 6.05736328 40.82666016 6.08691406 C31.46291979 6.42277581 22.35807053 5.88183076 13.0625 4.6875 C12.10835205 4.56987305 11.1542041 4.45224609 10.17114258 4.33105469 C9.28064209 4.20504883 8.3901416 4.07904297 7.47265625 3.94921875 C6.68125244 3.83924561 5.88984863 3.72927246 5.07446289 3.6159668 C3 3 3 3 0 0 Z " fill="#EFC8C3" transform="translate(52,116)"/>
<path d="M0 0 C2.375 -0.125 2.375 -0.125 5 0 C7 2 7 2 7.23046875 4.5390625 C7.1482659 10.44272175 6.89817936 16.16183418 6 22 C9.63 22 13.26 22 17 22 C17.33 23.65 17.66 25.3 18 27 C15.95733571 29.04266429 11.86308566 28.18507944 9.0625 28.1875 C8.32064453 28.19974609 7.57878906 28.21199219 6.81445312 28.22460938 C4.87486371 28.22988478 2.9357629 28.12188902 1 28 C-1 26 -1 26 -1.24291992 23.6015625 C-1.23881104 22.61929688 -1.23470215 21.63703125 -1.23046875 20.625 C-1.22853516 19.55765625 -1.22660156 18.4903125 -1.22460938 17.390625 C-1.21236328 16.27171875 -1.20011719 15.1528125 -1.1875 14 C-1.18685547 12.88109375 -1.18621094 11.7621875 -1.18554688 10.609375 C-1.14028159 2.28056319 -1.14028159 2.28056319 0 0 Z " fill="#E6897D" transform="translate(144,84)"/>
<path d="M0 0 C1.98 0 3.96 0 6 0 C7.19600901 4.49167828 6.9185704 8.73269793 6.5625 13.3125 C6.51029297 14.05306641 6.45808594 14.79363281 6.40429688 15.55664062 C6.27549848 17.37152709 6.13856738 19.18583325 6 21 C6.77085938 20.97679688 7.54171875 20.95359375 8.3359375 20.9296875 C9.33882812 20.91164063 10.34171875 20.89359375 11.375 20.875 C12.37273438 20.85179688 13.37046875 20.82859375 14.3984375 20.8046875 C17 21 17 21 19 23 C18.34 24.32 17.68 25.64 17 27 C14.18743719 27.02684312 11.37512759 27.04676188 8.5625 27.0625 C7.76005859 27.07087891 6.95761719 27.07925781 6.13085938 27.08789062 C4.08704779 27.0965143 2.04316098 27.0522815 0 27 C-1.60134536 25.39865464 -1.12985045 23.6974469 -1.1328125 21.484375 C-1.13410156 20.56269531 -1.13539062 19.64101562 -1.13671875 18.69140625 C-1.13285156 17.72074219 -1.12898438 16.75007813 -1.125 15.75 C-1.12886719 14.79480469 -1.13273437 13.83960937 -1.13671875 12.85546875 C-1.13542969 11.92863281 -1.13414063 11.00179687 -1.1328125 10.046875 C-1.13168457 9.19963867 -1.13055664 8.35240234 -1.12939453 7.47949219 C-0.99493065 4.90285976 -0.56590028 2.51423818 0 0 Z " fill="#E24B37" transform="translate(47,85)"/>
<path d="M0 0 C1.299375 0.309375 1.299375 0.309375 2.625 0.625 C1.31743965 5.62449546 -0.391747 10.20792445 -2.625 14.875 C-2.92929932 15.51961182 -3.23359863 16.16422363 -3.54711914 16.82836914 C-6.27502686 22.54529949 -9.24830868 28.11606768 -12.375 33.625 C-14.025 33.625 -15.675 33.625 -17.375 33.625 C-18.375 31.625 -18.375 31.625 -17.75756836 29.62890625 C-17.24141968 28.42041016 -17.24141968 28.42041016 -16.71484375 27.1875 C-16.33626221 26.29635498 -15.95768066 25.40520996 -15.56762695 24.48706055 C-15.15343506 23.54258057 -14.73924316 22.59810059 -14.3125 21.625 C-13.89637451 20.67343018 -13.48024902 19.72186035 -13.05151367 18.74145508 C-5.16486336 0.95645618 -5.16486336 0.95645618 0 0 Z " fill="#E37669" transform="translate(86.375,82.375)"/>
<path d="M0 0 C3.68416439 3.45390411 3.93001139 6.93267373 4.25 11.8125 C4.17570104 16.22916052 3.22260146 19.16792852 1 23 C-1.6875 24.4375 -1.6875 24.4375 -4 25 C-4 25.66 -4 26.32 -4 27 C-1.36 27 1.28 27 4 27 C4.33 28.32 4.66 29.64 5 31 C1.29598872 33.46934085 -1.70587865 33.44928433 -6 33 C-8.5 32 -8.5 32 -10 31 C-9 29 -9 29 -6 27 C-6 26.01 -6 25.02 -6 24 C-6.66 23.67 -7.32 23.34 -8 23 C-6.88625 22.896875 -5.7725 22.79375 -4.625 22.6875 C-3.42875 22.460625 -2.2325 22.23375 -1 22 C1.42130331 18.36804504 1.21022785 16.61650652 1.125 12.3125 C1.09792969 10.54326172 1.09792969 10.54326172 1.0703125 8.73828125 C1.04710937 7.83464844 1.02390625 6.93101563 1 6 C0.34 5.67 -0.32 5.34 -1 5 C-1 4.01 -1 3.02 -1 2 C-1.66 2 -2.32 2 -3 2 C-2.649375 2.639375 -2.29875 3.27875 -1.9375 3.9375 C-0.65009387 8.1430267 -1.3091153 11.71464763 -2 16 C-2.33 16 -2.66 16 -3 16 C-3.66 12.7 -4.32 9.4 -5 6 C-6.65 5.67 -8.3 5.34 -10 5 C-11.8354799 6.33378575 -11.8354799 6.33378575 -13 8 C-13 6.35 -13 4.7 -13 3 C-9.535 2.505 -9.535 2.505 -6 2 C-8.31 1.34 -10.62 0.68 -13 0 C-8.42309239 -2.77325154 -4.84021206 -1.80015477 0 0 Z " fill="#DE8374" transform="translate(136,86)"/>
<path d="M0 0 C0 10.23 0 20.46 0 31 C-1.98 31.66 -3.96 32.32 -6 33 C-5.67 31.68 -5.34 30.36 -5 29 C-4.01 29 -3.02 29 -2 29 C-2 20.42 -2 11.84 -2 3 C-2.66 3 -3.32 3 -4 3 C-4 3.66 -4 4.32 -4 5 C-5.83072917 5.45768229 -7.66145833 5.91536458 -9.4921875 6.37304688 C-10.60980469 6.65245117 -10.60980469 6.65245117 -11.75 6.9375 C-13.85904948 7.46476237 -15.96809896 7.99202474 -18.07714844 8.51928711 C-19.39117841 8.8477946 -20.70208813 9.18897453 -22.01000977 9.54101562 C-25.35456351 10.3124254 -28.76975198 10.3861516 -32.1875 10.5625 C-32.98051514 10.6042334 -33.77353027 10.6459668 -34.59057617 10.68896484 C-60.51637197 11.94762331 -60.51637197 11.94762331 -72 10 C-72.66 9.34 -73.32 8.68 -74 8 C-72.16562378 8.0314209 -72.16562378 8.0314209 -70.29418945 8.06347656 C-65.64782981 8.13725068 -61.00151865 8.18228573 -56.35473633 8.21972656 C-54.36408719 8.23953561 -52.37349369 8.26659049 -50.38305664 8.30175781 C-39.57189975 8.48763864 -29.13606653 8.21404102 -18.48046875 6.234375 C-17.62769852 6.07841858 -16.77492828 5.92246216 -15.89631653 5.76177979 C-10.7646062 4.69917187 -4.72145962 0 0 0 Z " fill="#EF9994" transform="translate(139,47)"/>
<path d="M0 0 C0.33 0 0.66 0 1 0 C1.02187378 1.24873901 1.02187378 1.24873901 1.04418945 2.52270508 C1.1052863 5.61489653 1.17944556 8.70642082 1.26245117 11.7980957 C1.31201319 13.7929063 1.34651133 15.78807257 1.38085938 17.78320312 C1.41630859 19.03681641 1.45175781 20.29042969 1.48828125 21.58203125 C1.51446533 22.73936768 1.54064941 23.8967041 1.56762695 25.08911133 C1.76968149 27.97218662 1.76968149 27.97218662 3.30981445 29.83032227 C6.18477545 31.81991322 9.51189891 32.38522845 12.875 33.125 C13.62934326 33.29749268 14.38368652 33.46998535 15.16088867 33.64770508 C20.87740198 34.89557001 26.51231631 35.56201161 32.36328125 35.82421875 C35 36 35 36 36.67553711 36.49121094 C40.03764431 37.22712433 43.4008676 37.23719048 46.828125 37.31640625 C47.95163361 37.3475779 47.95163361 37.3475779 49.09783936 37.37937927 C51.48180288 37.44457088 53.86587312 37.50361783 56.25 37.5625 C57.86980254 37.60571416 59.48959443 37.64932937 61.109375 37.69335938 C65.07280832 37.80022096 69.0363486 37.90157333 73 38 C73 38.33 73 38.66 73 39 C52.55129381 41.19111291 31.04673522 41.5635556 11.1875 35.625 C10.19061157 35.3297644 10.19061157 35.3297644 9.17358398 35.02856445 C5.13883149 33.71018564 2.61105716 32.34891128 0 29 C-0.45410156 25.88378906 -0.45410156 25.88378906 -0.390625 22.265625 C-0.37773438 20.97011719 -0.36484375 19.67460937 -0.3515625 18.33984375 C-0.31814366 16.97655176 -0.28428391 15.61327051 -0.25 14.25 C-0.22992707 12.87111936 -0.21167767 11.49221088 -0.1953125 10.11328125 C-0.14815448 6.74148256 -0.08234538 3.37109313 0 0 Z " fill="#F5C0BC" transform="translate(39,117)"/>
<path d="M0 0 C0.66 0.33 1.32 0.66 2 1 C2 1.66 2 2.32 2 3 C2.99 3 3.98 3 5 3 C5 5.25 5 5.25 4 8 C-1.12604754 11.56594611 -6.55517128 13.15360042 -12.75 13.0625 C-13.54921875 13.05347656 -14.3484375 13.04445313 -15.171875 13.03515625 C-15.77515625 13.02355469 -16.3784375 13.01195312 -17 13 C-16.67 12.01 -16.34 11.02 -16 10 C-14.35 9.67 -12.7 9.34 -11 9 C-10.8453125 7.329375 -10.8453125 7.329375 -10.6875 5.625 C-10.460625 4.42875 -10.23375 3.2325 -10 2 C-6.33134759 -0.44576827 -4.32799657 -0.23607254 0 0 Z " fill="#F78C82" transform="translate(130,35)"/>
<path d="M0 0 C2.248125 -0.04125 4.49625 -0.0825 6.8125 -0.125 C8.07707031 -0.14820312 9.34164063 -0.17140625 10.64453125 -0.1953125 C14 0 14 0 17 2 C16.67 2.66 16.34 3.32 16 4 C15.67 3.67 15.34 3.34 15 3 C13.31816052 2.76712992 11.6287584 2.58735834 9.9375 2.4375 C8.55884766 2.31181641 8.55884766 2.31181641 7.15234375 2.18359375 C6.08693359 2.09271484 6.08693359 2.09271484 5 2 C5.01160156 3.00160156 5.02320313 4.00320312 5.03515625 5.03515625 C5.04454398 6.37760228 5.05364312 7.72005036 5.0625 9.0625 C5.07410156 10.37347656 5.08570313 11.68445313 5.09765625 13.03515625 C5.00452335 16.8163519 4.61448726 20.27920707 4 24 C2.68 24.33 1.36 24.66 0 25 C0 16.75 0 8.5 0 0 Z " fill="#DB4530" transform="translate(22,86)"/>
<path d="M0 0 C1.98 0 3.96 0 6 0 C7.19600901 4.49167828 6.9185704 8.73269793 6.5625 13.3125 C6.51029297 14.05306641 6.45808594 14.79363281 6.40429688 15.55664062 C6.27549848 17.37152709 6.13856738 19.18583325 6 21 C6.77085938 20.97679688 7.54171875 20.95359375 8.3359375 20.9296875 C9.33882812 20.91164063 10.34171875 20.89359375 11.375 20.875 C12.37273438 20.85179688 13.37046875 20.82859375 14.3984375 20.8046875 C17 21 17 21 19 23 C18.34 24.32 17.68 25.64 17 27 C14.18743719 27.02684312 11.37512759 27.04676188 8.5625 27.0625 C7.76005859 27.07087891 6.95761719 27.07925781 6.13085938 27.08789062 C4.08704779 27.0965143 2.04316098 27.0522815 0 27 C-1.60134536 25.39865464 -1.12985045 23.6974469 -1.1328125 21.484375 C-1.13410156 20.56269531 -1.13539062 19.64101562 -1.13671875 18.69140625 C-1.13285156 17.72074219 -1.12898438 16.75007813 -1.125 15.75 C-1.12886719 14.79480469 -1.13273437 13.83960937 -1.13671875 12.85546875 C-1.13542969 11.92863281 -1.13414063 11.00179687 -1.1328125 10.046875 C-1.13168457 9.19963867 -1.13055664 8.35240234 -1.12939453 7.47949219 C-0.99493065 4.90285976 -0.56590028 2.51423818 0 0 Z M1 1 C1 8.92 1 16.84 1 25 C5.95 25 10.9 25 16 25 C16.33 24.01 16.66 23.02 17 22 C13.04 22 9.08 22 5 22 C5 15.07 5 8.14 5 1 C3.68 1 2.36 1 1 1 Z " fill="#E7AFA8" transform="translate(47,85)"/>
<path d="M0 0 C13.53 0 27.06 0 41 0 C40.67 0.66 40.34 1.32 40 2 C35.63740457 3.32366002 31.15217181 3.12825502 26.63671875 3.09765625 C25.84473587 3.0962413 25.05275299 3.09482635 24.23677063 3.09336853 C21.72030781 3.08779457 19.20393569 3.07524693 16.6875 3.0625 C14.97591275 3.05748163 13.26432409 3.05291931 11.55273438 3.04882812 C7.36845492 3.03783368 3.18424281 3.02058707 -1 3 C-0.67 2.01 -0.34 1.02 0 0 Z " fill="#EF8F87" transform="translate(77,117)"/>
<path d="M0 0 C0.66 0 1.32 0 2 0 C2 0.99 2 1.98 2 3 C2.99 3.33 3.98 3.66 5 4 C5.08126087 6.08268593 5.13930839 8.16628658 5.1875 10.25 C5.22230469 11.41015625 5.25710937 12.5703125 5.29296875 13.765625 C4.97703021 17.2535865 4.47215663 18.57448784 2 21 C-0.6875 21.75 -0.6875 21.75 -3 22 C-2.67 23.32 -2.34 24.64 -2 26 C-2.99 26 -3.98 26 -5 26 C-5.33 26.66 -5.66 27.32 -6 28 C-6.99 25.03 -7.98 22.06 -9 19 C-7.329375 18.87625 -7.329375 18.87625 -5.625 18.75 C-2.00507081 18.43870178 -2.00507081 18.43870178 -0.81640625 16.265625 C0.07361832 13.79570035 0.44455179 11.61268895 0.6875 9 C0.77386719 8.154375 0.86023438 7.30875 0.94921875 6.4375 C0.99852254 4.07091802 0.69301659 2.25100125 0 0 Z " fill="#E34C37" transform="translate(133,88)"/>
<path d="M0 0 C0 10.23 0 20.46 0 31 C-1.98 31.66 -3.96 32.32 -6 33 C-5.67 31.68 -5.34 30.36 -5 29 C-4.01 29 -3.02 29 -2 29 C-2 20.42 -2 11.84 -2 3 C-2.66 3 -3.32 3 -4 3 C-4 3.66 -4 4.32 -4 5 C-5.65 5 -7.3 5 -9 5 C-2.40909091 0 -2.40909091 0 0 0 Z " fill="#EEA6A0" transform="translate(139,47)"/>
<path d="M0 0 C3.37629194 0.78131663 6.1596323 1.97665342 9.25 3.5625 C10.14203125 4.01753906 11.0340625 4.47257812 11.953125 4.94140625 C12.96632813 5.46541016 12.96632813 5.46541016 14 6 C14 6.33 14 6.66 14 7 C12.18706911 6.85962479 10.3746557 6.71255111 8.5625 6.5625 C7.04849609 6.44068359 7.04849609 6.44068359 5.50390625 6.31640625 C3 6 3 6 2 5 C1.88318188 8.54138618 1.812545 12.0822724 1.75 15.625 C1.71648438 16.62402344 1.68296875 17.62304688 1.6484375 18.65234375 C1.56719835 24.78589963 1.93183321 28.30719343 6 33 C3.53199953 31.84826645 1.95216435 30.95216435 0 29 C-0.22705078 26.11083984 -0.22705078 26.11083984 -0.1953125 22.4609375 C-0.18564453 20.50800781 -0.18564453 20.50800781 -0.17578125 18.515625 C-0.15906929 17.13541405 -0.14213939 15.75520571 -0.125 14.375 C-0.11497006 12.98698548 -0.10584423 11.59896411 -0.09765625 10.2109375 C-0.07401863 6.80711974 -0.04106867 3.40364494 0 0 Z " fill="#F1A9A5" transform="translate(40,116)"/>
<path d="M0 0 C0.72445312 -0.00386719 1.44890625 -0.00773437 2.1953125 -0.01171875 C5.39282879 -0.00581927 7.94582607 0.10694202 11 1.125 C12.77313851 1.20709792 14.54920775 1.23246294 16.32421875 1.22265625 C17.86625977 1.21782227 17.86625977 1.21782227 19.43945312 1.21289062 C20.51130859 1.20451172 21.58316406 1.19613281 22.6875 1.1875 C23.77095703 1.18298828 24.85441406 1.17847656 25.97070312 1.17382812 C28.64719085 1.16203743 31.32356777 1.14558063 34 1.125 C34 1.455 34 1.785 34 2.125 C33.39115967 2.15005615 32.78231934 2.1751123 32.1550293 2.20092773 C16.55255003 2.79802803 16.55255003 2.79802803 1 4.125 C0.67 3.465 0.34 2.805 0 2.125 C-4.62 2.455 -9.24 2.785 -14 3.125 C-9.30807497 -0.00295002 -5.45862905 -0.02913859 0 0 Z " fill="#EEAAA4" transform="translate(64,30.875)"/>
<path d="M0 0 C1.65 0 3.3 0 5 0 C4.01 0.66 3.02 1.32 2 2 C1.26393501 5.56769552 1.26393501 5.56769552 1 9 C2.98 8.67 4.96 8.34 7 8 C6.67 8.66 6.34 9.32 6 10 C4.35 10 2.7 10 1 10 C1 10.66 1 11.32 1 12 C4.3 12 7.6 12 11 12 C7.99382731 15.00617269 5.17618402 14.59585316 1 15 C1.020625 16.134375 1.04125 17.26875 1.0625 18.4375 C1 22 1 22 0 23 C-1.66617115 23.04063832 -3.33388095 23.042721 -5 23 C-3.68 22.34 -2.36 21.68 -1 21 C-1.01160156 20.32195312 -1.02320313 19.64390625 -1.03515625 18.9453125 C-1.09708351 12.55795793 -0.77018868 6.34030324 0 0 Z " fill="#F69D90" transform="translate(27,89)"/>
<path d="M0 0 C0.33 0 0.66 0 1 0 C1.66 3.63 2.32 7.26 3 11 C7.90754997 11.46225016 7.90754997 11.46225016 11 9 C10.375 10.9375 10.375 10.9375 9 13 C5.875 13.75 5.875 13.75 3 14 C3.33 14.33 3.66 14.66 4 15 C4.04080783 16.99958364 4.04254356 19.00045254 4 21 C3.67 20.01 3.34 19.02 3 18 C2.195625 17.690625 1.39125 17.38125 0.5625 17.0625 C-2 16 -2 16 -3.3125 13.875 C-3.539375 13.25625 -3.76625 12.6375 -4 12 C-3.01 11.67 -2.02 11.34 -1 11 C-0.67 7.37 -0.34 3.74 0 0 Z " fill="#F09082" transform="translate(122,94)"/>
<path d="M0 0 C0.33 1.65 0.66 3.3 1 5 C-2.98196457 6.05404945 -5.98195309 5.84098656 -10 5 C-10 4.67 -10 4.34 -10 4 C-7.03 4 -4.06 4 -1 4 C-1 3.34 -1 2.68 -1 2 C-2.95901454 2.11382653 -4.9172338 2.24141125 -6.875 2.375 C-8.51082031 2.47941406 -8.51082031 2.47941406 -10.1796875 2.5859375 C-13.13046474 2.73253491 -13.13046474 2.73253491 -15 5 C-15.64767793 7.57061311 -15.64767793 7.57061311 -16 10 C-16.33 10 -16.66 10 -17 10 C-17.29296875 3.9453125 -17.29296875 3.9453125 -17 2 C-11.35612606 -1.76258262 -6.43392672 -0.91112252 0 0 Z " fill="#CE7060" transform="translate(111,85)"/>
<path d="M0 0 C0.920728 0.00022659 1.84145599 0.00045319 2.79008484 0.00068665 C3.78079483 0.0161705 4.77150482 0.03165436 5.79223633 0.04760742 C6.80900955 0.05185226 7.82578278 0.05609711 8.87336731 0.06047058 C12.1239357 0.0772762 15.37388628 0.11493235 18.62426758 0.15307617 C20.82673259 0.16812055 23.02920731 0.18180938 25.23168945 0.1940918 C30.6335933 0.22718581 36.0351363 0.27740394 41.43676758 0.34057617 C41.43676758 1.33057617 41.43676758 2.32057617 41.43676758 3.34057617 C37.96351577 4.49832677 35.0760931 4.40924269 31.43676758 4.34057617 C31.43676758 4.01057617 31.43676758 3.68057617 31.43676758 3.34057617 C33.08676758 3.01057617 34.73676758 2.68057617 36.43676758 2.34057617 C30.81339844 2.31584552 25.19006101 2.29770159 19.56665039 2.28564453 C17.65388436 2.28061776 15.74112217 2.27379541 13.82836914 2.26513672 C11.07803398 2.25299869 8.32774965 2.24733127 5.57739258 2.24291992 C4.29593353 2.23517799 4.29593353 2.23517799 2.98858643 2.22727966 C2.18805847 2.22720413 1.38753052 2.2271286 0.56274414 2.22705078 C-0.13896912 2.22483017 -0.84068237 2.22260956 -1.56365967 2.22032166 C-3.6691833 2.34694807 -5.5373087 2.76737597 -7.56323242 3.34057617 C-5.17043095 0.4279363 -3.7309871 -0.03066565 0 0 Z " fill="#FECAC7" transform="translate(80.563232421875,115.659423828125)"/>
<path d="M0 0 C0.6875 1.6875 0.6875 1.6875 1 4 C-0.3125 6.75 -0.3125 6.75 -2 9 C-2.66 9 -3.32 9 -4 9 C-4 9.99 -4 10.98 -4 12 C-4.66 12 -5.32 12 -6 12 C-6 13.32 -6 14.64 -6 16 C-6.99 16.33 -7.98 16.66 -9 17 C-9 16.01 -9 15.02 -9 14 C-8.34 14 -7.68 14 -7 14 C-7.226875 13.319375 -7.45375 12.63875 -7.6875 11.9375 C-8.12336127 7.84040404 -7.01015046 5.55126581 -5 2 C-2.3125 0.5625 -2.3125 0.5625 0 0 Z " fill="#D35E4D" transform="translate(79,98)"/>
<path d="M0 0 C0.33 0 0.66 0 1 0 C1.02187378 1.24873901 1.02187378 1.24873901 1.04418945 2.52270508 C1.1052863 5.61489653 1.17944556 8.70642082 1.26245117 11.7980957 C1.31201319 13.7929063 1.34651133 15.78807257 1.38085938 17.78320312 C1.41630859 19.03681641 1.45175781 20.29042969 1.48828125 21.58203125 C1.51446533 22.73936768 1.54064941 23.8967041 1.56762695 25.08911133 C1.76455297 27.98830683 1.76455297 27.98830683 3.38134766 29.86206055 C6.19428484 31.83960206 9.38493313 31.90448396 12.72265625 32.375 C15 33 15 33 17 36 C10.90114936 35.47423701 6.43396088 34.47039867 1.3503418 30.81323242 C-0.70038588 28.05952524 -0.33739039 25.75413341 -0.29296875 22.36328125 C-0.2784668 20.41518555 -0.2784668 20.41518555 -0.26367188 18.42773438 C-0.23860585 17.05598361 -0.21321101 15.68423882 -0.1875 14.3125 C-0.1724502 12.92905076 -0.1587623 11.54558599 -0.14648438 10.16210938 C-0.11107223 6.77434793 -0.06168054 3.38736861 0 0 Z " fill="#FBDBD9" transform="translate(39,117)"/>
<path d="M0 0 C0.99 0 1.98 0 3 0 C2.67 2.31 2.34 4.62 2 7 C3.32 7 4.64 7 6 7 C6.33 8.32 6.66 9.64 7 11 C5.54119891 10.85892253 4.08296449 10.71197585 2.625 10.5625 C1.40683594 10.44068359 1.40683594 10.44068359 0.1640625 10.31640625 C-2 10 -2 10 -4 9 C-3.67 7.35 -3.34 5.7 -3 4 C-2.01 3.67 -1.02 3.34 0 3 C0 2.01 0 1.02 0 0 Z " fill="#FB8A7F" transform="translate(56,36)"/>
<path d="M0 0 C0.99 0 1.98 0 3 0 C3.33 1.32 3.66 2.64 4 4 C0.29598872 6.46934085 -2.70587865 6.44928433 -7 6 C-9.5 5 -9.5 5 -11 4 C-10 2 -10 2 -9 1 C-6.33333333 1 -3.66666667 1 -1 1 C-0.67 0.67 -0.34 0.34 0 0 Z " fill="#F09384" transform="translate(137,113)"/>
<path d="M0 0 C2.90249307 0.14831495 5.80119488 0.14048218 8.70703125 0.1328125 C9.51363693 0.13376923 10.32024261 0.13472595 11.15129089 0.13571167 C12.84296752 0.13638809 14.53464682 0.1345716 16.22631836 0.13037109 C18.82216131 0.12497993 21.417834 0.1303522 24.01367188 0.13671875 C25.66145872 0.13605856 27.30924545 0.13477862 28.95703125 0.1328125 C30.12260307 0.13584885 30.12260307 0.13584885 31.3117218 0.13894653 C35.28528477 0.20710259 35.28528477 0.20710259 39 -1 C39.66 -0.34 40.32 0.32 41 1 C39.1132373 2.8867627 36.37652743 2.12895299 33.86645508 2.13894653 C33.0030249 2.1369223 32.13959473 2.13489807 31.25 2.1328125 C30.36272217 2.13376923 29.47544434 2.13472595 28.5612793 2.13571167 C26.67480397 2.1363941 24.78832632 2.13453549 22.90185547 2.13037109 C20.03998378 2.12507401 17.17827269 2.13028759 14.31640625 2.13671875 C12.48177049 2.13605699 10.64713483 2.13477382 8.8125 2.1328125 C7.54164551 2.13584885 7.54164551 2.13584885 6.24511719 2.13894653 C0.75817883 2.11777528 -4.55545337 1.68877619 -10 1 C-6.06225756 -1.62516163 -4.59692365 -0.75485345 0 0 Z " fill="#F08F87" transform="translate(93,78)"/>
<path d="M0 0 C2.375 0.3125 2.375 0.3125 5 1 C7.67927341 5.01891012 7.15601248 7.24161923 7 12 C5.02 12.99 5.02 12.99 3 14 C2.01 13.34 1.02 12.68 0 12 C0.66 11.34 1.32 10.68 2 10 C2.16677282 6.41656024 2.16677282 6.41656024 2 3 C1.34 2.67 0.68 2.34 0 2 C0 1.34 0 0.68 0 0 Z " fill="#EF7A6B" transform="translate(106,96)"/>
<path d="M0 0 C1 1 1 1 1.0625 3.5625 C1.041875 4.366875 1.02125 5.17125 1 6 C0.34 5.34 -0.32 4.68 -1 4 C-1 3.01 -1 2.02 -1 1 C-3.95867918 1.14046255 -6.91682264 1.28712224 -9.875 1.4375 C-10.71675781 1.47681641 -11.55851562 1.51613281 -12.42578125 1.55664062 C-13.23144531 1.59853516 -14.03710938 1.64042969 -14.8671875 1.68359375 C-15.61081543 1.72025146 -16.35444336 1.75690918 -17.12060547 1.79467773 C-19.08864312 1.89955865 -19.08864312 1.89955865 -21 3 C-22.70702735 3.06996014 -24.41668003 3.08440154 -26.125 3.0625 C-27.03507812 3.05347656 -27.94515625 3.04445313 -28.8828125 3.03515625 C-29.58148438 3.02355469 -30.28015625 3.01195313 -31 3 C-24.32737347 -3.67262653 -8.78709631 -1.0819932 0 0 Z " fill="#F5C5C2" transform="translate(139,123)"/>
<path d="M0 0 C0.66 0 1.32 0 2 0 C2.31137615 5.91614677 2.00217512 9.82383599 -1 15 C-3.6875 16.4375 -3.6875 16.4375 -6 17 C-6 17.66 -6 18.32 -6 19 C-4.35 19 -2.7 19 -1 19 C-1.33 19.66 -1.66 20.32 -2 21 C-3.65 20.67 -5.3 20.34 -7 20 C-7.12375 19.360625 -7.2475 18.72125 -7.375 18.0625 C-7.58125 17.381875 -7.7875 16.70125 -8 16 C-8.66 15.67 -9.32 15.34 -10 15 C-8.88625 14.896875 -7.7725 14.79375 -6.625 14.6875 C-5.42875 14.460625 -4.2325 14.23375 -3 14 C-0.81005752 10.71508627 -0.64722661 9.16904361 -0.375 5.3125 C-0.30023438 4.31863281 -0.22546875 3.32476562 -0.1484375 2.30078125 C-0.09945312 1.54152344 -0.05046875 0.78226562 0 0 Z " fill="#F1ACA4" transform="translate(138,94)"/>
<path d="M0 0 C1 3 1 3 -0.43359375 6.13671875 C-1.09135973 7.3260128 -1.75977815 8.50946371 -2.4375 9.6875 C-2.77587891 10.29400391 -3.11425781 10.90050781 -3.46289062 11.52539062 C-4.29957915 13.0220025 -5.14862831 14.51169189 -6 16 C-7.65 16 -9.3 16 -11 16 C-11.33 15.34 -11.66 14.68 -12 14 C-11.0625 11.375 -11.0625 11.375 -10 9 C-9.34 9.33 -8.68 9.66 -8 10 C-8 10.66 -8 11.32 -8 12 C-8.66 12 -9.32 12 -10 12 C-9.67 12.66 -9.34 13.32 -9 14 C-8.34 14 -7.68 14 -7 14 C-7 12.68 -7 11.36 -7 10 C-6.34 10 -5.68 10 -5 10 C-5 9.01 -5 8.02 -5 7 C-4.02246356 5.97803008 -3.0194119 4.98020375 -2 4 C-0.82425289 1.90010348 -0.82425289 1.90010348 0 0 Z " fill="#ED9F96" transform="translate(80,100)"/>
<path d="M0 0 C2.19050021 0.09017996 4.378466 0.24666208 6.5625 0.4375 C7.76003906 0.53933594 8.95757812 0.64117187 10.19140625 0.74609375 C11.11824219 0.82988281 12.04507813 0.91367188 13 1 C13 1.33 13 1.66 13 2 C12.28972656 2.04898438 11.57945313 2.09796875 10.84765625 2.1484375 C9.46900391 2.26058594 9.46900391 2.26058594 8.0625 2.375 C7.14597656 2.44460937 6.22945313 2.51421875 5.28515625 2.5859375 C4.53105469 2.72257812 3.77695313 2.85921875 3 3 C2.67 3.66 2.34 4.32 2 5 C6.62 5 11.24 5 16 5 C14 7 14 7 11.03125 7.23046875 C9.8659375 7.21628906 8.700625 7.20210938 7.5 7.1875 C6.3346875 7.18105469 5.169375 7.17460938 3.96875 7.16796875 C1 7 1 7 -1 6 C-1.042721 4.33388095 -1.04063832 2.66617115 -1 1 C-0.67 0.67 -0.34 0.34 0 0 Z " fill="#EAACA3" transform="translate(93,105)"/>
<path d="M0 0 C1.09054688 0.02320312 2.18109375 0.04640625 3.3046875 0.0703125 C4.40039062 0.08835937 5.49609375 0.10640625 6.625 0.125 C7.46804687 0.14820312 8.31109375 0.17140625 9.1796875 0.1953125 C9.1796875 0.8553125 9.1796875 1.5153125 9.1796875 2.1953125 C5.5496875 2.5253125 1.9196875 2.8553125 -1.8203125 3.1953125 C-1.8203125 4.8453125 -1.8203125 6.4953125 -1.8203125 8.1953125 C-3.1403125 7.5353125 -4.4603125 6.8753125 -5.8203125 6.1953125 C-5.02802585 2.23387925 -4.38920598 0.30396163 0 0 Z " fill="#EC5440" transform="translate(100.8203125,86.8046875)"/>
<path d="M0 0 C0.99 0.33 1.98 0.66 3 1 C2.67 3.31 2.34 5.62 2 8 C-1.69541586 8.95024979 -4.30458414 8.95024979 -8 8 C-8 7.34 -8 6.68 -8 6 C-7.05125 5.7525 -6.1025 5.505 -5.125 5.25 C-1.91306809 4.3142923 -1.91306809 4.3142923 -0.625 1.875 C-0.41875 1.25625 -0.2125 0.6375 0 0 Z " fill="#EB5340" transform="translate(36,93)"/>
<path d="M0 0 C0.99 0.99 1.98 1.98 3 3 C2.34 3 1.68 3 1 3 C1 11.91 1 20.82 1 30 C1.99 30 2.98 30 4 30 C4 30.99 4 31.98 4 33 C2.68 32.67 1.36 32.34 0 32 C0 21.44 0 10.88 0 0 Z " fill="#EEA7A0" transform="translate(40,46)"/>
<path d="M0 0 C0.99 0 1.98 0 3 0 C3 6.6 3 13.2 3 20 C2.67 20 2.34 20 2 20 C2 17.03 2 14.06 2 11 C1.34 11 0.68 11 0 11 C0 7.37 0 3.74 0 0 Z " fill="#EA5845" transform="translate(146,87)"/>
<path d="M0 0 C3.125 -0.1875 3.125 -0.1875 6 0 C6 0.66 6 1.32 6 2 C5.34 2 4.68 2 4 2 C3.67 3.32 3.34 4.64 3 6 C2.01 6 1.02 6 0 6 C0 7.65 0 9.3 0 11 C-2 9 -2 9 -2.25 6.0625 C-2 3 -2 3 0 0 Z " fill="#D86451" transform="translate(83,83)"/>
<path d="M0 0 C0.66 0 1.32 0 2 0 C2 1.32 2 2.64 2 4 C-2.95 4 -7.9 4 -13 4 C-13 3.34 -13 2.68 -13 2 C-8.71 2 -4.42 2 0 2 C0 1.34 0 0.68 0 0 Z " fill="#DC6C5F" transform="translate(160,107)"/>
<path d="M0 0 C2.31 0 4.62 0 7 0 C7 0.33 7 0.66 7 1 C5.35 1 3.7 1 2 1 C2.020625 2.134375 2.04125 3.26875 2.0625 4.4375 C2 8 2 8 1 9 C-0.66617115 9.04063832 -2.33388095 9.042721 -4 9 C-2.68 8.34 -1.36 7.68 0 7 C0 4.69 0 2.38 0 0 Z " fill="#F0B0AD" transform="translate(26,103)"/>
<path d="M0 0 C1.35015859 4.05047576 0.62084998 6.7920168 0 11 C-0.99 10.67 -1.98 10.34 -3 10 C-3 7.69 -3 5.38 -3 3 C-2.34 3 -1.68 3 -1 3 C-0.67 2.01 -0.34 1.02 0 0 Z " fill="#F15841" transform="translate(122,91)"/>
<path d="M0 0 C6.93 0.495 6.93 0.495 14 1 C10.842224 3.105184 10.04602866 3.25289344 6.4375 3.1875 C5.65246094 3.18105469 4.86742188 3.17460938 4.05859375 3.16796875 C2 3 2 3 0 2 C0 1.34 0 0.68 0 0 Z " fill="#E85847" transform="translate(95,108)"/>
<path d="M0 0 C2.475 0.99 2.475 0.99 5 2 C4.67 3.65 4.34 5.3 4 7 C0.7 6.67 -2.6 6.34 -6 6 C-6 5.67 -6 5.34 -6 5 C-3.03 5 -0.06 5 3 5 C3 4.01 3 3.02 3 2 C2.01 2 1.02 2 0 2 C0 1.34 0 0.68 0 0 Z " fill="#F3BDB6" transform="translate(107,84)"/>
<path d="M0 0 C0.6875 1.6875 0.6875 1.6875 1 4 C-0.3125 6.75 -0.3125 6.75 -2 9 C-2.66 9 -3.32 9 -4 9 C-3.47731534 6.23723823 -2.89130413 3.6739124 -2 1 C-1.34 0.67 -0.68 0.34 0 0 Z " fill="#EC533E" transform="translate(79,98)"/>
<path d="M0 0 C0 0.66 0 1.32 0 2 C-0.66 2 -1.32 2 -2 2 C-2 2.66 -2 3.32 -2 4 C-6.43076923 6.09230769 -6.43076923 6.09230769 -9.3125 5.625 C-9.869375 5.41875 -10.42625 5.2125 -11 5 C-10.01 4.67 -9.02 4.34 -8 4 C-7.67 3.34 -7.34 2.68 -7 2 C-2.66666667 0 -2.66666667 0 0 0 Z " fill="#F4B9B2" transform="translate(135,147)"/>
<path d="M0 0 C2 2 2 2 2.375 4.875 C2 8 2 8 -2 12 C-1.34 8.04 -0.68 4.08 0 0 Z " fill="#EA9E95" transform="translate(40,89)"/>
<path d="M0 0 C1.98 0 3.96 0 6 0 C6 0.66 6 1.32 6 2 C5.34 2 4.68 2 4 2 C4 2.66 4 3.32 4 4 C5.65 4 7.3 4 9 4 C8.67 4.66 8.34 5.32 8 6 C6.35 5.67 4.7 5.34 3 5 C2.87625 4.360625 2.7525 3.72125 2.625 3.0625 C2.315625 2.0415625 2.315625 2.0415625 2 1 C1.34 0.67 0.68 0.34 0 0 Z " fill="#F19388" transform="translate(128,109)"/>
<path d="M0 0 C-0.33 1.32 -0.66 2.64 -1 4 C-1.763125 3.773125 -2.52625 3.54625 -3.3125 3.3125 C-4.199375 3.209375 -5.08625 3.10625 -6 3 C-7.8354799 4.33378575 -7.8354799 4.33378575 -9 6 C-9 4.35 -9 2.7 -9 1 C-2.25 0 -2.25 0 0 0 Z " fill="#F79A88" transform="translate(132,88)"/>
<path d="M0 0 C1 3 1 3 0.22265625 5.04296875 C-0.16019531 5.75066406 -0.54304688 6.45835938 -0.9375 7.1875 C-1.31777344 7.90292969 -1.69804688 8.61835937 -2.08984375 9.35546875 C-2.54037109 10.16951172 -2.54037109 10.16951172 -3 11 C-3.33 11 -3.66 11 -4 11 C-4 8.69 -4 6.38 -4 4 C-3.01 4 -2.02 4 -1 4 C-0.67 2.68 -0.34 1.36 0 0 Z " fill="#F3A399" transform="translate(87,85)"/>
<path d="M0 0 C0.99 0.33 1.98 0.66 3 1 C3 1.99 3 2.98 3 4 C5.475 4.99 5.475 4.99 8 6 C8 6.33 8 6.66 8 7 C6.02 7 4.04 7 2 7 C1.34 4.69 0.68 2.38 0 0 Z " fill="#EE958B" transform="translate(98,89)"/>
<path d="M0 0 C1.2065625 0.0309375 1.2065625 0.0309375 2.4375 0.0625 C1.798125 0.619375 1.15875 1.17625 0.5 1.75 C-1.75930987 4.28316561 -2.19399047 5.74591424 -2.5625 9.0625 C-2.8925 9.0625 -3.2225 9.0625 -3.5625 9.0625 C-3.66015625 2.91015625 -3.66015625 2.91015625 -3.5625 1.0625 C-2.5625 0.0625 -2.5625 0.0625 0 0 Z " fill="#C55A49" transform="translate(97.5625,85.9375)"/>
<path d="M0 0 C0.66 0.33 1.32 0.66 2 1 C2 1.99 2 2.98 2 4 C-0.3431213 3.74438677 -2.67843403 3.40729228 -5 3 C-5.33 2.34 -5.66 1.68 -6 1 C-4.7934375 1.0309375 -4.7934375 1.0309375 -3.5625 1.0625 C-1.06645115 1.29633621 -1.06645115 1.29633621 0 0 Z " fill="#D04A39" transform="translate(137,113)"/>
<path d="M0 0 C1.9375 0.625 1.9375 0.625 4 2 C4.75 5.125 4.75 5.125 5 8 C2.21611025 6.29374499 1.14615794 5.52373261 0.25 2.3125 C0.1675 1.549375 0.085 0.78625 0 0 Z " fill="#EB948C" transform="translate(134,86)"/>
<path d="M0 0 C-3.42346555 3.14958831 -6.44262737 3.56179109 -11 4 C-7.26280719 0.48264206 -5.13496308 -0.47767098 0 0 Z " fill="#EE938E" transform="translate(133,43)"/>
<path d="M0 0 C2.475 0.99 2.475 0.99 5 2 C4.67 3.32 4.34 4.64 4 6 C3.01 5.67 2.02 5.34 1 5 C0.67 3.35 0.34 1.7 0 0 Z " fill="#FDE3DC" transform="translate(115,36)"/>
<path d="M0 0 C-0.33 0.66 -0.66 1.32 -1 2 C-4.47325181 3.1577506 -7.36067448 3.06866652 -11 3 C-11 2.67 -11 2.34 -11 2 C-7.17679443 0.57741188 -4.08718695 -0.24042276 0 0 Z " fill="#EFCDC8" transform="translate(123,117)"/>
<path d="M0 0 C0.33 0 0.66 0 1 0 C0.67 2.31 0.34 4.62 0 7 C-2.31 7 -4.62 7 -7 7 C-6.401875 6.773125 -5.80375 6.54625 -5.1875 6.3125 C-2.44106051 4.66463631 -1.52827786 2.76545517 0 0 Z " fill="#C23523" transform="translate(36,93)"/>
<path d="M0 0 C0 0.66 0 1.32 0 2 C-1.28745036 2.38922918 -2.58019597 2.76098036 -3.875 3.125 C-4.59429687 3.33382812 -5.31359375 3.54265625 -6.0546875 3.7578125 C-6.69664063 3.83773437 -7.33859375 3.91765625 -8 4 C-8.66 3.34 -9.32 2.68 -10 2 C-6.38026598 0.68373308 -3.90432869 0 0 0 Z " fill="#FDE4DD" transform="translate(73,34)"/>
</svg>
