<?xml version="1.0" encoding="UTF-8"?>
<svg version="1.1" xmlns="http://www.w3.org/2000/svg" width="512" height="512">
<path d="M0 0 C36.19571796 -0.89097152 68.8403332 12.72375708 95.48046875 36.78125 C111.90331388 52.6667901 123.96251818 71.9986419 132.5390625 93.125 C132.5390625 93.785 132.5390625 94.445 132.5390625 95.125 C131.30671875 95.17398438 130.074375 95.22296875 128.8046875 95.2734375 C103.99125044 96.2385576 103.99125044 96.2385576 83.4140625 109.125 C75.86302126 118.54393039 75.37623386 130.58904124 76.5390625 142.125 C80.36656209 169.73426887 95.04667566 194.70366633 107.8515625 219 C108.23147339 219.72338562 108.61138428 220.44677124 109.00280762 221.19207764 C114.76603596 232.14308385 120.63021972 242.90823012 128.5703125 252.46875 C128.89 253.0153125 129.2096875 253.561875 129.5390625 254.125 C128.5390625 257.125 128.5390625 257.125 126.90234375 258.046875 C126.22558594 258.32015625 125.54882812 258.5934375 124.8515625 258.875 C117.96041621 262.13532728 114.81299537 266.87134671 112.21846008 273.93911743 C111.19625193 277.22795308 110.86682248 280.52600666 110.6171875 283.94140625 C110.48131527 285.49870788 110.34532266 287.055999 110.20922852 288.61328125 C110.1076091 289.84812256 110.1076091 289.84812256 110.00393677 291.10791016 C108.58540397 308.13755652 106.68295428 325.10665568 104.54943848 342.06027222 C104.25593051 344.3963564 103.96584718 346.73287399 103.67956543 349.06985474 C102.16740923 361.379647 100.40588043 373.59833558 98.02734375 385.7734375 C97.83104874 386.79554321 97.63475372 387.81764893 97.43251038 388.87072754 C94.88123987 401.39972359 90.03072143 412.29966401 79.25 419.6953125 C65.35009303 428.05205415 46.46548739 432.67455868 30.4296875 429.51171875 C19.70843195 426.07425405 13.54121937 418.97415129 8.046875 409.4453125 C-6.19383459 378.08623698 -0.80534356 333.63595948 -0.375 300.16015625 C-0.36747208 299.45345291 -0.35994415 298.74674957 -0.35218811 298.01863098 C-0.3178315 294.96447311 -0.26228785 291.91432552 -0.16088867 288.86157227 C0.00676951 279.4719756 -2.10765357 270.50713263 -8.77734375 263.5546875 C-14.85653707 258.39230988 -21.7546122 257.25801961 -29.4609375 256.125 C-26.90943637 244.82730843 -22.26915676 234.28182321 -17.93115234 223.5859375 C-4.88836113 191.35009579 -1.76159123 151.91053076 -14.40625 118.62109375 C-18.06923315 110.0775822 -23.77513861 104.84714981 -32.1640625 101 C-51.5691462 93.60758716 -72.7064487 102.38864992 -90.4609375 110.125 C-90.73612019 102.65575555 -89.72546549 95.81824237 -88.2734375 88.5 C-88.04495117 87.3442749 -87.81646484 86.1885498 -87.58105469 84.99780273 C-83.5790136 65.39082906 -76.4449236 45.65042524 -63.4609375 30.125 C-62.77515625 29.27808594 -62.089375 28.43117188 -61.3828125 27.55859375 C-47.5041994 11.20878875 -28.95026281 2.67735063 -7.8359375 0.4375 C-5.22473127 0.25793281 -2.61388291 0.13276866 0 0 Z " fill="#326691" transform="translate(262.4609375,42.875)"/>
<path d="M0 0 C0 4.22195509 -2.40917391 6.22195717 -5 9.3125 C-32.43250926 43.19789865 -36.44409831 85.71408265 -35.95898438 127.60424805 C-35.80386937 142.34527574 -36.14931267 156.84808802 -37.52587891 171.53076172 C-39.49354741 192.8190352 -37.46846547 212.86104656 -23.55078125 230.01953125 C-22.02838039 231.69392705 -20.47606221 233.34209056 -18.8828125 234.94921875 C-17.07677819 236.9163723 -16.12694606 238.60921544 -15 241 C-15.62660522 241.66418945 -15.62660522 241.66418945 -16.26586914 242.34179688 C-18.19955151 244.39314917 -20.13103149 246.44656317 -22.0625 248.5 C-23.04766602 249.54414062 -23.04766602 249.54414062 -24.05273438 250.609375 C-30.06475434 257.00640117 -35.82425971 263.60257136 -41.52636719 270.27563477 C-42.54076425 271.46262722 -43.55715745 272.64791574 -44.57519531 273.83178711 C-46.75791891 276.37024155 -48.92786274 278.91175575 -51.046875 281.50390625 C-55.11771515 286.42439423 -59.56518686 291.13141136 -66.07421875 292.40625 C-72.88009545 292.71737579 -77.84200475 289.49855973 -82.8125 285.1875 C-126.01836949 245.02612207 -139.33523285 153.92710684 -147 99 C-147.1714856 97.85313721 -147.1714856 97.85313721 -147.34643555 96.68310547 C-151.02070487 70.67018036 -147.6019647 38.59712617 -131.6796875 17.10546875 C-129.60723856 14.50767811 -127.46630949 12.23142287 -125 10 C-124.42378906 9.40832031 -123.84757812 8.81664063 -123.25390625 8.20703125 C-113.78685718 -1.04526434 -101.00258826 -6.88293217 -88 -9 C-86.70191406 -9.21398438 -85.40382812 -9.42796875 -84.06640625 -9.6484375 C-55.50299365 -13.80790519 -27.34128533 -7.92185381 0 0 Z " fill="#326691" transform="translate(195,55)"/>
<path d="M0 0 C1.16179779 -0.00267883 2.32359558 -0.00535767 3.52059937 -0.00811768 C20.66205378 0.00047045 36.50862606 0.71639385 52.8125 6.5 C53.53888672 6.74024902 54.26527344 6.98049805 55.01367188 7.22802734 C59.4306144 8.70417204 63.6102264 10.47841626 67.8125 12.5 C68.83778809 12.99306641 68.83778809 12.99306641 69.88378906 13.49609375 C84.71510323 20.72958865 96.91598978 30.1603477 108.8125 41.5 C109.56660156 42.20125 110.32070313 42.9025 111.09765625 43.625 C124.96707091 56.87977779 130.63035995 72.89049521 131.11328125 91.86328125 C131.13286462 94.5143379 131.13977501 97.16176914 131.125 99.8125 C131.12284485 100.51175598 131.1206897 101.21101196 131.11846924 101.93145752 C130.81400742 163.89911728 104.41369522 225.57619378 73.8125 278.5 C79.78016228 278.09792346 85.62550555 277.58632624 91.5 276.4375 C103.46889441 274.35595315 115.69196368 273.70733132 126.0625 280.6875 C131.19351052 285.93512439 133.86763914 292.28344283 134.125 299.625 C133.97151098 308.98783026 129.20661718 316.93129942 122.8125 323.5 C109.78884847 335.50356809 94.91152023 343.17878021 77.8125 347.5 C76.595625 347.80808594 75.37875 348.11617188 74.125 348.43359375 C61.25114456 351.23633936 47.95529731 351.5 34.8125 351.5 C34.82700195 352.31774902 34.84150391 353.13549805 34.85644531 353.97802734 C34.94920524 363.43026414 34.41572726 372.71739309 33.5625 382.125 C33.4621344 383.24267761 33.4621344 383.24267761 33.35974121 384.38293457 C30.70510407 413.45642098 25.37849688 444.1942824 3.8125 465.5 C3.12671875 466.20769531 2.4409375 466.91539062 1.734375 467.64453125 C-13.81568777 482.70505501 -40.24769985 489.09969949 -61.45996094 488.85131836 C-74.64506912 488.3841423 -87.74153299 483.63977953 -97.390625 474.44921875 C-120.17064181 449.73785269 -121.74212736 411.40711432 -122.75 379.75 C-122.81477539 377.82800781 -122.81477539 377.82800781 -122.88085938 375.8671875 C-122.98571334 372.74486934 -123.08788018 369.62248879 -123.1875 366.5 C-123.79335937 366.62117188 -124.39921875 366.74234375 -125.0234375 366.8671875 C-126.79463224 367.22142645 -128.56632031 367.57320375 -130.33837891 367.9230957 C-132.13093622 368.28606168 -133.9203828 368.66512966 -135.70458984 369.06713867 C-141.7897351 370.40757277 -147.58724463 370.85082806 -153.8125 370.8125 C-154.76890381 370.80758545 -155.72530762 370.8026709 -156.71069336 370.79760742 C-173.1105362 370.53006209 -189.35992867 367.27389612 -202.1875 356.5 C-203.1775 355.84 -204.1675 355.18 -205.1875 354.5 C-205.8165625 354.89832031 -206.445625 355.29664063 -207.09375 355.70703125 C-218.6266655 362.84562804 -229.57022894 366.40752911 -243.2734375 363.40625 C-267.39978672 355.90314944 -280.45427866 335.03020109 -291.70703125 313.80078125 C-316.02264887 266.33730885 -327.96672391 211.76507379 -337.6875 159.6875 C-337.83574219 158.89561279 -337.98398437 158.10372559 -338.13671875 157.2878418 C-344.49857672 121.08902743 -341.92549981 77.99648762 -320.671875 46.890625 C-304.82116894 24.69963652 -281.72695946 12.0263618 -255.1875 7.5 C-226.50229972 2.87160652 -196.29183151 7.06078876 -168.60253906 14.80664062 C-167.35053711 15.15275391 -166.09853516 15.49886719 -164.80859375 15.85546875 C-163.6992749 16.17153076 -162.58995605 16.48759277 -161.44702148 16.81323242 C-156.31206427 17.89514648 -151.7479929 18.17489912 -146.9453125 15.890625 C-146.19757568 15.54974854 -145.44983887 15.20887207 -144.67944336 14.85766602 C-143.89835205 14.49213623 -143.11726074 14.12660645 -142.3125 13.75 C-121.29565914 4.41351855 -100.15651858 3.71702614 -77.5 4.9375 C-76.40558594 4.99623291 -76.40558594 4.99623291 -75.2890625 5.05615234 C-72.03880188 5.25215928 -68.89184749 5.54495493 -65.66796875 6.03515625 C-58.780882 6.95498041 -53.15459115 6.52246684 -46.5 4.625 C-31.03119186 0.35883228 -15.96590322 0.02165402 0 0 Z M-46.51245117 19.46728516 C-55.91198895 21.89728143 -63.41688119 21.58557607 -72.9375 20 C-97.071884 16.29967948 -123.85747671 17.17941185 -144.7890625 31.08447266 C-148.41552242 33.29174743 -150.89367715 33.68457872 -154.94140625 32.93359375 C-156.69903607 32.48970593 -158.44801499 32.01038304 -160.1875 31.5 C-161.06019531 31.24565186 -161.93289062 30.99130371 -162.83203125 30.72924805 C-164.66843366 30.17544136 -166.50170659 29.61117181 -168.33203125 29.03759766 C-181.79059152 24.82841942 -195.22945768 22.36380607 -209.1875 20.5 C-210.2384082 20.34422485 -210.2384082 20.34422485 -211.31054688 20.18530273 C-239.3759618 16.2037163 -268.9219116 21.12752664 -292.25 37.5625 C-311.99411583 52.76163252 -321.5220222 75.16091665 -324.9375 99.3125 C-333.45843334 167.99111039 -306.89520314 273.77275749 -264.71484375 329.33984375 C-257.36131272 338.67806482 -249.1040313 347.1635644 -236.8515625 349 C-227.86693036 349.33509118 -221.28532977 347.25502576 -214.375 341.5625 C-206.10343898 333.86764144 -198.73782816 325.27036358 -191.68359375 316.46875 C-187.97653933 312.05973379 -184.02553269 307.88887079 -180.05908203 303.71337891 C-179.48657715 303.10929199 -178.91407227 302.50520508 -178.32421875 301.8828125 C-177.77813965 301.30692383 -177.23206055 300.73103516 -176.66943359 300.13769531 C-175.0053825 298.34843806 -175.0053825 298.34843806 -173.01953125 295.6171875 C-171.1875 293.5 -171.1875 293.5 -169.3828125 292.54296875 C-166.03353526 292.4774135 -163.15624477 293.66219686 -160.0625 294.8125 C-154.16330378 296.90358199 -148.38651393 298.52274369 -142.1875 299.5 C-143.55176289 301.25838328 -144.92945109 303.00635419 -146.3125 304.75 C-147.07820312 305.72453125 -147.84390625 306.6990625 -148.6328125 307.703125 C-154.88534328 314.54840334 -161.81289779 315.94403124 -170.5625 318 C-185.28235309 320.98109919 -185.28235309 320.98109919 -196.1875 330.5 C-197.62054064 333.36608129 -197.49394155 335.31300783 -197.1875 338.5 C-193.86618183 345.74651236 -187.09123717 349.02733269 -179.92578125 351.73046875 C-161.55694258 357.6400719 -141.58814199 357.30742221 -124.1875 348.5 C-121.87740295 347.12972351 -119.59104995 345.74612222 -117.31640625 344.3203125 C-116.72315552 343.95172119 -116.12990479 343.58312988 -115.51867676 343.20336914 C-114.07332881 342.30485057 -112.63018072 341.40279492 -111.1875 340.5 C-111.19273682 341.29768799 -111.19797363 342.09537598 -111.20336914 342.91723633 C-111.35157144 369.15654756 -111.17369586 395.39617905 -108.1875 421.5 C-108.10306641 422.25345703 -108.01863281 423.00691406 -107.93164062 423.78320312 C-106.00916839 439.61107604 -98.94791478 454.81474279 -86.91796875 465.51953125 C-74.93525409 474.7146677 -60.78569405 476.06781205 -46.1875 474.5 C-39.68514998 473.41420919 -33.43120804 471.58716124 -27.1875 469.5 C-26.05441406 469.12746094 -24.92132813 468.75492187 -23.75390625 468.37109375 C-9.70254632 463.12695812 0.95436429 453.37929611 7.55859375 439.94921875 C10.63699707 432.77273561 12.39256923 425.37050208 13.75 417.703125 C13.91865067 416.76161591 14.08730133 415.82010681 14.26106262 414.85006714 C16.41162963 402.49868096 17.93843158 390.06162579 19.5 377.625 C19.81001337 375.19133823 20.12055786 372.75774406 20.43164062 370.32421875 C21.11950834 364.93330218 21.80324289 359.54189457 22.47923279 354.1494751 C22.69156072 352.46146753 22.90605919 350.77373055 23.12342834 349.08636475 C23.57908033 345.53133708 23.93104033 342.08658105 23.875 338.5 C23.86146484 337.3553125 23.86146484 337.3553125 23.84765625 336.1875 C23.83605469 335.630625 23.82445312 335.07375 23.8125 334.5 C24.71355469 334.65984375 25.61460937 334.8196875 26.54296875 334.984375 C52.56087052 338.66486073 80.96834443 334.74443198 102.8125 319.5 C106.33632983 316.67302852 109.61326717 313.68751402 112.8125 310.5 C113.65167969 309.695625 113.65167969 309.695625 114.5078125 308.875 C118.24630574 304.9442414 118.8125 301.75286986 118.8125 296.5 C117.60525097 293.57718657 116.71469626 292.06511194 114.03515625 290.38671875 C106.23034171 287.27302297 96.05476202 289.80818523 88 291 C75.92799556 292.77284775 63.67619702 294.18183701 51.8125 290.5 C51.1525 289.84 50.4925 289.18 49.8125 288.5 C50.26351074 287.76402588 50.26351074 287.76402588 50.72363281 287.01318359 C85.35158482 230.33379578 130.19566863 145.56292172 114.44140625 76.68725586 C111.81361714 67.54813992 106.99434749 59.68524751 99.8125 53.5 C98.1404045 51.83877991 96.4741617 50.17165665 94.8125 48.5 C68.65314856 22.8085394 34.14679384 12.91202072 -1.92504883 13.21875 C-17.4476953 13.50521176 -31.47587556 15.50938588 -46.51245117 19.46728516 Z " fill="#326691" transform="translate(360.1875,11.5)"/>
<path d="M0 0 C10.77728099 9.43012086 18.9662097 17.94892943 20.1875 32.6796875 C23.11896348 81.17420848 5.68109326 128.1181921 -13.8125 171.6796875 C-14.26351074 172.69305176 -14.71452148 173.70641602 -15.17919922 174.75048828 C-20.41085537 186.40290152 -26.28343423 197.60832218 -32.75 208.6171875 C-33.3891333 209.7208667 -34.0282666 210.8245459 -34.68676758 211.96166992 C-35.29415771 212.97076416 -35.90154785 213.9798584 -36.52734375 215.01953125 C-37.06480225 215.92050537 -37.60226074 216.82147949 -38.15600586 217.74975586 C-38.70264893 218.3866333 -39.24929199 219.02351074 -39.8125 219.6796875 C-41.1325 219.6796875 -42.4525 219.6796875 -43.8125 219.6796875 C-42.5772046 215.81345045 -41.15625407 212.07789122 -39.60375977 208.32910156 C-32.19519681 189.95970571 -33.72411678 171.69811593 -35.60375977 152.35620117 C-37.0039858 137.89392056 -37.48611267 124.27947014 -35.375 109.8671875 C-30.65587072 77.47306849 -36.89375953 55.19386917 -56.1171875 28.4765625 C-58.60464742 25.14753378 -61.19569204 21.90745996 -63.8125 18.6796875 C-64.27140625 18.10573242 -64.7303125 17.53177734 -65.203125 16.94042969 C-79.52494329 -0.87331546 -96.64285572 -12.80816739 -116.8125 -23.3203125 C-116.8125 -23.9803125 -116.8125 -24.6403125 -116.8125 -25.3203125 C-74.00188226 -31.67932973 -34.2947556 -28.29317337 0 0 Z " fill="#326691" transform="translate(442.8125,66.3203125)"/>
<path d="M0 0 C6.36909163 6.04247155 7.71158078 14.51855602 9.125 22.8125 C9.37830078 24.21338867 9.37830078 24.21338867 9.63671875 25.64257812 C14.31453535 52.18089989 13.12688493 77.00281908 3 102 C1.73293877 105.14864454 0.46737392 108.29788104 -0.79663086 111.44775391 C-1.65839405 113.59004557 -2.52481772 115.73047065 -3.39672852 117.86865234 C-6.21459553 124.82900094 -8.70724879 131.84967109 -11 139 C-26.98803226 137.1410635 -39.96386314 132.0896966 -50.3125 119.1875 C-59.99893408 104.99379457 -63.56283339 89.82929906 -61.52319336 72.82641602 C-60.42853706 63.63973012 -59.85197207 54.63388085 -60.015625 45.37890625 C-60.03135056 44.40872559 -60.04707611 43.43854492 -60.0632782 42.43896484 C-60.13602038 38.46011366 -60.22209251 34.48234552 -60.34277344 30.50463867 C-60.42720648 27.54592453 -60.47415121 24.5884906 -60.515625 21.62890625 C-60.55286682 20.7331337 -60.59010864 19.83736115 -60.628479 18.91444397 C-60.67828678 12.88723169 -60.67828678 12.88723169 -58.74620056 10.35997009 C-44.52291238 -1.82144506 -16.80171877 -10.10083683 0 0 Z M-24 7 C-24.75191978 9.36891496 -24.75191978 9.36891496 -24 12 C-21.21463231 16.05867863 -18.91825161 18.99399399 -14 20 C-9.05450047 20.14439415 -5.94230329 19.74599011 -2 16.625 C0.14548256 14.10256146 0.14548256 14.10256146 1 11 C-0.84566901 7.97310282 -2.39726653 6.30871714 -5.5625 4.6875 C-11.98694859 3.40261028 -18.9316 2.1529784 -24 7 Z " fill="#326691" transform="translate(231,158)"/>
<path d="M0 0 C1.11052734 -0.00128906 2.22105469 -0.00257813 3.36523438 -0.00390625 C4.51958984 -0.00003906 5.67394531 0.00382813 6.86328125 0.0078125 C8.02923828 0.00394531 9.19519531 0.00007812 10.39648438 -0.00390625 C11.50314453 -0.00261719 12.60980469 -0.00132812 13.75 0 C15.27500122 0.00169189 15.27500122 0.00169189 16.83081055 0.00341797 C19.17578125 0.1328125 19.17578125 0.1328125 20.17578125 1.1328125 C20.13610279 3.50436379 20.02775653 5.83142652 19.86328125 8.1953125 C19.81695557 8.91920166 19.77062988 9.64309082 19.72290039 10.38891602 C19.39153115 15.15680755 18.81328158 19.8403103 18.11328125 24.5703125 C16.12890044 38.90597149 16.49365929 53.72444648 18.17578125 68.0703125 C19.09251472 75.93079718 19.4297895 83.71899182 19.48828125 91.6328125 C19.51438477 93.2259729 19.51438477 93.2259729 19.54101562 94.85131836 C19.53555066 103.59594937 19.01780558 113.19227914 13.17578125 120.1328125 C9.14060699 112.81844018 5.15108935 105.47986532 1.17578125 98.1328125 C0.62035645 97.11219727 0.06493164 96.09158203 -0.50732422 95.04003906 C-31.56771302 37.75270834 -31.56771302 37.75270834 -24.63671875 14.2578125 C-22.15814987 7.82041832 -17.79796479 4.83299871 -11.7890625 1.9296875 C-7.80767685 0.31497046 -4.29255246 0.00474652 0 0 Z M-14.82421875 11.1328125 C-14.73480621 14.53048884 -14.03388643 15.89773056 -11.76171875 18.4453125 C-8.04818539 20.5786189 -4.96310161 20.94277001 -0.82421875 20.1328125 C2.40385719 18.45899535 4.49183025 17.0843965 6.61328125 14.1328125 C7.32003094 11.61992471 7.34981533 10.48088067 6.17578125 8.1328125 C-0.36652371 4.49819863 -9.50133499 5.80992874 -14.82421875 11.1328125 Z " fill="#326691" transform="translate(376.82421875,151.8671875)"/>
<path d="M0 0 C3.82458206 2.72019693 6.34549568 5.91101213 7.75390625 10.40625 C8.17390722 14.61959308 7.59592784 17.11588824 5.21484375 20.6484375 C2.92942022 23.25923008 0.53917512 25.63692896 -2 28 C-2.85851562 28.88365234 -2.85851562 28.88365234 -3.734375 29.78515625 C-12.65359825 38.41737479 -25.70252129 40.92990514 -37.69921875 41.03125 C-46.02887381 40.68881814 -54.38056538 39.57546285 -62 36 C-62.495 34.515 -62.495 34.515 -63 33 C-61.89712646 32.72119995 -61.89712646 32.72119995 -60.77197266 32.43676758 C-57.38652375 31.57378394 -54.005862 30.69327473 -50.625 29.8125 C-48.89056641 29.37454102 -48.89056641 29.37454102 -47.12109375 28.92773438 C-38.07325822 26.55076063 -29.02335785 23.87330552 -22.4375 16.875 C-21.71304688 16.10929687 -20.98859375 15.34359375 -20.2421875 14.5546875 C-16.99583148 10.85587768 -13.89223898 7.0536368 -10.84765625 3.1875 C-7.62827935 -0.62402445 -4.86848281 -0.71830074 0 0 Z " fill="#326691" transform="translate(242,313)"/>
<path d="M0 0 C7.52591252 3.03531278 13.976768 3.88130014 22 3.875 C22.85819336 3.87564453 23.71638672 3.87628906 24.60058594 3.87695312 C34.43758496 3.79868406 44.17006707 2.78584587 53.9375 1.6875 C52.5722683 5.78319511 49.85901471 6.96250886 46.3125 9.0625 C45.6417041 9.46025635 44.9709082 9.8580127 44.27978516 10.26782227 C30.00270733 18.43591008 14.86564779 20.81264423 -1.375 20.9375 C-2.30642822 20.94692627 -3.23785645 20.95635254 -4.19750977 20.96606445 C-9.82323096 20.93938318 -14.66430719 20.28227677 -20.0625 18.6875 C-20.31980023 12.25499434 -20.40521424 6.81111898 -16.375 1.4375 C-10.77393103 -2.80114679 -6.27548257 -2.57829904 0 0 Z " fill="#326691" transform="translate(406.0625,313.3125)"/>
</svg>
