<?xml version="1.0" encoding="UTF-8"?>
<svg version="1.1" xmlns="http://www.w3.org/2000/svg" width="256" height="256">
<path d="M0 0 C3.95901739 4.36889214 5.20527973 7.69077833 5.25878906 13.60498047 C5.26839661 14.46622528 5.27800415 15.32747009 5.28790283 16.21481323 C5.29427765 17.59928146 5.29427765 17.59928146 5.30078125 19.01171875 C5.30648132 19.9684549 5.3121814 20.92519104 5.3180542 21.91091919 C5.32749109 23.93327737 5.33403297 25.95565083 5.33789062 27.97802734 C5.34759874 31.06375046 5.37863569 34.14880803 5.41015625 37.234375 C5.41668655 39.20181897 5.42193692 41.1692677 5.42578125 43.13671875 C5.43812805 44.05564911 5.45047485 44.97457947 5.4631958 45.9213562 C5.43856801 53.0406872 3.60504166 57.62645884 -0.90234375 63.20703125 C0.30421875 64.59921875 0.30421875 64.59921875 1.53515625 66.01953125 C4.48972862 69.42865322 5.13379821 71.51688588 4.89038086 76.16503906 C4.82749878 76.95769165 4.7646167 77.75034424 4.6998291 78.5670166 C2.51007035 97.85945515 2.51007035 97.85945515 7.20214844 116.02050781 C12.72826539 122.41553662 21.09440644 125.29966932 28.86328125 127.9934082 C36.00262752 130.67227975 43.16258324 134.51740714 47.09765625 141.20703125 C48.01069102 145.07150399 47.90364156 148.36080873 46.3046875 152.0234375 C41.41896283 158.83815378 32.33756502 162.41510754 25.09765625 166.20703125 C25.37480469 166.94308594 25.65195313 167.67914063 25.9375 168.4375 C26.29972656 169.41332031 26.66195312 170.38914063 27.03515625 171.39453125 C27.39480469 172.35746094 27.75445312 173.32039062 28.125 174.3125 C31.80027321 185.24975883 30.49703651 195.65400073 26.09765625 206.20703125 C24.41482335 209.24533745 22.48396478 211.69144189 20.09765625 214.20703125 C19.49566406 214.86058594 18.89367187 215.51414063 18.2734375 216.1875 C9.68503099 224.64503556 -4.51547209 232.43305275 -16.75090027 232.47445679 C-17.8959906 232.48298676 -19.04108093 232.49151672 -20.22087097 232.50030518 C-21.463069 232.4993988 -22.70526703 232.49849243 -23.98510742 232.49755859 C-25.30455353 232.50427582 -26.62399963 232.51099304 -27.98342896 232.51791382 C-31.59321992 232.53553591 -35.20291598 232.54026771 -38.81274581 232.54154539 C-41.07257995 232.54297018 -43.33239021 232.54724607 -45.5922184 232.55253983 C-53.48931017 232.57103053 -61.38633456 232.57921201 -69.28344727 232.57763672 C-76.62251775 232.57643693 -83.96129339 232.59750957 -91.30028933 232.62912405 C-97.61816598 232.6553612 -103.93594681 232.66600085 -110.25387746 232.6647259 C-114.01964494 232.66421826 -117.78515048 232.66979008 -121.55086327 232.691082 C-125.09771256 232.71058941 -128.6440535 232.71050483 -132.19092178 232.69604874 C-134.09603112 232.69299388 -136.00114118 232.70955099 -137.90617371 232.72692871 C-145.67084328 232.67073631 -151.80316932 231.33447845 -158.90234375 228.20703125 C-160.54203125 227.53800781 -160.54203125 227.53800781 -162.21484375 226.85546875 C-174.47488325 221.04620585 -183.15423005 213.06792915 -187.90234375 200.20703125 C-191.4095615 189.30843404 -189.86370371 178.41802591 -184.90234375 168.20703125 C-180.22655532 160.34610084 -173.07593999 154.29382937 -164.90234375 150.20703125 C-164.63679328 146.91799902 -164.53572474 143.6708694 -164.51171875 140.37304688 C-164.33885915 135.17285398 -163.05030357 132.49001244 -159.90234375 128.20703125 C-159.59274096 125.07025855 -159.59274096 125.07025855 -161.86914062 122.71289062 C-164.97306815 118.25240646 -164.47518677 113.3633131 -164.43359375 108.11328125 C-164.43742065 107.04839478 -164.44124756 105.9835083 -164.44519043 104.88635254 C-164.44790585 102.64053397 -164.44057069 100.39468358 -164.42382812 98.14892578 C-164.40241444 94.71835581 -164.42364366 91.28988011 -164.44921875 87.859375 C-164.44657541 85.67317248 -164.44145031 83.48697125 -164.43359375 81.30078125 C-164.44169067 80.2787561 -164.4497876 79.25673096 -164.45812988 78.20373535 C-164.3782531 72.11447073 -163.66917554 68.98383779 -159.90234375 64.20703125 C-159.59350425 61.07073666 -159.59350425 61.07073666 -161.86474609 58.70849609 C-164.95473827 54.26762251 -164.51329685 49.41644089 -164.50390625 44.18359375 C-164.5124765 43.12345062 -164.52104675 42.0633075 -164.52987671 40.97103882 C-164.54133656 38.73365122 -164.54238346 36.49618913 -164.53369141 34.25878906 C-164.52737631 30.84960719 -164.5742921 27.44390856 -164.625 24.03515625 C-164.62954714 21.8554731 -164.63095244 19.67578068 -164.62890625 17.49609375 C-164.64732574 16.48439117 -164.66574524 15.4726886 -164.6847229 14.43032837 C-164.59312739 7.36414558 -162.88333073 3.25153888 -157.90234375 -1.79296875 C-124.33911523 -29.15208533 -32.61722176 -30.74189895 0 0 Z " fill="#C1C2C3" transform="translate(207.90234375,23.79296875)"/>
<path d="M0 0 C0.01401855 1.39907593 0.01401855 1.39907593 0.02832031 2.82641602 C0.07254616 6.31397103 0.1342517 9.80033354 0.20751953 13.28735352 C0.23560373 14.79147193 0.25688032 16.29573448 0.27099609 17.80004883 C0.29260229 19.97291184 0.33933432 22.14406475 0.390625 24.31640625 C0.41157227 25.62037354 0.43251953 26.92434082 0.45410156 28.26782227 C1.22900175 33.56563051 3.18043955 37.36812149 7.234375 41.00390625 C20.47151397 49.20517713 34.80007906 53.25695088 50 56 C51.22847656 56.226875 52.45695312 56.45375 53.72265625 56.6875 C85.96984688 61.48956355 130.31279862 61.31274627 158.1171875 42.52734375 C161.20074339 40.02595298 164.12899156 37.54179826 166 34 C166.06574219 32.30617188 166.06574219 32.30617188 166.1328125 30.578125 C167 27 167 27 168.60229492 25.62475586 C170.79436902 24.34894964 173.00923834 23.2492336 175.3125 22.1875 C176.08529297 21.80658203 176.85808594 21.42566406 177.65429688 21.03320312 C179.09762761 20.32456869 180.54612718 19.62629451 182.0012207 18.94213867 C184.01702465 17.99197531 186.01023064 17.00337369 188 16 C193.99462383 27.18996448 195.84295406 37.20286537 192.375 49.6875 C190.44359813 55.38076127 188.12990178 59.64635637 184 64 C183.39800781 64.65355469 182.79601562 65.30710937 182.17578125 65.98046875 C173.58737474 74.43800431 159.38687166 82.2260215 147.15144348 82.26742554 C146.00635315 82.27595551 144.86126282 82.28448547 143.68147278 82.29327393 C142.43927475 82.29236755 141.19707672 82.29146118 139.91723633 82.29052734 C138.59779022 82.29724457 137.27834412 82.30396179 135.91891479 82.31088257 C132.30912383 82.32850466 128.69942777 82.33323646 125.08959794 82.33451414 C122.8297638 82.33593893 120.56995354 82.34021482 118.31012535 82.34550858 C110.41303358 82.36399928 102.51600919 82.37218076 94.61889648 82.37060547 C87.279826 82.36940568 79.94105036 82.39047832 72.60205442 82.4220928 C66.28417777 82.44832995 59.96639694 82.4589696 53.64846629 82.45769465 C49.88269881 82.45718701 46.11719327 82.46275883 42.35148048 82.48405075 C38.80463119 82.50355816 35.25829025 82.50347358 31.71142197 82.48901749 C29.80631263 82.48596263 27.90120257 82.50251974 25.99617004 82.51989746 C18.23150047 82.46370506 12.09917443 81.1274472 5 78 C3.3603125 77.33097656 3.3603125 77.33097656 1.6875 76.6484375 C-10.5725395 70.8391746 -19.2518863 62.8608979 -24 50 C-27.50721775 39.10140279 -25.96135996 28.21099466 -21 18 C-17.3890283 11.92923831 -7.78429068 0 0 0 Z " fill="#373737" transform="translate(44,174)"/>
<path d="M0 0 C1.36323498 0.72892297 2.71974949 1.47051408 4.0703125 2.22265625 C4.81369873 2.62669678 5.55708496 3.0307373 6.32299805 3.44702148 C11.96052517 6.53615078 17.51357341 9.76566862 23.03564453 13.0559082 C27.67499435 15.81742595 32.34322346 18.52419178 37.03515625 21.1953125 C37.64241043 21.54112869 38.24966461 21.88694489 38.87532043 22.24324036 C41.3223705 23.63586116 43.76986903 25.02766166 46.21987915 26.41506958 C55.69663011 31.781855 65.1297365 37.24143892 74.1953125 43.28515625 C68.84411009 38.3652666 63.30058825 34.84234576 56.9453125 31.34765625 C55.08101443 30.30128876 53.21772343 29.25312487 51.35546875 28.203125 C50.46746582 27.70345215 49.57946289 27.2037793 48.66455078 26.68896484 C38.68784089 21.01701686 38.68784089 21.01701686 35.1953125 18.28515625 C35.1953125 17.62515625 35.1953125 16.96515625 35.1953125 16.28515625 C39.92689968 17.99638244 44.19594995 20.39321226 48.5703125 22.84765625 C49.35817139 23.28948242 50.14603027 23.73130859 50.95776367 24.18652344 C53.37344936 25.54721321 55.78469102 26.91551875 58.1953125 28.28515625 C58.92862793 28.69813965 59.66194336 29.11112305 60.41748047 29.53662109 C62.45564783 30.68940517 64.48308685 31.85895755 66.5078125 33.03515625 C67.11093262 33.37490479 67.71405273 33.71465332 68.33544922 34.06469727 C73.05011849 36.84820915 77.25432861 40.17833233 78.89453125 45.59375 C78.89066406 46.29628906 78.88679688 46.99882812 78.8828125 47.72265625 C78.90730469 48.42261719 78.93179688 49.12257812 78.95703125 49.84375 C76.12204655 58.93023942 66.85170145 62.67866469 59.0703125 66.78515625 C56.73370402 68.0443286 54.39776174 69.30473799 52.0625 70.56640625 C50.9185376 71.1807251 49.7745752 71.79504395 48.59594727 72.42797852 C43.39587757 75.26787587 38.29684943 78.27299592 33.1953125 81.28515625 C30.58738013 82.79405309 27.97823865 84.29959694 25.35473633 85.78125 C21.22996875 88.11166428 17.14137965 90.49622828 13.0625 92.90625 C10.83626499 94.19978254 8.60970001 95.49274735 6.3828125 96.78515625 C4.7901355 97.73950562 4.7901355 97.73950562 3.1652832 98.71313477 C-3.16214484 102.35126949 -7.47501463 104.32808483 -14.8046875 103.28515625 C-17.8046875 100.84765625 -17.8046875 100.84765625 -19.8046875 98.28515625 C-20.1346875 97.95515625 -20.4646875 97.62515625 -20.8046875 97.28515625 C-20.89983342 94.57677539 -20.93023682 91.89397112 -20.91821289 89.18530273 C-20.91835892 88.33659607 -20.91850494 87.4878894 -20.9186554 86.61346436 C-20.91795598 83.79436734 -20.91016228 80.97533554 -20.90234375 78.15625 C-20.90047967 76.20711808 -20.89905572 74.2579857 -20.89805603 72.30885315 C-20.89423005 67.16808793 -20.88439909 62.02735078 -20.87335205 56.88659668 C-20.86313965 51.64510477 -20.85855878 46.40360835 -20.85351562 41.16210938 C-20.84277689 30.86977931 -20.82569951 20.57747011 -20.8046875 10.28515625 C-20.1446875 10.28515625 -19.4846875 10.28515625 -18.8046875 10.28515625 C-18.69511719 9.67027344 -18.58554688 9.05539063 -18.47265625 8.421875 C-18.31410156 7.61363281 -18.15554687 6.80539063 -17.9921875 5.97265625 C-17.84136719 5.17214844 -17.69054687 4.37164062 -17.53515625 3.546875 C-16.71089917 0.99476351 -15.89743109 -0.06801163 -13.8046875 -1.71484375 C-8.85276975 -3.365483 -4.58427147 -2.25947426 0 0 Z " fill="#4394BC" transform="translate(176.8046875,121.71484375)"/>
<path d="M0 0 C0 0.66 0 1.32 0 2 C1.155 2.061875 2.31 2.12375 3.5 2.1875 C17.15342355 3.73560472 33.1598724 9.18434239 42.6953125 19.2890625 C45.43391202 22.8803996 46.25106172 25.48088911 46 30 C44 29 44 29 42.75 26.75 C35.44998351 15.27854552 19.38605913 11.41258503 6.87695312 8.50683594 C-6.83641633 5.57006903 -20.27052462 4.76063681 -34.25 4.75 C-35.04757721 4.74932526 -35.84515442 4.74865051 -36.66690063 4.74795532 C-59.03731745 4.7779436 -80.39249401 7.12369425 -100.75 16.9375 C-101.40597168 17.24905029 -102.06194336 17.56060059 -102.73779297 17.8815918 C-107.31926401 20.22730975 -109.89836041 22.89981097 -113 27 C-113.66 27.66 -114.32 28.32 -115 29 C-115.28417024 25.54010272 -115.35888036 23.57607289 -113.49609375 20.5859375 C-109.30222832 16.08171011 -105.61850138 12.58451063 -100 10 C-99.34 10 -98.68 10 -98 10 C-97.77699219 9.38125 -97.55398437 8.7625 -97.32421875 8.125 C-94.7817883 4.04511161 -89.72586366 3.60877907 -85.27587891 2.51318359 C-62.57212164 -2.60624333 -21.89239416 -10.94619708 0 0 Z " fill="#EEEFEF" transform="translate(163,7)"/>
<path d="M0 0 C0.28515625 2.265625 0.28515625 2.265625 0 5 C-1.94140625 6.921875 -1.94140625 6.921875 -4.5625 8.75 C-12.78498865 14.96927612 -18.2745586 21.64735161 -20 32 C-20.9699575 41.53563856 -19.53421629 49.97705316 -13.75 57.75 C-2.49686418 71.06192158 14.98851206 78.12529528 32 81 C32 81.33 32 81.66 32 82 C22.12629119 82.44598936 14.10985555 82.31235766 5 78 C4.02546875 77.5875 3.0509375 77.175 2.046875 76.75 C-9.24883831 71.65244732 -17.85184934 64.39722389 -22.9140625 52.94140625 C-26.99688683 41.88253316 -26.66389346 31.60308576 -22.27734375 20.62890625 C-18.85372625 13.58274547 -8.78457179 0 0 0 Z " fill="#000000" transform="translate(44,174)"/>
<path d="M0 0 C5.06177265 1.0076677 9.16647073 3.86006607 13.53125 6.50390625 C15.44804788 7.59402098 17.37350283 8.66764676 19.30029297 9.73999023 C21.34855755 10.88158573 23.38968865 12.03511485 25.4296875 13.19140625 C28.15317175 14.73285422 30.88761513 16.25149387 33.6328125 17.75390625 C34.91147843 18.4622033 36.19012512 19.1705351 37.46875 19.87890625 C38.61214844 20.50539062 39.75554687 21.131875 40.93359375 21.77734375 C43.53125 23.50390625 43.53125 23.50390625 44.53125 26.50390625 C47.18868206 28.30999529 47.18868206 28.30999529 50.53125 30.06640625 C51.80520572 30.77380713 53.07861889 31.48218573 54.3515625 32.19140625 C55.02864258 32.56523437 55.70572266 32.9390625 56.40332031 33.32421875 C76.8401715 44.6540564 76.8401715 44.6540564 83.53125 51.50390625 C83.20125 52.49390625 82.87125 53.48390625 82.53125 54.50390625 C81.99040771 53.75246338 81.44956543 53.00102051 80.89233398 52.22680664 C78.35608038 49.30189334 76.12320963 47.81579135 72.75390625 45.9375 C71.61123291 45.29329102 70.46855957 44.64908203 69.29125977 43.98535156 C68.05882931 43.30390479 66.82632434 42.62259274 65.59375 41.94140625 C64.32224143 41.22859735 63.05133206 40.51471862 61.78100586 39.79980469 C59.22898762 38.36494427 56.67430181 36.93503507 54.1171875 35.50927734 C49.2545925 32.7949299 44.42413353 30.02504801 39.59375 27.25390625 C37.92590244 26.301871 36.25793427 25.350047 34.58984375 24.3984375 C30.99269119 22.3436286 27.40304618 20.27622587 23.81640625 18.203125 C22.86950928 17.6575293 21.9226123 17.11193359 20.94702148 16.54980469 C19.14393368 15.51063555 17.34253847 14.46852148 15.54321289 13.42285156 C7.17366224 8.31139427 7.17366224 8.31139427 -2.21875 6.56640625 C-5.43881813 7.24002446 -5.43881813 7.24002446 -7.28125 9.12890625 C-8.79800027 12.16240679 -9.64786683 15.22037358 -10.46875 18.50390625 C-11.12875 18.50390625 -11.78875 18.50390625 -12.46875 18.50390625 C-12.46875 45.89390625 -12.46875 73.28390625 -12.46875 101.50390625 C-12.79875 101.50390625 -13.12875 101.50390625 -13.46875 101.50390625 C-13.53828885 89.7426422 -13.59158113 77.98142715 -13.62418652 66.21999931 C-13.6398362 60.75857146 -13.66106195 55.29728435 -13.69506836 49.8359375 C-13.72768635 44.56452172 -13.74560827 39.29324125 -13.75338173 34.02173233 C-13.75892083 32.01150508 -13.76973734 30.00128515 -13.78594017 27.99111557 C-13.8077467 25.17343952 -13.81071555 22.3563212 -13.80932617 19.53857422 C-13.820112 18.70922867 -13.83089783 17.87988312 -13.8420105 17.02540588 C-13.80988653 10.9968083 -12.27530603 7.14425737 -8.84375 2.12890625 C-5.7617901 0.02019684 -3.69230986 -0.1858143 0 0 Z " fill="#70ABCC" transform="translate(168.46875,113.49609375)"/>
<path d="M0 0 C5.26658704 4.3460661 6.49757857 12.3785861 7.39453125 18.84375 C7.77930394 28.53432138 5.06756312 38.71209232 -1.26953125 46.17578125 C-1.84058594 46.77777344 -2.41164062 47.37976563 -3 48 C-3.60199219 48.65355469 -4.20398438 49.30710938 -4.82421875 49.98046875 C-12.89945596 57.93265472 -26.74134063 65.9665842 -38.3046875 66.1953125 C-39.82824867 66.18217835 -41.35175194 66.15856309 -42.875 66.125 C-43.65875 66.11597656 -44.4425 66.10695313 -45.25 66.09765625 C-47.16680055 66.07428063 -49.08344191 66.03841653 -51 66 C-51 65.67 -51 65.34 -51 65 C-50.09121094 64.78085938 -49.18242187 64.56171875 -48.24609375 64.3359375 C-32.60960545 60.39073122 -14.15140671 55.36948007 -4.375 41.4375 C0.80835039 32.45613912 3.18135598 24.05376642 0.6875 13.8125 C-0.42012633 9.83419074 -1.59691611 5.88546308 -3 2 C-2.01 1.34 -1.02 0.68 0 0 Z " fill="#000000" transform="translate(231,190)"/>
<path d="M0 0 C2.62201994 1.02253065 4.91760676 2.05546106 7.375 3.375 C8.06126465 3.73078125 8.7475293 4.0865625 9.45458984 4.453125 C16.79903743 8.31424405 23.91550644 12.56798552 31.03173828 16.83007812 C33.85413751 18.50769374 36.70672043 20.12999414 39.5625 21.75 C46.17730423 25.52328763 52.78222275 29.31334072 59.375 33.125 C60.39795166 33.71120117 61.42090332 34.29740234 62.47485352 34.90136719 C69.05274459 38.71547915 75.59277547 42.59277547 81 48 C80.67 48.99 80.34 49.98 80 51 C79.45915771 50.24855713 78.91831543 49.49711426 78.36108398 48.72290039 C75.82483038 45.79798709 73.59195963 44.3118851 70.22265625 42.43359375 C69.07998291 41.78938477 67.93730957 41.14517578 66.76000977 40.48144531 C65.52757931 39.79999854 64.29507434 39.11868649 63.0625 38.4375 C61.79099143 37.7246911 60.52008206 37.01081237 59.24975586 36.29589844 C56.69773762 34.86103802 54.14305181 33.43112882 51.5859375 32.00537109 C46.7233425 29.29102365 41.89288353 26.52114176 37.0625 23.75 C35.39465244 22.79796475 33.72668427 21.84614075 32.05859375 20.89453125 C28.46144119 18.83972235 24.87179618 16.77231962 21.28515625 14.69921875 C20.33825928 14.15362305 19.3913623 13.60802734 18.41577148 13.04589844 C16.61268368 12.0067293 14.81128847 10.96461523 13.01196289 9.91894531 C4.64241224 4.80748802 4.64241224 4.80748802 -4.75 3.0625 C-8.3751737 4.10822318 -9.20085295 4.78047369 -11 8 C-11.66 8.99 -12.32 9.98 -13 11 C-12.73409107 7.18863862 -12.17089833 5.23121539 -9.875 2.125 C-6.19002324 -0.59867847 -4.52218182 -0.41110744 0 0 Z " fill="#A4DFF6" transform="translate(171,117)"/>
<path d="M0 0 C0 0.66 0 1.32 0 2 C-1.37478516 1.7834375 -1.37478516 1.7834375 -2.77734375 1.5625 C-34.68747479 -2.94571266 -67.5715209 -0.67665933 -98 10 C-97.01536933 7.26807675 -96.40363884 6.20358667 -93.76953125 4.875 C-69.4770941 -2.31325089 -23.88896873 -11.94448437 0 0 Z " fill="#E0E2E4" transform="translate(163,7)"/>
<path d="M0 0 C-0.99 2.97 -1.98 5.94 -3 9 C-3.99 8.67 -4.98 8.34 -6 8 C-6.05429959 9.74965358 -6.09292823 11.49979787 -6.125 13.25 C-6.15980469 14.71179688 -6.15980469 14.71179688 -6.1953125 16.203125 C-5.99606076 19.05640989 -5.45436652 20.57783811 -4 23 C-2.51014449 25.73140176 -2 26.80601677 -2 30 C-0.56249809 31.68798827 -0.56249809 31.68798827 1 33 C0.67 33.66 0.34 34.32 0 35 C-5.68767937 31.36620485 -7.73658521 26.25267069 -9.59765625 19.98828125 C-10.83952509 13.85127892 -10.2498801 7.80232235 -8 2 C-4.77208445 -0.1519437 -3.71599191 -0.20086443 0 0 Z " fill="#313131" transform="translate(34,198)"/>
<path d="M0 0 C0.33 0.66 0.66 1.32 1 2 C0.2578125 4.0234375 0.2578125 4.0234375 -0.875 6.375 C-4.13201109 13.18511409 -5.33287134 19.58813765 -3.10546875 26.9609375 C-2.38930143 28.88927494 -1.64727723 30.80828434 -0.875 32.71484375 C0 35 0 35 0 37 C0.99 37.33 1.98 37.66 3 38 C3.4125 38.721875 3.825 39.44375 4.25 40.1875 C9.4249901 48.50444838 18.45528384 51.99429395 27 56 C23.09067073 57.30310976 22.07819014 56.41923843 18.4375 54.625 C8.16218279 49.26342407 -0.97927081 41.4155988 -4.8125 30.25 C-7.18254833 21.31153203 -6.68948352 12.51769653 -3 4 C-2.04188401 2.63625826 -1.05154206 1.29307273 0 0 Z " fill="#545454" transform="translate(29,192)"/>
<path d="M0 0 C0.66 0.33 1.32 0.66 2 1 C-4.44482254 5.74241659 -11.27670471 8.35789033 -18.8125 10.875 C-20.19151489 11.34015015 -20.19151489 11.34015015 -21.59838867 11.81469727 C-25.9114461 13.21138518 -29.4286631 14.17112769 -34 14 C-30.46588679 11.87953208 -27.05606165 11.46800711 -23 11 C-22.67 10.01 -22.34 9.02 -22 8 C-20.75 6.25 -20.75 6.25 -19 5 C-18.24332031 5.17660156 -17.48664063 5.35320312 -16.70703125 5.53515625 C-13.44330231 6.09559455 -11.94311863 5.50216781 -8.9375 4.1875 C-8.10089844 3.83042969 -7.26429688 3.47335938 -6.40234375 3.10546875 C-4.84816836 2.39029536 -3.31597085 1.62433462 -1.81640625 0.80078125 C-1.21699219 0.53652344 -0.61757812 0.27226562 0 0 Z " fill="#4C4C4C" transform="translate(214,241)"/>
<path d="M0 0 C0.33 1.32 0.66 2.64 1 4 C0.030625 4.53625 -0.93875 5.0725 -1.9375 5.625 C-5.64181921 8.49773735 -5.32857677 9.58779021 -6 14 C-8.4375 15.25 -8.4375 15.25 -11 16 C-11.66 16.66 -12.32 17.32 -13 18 C-13.49223201 14.55437595 -13.74243296 12.03725416 -11.65234375 9.1171875 C-8.11107327 5.52143594 -4.30051497 2.62226522 0 0 Z " fill="#404040" transform="translate(43,179)"/>
<path d="M0 0 C5.05336023 5.28305843 5.21504671 13.01516068 5.265625 19.95703125 C4.96012776 22.30666446 4.1610009 23.94981984 3 26 C2.97421875 25.03320312 2.9484375 24.06640625 2.921875 23.0703125 C2.5681069 14.94972662 1.73289583 8.37898014 -2 1 C-1.34 0.67 -0.68 0.34 0 0 Z " fill="#2D2D2D" transform="translate(226,193)"/>
<path d="M0 0 C4.48186439 0.7257471 4.48186439 0.7257471 9 1 C9 1.66 9 2.32 9 3 C11.64 2.67 14.28 2.34 17 2 C16.67 2.66 16.34 3.32 16 4 C9.45262159 4.15856416 3.38367188 3.61020183 -3.0625 2.5 C-3.92810547 2.35691406 -4.79371094 2.21382812 -5.68554688 2.06640625 C-7.7914397 1.71736324 -9.89588495 1.35960461 -12 1 C-12 0.67 -12 0.34 -12 0 C-7.62289975 -0.93795005 -4.37042061 -0.89192257 0 0 Z " fill="#414141" transform="translate(89,252)"/>
<path d="M0 0 C3.29680965 0.65784963 5.84117922 1.89420573 8.75 3.5625 C9.94882813 4.24505859 9.94882813 4.24505859 11.171875 4.94140625 C11.77515625 5.29074219 12.3784375 5.64007813 13 6 C12.67 6.99 12.34 7.98 12 9 C9.99492073 7.88407791 7.99603904 6.75701288 6 5.625 C4.88625 4.99851563 3.7725 4.37203125 2.625 3.7265625 C1.75875 3.15679687 0.8925 2.58703125 0 2 C0 1.34 0 0.68 0 0 Z " fill="#65A4C6" transform="translate(199,131)"/>
<path d="M0 0 C0.33 0 0.66 0 1 0 C1 4.62 1 9.24 1 14 C-3 9 -3 9 -2.875 6.4375 C-2.06345953 4.17678012 -1.1659543 2.09871775 0 0 Z " fill="#303030" transform="translate(227,205)"/>
<path d="M0 0 C4.92307692 4.30769231 4.92307692 4.30769231 5.3125 7.8125 C5.209375 8.534375 5.10625 9.25625 5 10 C2.03595495 7.19195732 -0.44499019 4.81684226 -2 1 C-1.34 0.67 -0.68 0.34 0 0 Z " fill="#D5D6D8" transform="translate(203,88)"/>
<path d="M0 0 C1.6266848 0.28211877 3.25132896 0.57602375 4.875 0.875 C5.77992187 1.03742188 6.68484375 1.19984375 7.6171875 1.3671875 C10 2 10 2 12 4 C10.741875 4.020625 9.48375 4.04125 8.1875 4.0625 C7.47980469 4.07410156 6.77210937 4.08570313 6.04296875 4.09765625 C4 4 4 4 1 3 C0.67 2.01 0.34 1.02 0 0 Z " fill="#303030" transform="translate(61,248)"/>
<path d="M0 0 C0 0.66 0 1.32 0 2 C1.98 2 3.96 2 6 2 C5 4 5 4 2.6875 4.875 C0 5 0 5 -2.3125 3.0625 C-2.869375 2.381875 -3.42625 1.70125 -4 1 C-2 0 -2 0 0 0 Z " fill="#2F2F2F" transform="translate(207,238)"/>
<path d="M0 0 C0.33 1.32 0.66 2.64 1 4 C-1.97 6.475 -1.97 6.475 -5 9 C-5.66 8.67 -6.32 8.34 -7 8 C-4.69 5.36 -2.38 2.72 0 0 Z " fill="#2C2C2C" transform="translate(225,227)"/>
</svg>
