<?xml version="1.0" encoding="UTF-8"?>
<svg version="1.1" xmlns="http://www.w3.org/2000/svg" width="500" height="500">
<path d="M0 0 C0.97598145 0.21527344 1.95196289 0.43054687 2.95751953 0.65234375 C72.45334788 16.10798894 72.45334788 16.10798894 90 42 C93.59779557 48.68820971 95.12732633 54.61793576 95.11860371 62.22797012 C95.11957815 63.48988088 95.1205526 64.75179163 95.12155658 66.05194211 C95.11753823 67.44985053 95.1134181 68.84775865 95.10920715 70.2456665 C95.10837683 71.7326203 95.10797816 73.21957439 95.10797423 74.70652843 C95.1066415 78.79383864 95.09894352 82.88111589 95.09015882 86.96841598 C95.0817448 91.37617259 95.07908245 95.78393344 95.07556152 100.19169617 C95.06571998 110.83566612 95.04608477 121.47960961 95.02530077 132.12356293 C95.01571501 137.1362555 95.00714353 142.1489498 94.99844933 147.16164398 C94.96914997 163.82444284 94.93735132 180.48723403 94.89822865 197.15001297 C94.88810832 201.47289272 94.87799686 205.79577249 94.86791992 210.11865234 C94.86541305 211.19307597 94.86290617 212.26749961 94.86032333 213.37448153 C94.82016126 230.78566718 94.79699137 248.19683177 94.78094129 265.60805467 C94.76419372 283.48396526 94.73249748 301.35979984 94.68605727 319.23565841 C94.66035016 329.27229667 94.64118342 339.30885434 94.63868141 349.34552765 C94.63649989 357.89154228 94.6207677 366.43739627 94.58734892 374.98334822 C94.57071364 379.34293973 94.5604994 383.70229536 94.56765556 388.06191826 C94.57405831 392.05559487 94.56200076 396.04878097 94.53545066 400.04237053 C94.52907796 401.48448421 94.52938265 402.92664671 94.53716633 404.36875346 C94.57708378 412.53400674 94.08312643 418.85456606 90 426 C89.66044574 426.70438745 89.32089148 427.4087749 88.9710477 428.13450742 C87.00248707 431.91633528 83.24120598 434.32911075 80 437 C79.36320312 437.55816406 78.72640625 438.11632812 78.0703125 438.69140625 C25.68244577 482.61975364 -70.99854147 481.27102358 -134.95703125 475.8828125 C-167.93716312 472.54807499 -200.59880047 466.57863449 -231 453 C-231.7307373 452.67386719 -232.46147461 452.34773438 -233.21435547 452.01171875 C-249.1952799 444.74667545 -264.19910842 435.35655026 -270.97025859 418.43329358 C-272.80258128 412.32408824 -272.68514929 406.24385012 -272.62818909 399.91928101 C-272.63324404 398.42698969 -272.64048016 396.93470447 -272.64968723 395.442433 C-272.66850142 391.37267582 -272.65643773 387.30352494 -272.6389643 383.23378372 C-272.6255352 378.83291296 -272.64104706 374.4321277 -272.65278625 370.03126526 C-272.6711251 361.42277575 -272.66267608 352.81451386 -272.64469803 344.20603155 C-272.63065036 337.20838935 -272.62678389 330.21080878 -272.6301403 323.21315384 C-272.63061775 322.21576154 -272.63109519 321.21836924 -272.6315871 320.19075293 C-272.63261347 318.16435164 -272.63366883 316.13795036 -272.63475286 314.11154909 C-272.6433121 296.21038833 -272.62666917 278.30933721 -272.59692383 260.40820312 C-272.56807968 243.04910682 -272.56100801 225.69016839 -272.57641602 208.33105469 C-272.59318578 189.41192473 -272.59720513 170.49286966 -272.57970566 151.57373774 C-272.57786133 149.55556338 -272.5760266 147.53738901 -272.57420158 145.51921463 C-272.57328949 144.5263178 -272.5723774 143.53342096 -272.57143768 142.51043635 C-272.56583778 135.52235988 -272.56913428 128.53432005 -272.57574654 121.54624557 C-272.58348641 113.0286218 -272.57670328 104.5111533 -272.5515715 95.99356078 C-272.53909267 91.64998951 -272.53291034 87.30665979 -272.54411316 82.96307945 C-272.55418396 78.9832124 -272.54563596 75.00382616 -272.52253198 71.02401741 C-272.5173902 69.58814577 -272.51890282 68.15223074 -272.52792663 66.71637826 C-272.60598191 53.1638589 -269.53679614 43.78735236 -260 34 C-224.42082624 2.60046486 -165.9776942 -5.28389201 -120.15802002 -6.92248535 C-117.86801867 -7.00474068 -115.57832067 -7.09356276 -113.28857422 -7.18261719 C-75.41918677 -8.61875245 -37.1437817 -8.38045877 0 0 Z " fill="#2686CE" transform="translate(334,15)"/>
<path d="M0 0 C1.51722224 2.99712922 2.86893274 6.00809236 4.125 9.125 C4.47820312 9.99382812 4.83140625 10.86265625 5.1953125 11.7578125 C6 14 6 14 6 16 C6.66 16 7.32 16 8 16 C9.55078125 17.609375 9.55078125 17.609375 11.3125 19.75 C35.44592908 49.03550944 87.83686255 56.37347039 123.1875 60.875 C123.98718201 60.97827606 124.78686401 61.08155212 125.61077881 61.18795776 C144.08726775 63.53951522 162.58334984 64.12070328 181.1875 64.5625 C182.9316466 64.60588026 184.67578728 64.64949921 186.41992188 64.69335938 C190.6132186 64.79830559 194.80658044 64.90008784 199 65 C199 65.33 199 65.66 199 66 C193.06 66 187.12 66 181 66 C181 97.02 181 128.04 181 160 C176.38 161.65 171.76 163.3 167 165 C160.90050491 168.38860838 154.92637427 172.1104386 151 178 C150.34 178 149.68 178 149 178 C148.59587891 179.06154297 148.59587891 179.06154297 148.18359375 180.14453125 C146.96151146 183.0928552 145.54506891 185.86194246 144.0625 188.6875 C136.71935783 203.26632373 134.80082569 219.1338016 139 235 C139.4021875 236.57974609 139.4021875 236.57974609 139.8125 238.19140625 C141.61780037 244.68296551 143.77729617 249.88852137 147.828125 255.29296875 C149 257 149 257 149 259 C149.556875 259.226875 150.11375 259.45375 150.6875 259.6875 C153 261 153 261 155.125 263.25 C161.28188355 269.13919296 168.53823445 272.47626451 176.5546875 275.140625 C178.82062092 275.93695943 180.88077249 276.87631657 183 278 C182.34 278 181.68 278 181 278 C181 323.87 181 369.74 181 417 C133.37457716 417 84.98064491 412.64386641 41 393 C40.2692627 392.67386719 39.53852539 392.34773438 38.78564453 392.01171875 C22.7977008 384.74348443 7.80209056 375.35293778 1.0280968 358.42354059 C-0.79105506 352.36580337 -0.67112664 346.35084125 -0.60127258 340.07977295 C-0.60345742 338.60510746 -0.6078435 337.1304439 -0.61421841 335.65579057 C-0.62532071 331.63509063 -0.60550778 327.61506529 -0.58032811 323.59445119 C-0.55862845 319.24697467 -0.56605022 314.89953269 -0.56983948 310.55201721 C-0.57245449 303.03014954 -0.5568379 295.50849962 -0.52865028 287.98668671 C-0.48792308 277.11159953 -0.47498365 266.23661708 -0.46871033 255.36146191 C-0.45778159 237.7150361 -0.42454599 220.0687262 -0.37719727 202.42236328 C-0.33126487 185.28597593 -0.29589098 168.14962012 -0.2746582 151.01318359 C-0.27334459 149.95595285 -0.27203097 148.8987221 -0.27067754 147.80945405 C-0.26415211 142.50535657 -0.25783363 137.20125886 -0.25161803 131.89716101 C-0.19982927 87.93136041 -0.11180273 43.9656862 0 0 Z " fill="#0072C5" transform="translate(62,75)"/>
<path d="M0 0 C1.95014622 0.33825108 3.90263767 0.66307508 5.85644531 0.97949219 C29.56148686 4.8201269 62.93299694 10.35170262 78.27392578 31.10107422 C80.51617274 34.82381849 80.8406191 37.09998765 80.69970703 41.46826172 C77.22420172 52.66711217 69.049269 57.56061208 59.17236328 62.81201172 C35.44027661 74.22096556 9.17957974 78.13413396 -16.71630859 81.06152344 C-19.76297947 81.40728323 -22.80459418 81.78019455 -25.84716797 82.15966797 C-53.20584877 85.30425438 -81.52258016 84.48502453 -108.86279297 81.65576172 C-109.66248505 81.57308044 -110.46217712 81.49039917 -111.28610229 81.4052124 C-127.35116993 79.70074562 -143.39606732 77.52989864 -159.05029297 73.46826172 C-160.55076172 73.09701172 -160.55076172 73.09701172 -162.08154297 72.71826172 C-167.41411156 71.36395858 -172.30721953 69.77275715 -177.30029297 67.46826172 C-178.90217972 66.8374412 -180.50613816 66.21183751 -182.11279297 65.59326172 C-193.29786937 61.11244204 -204.36741703 56.63185969 -209.51904297 45.05810547 C-211.18150592 39.54704079 -210.24443093 35.32022464 -207.67529297 30.28076172 C-201.42473529 22.87878552 -193.9359151 17.89952822 -184.91357422 14.46435547 C-183.27464389 13.83965108 -181.64490311 13.18963643 -180.03076172 12.50341797 C-165.51986734 6.34803006 -150.54224531 3.39065148 -135.05004883 0.92358398 C-132.27421227 0.46394311 -129.51353707 -0.05297858 -126.74951172 -0.57861328 C-121.51109215 -1.53920708 -116.29205719 -2.14058088 -110.98779297 -2.59423828 C-110.04266846 -2.67657715 -109.09754395 -2.75891602 -108.1237793 -2.84375 C-72.46647597 -5.82577172 -35.36692807 -6.16131669 0 0 Z " fill="#B7D331" transform="translate(310.30029296875,30.53173828125)"/>
<path d="M0 0 C0.97598145 0.21527344 1.95196289 0.43054687 2.95751953 0.65234375 C72.45334788 16.10798894 72.45334788 16.10798894 90 42 C93.95979276 49.3611532 95.92753062 56.60506181 95 65 C94.34 65.99 93.68 66.98 93 68 C92.51144531 68.80953125 92.02289063 69.6190625 91.51953125 70.453125 C78.63801159 91.55877277 53.29865557 103.55131622 29.7578125 109.26171875 C27.38739664 109.89629183 25.11528906 110.63208196 22.796875 111.4296875 C5.46283254 117.2691445 -12.94262179 119.59895439 -31 122 C-31.85029785 122.11472656 -32.7005957 122.22945312 -33.57666016 122.34765625 C-50.66140966 124.62226373 -67.67650946 125.16711425 -84.89208984 125.13037109 C-87.86430997 125.12501925 -90.83637821 125.13034797 -93.80859375 125.13671875 C-112.17766725 125.14557072 -130.27636179 124.27579891 -148.5 121.9375 C-149.32219025 121.83350891 -150.14438049 121.72951782 -150.9914856 121.62237549 C-163.62308013 119.99885669 -176.03137163 117.74813628 -188.4375 114.875 C-189.54085693 114.62035477 -189.54085693 114.62035477 -190.66650391 114.36056519 C-197.95985902 112.65861102 -205.04547616 110.80499128 -212 108 C-213.2740435 107.57207699 -214.55154453 107.15433227 -215.83203125 106.74609375 C-230.41775 102.00281509 -245.61123963 95.52410394 -257 85 C-257.68707031 84.36835937 -258.37414062 83.73671875 -259.08203125 83.0859375 C-262.57087662 79.74160052 -262.57087662 79.74160052 -264 78 C-264 77.34 -264 76.68 -264 76 C-264.66 76 -265.32 76 -266 76 C-270.71577035 67.19722868 -273.17671566 60.01929414 -271 50 C-266.03902996 35.27886064 -250.81581774 25.68010361 -237.62109375 19.10546875 C-201.15615851 1.95469276 -160.1975527 -5.49060019 -120.15802002 -6.92248535 C-117.86801867 -7.00474068 -115.57832067 -7.09356276 -113.28857422 -7.18261719 C-75.41918677 -8.61875245 -37.1437817 -8.38045877 0 0 Z M-119 11.875 C-119.72213684 11.91420563 -120.44427368 11.95341125 -121.18829346 11.99380493 C-135.42860064 12.78312992 -149.61932784 14.10035783 -163.625 16.875 C-164.50760498 17.04717041 -165.39020996 17.21934082 -166.29956055 17.39672852 C-173.97037547 18.92838401 -181.49169768 20.79594996 -189 23 C-190.0194873 23.29608154 -190.0194873 23.29608154 -191.05957031 23.59814453 C-198.69454124 25.83068404 -206.01399808 28.11888782 -213 32 C-213.99 32.45375 -214.98 32.9075 -216 33.375 C-223.27235496 37.31419227 -229.12020054 42.15670091 -233.375 49.3125 C-234.64173528 54.75946169 -233.59827455 59.49130766 -231.5625 64.625 C-225.02031203 74.72930456 -208.88001806 81.37115984 -197.57421875 84.296875 C-195.27635061 84.92451728 -193.06047748 85.65277223 -190.80859375 86.42578125 C-172.14627451 92.68933292 -152.47556598 94.85436497 -133 97 C-131.43354736 97.18006592 -131.43354736 97.18006592 -129.83544922 97.36376953 C-101.76751875 100.49904194 -73.1893604 99.99380542 -45.125 97.1875 C-44.29589111 97.10481873 -43.46678223 97.02213745 -42.61254883 96.93695068 C10.63009775 91.64541714 10.63009775 91.64541714 54.5 64.125 C56.97458759 58.96960919 57.79913118 54.35038584 55.9375 48.875 C55.298125 47.92625 54.65875 46.9775 54 46 C53.65453125 45.45859375 53.3090625 44.9171875 52.953125 44.359375 C45.76807516 34.51319559 32.03369675 29.86897856 21 26 C19.92032959 25.60731934 18.84065918 25.21463867 17.72827148 24.81005859 C7.79248285 21.31724192 -2.14109777 19.14557435 -12.5 17.3125 C-13.33216034 17.16214294 -14.16432068 17.01178589 -15.021698 16.85687256 C-28.31680201 14.46262342 -41.49974659 12.6983339 -55 12 C-56.72532298 11.89161642 -58.45058361 11.78223571 -60.17578125 11.671875 C-79.80794587 10.49575454 -99.3751669 10.77959821 -119 11.875 Z " fill="#FDFDFD" transform="translate(334,15)"/>
<path d="M0 0 C1.03318359 -0.01611328 2.06636719 -0.03222656 3.13085938 -0.04882812 C9.68047404 -0.05297608 15.02626049 0.76486845 21.0625 3.3125 C22.12597656 3.76109375 23.18945312 4.2096875 24.28515625 4.671875 C35.06609172 9.95112263 41.71709251 16.13071094 48.0625 26.3125 C48.66578125 27.26576172 48.66578125 27.26576172 49.28125 28.23828125 C57.72436894 43.17364695 57.04425067 64.36325288 52.96948242 80.54418945 C51.12243184 86.96592084 48.17608123 92.09916542 44.0625 97.3125 C43.11503906 98.52873047 43.11503906 98.52873047 42.1484375 99.76953125 C36.28381201 106.81409135 29.33384638 111.49495552 21.0625 115.3125 C21.73345703 115.87517578 21.73345703 115.87517578 22.41796875 116.44921875 C26.13699208 119.5973046 29.61570149 122.86570149 33.0625 126.3125 C35.33769662 128.35434312 37.63193857 130.3736748 39.92578125 132.39453125 C42.3969661 134.6127246 44.71483359 136.96483359 47.0625 139.3125 C48.15891723 140.23842173 49.26327141 141.15501922 50.375 142.0625 C51.7053125 143.17625 51.7053125 143.17625 53.0625 144.3125 C53.0625 144.6425 53.0625 144.9725 53.0625 145.3125 C48.31206897 145.46120119 43.56300144 145.56987512 38.81079102 145.64208984 C37.19564204 145.67220087 35.58065577 145.71310063 33.96606445 145.76513672 C31.63972837 145.83821534 29.31555852 145.8720088 26.98828125 145.8984375 C26.27037918 145.92940521 25.55247711 145.96037292 24.81282043 145.99227905 C21.98411702 145.99416333 19.74745928 145.89530456 17.53866577 144.01593018 C16.29168777 142.51736061 15.17091215 140.91627286 14.0625 139.3125 C13.32 138.57 12.5775 137.8275 11.8125 137.0625 C8.51522573 133.76522573 5.43836809 130.29939362 2.34375 126.8125 C1.5909375 125.9875 0.838125 125.1625 0.0625 124.3125 C-0.72511719 123.40113281 -1.51273438 122.48976563 -2.32421875 121.55078125 C-5.49790439 118.83251238 -7.1283893 118.70826 -11.25 118.5 C-17.32443883 117.83430807 -21.9964783 116.2651717 -27.4375 113.5 C-28.09532471 113.16830811 -28.75314941 112.83661621 -29.4309082 112.49487305 C-43.65749666 104.95033252 -51.52417332 92.18369217 -56.19140625 77.078125 C-57.17157969 73.44481193 -57.77504734 70.06921788 -57.9375 66.3125 C-57.9890625 65.35988281 -58.040625 64.40726562 -58.09375 63.42578125 C-58.57479558 46.80966514 -53.81554621 29.42360818 -42.6875 16.75 C-29.71087991 5.24799583 -17.3832547 -0.05401882 0 0 Z " fill="#FEFEFE" transform="translate(255.9375,233.6875)"/>
<path d="M0 0 C1.76117832 0.24480533 3.52284511 0.4861437 5.28515625 0.72265625 C20.47023628 2.8679213 35.53024069 6.96936708 50 12 C31.74439517 24.17040322 3.75360518 25.2001511 -17.41601562 27.59326172 C-20.4626865 27.93902151 -23.50430121 28.31193283 -26.546875 28.69140625 C-53.9055558 31.83599266 -82.22228719 31.01676281 -109.5625 28.1875 C-110.76203812 28.06347809 -110.76203812 28.06347809 -111.98580933 27.93695068 C-127.98046597 26.23995435 -143.97297068 24.09077454 -159.5625 20.0625 C-160.53767578 19.82337891 -161.51285156 19.58425781 -162.51757812 19.33789062 C-168.91317248 17.71869873 -174.93990752 15.60452218 -181 13 C-174.68003571 9.74257724 -167.81311899 7.94479219 -161 6 C-160.27184082 5.78939941 -159.54368164 5.57879883 -158.79345703 5.36181641 C-108.61226784 -8.68803639 -51.07404357 -8.10365483 0 0 Z " fill="#7FBA00" transform="translate(311,84)"/>
<path d="M0 0 C1.74506836 -0.00483398 1.74506836 -0.00483398 3.52539062 -0.00976562 C20.23424853 0.09366568 20.23424853 0.09366568 26.5625 4.3125 C26.90307617 6.65087891 26.90307617 6.65087891 26.85546875 9.5390625 C26.84580078 10.5703125 26.83613281 11.6015625 26.82617188 12.6640625 C26.80103516 13.74429688 26.77589844 14.82453125 26.75 15.9375 C26.72969727 17.56945312 26.72969727 17.56945312 26.70898438 19.234375 C26.67354754 21.92757409 26.62414331 24.61979374 26.5625 27.3125 C24.10937294 26.34201541 21.68592143 25.37090669 19.30078125 24.2421875 C13.2664136 21.61854939 7.75400824 20.88776717 1.25 20.8125 C0.48534424 20.79429199 -0.27931152 20.77608398 -1.06713867 20.75732422 C-6.28289651 20.81319309 -9.30444445 21.87789879 -13.4375 25.3125 C-15.29602615 29.02955231 -14.86829293 33.25533073 -14.4375 37.3125 C-11.1169433 43.95361339 -2.59577211 47.47408152 4 50.25 C14.12396596 54.59650836 23.62027653 60.95407505 29.5 70.4375 C33.13403932 80.27078286 32.31265234 90.66187862 28.5625 100.3125 C27.91518478 101.65533477 27.25431318 102.99203919 26.5625 104.3125 C25.9025 104.3125 25.2425 104.3125 24.5625 104.3125 C24.376875 104.869375 24.19125 105.42625 24 106 C20.14838567 112.19607522 12.36241255 115.45720471 5.5625 117.3125 C-9.91593018 120.27637366 -28.77337441 121.42191706 -42.4375 112.3125 C-42.77807617 109.79052734 -42.77807617 109.79052734 -42.73046875 106.6484375 C-42.72080078 105.52695312 -42.71113281 104.40546875 -42.70117188 103.25 C-42.67603516 102.074375 -42.65089844 100.89875 -42.625 99.6875 C-42.61146484 98.50414062 -42.59792969 97.32078125 -42.58398438 96.1015625 C-42.54853916 93.17142461 -42.49912769 90.24218541 -42.4375 87.3125 C-41.29474609 88.01826172 -41.29474609 88.01826172 -40.12890625 88.73828125 C-30.65339814 94.45197715 -23.72681966 97.52981212 -12.6875 97.6875 C-11.58692261 97.70864868 -11.58692261 97.70864868 -10.46411133 97.73022461 C-5.89250736 97.68894484 -3.16387066 96.92095946 0.5625 94.3125 C1.2225 94.3125 1.8825 94.3125 2.5625 94.3125 C2.84142208 92.60864987 3.08431549 90.89888383 3.3125 89.1875 C3.45171875 88.23617187 3.5909375 87.28484375 3.734375 86.3046875 C3.49761587 82.18292631 2.23458868 80.44182207 -0.4375 77.3125 C-2.83091351 75.54800235 -5.36321683 74.17855175 -8 72.8125 C-8.71091797 72.42723145 -9.42183594 72.04196289 -10.15429688 71.64501953 C-13.30220019 69.94381523 -16.47464699 68.29327203 -19.65234375 66.6484375 C-29.67153881 61.39292705 -38.0887234 54.88952523 -42.25 44.0625 C-45.0060338 34.71732791 -43.85621605 25.94014143 -39.4375 17.3125 C-30.37600963 3.41981715 -15.57665012 -0.2150283 0 0 Z " fill="#FEFEFE" transform="translate(155.4375,233.6875)"/>
<path d="M0 0 C8.91 0 17.82 0 27 0 C27 31.02 27 62.04 27 94 C40.86 94 54.72 94 69 94 C69 101.26 69 108.52 69 116 C46.23 116 23.46 116 0 116 C0 77.72 0 39.44 0 0 Z " fill="#FEFEFE" transform="translate(330,235)"/>
<path d="M0 0 C7.38870058 6.04530047 11.72224543 14.65109573 13 24 C14.00106768 40.47940795 12.2084947 51.79484442 1.6875 64.875 C-5.25430816 70.36387157 -13.42016145 70.83333589 -22 70 C-29.87326939 68.49061675 -35.29268966 63.21950419 -40.3125 57.25 C-44.35222484 49.46978921 -45.26867497 42.03465676 -45.3125 33.375 C-45.31797852 32.58778564 -45.32345703 31.80057129 -45.32910156 30.98950195 C-45.19912698 20.24530992 -42.63493473 11.28156659 -35.33203125 3.140625 C-25.04235826 -6.37202463 -11.81039762 -6.82788612 0 0 Z " fill="#2687CE" transform="translate(271,260)"/>
<path d="M0 0 C-0.00333092 1.20816376 -0.00333092 1.20816376 -0.00672913 2.44073486 C-0.0267701 10.03301905 -0.04199358 17.62529041 -0.05181217 25.21759415 C-0.05702969 29.12082295 -0.06410684 33.02402988 -0.07543945 36.92724609 C-0.08630847 40.69438644 -0.09228537 44.46150576 -0.09487724 48.22866058 C-0.09672424 49.66555869 -0.10033095 51.10245564 -0.10573006 52.53934479 C-0.11299363 54.55258562 -0.11340851 56.56584763 -0.11352539 58.57910156 C-0.11685631 60.29785492 -0.11685631 60.29785492 -0.12025452 62.05133057 C-0.01799691 64.55871136 0.26471203 66.61515677 1 69 C-6.28772488 66.59646463 -11.04393101 60.83930563 -14.46875 54.1171875 C-18.88461872 41.784297 -19.09655534 25.27115155 -13.73828125 13.14453125 C-5.70184255 0 -5.70184255 0 0 0 Z " fill="#0273C6" transform="translate(243,259)"/>
<path d="M0 0 C0.33 0.66 0.66 1.32 1 2 C0.50371094 2.42410156 0.00742188 2.84820312 -0.50390625 3.28515625 C-5.20321342 7.34243284 -9.67153988 11.54980194 -14 16 C-14 11.96683932 -12.46561663 10.77324118 -9.8671875 7.8515625 C-6.85208375 4.86168975 -3.48378681 2.41389289 0 0 Z " fill="#BFCBD7" transform="translate(82,43)"/>
</svg>
