<?xml version="1.0" encoding="UTF-8"?>
<svg version="1.1" xmlns="http://www.w3.org/2000/svg" width="282" height="282">
<path d="M0 0 C21.79392204 19.18326461 35.1800785 43.80054721 43.05859375 71.46875 C43.25356445 72.14357422 43.44853516 72.81839844 43.64941406 73.51367188 C52.91213693 107.55373565 44.82667211 146.27457022 28.05859375 176.46875 C8.30415711 210.70401001 -23.42688263 232.78649685 -60.94140625 243.46875 C-61.61623047 243.6637207 -62.29105469 243.85869141 -62.98632812 244.05957031 C-97.0263919 253.32229318 -135.74722647 245.23682836 -165.94140625 228.46875 C-200.17666626 208.71431336 -222.2591531 176.98327362 -232.94140625 139.46875 C-233.13637695 138.79392578 -233.33134766 138.11910156 -233.53222656 137.42382812 C-242.79494943 103.38376435 -234.70948461 64.66292978 -217.94140625 34.46875 C-198.18696961 0.23348999 -166.45592987 -21.84899685 -128.94140625 -32.53125 C-128.26658203 -32.7262207 -127.59175781 -32.92119141 -126.89648438 -33.12207031 C-82.42845623 -45.22237142 -33.86469784 -29.14252881 0 0 Z " fill="#235276" transform="translate(235.94140625,35.53125)"/>
<path d="M0 0 C21.79392204 19.18326461 35.1800785 43.80054721 43.05859375 71.46875 C43.25356445 72.14357422 43.44853516 72.81839844 43.64941406 73.51367188 C52.91213693 107.55373565 44.82667211 146.27457022 28.05859375 176.46875 C8.30415711 210.70401001 -23.42688263 232.78649685 -60.94140625 243.46875 C-61.61623047 243.6637207 -62.29105469 243.85869141 -62.98632812 244.05957031 C-97.0263919 253.32229318 -135.74722647 245.23682836 -165.94140625 228.46875 C-200.17666626 208.71431336 -222.2591531 176.98327362 -232.94140625 139.46875 C-233.13637695 138.79392578 -233.33134766 138.11910156 -233.53222656 137.42382812 C-242.79494943 103.38376435 -234.70948461 64.66292978 -217.94140625 34.46875 C-198.18696961 0.23348999 -166.45592987 -21.84899685 -128.94140625 -32.53125 C-128.26658203 -32.7262207 -127.59175781 -32.92119141 -126.89648438 -33.12207031 C-82.42845623 -45.22237142 -33.86469784 -29.14252881 0 0 Z M-186.94140625 13.46875 C-187.53179687 13.9946875 -188.1221875 14.520625 -188.73046875 15.0625 C-210.44985202 35.23785129 -223.82073973 67.1893365 -225.06787109 96.43432617 C-225.98237126 133.42498405 -215.7182922 166.85736136 -190.06640625 194.24609375 C-189.36515625 194.97957031 -188.66390625 195.71304688 -187.94140625 196.46875 C-187.34328125 197.13003906 -186.74515625 197.79132813 -186.12890625 198.47265625 C-165.36101045 220.62806233 -133.670953 234.24080211 -103.48803711 235.57739258 C-64.55139708 236.49146885 -31.31102247 224.20165759 -2.94140625 197.46875 C-2.3278125 196.90800781 -1.71421875 196.34726563 -1.08203125 195.76953125 C16.73944352 178.88818015 28.45665187 154.34348605 33.05859375 130.46875 C33.36216797 129.13457031 33.36216797 129.13457031 33.671875 127.7734375 C40.20296331 94.45155838 31.5295313 60.16572357 13.0234375 32.17578125 C9.02091926 26.66137739 4.61943971 21.52602529 0.05859375 16.46875 C-0.78445312 15.52902344 -1.6275 14.58929688 -2.49609375 13.62109375 C-24.61734465 -9.74405728 -57.26516963 -23.62315361 -89.27734375 -24.74609375 C-126.93705729 -25.60715755 -159.55164963 -12.28723167 -186.94140625 13.46875 Z " fill="#DAD9D9" transform="translate(235.94140625,35.53125)"/>
<path d="M0 0 C2.91560052 0.9852766 5.54934154 2.34664831 8.25 3.8125 C8.94351563 4.16892578 9.63703125 4.52535156 10.3515625 4.89257812 C13.12715581 6.34152291 15.64864724 7.71150696 18.07421875 9.703125 C20.82015803 11.55231738 23.28958059 11.61203651 26.5625 11.9375 C42.48051858 13.98080673 53.92338297 21.85092119 66 32 C66.75023437 32.60328125 67.50046875 33.2065625 68.2734375 33.828125 C81.9396112 45.24057883 90.35888887 60.8587465 97.5 76.875 C97.88212646 77.72352539 98.26425293 78.57205078 98.65795898 79.44628906 C100.46050493 83.46661509 102.20423603 87.49085377 103.8203125 91.58984375 C106.94606879 99.12632307 109.60267879 103.78692903 117.3125 107.0625 C119.26087924 107.82795188 121.21768981 108.56099833 123.18408203 109.27880859 C133.45349522 113.35730369 144.59710159 122.05674051 151 131 C151 131.66 151 132.32 151 133 C145.27378303 135.37507863 140.15507058 136.60612852 134 137.1875 C133.22527344 137.26935547 132.45054687 137.35121094 131.65234375 137.43554688 C129.76919817 137.63316092 127.88471423 137.81795374 126 138 C128.58560923 141.51831759 130.77093764 143.71626025 134.625 145.75 C143.13467864 150.63239674 149.86700035 157.4144478 156 165 C155.67 165.66 155.34 166.32 155 167 C154.47535156 166.59910156 153.95070312 166.19820312 153.41015625 165.78515625 C147.96273268 161.78796192 142.37747771 158.55869133 136.375 155.5 C127.52890738 150.93840275 120.15991053 146.4050151 116 137 C116.33 136.01 116.66 135.02 117 134 C124.94102522 130.42961657 133.37681817 129.31074529 142 129 C130.75889953 120.19370372 130.75889953 120.19370372 118 114 C115.72523598 113.19857068 113.45461949 112.38530585 111.1875 111.5625 C110.10855469 111.19253906 109.02960938 110.82257813 107.91796875 110.44140625 C102.451193 107.74095076 100.27840826 102.88600158 97.828125 97.51171875 C97.54477798 96.8959346 97.26143097 96.28015045 96.96949768 95.64570618 C96.36780086 94.33681362 95.76903246 93.02657142 95.17300415 91.71508789 C94.24030719 89.66620754 93.29709693 87.62249711 92.3503418 85.58007812 C90.13923796 80.81002516 87.93130048 76.03855761 85.74658203 71.25634766 C81.06342221 61.05135017 75.34063705 52.48622131 68 44 C67.41734375 43.31550781 66.8346875 42.63101563 66.234375 41.92578125 C56.78968115 31.69402958 39.99557355 19.70939184 25.8515625 18.796875 C24.78679687 18.78140625 23.72203125 18.7659375 22.625 18.75 C16.9437925 18.39572969 14.12495509 17.26246076 9.89453125 13.56640625 C4.56500286 9.1599302 -1.19605945 7.42094123 -8 8 C-7.59886137 13.79422467 -5.18818301 16.91642571 -1.8125 21.375 C3.82834197 29.1708419 7.02311792 36.91318947 10 46 C11.8310305 51.27198592 13.38512293 55.58784067 17.25 59.6875 C19.4820003 62.12910439 19.97176164 62.85316054 20.625 66.25 C20.07347743 69.55913543 19.28050303 71.82574458 18 74.875 C16.03278223 79.9186115 15.61567753 84.34222947 15.625 89.6875 C15.62371094 90.38794434 15.62242188 91.08838867 15.62109375 91.81005859 C15.75615727 98.33761701 16.98935402 104.55304799 19.9375 110.4375 C20.25589844 111.09621094 20.57429688 111.75492187 20.90234375 112.43359375 C22.00003111 114.33081246 22.00003111 114.33081246 25 115 C25.03867188 113.7315625 25.03867188 113.7315625 25.078125 112.4375 C25.43068243 105.38635138 26.08700649 99.94249388 30 94 C30.53625 93.175 31.0725 92.35 31.625 91.5 C32.07875 91.005 32.5325 90.51 33 90 C33.66 90 34.32 90 35 90 C35.24492188 90.72960937 35.48984375 91.45921875 35.7421875 92.2109375 C41.00084393 106.89890891 48.89971458 124.7951739 62 134 C61.67 134.66 61.34 135.32 61 136 C59.11518405 134.35656375 57.23309925 132.71024394 55.35546875 131.05859375 C53.80649541 129.70484756 52.24679713 128.36325875 50.67578125 127.03515625 C43.53693067 120.91441 38.32028607 114.85409618 35 106 C34.74605469 106.90363281 34.49210937 107.80726563 34.23046875 108.73828125 C33.88628906 109.91777344 33.54210937 111.09726563 33.1875 112.3125 C32.85105469 113.48425781 32.51460937 114.65601563 32.16796875 115.86328125 C31.08229265 118.77899332 30.4847273 120.20722208 28 122 C25.125 122.5 25.125 122.5 22 122 C14.56774568 115.98341317 10.81276341 107.81666232 9.6953125 98.44458008 C9.56386939 95.87222843 9.53508097 93.32546477 9.5625 90.75 C9.56137207 89.83831055 9.56024414 88.92662109 9.55908203 87.98730469 C9.65507094 82.25828234 10.47997501 77.64759441 12.375 72.25 C13.94499356 67.90698162 13.94499356 67.90698162 13.10546875 63.5703125 C11.58772152 61.34328423 11.58772152 61.34328423 9.796875 59.27734375 C4.88497556 53.05204511 2.75456639 44.38724623 0 37 C-2.0405431 31.66561726 -4.52423039 27.66016451 -8.125 23.25 C-12.22822061 18.17037562 -14.35541237 14.78528372 -14.29296875 8.00390625 C-13.83259178 4.85492778 -12.23099654 3.165379 -10 1 C-6.77200089 -0.61399955 -3.5019805 -0.42738894 0 0 Z " fill="#EBEDEF" transform="translate(66,62)"/>
<path d="M0 0 C7.50189421 -0.51737201 10.58742849 1.12625557 16.375 6 C18.95993363 10.77218516 18.30513838 15.68550652 18 21 C19.98275376 22.06218951 21.69218472 22.94214471 23.91333008 23.35961914 C26.53554262 24.16435338 27.71854989 25.36060214 29.63671875 27.30859375 C30.29607422 27.97310547 30.95542969 28.63761719 31.63476562 29.32226562 C32.31216797 30.02029297 32.98957031 30.71832031 33.6875 31.4375 C34.37650391 32.13166016 35.06550781 32.82582031 35.77539062 33.54101562 C41.85462982 39.71589673 41.85462982 39.71589673 42.375 44.3125 C42 48 42 48 39.9375 50.9375 C37 53 37 53 33.6875 53.75 C28.33070944 52.66048328 25.78450398 49.79122601 22 46 C20.64841797 44.75476563 20.64841797 44.75476563 19.26953125 43.484375 C12.07034575 36.70150347 12.07034575 36.70150347 11.71875 33.1953125 C11.8115625 32.47085938 11.904375 31.74640625 12 31 C8.82969005 29.1153457 6.77369431 28.86356707 3.125 29.125 C-1.74476612 29.21823558 -4.29079839 28.34732829 -8 25 C-11.93831932 20.53657144 -11.29499113 15.62668269 -11 10 C-8.00779732 11.36370299 -5.70973471 12.94908083 -3.25 15.125 C-2.32960937 15.93324219 -2.32960937 15.93324219 -1.390625 16.7578125 C-0.93171875 17.16773437 -0.4728125 17.57765625 0 18 C1.98 16.02 3.96 14.04 6 12 C4.44499019 8.18315774 1.96404505 5.80804268 -1 3 C-0.67 2.01 -0.34 1.02 0 0 Z " fill="#F2F4F5" transform="translate(188,51)"/>
<path d="M0 0 C11.84185842 4.4917394 25.63710813 13.5220385 33 24 C33 24.66 33 25.32 33 26 C27.27378303 28.37507863 22.15507058 29.60612852 16 30.1875 C14.83791016 30.3102832 14.83791016 30.3102832 13.65234375 30.43554688 C11.76919817 30.63316092 9.88471423 30.81795374 8 31 C10.58560923 34.51831759 12.77093764 36.71626025 16.625 38.75 C25.13467864 43.63239674 31.86700035 50.4144478 38 58 C37.505 58.99 37.505 58.99 37 60 C36.47535156 59.59910156 35.95070312 59.19820312 35.41015625 58.78515625 C29.96273268 54.78796192 24.37747771 51.55869133 18.375 48.5 C9.52890738 43.93840275 2.15991053 39.4050151 -2 30 C-1.505 28.515 -1.505 28.515 -1 27 C6.94102522 23.42961657 15.37681817 22.31074529 24 22 C12.69845368 13.32818279 12.69845368 13.32818279 0 7 C-0.66 6.34 -1.32 5.68 -2 5 C-1.34 3.35 -0.68 1.7 0 0 Z " fill="#D2D3D4" transform="translate(184,169)"/>
<path d="M0 0 C0.66 0 1.32 0 2 0 C2.36738281 1.09441406 2.36738281 1.09441406 2.7421875 2.2109375 C8.00084393 16.89890891 15.89971458 34.7951739 29 44 C28.505 44.99 28.505 44.99 28 46 C26.11518405 44.35656375 24.23309925 42.71024394 22.35546875 41.05859375 C20.80649541 39.70484756 19.24679713 38.36325875 17.67578125 37.03515625 C10.53693067 30.91441 5.32028607 24.85409618 2 16 C1.61908203 17.35544922 1.61908203 17.35544922 1.23046875 18.73828125 C0.88628906 19.91777344 0.54210937 21.09726563 0.1875 22.3125 C-0.14894531 23.48425781 -0.48539063 24.65601563 -0.83203125 25.86328125 C-1.91770735 28.77899332 -2.5152727 30.20722208 -5 32 C-7.875 32.5 -7.875 32.5 -11 32 C-16.42120431 27.61140603 -20.43452683 21.83115566 -22 15 C-21.625 11.625 -21.625 11.625 -21 9 C-19.68 8.67 -18.36 8.34 -17 8 C-16.7525 9.155 -16.505 10.31 -16.25 11.5 C-15.14075334 15.91338564 -13.62885352 20.24850441 -11 24 C-10.01 24.33 -9.02 24.66 -8 25 C-7.97421875 24.154375 -7.9484375 23.30875 -7.921875 22.4375 C-7.56931757 15.38635138 -6.91299351 9.94249388 -3 4 C-2.46375 3.175 -1.9275 2.35 -1.375 1.5 C-0.92125 1.005 -0.4675 0.51 0 0 Z " fill="#DCDEDE" transform="translate(99,152)"/>
<path d="M0 0 C11.84185842 4.4917394 25.63710813 13.5220385 33 24 C33 24.66 33 25.32 33 26 C30.00592177 27.72262035 27.82250407 28.27306023 24.375 28.25 C23.59898437 28.25515625 22.82296875 28.2603125 22.0234375 28.265625 C20 28 20 28 18 26 C15.42938689 25.35232207 15.42938689 25.35232207 13 25 C13 24.67 13 24.34 13 24 C17.29 24 21.58 24 26 24 C26 23.34 26 22.68 26 22 C25.41444336 21.72148193 24.82888672 21.44296387 24.22558594 21.15600586 C22.13137814 20.06823996 20.30253751 18.88172904 18.390625 17.50390625 C17.71773437 17.02759766 17.04484375 16.55128906 16.3515625 16.06054688 C14.96271946 15.07054445 13.57722516 14.07582542 12.1953125 13.07617188 C7.61421305 9.84937084 3.32468989 7.76096807 -2 6 C-1.34 4.02 -0.68 2.04 0 0 Z " fill="#DFDFDE" transform="translate(184,169)"/>
<path d="M0 0 C2.84341613 2.84341613 3.42397854 6.30284045 4.5625 10.0625 C13.50665073 38.04567808 33.89453699 64.03387193 60 78 C59.01 78.33 58.02 78.66 57 79 C47.60267758 73.86189566 39.62756516 66.41859077 32 59 C31.43949951 58.46721436 30.87899902 57.93442871 30.30151367 57.38549805 C26.04147576 53.26086619 22.45657613 48.91968665 19.0625 44.0625 C18.54743896 43.32668701 18.03237793 42.59087402 17.50170898 41.83276367 C9.93944876 30.7815006 -0.8236782 13.87382961 0 0 Z " fill="#163A58" transform="translate(16,173)"/>
<path d="M0 0 C1.65 0.33 3.3 0.66 5 1 C4.84660156 1.92941406 4.69320312 2.85882813 4.53515625 3.81640625 C3.81806202 8.83606589 3.64854502 13.87587934 3.4375 18.9375 C3.39431641 19.90751953 3.35113281 20.87753906 3.30664062 21.87695312 C3.20137907 24.25118601 3.09924293 26.62550921 3 29 C2.67 28.01 2.34 27.02 2 26 C1.34 26 0.68 26 0 26 C0 26.66 0 27.32 0 28 C-0.66 28 -1.32 28 -2 28 C-2.05859857 24.64590806 -2.09379582 21.29194983 -2.125 17.9375 C-2.14175781 16.99455078 -2.15851563 16.05160156 -2.17578125 15.08007812 C-2.21372771 9.63476062 -1.81252643 5.14500612 0 0 Z " fill="#E0E2E3" transform="translate(78,135)"/>
<path d="M0 0 C6.98566176 0.66006253 13.92230969 0.75 20.9375 0.75 C22.07525879 0.75 23.21301758 0.75 24.38525391 0.75 C31.22031973 0.71829655 37.92684309 0.48876771 44.71484375 -0.3515625 C46.9375 -0.375 46.9375 -0.375 49.9375 1.625 C40.9970865 3.51557877 32.26162869 3.93781425 23.16503906 3.88574219 C20.94047808 3.87501436 18.71672428 3.88570347 16.4921875 3.8984375 C8.14424175 3.90538949 0.13265963 3.35798414 -8.0625 1.625 C-4.56306291 -0.70795806 -4.00672319 -0.496018 0 0 Z " fill="#ACABAC" transform="translate(120.0625,278.375)"/>
<path d="M0 0 C1 3 1 3 -0.5 6.25 C-3.06219445 10.45235352 -6.43282614 13.6517209 -10 17 C-10.804375 17.804375 -11.60875 18.60875 -12.4375 19.4375 C-15.95833333 22.95833333 -19.47916667 26.47916667 -23 30 C-23.66 29.67 -24.32 29.34 -25 29 C-23.60493574 25.74957109 -22.03216606 23.92628208 -19.3125 21.6875 C-11.65096078 15.15793595 -5.76660876 8.28294713 0 0 Z " fill="#C2C1C0" transform="translate(247,215)"/>
<path d="M0 0 C0.46148437 0.36351562 0.92296875 0.72703125 1.3984375 1.1015625 C8.41959745 6.51312847 15.88267787 10.88210897 23.6875 15.0625 C35.48496105 21.45488315 35.48496105 21.45488315 37 26 C34.22764116 24.68128949 31.76037808 23.19978541 29.25 21.4375 C25.62247964 18.97102678 21.90222918 16.81385267 18.05566406 14.71728516 C4.47389081 7.31274533 4.47389081 7.31274533 0 2 C0 1.34 0 0.68 0 0 Z " fill="#143C5D" transform="translate(185,205)"/>
<path d="M0 0 C4.43458973 1.3937282 6.87378374 3.60582235 10 7 C9.21238281 7.02578125 8.42476562 7.0515625 7.61328125 7.078125 C-0.77308795 7.51481168 -8.09044639 9.21676919 -16 12 C-16 13.65 -16 15.3 -16 17 C-16.99 16.01 -17.98 15.02 -19 14 C-17.97416643 11.05227341 -17.32050487 10.15532159 -14.4609375 8.76953125 C-8.59618005 6.95071407 -3.11127391 5.57653527 3 5 C3.33 4.67 3.66 4.34 4 4 C2.68 2.68 1.36 1.36 0 0 Z " fill="#123E61" transform="translate(199,185)"/>
<path d="M0 0 C5.11297291 1.31062793 8.32933337 3.65652605 12.0625 7.25 C12.56587891 7.71535156 13.06925781 8.18070313 13.58789062 8.66015625 C17.02640397 11.88960087 20.04000742 15.32852296 23 19 C22.67 19.66 22.34 20.32 22 21 C20.51152084 19.92949782 19.0344805 18.84307756 17.5625 17.75 C16.73878906 17.14671875 15.91507813 16.5434375 15.06640625 15.921875 C13 14 13 14 12.59375 12.05859375 C11.62232957 8.69057688 8.69622639 7.22626791 5.9375 5.3125 C3.94045433 3.89575364 1.96524771 2.46133804 0 1 C0 0.67 0 0.34 0 0 Z " fill="#E1E0DD" transform="translate(199,208)"/>
<path d="M0 0 C4.08835266 1.36278422 5.03993268 4.0364557 7 7.625 C7.34289062 8.22957031 7.68578125 8.83414063 8.0390625 9.45703125 C14.53732561 21.08941827 14.53732561 21.08941827 14 27 C10.89552324 22.34328485 8.45722199 17.33574201 5.875 12.375 C5.31167969 11.29992187 4.74835938 10.22484375 4.16796875 9.1171875 C3.36939453 7.58578125 3.36939453 7.58578125 2.5546875 6.0234375 C1.81968018 4.61457275 1.81968018 4.61457275 1.06982422 3.17724609 C0 1 0 1 0 0 Z " fill="#E6E2DF" transform="translate(258,64)"/>
<path d="M0 0 C1.92562173 2.38777094 3.835475 4.78203301 5.68359375 7.23046875 C6.28300781 8.02066406 6.88242188 8.81085938 7.5 9.625 C8.0671875 10.38039062 8.634375 11.13578125 9.21875 11.9140625 C10.98497182 13.98240121 12.76680476 15.46222959 15 17 C14.67 17.66 14.34 18.32 14 19 C12.12350746 17.36382122 10.24944102 15.72502333 8.37890625 14.08203125 C6.74796882 12.65462624 5.10953009 11.23576003 3.46484375 9.82421875 C2.65144531 9.11910156 1.83804688 8.41398438 1 7.6875 C0.236875 7.03136719 -0.52625 6.37523437 -1.3125 5.69921875 C-3 4 -3 4 -3 2 C-2.01 2 -1.02 2 0 2 C0 1.34 0 0.68 0 0 Z " fill="#CDD3D5" transform="translate(113,179)"/>
<path d="M0 0 C4.99249707 1.27715041 7.6724373 3.23802964 11 7 C11.75152344 7.79535156 12.50304687 8.59070313 13.27734375 9.41015625 C20.46191649 17.11683064 20.46191649 17.11683064 21 21 C17.14179558 17.85044537 13.69826419 14.75946197 10.5 10.9375 C8.21169982 8.22371089 5.99580793 6.1257875 3.0625 4.125 C2.051875 3.42375 1.04125 2.7225 0 2 C0 1.34 0 0.68 0 0 Z " fill="#1A4061" transform="translate(203,208)"/>
<path d="M0 0 C3.27034459 -0.36337162 4.60883753 -0.28544288 7.3125 1.6875 C9 4 9 4 9.4375 6.625 C9.293125 7.40875 9.14875 8.1925 9 9 C8.01 9.66 7.02 10.32 6 11 C5.18357746 9.73168307 4.37200895 8.46024069 3.5625 7.1875 C3.11003906 6.47980469 2.65757813 5.77210937 2.19140625 5.04296875 C1 3 1 3 0 0 Z " fill="#E5EAEF" transform="translate(86,91)"/>
<path d="M0 0 C0.66 0.33 1.32 0.66 2 1 C-3.2457559 5.549165 -8.78904144 9.19894201 -14.875 12.5 C-15.52927979 12.86222656 -16.18355957 13.22445313 -16.85766602 13.59765625 C-18.5303224 14.48176534 -20.26297987 15.25020714 -22 16 C-22.99 15.67 -23.98 15.34 -25 15 C-23.21118264 13.99491199 -21.41885304 12.99607264 -19.625 12 C-18.62726563 11.443125 -17.62953125 10.88625 -16.6015625 10.3125 C-14 9 -14 9 -12 9 C-12 8.34 -12 7.68 -12 7 C-10.95199219 6.49339844 -10.95199219 6.49339844 -9.8828125 5.9765625 C-8.97273438 5.53054687 -8.06265625 5.08453125 -7.125 4.625 C-5.76761719 3.96371094 -5.76761719 3.96371094 -4.3828125 3.2890625 C-1.90465528 2.09497301 -1.90465528 2.09497301 0 0 Z " fill="#133552" transform="translate(218,243)"/>
<path d="M0 0 C2.65269897 2.47585238 4.68010103 4.59026101 6 8 C6 8.99 6 9.98 6 11 C2.84859577 10.65930765 1.39218439 10.41923159 -0.8125 8.0625 C-2 6 -2 6 -2 4 C-1.34 4 -0.68 4 0 4 C0 2.68 0 1.36 0 0 Z " fill="#E3E3E2" transform="translate(107,170)"/>
<path d="M0 0 C3.01977587 3.01977587 3.9718471 4.45327061 4.1953125 8.79296875 C4.18205484 10.25794 4.15825851 11.72284632 4.125 13.1875 C4.11597656 13.93708984 4.10695313 14.68667969 4.09765625 15.45898438 C4.07412578 17.30612654 4.03825561 19.15310412 4 21 C3.67 20.01 3.34 19.02 3 18 C2.34 18 1.68 18 1 18 C0.67 18.66 0.34 19.32 0 20 C0 13.4 0 6.8 0 0 Z " fill="#EBEAE8" transform="translate(77,143)"/>
<path d="M0 0 C0.33 0 0.66 0 1 0 C1.17835515 4.54805635 0.99785435 7.8794254 -1 12 C-3.475 11.01 -3.475 11.01 -6 10 C-5.75 7.125 -5.75 7.125 -5 4 C-3 2.75 -3 2.75 -1 2 C-0.67 1.34 -0.34 0.68 0 0 Z " fill="#E1E4E6" transform="translate(85,125)"/>
<path d="M0 0 C1 3 1 3 -0.3125 6.125 C-3.46565189 11.36529157 -8.37189569 15.10497328 -13 19 C-13 14.75946952 -11.0796782 13.64544361 -8.1875 10.625 C-4.96114951 7.24501377 -2.24763456 4.10697345 0 0 Z " fill="#CCC9C7" transform="translate(247,215)"/>
<path d="M0 0 C0.66 0.99 1.32 1.98 2 3 C-0.119212 4.36405618 -2.24448118 5.71631775 -4.375 7.0625 C-4.97828125 7.45244141 -5.5815625 7.84238281 -6.203125 8.24414062 C-7.76492557 9.22460432 -9.37992214 10.11916075 -11 11 C-11.66 10.67 -12.32 10.34 -13 10 C-13 9.34 -13 8.68 -13 8 C-12.34 8 -11.68 8 -11 8 C-10.566875 7.54625 -10.13375 7.0925 -9.6875 6.625 C-7.64011997 4.65344886 -5.62241287 4.04896515 -3 3 C-1.22722741 1.47992158 -1.22722741 1.47992158 0 0 Z " fill="#A4A3A4" transform="translate(218,256)"/>
<path d="M0 0 C0 0.99 0 1.98 0 3 C-1.609375 4.5703125 -1.609375 4.5703125 -3.75 6.125 C-4.44609375 6.64320313 -5.1421875 7.16140625 -5.859375 7.6953125 C-7.94594343 8.96705311 -9.61293238 9.55914517 -12 10 C-12.33 9.34 -12.66 8.68 -13 8 C-8.71 5.36 -4.42 2.72 0 0 Z " fill="#C7C5C3" transform="translate(217,246)"/>
<path d="M0 0 C1.875 0.25 1.875 0.25 4 1 C5.125 3 5.125 3 6 5 C6.66 5.33 7.32 5.66 8 6 C9.57548683 8.62581138 10 9.87099787 10 13 C6.40523299 9.50794062 3.07973809 5.95966325 0 2 C0 1.34 0 0.68 0 0 Z " fill="#AAA9AA" transform="translate(24,220)"/>
<path d="M0 0 C0.33 0 0.66 0 1 0 C0.67 3.3 0.34 6.6 0 10 C-0.66 10 -1.32 10 -2 10 C-2 15.28 -2 20.56 -2 26 C-2.33 26 -2.66 26 -3 26 C-3.55353075 8.14350797 -3.55353075 8.14350797 0 0 Z " fill="#3C6484" transform="translate(84,134)"/>
<path d="M0 0 C5.91712679 4.15457839 11.01139933 8.77258334 16 14 C12.56655118 14 12.26243281 13.66795375 9.86328125 11.4453125 C9.28642578 10.91292969 8.70957031 10.38054687 8.11523438 9.83203125 C7.52033203 9.26871094 6.92542969 8.70539063 6.3125 8.125 C5.70599609 7.56941406 5.09949219 7.01382813 4.47460938 6.44140625 C2.93849763 5.00724118 1.46392359 3.50777865 0 2 C0 1.34 0 0.68 0 0 Z " fill="#123C60" transform="translate(109,182)"/>
<path d="M0 0 C0 0.66 0 1.32 0 2 C-1.55780332 2.67756882 -3.12150096 3.34159457 -4.6875 4 C-5.99267578 4.556875 -5.99267578 4.556875 -7.32421875 5.125 C-10.0572002 6.01870488 -12.14700934 6.16449676 -15 6 C-15 5.34 -15 4.68 -15 4 C-12.87607494 3.3299166 -10.75082476 2.66403203 -8.625 2 C-7.44164062 1.62875 -6.25828125 1.2575 -5.0390625 0.875 C-2 0 -2 0 0 0 Z " fill="#123653" transform="translate(191,259)"/>
<path d="M0 0 C5.69139902 1.09698167 10.74567937 2.54053077 16 5 C16 5.33 16 5.66 16 6 C9.79011871 5.55643705 5.39459439 4.08467498 0 1 C0 0.67 0 0.34 0 0 Z " fill="#173A56" transform="translate(87,258)"/>
<path d="M0 0 C1.9451 2.91765 2.45276317 4.62537285 3 8 C1 8 -1 8 -3 8 C-2.45276317 4.62537285 -1.9451 2.91765 0 0 Z " fill="#E3E7EA" transform="translate(74,105)"/>
<path d="M0 0 C3.96 0 7.92 0 12 0 C12 1.32 12 2.64 12 4 C9.69 3.67 7.38 3.34 5 3 C5 2.67 5 2.34 5 2 C3.35 1.67 1.7 1.34 0 1 C0 0.67 0 0.34 0 0 Z " fill="#E7E3E1" transform="translate(197,193)"/>
<path d="M0 0 C3.83663072 1.34929464 6.65172569 3.07751025 9.8125 5.625 C10.99779297 6.57246094 10.99779297 6.57246094 12.20703125 7.5390625 C12.79871094 8.02117187 13.39039063 8.50328125 14 9 C13.34 9.66 12.68 10.32 12 11 C11.30132812 10.43410156 10.60265625 9.86820313 9.8828125 9.28515625 C8.97273437 8.55167969 8.06265625 7.81820312 7.125 7.0625 C6.22007812 6.33160156 5.31515625 5.60070312 4.3828125 4.84765625 C2.15497253 2.9963748 2.15497253 2.9963748 0 2 C0 1.34 0 0.68 0 0 Z " fill="#E5E5E3" transform="translate(197,177)"/>
<path d="M0 0 C0.33 0.66 0.66 1.32 1 2 C3.52733235 2.65555119 3.52733235 2.65555119 6 3 C5.49396008 5.16874252 5.00016187 6.99967627 4 9 C3.34 9 2.68 9 2 9 C1.34 6.03 0.68 3.06 0 0 Z " fill="#F4F5F5" transform="translate(68,101)"/>
<path d="M0 0 C3.70030952 2.46687301 3.95803768 3.75199978 5 8 C5.07522969 10.33212027 5.09325876 12.6685311 5 15 C3.25050228 12.37575342 2.34610019 10.44272784 1.375 7.5 C0.98441406 6.33984375 0.98441406 6.33984375 0.5859375 5.15625 C0 3 0 3 0 0 Z " fill="#E8E6E5" transform="translate(272,92)"/>
<path d="M0 0 C0.66 0.33 1.32 0.66 2 1 C1.04737966 2.48285242 0.08771595 3.96118201 -0.875 5.4375 C-1.40867187 6.26121094 -1.94234375 7.08492187 -2.4921875 7.93359375 C-4 10 -4 10 -6 11 C-5.55530671 5.96014269 -3.28656638 3.62365012 0 0 Z " fill="#F1E6E3" transform="translate(30,53)"/>
<path d="M0 0 C0.763125 0.309375 1.52625 0.61875 2.3125 0.9375 C4.18789677 1.67893593 6.08684652 2.36228217 8 3 C8 4.32 8 5.64 8 7 C7.34 7 6.68 7 6 7 C6 6.34 6 5.68 6 5 C5.01 5.33 4.02 5.66 3 6 C1.68 4.68 0.36 3.36 -1 2 C-0.67 1.34 -0.34 0.68 0 0 Z " fill="#D2D5D7" transform="translate(205,185)"/>
<path d="M0 0 C0.33 0 0.66 0 1 0 C0.67 4.62 0.34 9.24 0 14 C-0.99 14 -1.98 14 -3 14 C-2.69147815 12.041036 -2.3780582 10.08284287 -2.0625 8.125 C-1.88847656 7.03445312 -1.71445313 5.94390625 -1.53515625 4.8203125 C-1 2 -1 2 0 0 Z " fill="#114065" transform="translate(91,163)"/>
<path d="M0 0 C-0.33 0.99 -0.66 1.98 -1 3 C-3.06640625 3.94921875 -3.06640625 3.94921875 -5.5625 4.6875 C-6.38878906 4.93886719 -7.21507812 5.19023437 -8.06640625 5.44921875 C-9.02353516 5.72185547 -9.02353516 5.72185547 -10 6 C-10.66 5.34 -11.32 4.68 -12 4 C-10.3767313 3.3291288 -8.75132422 2.66342971 -7.125 2 C-6.22007812 1.62875 -5.31515625 1.2575 -4.3828125 0.875 C-2 0 -2 0 0 0 Z " fill="#C2C1C0" transform="translate(196,259)"/>
<path d="M0 0 C1.4835001 0.42257276 2.96176424 0.86356322 4.4375 1.3125 C5.67306641 1.67794922 5.67306641 1.67794922 6.93359375 2.05078125 C7.95646484 2.52064453 7.95646484 2.52064453 9 3 C9.33 3.99 9.66 4.98 10 6 C8.53932801 5.54917531 7.08151968 5.08906463 5.625 4.625 C4.81289062 4.36976563 4.00078125 4.11453125 3.1640625 3.8515625 C1 3 1 3 -1 1 C-0.67 0.67 -0.34 0.34 0 0 Z " fill="#AAA9AA" transform="translate(83,268)"/>
<path d="M0 0 C0.99 0.66 1.98 1.32 3 2 C1.02 4.31 -0.96 6.62 -3 9 C-3.66 8.67 -4.32 8.34 -5 8 C-5 7.34 -5 6.68 -5 6 C-4.01 5.34 -3.02 4.68 -2 4 C-0.80767387 1.94996045 -0.80767387 1.94996045 0 0 Z " fill="#A7A7A8" transform="translate(252,224)"/>
<path d="M0 0 C2.31 0 4.62 0 7 0 C7 0.66 7 1.32 7 2 C6.34 2 5.68 2 5 2 C5.33 2.99 5.66 3.98 6 5 C4.125 4.75 4.125 4.75 2 4 C0.75 1.9375 0.75 1.9375 0 0 Z " fill="#204867" transform="translate(192,200)"/>
<path d="M0 0 C0.99 0 1.98 0 3 0 C2.01 2.97 1.02 5.94 0 9 C-0.99 8.67 -1.98 8.34 -3 8 C-2.690625 7.236875 -2.38125 6.47375 -2.0625 5.6875 C-1.32106407 3.81210323 -0.63771783 1.91315348 0 0 Z " fill="#AFAEAF" transform="translate(267,198)"/>
<path d="M0 0 C1.9375 0.625 1.9375 0.625 4 2 C4.75 5.125 4.75 5.125 5 8 C4.01 8.495 4.01 8.495 3 9 C0 3.375 0 3.375 0 0 Z " fill="#F4F5F6" transform="translate(89,93)"/>
<path d="M0 0 C0.99 0.33 1.98 0.66 3 1 C1.68 3.64 0.36 6.28 -1 9 C-1.99 9 -2.98 9 -4 9 C-2.94124926 5.59687262 -1.99097846 2.98646769 0 0 Z " fill="#E7DEDB" transform="translate(18,70)"/>
<path d="M0 0 C0.99 0.33 1.98 0.66 3 1 C3.80078125 2.77734375 3.80078125 2.77734375 4.3125 4.9375 C4.49425781 5.64777344 4.67601562 6.35804688 4.86328125 7.08984375 C4.93095703 8.03537109 4.93095703 8.03537109 5 9 C4.34 9.66 3.68 10.32 3 11 C2.49384702 9.73160474 1.99530901 8.46016898 1.5 7.1875 C1.2215625 6.47980469 0.943125 5.77210938 0.65625 5.04296875 C0 3 0 3 0 0 Z " fill="#B3B2B3" transform="translate(7,185)"/>
<path d="M0 0 C1.5625 1.25 1.5625 1.25 3 3 C2.6875 5.1875 2.6875 5.1875 2 7 C1.34 6.67 0.68 6.34 0 6 C-0.33 7.32 -0.66 8.64 -1 10 C-1.125 3.375 -1.125 3.375 0 0 Z " fill="#1A4569" transform="translate(100,167)"/>
<path d="M0 0 C3.93673644 1.31224548 6.22719294 2.91910327 9 6 C8.67 6.99 8.34 7.98 8 9 C6.5 7.625 6.5 7.625 5 6 C5 5.34 5 4.68 5 4 C4.360625 3.71125 3.72125 3.4225 3.0625 3.125 C1 2 1 2 0 0 Z " fill="#DEE5EA" transform="translate(132,96)"/>
<path d="M0 0 C2.01136276 2.55991624 3.62845496 5.04590299 5 8 C4.34 8.66 3.68 9.32 3 10 C1 7 1 7 1 4 C0.34 4 -0.32 4 -1 4 C-0.67 2.68 -0.34 1.36 0 0 Z " fill="#C6C5C4" transform="translate(26,202)"/>
<path d="M0 0 C4.29951803 1.59241408 6.39671947 4.35540725 9 8 C8.67 8.99 8.34 9.98 8 11 C6.66375099 9.35653302 5.33107149 7.71016314 4 6.0625 C3.2575 5.14597656 2.515 4.22945312 1.75 3.28515625 C0 1 0 1 0 0 Z " fill="#143F62" transform="translate(210,185)"/>
<path d="M0 0 C0.33 0.66 0.66 1.32 1 2 C1.66 2.33 2.32 2.66 3 3 C0.03 3.66 -2.94 4.32 -6 5 C-5.67 4.01 -5.34 3.02 -5 2 C-2.4375 0.8125 -2.4375 0.8125 0 0 Z " fill="#A8A7A8" transform="translate(185,272)"/>
<path d="M0 0 C2.9375 0.8125 2.9375 0.8125 6 2 C6.33 2.99 6.66 3.98 7 5 C2.545 4.01 2.545 4.01 -2 3 C-1.34 2.67 -0.68 2.34 0 2 C0 1.34 0 0.68 0 0 Z " fill="#ABAAAB" transform="translate(96,272)"/>
<path d="M0 0 C6.75 0.75 6.75 0.75 9 3 C8.67 3.66 8.34 4.32 8 5 C4.62496331 3.8141763 2.35277269 2.72426311 0 0 Z " fill="#A9A6AA" transform="translate(67,261)"/>
<path d="M0 0 C3.96 1.98 3.96 1.98 8 4 C7.34 4.66 6.68 5.32 6 6 C4.02 5.01 2.04 4.02 0 3 C0 2.01 0 1.02 0 0 Z " fill="#C9C7C5" transform="translate(70,250)"/>
<path d="M0 0 C-0.99 1.485 -0.99 1.485 -2 3 C-2 2.34 -2 1.68 -2 1 C-5.3 0.67 -8.6 0.34 -12 0 C-12 -0.33 -12 -0.66 -12 -1 C-3.42857143 -2.42857143 -3.42857143 -2.42857143 0 0 Z " fill="#326289" transform="translate(200,81)"/>
<path d="M0 0 C1.32 0.33 2.64 0.66 4 1 C2.68 2.32 1.36 3.64 0 5 C-0.99 4.67 -1.98 4.34 -3 4 C-2.01 2.68 -1.02 1.36 0 0 Z " fill="#A1A1A1" transform="translate(237,241)"/>
<path d="M0 0 C0.95904856 3.83619425 0.91892116 5.32431536 0 9 C-0.99 9.33 -1.98 9.66 -3 10 C-2.01 6.7 -1.02 3.4 0 0 Z " fill="#C4C4C4" transform="translate(263,184)"/>
</svg>
