<?xml version="1.0" standalone="no"?>
<!DOCTYPE svg PUBLIC "-//W3C//DTD SVG 20010904//EN"
 "http://www.w3.org/TR/2001/REC-SVG-20010904/DTD/svg10.dtd">
<svg version="1.0" xmlns="http://www.w3.org/2000/svg"
 width="512.000000pt" height="512.000000pt" viewBox="0 0 512.000000 512.000000"
 preserveAspectRatio="xMidYMid meet">
<metadata>
Created by potrace 1.16, written by Peter Selinger 2001-2019
</metadata>
<g transform="translate(0.000000,512.000000) scale(0.100000,-0.100000)"
fill="#000000" stroke="none">
<path d="M2335 4784 c-302 -23 -527 -81 -672 -176 -78 -50 -128 -105 -162
-177 l-26 -56 -3 -297 -3 -298 540 0 541 0 0 -75 0 -75 -789 0 c-840 0 -874
-2 -984 -49 -176 -76 -308 -233 -383 -458 -51 -153 -65 -250 -71 -504 -9 -390
29 -606 145 -834 57 -110 174 -235 263 -278 102 -50 145 -57 386 -57 l222 0 3
342 c4 327 5 346 27 413 71 214 199 343 396 401 54 16 132 18 735 23 l675 6
80 28 c44 16 102 41 130 55 69 38 159 130 195 202 64 128 64 119 68 745 4 620
2 649 -50 747 -96 180 -320 300 -663 354 -96 15 -485 27 -600 18z m-293 -375
c132 -67 122 -267 -17 -330 -101 -46 -219 8 -255 117 -24 73 10 164 77 205 67
42 123 44 195 8z"/>
</g>
</svg>
