<?xml version="1.0" standalone="no"?>
<!DOCTYPE svg PUBLIC "-//W3C//DTD SVG 20010904//EN"
 "http://www.w3.org/TR/2001/REC-SVG-20010904/DTD/svg10.dtd">
<svg version="1.0" xmlns="http://www.w3.org/2000/svg"
 width="800.000000pt" height="800.000000pt" viewBox="0 0 800.000000 800.000000"
 preserveAspectRatio="xMidYMid meet">
<metadata>
Created by potrace 1.16, written by Peter Selinger 2001-2019
</metadata>
<g transform="translate(0.000000,800.000000) scale(0.100000,-0.100000)"
fill="#000000" stroke="none">
<path d="M3685 7884 c-427 -42 -756 -119 -1115 -261 -1003 -396 -1797 -1190
-2193 -2193 -122 -310 -196 -598 -244 -950 -26 -195 -26 -765 0 -960 48 -352
122 -640 244 -950 396 -1003 1190 -1797 2193 -2193 310 -122 598 -196 950
-244 195 -26 765 -26 960 0 352 48 640 122 950 244 1003 396 1797 1190 2193
2193 122 310 196 598 244 950 26 195 26 765 0 960 -48 352 -122 640 -244 950
-396 1003 -1190 1797 -2193 2193 -305 120 -591 194 -940 243 -110 15 -699 28
-805 18z m-2274 -3190 c185 -54 303 -227 311 -455 l3 -74 -418 -3 -418 -2 7
-53 c17 -144 64 -251 139 -312 56 -46 92 -62 168 -76 129 -24 273 21 343 106
36 44 84 139 84 168 0 14 9 17 44 17 l45 0 -15 -52 c-37 -126 -111 -221 -211
-271 -75 -38 -144 -50 -253 -45 -82 4 -108 10 -163 36 -123 57 -204 158 -243
302 -24 89 -24 281 0 369 49 180 174 315 323 350 63 15 195 12 254 -5z m2012
-13 c80 -31 177 -123 217 -205 42 -85 59 -155 66 -266 17 -293 -118 -512 -347
-561 -78 -17 -222 -7 -293 21 -67 25 -147 94 -176 150 -19 35 -19 34 -20 -247
l0 -283 -40 0 -40 0 0 700 0 700 40 0 40 0 0 -112 1 -113 21 40 c43 85 133
159 233 192 63 20 226 12 298 -16z m1538 13 c185 -54 303 -227 311 -455 l3
-74 -418 -3 -418 -2 7 -53 c17 -144 64 -251 139 -312 56 -46 92 -62 168 -76
129 -24 273 21 343 106 36 44 84 139 84 168 0 14 9 17 44 17 l45 0 -15 -52
c-37 -126 -111 -221 -211 -271 -75 -38 -144 -50 -253 -45 -82 4 -108 10 -163
36 -123 57 -204 158 -243 302 -24 89 -24 281 0 369 49 180 174 315 323 350 63
15 195 12 254 -5z m1044 -9 c73 -27 159 -114 179 -184 9 -30 16 -70 16 -88 0
-32 -1 -33 -40 -33 -37 0 -40 2 -40 26 0 90 -68 178 -161 210 -69 24 -223 24
-288 0 -103 -38 -146 -95 -139 -188 4 -49 9 -63 37 -92 47 -48 103 -70 290
-111 90 -20 187 -47 215 -59 61 -27 112 -76 137 -131 25 -55 25 -166 0 -220
-56 -120 -210 -183 -420 -173 -126 7 -193 33 -270 104 -64 59 -96 118 -107
202 l-7 52 41 0 c38 0 40 -2 47 -37 31 -175 204 -276 416 -244 151 23 229 86
237 191 10 137 -69 193 -351 249 -257 51 -347 125 -347 285 0 137 65 209 225
252 70 19 264 12 330 -11z m960 0 c73 -27 159 -114 179 -184 9 -30 16 -70 16
-88 0 -32 -1 -33 -40 -33 -37 0 -40 2 -40 26 0 90 -68 178 -161 210 -69 24
-223 24 -288 0 -103 -38 -146 -95 -139 -188 4 -49 9 -63 37 -92 47 -48 103
-70 290 -111 90 -20 187 -47 215 -59 61 -27 112 -76 137 -131 25 -55 25 -166
0 -220 -56 -120 -210 -183 -420 -173 -126 7 -193 33 -270 104 -64 59 -96 118
-107 202 l-7 52 41 0 c38 0 40 -2 47 -37 31 -175 204 -276 416 -244 151 23
229 86 237 191 10 137 -69 193 -351 249 -257 51 -347 125 -347 285 0 137 65
209 225 252 70 19 264 12 330 -11z m-4916 -200 c84 -113 157 -208 162 -211 5
-2 79 90 166 206 l158 210 52 0 52 0 -142 -187 c-79 -104 -163 -214 -186 -246
l-43 -57 177 -238 c98 -130 189 -252 203 -269 l24 -33 -55 0 -54 0 -104 143
c-57 78 -135 186 -175 239 l-71 97 -177 -240 -178 -239 -50 0 c-37 0 -47 3
-41 13 4 6 94 129 200 271 l192 259 -48 61 c-114 145 -321 417 -321 421 0 3
24 5 53 5 l52 0 154 -205z m1911 93 l1 -113 19 35 c56 106 205 189 338 190
l42 0 0 -39 0 -38 -73 -5 c-89 -6 -156 -39 -221 -108 -97 -103 -106 -151 -106
-542 l0 -298 -40 0 -40 0 0 515 0 515 40 0 40 0 0 -112z"/>
<path d="M1180 4625 c-145 -40 -257 -181 -277 -347 l-6 -48 372 0 371 0 0 33
c0 54 -35 162 -69 216 -82 128 -242 187 -391 146z"/>
<path d="M3143 4625 c-207 -56 -315 -305 -258 -599 18 -98 44 -154 93 -208
128 -138 383 -142 521 -8 81 79 125 206 125 360 0 252 -114 424 -304 460 -69
13 -114 12 -177 -5z"/>
<path d="M4730 4625 c-145 -40 -257 -181 -277 -347 l-6 -48 372 0 371 0 0 33
c0 54 -35 162 -69 216 -82 128 -242 187 -391 146z"/>
</g>
</svg>
