<?xml version="1.0" standalone="no"?>
<!DOCTYPE svg PUBLIC "-//W3C//DTD SVG 20010904//EN"
 "http://www.w3.org/TR/2001/REC-SVG-20010904/DTD/svg10.dtd">
<svg version="1.0" xmlns="http://www.w3.org/2000/svg"
 width="360.000000pt" height="360.000000pt" viewBox="0 0 360.000000 360.000000"
 preserveAspectRatio="xMidYMid meet">
<metadata>
Created by potrace 1.16, written by Peter Selinger 2001-2019
</metadata>
<g transform="translate(0.000000,360.000000) scale(0.100000,-0.100000)"
fill="#000000" stroke="none">
<path d="M2216 1803 c-4 -9 -6 -88 -5 -175 0 -87 -2 -158 -5 -158 -3 0 -21 8
-40 17 l-35 16 -118 -69 -118 -69 0 -140 0 -140 67 -40 c37 -22 91 -53 121
-69 l54 -29 94 53 c52 29 106 62 122 72 l27 19 0 318 c0 243 -3 321 -12 329
-13 10 -137 82 -143 82 -2 0 -6 -8 -9 -17z m-6 -578 c0 -47 -2 -51 -38 -71
l-37 -22 -43 25 c-39 23 -42 28 -42 68 0 40 3 45 41 67 l42 25 38 -21 c37 -20
39 -23 39 -71z"/>
<path d="M720 1441 l-115 -67 -3 -182 c-2 -127 1 -182 9 -182 6 0 42 18 80 40
l69 41 0 89 c0 83 2 90 26 109 40 31 59 33 98 10 l36 -21 0 -93 0 -94 74 -40
c40 -23 76 -41 80 -41 3 0 6 82 6 183 l0 182 -119 68 c-65 37 -120 67 -122 67
-2 -1 -56 -31 -119 -69z"/>
<path d="M2655 1436 l-110 -64 0 -143 0 -144 105 -62 c58 -34 113 -62 124 -62
23 -1 157 71 153 83 -2 5 -53 38 -115 73 l-112 65 0 47 c0 45 2 49 40 70 l39
22 41 -26 c36 -23 40 -29 40 -65 0 -22 3 -40 8 -40 4 0 39 20 77 43 69 42 70
43 73 88 l3 46 -114 67 c-63 36 -121 66 -128 66 -8 0 -63 -29 -124 -64z"/>
</g>
</svg>
