<?xml version="1.0" standalone="no"?>
<!DOCTYPE svg PUBLIC "-//W3C//DTD SVG 20010904//EN"
 "http://www.w3.org/TR/2001/REC-SVG-20010904/DTD/svg10.dtd">
<svg version="1.0" xmlns="http://www.w3.org/2000/svg"
 width="250.000000pt" height="250.000000pt" viewBox="0 0 250.000000 250.000000"
 preserveAspectRatio="xMidYMid meet">
<metadata>
Created by potrace 1.16, written by Peter Selinger 2001-2019
</metadata>
<g transform="translate(0.000000,250.000000) scale(0.100000,-0.100000)"
fill="#000000" stroke="none">
<path d="M930 1906 c-6 -8 -10 -25 -7 -38 4 -20 5 -19 7 7 2 25 4 22 9 -15 6
-44 7 -45 108 -105 56 -33 104 -63 108 -66 7 -7 -272 -173 -290 -172 -10 0
-269 147 -293 166 -8 6 -9 14 -3 21 7 8 3 12 -12 13 -12 0 -16 -1 -9 -4 9 -4
10 -9 2 -18 -7 -8 -10 -77 -8 -195 l3 -183 25 -15 25 -14 -23 18 c-22 19 -22
23 -19 204 l2 185 3 -185 2 -186 68 -34 c37 -19 104 -56 150 -82 46 -27 88
-48 93 -48 4 0 23 9 41 20 18 11 37 20 41 20 4 0 7 -25 5 -56 -3 -54 -4 -56
-48 -81 l-45 -25 -150 87 -150 86 -5 -183 -6 -183 -4 185 -5 185 -2 -179 c-3
-128 0 -182 9 -193 12 -15 88 -57 88 -48 0 2 -18 14 -41 25 -23 12 -39 23 -36
26 7 7 97 -47 92 -56 -3 -5 0 -12 6 -16 8 -4 9 -3 5 4 -10 17 7 15 30 -4 10
-8 13 -12 5 -8 -9 5 -12 3 -7 -5 4 -6 11 -9 16 -6 5 3 43 -13 85 -35 l75 -42
45 25 45 26 0 -53 c0 -28 5 -57 12 -64 9 -9 9 -12 0 -12 -18 0 -34 40 -30 76
l4 33 -38 -21 c-42 -24 -39 -24 -138 32 -30 17 -45 23 -32 13 12 -10 47 -31
77 -48 54 -29 55 -29 85 -12 l30 18 0 -34 c0 -36 30 -74 49 -62 13 8 143 -64
136 -75 -3 -5 0 -12 6 -16 8 -4 9 -3 5 4 -10 17 7 15 30 -4 10 -8 13 -12 5 -8
-9 5 -12 3 -7 -5 4 -6 12 -9 17 -5 5 3 26 -4 46 -16 20 -12 44 -19 53 -17 9 2
80 41 158 86 l142 83 0 44 0 45 38 -22 37 -21 149 86 c82 48 150 85 152 83 3
-2 -64 -43 -148 -91 -136 -79 -154 -87 -177 -77 -24 11 -25 10 -7 -4 11 -8 23
-15 28 -15 11 0 288 159 311 178 15 13 17 36 17 197 0 176 -1 183 -22 201 -17
14 -19 15 -10 2 15 -19 17 -18 -180 -132 l-117 -67 -46 27 c-33 19 -43 30 -36
37 6 6 11 30 11 53 l0 42 38 -20 38 -21 98 57 c55 31 105 55 113 52 9 -4 11
-1 7 6 -5 7 -2 9 8 6 8 -4 32 4 54 16 l39 22 0 184 1 185 -3 -182 -3 -183 -41
-21 c-23 -11 -38 -16 -35 -11 3 5 19 15 35 22 l30 12 3 190 c2 104 0 192 -5
195 -4 2 -6 -1 -5 -7 2 -6 -65 -51 -149 -100 l-151 -88 -139 80 c-76 44 -142
83 -146 88 -5 4 39 36 97 70 l106 62 0 49 0 50 -30 -16 c-16 -8 -83 -47 -149
-85 -66 -39 -126 -70 -132 -70 -21 0 -309 172 -303 181 8 14 -2 10 -16 -5z
m458 -352 c63 -36 128 -74 144 -84 l29 -17 -150 -88 -151 -87 -144 84 c-80 46
-145 85 -146 88 0 8 273 169 289 169 8 1 66 -29 129 -65z m-213 -580 c44 -26
85 -47 90 -47 6 0 52 25 104 55 l93 55 44 -24 c24 -14 44 -28 44 -33 0 -11
-280 -172 -293 -168 -19 5 -287 162 -287 168 1 13 96 57 110 50 8 -5 51 -29
95 -56z"/>
<path d="M167 1833 c-3 -21 -6 -302 -6 -625 l-1 -587 30 -16 c16 -8 30 -18 30
-21 0 -3 -5 -2 -12 2 -7 4 -8 3 -4 -4 4 -6 14 -8 23 -5 10 4 14 2 9 -5 -3 -6
-1 -14 5 -18 8 -4 9 -3 5 4 -9 16 3 15 34 -3 14 -7 25 -19 25 -26 0 -7 7 -14
15 -16 13 -4 13 -3 0 7 -37 29 25 -3 200 -104 102 -58 185 -111 185 -118 0 -6
7 -13 15 -15 13 -4 13 -3 0 6 -20 14 -4 14 22 0 17 -9 18 -13 7 -21 -11 -8
-10 -9 4 -4 17 5 77 -18 77 -30 0 -3 -5 -2 -12 2 -7 4 -8 3 -4 -5 4 -6 11 -9
16 -6 13 8 92 -34 85 -45 -3 -5 0 -12 6 -16 8 -4 9 -3 5 4 -4 7 -5 12 -2 12
16 0 185 -103 181 -110 -3 -5 0 -12 6 -16 8 -4 9 -3 5 4 -11 18 0 15 61 -20
32 -18 73 -33 92 -34 28 0 130 55 545 294 281 162 519 301 529 310 16 14 17
55 17 639 0 455 -4 623 -12 623 -8 0 -9 -162 -4 -617 6 -502 5 -621 -6 -634
-7 -9 -105 -70 -218 -135 -113 -64 -344 -198 -514 -296 -170 -98 -310 -177
-313 -175 -2 2 231 138 517 303 l519 299 1 628 c0 388 -4 627 -9 625 -6 -1
-77 -41 -160 -88 l-150 -85 -1 -441 0 -442 -277 -165 c-397 -235 -470 -277
-482 -277 -20 0 -191 102 -186 110 3 5 0 12 -6 16 -8 4 -9 3 -5 -4 10 -17 -7
-15 -30 4 -10 8 -13 12 -5 8 9 -5 12 -3 7 5 -4 6 -12 9 -17 6 -12 -8 -280 145
-274 155 3 5 0 12 -6 16 -8 4 -9 3 -5 -4 4 -7 4 -12 1 -12 -9 0 -165 91 -165
96 0 3 5 2 12 -2 7 -4 8 -3 4 5 -4 6 -11 9 -16 6 -5 -3 -23 1 -40 10 l-30 16
0 449 c0 317 -3 450 -11 450 -6 0 -76 38 -156 85 -80 47 -147 85 -148 85 -2 0
-5 -17 -8 -37z"/>
<path d="M1990 1261 l0 -440 -182 -109 c-277 -166 -544 -320 -565 -325 -15 -4
-16 -5 -1 -6 16 -1 242 127 590 334 l167 100 1 443 c0 243 -2 442 -5 442 -3 0
-5 -198 -5 -439z"/>
</g>
</svg>
