<?xml version="1.0" standalone="no"?>
<!DOCTYPE svg PUBLIC "-//W3C//DTD SVG 20010904//EN"
 "http://www.w3.org/TR/2001/REC-SVG-20010904/DTD/svg10.dtd">
<svg version="1.0" xmlns="http://www.w3.org/2000/svg"
 width="200.000000pt" height="200.000000pt" viewBox="0 0 200.000000 200.000000"
 preserveAspectRatio="xMidYMid meet">
<metadata>
Created by potrace 1.16, written by Peter Selinger 2001-2019
</metadata>
<g transform="translate(0.000000,200.000000) scale(0.100000,-0.100000)"
fill="#000000" stroke="none">
<path d="M348 1848 c-32 -50 -38 -93 -38 -277 0 -224 -11 -277 -58 -300 -28
-14 -32 -21 -32 -59 0 -36 4 -44 26 -54 52 -24 58 -54 64 -293 4 -188 8 -225
24 -258 25 -51 32 -52 28 -7 -4 39 15 86 42 109 13 11 16 41 16 185 -1 208 -7
240 -57 286 l-38 35 38 35 c50 46 56 78 57 286 0 144 -3 174 -16 185 -28 23
-46 70 -42 110 2 22 3 39 2 39 -1 0 -8 -10 -16 -22z"/>
<path d="M1630 1815 c0 -30 -21 -75 -44 -94 -14 -11 -16 -43 -16 -200 0 -208
11 -253 68 -286 l29 -18 -38 -34 c-23 -21 -43 -50 -49 -72 -5 -20 -10 -114
-11 -209 -1 -171 -1 -172 25 -203 14 -17 28 -40 31 -52 2 -12 6 -31 8 -42 3
-16 8 -12 23 20 16 34 19 73 24 260 5 240 12 268 65 281 22 5 25 12 25 49 0
34 -4 45 -18 49 -11 4 -30 18 -43 32 -24 25 -24 30 -30 252 -5 216 -12 270
-38 287 -7 4 -11 -4 -11 -20z"/>
<path d="M220 300 c0 -27 3 -30 30 -30 l30 0 0 -85 0 -85 30 0 30 0 0 85 0 85
30 0 c27 0 30 3 30 30 l0 30 -90 0 -90 0 0 -30z"/>
<path d="M456 253 c31 -54 44 -89 44 -115 0 -36 2 -38 30 -38 28 0 30 3 30 38
0 25 14 61 44 115 l45 77 -40 0 c-34 0 -43 -5 -57 -30 -21 -37 -27 -37 -42 0
-11 27 -17 30 -55 30 l-43 0 44 -77z"/>
<path d="M660 215 l0 -115 30 0 c27 0 30 3 30 30 0 28 2 30 38 30 52 0 82 32
82 86 0 62 -29 84 -113 84 l-67 0 0 -115z"/>
<path d="M870 215 l0 -115 75 0 c73 0 75 1 75 25 0 23 -4 25 -45 25 -38 0 -45
3 -45 20 0 17 7 20 40 20 36 0 40 3 40 25 0 23 -4 25 -40 25 -33 0 -40 3 -40
20 0 17 7 20 45 20 41 0 45 2 45 25 0 24 -2 25 -75 25 l-75 0 0 -115z"/>
<path d="M1082 302 c-81 -75 -31 -202 80 -202 50 0 82 19 103 60 19 37 19 73
0 110 -22 42 -53 60 -106 60 -37 0 -53 -6 -77 -28z m151 -22 c37 -41 37 -89
-2 -132 -24 -27 -36 -33 -71 -33 -82 0 -129 96 -79 159 43 54 105 57 152 6z"/>
<path d="M1320 215 c0 -70 4 -115 10 -115 6 0 10 20 10 45 0 41 2 45 25 45 18
0 31 -11 51 -45 14 -25 30 -45 36 -45 5 0 -2 20 -16 45 -15 25 -22 45 -16 45
20 0 50 40 50 68 0 15 -7 38 -16 50 -13 19 -24 22 -75 22 l-59 0 0 -115z"/>
</g>
</svg>
