<?xml version="1.0" standalone="no"?>
<!DOCTYPE svg PUBLIC "-//W3C//DTD SVG 20010904//EN"
 "http://www.w3.org/TR/2001/REC-SVG-20010904/DTD/svg10.dtd">
<svg version="1.0" xmlns="http://www.w3.org/2000/svg"
 width="512.000000pt" height="512.000000pt" viewBox="0 0 512.000000 512.000000"
 preserveAspectRatio="xMidYMid meet">
<metadata>
Created by potrace 1.16, written by Peter Selinger 2001-2019
</metadata>
<g transform="translate(0.000000,512.000000) scale(0.100000,-0.100000)"
fill="#000000" stroke="none">
<path d="M2240 5105 c-389 -48 -766 -188 -1091 -404 -504 -335 -871 -825
-1043 -1395 -41 -132 -81 -333 -96 -468 -13 -125 -13 -431 0 -556 108 -1014
825 -1880 1804 -2176 246 -75 467 -106 755 -106 336 0 627 54 929 172 210 81
463 227 645 371 l92 72 -150 7 c-111 5 -176 13 -250 32 -190 49 -381 166 -523
321 -62 68 -162 206 -162 224 0 9 459 291 474 291 3 0 25 -30 49 -67 78 -121
206 -227 311 -258 62 -19 201 -19 287 -1 156 33 231 110 248 254 10 86 0 123
-52 176 -51 53 -139 104 -322 189 -459 212 -602 305 -704 459 -83 123 -125
344 -103 545 41 385 259 647 586 704 110 19 329 7 452 -25 216 -55 357 -133
508 -278 55 -53 98 -99 96 -101 -19 -17 -482 -348 -483 -345 -54 110 -96 155
-181 194 -202 92 -429 -24 -430 -220 0 -78 24 -126 97 -192 96 -87 216 -147
477 -239 262 -92 423 -199 551 -363 l26 -34 21 94 c42 184 54 282 59 504 8
322 -21 550 -103 821 -246 813 -894 1461 -1708 1707 -132 41 -333 81 -468 96
-131 14 -469 11 -598 -5z m770 -1935 l0 -260 -397 -2 -398 -3 -3 -1117 -2
-1118 -290 0 -290 0 -2 1118 -3 1117 -397 3 -398 2 0 260 0 260 1090 0 1090 0
0 -260z"/>
</g>
</svg>
