<?xml version="1.0" standalone="no"?>
<!DOCTYPE svg PUBLIC "-//W3C//DTD SVG 20010904//EN"
 "http://www.w3.org/TR/2001/REC-SVG-20010904/DTD/svg10.dtd">
<svg version="1.0" xmlns="http://www.w3.org/2000/svg"
 width="512.000000pt" height="512.000000pt" viewBox="0 0 512.000000 512.000000"
 preserveAspectRatio="xMidYMid meet">
<metadata>
Created by potrace 1.16, written by Peter Selinger 2001-2019
</metadata>
<g transform="translate(0.000000,512.000000) scale(0.100000,-0.100000)"
fill="#000000" stroke="none">
<path d="M3066 4998 c7 -35 13 -108 14 -164 0 -180 -51 -321 -174 -485 -85
-113 -174 -195 -441 -408 -331 -265 -460 -396 -527 -538 -77 -164 -31 -361
137 -588 76 -102 486 -516 493 -497 6 18 -46 106 -175 294 -175 257 -223 368
-223 513 0 51 8 92 29 151 53 153 161 285 386 469 374 307 567 580 606 860 20
145 -13 297 -90 409 -18 25 -36 46 -40 46 -5 0 -2 -28 5 -62z"/>
<path d="M3535 3996 c-431 -143 -761 -352 -885 -561 -77 -131 -100 -279 -64
-419 22 -85 93 -216 170 -311 113 -141 142 -229 110 -340 -21 -69 -54 -125
-109 -182 -23 -24 -35 -43 -28 -43 29 0 179 112 252 187 88 91 122 145 143
228 33 126 11 202 -112 377 -107 152 -144 231 -150 313 -13 197 213 422 731
730 138 82 132 84 -58 21z"/>
<path d="M3852 2344 c-64 -17 -101 -35 -126 -63 -23 -26 -14 -26 68 -5 186 48
367 -67 392 -249 8 -59 -24 -164 -70 -231 -79 -115 -229 -241 -406 -342 -83
-48 -117 -76 -100 -82 17 -6 281 88 369 132 191 94 322 208 382 331 46 93 52
199 18 290 -25 68 -99 150 -167 184 -98 50 -250 65 -360 35z"/>
<path d="M1710 2290 c-266 -47 -567 -169 -592 -238 -6 -19 -2 -29 20 -52 47
-46 187 -82 447 -112 150 -18 942 -18 1120 0 346 34 652 88 720 127 22 13 77
42 123 65 46 23 82 44 79 46 -2 3 -60 -4 -128 -15 -816 -131 -1888 -152 -2001
-39 -20 20 -20 20 3 44 41 44 179 98 454 177 l50 15 -95 0 c-52 0 -142 -8
-200 -18z"/>
<path d="M1702 1716 c-220 -89 -252 -185 -89 -267 249 -126 877 -152 1422 -59
152 26 405 88 405 99 0 3 -21 14 -46 25 -25 10 -71 38 -104 61 l-58 43 -134
-23 c-294 -51 -395 -60 -723 -60 -419 0 -604 23 -641 80 -19 30 -13 52 28 93
17 18 29 34 27 37 -3 2 -42 -11 -87 -29z"/>
<path d="M1830 1177 c-81 -33 -115 -53 -144 -87 -66 -79 2 -162 184 -226 294
-102 763 -111 1145 -22 94 22 314 94 328 107 4 5 -55 39 -132 77 l-139 69 -94
-16 c-301 -54 -584 -66 -859 -35 -156 18 -198 27 -235 51 -31 20 -30 42 3 77
33 34 19 35 -57 5z"/>
<path d="M1279 830 c-198 -31 -418 -117 -513 -201 -96 -84 -54 -162 108 -203
161 -40 660 -97 1025 -117 269 -15 843 -7 1081 15 359 34 671 90 885 161 153
50 221 82 274 131 46 41 57 74 37 112 -12 24 -105 89 -94 66 2 -5 10 -21 17
-36 72 -143 -289 -239 -1124 -300 -229 -16 -1007 -17 -1195 0 -302 27 -491 58
-630 104 -75 24 -110 45 -110 64 0 54 207 142 395 168 82 11 88 13 67 25 -31
16 -151 22 -223 11z"/>
<path d="M4362 505 c-157 -159 -779 -302 -1509 -346 -397 -24 -1056 -2 -1378
45 -132 20 -130 5 6 -38 235 -76 695 -113 1259 -103 1005 18 1599 179 1664
450 8 35 -1 33 -42 -8z"/>
</g>
</svg>
