<?xml version="1.0" standalone="no"?>
<!DOCTYPE svg PUBLIC "-//W3C//DTD SVG 20010904//EN"
 "http://www.w3.org/TR/2001/REC-SVG-20010904/DTD/svg10.dtd">
<svg version="1.0" xmlns="http://www.w3.org/2000/svg"
 width="401.000000pt" height="323.000000pt" viewBox="0 0 401.000000 323.000000"
 preserveAspectRatio="xMidYMid meet">
<metadata>
Created by potrace 1.16, written by Peter Selinger 2001-2019
</metadata>
<g transform="translate(0.000000,323.000000) scale(0.100000,-0.100000)"
fill="#000000" stroke="none">
<path d="M1855 2922 c-27 -2 -55 -8 -61 -13 -14 -12 -164 -10 -164 2 0 5 -40
9 -90 9 -53 0 -90 -4 -90 -10 0 -5 -6 -10 -14 -10 -21 0 -76 -58 -76 -80 0
-11 -4 -20 -10 -20 -5 0 -10 12 -10 26 0 14 -4 23 -9 20 -5 -3 -11 3 -14 13
-2 10 -18 24 -36 32 -17 8 -31 17 -31 21 0 5 -34 8 -75 8 -43 0 -75 -4 -75
-10 0 -5 -7 -10 -15 -10 -9 0 -27 -11 -40 -25 -14 -13 -25 -21 -26 -17 -1 4
-6 -9 -12 -28 -6 -19 -13 -170 -17 -335 -3 -165 -7 -300 -8 -301 -1 0 -8 -1
-14 -1 -7 -1 -37 -6 -67 -12 -29 -6 -98 -11 -152 -11 -59 0 -99 -4 -99 -10 0
-6 -26 -10 -58 -10 -60 0 -82 -11 -82 -42 0 -10 -4 -18 -10 -18 -5 0 -10 -28
-11 -62 -1 -59 -14 -125 -20 -103 -1 6 -6 -24 -10 -65 -17 -163 -29 -244 -39
-254 -5 -5 -10 -34 -10 -62 0 -29 -4 -55 -9 -58 -4 -3 -11 -35 -13 -71 -3 -36
-11 -71 -17 -79 -7 -8 -12 -64 -14 -143 l-2 -129 35 -37 c20 -22 44 -37 57
-37 13 0 23 -4 23 -10 0 -5 15 -10 34 -10 18 0 54 -3 80 -6 36 -5 46 -11 46
-25 0 -26 36 -92 60 -109 11 -8 20 -20 20 -27 0 -7 4 -13 8 -13 4 0 15 -12 24
-27 9 -16 28 -40 42 -55 14 -15 26 -32 26 -38 0 -6 4 -9 8 -6 8 5 42 -28 42
-39 0 -5 25 -34 87 -101 21 -23 72 -59 113 -80 41 -21 77 -42 78 -47 2 -4 15
-7 28 -7 13 0 24 -4 24 -10 0 -5 9 -10 19 -10 11 0 26 -7 35 -15 8 -8 24 -15
35 -15 11 0 23 -4 26 -10 3 -5 17 -10 30 -10 13 0 30 -7 39 -15 8 -8 32 -15
55 -15 22 0 42 -4 45 -9 4 -5 44 -12 91 -16 47 -4 82 -11 79 -16 -3 -5 78 -9
186 -9 113 0 189 4 186 9 -4 5 28 12 69 16 41 4 78 11 81 16 3 5 25 9 50 9 24
0 44 4 44 10 0 5 16 12 35 16 19 3 38 10 41 15 3 5 16 9 30 9 13 0 24 4 24 9
0 5 14 12 30 16 17 4 30 11 30 16 0 5 12 9 26 9 14 0 22 4 19 10 -3 5 6 12 20
16 14 3 25 10 25 15 0 5 7 9 14 9 8 0 27 11 42 25 15 14 31 25 35 25 5 0 18 8
28 17 69 64 91 83 96 83 10 0 35 28 35 39 0 6 5 11 11 11 12 0 39 25 39 36 0
3 16 21 35 40 19 18 35 37 35 42 0 5 11 22 25 38 14 16 25 32 25 37 0 4 9 7
20 7 11 0 20 4 20 9 0 6 20 13 45 17 25 3 48 10 51 15 3 5 21 9 40 9 20 0 42
7 50 15 9 8 24 15 35 15 10 0 19 5 19 10 0 6 11 10 25 10 14 0 25 3 25 8 0 4
17 16 38 27 20 11 42 24 49 30 7 5 19 16 27 23 8 6 18 12 21 12 12 0 165 143
165 155 0 3 9 16 21 28 11 12 29 39 40 59 10 20 23 39 29 43 5 3 10 15 10 26
0 10 5 19 10 19 6 0 10 11 10 24 0 14 7 31 15 40 8 8 15 30 15 50 0 19 5 38
10 41 6 4 10 60 10 136 0 79 -4 129 -10 129 -5 0 -10 13 -10 29 0 29 -27 93
-42 99 -5 2 -8 11 -8 19 0 19 -116 133 -135 133 -8 0 -15 4 -15 9 0 5 -13 12
-30 16 -16 4 -30 11 -30 16 0 5 -15 9 -33 9 -18 0 -37 4 -43 10 -5 5 -76 13
-157 16 -81 4 -147 11 -147 16 0 4 -53 8 -118 8 -128 0 -142 5 -142 51 0 15
-4 29 -9 31 -5 2 -12 128 -16 282 -5 190 -11 286 -20 302 -15 30 -54 64 -72
64 -8 0 -11 5 -8 10 4 6 -30 10 -94 10 -59 0 -101 -4 -101 -10 0 -5 -22 -7
-52 -4 -132 12 -280 15 -348 5 -41 -5 -80 -6 -89 -1 -20 10 -108 16 -176 12z
m-263 -42 c29 0 76 -57 83 -100 4 -22 11 -42 16 -46 5 -3 9 -44 10 -92 1 -107
12 -186 22 -157 6 17 27 222 27 263 0 7 4 11 9 8 12 -8 23 23 15 46 -9 29 46
74 101 83 95 14 143 -12 184 -98 l29 -60 31 61 c20 40 41 67 61 77 42 21 61
19 24 -4 -17 -10 -40 -31 -52 -46 -21 -27 -22 -35 -22 -331 l0 -304 145 0 145
0 0 293 c0 265 -2 295 -19 327 -25 47 -58 69 -117 80 l-49 9 55 -4 c68 -6 98
-27 130 -92 14 -28 29 -51 34 -52 4 -1 19 21 32 48 21 46 70 91 99 91 6 0 -4
-9 -22 -20 -18 -10 -41 -37 -53 -60 -19 -38 -20 -54 -18 -327 l3 -288 148 -3
147 -3 2 118 2 118 6 -130 5 -130 40 -12 c22 -7 128 -17 235 -21 131 -6 -248
-9 -1149 -10 -739 -1 -1342 0 -1339 3 3 3 88 10 189 15 182 8 239 19 239 47 0
10 31 13 150 13 l150 0 2 213 c1 116 4 166 5 110 2 -57 7 -103 12 -103 12 0
21 56 30 195 10 134 31 212 67 246 25 23 85 40 119 33 11 -2 28 -4 37 -4z
m-172 -1052 c76 -52 101 -139 61 -216 -78 -152 -311 -100 -311 70 0 56 16 91
57 129 36 33 46 37 109 38 37 1 60 -5 84 -21z m1953 -35 c75 -38 88 -158 32
-282 -46 -100 -145 -204 -242 -255 -37 -19 -38 -18 -19 28 34 80 91 309 116
464 l12 73 36 -7 c21 -4 50 -13 65 -21z m-2482 -643 c17 -9 19 -22 19 -105 0
-115 0 -115 -134 -115 -89 0 -96 1 -96 20 0 25 -27 39 -98 49 -46 7 -27 9 101
10 l157 1 0 63 c0 36 5 68 12 75 15 15 15 15 39 2z m730 -199 c16 -13 23 -29
23 -55 0 -32 -9 -46 -79 -116 -44 -44 -114 -105 -156 -135 -79 -57 -278 -165
-304 -165 -17 0 -158 94 -177 118 -11 15 -10 14 8 -1 20 -17 24 -16 105 18
189 81 330 175 448 299 59 62 90 71 132 37z"/>
</g>
</svg>
