<?xml version="1.0" encoding="UTF-8"?>
<svg version="1.1" xmlns="http://www.w3.org/2000/svg" width="512" height="512">
<path d="M0 0 C0.97088562 0.00215515 1.94177124 0.0043103 2.94207764 0.00653076 C17.28529125 0.05759944 31.2740684 0.46998894 45.375 3.3125 C46.35855469 3.50054199 47.34210938 3.68858398 48.35546875 3.88232422 C90.20846716 12.0514576 129.11594961 29.60177123 162.375 56.3125 C162.95765625 56.77946289 163.5403125 57.24642578 164.140625 57.72753906 C178.17187662 69.09632909 191.43736488 81.92713207 202.375 96.3125 C203.30144299 97.48748434 204.22857424 98.66192621 205.15625 99.8359375 C236.48093958 139.98362033 257.31579107 193.0769552 257.578125 244.32421875 C257.58518463 245.24691055 257.59224426 246.16960236 257.59951782 247.12025452 C257.82790445 285.72428788 257.82790445 285.72428788 254.375 302.3125 C254.07698486 303.77695557 254.07698486 303.77695557 253.77294922 305.27099609 C243.52018988 354.27688173 221.18095353 398.27990494 186.375 434.3125 C185.77606934 434.93334473 185.17713867 435.55418945 184.56005859 436.19384766 C176.89623497 444.09500259 169.15501606 451.64016955 160.375 458.3125 C159.83472168 458.72918945 159.29444336 459.14587891 158.73779297 459.57519531 C124.10851349 486.19517971 83.60940394 503.77205484 40.375 510.3125 C39.25037354 510.48982666 38.12574707 510.66715332 36.96704102 510.84985352 C25.41309591 512.50125703 13.97034499 512.6692131 2.3125 512.625 C1.31676971 512.62317719 0.32103943 512.62135437 -0.7048645 512.61947632 C-15.19429309 512.57478596 -29.38204131 512.21451327 -43.625 509.3125 C-44.5413623 509.13025879 -45.45772461 508.94801758 -46.40185547 508.76025391 C-52.85473313 507.44863995 -59.24784326 505.95152372 -65.625 504.3125 C-66.37974609 504.11930176 -67.13449219 503.92610352 -67.91210938 503.72705078 C-85.64756799 499.08528625 -102.46505876 491.90465001 -118.625 483.3125 C-119.33865723 482.93899414 -120.05231445 482.56548828 -120.78759766 482.18066406 C-152.84266661 465.3361496 -182.14150955 440.52634586 -203.625 411.3125 C-204.46056908 410.20675275 -205.29650577 409.1012832 -206.1328125 407.99609375 C-216.66455389 393.87417313 -225.20306621 378.26451674 -232.625 362.3125 C-232.95064941 361.61817871 -233.27629883 360.92385742 -233.61181641 360.20849609 C-243.07772178 339.73980262 -249.41556372 317.62754418 -252.625 295.3125 C-252.80087646 294.11802246 -252.97675293 292.92354492 -253.15795898 291.69287109 C-254.7867639 279.86141943 -254.98404904 268.11650095 -254.9375 256.1875 C-254.93534485 255.19327026 -254.9331897 254.19904053 -254.93096924 253.17468262 C-254.88063314 238.70640045 -254.58351704 224.52560929 -251.625 210.3125 C-251.42632324 209.33619629 -251.22764648 208.35989258 -251.02294922 207.35400391 C-240.90115459 158.97410016 -218.98458987 114.9869481 -184.625 79.3125 C-183.99287598 78.65314453 -183.36075195 77.99378906 -182.70947266 77.31445312 C-173.56502521 67.82619695 -164.26765991 59.0862956 -153.625 51.3125 C-152.47394983 50.45443848 -151.32290823 49.59636549 -150.171875 48.73828125 C-141.98224019 42.70072604 -133.47961724 37.31792698 -124.625 32.3125 C-123.91778809 31.9103125 -123.21057617 31.508125 -122.48193359 31.09375 C-99.34654164 18.0683259 -74.17537591 9.31948539 -48.1875 4 C-47.46860596 3.85264404 -46.74971191 3.70528809 -46.0090332 3.5534668 C-30.69950508 0.64361661 -15.54774387 -0.06220561 0 0 Z " fill="#DC524A" transform="translate(254.625,-0.3125)"/>
<path d="M0 0 C7.44565298 0.93042721 7.44565298 0.93042721 10.953125 2.49609375 C11.6450293 2.80216553 12.33693359 3.1082373 13.04980469 3.42358398 C13.77586914 3.75817627 14.50193359 4.09276855 15.25 4.4375 C16.41257324 4.96549194 16.41257324 4.96549194 17.59863281 5.50415039 C54.54722857 22.5285385 89.20385051 47.38767295 114 80 C114.92644299 81.17498434 115.85357424 82.34942621 116.78125 83.5234375 C148.10593958 123.67112033 168.94079107 176.7644552 169.203125 228.01171875 C169.21018463 228.93441055 169.21724426 229.85710236 169.22451782 230.80775452 C169.45290445 269.41178788 169.45290445 269.41178788 166 286 C165.70198486 287.46445557 165.70198486 287.46445557 165.39794922 288.95849609 C155.14518988 337.96438173 132.80595353 381.96740494 98 418 C97.40106934 418.62084473 96.80213867 419.24168945 96.18505859 419.88134766 C88.52123497 427.78250259 80.78001606 435.32766955 72 442 C71.45972168 442.41668945 70.91944336 442.83337891 70.36279297 443.26269531 C35.73351349 469.88267971 -4.76559606 487.45955484 -48 494 C-49.12462646 494.17732666 -50.24925293 494.35465332 -51.40795898 494.53735352 C-62.96190409 496.18875703 -74.40465501 496.3567131 -86.0625 496.3125 C-87.05823029 496.31067719 -88.05396057 496.30885437 -89.0798645 496.30697632 C-103.56929309 496.26228596 -117.75704131 495.90201327 -132 493 C-133.37454346 492.72663818 -133.37454346 492.72663818 -134.77685547 492.44775391 C-141.22973313 491.13613995 -147.62284326 489.63902372 -154 488 C-154.75474609 487.80680176 -155.50949219 487.61360352 -156.28710938 487.41455078 C-172.1719517 483.25713375 -187.07469348 476.78423024 -202 470 C-201.67 445.58 -201.34 421.16 -201 396 C-195.06 398.64 -189.12 401.28 -183 404 C-179.41049213 405.24628889 -176.02414614 406.37308329 -172.375 407.3125 C-171.47821533 407.55121826 -170.58143066 407.78993652 -169.6574707 408.03588867 C-159.76672086 410.52881786 -149.70661334 411.72668691 -139.57128906 412.73364258 C-138.01335479 412.89502753 -136.4569631 413.07462011 -134.90527344 413.2878418 C-127.6983615 414.2609306 -120.44974786 414.18607033 -113.19140625 414.18530273 C-110.90084854 414.18747548 -108.61078457 414.20564525 -106.3203125 414.22460938 C-96.69818695 414.26151676 -87.51500733 413.55609866 -78 412 C-77.17806152 411.86891846 -76.35612305 411.73783691 -75.50927734 411.6027832 C-44.71738094 406.4563949 -15.10405494 393.8566067 3.625 367.8125 C21.83308184 340.95273978 28.30247955 306.88731274 22.86889648 274.9465332 C17.95489219 249.98300275 6.11660996 227.86548158 -15.20727539 213.1862793 C-27.75288638 205.03791646 -41.43438089 199.35826327 -56 196 C-56.79164551 195.81236084 -57.58329102 195.62472168 -58.39892578 195.43139648 C-68.00200167 193.49056976 -77.70544511 193.66310703 -87.45996094 193.68432617 C-90.4658717 193.68746437 -93.47077429 193.66404029 -96.4765625 193.63867188 C-107.86495975 193.60325263 -118.74197711 194.38877165 -129.96289062 196.35473633 C-133.01451632 196.88392225 -135.89230127 197.14767024 -139 197 C-138.32104719 179.05027838 -136.57323176 161.19462289 -134.9375 143.3125 C-133.968125 132.649375 -132.99875 121.98625 -132 111 C-88.11 111 -44.22 111 1 111 C0.67 94.5 0.34 78 0 61 C-0.06006385 49.78968286 -0.10076038 38.58456854 -0.0625 27.375 C-0.05682601 24.66406405 -0.05281816 21.95312638 -0.04882812 19.2421875 C-0.03819727 12.82810237 -0.02180575 6.41405645 0 0 Z " fill="#25A162" transform="translate(343,16)"/>
<path d="M0 0 C60.06 0 120.12 0 182 0 C182 16.5 182 33 182 50 C138.11 50 94.22 50 49 50 C49 53.96 49 57.92 49 62 C48.8618608 64.43392749 48.68923371 66.86642721 48.46508789 69.29394531 C48.34819107 70.58858704 48.23129425 71.88322876 48.1108551 73.21710205 C47.98161031 74.58745764 47.8522069 75.95779829 47.72265625 77.328125 C47.59009266 78.77150527 47.45797567 80.21492663 47.32627869 81.65838623 C47.05128396 84.66059224 46.77283114 87.66244794 46.49145508 90.6640625 C46.13264431 94.4918537 45.77972603 98.32015744 45.42903996 102.14870071 C45.09131054 105.83368445 44.75093172 109.51842189 44.41015625 113.203125 C44.34638353 113.89443764 44.28261082 114.58575027 44.21690559 115.29801178 C43.57705482 122.21341329 42.92198621 129.11598202 42 136 C43.90652344 135.566875 43.90652344 135.566875 45.8515625 135.125 C60.79522907 132.09062274 75.41490684 131.5782514 90.625 131.5625 C91.61687317 131.55677979 92.60874634 131.55105957 93.63067627 131.54516602 C105.47076653 131.49727692 116.50377956 132.02868336 128 135 C128.7842334 135.19327881 129.5684668 135.38655762 130.37646484 135.58569336 C145.95723116 139.65381348 160.80389458 146.4004158 173 157 C173.5254541 157.45439453 174.0509082 157.90878906 174.59228516 158.37695312 C187.79361127 170.01573722 197.44136863 184.93205342 202 202 C202.28762207 203.06130127 202.28762207 203.06130127 202.58105469 204.14404297 C210.50954855 234.46762186 206.9770025 269.19443618 191.984375 296.83984375 C177.06102302 322.01565604 154.27231315 339.35380548 126.1171875 347.234375 C120.43762243 348.62935589 114.73428006 349.85314399 109 351 C108.1028125 351.1959375 107.205625 351.391875 106.28125 351.59375 C66.81969365 360.08547732 17.98970914 354.79446643 -18 337 C-20 335 -20 335 -20.24050903 332.86129761 C-20.23606781 331.9774942 -20.23162659 331.0936908 -20.22705078 330.18310547 C-20.22689972 329.18221893 -20.22674866 328.1813324 -20.22659302 327.15011597 C-20.21627045 326.06674957 -20.20594788 324.98338318 -20.1953125 323.8671875 C-20.1924826 322.76021515 -20.18965271 321.6532428 -20.18673706 320.51272583 C-20.17551519 316.96670863 -20.15040691 313.42094125 -20.125 309.875 C-20.1149728 307.47526406 -20.1058465 305.07552417 -20.09765625 302.67578125 C-20.07556932 296.78376849 -20.04207207 290.89190209 -20 285 C-16.59703471 286.09873283 -13.30285057 287.23077726 -10.07421875 288.76953125 C3.03901458 294.88864059 16.10211129 298.96815515 30.1875 302.1875 C30.86296875 302.34250977 31.5384375 302.49751953 32.234375 302.65722656 C44.41209164 305.30882615 56.42105541 306.37832345 68.875 306.3125 C69.57588745 306.31100952 70.2767749 306.30951904 70.99890137 306.3079834 C81.27830753 306.26871099 91.05592327 305.83594844 101 303 C102.59521484 302.56494141 102.59521484 302.56494141 104.22265625 302.12109375 C119.24458223 297.58223116 131.45710722 289.40496357 139.53515625 275.7578125 C148.28014748 259.29390902 150.17239635 238.15521463 145.375 220.125 C140.22539998 205.46568564 131.98272538 195.04539177 118 188 C88.59477918 174.12337894 52.39202775 177.52642746 21.515625 184.1328125 C11.40175355 186.11900448 6.58936539 183.48344664 -1.9375 178 C-3.00291016 177.33226562 -4.06832031 176.66453125 -5.16601562 175.9765625 C-7.78646123 174.3314397 -10.39694953 172.67245914 -13 171 C-12.34363818 152.1295977 -10.9042019 133.32957703 -9.44848251 114.50809479 C-9.24816508 111.91373556 -9.04912037 109.31928172 -8.85049438 106.72479248 C-7.02273011 82.85336829 -5.14050145 58.98650588 -3.1875 35.125 C-3.08272339 33.84245331 -2.97794678 32.55990662 -2.86999512 31.23849487 C-2.57530056 27.64061492 -2.27843581 24.04292277 -1.98046875 20.4453125 C-1.85272316 18.88975899 -1.85272316 18.88975899 -1.72239685 17.30278015 C-1.6010714 15.84990349 -1.6010714 15.84990349 -1.47729492 14.36767578 C-1.4087883 13.54228302 -1.34028168 12.71689026 -1.2696991 11.8664856 C-0.89705974 7.90590377 -0.43930472 3.95374251 0 0 Z " fill="#FEFDFD" transform="translate(162,77)"/>
</svg>
