<?xml version="1.0" standalone="no"?>
<!DOCTYPE svg PUBLIC "-//W3C//DTD SVG 20010904//EN"
 "http://www.w3.org/TR/2001/REC-SVG-20010904/DTD/svg10.dtd">
<svg version="1.0" xmlns="http://www.w3.org/2000/svg"
 width="620.000000pt" height="620.000000pt" viewBox="0 0 620.000000 620.000000"
 preserveAspectRatio="xMidYMid meet">
<metadata>
Created by potrace 1.16, written by Peter Selinger 2001-2019
</metadata>
<g transform="translate(0.000000,620.000000) scale(0.100000,-0.100000)"
fill="#000000" stroke="none">
<path d="M2964 4910 c-497 -48 -947 -307 -1237 -711 -81 -114 -195 -339 -236
-469 -58 -187 -75 -304 -75 -520 0 -146 4 -220 18 -295 48 -264 147 -496 305
-720 73 -104 244 -277 351 -355 47 -34 86 -66 88 -70 2 -5 -407 -729 -423
-748 -1 -1 -35 16 -74 39 -40 23 -73 40 -75 38 -12 -16 -296 -520 -296 -526 0
-17 424 -273 452 -273 6 0 308 522 308 533 0 3 -29 22 -65 42 -36 20 -67 40
-69 43 -8 14 420 747 435 745 8 -1 50 -17 94 -37 106 -46 233 -82 380 -108
161 -27 466 -22 620 12 336 72 625 228 860 464 145 146 234 268 320 441 126
254 185 497 185 770 0 830 -602 1547 -1414 1685 -136 23 -330 31 -452 20z
m411 -215 c312 -54 596 -204 820 -430 203 -206 341 -463 407 -762 32 -142 32
-454 0 -595 -64 -292 -194 -536 -396 -745 -55 -58 -139 -134 -185 -169 -160
-120 -398 -226 -611 -271 -121 -26 -459 -26 -580 0 -172 37 -383 121 -514 205
-149 95 -329 266 -425 402 -119 170 -205 368 -249 575 -22 104 -26 144 -26
305 0 153 4 203 22 286 44 206 118 382 233 555 84 126 282 324 408 408 324
215 722 301 1096 236z"/>
<path d="M3060 4396 c-17 -10 -134 -204 -365 -602 -187 -324 -352 -611 -366
-639 -14 -27 -47 -86 -73 -130 -49 -85 -55 -118 -31 -165 32 -63 -7 -60 904
-60 l829 0 31 25 c42 36 56 83 37 128 -8 19 -81 151 -164 293 -82 143 -157
275 -167 294 -50 100 -471 818 -490 839 -29 29 -107 39 -145 17z m92 -68 c8
-7 115 -186 238 -398 122 -212 302 -522 400 -690 98 -168 179 -313 179 -322 1
-10 -8 -27 -19 -38 -20 -20 -33 -20 -823 -20 -871 0 -847 -2 -847 53 0 12 36
83 79 157 43 74 222 383 397 685 174 303 324 558 332 568 18 20 42 22 64 5z"/>
<path d="M3052 3848 c-17 -17 -15 -228 3 -357 8 -57 17 -106 19 -108 2 -3 26
1 53 9 l48 14 18 119 c21 145 20 311 -3 325 -22 14 -124 12 -138 -2z"/>
<path d="M3528 2563 c-40 -49 -76 -89 -80 -91 -3 -2 -18 -18 -32 -37 -26 -33
-26 -35 -9 -69 l17 -36 78 0 78 0 0 -45 0 -45 40 0 40 0 0 45 c0 45 0 45 35
45 33 0 35 2 35 34 0 32 -3 35 -32 38 l-33 3 -3 123 -3 122 -29 0 c-24 0 -41
-14 -102 -87z"/>
<path d="M2350 2440 l0 -200 130 0 130 0 0 40 0 40 -90 0 -90 0 0 160 0 160
-40 0 -40 0 0 -200z"/>
<path d="M2745 2536 c-94 -41 -121 -169 -51 -247 34 -39 58 -49 116 -49 93 0
148 46 157 132 4 43 1 63 -16 96 -36 71 -129 101 -206 68z m128 -77 c21 -26
23 -97 2 -126 -29 -41 -98 -38 -132 6 -7 9 -12 34 -12 56 0 42 11 64 44 83 27
16 76 7 98 -19z"/>
<path d="M3092 2530 c-48 -29 -72 -75 -72 -138 0 -66 20 -103 70 -131 47 -26
85 -27 134 -1 l38 19 -6 -32 c-10 -49 -37 -70 -89 -70 -25 1 -55 7 -68 13 -19
11 -24 10 -36 -6 -21 -29 -15 -44 22 -60 82 -34 191 -10 231 51 21 33 28 126
19 259 l-7 106 -34 0 c-23 0 -34 -5 -34 -15 0 -12 -6 -11 -32 5 -42 25 -94 25
-136 0z m151 -71 c43 -53 6 -149 -58 -149 -48 0 -64 8 -81 42 -35 67 16 145
86 134 19 -3 43 -15 53 -27z"/>
<path d="M3800 2389 c0 -88 -4 -169 -10 -179 -5 -10 -21 -21 -35 -24 -25 -6
-25 -7 -9 -37 14 -28 19 -30 47 -25 18 3 44 20 60 36 l27 30 0 180 0 180 -40
0 -40 0 0 -161z"/>
</g>
</svg>
