<?xml version="1.0" standalone="no"?>
<!DOCTYPE svg PUBLIC "-//W3C//DTD SVG 20010904//EN"
 "http://www.w3.org/TR/2001/REC-SVG-20010904/DTD/svg10.dtd">
<svg version="1.0" xmlns="http://www.w3.org/2000/svg"
 width="600.000000pt" height="600.000000pt" viewBox="0 0 600.000000 600.000000"
 preserveAspectRatio="xMidYMid meet">
<metadata>
Created by potrace 1.16, written by Peter Selinger 2001-2019
</metadata>
<g transform="translate(0.000000,600.000000) scale(0.100000,-0.100000)"
fill="#000000" stroke="none">
<path d="M1420 5279 c-30 -18 -91 -68 -135 -114 -153 -156 -249 -368 -301
-659 -20 -113 -36 -369 -29 -446 l6 -65 -66 -44 c-149 -98 -257 -288 -301
-531 -30 -167 -15 -507 29 -676 34 -128 280 -457 523 -699 388 -387 822 -638
1289 -748 340 -80 727 -80 1085 -1 283 63 470 134 940 356 528 250 830 421
914 520 45 52 50 108 12 133 -101 66 -626 -24 -1166 -200 -921 -300 -1475
-282 -1826 60 -93 91 -178 215 -235 344 l-39 86 -104 -3 -105 -4 -40 32 c-52
42 -181 189 -181 207 0 10 23 13 96 13 l96 0 -7 27 c-3 15 -7 32 -8 38 -1 5
32 13 73 18 41 5 76 10 78 12 2 1 -11 79 -28 171 -64 346 -161 556 -340 735
-70 70 -103 94 -179 132 -51 26 -99 47 -106 47 -29 0 -48 424 -25 585 30 208
96 362 201 468 38 38 69 75 69 81 0 7 -14 31 -31 54 -17 23 -26 42 -20 42 22
0 10 17 -28 38 -21 12 -43 22 -47 22 -5 0 -34 -14 -64 -31z m73 -93 c15 -22
14 -25 -15 -52 -51 -48 -124 -168 -156 -256 -63 -175 -88 -403 -72 -647 6 -80
12 -156 15 -168 3 -13 1 -23 -4 -23 -5 0 -7 -18 -4 -40 6 -40 5 -40 -28 -40
-19 0 -69 -9 -111 -19 l-78 -18 -2 71 c-10 514 85 876 289 1097 55 59 127 119
143 119 4 0 15 -11 23 -24z m-432 -1386 c36 -20 62 -89 67 -178 8 -137 -23
-258 -117 -457 l-56 -120 1 -105 c1 -86 6 -120 28 -185 31 -92 105 -235 176
-340 176 -261 494 -582 733 -740 31 -21 57 -40 57 -42 0 -16 -202 93 -304 165
-337 237 -642 578 -787 877 -92 192 -115 341 -88 583 41 378 164 609 290 542z
m214 -826 l139 -36 176 12 c96 6 185 13 197 16 18 5 23 0 31 -28 11 -42 13
-41 -209 -63 -177 -17 -188 -17 -344 22 -177 43 -172 41 -179 69 -14 55 3 56
189 8z"/>
</g>
</svg>
