<?xml version="1.0" encoding="UTF-8"?>
<svg version="1.1" xmlns="http://www.w3.org/2000/svg" width="512" height="512">
<path d="M0 0 C0.6487207 0.31727051 1.29744141 0.63454102 1.96582031 0.96142578 C13.50891163 6.6809521 24.6660711 13.15221548 35.859375 19.51953125 C42.30021475 23.17909929 48.77202331 26.78167436 55.25 30.375 C56.37567383 30.99963135 57.50134766 31.6242627 58.66113281 32.26782227 C62.10703618 34.17924477 65.55342891 36.08978179 69 38 C82.7446595 45.61780281 96.47811869 53.25119963 110.14404297 61.00952148 C117.38978232 65.11335294 124.67812457 69.13588091 131.97680664 73.14437866 C149.59356234 82.8253807 149.59356234 82.8253807 157.875 87.625 C158.51550293 87.99004639 159.15600586 88.35509277 159.81591797 88.73120117 C171.89027712 95.82230963 180.12022692 106.50053235 184.34375 119.85546875 C186.39701899 129.69404935 186.1430594 139.71180121 186.12939453 149.71118164 C186.13075186 151.38635801 186.13253365 153.06153408 186.13470459 154.73670959 C186.13924479 159.26658467 186.13750202 163.79643685 186.1343255 168.3263123 C186.13177795 173.09786744 186.13414666 177.86942073 186.13571167 182.64097595 C186.13752904 190.66796211 186.13514115 198.69493907 186.13037109 206.72192383 C186.12495715 215.93747869 186.12667188 225.15301132 186.1321975 234.36856562 C186.13677444 242.32663124 186.13735619 250.28469027 186.13475883 258.24275678 C186.13321741 262.97461175 186.13294189 267.70645637 186.13629532 272.43831062 C186.15642497 306.09186786 186.15642497 306.09186786 185.67919922 321.38452148 C185.64625354 322.81725072 185.64625354 322.81725072 185.61264229 324.27892399 C185.082688 337.76643332 179.80252959 350.16573866 170.18945312 359.74291992 C162.91540335 366.35389779 153.85286321 370.64937392 145.24902344 375.25244141 C139.67305236 378.25159988 134.15416573 381.35319265 128.625 384.4375 C126.33621366 385.70752905 124.04715112 386.97706048 121.7578125 388.24609375 C115.32895276 391.81369703 108.91270512 395.40345907 102.5 399 C92.70935604 404.49029069 82.90096792 409.94797547 73.0859375 415.39453125 C65.5477845 419.57950585 58.02049129 423.78338063 50.5 428 C47.40918416 429.73109313 44.31816527 431.46182302 41.22705078 433.19238281 C38.99833228 434.44078891 36.77017726 435.69020132 34.54248047 436.94042969 C-7.18404735 460.35366008 -7.18404735 460.35366008 -22.6875 460.375 C-23.60466797 460.39949219 -24.52183594 460.42398437 -25.46679688 460.44921875 C-37.81637246 460.50099894 -47.8478372 455.38198182 -58.4375 449.5 C-59.57147217 448.8797998 -60.70544434 448.25959961 -61.8737793 447.62060547 C-69.5716573 443.39366256 -77.2115042 439.06732792 -84.81860352 434.67944336 C-92.28567903 430.37897797 -99.82376464 426.21249986 -107.375 422.0625 C-116.11275688 417.25944423 -124.83026895 412.42524976 -133.5 407.5 C-142.1295617 402.59840284 -150.80444428 397.78310202 -159.5 393 C-170.37980943 387.01434548 -181.22597293 380.97448671 -192.01171875 374.8203125 C-195.03265178 373.09944836 -198.065965 371.42004535 -201.14453125 369.8046875 C-215.85703056 362.01469443 -223.72879664 352.04082732 -230 337 C-231.20370453 332.89838901 -231.15124618 328.88438013 -231.15390015 324.64077759 C-231.1582824 323.78969181 -231.16266465 322.93860604 -231.1671797 322.06172979 C-231.18055307 319.20472516 -231.1867434 316.34775137 -231.19287109 313.49072266 C-231.20077348 311.44390728 -231.20904251 309.39709329 -231.21765137 307.35028076 C-231.24386496 300.62155486 -231.25918259 293.89282277 -231.2734375 287.1640625 C-231.27879825 284.84517793 -231.28417576 282.5262934 -231.28956985 280.20740891 C-231.31120137 270.5566264 -231.32993537 260.90584555 -231.34119225 251.25504494 C-231.35741224 237.4412067 -231.39053981 223.6276506 -231.44759309 209.81391871 C-231.4863666 200.09310522 -231.50583396 190.37236694 -231.51111281 180.65147817 C-231.51475729 174.8505583 -231.52668195 169.0499394 -231.55921555 163.24910355 C-231.5894249 157.78414301 -231.59556213 152.31966351 -231.58383179 146.85463715 C-231.5836121 144.85769985 -231.59182949 142.86073941 -231.60948563 140.86388016 C-231.72970632 126.47426176 -230.61682897 113.76596173 -221.3125 102.0625 C-220.54550781 101.06347656 -219.77851563 100.06445312 -218.98828125 99.03515625 C-212.09856784 91.45038978 -202.31019395 86.76635264 -193.4375 81.9375 C-192.24703369 81.28386226 -191.05693683 80.62955125 -189.8671875 79.97460938 C-188.03812885 78.96786827 -186.20884916 77.96155513 -184.37838745 76.95736694 C-178.39764985 73.67609067 -172.44747292 70.34114332 -166.5 67 C-156.70978461 61.50894929 -146.90096406 56.05202239 -137.0859375 50.60546875 C-129.5477863 46.42049515 -122.02027917 42.21699565 -114.5 38 C-104.76757194 32.54328947 -95.02338356 27.10817213 -85.26391602 21.69995117 C-79.99869918 18.781682 -74.7374517 15.85716834 -69.49334717 12.90113831 C-67.06138989 11.53078887 -64.62693822 10.16490402 -62.19232178 8.79928589 C-60.49444613 7.84452242 -58.8001353 6.88342812 -57.10595703 5.92211914 C-39.64890837 -3.85968564 -19.05640044 -9.33424194 0 0 Z " fill="#5297EC" transform="translate(279,36)"/>
<path d="M0 0 C13.55323582 6.59723685 26.77479003 13.77231846 40 21 C41.86188125 22.01580449 43.72385715 23.03143552 45.5859375 24.046875 C48.29500194 25.52425873 51.00381722 27.00208578 53.71166992 28.48168945 C58.43515883 31.06163282 63.16406609 33.63090002 67.90234375 36.18359375 C77.61856268 41.42056472 87.29251394 46.70922855 96.875 52.1875 C107.20564894 58.08618702 117.7048992 63.63932451 128.23303223 69.17388916 C138.00694414 74.31501938 147.68585041 79.57699972 157.26342773 85.07788086 C167.13486675 90.71501783 177.19816318 95.99036984 187.26611328 101.26586914 C187.93296646 101.61677612 188.59981964 101.96768311 189.28688049 102.32922363 C191.10534812 103.28593917 192.92577699 104.23892424 194.74633789 105.19165039 C195.82004639 105.78840576 196.89375488 106.38516113 198 107 C199.04222528 107.51354916 200.08445057 108.02709831 201.15825844 108.55620956 C204.4172392 111.35880995 204.4172392 111.35880995 204.73828697 114.95924759 C204.76351255 116.60898053 204.75535933 118.2594177 204.7215271 119.90899658 C204.72665365 120.81896291 204.7317802 121.72892923 204.7370621 122.66647029 C204.74696358 125.72269867 204.71391633 128.77696086 204.68115234 131.83300781 C204.67946032 134.02076165 204.68040907 136.2085189 204.68380737 138.39627075 C204.68553221 144.34242237 204.65020225 150.28785101 204.60836363 156.23383427 C204.57091146 162.44513874 204.56733561 168.65645892 204.56021118 174.86785889 C204.54366819 185.29549466 204.50616536 195.72288238 204.45263672 206.15039062 C204.39756014 216.89061148 204.35509089 227.63076018 204.32958984 238.37109375 C204.3280135 239.03315587 204.32643716 239.695218 204.32481305 240.37734261 C204.31698281 243.69872344 204.30941409 247.0201048 204.30194163 250.34148645 C204.23918912 277.89450944 204.13362165 305.44723604 204 333 C206.21043688 332.71048175 208.4198873 332.41342668 210.62890625 332.11328125 C212.47464233 331.8663855 212.47464233 331.8663855 214.35766602 331.61450195 C227.74887063 329.3552579 239.22375054 321.52419587 250.79199219 314.83984375 C256.24649748 311.71159779 261.74894337 308.67039832 267.25 305.625 C269.53388 304.35811948 271.81773399 303.09119208 274.1015625 301.82421875 C275.80940918 300.87748291 275.80940918 300.87748291 277.55175781 299.91162109 C283.24413121 296.75590857 288.93489616 293.5973027 294.625 290.4375 C295.74358398 289.81633301 296.86216797 289.19516602 298.01464844 288.55517578 C306.54949938 283.81262959 315.07002167 279.04485971 323.58642578 274.26928711 C331.21403113 269.99429715 338.85472707 265.7432989 346.5 261.5 C348.74872126 260.250042 350.99741923 259.00004209 353.24609375 257.75 C357.79637487 255.2211128 362.35185195 252.70189241 366.91015625 250.1875 C369.12770383 248.95851314 371.34515544 247.72935311 373.5625 246.5 C374.56667969 245.94892578 375.57085937 245.39785156 376.60546875 244.83007812 C392.64106488 235.91541046 405.03508601 226.0688716 410.375 207.75 C410.684375 206.38875 410.684375 206.38875 411 205 C411.33 205 411.66 205 412 205 C412.594312 222.74131366 412.594312 222.74131366 409 231 C408.62101562 231.87914062 408.24203125 232.75828125 407.8515625 233.6640625 C400.17956494 249.40717888 387.09739004 256.30854248 372.24902344 264.25244141 C366.67305236 267.25159988 361.15416573 270.35319265 355.625 273.4375 C353.33621366 274.70752905 351.04715112 275.97706048 348.7578125 277.24609375 C342.32895276 280.81369703 335.91270512 284.40345907 329.5 288 C319.70935604 293.49029069 309.90096792 298.94797547 300.0859375 304.39453125 C292.5477845 308.57950585 285.02049129 312.78338063 277.5 317 C274.40918416 318.73109313 271.31816527 320.46182302 268.22705078 322.19238281 C265.99833228 323.44078891 263.77017726 324.69020132 261.54248047 325.94042969 C219.81595265 349.35366008 219.81595265 349.35366008 204.3125 349.375 C203.39533203 349.39949219 202.47816406 349.42398437 201.53320312 349.44921875 C189.18362754 349.50099894 179.1521628 344.38198182 168.5625 338.5 C167.42852783 337.8797998 166.29455566 337.25959961 165.1262207 336.62060547 C157.4283427 332.39366256 149.7884958 328.06732792 142.18139648 323.67944336 C134.71432097 319.37897797 127.17623536 315.21249986 119.625 311.0625 C110.88724312 306.25944423 102.16973105 301.42524976 93.5 296.5 C84.8704383 291.59840284 76.19555572 286.78310202 67.5 282 C56.62019057 276.01434548 45.77402707 269.97448671 34.98828125 263.8203125 C31.96734822 262.09944836 28.934035 260.42004535 25.85546875 258.8046875 C11.14296944 251.01469443 3.27120336 241.04082732 -3 226 C-4.20566161 221.89367288 -4.14815344 217.87571866 -4.14717102 213.62731934 C-4.15084771 212.77482243 -4.1545244 211.92232553 -4.1583125 211.04399538 C-4.16934099 208.18231896 -4.17319181 205.32067886 -4.17700195 202.45898438 C-4.18326736 200.4089242 -4.18991423 198.35886517 -4.19691467 196.30880737 C-4.21795279 189.57046295 -4.22831861 182.83211832 -4.23828125 176.09375 C-4.24232926 173.77234383 -4.2464462 171.45093778 -4.25063133 169.12953186 C-4.26968449 158.22014316 -4.28391381 147.31076122 -4.2922433 136.40135908 C-4.30200876 123.81956691 -4.32830984 111.237951 -4.36874419 98.65622091 C-4.39894051 88.92524618 -4.41371562 79.19432185 -4.41702431 69.46330118 C-4.41937128 63.65466905 -4.42828556 57.84622519 -4.45348549 52.03764343 C-4.47683182 46.56781143 -4.48097298 41.09829077 -4.47072411 35.62842178 C-4.47023019 33.62742703 -4.47650779 31.62641662 -4.49028015 29.62546921 C-4.55919378 19.01420453 -4.44161944 9.83865834 0 0 Z " fill="#2D68B4" transform="translate(52,147)"/>
<path d="M0 0 C0.69673828 -0.03287109 1.39347656 -0.06574219 2.11132812 -0.09960938 C15.13851081 -0.22653498 27.22212236 6.50282083 38.1875 12.8125 C39.44083603 13.52058608 40.69492295 14.22734449 41.94970703 14.93286133 C44.5216399 16.38079105 47.08982316 17.83505072 49.65527344 19.29443359 C54.39368193 21.98565677 59.16291459 24.61987661 63.93212891 27.25610352 C74.19005815 32.92737669 84.40458664 38.67268335 94.59960938 44.45605469 C102.92288515 49.16761306 111.29523915 53.78817757 119.67419434 58.39959717 C129.17119553 63.62678103 138.64857984 68.88700406 148.09375 74.20751953 C152.97152657 76.95205055 157.858213 79.67596084 162.78103638 82.33876038 C165.20748433 83.65177851 167.62945835 84.97294795 170.05145264 86.29415894 C171.74419249 87.21292484 173.443508 88.11954414 175.14306641 89.02563477 C182.66214869 93.13244045 188.99233755 97.80139067 195.4375 103.4375 C192.92389916 106.29238139 190.14196311 107.82424183 186.79296875 109.58984375 C185.6524707 110.19521973 184.51197266 110.8005957 183.33691406 111.42431641 C182.73206177 111.74217102 182.12720947 112.06002563 181.50402832 112.38751221 C178.95490362 113.72715648 176.41210171 115.0786011 173.86886597 116.42938232 C172.57599848 117.11590791 171.2828043 117.80181861 169.98928833 118.48712158 C164.36459496 121.46842682 158.77052437 124.50387477 153.1875 127.5625 C147.64968868 130.59402247 142.1088752 133.61906171 136.55078125 136.61328125 C126.82906483 141.85235505 117.15005047 147.14383324 107.5625 152.625 C97.23185106 158.52368702 86.7326008 164.07682451 76.20446777 169.61138916 C66.43140293 174.75207381 56.75444458 180.01535724 47.17626953 185.51318359 C37.26832646 191.16848383 27.1757119 196.47440596 17.08349609 201.79125977 C16.41483521 202.14397446 15.74617432 202.49668915 15.05725098 202.86009216 C13.23154274 203.8225292 11.40462939 204.78267922 9.57763672 205.74267578 C6.46103681 207.37598965 6.46103681 207.37598965 3.68847656 209.1887207 C1.4375 210.4375 1.4375 210.4375 -1.2578125 209.97265625 C-5.80771222 207.85905035 -10.10422042 205.39855374 -14.4375 202.875 C-24.06857886 197.34579975 -33.80577105 192.06004988 -43.625 186.875 C-46.37649132 185.42093069 -49.12780099 183.96651836 -51.87890625 182.51171875 C-52.54311584 182.16054489 -53.20732544 181.80937103 -53.8916626 181.44755554 C-61.39422384 177.47591647 -68.84178708 173.4054358 -76.28515625 169.32421875 C-79.993496 167.29128752 -83.7104175 165.27516177 -87.43359375 163.26953125 C-97.39038185 157.90459468 -107.30092493 152.47978761 -117.125 146.875 C-125.62645663 142.02727761 -134.23359354 137.43944383 -142.93334961 132.95898438 C-150.74511063 128.91528051 -158.39210685 124.61669688 -166.02758789 120.2512207 C-175.73765829 114.72093197 -185.62562589 109.54642871 -195.5625 104.4375 C-194.86125 103.880625 -194.16 103.32375 -193.4375 102.75 C-191.52928368 101.21513035 -189.65436221 99.6378737 -187.81640625 98.01953125 C-184.02062694 94.85497643 -179.80329878 92.5276958 -175.5 90.125 C-174.59588379 89.61428955 -173.69176758 89.1035791 -172.76025391 88.57739258 C-162.53795601 82.82188755 -152.25531583 77.17341124 -141.9765625 71.51953125 C-125.26567625 62.32757025 -108.61081911 53.03458815 -91.97558594 43.70654297 C-83.222579 38.80072381 -74.4526 33.92582399 -65.67700195 29.06054688 C-60.03905105 25.93274593 -54.40866034 22.79261755 -48.79296875 19.625 C-14.19912292 0.11379529 -14.19912292 0.11379529 0 0 Z " fill="#4589DC" transform="translate(255.5625,47.5625)"/>
<path d="M0 0 C0.6487207 0.31727051 1.29744141 0.63454102 1.96582031 0.96142578 C13.50891163 6.6809521 24.6660711 13.15221548 35.859375 19.51953125 C42.30021475 23.17909929 48.77202331 26.78167436 55.25 30.375 C56.37567383 30.99963135 57.50134766 31.6242627 58.66113281 32.26782227 C62.10703618 34.17924477 65.55342891 36.08978179 69 38 C82.7446595 45.61780281 96.47811869 53.25119963 110.14404297 61.00952148 C117.38978232 65.11335294 124.67812457 69.13588091 131.97680664 73.14437866 C149.59356234 82.8253807 149.59356234 82.8253807 157.875 87.625 C158.51550293 87.99004639 159.15600586 88.35509277 159.81591797 88.73120117 C171.89027712 95.82230963 180.12022692 106.50053235 184.34375 119.85546875 C186.41798543 129.79451352 186.13705724 139.91533125 186.11352539 150.01611328 C186.1132429 151.72200011 186.11340247 153.42788705 186.1139679 155.1337738 C186.11425344 159.73841747 186.10839601 164.34303479 186.10139394 168.94767237 C186.09511993 173.7696281 186.09455341 178.59158452 186.09336853 183.4135437 C186.09026711 192.53282804 186.08206982 201.65210031 186.07201904 210.77137935 C186.06082088 221.15835273 186.05533814 231.5453267 186.05032361 241.93230462 C186.03988617 263.2882098 186.02230985 284.64410414 186 306 C185.67 306 185.34 306 185 306 C184.99503478 304.76146995 184.99503478 304.76146995 184.98996925 303.49791908 C184.90865465 283.38241653 184.81653455 263.26698857 184.71247292 243.15159035 C184.66240796 233.42383004 184.61596443 223.6960779 184.578125 213.96826172 C184.54512466 205.4868704 184.50524926 197.00554364 184.45720994 188.52422369 C184.43202476 184.03583216 184.41022013 179.54748301 184.39665604 175.05904007 C184.38376297 170.82865468 184.36163146 166.59841523 184.33261681 162.36811066 C184.32359738 160.82104705 184.31786407 159.27395999 184.31578636 157.72687149 C184.30292274 149.59856661 183.95084956 141.92140409 182 134 C181.65549886 132.00189338 181.31622777 130.00277585 181 128 C161.77278729 137.3522092 143.03958828 147.64872209 124.47436523 158.24487305 C116.9462425 162.51910096 109.29901713 166.5272518 101.60449219 170.49194336 C95.00194745 173.91091908 88.51447161 177.49310208 82.0625 181.1875 C72.78160611 186.49698952 63.38945135 191.56672335 53.9375 196.5625 C53.248909 196.92648895 52.56031799 197.29047791 51.8508606 197.66549683 C51.16539154 198.02781403 50.47992249 198.39013123 49.77368164 198.76342773 C48.41028791 199.48415341 47.04692492 200.20493725 45.68359375 200.92578125 C45.01946976 201.27690475 44.35534576 201.62802826 43.6710968 201.98979187 C36.18032178 205.95524988 28.74433526 210.01917743 21.3125 214.09375 C16.43452048 216.76782311 11.54041403 219.41140888 6.64477539 222.05297852 C-2.19953662 226.82565244 -11.00349807 231.64103077 -19.68359375 236.70703125 C-22 238 -22 238 -23 238 C-23 232.72 -23 227.44 -23 222 C-13.57151429 216.53576396 -4.04043279 211.30034444 5.55444336 206.13427734 C12.6097017 202.32425231 19.5994202 198.41307647 26.5625 194.4375 C35.07178575 189.58490535 43.68801489 184.99470644 52.39501953 180.50830078 C58.99772583 177.08926128 65.48547912 173.50716922 71.9375 169.8125 C81.87431246 164.12443605 91.95432043 158.74220734 102.08074951 153.40289307 C111.75002819 148.30107816 121.3130965 143.05255331 130.80126953 137.61914062 C139.37982028 132.72947488 148.12037185 128.17529584 156.8984375 123.65625 C161.65463216 121.20143985 166.3391295 118.6307454 171 116 C163.68478239 107.97685811 153.91754633 103.15761636 144.5 98 C142.69580295 97.00591647 140.89240017 96.01040143 139.08898926 95.01489258 C137.86097425 94.33718154 136.63270175 93.65993688 135.4041748 92.9831543 C129.41930662 89.68536166 123.45840224 86.34534394 117.5 83 C108.8851159 78.16920477 100.25982913 73.35755421 91.625 68.5625 C89.94712402 67.63074951 89.94712402 67.63074951 88.23535156 66.68017578 C82.52515333 63.51012175 76.81372742 60.34228988 71.1015625 57.17578125 C61.51843618 51.86090744 51.93677202 46.5451299 42.40478516 41.13891602 C38.65290195 39.01122325 34.89586023 36.8927214 31.13867188 34.77441406 C28.8875617 33.50177337 26.63894835 32.22528095 24.39257812 30.94433594 C21.19221536 29.12026193 17.9843607 27.30993584 14.77215576 25.50680542 C13.53137479 24.80745651 12.29301689 24.10378656 11.05743408 23.39529419 C0.38325185 17.28025607 -10.46031983 12.15921643 -23 12.5 C-23.76924805 12.51643555 -24.53849609 12.53287109 -25.33105469 12.54980469 C-41.08697916 13.16111089 -53.63712109 21.38743927 -67 29 C-68.83682824 30.03848832 -70.6740622 31.07625937 -72.51171875 32.11328125 C-75.31072341 33.69403547 -78.10881982 35.27629565 -80.90429688 36.86328125 C-88.69465805 41.2821617 -96.52829863 45.61985925 -104.375 49.9375 C-113.47691401 54.94647176 -122.56473998 59.97836683 -131.625 65.0625 C-140.1978767 69.87313973 -148.78070107 74.66522661 -157.375 79.4375 C-158.48649414 80.05512207 -159.59798828 80.67274414 -160.74316406 81.30908203 C-165.96820814 84.21129753 -171.19531833 87.10963309 -176.42929077 89.99571228 C-178.83471444 91.32252351 -181.23885122 92.65165697 -183.6428833 93.98098755 C-185.30412984 94.89836396 -186.96721088 95.81241594 -188.63037109 96.72631836 C-202.24548971 103.90842963 -202.24548971 103.90842963 -214.5 113.0625 C-217 115 -217 115 -219.625 114.9375 C-221.8301789 114.06703464 -223.92750345 113.15138697 -226 112 C-225.36031708 108.30021231 -223.76520853 105.80744075 -221.625 102.75 C-221.01914063 101.85796875 -220.41328125 100.9659375 -219.7890625 100.046875 C-213.02702782 91.86677185 -202.5419448 86.83213965 -193.375 81.875 C-192.18898833 81.22610923 -191.00345119 80.57635046 -189.81835938 79.92578125 C-187.39300811 78.59473907 -184.96606347 77.26667433 -182.53808594 75.94042969 C-177.16876741 73.00197666 -171.8356043 69.99909227 -166.5 67 C-156.70993056 61.50869065 -146.9009627 56.05202164 -137.0859375 50.60546875 C-129.5477863 46.42049515 -122.02027917 42.21699565 -114.5 38 C-104.76757194 32.54328947 -95.02338356 27.10817213 -85.26391602 21.69995117 C-79.99869918 18.781682 -74.7374517 15.85716834 -69.49334717 12.90113831 C-67.06138989 11.53078887 -64.62693822 10.16490402 -62.19232178 8.79928589 C-60.49444613 7.84452242 -58.8001353 6.88342812 -57.10595703 5.92211914 C-39.64890837 -3.85968564 -19.05640044 -9.33424194 0 0 Z " fill="#67A0E7" transform="translate(279,36)"/>
<path d="M0 0 C1.65320356 3.14931538 2.916129 6.36805011 4.1875 9.6875 C9.97557747 23.59919498 20.37440067 31.51644804 33.3125 38.5 C34.40062988 39.09820557 35.48875977 39.69641113 36.60986328 40.31274414 C38.90958617 41.576951 41.21138733 42.83738383 43.51513672 44.09423828 C49.15259424 47.17718584 54.76166185 50.31092837 60.375 53.4375 C67.21416173 57.23665064 74.05592471 61.03110771 80.8984375 64.82421875 C91.41334037 70.65586283 101.9172066 76.50395465 112.375 82.4375 C122.22768952 88.02679075 132.13815197 93.50776626 142.0637207 98.96606445 C151.25263745 104.02165709 160.40770745 109.13451681 169.53076172 114.30834961 C187.08680763 124.20601067 201.32932431 129.68426134 221.6875 126.40625 C234.15866361 122.82656415 245.44150567 115.37239101 256.62988281 108.93701172 C261.53067611 106.12022716 266.45326803 103.34247208 271.375 100.5625 C272.29361816 100.04163818 273.21223633 99.52077637 274.15869141 98.98413086 C282.48226829 94.27020276 290.8564927 89.65000843 299.23669434 85.03790283 C308.74314809 79.80551625 318.22411785 74.52989431 327.68701172 69.21899414 C335.28004854 64.95885255 342.88721097 60.72473047 350.5 56.5 C352.74872898 55.25005587 354.99742697 54.00005601 357.24609375 52.75 C361.79637487 50.2211128 366.35185195 47.70189241 370.91015625 45.1875 C373.12770383 43.95851314 375.34515544 42.72935311 377.5625 41.5 C378.56667969 40.94892578 379.57085937 40.39785156 380.60546875 39.83007812 C396.64106488 30.91541046 409.03508601 21.0688716 414.375 2.75 C414.684375 1.38875 414.684375 1.38875 415 0 C415.33 0 415.66 0 416 0 C416.594312 17.74131366 416.594312 17.74131366 413 26 C412.62101562 26.87914062 412.24203125 27.75828125 411.8515625 28.6640625 C404.17956494 44.40717888 391.09739004 51.30854248 376.24902344 59.25244141 C370.67305236 62.25159988 365.15416573 65.35319265 359.625 68.4375 C357.33621366 69.70752905 355.04715112 70.97706048 352.7578125 72.24609375 C346.32895276 75.81369703 339.91270512 79.40345907 333.5 83 C323.70935604 88.49029069 313.90096792 93.94797547 304.0859375 99.39453125 C296.5477845 103.57950585 289.02049129 107.78338063 281.5 112 C278.40918416 113.73109313 275.31816527 115.46182302 272.22705078 117.19238281 C269.99833228 118.44078891 267.77017726 119.69020132 265.54248047 120.94042969 C223.81595265 144.35366008 223.81595265 144.35366008 208.3125 144.375 C207.39533203 144.39949219 206.47816406 144.42398438 205.53320312 144.44921875 C193.18362754 144.50099894 183.1521628 139.38198182 172.5625 133.5 C171.42852783 132.8797998 170.29455566 132.25959961 169.1262207 131.62060547 C161.4283427 127.39366256 153.7884958 123.06732792 146.18139648 118.67944336 C138.71432097 114.37897797 131.17623536 110.21249986 123.625 106.0625 C114.88724312 101.25944423 106.16973105 96.42524976 97.5 91.5 C88.8704383 86.59840284 80.19555572 81.78310202 71.5 77 C60.62019057 71.01434548 49.77402707 64.97448671 38.98828125 58.8203125 C35.96734822 57.09944836 32.934035 55.42004535 29.85546875 53.8046875 C15.14296944 46.01469443 7.27120336 36.04082732 1 21 C0.17248659 18.22539622 -0.11955708 15.78153408 -0.09765625 12.890625 C-0.09443359 12.13652344 -0.09121094 11.38242187 -0.08789062 10.60546875 C-0.07951172 9.82816406 -0.07113281 9.05085938 -0.0625 8.25 C-0.05798828 7.45722656 -0.05347656 6.66445313 -0.04882812 5.84765625 C-0.03708565 3.89840492 -0.01915146 1.94919262 0 0 Z " fill="#000000" transform="translate(48,352)"/>
<path d="M0 0 C13.55323582 6.59723685 26.77479003 13.77231846 40 21 C41.86188125 22.01580449 43.72385715 23.03143552 45.5859375 24.046875 C48.29500194 25.52425873 51.00381722 27.00208578 53.71166992 28.48168945 C58.43515883 31.06163282 63.16406609 33.63090002 67.90234375 36.18359375 C77.61856268 41.42056472 87.29251394 46.70922855 96.875 52.1875 C107.20564894 58.08618702 117.7048992 63.63932451 128.23303223 69.17388916 C138.00694414 74.31501938 147.68585041 79.57699972 157.26342773 85.07788086 C167.13486675 90.71501783 177.19816318 95.99036984 187.26611328 101.26586914 C187.93296646 101.61677612 188.59981964 101.96768311 189.28688049 102.32922363 C191.10534812 103.28593917 192.92577699 104.23892424 194.74633789 105.19165039 C197.98753377 106.99307141 201.06107726 108.73381955 204 111 C204.45895455 114.04745819 204.5817278 116.2497965 204.375 119.25 C204.33439453 120.36761719 204.33439453 120.36761719 204.29296875 121.5078125 C204.22250808 123.33978993 204.11488993 125.17027151 204 127 C195.48378551 122.94114561 187.2512161 118.49423286 179.0625 113.8125 C171.28999801 109.37097917 163.45958444 105.09674494 155.5 101 C147.96411261 97.11774148 140.54179925 93.09090696 133.1875 88.875 C123.56908795 83.36529338 113.81073463 78.15566451 104 73 C93.25292713 67.35227796 82.60061588 61.58959559 72.06640625 55.55078125 C64.69108878 51.34088183 57.1886781 47.4149794 49.63989258 43.52685547 C41.6850101 39.40844249 33.89113706 35.0364985 26.10864258 30.6027832 C20.49783861 27.40783014 14.87483214 24.24451121 9.1875 21.1875 C7.44533203 20.24970703 7.44533203 20.24970703 5.66796875 19.29296875 C3.19416318 17.85462938 3.19416318 17.85462938 1 18 C-0.75734451 22.97361654 -2.32584613 27.7415998 -3 33 C-3.33 33 -3.66 33 -4 33 C-4.82555811 10.40510967 -4.82555811 10.40510967 0 0 Z " fill="#295FA3" transform="translate(52,147)"/>
</svg>
