<?xml version="1.0" standalone="no"?>
<!DOCTYPE svg PUBLIC "-//W3C//DTD SVG 20010904//EN"
 "http://www.w3.org/TR/2001/REC-SVG-20010904/DTD/svg10.dtd">
<svg version="1.0" xmlns="http://www.w3.org/2000/svg"
 width="250.000000pt" height="250.000000pt" viewBox="0 0 250.000000 250.000000"
 preserveAspectRatio="xMidYMid meet">
<metadata>
Created by potrace 1.16, written by Peter Selinger 2001-2019
</metadata>
<g transform="translate(0.000000,250.000000) scale(0.100000,-0.100000)"
fill="#000000" stroke="none">
<path d="M726 2170 c-274 -98 -500 -181 -503 -183 -2 -3 31 -310 74 -683 l78
-679 425 -238 c234 -130 431 -240 438 -244 8 -3 30 4 50 15 21 12 217 121 438
243 l400 223 78 678 c43 374 76 682 72 685 -12 12 -1008 363 -1029 362 -12 0
-246 -81 -521 -179z m672 -287 c16 -43 40 -110 52 -149 l23 -71 -80 -207 -79
-207 17 -107 c9 -59 20 -128 23 -154 l7 -48 -115 0 c-86 0 -116 3 -116 13 0 6
11 76 25 155 28 164 35 125 -72 394 l-66 168 45 122 c25 68 49 131 53 141 4
10 3 17 -3 17 -6 0 -34 -49 -63 -110 -29 -60 -58 -110 -64 -110 -11 0 -121 20
-193 36 -21 4 -17 11 49 99 l71 95 228 0 228 0 30 -77z m251 -15 c46 -61 66
-95 58 -99 -26 -14 -211 -43 -214 -34 -2 6 -27 58 -56 118 l-52 107 97 0 97 0
70 -92z m-849 -143 c96 -19 177 -38 181 -43 9 -9 150 -354 147 -358 -2 -1
-101 34 -220 79 l-217 81 -33 138 c-18 76 -33 138 -32 138 0 0 79 -16 174 -35z
m1068 23 c-2 -7 -18 -70 -34 -139 l-29 -126 -219 -82 c-121 -44 -220 -80 -221
-78 -2 2 144 359 149 365 3 3 326 70 345 71 7 1 11 -5 9 -11z m-1114 -328 l46
-19 0 -68 0 -69 75 -37 c42 -20 78 -43 81 -50 2 -7 3 -82 2 -165 l-3 -153
-127 108 -127 108 -1 183 c0 100 2 182 4 182 2 0 25 -9 50 -20z m1036 -162 l0
-183 -117 -100 c-64 -55 -122 -104 -130 -108 -11 -7 -13 22 -13 155 l0 163 80
40 80 40 0 68 0 68 43 19 c23 11 45 20 50 20 4 0 7 -82 7 -182z m-680 27 c17
-9 30 -20 30 -26 0 -5 -9 -86 -21 -179 l-20 -168 43 -41 c41 -39 46 -41 108
-41 64 0 67 1 105 40 l39 40 -17 142 c-24 200 -23 222 8 236 14 7 28 12 30 12
2 0 22 -31 45 -68 l40 -68 0 -237 c0 -130 -3 -237 -6 -237 -4 0 -26 16 -50 35
l-42 35 -159 0 -159 0 -34 -35 c-19 -19 -38 -35 -42 -35 -4 0 -8 109 -8 242
l0 241 35 64 c20 34 38 63 41 63 3 0 18 -7 34 -15z m-216 -416 l66 -41 0 -79
c0 -44 -3 -79 -7 -79 -5 0 -37 33 -72 73 -58 66 -64 76 -65 120 0 26 2 47 6
47 4 0 36 -19 72 -41z m776 -7 c0 -45 -4 -53 -62 -119 -35 -40 -66 -72 -70
-72 -5 -1 -8 35 -8 79 l0 80 63 40 c34 22 65 40 70 40 4 0 7 -22 7 -48z m-220
-197 c37 -38 42 -47 30 -55 -23 -15 -27 -13 -57 30 l-28 40 -146 0 -147 0 -28
-37 c-15 -21 -29 -39 -30 -41 -1 -2 -12 2 -24 8 -22 12 -22 13 21 56 l43 44
161 0 161 0 44 -45z m-58 -52 l38 -37 -37 -38 -37 -38 -110 0 -110 0 -38 37
-38 37 37 38 37 38 110 0 110 0 38 -37z"/>
</g>
</svg>
