<?xml version="1.0" encoding="UTF-8"?>
<svg version="1.1" xmlns="http://www.w3.org/2000/svg" width="580" height="430">
<path d="M0 0 C1.14702896 0.00323273 1.14702896 0.00323273 2.31723022 0.00653076 C54.0357191 0.23954243 95.4456171 21.23153637 133.875 54.3125 C137.74904017 48.77258866 141.23840847 43.06978843 144.5625 37.1875 C145.13278931 36.18493164 145.13278931 36.18493164 145.71459961 35.16210938 C148.05946273 30.97282697 150.0570727 26.75632228 151.875 22.3125 C153.195 22.3125 154.515 22.3125 155.875 22.3125 C168.61588755 62.72032998 168.61588755 62.72032998 173.6875 80.9375 C173.95799164 81.89914566 173.95799164 81.89914566 174.23394775 82.88021851 C176.55481189 91.21212336 178.33242187 99.54320691 179.78125 108.0703125 C180.10568496 109.9145557 180.43014776 111.75879399 180.75463867 113.60302734 C181.37922204 117.17235849 181.92754433 120.7429034 182.43481445 124.33056641 C183.55206848 132.84972749 183.55206848 132.84972749 188.54858398 139.4230957 C191.64018707 140.70947131 194.61899123 141.5502913 197.875 142.3125 C200.0456543 143.24267578 200.0456543 143.24267578 201.87109375 144.19921875 C203.57458984 145.09060547 203.57458984 145.09060547 205.3125 146 C232.77288719 160.78337689 252.63492788 186.24312306 261.62109375 215.9375 C262.0425685 217.39482393 262.46076473 218.85310179 262.875 220.3125 C263.21660156 221.488125 263.55820312 222.66375 263.91015625 223.875 C268.0867451 240.96987531 267.33597739 260.34929842 262.875 277.3125 C262.58496094 278.43398438 262.29492188 279.55546875 261.99609375 280.7109375 C253.49207196 310.67071301 233.52782142 336.30441019 206.37963867 351.4753418 C186.48037007 362.15266637 166.20946752 366.46901863 143.70292664 366.45294189 C142.39444427 366.45591302 141.0859619 366.45888414 139.73782855 366.4619453 C136.12546423 366.46996491 132.51311983 366.47180204 128.90074766 366.47254276 C124.996596 366.47440222 121.09245446 366.48195412 117.18830872 366.48867798 C108.6588466 366.50222727 100.12938921 366.50828107 91.59991813 366.51268864 C86.26570077 366.51545756 80.9314852 366.51969615 75.59726906 366.52419281 C60.80528089 366.53638242 46.01329416 366.54668144 31.22130108 366.5500679 C30.27557759 366.55028747 29.32985409 366.55050703 28.35547232 366.55073325 C26.93363557 366.55106067 26.93363557 366.55106067 25.48307484 366.5513947 C23.56252841 366.55183815 21.64198198 366.55228472 19.72143555 366.55273438 C18.2924722 366.55306652 18.2924722 366.55306652 16.8346409 366.55340537 C1.41957035 366.55734823 -13.99545278 366.57478799 -29.41050503 366.5980939 C-45.26722242 366.62187236 -61.12391607 366.63427275 -76.98065156 366.63543582 C-85.87126035 366.63634909 -94.76180739 366.64201281 -103.65239906 366.66025543 C-111.22737671 366.67574454 -118.80227351 366.68072551 -126.377264 366.67251733 C-130.23394766 366.66864136 -134.09046899 366.66938848 -137.94713211 366.68357468 C-179.40957354 366.82709288 -214.82993806 358.78044351 -246.125 330.3125 C-246.99898437 329.52230469 -247.87296875 328.73210937 -248.7734375 327.91796875 C-273.71821378 304.19288973 -287.14822322 270.37901065 -288.22021484 236.28417969 C-288.5967965 202.54464662 -276.7327941 171.9691733 -255.125 146.3125 C-254.46113281 145.50167969 -253.79726562 144.69085938 -253.11328125 143.85546875 C-233.9108235 121.3165396 -202.37711997 104.72927965 -172.91455078 101.51904297 C-166.74289495 101.06208333 -160.56055254 101.01960149 -154.375 101 C-153.07216064 100.99436035 -151.76932129 100.9887207 -150.42700195 100.98291016 C-138.0475033 101.0755699 -126.64669096 102.86588136 -114.8125 106.4375 C-113.86955078 106.71464844 -112.92660156 106.99179688 -111.95507812 107.27734375 C-109.6760712 107.94832041 -107.39957361 108.62667622 -105.125 109.3125 C-122.16265165 100.20300058 -139.73539587 94.63555534 -159.125 93.3125 C-159.8984375 91.72265625 -159.8984375 91.72265625 -160.125 89.3125 C-158.75641341 86.94611128 -157.39502569 84.90944549 -155.75 82.75 C-155.29101318 82.13012207 -154.83202637 81.51024414 -154.35913086 80.87158203 C-135.41219332 55.49371391 -113.23322332 34.91423277 -84.97558594 20.27441406 C-83.4539202 19.48346907 -81.94733313 18.66358152 -80.4453125 17.8359375 C-68.71862374 11.54653696 -55.79920685 7.45719557 -42.875 4.5 C-42.02583008 4.30535156 -41.17666016 4.11070313 -40.30175781 3.91015625 C-26.86477132 1.00707206 -13.69717389 -0.06991883 0 0 Z M150.875 47.3125 C150.54628906 47.82296875 150.21757812 48.3334375 149.87890625 48.859375 C141.52412177 61.6292895 132.58658296 73.48530668 120.875 83.3125 C119.63363281 84.42044922 119.63363281 84.42044922 118.3671875 85.55078125 C96.47035751 104.67238627 69.92263633 117.5113549 41.75 124.125 C40.92927002 124.3199707 40.10854004 124.51494141 39.26293945 124.71582031 C22.18320909 128.46757125 4.45357235 128.94629116 -12.95166016 129.83886719 C-32.5116492 130.85792087 -51.08113602 133.38571582 -69.125 141.3125 C-69.73569336 141.57933594 -70.34638672 141.84617187 -70.97558594 142.12109375 C-79.91272724 146.11012212 -87.56290266 151.13121358 -95.125 157.3125 C-95.91519531 157.93769531 -96.70539063 158.56289062 -97.51953125 159.20703125 C-113.84094686 172.784391 -125.95564394 195.1395849 -128.125 216.3125 C-129.19937482 236.70296349 -128.38922713 259.03310505 -114.125 275.3125 C-113.465 275.3125 -112.805 275.3125 -112.125 275.3125 C-111.898125 275.89644531 -111.67125 276.48039063 -111.4375 277.08203125 C-109.76584843 279.92284389 -107.85352424 281.17173012 -105.125 283 C-103.7946875 283.90298828 -103.7946875 283.90298828 -102.4375 284.82421875 C-95.64440347 289.19612716 -87.74637359 286.51757416 -80.21679688 284.9355011 C-75.67837014 283.94896773 -71.15075361 282.91795437 -66.625 281.875 C-65.66045898 281.65451996 -64.69591797 281.43403992 -63.70214844 281.20687866 C-44.97257353 276.91165911 -26.48570492 271.9756881 -8.125 266.3125 C-7.12694336 266.00779785 -6.12888672 265.7030957 -5.10058594 265.38916016 C27.49716819 255.27525632 57.38612137 237.25739709 82.1640625 213.87109375 C84.78899367 211.39367312 87.47592296 209.00679064 90.1875 206.625 C94.45804659 202.77472942 98.25067811 198.77205657 101.875 194.3125 C102.70773437 193.29414063 103.54046875 192.27578125 104.3984375 191.2265625 C114.55184731 178.65026189 123.07677321 165.72273974 130.01416016 151.11474609 C131.26507671 148.49583912 132.56977434 145.90467085 133.875 143.3125 C134.266875 142.52875 134.65875 141.745 135.0625 140.9375 C135.4646875 140.133125 135.4646875 140.133125 135.875 139.3125 C134.79794183 172.70130314 109.99559041 207.37106195 88.18359375 230.81640625 C86.14446311 233.02115156 84.18979213 235.27081814 82.25 237.5625 C79.46232495 240.75577212 76.5085354 243.55398832 73.26953125 246.28515625 C71.44520156 247.82973554 69.66142183 249.39624375 67.88671875 250.99609375 C51.02181288 266.05306575 31.43170456 278.4334355 10.33984375 286.625 C8.85281952 287.20413399 8.85281952 287.20413399 7.33575439 287.79496765 C-3.90388752 292.09725587 -15.36426524 295.63041174 -26.875 299.125 C-30.03192952 300.09066902 -33.18804238 301.05890904 -36.34332275 302.029953 C-38.27789579 302.6246047 -40.21348241 303.21597464 -42.15032959 303.80317688 C-48.55718018 305.76270307 -54.84863798 307.96932548 -61.125 310.3125 C-61.125 310.6425 -61.125 310.9725 -61.125 311.3125 C-59.76580444 311.30464478 -59.76580444 311.30464478 -58.37915039 311.29663086 C-38.0741089 311.19638098 -17.7976823 311.36734099 2.49975586 311.95678711 C47.69788149 313.24833969 101.37081484 314.66400694 137.875 283.3125 C138.51308594 282.8175 139.15117187 282.3225 139.80859375 281.8125 C162.71251041 263.37876426 173.28801921 231.957575 176.55859375 203.7421875 C180.25142983 168.07295395 175.6223464 133.48471958 167.4375 98.75 C167.2504953 97.95174805 167.0634906 97.15349609 166.87081909 96.33105469 C164.3179284 85.49852982 161.32234594 74.89300988 157.875 64.3125 C157.37063736 62.72149878 156.86663097 61.13038448 156.36328125 59.5390625 C155.97527344 58.35054687 155.58726562 57.16203125 155.1875 55.9375 C154.59388672 54.10058594 154.59388672 54.10058594 153.98828125 52.2265625 C153.07439921 49.23977167 153.07439921 49.23977167 150.875 47.3125 Z M-125 306.4375 C-126.92272759 311.35113719 -127.27836702 316.44510144 -125.28125 321.41015625 C-122.77490909 325.39828655 -119.81587994 327.64273602 -115.3046875 328.99609375 C-110.42651361 329.70421577 -106.24051123 328.88364328 -102.2578125 325.92578125 C-98.62086746 322.19312713 -97.19537304 318.64367946 -96.95703125 313.453125 C-97.32631526 308.74690082 -99.26661976 306.08713582 -102.6875 303 C-110.45648724 297.62147037 -118.89260167 299.51578189 -125 306.4375 Z " fill="#6FB342" transform="translate(301.125,27.6875)"/>
<path d="M0 0 C-2.50248865 1.66832577 -4.41149187 2.62381674 -7.1875 3.625 C-7.90292969 3.88539063 -8.61835938 4.14578125 -9.35546875 4.4140625 C-9.89816406 4.60742188 -10.44085938 4.80078125 -11 5 C-10.18474854 4.99476318 -9.36949707 4.98952637 -8.52954102 4.98413086 C10.81649758 4.87829767 30.1336324 5.08697289 49.47241211 5.64428711 C64.41257773 6.06738389 79.37417533 6.31941361 94.3125 5.6875 C95.25472412 5.64826416 96.19694824 5.60902832 97.16772461 5.56860352 C105.12049123 5.17192224 112.95091617 4.21829183 120.81958008 3.01635742 C125.26533777 2.33803477 129.48404679 1.82944676 134 2 C134 2.33 134 2.66 134 3 C104.74046694 10.4641666 73.16531575 8.22688446 43.24853516 8.07904053 C34.16339756 8.03530612 25.07822859 8.0059296 15.9930172 7.9829998 C12.86426226 7.97296022 9.73560619 7.95591121 6.60688782 7.93800354 C-4.63715741 7.89082271 -15.78578497 8.16308678 -27 9 C-23.76086892 5.76086892 -19.45930271 4.85613244 -15.1875 3.375 C-13.83301758 2.88773437 -13.83301758 2.88773437 -12.45117188 2.390625 C-11.57396484 2.08382813 -10.69675781 1.77703125 -9.79296875 1.4609375 C-8.9939917 1.18040527 -8.19501465 0.89987305 -7.37182617 0.61083984 C-4.82596041 -0.04482214 -2.61789474 -0.10863116 0 0 Z " fill="#D5E8C8" transform="translate(254,333)"/>
<path d="M0 0 C0.66 0 1.32 0 2 0 C3.82505104 5.82365532 3.82505104 5.82365532 4.59643555 8.31958008 C6.03669133 12.96871603 7.52441115 17.59841148 9.0546875 22.21875 C19.49779885 54.19059583 28.04311276 88.19541984 27 122 C26.67 122 26.34 122 26 122 C25.85304688 120.05287109 25.85304688 120.05287109 25.703125 118.06640625 C24.00007168 96.7951312 20.45278077 76.19079493 15.5625 55.4375 C15.28199295 54.24012207 15.28199295 54.24012207 14.99581909 53.01855469 C12.44307505 42.18665207 9.45546326 31.57753618 6 21 C5.720354 20.12931885 5.44070801 19.2586377 5.15258789 18.36157227 C4.52849855 16.42526156 3.89021525 14.49353886 3.25 12.5625 C2.84265625 11.32628906 2.4353125 10.09007813 2.015625 8.81640625 C1.27288174 6.13111232 1.27288174 6.13111232 0 5 C-0.30292969 5.51949219 -0.60585938 6.03898437 -0.91796875 6.57421875 C-3.56363976 10.97824341 -6.20771476 14.53276778 -10 18 C-8.70126608 14.45970129 -7.15122134 11.52988067 -5 8.4375 C-3.09937057 5.69584204 -1.42409849 3.01936265 0 0 Z " fill="#D7E9CA" transform="translate(452,71)"/>
<path d="M0 0 C2.03171148 -0.00217399 4.06286741 -0.0203472 6.09448242 -0.03930664 C18.34075281 -0.09463828 29.64055939 1.47228887 41.3034668 5.18530273 C42.14844727 5.44569336 42.99342773 5.70608398 43.86401367 5.97436523 C48.2170979 7.32215363 52.54742684 8.73035818 56.8659668 10.18530273 C57.6497168 10.43280273 58.4334668 10.68030273 59.2409668 10.93530273 C63.17563677 12.8089551 66.45560962 15.49425167 69.8659668 18.18530273 C69.2059668 18.51530273 68.5459668 18.84530273 67.8659668 19.18530273 C66.06933594 18.53613281 66.06933594 18.53613281 63.90112305 17.45483398 C63.10657715 17.06569824 62.31203125 16.6765625 61.4934082 16.27563477 C60.64697754 15.8539502 59.80054688 15.43226563 58.9284668 14.99780273 C52.01171358 11.64449889 45.21627041 8.47947244 37.8659668 6.18530273 C37.0618335 5.91854736 36.2577002 5.65179199 35.42919922 5.37695312 C23.55451751 2.02709359 11.27630308 2.86104734 -0.9465332 2.99780273 C-3.29613401 3.01287571 -5.64574416 3.02655949 -7.99536133 3.03881836 C-13.70845835 3.07161898 -19.42120138 3.12161126 -25.1340332 3.18530273 C-17.5111573 -0.9016046 -8.42772687 -0.00100558 0 0 Z " fill="#CCE3BC" transform="translate(144.134033203125,128.814697265625)"/>
<path d="M0 0 C0.33 0 0.66 0 1 0 C1.05039358 4.40672442 1.0861752 8.813285 1.10986328 13.22021484 C1.11976443 14.71145558 1.13328888 16.20267779 1.15087891 17.69384766 C1.30607129 31.21384259 0.64667214 44.42804849 -3.28125 57.46875 C-4.23919977 60.84239918 -4.81953456 64.25085068 -5.375 67.7109375 C-6.13616122 70.49869047 -7.4978392 72.534258 -9 75 C-9.91672744 77.21233357 -10.79060332 79.44281935 -11.625 81.6875 C-13.93721973 87.87443946 -13.93721973 87.87443946 -15 90 C-15.66 90 -16.32 90 -17 90 C-15.87092371 86.43235171 -14.60011298 82.95427056 -13.1953125 79.48828125 C-2.74160951 53.53790819 -1.08747359 27.73057643 0 0 Z " fill="#D1E7C3" transform="translate(479,193)"/>
<path d="M0 0 C1.21269338 3.79482281 0.43871191 5.69596036 -1.0390625 9.36328125 C-8.0478957 28.59483577 -11.07632148 52.91892298 -7 73 C-6.96175377 75.33301986 -6.95425716 77.66711508 -7 80 C-7.33 80 -7.66 80 -8 80 C-13.81278562 54.52785288 -12.27538662 23.5521868 0 0 Z " fill="#CBE2BA" transform="translate(24,209)"/>
<path d="M0 0 C0.33 0 0.66 0 1 0 C0.95459056 10.30794337 -2.5570223 19.42915374 -6 29 C-6.68707555 26.50935112 -7 24.62113708 -7 22 C-7.99 22 -8.98 22 -10 22 C-10.28875 22.969375 -10.5775 23.93875 -10.875 24.9375 C-12 28 -12 28 -14 29 C-12.50266951 24.03475899 -10.41662011 19.59593357 -8.0625 15 C-7.54139648 13.97132813 -7.54139648 13.97132813 -7.00976562 12.921875 C-6.3290452 11.57838158 -5.64632925 10.23589701 -4.96142578 8.89453125 C-4.06306176 7.12426593 -3.18503533 5.34372076 -2.30859375 3.5625 C-1 1 -1 1 0 0 Z " fill="#B6D6A1" transform="translate(437,166)"/>
<path d="M0 0 C0.66 0.33 1.32 0.66 2 1 C0 4 0 4 -3 5 C-4.4081132 6.38911761 -4.4081132 6.38911761 -5.8125 8.1875 C-9.40336516 12.41657031 -13.22008022 16.37607664 -17.125 20.3125 C-17.7228833 20.92311279 -18.3207666 21.53372559 -18.93676758 22.1628418 C-22.0819903 25.3159243 -25.01100881 27.91518763 -29 30 C-23.36577282 17.41102363 -10.97137611 7.814807 0 0 Z " fill="#A8CE8E" transform="translate(69,153)"/>
<path d="M0 0 C0 0.33 0 0.66 0 1 C-0.6391333 1.16081055 -1.2782666 1.32162109 -1.93676758 1.48730469 C-4.89686318 2.23566895 -7.85465493 2.99279166 -10.8125 3.75 C-12.31973633 4.12898438 -12.31973633 4.12898438 -13.85742188 4.515625 C-23.2797156 6.93936615 -32.27095092 10.01018176 -41.02734375 14.265625 C-43 15 -43 15 -47 15 C-47 15.66 -47 16.32 -47 17 C-48.40751221 17.86916887 -49.8264521 18.71985149 -51.25 19.5625 C-52.03890625 20.03816406 -52.8278125 20.51382813 -53.640625 21.00390625 C-56.30844625 22.13022151 -57.34501768 22.0169313 -60 21 C-44.10932553 10.37204352 -19.55711453 -0.95777338 0 0 Z " fill="#DBECD0" transform="translate(269,31)"/>
<path d="M0 0 C0 5.0814786 -3.35646728 8.75933293 -6 13 C-1.71 13 2.58 13 7 13 C7 13.66 7 14.32 7 15 C8.36125 15.1546875 8.36125 15.1546875 9.75 15.3125 C17.80286628 16.47460062 25.65165285 18.49283431 33 22 C28.87432091 23.37522636 25.92166068 21.9620874 21.9375 20.6875 C12.31225643 17.73709421 3.05048799 15.81259265 -7 15 C-7.74609375 13.359375 -7.74609375 13.359375 -8 11 C-6.34765625 8.203125 -6.34765625 8.203125 -4.0625 5.25 C-3.31097656 4.26515625 -2.55945313 3.2803125 -1.78515625 2.265625 C-0.90150391 1.14414063 -0.90150391 1.14414063 0 0 Z " fill="#CEE4BF" transform="translate(149,106)"/>
<path d="M0 0 C1.11271783 3.33815349 0.84887524 4.34050038 0.0703125 7.67578125 C-1.39845779 15.16650971 -1.21797718 22.59582534 -1.125 30.1875 C-1.11494179 31.63085311 -1.105821 33.07421306 -1.09765625 34.51757812 C-1.07588691 38.01186394 -1.04151675 41.50588637 -1 45 C-7.80965004 34.78552493 -4.32350544 17.57213871 -2.15527344 6.01733398 C-1.1698276 1.1698276 -1.1698276 1.1698276 0 0 Z " fill="#DEEED2" transform="translate(175,230)"/>
<path d="M0 0 C0.99 0.33 1.98 0.66 3 1 C4.203125 3.8359375 4.203125 3.8359375 5.25 7.375 C5.60578125 8.53773437 5.9615625 9.70046875 6.328125 10.8984375 C7 14 7 14 6 17 C3.73625389 14.73625389 3.51648574 13.68987631 2.875 10.625 C2.70742188 9.85414062 2.53984375 9.08328125 2.3671875 8.2890625 C2 6 2 6 2 2 C1.34 2 0.68 2 0 2 C-0.20496094 2.69867188 -0.40992188 3.39734375 -0.62109375 4.1171875 C-0.89050781 5.02726562 -1.15992188 5.93734375 -1.4375 6.875 C-1.70433594 7.77992187 -1.97117187 8.68484375 -2.24609375 9.6171875 C-3 12 -3 12 -4 14 C-4.66 14 -5.32 14 -6 14 C-6.226875 14.825 -6.45375 15.65 -6.6875 16.5 C-8.27426232 20.73136618 -10.50748237 24.25171013 -13 28 C-13.33 27.34 -13.66 26.68 -14 26 C-13.24316406 24.23168945 -13.24316406 24.23168945 -12.015625 22.11328125 C-11.57476562 21.33919922 -11.13390625 20.56511719 -10.6796875 19.76757812 C-10.20789063 18.95740234 -9.73609375 18.14722656 -9.25 17.3125 C-6.16339156 11.96325062 -3.36356298 6.70695744 -1 1 C-0.67 0.67 -0.34 0.34 0 0 Z " fill="#D5E8C8" transform="translate(454,49)"/>
<path d="M0 0 C-2.50248865 1.66832577 -4.41149187 2.62381674 -7.1875 3.625 C-7.90292969 3.88539063 -8.61835938 4.14578125 -9.35546875 4.4140625 C-9.89816406 4.60742188 -10.44085938 4.80078125 -11 5 C-9.02 5 -7.04 5 -5 5 C-4.67 5.66 -4.34 6.32 -4 7 C-7.08207081 7.36578324 -10.16575377 7.71557825 -13.25 8.0625 C-14.12269531 8.16626953 -14.99539062 8.27003906 -15.89453125 8.37695312 C-16.73886719 8.47041016 -17.58320313 8.56386719 -18.453125 8.66015625 C-19.22817383 8.74918213 -20.00322266 8.83820801 -20.80175781 8.92993164 C-23.07115964 9.00226819 -24.83682089 8.65714106 -27 8 C-23.44237066 6.65341021 -19.87818348 5.3251002 -16.3125 4 C-15.30509766 3.6184375 -14.29769531 3.236875 -13.25976562 2.84375 C-12.28330078 2.4828125 -11.30683594 2.121875 -10.30078125 1.75 C-9.40528564 1.41484375 -8.50979004 1.0796875 -7.5871582 0.734375 C-4.92896656 -0.02016312 -2.74771161 -0.13857647 0 0 Z " fill="#CEE4BE" transform="translate(254,333)"/>
<path d="M0 0 C2.21542376 3.32313564 3.2668527 6.59591644 4.41796875 10.37109375 C4.63947098 11.0898317 4.86097321 11.80856964 5.08918762 12.54908752 C5.5548558 14.06715527 6.0178224 15.58605399 6.47827148 17.10571289 C7.18485856 19.42881554 7.90742202 21.746551 8.63085938 24.06445312 C9.08171782 25.54136522 9.53161991 27.01856967 9.98046875 28.49609375 C10.19809372 29.18787216 10.41571869 29.87965057 10.63993835 30.59239197 C11.66618047 34.03759335 12.39573568 36.58765751 11 40 C7.79880752 31.25628979 4.69326357 22.60921542 2.58984375 13.5234375 C2.07374927 11.31551012 1.47544398 9.16714101 0.8125 7 C0 4 0 4 0 0 Z " fill="#C6DEB5" transform="translate(461,66)"/>
<path d="M0 0 C0.66 0.33 1.32 0.66 2 1 C-1.30867002 5.31460266 -4.12168688 8.19989611 -9.015625 10.72265625 C-16.4262535 15.49288365 -22.35261181 23.305414 -28 30 C-28 26.552836 -27.66515977 26.2580124 -25.4296875 23.84765625 C-24.86910645 23.24123291 -24.30852539 22.63480957 -23.73095703 22.01000977 C-23.11849121 21.36733154 -22.50602539 20.72465332 -21.875 20.0625 C-21.25351074 19.40241943 -20.63202148 18.74233887 -19.99169922 18.06225586 C-13.74613482 11.5399297 -6.98959865 5.70427732 0 0 Z " fill="#CCE3BD" transform="translate(186,67)"/>
<path d="M0 0 C-0.33 0.99 -0.66 1.98 -1 3 C-2.82121736 3.51174703 -4.65013494 4.00321743 -6.49951172 4.40136719 C-9.33552328 5.08032641 -12.03136866 5.98618361 -14.78515625 6.9453125 C-15.81060547 7.29980469 -16.83605469 7.65429688 -17.89257812 8.01953125 C-20.01177896 8.75857479 -22.12897069 9.50340396 -24.24414062 10.25390625 C-29.70531741 12.13043395 -34.21413842 13.50882754 -40 13 C-37.01146712 11.00764475 -34.71760233 10.18119165 -31.30078125 9.16015625 C-30.17349609 8.81919922 -29.04621094 8.47824219 -27.88476562 8.12695312 C-26.70591797 7.77568359 -25.52707031 7.42441406 -24.3125 7.0625 C-15.25336829 4.39449265 -15.25336829 4.39449265 -6.35546875 1.24609375 C-3 0 -3 0 0 0 Z " fill="#CFE6C0" transform="translate(313,287)"/>
<path d="M0 0 C0.66 0 1.32 0 2 0 C2.680625 0.70125 3.36125 1.4025 4.0625 2.125 C5.031306 3.093806 6.01182379 4.05095948 7 5 C7.58265625 5.56203125 8.1653125 6.1240625 8.765625 6.703125 C14.67171863 11.52718621 19.51830494 11.36327406 26.7668457 10.66162109 C28.5139655 10.46391248 30.25752861 10.23518019 32 10 C31.67 10.66 31.34 11.32 31 12 C25.13397594 13.95534135 18.05937092 14.38733659 12.35546875 11.80078125 C10.13562458 10.29945564 8.07407137 8.69507439 6 7 C4.82024408 6.2583692 3.63364127 5.52740304 2.4375 4.8125 C1.633125 4.214375 0.82875 3.61625 0 3 C0 2.01 0 1.02 0 0 Z " fill="#CDE3BD" transform="translate(187,303)"/>
<path d="M0 0 C-4.84151239 3.22767493 -10.4072726 4.48108088 -15.9375 6.1875 C-17.13052734 6.56841797 -18.32355469 6.94933594 -19.55273438 7.34179688 C-20.69935547 7.69693359 -21.84597656 8.05207031 -23.02734375 8.41796875 C-24.07656006 8.74563232 -25.12577637 9.0732959 -26.20678711 9.41088867 C-28.9703427 9.99374503 -30.38631264 9.96223549 -33 9 C-27.20135768 6.76975295 -21.35374852 4.77630428 -15.44140625 2.8671875 C-13.08322698 2.22644161 -13.08322698 2.22644161 -12 1 C-7.96497918 0.30163101 -4.09439083 -0.12407245 0 0 Z " fill="#D8ECCA" transform="translate(290,322)"/>
<path d="M0 0 C0.66 0 1.32 0 2 0 C2.99 3.3 3.98 6.6 5 10 C2 9 2 9 0.8125 6.9375 C0.4103125 5.9784375 0.4103125 5.9784375 0 5 C-0.30292969 5.51949219 -0.60585938 6.03898437 -0.91796875 6.57421875 C-3.56363976 10.97824341 -6.20771476 14.53276778 -10 18 C-8.70126608 14.45970129 -7.15122134 11.52988067 -5 8.4375 C-3.09937057 5.69584204 -1.42409849 3.01936265 0 0 Z " fill="#D1E5C3" transform="translate(452,71)"/>
<path d="M0 0 C-1.41225926 0.67595315 -2.83002905 1.34040059 -4.25 2 C-5.43335938 2.556875 -5.43335938 2.556875 -6.640625 3.125 C-9 4 -9 4 -13 4 C-13 4.66 -13 5.32 -13 6 C-14.40751221 6.86916887 -15.8264521 7.71985149 -17.25 8.5625 C-18.03890625 9.03816406 -18.8278125 9.51382813 -19.640625 10.00390625 C-22.30844625 11.13022151 -23.34501768 11.0169313 -26 10 C-6.16815719 -2.13081794 -6.16815719 -2.13081794 0 0 Z " fill="#C7E0B6" transform="translate(235,42)"/>
<path d="M0 0 C-1.74906531 0.64836042 -3.49929219 1.29358784 -5.25 1.9375 C-6.22453125 2.29714844 -7.1990625 2.65679687 -8.203125 3.02734375 C-12.03097611 4.35853778 -15.19111185 5.13014814 -19.25 5.0625 C-21.10625 5.0315625 -21.10625 5.0315625 -23 5 C-19.36377208 2.94998375 -15.50428596 1.88938079 -11.5 0.8125 C-10.83613281 0.62236328 -10.17226563 0.43222656 -9.48828125 0.23632812 C-6.02469674 -0.70042976 -3.40419264 -1.36341389 0 0 Z " fill="#C5E1B3" transform="translate(273,301)"/>
<path d="M0 0 C2.90153725 2.90153725 3.51910872 6.46438411 4.625 10.3125 C4.85445312 11.07240234 5.08390625 11.83230469 5.3203125 12.61523438 C6.45516334 16.502774 7.31058063 19.90523953 7 24 C4.75781221 21.75781221 4.62187982 20.95815101 4.0625 17.9375 C3.23250989 13.82074904 2.03492914 9.9810698 0.5859375 6.04296875 C0 4 0 4 0 0 Z " fill="#CCE3BC" transform="translate(558,233)"/>
<path d="M0 0 C1.81508956 3.44358114 3.2239286 6.9953238 4.625 10.625 C5.07101563 11.77226562 5.51703125 12.91953125 5.9765625 14.1015625 C7 17 7 17 7 19 C6.34 19 5.68 19 5 19 C0.65931765 12.8507 -0.25252738 7.32329396 0 0 Z " fill="#C5E0B1" transform="translate(174,275)"/>
<path d="M0 0 C5.08938811 1.59043379 8.87456643 4.7446951 13 8 C12.01 8.495 12.01 8.495 11 9 C8.1796875 7.78515625 8.1796875 7.78515625 4.875 6.0625 C3.77929688 5.49660156 2.68359375 4.93070313 1.5546875 4.34765625 C0.71164063 3.90292969 -0.13140625 3.45820313 -1 3 C-0.67 2.01 -0.34 1.02 0 0 Z " fill="#CBE6B8" transform="translate(201,139)"/>
<path d="M0 0 C0.33 0 0.66 0 1 0 C1.02505615 0.60062256 1.0501123 1.20124512 1.07592773 1.82006836 C1.1915528 4.52611437 1.31442936 7.23178283 1.4375 9.9375 C1.47681641 10.88302734 1.51613281 11.82855469 1.55664062 12.80273438 C1.59853516 13.70185547 1.64042969 14.60097656 1.68359375 15.52734375 C1.72025146 16.35999756 1.75690918 17.19265137 1.79467773 18.05053711 C1.79367103 20.00338858 1.79367103 20.00338858 3 21 C3.04080783 22.99958364 3.04254356 25.00045254 3 27 C0.44545783 23.16818675 -0.12371516 21.52643718 -0.09765625 16.9921875 C-0.09443359 16.00605469 -0.09121094 15.01992188 -0.08789062 14.00390625 C-0.07951172 12.97136719 -0.07113281 11.93882812 -0.0625 10.875 C-0.05798828 9.83472656 -0.05347656 8.79445313 -0.04882812 7.72265625 C-0.03701952 5.14838038 -0.02055075 2.57421854 0 0 Z " fill="#B4D49F" transform="translate(171,248)"/>
<path d="M0 0 C-5.03996638 3.35997759 -9.99709677 4.29282455 -16 4 C-11.43026546 -0.20415577 -5.95720178 -0.18052127 0 0 Z " fill="#B7D5A3" transform="translate(290,322)"/>
<path d="M0 0 C0.93065133 2.60582371 1.14917407 3.64198224 0.0625 6.25 C-0.4634375 7.11625 -0.4634375 7.11625 -1 8 C-1.33 7.01 -1.66 6.02 -2 5 C-2.99 5.66 -3.98 6.32 -5 7 C-4.1875 4.0625 -4.1875 4.0625 -3 1 C-2.01 0.67 -1.02 0.34 0 0 Z " fill="#7CB658" transform="translate(430,187)"/>
<path d="M0 0 C0.33 0 0.66 0 1 0 C0.67 3.63 0.34 7.26 0 11 C-3 7 -3 7 -2.8125 4.375 C-2 2 -2 2 0 0 Z " fill="#D6E4CD" transform="translate(437,166)"/>
<path d="M0 0 C2.40034102 3.60051153 4.32187705 6.96144535 3.625 11.375 C3.41875 11.91125 3.2125 12.4475 3 13 C0.89172945 9.83759418 0.66182535 8.49342531 0.375 4.8125 C0.30023438 3.91144531 0.22546875 3.01039062 0.1484375 2.08203125 C0.09945313 1.39496094 0.05046875 0.70789063 0 0 Z " fill="#D8ECCB" transform="translate(461,66)"/>
</svg>
