<?xml version="1.0" encoding="UTF-8"?>
<svg version="1.1" xmlns="http://www.w3.org/2000/svg" width="322" height="304">
<path d="M0 0 C0.89847656 -0.03738281 1.79695313 -0.07476563 2.72265625 -0.11328125 C7.11554775 -0.1716801 9.44701324 -0.07641244 13.17578125 2.40625 C15.52221965 5.97998383 16.11432315 9.08374426 16.4375 13.25 C16.51033203 13.93191406 16.58316406 14.61382812 16.65820312 15.31640625 C17.09476524 19.68202742 17.18797252 23.98982296 17.125 28.375 C19.95435734 28.62804264 19.95435734 28.62804264 23.125 27.375 C25.36874528 24.44830846 26.86633777 21.19962726 28.4375 17.875 C29.30775275 16.11416744 30.17880375 14.35372909 31.05078125 12.59375 C31.42630127 11.80935547 31.80182129 11.02496094 32.1887207 10.21679688 C33.125 8.375 33.125 8.375 34.125 7.375 C40.42853226 6.71838206 44.53685743 8.63189851 50.125 11.375 C51.80953544 12.13163504 53.49694976 12.88190099 55.1875 13.625 C56.5 14.20833333 57.8125 14.79166667 59.125 15.375 C59.33476815 21.21573191 58.69338457 26.07628629 57.125 31.6875 C55.63589457 36.95063969 55.63589457 36.95063969 55.125 42.375 C56.775 42.705 58.425 43.035 60.125 43.375 C60.125 42.715 60.125 42.055 60.125 41.375 C61.115 40.859375 62.105 40.34375 63.125 39.8125 C66.21942591 38.08436295 68.57591536 36.0794897 71.125 33.625 C73.81997655 31.15635937 75.41847889 29.91508153 79.125 29.9375 C80.115 30.081875 81.105 30.22625 82.125 30.375 C82.455 31.365 82.785 32.355 83.125 33.375 C83.7025 33.66375 84.28 33.9525 84.875 34.25 C87.89245336 35.75872668 89.86498198 37.93189191 92.125 40.375 C92.80949219 41.10074219 93.49398437 41.82648438 94.19921875 42.57421875 C114.97445505 65.04251336 126.97942887 95.05682702 126.64648438 125.66210938 C126.62493059 128.00755277 126.6464987 130.34995716 126.671875 132.6953125 C126.691435 143.13190016 125.15656889 152.40291832 122.125 162.375 C121.85768066 163.25978027 121.59036133 164.14456055 121.31494141 165.05615234 C120.65008906 167.14032188 119.93875679 169.19561162 119.1875 171.25 C118.81117432 172.30078735 118.81117432 172.30078735 118.42724609 173.37280273 C116.39644088 178.91688818 113.99349793 184.20916522 111.125 189.375 C110.465 189.375 109.805 189.375 109.125 189.375 C108.89683594 190.22707031 108.66867187 191.07914063 108.43359375 191.95703125 C106.93261979 195.87748563 104.79995254 198.83609848 102.1875 202.0625 C101.70458496 202.66755371 101.22166992 203.27260742 100.72412109 203.89599609 C94.57573583 211.46461658 87.81382888 218.35878313 80.125 224.375 C79.403125 224.99375 78.68125 225.6125 77.9375 226.25 C73.87674012 229.31812968 69.51768961 231.8143326 65.125 234.375 C64.52558594 234.73722656 63.92617187 235.09945312 63.30859375 235.47265625 C35.47646853 252.03780066 0.37392435 254.27517624 -30.88818359 247.8984375 C-34.0629225 247.06203541 -36.89782646 245.75608785 -39.875 244.375 C-41.1125 243.92125 -42.35 243.4675 -43.625 243 C-51.62295202 240.03951776 -59.28351881 236.24235834 -66.875 232.375 C-66.875 231.715 -66.875 231.055 -66.875 230.375 C-67.5865625 230.10300781 -68.298125 229.83101562 -69.03125 229.55078125 C-76.18765391 226.59188348 -82.65584619 223.17405979 -87.875 217.375 C-89.70076354 215.78926141 -91.55555708 214.24471493 -93.421875 212.70703125 C-95.58933639 210.72019164 -95.86070061 209.50369453 -96.1875 206.5625 C-95.79148293 202.52312591 -94.58305355 201.36811182 -91.875 198.375 C-90.31406423 196.24464124 -88.77610676 194.09909005 -87.2421875 191.94921875 C-86.79101562 191.42972656 -86.33984375 190.91023437 -85.875 190.375 C-85.215 190.375 -84.555 190.375 -83.875 190.375 C-83.38 186.415 -83.38 186.415 -82.875 182.375 C-85.27211711 182.82728625 -87.66752818 183.2866008 -90.0625 183.75 C-90.73603516 183.87632812 -91.40957031 184.00265625 -92.10351562 184.1328125 C-95.90404798 184.87437979 -99.30442691 185.90439747 -102.875 187.375 C-106.5 187.75 -106.5 187.75 -109.875 187.375 C-112.97308227 184.17284779 -114.43661525 180.07876274 -116.0625 176 C-116.33513672 175.35289062 -116.60777344 174.70578125 -116.88867188 174.0390625 C-118.50956141 170.00918176 -119.35608299 166.7109947 -118.875 162.375 C-116.47988276 158.78232415 -113.83117652 157.6098688 -110.0625 155.8125 C-109.44568359 155.50892578 -108.82886719 155.20535156 -108.19335938 154.89257812 C-104.80555209 153.24007701 -101.39495579 151.72264022 -97.875 150.375 C-97.875 148.395 -97.875 146.415 -97.875 144.375 C-98.76960938 144.31441406 -99.66421875 144.25382813 -100.5859375 144.19140625 C-103.09425731 144.01758878 -105.60206291 143.83623213 -108.109375 143.6484375 C-110.36821434 143.4844139 -112.62857696 143.33790683 -114.890625 143.2265625 C-116.18226562 143.14535156 -116.18226562 143.14535156 -117.5 143.0625 C-118.63308594 143.00642578 -118.63308594 143.00642578 -119.7890625 142.94921875 C-123.01176318 142.06207081 -124.00482461 141.19900649 -125.875 138.375 C-126.44540347 134.67855425 -126.38690736 131.04486897 -126.3125 127.3125 C-126.32313477 125.80333008 -126.32313477 125.80333008 -126.33398438 124.26367188 C-126.27018042 116.91640095 -126.27018042 116.91640095 -124.59692383 114.62402344 C-122.62692323 113.19505377 -121.285114 112.8053072 -118.890625 112.42578125 C-117.73433594 112.23725586 -117.73433594 112.23725586 -116.5546875 112.04492188 C-115.75289062 111.92697266 -114.95109375 111.80902344 -114.125 111.6875 C-112.94550781 111.49317383 -112.94550781 111.49317383 -111.7421875 111.29492188 C-107.06357325 110.56048824 -102.60864237 110.24210362 -97.875 110.375 C-97.875 108.395 -97.875 106.415 -97.875 104.375 C-98.865 104.148125 -99.855 103.92125 -100.875 103.6875 C-105.41574062 102.39407691 -108.98204507 99.97555694 -112.875 97.375 C-114.009375 96.715 -115.14375 96.055 -116.3125 95.375 C-118.875 93.375 -118.875 93.375 -119.70703125 91.21875 C-119.93602952 87.34175612 -118.63082728 84.36326961 -117.125 80.875 C-116.85945313 80.22402344 -116.59390625 79.57304688 -116.3203125 78.90234375 C-114.78360218 75.20976312 -113.25663327 71.59862483 -110.875 68.375 C-106.55420321 66.79908612 -102.74349629 68.10272724 -98.4375 69.1875 C-97.68662109 69.36603516 -96.93574219 69.54457031 -96.16210938 69.72851562 C-92.25945753 70.6792936 -88.56467271 71.75389132 -84.875 73.375 C-83.5768576 71.1513932 -83.5768576 71.1513932 -83.875 67.375 C-84.82517584 65.62618123 -84.82517584 65.62618123 -86.2109375 64.02734375 C-86.69820312 63.42212891 -87.18546875 62.81691406 -87.6875 62.19335938 C-88.4609375 61.26233398 -88.4609375 61.26233398 -89.25 60.3125 C-90.25858757 59.07224447 -91.26642778 57.83138073 -92.2734375 56.58984375 C-92.72380371 56.04448975 -93.17416992 55.49913574 -93.63818359 54.93725586 C-96.91769348 50.79481926 -96.91769348 50.79481926 -96.5 46.6875 C-96.190625 45.0478125 -96.190625 45.0478125 -95.875 43.375 C-95.215 43.375 -94.555 43.375 -93.875 43.375 C-93.875 42.715 -93.875 42.055 -93.875 41.375 C-92.265625 39.7890625 -92.265625 39.7890625 -90.125 38 C-87.79700209 36.04709107 -85.7801738 34.26293267 -83.8125 31.9375 C-81.875 30.375 -81.875 30.375 -78.6875 29.90234375 C-72.87708865 30.62269188 -70.21032944 34.08930063 -66.21289062 38.109375 C-62.98162595 41.15568513 -60.99075652 42.75 -56.43359375 42.75 C-54.67208984 42.564375 -54.67208984 42.564375 -52.875 42.375 C-53.14054687 41.51777344 -53.40609375 40.66054687 -53.6796875 39.77734375 C-54.4073561 37.42171584 -55.1311748 35.06489596 -55.8515625 32.70703125 C-56.41671246 30.86705828 -56.98810948 29.02883529 -57.5859375 27.19921875 C-58.86067152 23.18103541 -59.04643113 19.57506277 -58.875 15.375 C-41.70804196 6.30769231 -41.70804196 6.30769231 -32.875 8.375 C-31.885 10.85 -31.885 10.85 -30.875 13.375 C-30.215 13.375 -29.555 13.375 -28.875 13.375 C-27.70345707 15.66429053 -26.53761926 17.95618362 -25.375 20.25 C-25.04113281 20.90097656 -24.70726562 21.55195312 -24.36328125 22.22265625 C-21.875 27.1484375 -21.875 27.1484375 -21.875 29.375 C-19.35639837 28.81374921 -19.35639837 28.81374921 -16.875 27.375 C-15.81526044 24.70255407 -15.81526044 24.70255407 -15.51171875 21.4921875 C-15.26518555 19.74228516 -15.26518555 19.74228516 -15.01367188 17.95703125 C-14.86478516 16.73371094 -14.71589844 15.51039062 -14.5625 14.25 C-14.39427734 13.01894531 -14.22605469 11.78789063 -14.05273438 10.51953125 C-13.63951129 7.47348682 -13.24793791 4.42619518 -12.875 1.375 C-8.59608211 -0.05130596 -4.48362537 0.0701563 0 0 Z " fill="#76BA42" transform="translate(163.875,27.625)"/>
<path d="M0 0 C0.89847656 -0.03738281 1.79695313 -0.07476563 2.72265625 -0.11328125 C7.11554775 -0.1716801 9.44701324 -0.07641244 13.17578125 2.40625 C15.52221965 5.97998383 16.11432315 9.08374426 16.4375 13.25 C16.51033203 13.93191406 16.58316406 14.61382812 16.65820312 15.31640625 C17.09476524 19.68202742 17.18797252 23.98982296 17.125 28.375 C19.95435734 28.62804264 19.95435734 28.62804264 23.125 27.375 C25.36874528 24.44830846 26.86633777 21.19962726 28.4375 17.875 C29.30775275 16.11416744 30.17880375 14.35372909 31.05078125 12.59375 C31.42630127 11.80935547 31.80182129 11.02496094 32.1887207 10.21679688 C33.125 8.375 33.125 8.375 34.125 7.375 C40.42853226 6.71838206 44.53685743 8.63189851 50.125 11.375 C51.80953544 12.13163504 53.49694976 12.88190099 55.1875 13.625 C56.5 14.20833333 57.8125 14.79166667 59.125 15.375 C59.33476815 21.21573191 58.69338457 26.07628629 57.125 31.6875 C55.63589457 36.95063969 55.63589457 36.95063969 55.125 42.375 C56.775 42.705 58.425 43.035 60.125 43.375 C60.125 42.715 60.125 42.055 60.125 41.375 C61.115 40.859375 62.105 40.34375 63.125 39.8125 C66.21942591 38.08436295 68.57591536 36.0794897 71.125 33.625 C73.81997655 31.15635937 75.41847889 29.91508153 79.125 29.9375 C80.115 30.081875 81.105 30.22625 82.125 30.375 C82.455 31.365 82.785 32.355 83.125 33.375 C83.7025 33.66375 84.28 33.9525 84.875 34.25 C87.91266137 35.76883068 89.7874635 37.92343733 92.125 40.375 C93.053125 41.261875 93.98125 42.14875 94.9375 43.0625 C97.125 45.375 97.125 45.375 97.125 47.375 C95.79166667 48.70833333 94.45833333 50.04166667 93.125 51.375 C91.76136792 53.35446592 90.43081356 55.3569245 89.125 57.375 C81.98800152 67.99070042 72.98892565 76.58723325 62.125 83.375 C60.90876953 84.15617187 60.90876953 84.15617187 59.66796875 84.953125 C41.76614446 96.11709731 20.80855532 101.23088507 -0.0625 103.25 C-16.63766134 105.06019926 -33.17715441 109.02538126 -45.875 120.375 C-46.50148438 120.92027344 -47.12796875 121.46554688 -47.7734375 122.02734375 C-57.70606674 131.2443032 -63.36259154 144.73777928 -64.078125 158.1953125 C-64.30075922 170.50298884 -62.21795463 180.22035587 -56.875 191.375 C-37.50766798 189.49290817 -18.49874374 184.88818068 0.125 179.375 C1.2696875 179.04886719 2.414375 178.72273437 3.59375 178.38671875 C34.00461005 169.10813645 64.30164356 145.5015013 79.36328125 117.3125 C81.04029228 114.04074794 82.61210544 110.72608727 84.125 107.375 C86.33984501 114.01953502 80.83139157 123.02385975 77.87890625 129.1015625 C63.3755402 157.93512009 41.23433695 178.66018545 12.125 192.375 C11.3112793 192.76204102 10.49755859 193.14908203 9.65917969 193.54785156 C3.10369041 196.60381236 -3.50303202 199.12843857 -10.375 201.375 C-11.94846191 201.89199463 -11.94846191 201.89199463 -13.55371094 202.41943359 C-27.6995306 207.00639518 -41.97270533 210.46681058 -56.5 213.625 C-57.68625977 213.88361816 -58.87251953 214.14223633 -60.09472656 214.40869141 C-66.35373619 215.73875314 -72.50072212 216.80416915 -78.875 217.375 C-78.875 220.5926537 -76.9754084 222.04752042 -74.875 224.375 C-72.25642305 226.16462819 -72.25642305 226.16462819 -69.875 227.375 C-70.535 227.705 -71.195 228.035 -71.875 228.375 C-78.07831192 225.71786478 -83.35202392 222.40052897 -87.875 217.375 C-89.70076354 215.78926141 -91.55555708 214.24471493 -93.421875 212.70703125 C-95.58933639 210.72019164 -95.86070061 209.50369453 -96.1875 206.5625 C-95.79148293 202.52312591 -94.58305355 201.36811182 -91.875 198.375 C-90.31406423 196.24464124 -88.77610676 194.09909005 -87.2421875 191.94921875 C-86.79101562 191.42972656 -86.33984375 190.91023437 -85.875 190.375 C-85.215 190.375 -84.555 190.375 -83.875 190.375 C-83.38 186.415 -83.38 186.415 -82.875 182.375 C-85.27211711 182.82728625 -87.66752818 183.2866008 -90.0625 183.75 C-90.73603516 183.87632812 -91.40957031 184.00265625 -92.10351562 184.1328125 C-95.90404798 184.87437979 -99.30442691 185.90439747 -102.875 187.375 C-106.5 187.75 -106.5 187.75 -109.875 187.375 C-112.97308227 184.17284779 -114.43661525 180.07876274 -116.0625 176 C-116.33513672 175.35289062 -116.60777344 174.70578125 -116.88867188 174.0390625 C-118.50956141 170.00918176 -119.35608299 166.7109947 -118.875 162.375 C-116.47988276 158.78232415 -113.83117652 157.6098688 -110.0625 155.8125 C-109.44568359 155.50892578 -108.82886719 155.20535156 -108.19335938 154.89257812 C-104.80555209 153.24007701 -101.39495579 151.72264022 -97.875 150.375 C-97.875 148.395 -97.875 146.415 -97.875 144.375 C-98.76960938 144.31441406 -99.66421875 144.25382813 -100.5859375 144.19140625 C-103.09425731 144.01758878 -105.60206291 143.83623213 -108.109375 143.6484375 C-110.36821434 143.4844139 -112.62857696 143.33790683 -114.890625 143.2265625 C-116.18226562 143.14535156 -116.18226562 143.14535156 -117.5 143.0625 C-118.63308594 143.00642578 -118.63308594 143.00642578 -119.7890625 142.94921875 C-123.01176318 142.06207081 -124.00482461 141.19900649 -125.875 138.375 C-126.44540347 134.67855425 -126.38690736 131.04486897 -126.3125 127.3125 C-126.32313477 125.80333008 -126.32313477 125.80333008 -126.33398438 124.26367188 C-126.27018042 116.91640095 -126.27018042 116.91640095 -124.59692383 114.62402344 C-122.62692323 113.19505377 -121.285114 112.8053072 -118.890625 112.42578125 C-117.73433594 112.23725586 -117.73433594 112.23725586 -116.5546875 112.04492188 C-115.75289062 111.92697266 -114.95109375 111.80902344 -114.125 111.6875 C-112.94550781 111.49317383 -112.94550781 111.49317383 -111.7421875 111.29492188 C-107.06357325 110.56048824 -102.60864237 110.24210362 -97.875 110.375 C-97.875 108.395 -97.875 106.415 -97.875 104.375 C-98.865 104.148125 -99.855 103.92125 -100.875 103.6875 C-105.41574062 102.39407691 -108.98204507 99.97555694 -112.875 97.375 C-114.009375 96.715 -115.14375 96.055 -116.3125 95.375 C-118.875 93.375 -118.875 93.375 -119.70703125 91.21875 C-119.93602952 87.34175612 -118.63082728 84.36326961 -117.125 80.875 C-116.85945313 80.22402344 -116.59390625 79.57304688 -116.3203125 78.90234375 C-114.78360218 75.20976312 -113.25663327 71.59862483 -110.875 68.375 C-106.55420321 66.79908612 -102.74349629 68.10272724 -98.4375 69.1875 C-97.68662109 69.36603516 -96.93574219 69.54457031 -96.16210938 69.72851562 C-92.25945753 70.6792936 -88.56467271 71.75389132 -84.875 73.375 C-83.5768576 71.1513932 -83.5768576 71.1513932 -83.875 67.375 C-84.82517584 65.62618123 -84.82517584 65.62618123 -86.2109375 64.02734375 C-86.69820312 63.42212891 -87.18546875 62.81691406 -87.6875 62.19335938 C-88.4609375 61.26233398 -88.4609375 61.26233398 -89.25 60.3125 C-90.25858757 59.07224447 -91.26642778 57.83138073 -92.2734375 56.58984375 C-92.72380371 56.04448975 -93.17416992 55.49913574 -93.63818359 54.93725586 C-96.91769348 50.79481926 -96.91769348 50.79481926 -96.5 46.6875 C-96.190625 45.0478125 -96.190625 45.0478125 -95.875 43.375 C-95.215 43.375 -94.555 43.375 -93.875 43.375 C-93.875 42.715 -93.875 42.055 -93.875 41.375 C-92.265625 39.7890625 -92.265625 39.7890625 -90.125 38 C-87.79700209 36.04709107 -85.7801738 34.26293267 -83.8125 31.9375 C-81.875 30.375 -81.875 30.375 -78.6875 29.90234375 C-72.87708865 30.62269188 -70.21032944 34.08930063 -66.21289062 38.109375 C-62.98162595 41.15568513 -60.99075652 42.75 -56.43359375 42.75 C-54.67208984 42.564375 -54.67208984 42.564375 -52.875 42.375 C-53.14054687 41.51777344 -53.40609375 40.66054687 -53.6796875 39.77734375 C-54.4073561 37.42171584 -55.1311748 35.06489596 -55.8515625 32.70703125 C-56.41671246 30.86705828 -56.98810948 29.02883529 -57.5859375 27.19921875 C-58.86067152 23.18103541 -59.04643113 19.57506277 -58.875 15.375 C-41.70804196 6.30769231 -41.70804196 6.30769231 -32.875 8.375 C-31.885 10.85 -31.885 10.85 -30.875 13.375 C-30.215 13.375 -29.555 13.375 -28.875 13.375 C-27.70345707 15.66429053 -26.53761926 17.95618362 -25.375 20.25 C-25.04113281 20.90097656 -24.70726562 21.55195312 -24.36328125 22.22265625 C-21.875 27.1484375 -21.875 27.1484375 -21.875 29.375 C-19.35639837 28.81374921 -19.35639837 28.81374921 -16.875 27.375 C-15.81526044 24.70255407 -15.81526044 24.70255407 -15.51171875 21.4921875 C-15.26518555 19.74228516 -15.26518555 19.74228516 -15.01367188 17.95703125 C-14.86478516 16.73371094 -14.71589844 15.51039062 -14.5625 14.25 C-14.39427734 13.01894531 -14.22605469 11.78789063 -14.05273438 10.51953125 C-13.63951129 7.47348682 -13.24793791 4.42619518 -12.875 1.375 C-8.59608211 -0.05130596 -4.48362537 0.0701563 0 0 Z " fill="#2E7D3B" transform="translate(163.875,27.625)"/>
<path d="M0 0 C0.99 0.495 0.99 0.495 2 1 C-29.73259865 21.11104954 -64.88660529 27.05610462 -101.99853516 19.52880859 C-105.17580946 18.68933846 -108.03068275 17.40032531 -111 16 C-111 15.67 -111 15.34 -111 15 C-108.36 15 -105.72 15 -103 15 C-102.67 15.99 -102.34 16.98 -102 18 C-91.02287418 18.78308159 -80.0517734 19.12782 -69.04812622 19.17724609 C-67.04172619 19.1872911 -65.03538083 19.2068261 -63.02905273 19.2265625 C-52.6897184 19.23707596 -43.36626322 17.87487733 -33.5 14.875 C-27.31386861 13 -27.31386861 13 -24 13 C-24 12.34 -24 11.68 -24 11 C-20.49223216 9.39644899 -17.85645121 8.77963136 -14 9 C-13.67 8.01 -13.34 7.02 -13 6 C-10.3125 4.6484375 -10.3125 4.6484375 -7 3.375 C-3.22551954 2.14328989 -3.22551954 2.14328989 0 0 Z " fill="#475A3A" transform="translate(235,256)"/>
<path d="M0 0 C0.91523438 -0.01224609 1.83046875 -0.02449219 2.7734375 -0.03710938 C3.65257812 -0.03904297 4.53171875 -0.04097656 5.4375 -0.04296875 C6.24058594 -0.04707764 7.04367188 -0.05118652 7.87109375 -0.05541992 C10 0.1875 10 0.1875 13 2.1875 C12.67 3.1775 12.34 4.1675 12 5.1875 C5.07 5.1875 -1.86 5.1875 -9 5.1875 C-11.14175818 10.54189546 -11.75865746 15.23091107 -12.4375 20.91015625 C-12.93527733 23.81040054 -13.43138553 25.73253088 -15 28.1875 C-17.99904936 30.2558099 -20.41302423 30.38677643 -24 30.1875 C-27.44240996 24.72712558 -29.34608232 19.41475067 -31 13.1875 C-30.34 13.1875 -29.68 13.1875 -29 13.1875 C-27.82845707 15.47679053 -26.66261926 17.76868362 -25.5 20.0625 C-25.16613281 20.71347656 -24.83226562 21.36445312 -24.48828125 22.03515625 C-22 26.9609375 -22 26.9609375 -22 29.1875 C-19.48139837 28.62624921 -19.48139837 28.62624921 -17 27.1875 C-15.94026044 24.51505407 -15.94026044 24.51505407 -15.63671875 21.3046875 C-15.47236328 20.13808594 -15.30800781 18.97148438 -15.13867188 17.76953125 C-14.98978516 16.54621094 -14.84089844 15.32289062 -14.6875 14.0625 C-14.51927734 12.83144531 -14.35105469 11.60039063 -14.17773438 10.33203125 C-13.76451129 7.28598682 -13.37293791 4.23869518 -13 1.1875 C-8.68219317 -0.25176894 -4.52237315 0.00318477 0 0 Z " fill="#3B4D39" transform="translate(164,27.8125)"/>
<path d="M0 0 C8.49533157 12.74299735 9.68318763 30.42284879 9.52148438 45.28710938 C9.49993059 47.63255277 9.5214987 49.97495716 9.546875 52.3203125 C9.56935854 64.98218226 7.09285113 75.99966851 3 88 C1.83551264 84.50653792 2.52035154 82.74776826 3.45733643 79.286026 C5.19563742 71.96325467 5.16680617 64.27410689 5.203125 56.78515625 C5.20882507 55.84876816 5.21452515 54.91238007 5.22039795 53.94761658 C5.22977399 51.98209742 5.23635215 50.01656307 5.24023438 48.05102539 C5.24996422 45.07344882 5.28106831 42.09655666 5.3125 39.11914062 C5.50360659 24.0537067 5.50360659 24.0537067 0.91162109 9.8605957 C-0.65950604 6.65396478 -0.11727204 3.5181611 0 0 Z " fill="#496931" transform="translate(281,108)"/>
<path d="M0 0 C-1.77032103 1.77032103 -4.37747438 1.48638604 -6.78515625 1.75390625 C-7.95498047 1.88603516 -9.12480469 2.01816406 -10.33007812 2.15429688 C-11.56177734 2.28900391 -12.79347656 2.42371094 -14.0625 2.5625 C-15.29806641 2.70107422 -16.53363281 2.83964844 -17.80664062 2.98242188 C-20.87066147 3.32549757 -23.93527851 3.66324069 -27 4 C-26.67 11.26 -26.34 18.52 -26 26 C-21.71 26.66 -17.42 27.32 -13 28 C-13 28.33 -13 28.66 -13 29 C-14.916588 29.02712153 -16.8332873 29.04645097 -18.75 29.0625 C-20.35101563 29.07990234 -20.35101563 29.07990234 -21.984375 29.09765625 C-24.55099163 29.01454043 -26.60199817 28.89084647 -29 28 C-30.93940303 24.12119395 -30.22841185 19.32885864 -30.25 15.0625 C-30.270625 14.04736328 -30.29125 13.03222656 -30.3125 11.98632812 C-30.31765625 11.01244141 -30.3228125 10.03855469 -30.328125 9.03515625 C-30.3374707 8.1419165 -30.34681641 7.24867676 -30.35644531 6.32836914 C-30 4 -30 4 -28.81933594 2.2331543 C-26.37436646 0.5759427 -24.50039388 0.45969156 -21.5625 0.234375 C-19.97308594 0.10675781 -19.97308594 0.10675781 -18.3515625 -0.0234375 C-17.24554688 -0.09820312 -16.13953125 -0.17296875 -15 -0.25 C-13.89398438 -0.34023437 -12.78796875 -0.43046875 -11.6484375 -0.5234375 C-3.42996652 -1.14332217 -3.42996652 -1.14332217 0 0 Z " fill="#3C4B3C" transform="translate(68,140)"/>
<path d="M0 0 C0.66 0 1.32 0 2 0 C0.22962267 7.5708819 -2.25860862 14.18268212 -6 21 C-6.66 21 -7.32 21 -8 21 C-8.22300781 21.845625 -8.44601562 22.69125 -8.67578125 23.5625 C-10.2611142 27.67781858 -12.43444829 30.59762184 -15.1875 34 C-15.67710205 34.61504395 -16.1667041 35.23008789 -16.67114258 35.86376953 C-20.10195531 40.09489843 -23.63991707 43.70571512 -28 47 C-26.43370627 43.64365629 -24.61658077 41.61658077 -22 39 C-20.76487921 36.86690808 -20.76487921 36.86690808 -20 35 C-19.34 35 -18.68 35 -18 35 C-17.34 33.35 -16.68 31.7 -16 30 C-15.34 30 -14.68 30 -14 30 C-13.9175 29.319375 -13.835 28.63875 -13.75 27.9375 C-12.77667472 24.1253093 -11.04192545 21.35929671 -9 18 C-8.34 18 -7.68 18 -7 18 C-6.89816406 17.31550781 -6.79632813 16.63101563 -6.69140625 15.92578125 C-5.86230008 12.41730374 -4.4827768 9.44244474 -2.9375 6.1875 C-2.11572266 4.44533203 -2.11572266 4.44533203 -1.27734375 2.66796875 C-0.64505859 1.34732422 -0.64505859 1.34732422 0 0 Z " fill="#303D27" transform="translate(281,196)"/>
<path d="M0 0 C0.66 0.33 1.32 0.66 2 1 C-14.23876706 11.29158224 -31.43406105 20.06828862 -51 21 C-43.2837093 15.8558062 -33.04766111 14.37800049 -24 13 C-24 12.34 -24 11.68 -24 11 C-20.49223216 9.39644899 -17.85645121 8.77963136 -14 9 C-13.67 8.01 -13.34 7.02 -13 6 C-10.3125 4.6484375 -10.3125 4.6484375 -7 3.375 C-3.22551954 2.14328989 -3.22551954 2.14328989 0 0 Z " fill="#323E2A" transform="translate(235,256)"/>
<path d="M0 0 C8.68938849 13.03408274 9.64718645 30.89736875 9.41162109 46.05615234 C9.3741794 48.55476119 9.37060976 51.0519161 9.37109375 53.55078125 C9.36129149 55.14845041 9.34964732 56.7461096 9.3359375 58.34375 C9.33371185 59.08629028 9.33148621 59.82883057 9.32919312 60.59387207 C9.23247142 65.76752858 9.23247142 65.76752858 7 68 C7.02618408 66.94312988 7.05236816 65.88625977 7.0793457 64.79736328 C7.17154367 60.78294024 7.22784806 56.76860485 7.2746582 52.75341797 C7.29942442 51.03320459 7.33324789 49.31309191 7.37719727 47.59326172 C7.72072174 33.77953651 6.48603164 20.47987808 0 8 C-0.24636612 5.29982731 -0.09065666 2.71969994 0 0 Z " fill="#20281B" transform="translate(281,108)"/>
<path d="M0 0 C4.28465926 0.7617172 6.75279415 3.53728771 9.8125 6.5 C6.70698334 6.5 5.45988916 5.9606285 2.8125 4.5 C2.8125 3.84 2.8125 3.18 2.8125 2.5 C-1.33697167 4.75646452 -4.61422265 7.56068027 -7.9375 10.875 C-8.67806641 11.57882813 -8.67806641 11.57882813 -9.43359375 12.296875 C-12.38348526 15.22252083 -13.85320007 17.32125089 -14.1875 21.5 C-14.8475 21.17 -15.5075 20.84 -16.1875 20.5 C-16.5625 17.8125 -16.5625 17.8125 -16.1875 14.5 C-13.3125 11.8125 -13.3125 11.8125 -10.1875 9.5 C-9.5275 8.51 -8.8675 7.52 -8.1875 6.5 C-7.5275 6.5 -6.8675 6.5 -6.1875 6.5 C-5.754375 5.571875 -5.754375 5.571875 -5.3125 4.625 C-3.90039131 1.95768359 -2.99774263 0.68519832 0 0 Z " fill="#5B7E52" transform="translate(85.1875,58.5)"/>
<path d="M0 0 C1.34846932 4.04540795 0.21885848 5.84911463 -1.25 9.8125 C-1.68828125 11.01519531 -2.1265625 12.21789062 -2.578125 13.45703125 C-3.8961562 16.74124636 -5.36652713 19.86277122 -7 23 C-7.99 23 -8.98 23 -10 23 C-11.88669495 24.30576503 -11.88669495 24.30576503 -13.6875 26 C-14.31011719 26.556875 -14.93273437 27.11375 -15.57421875 27.6875 C-16.04472656 28.120625 -16.51523438 28.55375 -17 29 C-15.3442287 25.33616563 -13.09592735 22.25557265 -10.75 19 C-6.46078779 12.95102199 -3.10040451 6.74793922 0 0 Z " fill="#0C6D38" transform="translate(248,135)"/>
<path d="M0 0 C2.97 0.99 5.94 1.98 9 3 C9.20896208 8.8248179 8.57358054 13.6574097 7 19.25 C5.89638384 23.26179386 5 26.79089252 5 31 C4.34 31 3.68 31 3 31 C2.68585942 24.12381171 2.83109347 18.42654781 5.33203125 11.98046875 C6.24148392 9.28402135 6.21659396 6.81572144 6 4 C4.02 3.34 2.04 2.68 0 2 C0 1.34 0 0.68 0 0 Z " fill="#243026" transform="translate(214,40)"/>
<path d="M0 0 C0.33 0 0.66 0 1 0 C0.85775413 2.52108103 0.71129879 5.04180403 0.5625 7.5625 C0.52318359 8.26697266 0.48386719 8.97144531 0.44335938 9.69726562 C0.17538254 14.17041742 -0.17284788 18.58852205 -1 23 C-3.80772336 25.30634419 -6.46432469 25.19642641 -10 25 C-13.44240996 19.53962558 -15.34608232 14.22725067 -17 8 C-16.34 8 -15.68 8 -15 8 C-13.82845707 10.28929053 -12.66261926 12.58118362 -11.5 14.875 C-11.16613281 15.52597656 -10.83226562 16.17695312 -10.48828125 16.84765625 C-8 21.7734375 -8 21.7734375 -8 24 C-6.35 23.34 -4.7 22.68 -3 22 C-2.01 14.74 -1.02 7.48 0 0 Z " fill="#191D19" transform="translate(150,33)"/>
<path d="M0 0 C5.29603797 0.97094029 8.05658871 3.92693578 11.75 7.6875 C8.75 7.6875 8.75 7.6875 5.875 5.1875 C3.7916322 3.38260215 2.87413448 2.71705583 0.125 2.0625 C-3.29572106 2.96268975 -4.2256234 4.84072041 -6.25 7.6875 C-8.59202283 10.14662398 -10.67486058 12.3299809 -13.5625 14.125 C-15.56361448 15.64261258 -15.56361448 15.64261258 -15.625 18.625 C-15.273268 21.49747797 -14.75068895 23.24888046 -13.25 25.6875 C-15.8125 23.625 -15.8125 23.625 -18.25 20.6875 C-18.0625 16.875 -18.0625 16.875 -17.25 13.6875 C-16.59 13.6875 -15.93 13.6875 -15.25 13.6875 C-15.25 13.0275 -15.25 12.3675 -15.25 11.6875 C-13.640625 10.1015625 -13.640625 10.1015625 -11.5 8.3125 C-9.17200209 6.35959107 -7.1551738 4.57543267 -5.1875 2.25 C-3.25 0.6875 -3.25 0.6875 0 0 Z " fill="#0D0D0D" transform="translate(85.25,57.3125)"/>
<path d="M0 0 C7.53807668 7.0946604 13.17577373 15.32783238 17 25 C16.67 25.66 16.34 26.32 16 27 C14.35065411 24.99210066 13.11802408 23.48684933 12.5 20.9375 C11.8661826 18.48145757 10.80204036 17.78980932 9 16 C7.59381967 14.23269943 6.2213235 12.43831395 4.875 10.625 C4.17117188 9.68914062 3.46734375 8.75328125 2.7421875 7.7890625 C1.04143722 5.06633672 0.37872111 3.15600922 0 0 Z " fill="#324027" transform="translate(261,75)"/>
<path d="M0 0 C2 2 2 2 2 6 C2.66 6 3.32 6 4 6 C4.53469802 7.72492978 5.05219175 9.455198 5.5625 11.1875 C5.85253906 12.15042969 6.14257812 13.11335938 6.44140625 14.10546875 C7.02461026 17.12752588 6.81178385 19.05929955 6 22 C2.04 22.495 2.04 22.495 -2 23 C-2.33 22.34 -2.66 21.68 -3 21 C0.96 20.505 0.96 20.505 5 20 C4.72285156 19.14277344 4.44570312 18.28554687 4.16015625 17.40234375 C0.56239016 6.0456942 0.56239016 6.0456942 0 0 Z " fill="#363C35" transform="translate(106,50)"/>
<path d="M0 0 C1.485 0.99 1.485 0.99 3 2 C3.969375 2.268125 4.93875 2.53625 5.9375 2.8125 C9.6046999 4.23447547 10.66201309 5.90782376 13 9 C15.61857695 10.78962819 15.61857695 10.78962819 18 12 C17.01 12.495 17.01 12.495 16 13 C9.92347884 10.39717451 4.17677245 7.18495891 0 2 C0 1.34 0 0.68 0 0 Z " fill="#1B241F" transform="translate(76,243)"/>
<path d="M0 0 C11.56666667 9.7 11.56666667 9.7 13 14 C12.01 14.33 11.02 14.66 10 15 C9.278125 14.113125 8.55625 13.22625 7.8125 12.3125 C6.02185884 10.13815002 4.26498631 8.31398722 2.1875 6.375 C0 4 0 4 0 0 Z " fill="#22392A" transform="translate(248,61)"/>
<path d="M0 0 C0.66 0.33 1.32 0.66 2 1 C1.319375 1.474375 0.63875 1.94875 -0.0625 2.4375 C-2.27389329 5.36224596 -2.23015314 5.94419043 -1.875 9.4375 C-1.33434391 12.86728706 -0.3216488 15.79028148 1 19 C0.67 19.99 0.34 20.98 0 22 C-0.84678051 20.13103445 -1.67686211 18.25449819 -2.5 16.375 C-2.9640625 15.33085937 -3.428125 14.28671875 -3.90625 13.2109375 C-5.04695527 9.86215275 -5.35371363 7.50766019 -5 4 C-3 1 -3 1 0 0 Z " fill="#262B26" transform="translate(50,186)"/>
<path d="M0 0 C0.99 0.66 1.98 1.32 3 2 C1.39125 1.938125 1.39125 1.938125 -0.25 1.875 C-4.55633459 1.88965417 -4.55633459 1.88965417 -8 4 C-8.73075648 6.3140622 -9.40138258 8.64828869 -10 11 C-10.99 11.495 -10.99 11.495 -12 12 C-11.74476126 10.37247769 -11.47025506 8.74796804 -11.1875 7.125 C-11.03667969 6.22007813 -10.88585938 5.31515625 -10.73046875 4.3828125 C-9.09709639 -0.94530055 -4.73458662 -0.33818476 0 0 Z " fill="#4E6648" transform="translate(61,97)"/>
<path d="M0 0 C1.98 0 3.96 0 6 0 C6 0.66 6 1.32 6 2 C10.455 2.99 10.455 2.99 15 4 C15 4.66 15 5.32 15 6 C16.32 6.66 17.64 7.32 19 8 C13.19509909 7.51625826 9.07726849 5.77417763 4 3 C2.66899763 2.32869165 1.3362831 1.66073422 0 1 C0 0.67 0 0.34 0 0 Z " fill="#36422E" transform="translate(105,263)"/>
<path d="M0 0 C2.64 0 5.28 0 8 0 C8.33 0.99 8.66 1.98 9 3 C9.72445312 3.06058594 10.44890625 3.12117188 11.1953125 3.18359375 C16.17116533 3.61483433 21.08680391 4.07047641 26 5 C26 5.33 26 5.66 26 6 C12.4084507 5.22334004 12.4084507 5.22334004 6 3 C4.865625 2.62875 3.73125 2.2575 2.5625 1.875 C1.2940625 1.441875 1.2940625 1.441875 0 1 C0 0.67 0 0.34 0 0 Z " fill="#2E3529" transform="translate(124,271)"/>
<path d="M0 0 C0.66 0.33 1.32 0.66 2 1 C-12.69078947 10.31052632 -12.69078947 10.31052632 -17 11 C-16.67 10.34 -16.34 9.68 -16 9 C-15.34 9 -14.68 9 -14 9 C-13.67 8.01 -13.34 7.02 -13 6 C-10.3125 4.6484375 -10.3125 4.6484375 -7 3.375 C-3.22551954 2.14328989 -3.22551954 2.14328989 0 0 Z " fill="#293322" transform="translate(235,256)"/>
<path d="M0 0 C0 5.36197964 -4.56217682 9.13090868 -8 13 C-9.93326515 14.82810847 -11.86805945 16.40104459 -14 18 C-12.54453498 14.60391496 -10.59139701 12.59139701 -8 10 C-6.76487921 7.86690808 -6.76487921 7.86690808 -6 6 C-5.34 6 -4.68 6 -4 6 C-3.71125 5.195625 -3.4225 4.39125 -3.125 3.5625 C-2 1 -2 1 0 0 Z " fill="#21251E" transform="translate(267,225)"/>
<path d="M0 0 C0.66 0.33 1.32 0.66 2 1 C-0.3107221 8.5273523 -0.3107221 8.5273523 -3.1875 10.5 C-3.785625 10.665 -4.38375 10.83 -5 11 C-3.55049545 7.2089881 -1.84827434 3.6125362 0 0 Z " fill="#3A4A2E" transform="translate(272,214)"/>
<path d="M0 0 C1.15957207 3.47871621 0.77456651 4.34219645 -0.4375 7.6875 C-0.72496094 8.49574219 -1.01242188 9.30398437 -1.30859375 10.13671875 C-1.53675781 10.75160156 -1.76492187 11.36648437 -2 12 C-2.99 12 -3.98 12 -5 12 C-3.68938409 7.76570244 -2.05643741 3.92592596 0 0 Z " fill="#1B7639" transform="translate(248,135)"/>
<path d="M0 0 C0.66 0 1.32 0 2 0 C0.60249952 3.15835107 -1.05198234 5.32272825 -3.5 7.75 C-4.41265625 8.67039062 -4.41265625 8.67039062 -5.34375 9.609375 C-7 11 -7 11 -9 11 C-9 10.34 -9 9.68 -9 9 C-7.5390625 7.59765625 -7.5390625 7.59765625 -5.625 6.0625 C-3.16098476 4.08013383 -1.79533563 2.69300345 0 0 Z " fill="#117138" transform="translate(245,91)"/>
<path d="M0 0 C1.485 0.99 1.485 0.99 3 2 C4.010625 2.309375 5.02125 2.61875 6.0625 2.9375 C9 4 9 4 11 7 C9.53633658 6.60246179 8.0791065 6.18118616 6.625 5.75 C5.81289062 5.51796875 5.00078125 5.2859375 4.1640625 5.046875 C1.54214546 3.7785108 1.00617682 2.67576692 0 0 Z " fill="#1B472E" transform="translate(76,243)"/>
<path d="M0 0 C2.33333333 2.33333333 4.66666667 4.66666667 7 7 C6.67 7.99 6.34 8.98 6 10 C4.98808455 9.09650406 3.99081074 8.17659153 3 7.25 C2.1646875 6.48429688 2.1646875 6.48429688 1.3125 5.703125 C0 4 0 4 0 0 Z " fill="#29513B" transform="translate(69,232)"/>
<path d="M0 0 C2 0 2 0 3.625 1.1875 C5.42149467 3.55560662 5.23521845 5.09897251 5 8 C2.21611025 6.29374499 1.14615794 5.52373261 0.25 2.3125 C0.1675 1.549375 0.085 0.78625 0 0 Z " fill="#394736" transform="translate(71,80)"/>
<path d="M0 0 C0 2 0 2 -2.375 4.5625 C-5 7 -5 7 -7 8 C-6.44414399 4.1090079 -4.34122117 0 0 0 Z " fill="#191919" transform="translate(79,63)"/>
<path d="M0 0 C1.98 0 3.96 0 6 0 C6 0.66 6 1.32 6 2 C6.66 2 7.32 2 8 2 C8 2.66 8 3.32 8 4 C5.64828869 3.40138258 3.3140622 2.73075648 1 2 C0.67 1.34 0.34 0.68 0 0 Z " fill="#2E3727" transform="translate(105,263)"/>
<path d="M0 0 C3.44216672 2.6598561 3.99504674 5.90288286 5 10 C1.32769295 6.92000054 0.43197635 4.7517398 0 0 Z " fill="#252B21" transform="translate(273,92)"/>
<path d="M0 0 C2.4375 1.1875 2.4375 1.1875 5 3 C5.8125 5.6875 5.8125 5.6875 6 8 C5.34 8 4.68 8 4 8 C0 2.58823529 0 2.58823529 0 0 Z " fill="#3F5231" transform="translate(267,85)"/>
<path d="M0 0 C2 1 2 1 2 1 Z " fill="#000000" transform="translate(61,134)"/>
<path d="" fill="#000000" transform="translate(0,0)"/>
</svg>
