<?xml version="1.0" encoding="UTF-8"?>
<svg version="1.1" xmlns="http://www.w3.org/2000/svg" width="256" height="256">
<path d="M0 0 C1.25309967 -0.00571014 2.50619934 -0.01142029 3.79727173 -0.01730347 C5.17843618 -0.01854868 6.55960074 -0.01967381 7.94076538 -0.02069092 C9.40147018 -0.0253225 10.86217377 -0.03034761 12.32287598 -0.03573608 C16.28600156 -0.04883193 20.24911022 -0.05529988 24.21225405 -0.05974674 C26.6920154 -0.06268285 29.17177218 -0.06678873 31.65153122 -0.07125092 C39.42083896 -0.08492027 47.1901362 -0.0945889 54.95945513 -0.09845281 C63.90760177 -0.10292817 72.85559524 -0.12045413 81.80369532 -0.1494534 C88.73300091 -0.17112506 95.66226359 -0.18116005 102.59160268 -0.18249393 C106.72398677 -0.18353831 110.85622678 -0.18936715 114.98857498 -0.20731354 C118.88087053 -0.22388871 122.77291517 -0.22590436 126.66523361 -0.21717453 C128.08612494 -0.2164091 129.50703028 -0.22068095 130.92788696 -0.23063278 C148.42627501 -0.3459087 163.91602883 4.66093452 176.71566772 16.8147583 C190.90941039 31.06153465 194.95003988 49.5876373 195.04922485 69.10369873 C195.04315216 70.84665222 195.04315216 70.84665222 195.03695679 72.62481689 C195.04221375 74.52535828 195.04221375 74.52535828 195.0475769 76.46429443 C195.05657956 79.89408825 195.05320761 83.32375975 195.04681873 86.7535553 C195.04169503 90.37177825 195.04646764 93.9899919 195.04959106 97.60821533 C195.05321239 103.68017423 195.04848012 109.7520842 195.03890991 115.82403564 C195.02802891 122.80753883 195.0315558 129.79092515 195.04256272 136.77442551 C195.05168823 142.80970625 195.05289533 148.84495216 195.04768538 154.88023758 C195.04459442 158.46760213 195.04407598 162.05491208 195.05075836 165.64227295 C195.05769932 169.64693938 195.0480338 173.65140973 195.03695679 177.65606689 C195.04302948 179.39902039 195.04302948 179.39902039 195.04922485 181.17718506 C194.94974321 200.75162023 190.94274573 218.97119702 176.96566772 233.45294189 C172.24005253 237.92157499 167.22512365 241.60908209 161.77816772 245.14044189 C160.91449585 245.74887939 160.05082397 246.35731689 159.16098022 246.98419189 C148.06958149 254.57135161 137.12072656 256.74592399 123.84066772 256.65802002 C122.50024664 256.66345771 121.15983156 256.67058949 119.81942749 256.67926025 C116.22011298 256.69730157 112.62126348 256.69050691 109.02194214 256.67774391 C105.22973508 256.66751539 101.43756408 256.67703661 97.64535522 256.68328857 C91.28070025 256.69053664 84.91623179 256.68105248 78.55160522 256.66192627 C71.22546436 256.64016289 63.899769 256.64721629 56.57363892 256.66923189 C50.24877143 256.68746749 43.92403693 256.68990464 37.59915161 256.67947721 C33.83680943 256.6732868 30.07467565 256.67228215 26.31234741 256.68562317 C22.77274035 256.69730097 19.23369962 256.68894265 15.69415283 256.66604614 C13.7990697 256.65835836 11.90393783 256.6700123 10.00888062 256.68255615 C-3.18496617 256.55429155 -13.57269684 252.8029926 -24.22183228 245.14044189 C-25.2350354 244.42372314 -26.24823853 243.70700439 -27.29214478 242.96856689 C-42.22923024 232.11203861 -52.39606622 219.55599374 -56.22183228 201.14044189 C-57.27158628 193.47004979 -57.37007409 185.84063003 -57.36709595 178.11016846 C-57.37213387 176.21050323 -57.37213387 176.21050323 -57.37727356 174.27246094 C-57.38603824 170.8259371 -57.38844848 167.37943815 -57.38908935 163.93290424 C-57.38980418 161.77152822 -57.39194664 159.61015836 -57.39458656 157.44878387 C-57.4038153 149.88538721 -57.40792459 142.32200807 -57.40713501 134.75860596 C-57.40653499 127.745656 -57.41707829 120.73278315 -57.43287867 113.71985269 C-57.44602096 107.66767402 -57.45131611 101.61552035 -57.4506796 95.56332755 C-57.45042656 91.96248131 -57.45316922 88.36170371 -57.46385765 84.76087189 C-57.47547882 80.73662678 -57.47075119 76.71255092 -57.4647522 72.68829346 C-57.4703717 71.52004028 -57.47599121 70.35178711 -57.48178101 69.14813232 C-57.40816044 49.56983556 -53.20550407 31.52284068 -39.47183228 16.89044189 C-28.81736791 6.89037841 -14.73189191 0.04030553 0 0 Z " fill="#07959A" transform="translate(59.221832275390625,-0.14044189453125)"/>
<path d="M0 0 C4.5159692 3.02166607 8.51066011 6.25273903 12.16796875 10.28515625 C12.9259375 11.09726563 13.68390625 11.909375 14.46484375 12.74609375 C21.16796875 20.01128203 21.16796875 20.01128203 21.16796875 22.28515625 C21.82796875 22.28515625 22.48796875 22.28515625 23.16796875 22.28515625 C23.41675781 21.7334375 23.66554688 21.18171875 23.921875 20.61328125 C30.90338786 7.56945158 43.22876981 -1.37282055 57.16796875 -5.71484375 C72.52787588 -8.48965215 85.49615799 -7.1886653 98.98046875 1.03515625 C108.72120086 8.04133421 115.00462688 17.76948188 118.16796875 29.28515625 C119.70843864 43.12048021 117.57814001 54.64774565 109.140625 65.93359375 C102.89933509 73.37370568 96.23621134 77.86967218 87.16796875 81.28515625 C86.28882813 81.65125 85.4096875 82.01734375 84.50390625 82.39453125 C73.39669101 85.35992361 58.25723022 84.98550155 48.16796875 79.28515625 C45.03852479 77.43616409 42.06883052 75.47448589 39.16796875 73.28515625 C38.37777344 72.71023437 37.58757812 72.1353125 36.7734375 71.54296875 C33.5115727 68.71634528 30.98594527 65.56678138 28.35546875 62.16015625 C27.85337891 61.52722656 27.35128906 60.89429688 26.83398438 60.2421875 C23.16796875 55.54370217 23.16796875 55.54370217 23.16796875 53.28515625 C22.50796875 53.28515625 21.84796875 53.28515625 21.16796875 53.28515625 C20.94109375 53.97867188 20.71421875 54.6721875 20.48046875 55.38671875 C15.28484373 66.86039067 4.18651598 75.93925747 -7.20703125 80.66015625 C-18.65263864 84.94759876 -34.23607922 85.62732555 -45.484375 80.546875 C-46.64646484 79.92232422 -46.64646484 79.92232422 -47.83203125 79.28515625 C-48.69957031 78.83785156 -49.56710938 78.39054687 -50.4609375 77.9296875 C-59.9641906 72.64695515 -65.88103125 65.9171017 -70.83203125 56.28515625 C-71.17492187 55.62257812 -71.5178125 54.96 -71.87109375 54.27734375 C-75.66257616 45.24156792 -75.30786532 32.47873605 -72.26953125 23.28515625 C-66.37428691 9.82503543 -57.0651287 1.25235668 -43.75 -4.5859375 C-29.53910021 -10.08386259 -12.76741602 -7.73089053 0 0 Z " fill="#FBFDFD" transform="translate(105.83203125,86.71484375)"/>
<path d="M0 0 C1.25309967 -0.00571014 2.50619934 -0.01142029 3.79727173 -0.01730347 C5.17843618 -0.01854868 6.55960074 -0.01967381 7.94076538 -0.02069092 C9.40147018 -0.0253225 10.86217377 -0.03034761 12.32287598 -0.03573608 C16.28600156 -0.04883193 20.24911022 -0.05529988 24.21225405 -0.05974674 C26.6920154 -0.06268285 29.17177218 -0.06678873 31.65153122 -0.07125092 C39.42083896 -0.08492027 47.1901362 -0.0945889 54.95945513 -0.09845281 C63.90760177 -0.10292817 72.85559524 -0.12045413 81.80369532 -0.1494534 C88.73300091 -0.17112506 95.66226359 -0.18116005 102.59160268 -0.18249393 C106.72398677 -0.18353831 110.85622678 -0.18936715 114.98857498 -0.20731354 C118.88087053 -0.22388871 122.77291517 -0.22590436 126.66523361 -0.21717453 C128.08612494 -0.2164091 129.50703028 -0.22068095 130.92788696 -0.23063278 C148.42627501 -0.3459087 163.91602883 4.66093452 176.71566772 16.8147583 C190.90941039 31.06153465 194.95003988 49.5876373 195.04922485 69.10369873 C195.04315216 70.84665222 195.04315216 70.84665222 195.03695679 72.62481689 C195.04221375 74.52535828 195.04221375 74.52535828 195.0475769 76.46429443 C195.05657956 79.89408825 195.05320761 83.32375975 195.04681873 86.7535553 C195.04169503 90.37177825 195.04646764 93.9899919 195.04959106 97.60821533 C195.05321239 103.68017423 195.04848012 109.7520842 195.03890991 115.82403564 C195.02802891 122.80753883 195.0315558 129.79092515 195.04256272 136.77442551 C195.05168823 142.80970625 195.05289533 148.84495216 195.04768538 154.88023758 C195.04459442 158.46760213 195.04407598 162.05491208 195.05075836 165.64227295 C195.05769932 169.64693938 195.0480338 173.65140973 195.03695679 177.65606689 C195.04302948 179.39902039 195.04302948 179.39902039 195.04922485 181.17718506 C194.94974321 200.75162023 190.94274573 218.97119702 176.96566772 233.45294189 C172.24005253 237.92157499 167.22512365 241.60908209 161.77816772 245.14044189 C160.91449585 245.74887939 160.05082397 246.35731689 159.16098022 246.98419189 C148.06958149 254.57135161 137.12072656 256.74592399 123.84066772 256.65802002 C122.50024664 256.66345771 121.15983156 256.67058949 119.81942749 256.67926025 C116.22011298 256.69730157 112.62126348 256.69050691 109.02194214 256.67774391 C105.22973508 256.66751539 101.43756408 256.67703661 97.64535522 256.68328857 C91.28070025 256.69053664 84.91623179 256.68105248 78.55160522 256.66192627 C71.22546436 256.64016289 63.899769 256.64721629 56.57363892 256.66923189 C50.24877143 256.68746749 43.92403693 256.68990464 37.59915161 256.67947721 C33.83680943 256.6732868 30.07467565 256.67228215 26.31234741 256.68562317 C22.77274035 256.69730097 19.23369962 256.68894265 15.69415283 256.66604614 C13.7990697 256.65835836 11.90393783 256.6700123 10.00888062 256.68255615 C-3.18496617 256.55429155 -13.57269684 252.8029926 -24.22183228 245.14044189 C-25.2350354 244.42372314 -26.24823853 243.70700439 -27.29214478 242.96856689 C-42.22923024 232.11203861 -52.39606622 219.55599374 -56.22183228 201.14044189 C-57.27158628 193.47004979 -57.37007409 185.84063003 -57.36709595 178.11016846 C-57.37213387 176.21050323 -57.37213387 176.21050323 -57.37727356 174.27246094 C-57.38603824 170.8259371 -57.38844848 167.37943815 -57.38908935 163.93290424 C-57.38980418 161.77152822 -57.39194664 159.61015836 -57.39458656 157.44878387 C-57.4038153 149.88538721 -57.40792459 142.32200807 -57.40713501 134.75860596 C-57.40653499 127.745656 -57.41707829 120.73278315 -57.43287867 113.71985269 C-57.44602096 107.66767402 -57.45131611 101.61552035 -57.4506796 95.56332755 C-57.45042656 91.96248131 -57.45316922 88.36170371 -57.46385765 84.76087189 C-57.47547882 80.73662678 -57.47075119 76.71255092 -57.4647522 72.68829346 C-57.4703717 71.52004028 -57.47599121 70.35178711 -57.48178101 69.14813232 C-57.40816044 49.56983556 -53.20550407 31.52284068 -39.47183228 16.89044189 C-28.81736791 6.89037841 -14.73189191 0.04030553 0 0 Z M-32.22183228 30.14044189 C-40.19819728 40.35578655 -45.32093329 52.6867877 -45.36227417 65.71652222 C-45.36798431 66.80126831 -45.37369446 67.8860144 -45.37957764 69.00363159 C-45.3806955 70.17880341 -45.38181335 71.35397522 -45.38296509 72.5647583 C-45.38792999 73.81432312 -45.3928949 75.06388794 -45.39801025 76.35131836 C-45.41008624 79.76903079 -45.4175688 83.18668228 -45.42202091 86.60440874 C-45.42496136 88.74497645 -45.42906802 90.88553892 -45.43352509 93.02610397 C-45.44718747 99.73875102 -45.45685949 106.45138595 -45.46072698 113.16404593 C-45.46520055 120.88399213 -45.48272104 128.60376065 -45.51172757 136.32365286 C-45.53342902 142.30947811 -45.5434358 148.29525368 -45.5447681 154.2811178 C-45.54581037 157.84734917 -45.55159334 161.41341325 -45.56958771 164.97960281 C-45.58931418 168.96642878 -45.58474595 172.95288868 -45.57827759 176.9397583 C-45.58749237 178.10278473 -45.59670715 179.26581116 -45.60620117 180.46408081 C-45.52629402 196.27095901 -40.51071327 211.64401044 -29.37808228 223.18341064 C-15.7893226 235.51668709 -1.30397021 239.45343241 16.65658569 239.4151001 C18.53180908 239.42276649 18.53180908 239.42276649 20.44491577 239.43058777 C23.84592837 239.44203899 27.24669582 239.44456821 30.64771032 239.44202447 C33.50024673 239.4409476 36.35276117 239.44585629 39.20529282 239.45062989 C45.94200384 239.46168906 52.67865908 239.46218283 59.41537476 239.45611572 C66.3352536 239.45007892 73.25492895 239.46238767 80.1747731 239.48368579 C86.14370344 239.50137286 92.11256943 239.507292 98.08152497 239.50404805 C101.63426962 239.50224629 105.18686909 239.50475935 108.73958969 239.51876259 C112.70679277 239.5338173 116.67374197 239.52430897 120.64096069 239.51275635 C122.37607407 239.52422195 122.37607407 239.52422195 124.14624023 239.53591919 C139.9271147 239.4349122 155.30894968 234.42052093 166.82113647 223.29278564 C178.94059643 209.96379874 183.09030634 194.99134296 183.05282593 177.37554932 C183.05793686 176.12554642 183.06304779 174.87554352 183.0683136 173.58766174 C183.079777 170.18245804 183.08229194 166.77749894 183.0797503 163.37229323 C183.07867441 160.51732167 183.08357979 157.66237211 183.08835572 154.80740529 C183.09942144 148.06447795 183.09990526 141.32160633 183.09384155 134.57867432 C183.08780728 127.65143189 183.10010553 120.72439286 183.12141162 113.79718512 C183.13909933 107.8240287 183.14501764 101.85093659 183.14177388 95.87775499 C183.13997186 92.32164204 183.14248768 88.76567412 183.15648842 85.20958519 C183.17154401 81.23748351 183.16203426 77.26563537 183.15048218 73.29351807 C183.15812592 72.13520477 183.16576965 70.97689148 183.17364502 69.78347778 C183.06907444 53.42429979 177.70998093 38.19653144 166.22738647 26.32403564 C152.82519078 14.37534762 137.52682461 10.83609231 120.03915405 10.84991455 C118.18578934 10.83983871 118.18578934 10.83983871 116.29498291 10.82955933 C112.93302888 10.81390783 109.57132207 10.80720964 106.20934892 10.80592775 C104.10022017 10.80449763 101.99111667 10.80021184 99.88199425 10.79493332 C92.49898024 10.77647583 85.11603802 10.7682571 77.73300171 10.76983643 C70.89151896 10.77103587 64.05035265 10.74996144 57.20894986 10.7183491 C51.3019661 10.69204415 45.39508477 10.68147507 39.48804301 10.68274724 C35.9748284 10.68325283 32.46189535 10.67779701 28.94874001 10.65639114 C5.29141433 10.52230293 -15.14358081 11.660898 -32.22183228 30.14044189 Z " fill="#181818" transform="translate(59.221832275390625,-0.14044189453125)"/>
<path d="M0 0 C9.55424776 5.63197763 18.40462003 14.18961416 23.2265625 24.3125 C23.16473553 29.03453475 20.41573407 32.43895017 17.7265625 36.125 C17.28094971 36.74157471 16.83533691 37.35814941 16.3762207 37.9934082 C11.20481578 44.95600557 4.53136887 52.47895937 -4.0703125 54.98046875 C-15.28204978 56.35763301 -25.61512398 56.62973649 -34.9453125 49.69921875 C-41.67929828 44.1571976 -46.07923046 38.07076474 -47.14453125 29.234375 C-47.3480007 19.51571645 -45.14900585 12.78376935 -38.6484375 5.5 C-28.23412182 -3.9107949 -12.7309928 -6.13131426 0 0 Z " fill="#049297" transform="translate(94.7734375,98.6875)"/>
<path d="M0 0 C5.84599229 4.24184339 9.83867283 10.1239193 12 17 C13.29347995 26.33801751 11.79873611 33.44800106 6.52734375 41.15234375 C1.60295378 47.40387428 -4.54730494 50.51576831 -12 53 C-14.76371005 53.1490798 -17.4856242 53.23109829 -20.25 53.25 C-20.98863281 53.270625 -21.72726563 53.29125 -22.48828125 53.3125 C-32.07610586 53.38013897 -39.0992663 48.80588079 -45.81640625 42.21875 C-58.04348508 28.87017177 -58.04348508 28.87017177 -57.97265625 22.56640625 C-56.67618197 19.14558857 -54.69198408 16.46116588 -52.4375 13.625 C-51.98713379 13.05209229 -51.53676758 12.47918457 -51.07275391 11.88891602 C-38.13950092 -4.2239331 -19.03851171 -11.31398735 0 0 Z " fill="#039196" transform="translate(196,101)"/>
<path d="M0 0 C3.3 0 6.6 0 10 0 C10 2.97 10 5.94 10 9 C12.64 9 15.28 9 18 9 C18 11.97 18 14.94 18 18 C15.36 18 12.72 18 10 18 C10 20.97 10 23.94 10 27 C6.7 27 3.4 27 0 27 C0 24.03 0 21.06 0 18 C-2.64 18 -5.28 18 -8 18 C-8 15.03 -8 12.06 -8 9 C-5.36 9 -2.72 9 0 9 C0 6.03 0 3.06 0 0 Z " fill="#EFF8F8" transform="translate(170,110)"/>
<path d="M0 0 C9.24 0 18.48 0 28 0 C28 2.97 28 5.94 28 9 C18.76 9 9.52 9 0 9 C0 6.03 0 3.06 0 0 Z " fill="#FBFDFD" transform="translate(66,119)"/>
<path d="M0 0 C2.64 0 5.28 0 8 0 C8 2.31 8 4.62 8 7 C11.3 7 14.6 7 18 7 C18 6.34 18 5.68 18 5 C20.64 5 23.28 5 26 5 C26 6.32 26 7.64 26 9 C23.36 9 20.72 9 18 9 C17.67 9.99 17.34 10.98 17 12 C14.03 12 11.06 12 8 12 C8 11.01 8 10.02 8 9 C5.36 9 2.72 9 0 9 C0 6.03 0 3.06 0 0 Z " fill="#00888C" transform="translate(162,130)"/>
<path d="M0 0 C8.91 0 17.82 0 27 0 C27 1.65 27 3.3 27 5 C17.76 5 8.52 5 -1 5 C-0.67 3.35 -0.34 1.7 0 0 Z " fill="#008A8F" transform="translate(67,129)"/>
<path d="M0 0 C9.24 0 18.48 0 28 0 C28 1.32 28 2.64 28 4 C18.76 4 9.52 4 0 4 C0 2.68 0 1.36 0 0 Z " fill="#00898E" transform="translate(66,135)"/>
</svg>
