<?xml version="1.0" encoding="UTF-8"?>
<svg version="1.1" xmlns="http://www.w3.org/2000/svg" width="512" height="512">
<path d="M0 0 C1.30388168 0.00187317 2.60776337 0.00374634 3.95115662 0.00567627 C6.68151708 0.01022915 9.41157429 0.02446902 12.1418457 0.046875 C15.63528697 0.07540797 19.12849394 0.0861177 22.62204075 0.0905571 C25.97722965 0.09570963 29.33233872 0.11023501 32.6875 0.125 C33.93849991 0.12924988 35.18949982 0.13349976 36.47840881 0.13787842 C38.21688332 0.15228973 38.21688332 0.15228973 39.99047852 0.16699219 C41.00827896 0.17382019 42.02607941 0.18064819 43.07472229 0.18768311 C45.46480216 0.31333667 47.45409966 0.68638159 49.74609375 1.328125 C51.28558704 1.41995442 52.8288723 1.45814852 54.37109375 1.453125 C55.14710938 1.45570312 55.923125 1.45828125 56.72265625 1.4609375 C59.24039539 1.35033914 61.67070357 1.11611908 64.17126465 0.82860184 C70.10970128 0.22846963 76.00228767 0.18298568 81.96679688 0.18768311 C83.16068275 0.18471198 84.35456863 0.18174086 85.58463287 0.1786797 C88.87200124 0.17154679 92.15933759 0.16882412 95.44671249 0.16808224 C99.00232264 0.16621944 102.55792173 0.15866639 106.11352539 0.15194702 C113.8736862 0.13841656 121.63384181 0.13234815 129.39401245 0.12793636 C134.24355172 0.12516673 139.09308902 0.12092825 143.94262695 0.11643219 C157.38358433 0.10424977 170.82454015 0.09394627 184.26550293 0.0905571 C185.12417859 0.09033753 185.98285424 0.09011797 186.86755037 0.08989175 C187.72819959 0.08967347 188.58884881 0.08945519 189.47557831 0.0892303 C191.21939596 0.08878684 192.9632136 0.08834028 194.70703125 0.08789062 C195.57201264 0.0876692 196.43699404 0.08744777 197.32818699 0.08721963 C211.35318197 0.08326903 225.37812508 0.06580244 239.40310001 0.0425311 C253.82016516 0.01880302 268.23720426 0.0063547 282.65428925 0.00518918 C290.74196708 0.0042736 298.82957719 -0.00144991 306.91723633 -0.01963043 C313.80077945 -0.03505062 320.68423387 -0.04014032 327.56779099 -0.03189233 C331.07692796 -0.02799351 334.58588637 -0.02887784 338.09500122 -0.04294968 C341.90528425 -0.05565378 345.71511067 -0.04980016 349.52539062 -0.03936768 C351.17570156 -0.05145228 351.17570156 -0.05145228 352.85935211 -0.06378102 C361.69492387 -0.00730093 369.59601698 1.60811135 377.24609375 6.203125 C378.468125 6.91082031 378.468125 6.91082031 379.71484375 7.6328125 C382.12657457 9.64568014 382.82144251 11.36321071 383.74609375 14.328125 C384.40609375 14.328125 385.06609375 14.328125 385.74609375 14.328125 C387.25390625 16.19140625 387.25390625 16.19140625 388.87109375 18.640625 C389.67933594 19.84138672 389.67933594 19.84138672 390.50390625 21.06640625 C391.74609375 23.328125 391.74609375 23.328125 391.74609375 26.328125 C392.40609375 26.328125 393.06609375 26.328125 393.74609375 26.328125 C394.49015486 30.98009516 394.8730337 35.44099234 394.88031483 40.15021706 C394.88266706 40.80273471 394.88501929 41.45525236 394.8874428 42.12754327 C394.89407839 44.30523024 394.89367624 46.4828568 394.89326477 48.66055298 C394.89656677 50.24125361 394.90029305 51.82195341 394.90440625 53.40265214 C394.91439577 57.73994435 394.91813811 62.07722272 394.92079556 66.41452479 C394.92470757 71.09500001 394.93428513 75.77546436 394.94300842 80.45593262 C394.96274537 91.75461852 394.97283457 103.05330528 394.98173621 114.35200411 C394.9861228 119.67598851 394.99148857 124.99997192 394.99672508 130.32395554 C395.01373299 148.02651322 395.02822728 165.7290703 395.03547382 183.4316349 C395.03738363 188.02261989 395.03930398 192.61360487 395.04125977 197.20458984 C395.04174351 198.34561737 395.04222725 199.4866449 395.04272565 200.66224901 C395.05102652 219.14731829 395.07636637 237.63232286 395.10884044 256.11736389 C395.14192544 275.10524793 395.1599238 294.09309911 395.16311806 313.08101213 C395.16528159 323.73816784 395.17400754 334.39522914 395.19957924 345.05235672 C395.22130571 354.12773568 395.22932697 363.20299728 395.21961246 372.2783993 C395.21507371 376.90585913 395.21692931 381.5330769 395.2363739 386.16050339 C395.25404841 390.40344502 395.25297333 394.64596877 395.23747661 398.88891511 C395.23510706 400.41719596 395.23938998 401.94550608 395.25130526 403.47374232 C395.32122913 413.04088725 394.14023834 421.31534581 390.74609375 430.328125 C390.08609375 430.328125 389.42609375 430.328125 388.74609375 430.328125 C388.40578125 431.1015625 388.40578125 431.1015625 388.05859375 431.890625 C384.61022668 438.29473527 381.44014385 442.22902773 374.74609375 445.328125 C373.75609375 445.328125 372.76609375 445.328125 371.74609375 445.328125 C371.74609375 445.988125 371.74609375 446.648125 371.74609375 447.328125 C362.26863543 449.78696079 353.45650168 450.75849874 343.67724609 450.609375 C341.61537411 450.57803807 339.55427526 450.56835959 337.4921875 450.5625 C331.68195588 450.52319471 325.95688777 450.36414179 320.16943359 449.83740234 C313.21205697 449.2349277 306.27339189 449.08284902 299.29296875 448.9765625 C297.84865285 448.95278273 296.40433727 448.92898342 294.96002197 448.90516663 C290.13882606 448.82866619 285.31749231 448.76530066 280.49609375 448.703125 C279.65117371 448.6917815 278.80625366 448.680438 277.93572998 448.66875076 C239.69042258 448.15837703 201.45776879 448.49328882 163.21273994 448.8823204 C156.80980584 448.94735847 150.40686127 449.01127511 144.00390625 449.07421875 C142.74074963 449.08667633 141.477593 449.09913391 140.17615891 449.11196899 C121.75907072 449.29019787 103.34372092 449.37402104 84.92578125 449.36328125 C83.79225471 449.36265623 82.65872818 449.36203121 81.49085236 449.36138725 C70.76205479 449.35381415 60.03332406 449.33399233 49.30457878 449.29978848 C45.46731993 449.28823951 41.63005801 449.28018263 37.79278946 449.27262688 C35.19482493 449.26583808 32.59693304 449.25328376 29.99899292 449.2403717 C28.44447899 449.23678391 26.8899644 449.23346577 25.33544922 449.23046875 C24.64757828 449.22530463 23.95970734 449.22014051 23.25099182 449.21481991 C19.30579688 449.21437337 15.6207006 449.60817431 11.74609375 450.328125 C7.35208688 450.56530865 2.95841273 450.55902649 -1.44140625 450.578125 C-3.19420898 450.6090625 -3.19420898 450.6090625 -4.98242188 450.640625 C-12.54736406 450.67437823 -19.07977587 449.74655563 -26.25390625 447.328125 C-26.25390625 446.668125 -26.25390625 446.008125 -26.25390625 445.328125 C-26.98738281 445.21597656 -27.72085938 445.10382813 -28.4765625 444.98828125 C-36.56781711 443.06504351 -41.88656957 437.04380009 -46.25390625 430.328125 C-47.24390625 428.843125 -47.24390625 428.843125 -48.25390625 427.328125 C-48.25390625 426.338125 -48.25390625 425.348125 -48.25390625 424.328125 C-48.91390625 424.328125 -49.57390625 424.328125 -50.25390625 424.328125 C-51.56634251 418.34267897 -51.38660798 412.38792778 -51.36743164 406.2948761 C-51.3675805 405.07208283 -51.36772936 403.84928956 -51.36788273 402.58944196 C-51.36730875 399.20115261 -51.36224904 395.81292356 -51.35531282 392.42464483 C-51.34892958 388.76525596 -51.34836863 385.10586574 -51.34713745 381.44647217 C-51.34424929 375.09678398 -51.33780495 368.74710741 -51.32907104 362.3974247 C-51.31646581 353.1613624 -51.31042687 343.92530436 -51.30613768 334.68923488 C-51.29906295 319.63030361 -51.28826706 304.57137767 -51.27441406 289.51245117 C-51.27358625 288.61110328 -51.27275844 287.70975538 -51.27190554 286.78109392 C-51.26434899 278.58998367 -51.2565508 270.39887365 -51.248703 262.20776367 C-51.24353572 256.80867519 -51.23843326 251.40958665 -51.23339844 246.01049805 C-51.23257031 245.12390231 -51.23174218 244.23730657 -51.23088896 243.32384429 C-51.2170521 228.37447563 -51.20737065 213.42510689 -51.20048809 198.47573346 C-51.19646506 190.11452086 -51.19033286 181.75332045 -51.17874146 173.39211464 C-51.13695664 142.82712017 -51.11275265 112.26859043 -51.6953125 81.70776367 C-51.71484419 80.63339511 -51.73437588 79.55902654 -51.75449944 78.45210135 C-51.81048227 75.48180235 -51.87338927 72.5117563 -51.93969727 69.54167175 C-51.95621653 68.68577733 -51.97273579 67.82988291 -51.98975563 66.94805229 C-52.09707472 62.64501303 -52.43657628 58.56836886 -53.25390625 54.328125 C-54.50840514 41.10763669 -52.21506298 27.48642308 -44.38671875 16.7109375 C-42.19310983 14.26020226 -39.83808053 12.35166486 -37.25390625 10.328125 C-36.92390625 9.668125 -36.59390625 9.008125 -36.25390625 8.328125 C-35.26390625 8.328125 -34.27390625 8.328125 -33.25390625 8.328125 C-33.25390625 7.668125 -33.25390625 7.008125 -33.25390625 6.328125 C-31.27390625 5.998125 -29.29390625 5.668125 -27.25390625 5.328125 C-27.25390625 4.668125 -27.25390625 4.008125 -27.25390625 3.328125 C-18.03623369 0.79133928 -9.53847864 -0.09553167 0 0 Z " fill="#00CAFD" transform="translate(84.25390625,30.671875)"/>
<path d="M0 0 C1.30388168 0.00187317 2.60776337 0.00374634 3.95115662 0.00567627 C6.68151708 0.01022915 9.41157429 0.02446902 12.1418457 0.046875 C15.63528697 0.07540797 19.12849394 0.0861177 22.62204075 0.0905571 C25.97722965 0.09570963 29.33233872 0.11023501 32.6875 0.125 C33.93849991 0.12924988 35.18949982 0.13349976 36.47840881 0.13787842 C38.21688332 0.15228973 38.21688332 0.15228973 39.99047852 0.16699219 C41.00827896 0.17382019 42.02607941 0.18064819 43.07472229 0.18768311 C45.46480216 0.31333667 47.45409966 0.68638159 49.74609375 1.328125 C51.28558704 1.41995442 52.8288723 1.45814852 54.37109375 1.453125 C55.14710938 1.45570312 55.923125 1.45828125 56.72265625 1.4609375 C59.24039539 1.35033914 61.67070357 1.11611908 64.17126465 0.82860184 C70.10970128 0.22846963 76.00228767 0.18298568 81.96679688 0.18768311 C83.16068275 0.18471198 84.35456863 0.18174086 85.58463287 0.1786797 C88.87200124 0.17154679 92.15933759 0.16882412 95.44671249 0.16808224 C99.00232264 0.16621944 102.55792173 0.15866639 106.11352539 0.15194702 C113.8736862 0.13841656 121.63384181 0.13234815 129.39401245 0.12793636 C134.24355172 0.12516673 139.09308902 0.12092825 143.94262695 0.11643219 C157.38358433 0.10424977 170.82454015 0.09394627 184.26550293 0.0905571 C185.12417859 0.09033753 185.98285424 0.09011797 186.86755037 0.08989175 C187.72819959 0.08967347 188.58884881 0.08945519 189.47557831 0.0892303 C191.21939596 0.08878684 192.9632136 0.08834028 194.70703125 0.08789062 C195.57201264 0.0876692 196.43699404 0.08744777 197.32818699 0.08721963 C211.35318197 0.08326903 225.37812508 0.06580244 239.40310001 0.0425311 C253.82016516 0.01880302 268.23720426 0.0063547 282.65428925 0.00518918 C290.74196708 0.0042736 298.82957719 -0.00144991 306.91723633 -0.01963043 C313.80077945 -0.03505062 320.68423387 -0.04014032 327.56779099 -0.03189233 C331.07692796 -0.02799351 334.58588637 -0.02887784 338.09500122 -0.04294968 C341.90528425 -0.05565378 345.71511067 -0.04980016 349.52539062 -0.03936768 C351.17570156 -0.05145228 351.17570156 -0.05145228 352.85935211 -0.06378102 C361.69492387 -0.00730093 369.59601698 1.60811135 377.24609375 6.203125 C378.468125 6.91082031 378.468125 6.91082031 379.71484375 7.6328125 C382.12657457 9.64568014 382.82144251 11.36321071 383.74609375 14.328125 C384.40609375 14.328125 385.06609375 14.328125 385.74609375 14.328125 C387.25390625 16.19140625 387.25390625 16.19140625 388.87109375 18.640625 C389.67933594 19.84138672 389.67933594 19.84138672 390.50390625 21.06640625 C391.74609375 23.328125 391.74609375 23.328125 391.74609375 26.328125 C392.40609375 26.328125 393.06609375 26.328125 393.74609375 26.328125 C394.49015486 30.98009516 394.8730337 35.44099234 394.88031483 40.15021706 C394.88266706 40.80273471 394.88501929 41.45525236 394.8874428 42.12754327 C394.89407839 44.30523024 394.89367624 46.4828568 394.89326477 48.66055298 C394.89656677 50.24125361 394.90029305 51.82195341 394.90440625 53.40265214 C394.91439577 57.73994435 394.91813811 62.07722272 394.92079556 66.41452479 C394.92470757 71.09500001 394.93428513 75.77546436 394.94300842 80.45593262 C394.96274537 91.75461852 394.97283457 103.05330528 394.98173621 114.35200411 C394.9861228 119.67598851 394.99148857 124.99997192 394.99672508 130.32395554 C395.01373299 148.02651322 395.02822728 165.7290703 395.03547382 183.4316349 C395.03738363 188.02261989 395.03930398 192.61360487 395.04125977 197.20458984 C395.04174351 198.34561737 395.04222725 199.4866449 395.04272565 200.66224901 C395.05102652 219.14731829 395.07636637 237.63232286 395.10884044 256.11736389 C395.14192544 275.10524793 395.1599238 294.09309911 395.16311806 313.08101213 C395.16528159 323.73816784 395.17400754 334.39522914 395.19957924 345.05235672 C395.22130571 354.12773568 395.22932697 363.20299728 395.21961246 372.2783993 C395.21507371 376.90585913 395.21692931 381.5330769 395.2363739 386.16050339 C395.25404841 390.40344502 395.25297333 394.64596877 395.23747661 398.88891511 C395.23510706 400.41719596 395.23938998 401.94550608 395.25130526 403.47374232 C395.32122913 413.04088725 394.14023834 421.31534581 390.74609375 430.328125 C390.08609375 430.328125 389.42609375 430.328125 388.74609375 430.328125 C388.40578125 431.1015625 388.40578125 431.1015625 388.05859375 431.890625 C384.61022668 438.29473527 381.44014385 442.22902773 374.74609375 445.328125 C373.75609375 445.328125 372.76609375 445.328125 371.74609375 445.328125 C371.74609375 445.988125 371.74609375 446.648125 371.74609375 447.328125 C362.26863543 449.78696079 353.45650168 450.75849874 343.67724609 450.609375 C341.61537411 450.57803807 339.55427526 450.56835959 337.4921875 450.5625 C331.68195588 450.52319471 325.95688777 450.36414179 320.16943359 449.83740234 C313.21205697 449.2349277 306.27339189 449.08284902 299.29296875 448.9765625 C297.84865285 448.95278273 296.40433727 448.92898342 294.96002197 448.90516663 C290.13882606 448.82866619 285.31749231 448.76530066 280.49609375 448.703125 C279.65117371 448.6917815 278.80625366 448.680438 277.93572998 448.66875076 C239.69042258 448.15837703 201.45776879 448.49328882 163.21273994 448.8823204 C156.80980584 448.94735847 150.40686127 449.01127511 144.00390625 449.07421875 C142.74074963 449.08667633 141.477593 449.09913391 140.17615891 449.11196899 C121.75907072 449.29019787 103.34372092 449.37402104 84.92578125 449.36328125 C83.79225471 449.36265623 82.65872818 449.36203121 81.49085236 449.36138725 C70.76205479 449.35381415 60.03332406 449.33399233 49.30457878 449.29978848 C45.46731993 449.28823951 41.63005801 449.28018263 37.79278946 449.27262688 C35.19482493 449.26583808 32.59693304 449.25328376 29.99899292 449.2403717 C28.44447899 449.23678391 26.8899644 449.23346577 25.33544922 449.23046875 C24.64757828 449.22530463 23.95970734 449.22014051 23.25099182 449.21481991 C19.30579688 449.21437337 15.6207006 449.60817431 11.74609375 450.328125 C7.35208688 450.56530865 2.95841273 450.55902649 -1.44140625 450.578125 C-3.19420898 450.6090625 -3.19420898 450.6090625 -4.98242188 450.640625 C-12.54736406 450.67437823 -19.07977587 449.74655563 -26.25390625 447.328125 C-26.25390625 446.668125 -26.25390625 446.008125 -26.25390625 445.328125 C-26.98738281 445.21597656 -27.72085938 445.10382813 -28.4765625 444.98828125 C-36.56781711 443.06504351 -41.88656957 437.04380009 -46.25390625 430.328125 C-47.24390625 428.843125 -47.24390625 428.843125 -48.25390625 427.328125 C-48.25390625 426.338125 -48.25390625 425.348125 -48.25390625 424.328125 C-48.91390625 424.328125 -49.57390625 424.328125 -50.25390625 424.328125 C-51.56634251 418.34267897 -51.38660798 412.38792778 -51.36743164 406.2948761 C-51.3675805 405.07208283 -51.36772936 403.84928956 -51.36788273 402.58944196 C-51.36730875 399.20115261 -51.36224904 395.81292356 -51.35531282 392.42464483 C-51.34892958 388.76525596 -51.34836863 385.10586574 -51.34713745 381.44647217 C-51.34424929 375.09678398 -51.33780495 368.74710741 -51.32907104 362.3974247 C-51.31646581 353.1613624 -51.31042687 343.92530436 -51.30613768 334.68923488 C-51.29906295 319.63030361 -51.28826706 304.57137767 -51.27441406 289.51245117 C-51.27358625 288.61110328 -51.27275844 287.70975538 -51.27190554 286.78109392 C-51.26434899 278.58998367 -51.2565508 270.39887365 -51.248703 262.20776367 C-51.24353572 256.80867519 -51.23843326 251.40958665 -51.23339844 246.01049805 C-51.23257031 245.12390231 -51.23174218 244.23730657 -51.23088896 243.32384429 C-51.2170521 228.37447563 -51.20737065 213.42510689 -51.20048809 198.47573346 C-51.19646506 190.11452086 -51.19033286 181.75332045 -51.17874146 173.39211464 C-51.13695664 142.82712017 -51.11275265 112.26859043 -51.6953125 81.70776367 C-51.71484419 80.63339511 -51.73437588 79.55902654 -51.75449944 78.45210135 C-51.81048227 75.48180235 -51.87338927 72.5117563 -51.93969727 69.54167175 C-51.95621653 68.68577733 -51.97273579 67.82988291 -51.98975563 66.94805229 C-52.09707472 62.64501303 -52.43657628 58.56836886 -53.25390625 54.328125 C-54.50840514 41.10763669 -52.21506298 27.48642308 -44.38671875 16.7109375 C-42.19310983 14.26020226 -39.83808053 12.35166486 -37.25390625 10.328125 C-36.92390625 9.668125 -36.59390625 9.008125 -36.25390625 8.328125 C-35.26390625 8.328125 -34.27390625 8.328125 -33.25390625 8.328125 C-33.25390625 7.668125 -33.25390625 7.008125 -33.25390625 6.328125 C-31.27390625 5.998125 -29.29390625 5.668125 -27.25390625 5.328125 C-27.25390625 4.668125 -27.25390625 4.008125 -27.25390625 3.328125 C-18.03623369 0.79133928 -9.53847864 -0.09553167 0 0 Z M-21.56640625 35.953125 C-24.23773231 39.71276909 -24.38077747 41.73358381 -24.38812733 46.33588791 C-24.39258517 47.62502618 -24.39704301 48.91416444 -24.40163594 50.24236751 C-24.40154664 51.68654173 -24.40135677 53.13071594 -24.40107727 54.57489014 C-24.40437484 56.09851718 -24.40810018 57.62214336 -24.41221875 59.1457684 C-24.42225908 63.34824965 -24.4259588 67.55071661 -24.42860806 71.75320816 C-24.43250509 76.27958028 -24.44208383 80.80594103 -24.45082092 85.33230591 C-24.47060227 96.27115593 -24.48065362 107.21000691 -24.48954871 118.14887035 C-24.49392884 123.29644448 -24.49929636 128.44401757 -24.50453758 133.59159088 C-24.52155146 150.69690614 -24.53604653 167.80222076 -24.54328632 184.90754318 C-24.54519631 189.34851838 -24.54711663 193.78949357 -24.54907227 198.23046875 C-24.54955601 199.33429135 -24.55003975 200.43811395 -24.55053815 201.57538572 C-24.55884177 219.46411587 -24.5841836 237.35277923 -24.61665294 255.2414802 C-24.6496956 273.59523525 -24.66773255 291.94895633 -24.67093056 310.30274129 C-24.67309824 320.61266422 -24.68188455 330.92248973 -24.70739174 341.23238373 C-24.7290606 350.0112769 -24.737168 358.790049 -24.72742496 367.56896588 C-24.72286917 372.04970733 -24.72484044 376.53019879 -24.7441864 381.01090622 C-24.76173997 385.11182076 -24.76088433 389.21230152 -24.74528911 393.31322017 C-24.7429011 394.79778477 -24.74729809 396.28237878 -24.75911776 397.76689824 C-24.77418125 399.78354463 -24.76220662 401.80033885 -24.74889088 403.81699753 C-24.74986769 404.93760724 -24.75084449 406.05821695 -24.7518509 407.21278453 C-23.9486235 412.23809573 -21.38012454 415.33598032 -17.62890625 418.640625 C-13.86926216 421.31195106 -11.84844744 421.45499622 -7.24614334 421.46234608 C-5.95700507 421.46680392 -4.66786681 421.47126176 -3.33966374 421.47585469 C-1.89548952 421.47576539 -0.45131531 421.47557552 0.99285889 421.47529602 C2.51648593 421.47859359 4.04011211 421.48231893 5.56373715 421.4864375 C9.7662184 421.49647783 13.96868536 421.50017755 18.17117691 421.50282681 C22.69754903 421.50672384 27.22390978 421.51630258 31.75027466 421.52503967 C42.68912468 421.54482102 53.62797566 421.55487237 64.5668391 421.56376746 C69.71441323 421.56814759 74.86198632 421.57351511 80.00955963 421.57875633 C97.11487489 421.59577021 114.22018951 421.61026528 131.32551193 421.61750507 C135.76648713 421.61941506 140.20746232 421.62133538 144.6484375 421.62329102 C146.3041714 421.62401663 146.3041714 421.62401663 147.99335447 421.6247569 C165.88208462 421.63306052 183.77074798 421.65840235 201.65944895 421.69087169 C220.013204 421.72391435 238.36692508 421.7419513 256.72071004 421.74514931 C267.03063297 421.74731699 277.34045848 421.7561033 287.65035248 421.78161049 C296.42924565 421.80327935 305.20801775 421.81138675 313.98693463 421.80164371 C318.46767608 421.79708792 322.94816754 421.79905919 327.42887497 421.81840515 C331.52978951 421.83595872 335.63027027 421.83510308 339.73118892 421.81950786 C341.21575352 421.81711985 342.70034753 421.82151684 344.18486699 421.83333651 C346.20151338 421.8484 348.2183076 421.83642537 350.23496628 421.82310963 C351.91588084 421.82457484 351.91588084 421.82457484 353.63075328 421.82606965 C358.65606448 421.02284225 361.75394907 418.45434329 365.05859375 414.703125 C367.72991981 410.94348091 367.87296497 408.92266619 367.88031483 404.32036209 C367.88700159 402.38665469 367.88700159 402.38665469 367.89382344 400.41388249 C367.89373414 398.96970827 367.89354427 397.52553406 367.89326477 396.08135986 C367.89656234 394.55773282 367.90028768 393.03410664 367.90440625 391.5104816 C367.91444658 387.30800035 367.9181463 383.10553339 367.92079556 378.90304184 C367.92469259 374.37666972 367.93427133 369.85030897 367.94300842 365.32394409 C367.96278977 354.38509407 367.97284112 343.44624309 367.98173621 332.50737965 C367.98611634 327.35980552 367.99148386 322.21223243 367.99672508 317.06465912 C368.01373896 299.95934386 368.02823403 282.85402924 368.03547382 265.74870682 C368.03738381 261.30773162 368.03930413 256.86675643 368.04125977 252.42578125 C368.04174351 251.32195865 368.04222725 250.21813605 368.04272565 249.08086428 C368.05102927 231.19213413 368.0763711 213.30347077 368.10884044 195.4147698 C368.1418831 177.06101475 368.15992005 158.70729367 368.16311806 140.35350871 C368.16528574 130.04358578 368.17407205 119.73376027 368.19957924 109.42386627 C368.2212481 100.6449731 368.2293555 91.866201 368.21961246 83.08728412 C368.21505667 78.60654267 368.21702794 74.12605121 368.2363739 69.64534378 C368.25392747 65.54442924 368.25307183 61.44394848 368.23747661 57.34302983 C368.2350886 55.85846523 368.23948559 54.37387122 368.25130526 52.88935176 C368.26636875 50.87270537 368.25439412 48.85591115 368.24107838 46.83925247 C368.24254359 45.15833791 368.24254359 45.15833791 368.2440384 43.44346547 C367.440811 38.41815427 364.87231204 35.32026968 361.12109375 32.015625 C357.36144966 29.34429894 355.34063494 29.20125378 350.73833084 29.19390392 C349.44919257 29.18944608 348.16005431 29.18498824 346.83185124 29.18039531 C345.38767702 29.18048461 343.94350281 29.18067448 342.49932861 29.18095398 C340.97570157 29.17765641 339.45207539 29.17393107 337.92845035 29.1698125 C333.7259691 29.15977217 329.52350214 29.15607245 325.32101059 29.15342319 C320.79463847 29.14952616 316.26827772 29.13994742 311.74191284 29.13121033 C300.80306282 29.11142898 289.86421184 29.10137763 278.9253484 29.09248254 C273.77777427 29.08810241 268.63020118 29.08273489 263.48262787 29.07749367 C246.37731261 29.06047979 229.27199799 29.04598472 212.16667557 29.03874493 C207.72570037 29.03683494 203.28472518 29.03491462 198.84375 29.03295898 C197.7399274 29.03247524 196.6361048 29.0319915 195.49883303 29.0314931 C177.61010288 29.02318948 159.72143952 28.99784765 141.83273855 28.96537831 C123.4789835 28.93233565 105.12526242 28.9142987 86.77147746 28.91110069 C76.46155453 28.90893301 66.15172902 28.9001467 55.84183502 28.87463951 C47.06294185 28.85297065 38.28416975 28.84486325 29.50525287 28.85460629 C25.02451142 28.85916208 20.54401996 28.85719081 16.06331253 28.83784485 C11.96239799 28.82029128 7.86191723 28.82114692 3.76099858 28.83674214 C2.27643398 28.83913015 0.79183997 28.83473316 -0.69267949 28.82291349 C-2.70932588 28.80785 -4.7261201 28.81982463 -6.74277878 28.83314037 C-8.42369334 28.83167516 -8.42369334 28.83167516 -10.13856578 28.83018035 C-15.16387698 29.63340775 -18.26176157 32.20190671 -21.56640625 35.953125 Z " fill="#646464" transform="translate(84.25390625,30.671875)"/>
<path d="M0 0 C1.30388168 0.00187317 2.60776337 0.00374634 3.95115662 0.00567627 C6.68151708 0.01022915 9.41157429 0.02446902 12.1418457 0.046875 C15.63528697 0.07540797 19.12849394 0.0861177 22.62204075 0.0905571 C25.97722965 0.09570963 29.33233872 0.11023501 32.6875 0.125 C33.93849991 0.12924988 35.18949982 0.13349976 36.47840881 0.13787842 C38.21688332 0.15228973 38.21688332 0.15228973 39.99047852 0.16699219 C41.00827896 0.17382019 42.02607941 0.18064819 43.07472229 0.18768311 C45.46480216 0.31333667 47.45409966 0.68638159 49.74609375 1.328125 C51.28558704 1.41995442 52.8288723 1.45814852 54.37109375 1.453125 C55.14710938 1.45570312 55.923125 1.45828125 56.72265625 1.4609375 C59.24039539 1.35033914 61.67070357 1.11611908 64.17126465 0.82860184 C70.10970128 0.22846963 76.00228767 0.18298568 81.96679688 0.18768311 C83.16068275 0.18471198 84.35456863 0.18174086 85.58463287 0.1786797 C88.87200124 0.17154679 92.15933759 0.16882412 95.44671249 0.16808224 C99.00232264 0.16621944 102.55792173 0.15866639 106.11352539 0.15194702 C113.8736862 0.13841656 121.63384181 0.13234815 129.39401245 0.12793636 C134.24355172 0.12516673 139.09308902 0.12092825 143.94262695 0.11643219 C157.38358433 0.10424977 170.82454015 0.09394627 184.26550293 0.0905571 C185.12417859 0.09033753 185.98285424 0.09011797 186.86755037 0.08989175 C187.72819959 0.08967347 188.58884881 0.08945519 189.47557831 0.0892303 C191.21939596 0.08878684 192.9632136 0.08834028 194.70703125 0.08789062 C195.57201264 0.0876692 196.43699404 0.08744777 197.32818699 0.08721963 C211.35318197 0.08326903 225.37812508 0.06580244 239.40310001 0.0425311 C253.82016516 0.01880302 268.23720426 0.0063547 282.65428925 0.00518918 C290.74196708 0.0042736 298.82957719 -0.00144991 306.91723633 -0.01963043 C313.80077945 -0.03505062 320.68423387 -0.04014032 327.56779099 -0.03189233 C331.07692796 -0.02799351 334.58588637 -0.02887784 338.09500122 -0.04294968 C341.90528425 -0.05565378 345.71511067 -0.04980016 349.52539062 -0.03936768 C351.17570156 -0.05145228 351.17570156 -0.05145228 352.85935211 -0.06378102 C361.69492387 -0.00730093 369.59601698 1.60811135 377.24609375 6.203125 C378.468125 6.91082031 378.468125 6.91082031 379.71484375 7.6328125 C382.12657457 9.64568014 382.82144251 11.36321071 383.74609375 14.328125 C384.40609375 14.328125 385.06609375 14.328125 385.74609375 14.328125 C387.25390625 16.19140625 387.25390625 16.19140625 388.87109375 18.640625 C389.67933594 19.84138672 389.67933594 19.84138672 390.50390625 21.06640625 C391.74609375 23.328125 391.74609375 23.328125 391.74609375 26.328125 C392.40609375 26.328125 393.06609375 26.328125 393.74609375 26.328125 C394.49015486 30.98009516 394.8730337 35.44099234 394.88031483 40.15021706 C394.88266706 40.80273471 394.88501929 41.45525236 394.8874428 42.12754327 C394.89407839 44.30523024 394.89367624 46.4828568 394.89326477 48.66055298 C394.89656677 50.24125361 394.90029305 51.82195341 394.90440625 53.40265214 C394.91439577 57.73994435 394.91813811 62.07722272 394.92079556 66.41452479 C394.92470757 71.09500001 394.93428513 75.77546436 394.94300842 80.45593262 C394.96274537 91.75461852 394.97283457 103.05330528 394.98173621 114.35200411 C394.9861228 119.67598851 394.99148857 124.99997192 394.99672508 130.32395554 C395.01373299 148.02651322 395.02822728 165.7290703 395.03547382 183.4316349 C395.03738363 188.02261989 395.03930398 192.61360487 395.04125977 197.20458984 C395.04174351 198.34561737 395.04222725 199.4866449 395.04272565 200.66224901 C395.05102652 219.14731829 395.07636637 237.63232286 395.10884044 256.11736389 C395.14192544 275.10524793 395.1599238 294.09309911 395.16311806 313.08101213 C395.16528159 323.73816784 395.17400754 334.39522914 395.19957924 345.05235672 C395.22130571 354.12773568 395.22932697 363.20299728 395.21961246 372.2783993 C395.21507371 376.90585913 395.21692931 381.5330769 395.2363739 386.16050339 C395.25404841 390.40344502 395.25297333 394.64596877 395.23747661 398.88891511 C395.23510706 400.41719596 395.23938998 401.94550608 395.25130526 403.47374232 C395.32122913 413.04088725 394.14023834 421.31534581 390.74609375 430.328125 C390.08609375 430.328125 389.42609375 430.328125 388.74609375 430.328125 C388.40578125 431.1015625 388.40578125 431.1015625 388.05859375 431.890625 C384.61022668 438.29473527 381.44014385 442.22902773 374.74609375 445.328125 C373.75609375 445.328125 372.76609375 445.328125 371.74609375 445.328125 C371.74609375 445.988125 371.74609375 446.648125 371.74609375 447.328125 C362.26863543 449.78696079 353.45650168 450.75849874 343.67724609 450.609375 C341.61537411 450.57803807 339.55427526 450.56835959 337.4921875 450.5625 C331.68195588 450.52319471 325.95688777 450.36414179 320.16943359 449.83740234 C313.21205697 449.2349277 306.27339189 449.08284902 299.29296875 448.9765625 C297.84865285 448.95278273 296.40433727 448.92898342 294.96002197 448.90516663 C290.13882606 448.82866619 285.31749231 448.76530066 280.49609375 448.703125 C279.65117371 448.6917815 278.80625366 448.680438 277.93572998 448.66875076 C239.69042258 448.15837703 201.45776879 448.49328882 163.21273994 448.8823204 C156.80980584 448.94735847 150.40686127 449.01127511 144.00390625 449.07421875 C142.74074963 449.08667633 141.477593 449.09913391 140.17615891 449.11196899 C121.75907072 449.29019787 103.34372092 449.37402104 84.92578125 449.36328125 C83.79225471 449.36265623 82.65872818 449.36203121 81.49085236 449.36138725 C70.76205479 449.35381415 60.03332406 449.33399233 49.30457878 449.29978848 C45.46731993 449.28823951 41.63005801 449.28018263 37.79278946 449.27262688 C35.19482493 449.26583808 32.59693304 449.25328376 29.99899292 449.2403717 C28.44447899 449.23678391 26.8899644 449.23346577 25.33544922 449.23046875 C24.64757828 449.22530463 23.95970734 449.22014051 23.25099182 449.21481991 C19.30579688 449.21437337 15.6207006 449.60817431 11.74609375 450.328125 C7.35208688 450.56530865 2.95841273 450.55902649 -1.44140625 450.578125 C-3.19420898 450.6090625 -3.19420898 450.6090625 -4.98242188 450.640625 C-12.54736406 450.67437823 -19.07977587 449.74655563 -26.25390625 447.328125 C-26.25390625 446.668125 -26.25390625 446.008125 -26.25390625 445.328125 C-26.98738281 445.21597656 -27.72085938 445.10382813 -28.4765625 444.98828125 C-36.56781711 443.06504351 -41.88656957 437.04380009 -46.25390625 430.328125 C-47.24390625 428.843125 -47.24390625 428.843125 -48.25390625 427.328125 C-48.25390625 426.338125 -48.25390625 425.348125 -48.25390625 424.328125 C-48.91390625 424.328125 -49.57390625 424.328125 -50.25390625 424.328125 C-51.56634251 418.34267897 -51.38660798 412.38792778 -51.36743164 406.2948761 C-51.3675805 405.07208283 -51.36772936 403.84928956 -51.36788273 402.58944196 C-51.36730875 399.20115261 -51.36224904 395.81292356 -51.35531282 392.42464483 C-51.34892958 388.76525596 -51.34836863 385.10586574 -51.34713745 381.44647217 C-51.34424929 375.09678398 -51.33780495 368.74710741 -51.32907104 362.3974247 C-51.31646581 353.1613624 -51.31042687 343.92530436 -51.30613768 334.68923488 C-51.29906295 319.63030361 -51.28826706 304.57137767 -51.27441406 289.51245117 C-51.27358625 288.61110328 -51.27275844 287.70975538 -51.27190554 286.78109392 C-51.26434899 278.58998367 -51.2565508 270.39887365 -51.248703 262.20776367 C-51.24353572 256.80867519 -51.23843326 251.40958665 -51.23339844 246.01049805 C-51.23257031 245.12390231 -51.23174218 244.23730657 -51.23088896 243.32384429 C-51.2170521 228.37447563 -51.20737065 213.42510689 -51.20048809 198.47573346 C-51.19646506 190.11452086 -51.19033286 181.75332045 -51.17874146 173.39211464 C-51.13695664 142.82712017 -51.11275265 112.26859043 -51.6953125 81.70776367 C-51.71484419 80.63339511 -51.73437588 79.55902654 -51.75449944 78.45210135 C-51.81048227 75.48180235 -51.87338927 72.5117563 -51.93969727 69.54167175 C-51.95621653 68.68577733 -51.97273579 67.82988291 -51.98975563 66.94805229 C-52.09707472 62.64501303 -52.43657628 58.56836886 -53.25390625 54.328125 C-54.50840514 41.10763669 -52.21506298 27.48642308 -44.38671875 16.7109375 C-42.19310983 14.26020226 -39.83808053 12.35166486 -37.25390625 10.328125 C-36.92390625 9.668125 -36.59390625 9.008125 -36.25390625 8.328125 C-35.26390625 8.328125 -34.27390625 8.328125 -33.25390625 8.328125 C-33.25390625 7.668125 -33.25390625 7.008125 -33.25390625 6.328125 C-31.27390625 5.998125 -29.29390625 5.668125 -27.25390625 5.328125 C-27.25390625 4.668125 -27.25390625 4.008125 -27.25390625 3.328125 C-18.03623369 0.79133928 -9.53847864 -0.09553167 0 0 Z M-42.52734375 21.125 C-47.73463162 27.76959357 -49.37497161 33.42103912 -49.38812733 41.83162117 C-49.39047956 42.47398846 -49.39283179 43.11635574 -49.3952553 43.77818871 C-49.40191889 45.9333705 -49.40148788 48.08849165 -49.40107727 50.24368286 C-49.40437753 51.80345879 -49.40810345 53.36323386 -49.41221875 54.92300785 C-49.42222826 59.21167212 -49.42595385 63.5003224 -49.42860806 67.7889967 C-49.43251418 72.41357199 -49.44209225 77.03813624 -49.45082092 81.66270447 C-49.47057577 92.83169846 -49.48064992 104.00069335 -49.48954871 115.16970044 C-49.49393288 120.43019025 -49.49929933 125.69067905 -49.50453758 130.95116806 C-49.52154825 148.43918969 -49.53604258 165.9272107 -49.54328632 183.41523933 C-49.54519619 187.95260748 -49.54711653 192.48997562 -49.54907227 197.02734375 C-49.54955601 198.15507383 -49.55003975 199.2828039 -49.55053815 200.44470762 C-49.55883909 218.7146269 -49.58417785 236.98448072 -49.61665294 255.25437142 C-49.64972646 274.01392001 -49.66773532 292.77343533 -49.67093056 311.53301322 C-49.67309529 322.06493876 -49.68183871 332.59676881 -49.70739174 343.12866592 C-49.72910263 352.09765131 -49.73714718 361.06651802 -49.72742496 370.03552671 C-49.72288152 374.61006893 -49.7247691 379.18436629 -49.7441864 383.75887489 C-49.76182755 387.9512153 -49.76081274 392.14313238 -49.74528911 396.33547734 C-49.74291449 397.8476318 -49.74722903 399.35981566 -49.75911776 400.87192525 C-49.86092601 414.68231138 -47.06196011 426.1145314 -37.25390625 436.328125 C-29.28580343 442.77972551 -22.14641195 446.44608479 -11.75041008 446.46234608 C-10.78685915 446.46587442 -10.78685915 446.46587442 -9.80384254 446.46947405 C-7.64866075 446.47613764 -5.4935396 446.47570663 -3.33834839 446.47529602 C-1.77857246 446.47859628 -0.21879739 446.4823222 1.3409766 446.4864375 C5.62964087 446.49644701 9.91829115 446.5001726 14.20696545 446.50282681 C18.83154074 446.50673293 23.45610499 446.516311 28.08067322 446.52503967 C39.24966721 446.54479452 50.4186621 446.55486867 61.58766919 446.56376746 C66.848159 446.56815163 72.1086478 446.57351808 77.36913681 446.57875633 C94.85715844 446.595767 112.34517945 446.61026133 129.83320808 446.61750507 C134.37057623 446.61941494 138.90794437 446.62133528 143.4453125 446.62329102 C144.57304258 446.62377476 145.70077265 446.6242585 146.86267637 446.6247569 C165.13259565 446.63305784 183.40244947 446.6583966 201.67234017 446.69087169 C220.43188876 446.72394521 239.19140408 446.74195407 257.95098197 446.74514931 C268.48290751 446.74731404 279.01473756 446.75605746 289.54663467 446.78161049 C298.51562006 446.80332138 307.48448677 446.81136593 316.45349546 446.80164371 C321.02803768 446.79710027 325.60233504 446.79898785 330.17684364 446.81840515 C334.36918405 446.8360463 338.56110113 446.83503149 342.75344609 446.81950786 C344.26560055 446.81713324 345.77778441 446.82144778 347.289894 446.83333651 C360.64353277 446.93177768 370.76960642 444.58365524 380.74609375 435.328125 C388.98393963 427.03511497 391.86477136 419.3060392 391.87752151 407.5389185 C391.87957415 406.88996798 391.88162678 406.24101747 391.88374162 405.57240179 C391.88937736 403.40689609 391.88795865 401.24145469 391.88653564 399.07594299 C391.88912122 397.50405347 391.89213492 395.9321646 391.89553905 394.36027664 C391.90358918 390.04753406 391.9053975 385.73480814 391.90613651 381.42205894 C391.90799045 376.76826589 391.91553933 372.11448143 391.92227173 367.46069336 C391.93583981 357.28940869 391.94187693 347.11812797 391.94628239 336.94683576 C391.94904647 330.59593895 391.95328404 324.24504366 391.95778656 317.89414787 C391.9699755 300.3091024 391.98027668 282.72405813 391.98366165 265.13900852 C391.98388122 264.01410698 391.98410078 262.88920543 391.984327 261.73021596 C391.98454528 260.60264115 391.98476356 259.47506635 391.98498845 258.3133226 C391.98543192 256.02846181 391.98587848 253.74360102 391.98632812 251.45874023 C391.98654955 250.325373 391.98677098 249.19200577 391.98699912 248.02429407 C391.99094937 229.64902386 392.00841199 211.27379326 392.03168765 192.89853836 C392.05539331 174.0315895 392.06786308 155.16466053 392.06902957 136.29769653 C392.06994659 125.70499414 392.07570593 115.1123434 392.09384918 104.51965523 C392.1092393 95.50270222 392.11437693 86.48581683 392.10611108 77.46885318 C392.1022012 72.86838214 392.1031508 68.26804733 392.11716843 63.667593 C392.12988641 59.45519456 392.12872839 55.24303503 392.11657771 51.03063702 C392.11461712 49.5078315 392.11771591 47.98500918 392.12642208 46.46222729 C392.19351081 33.93343426 390.21172935 25.00764131 381.74609375 15.328125 C378.57986369 12.6904232 375.26693175 10.46213774 371.74609375 8.328125 C370.90304687 7.79058594 370.06 7.25304688 369.19140625 6.69921875 C364.90314669 4.29477928 361.21210601 4.20198573 356.32882404 4.19669724 C355.36103997 4.19361828 355.36103997 4.19361828 354.3737047 4.19047713 C352.20291885 4.1848043 350.03219639 4.18626473 347.86140442 4.18768311 C346.29281675 4.18509963 344.72422974 4.18208652 343.15564364 4.1786797 C338.83805364 4.17060434 334.52048026 4.16881983 330.2028836 4.16808224 C325.54901869 4.16623261 320.89516241 4.15868571 316.24130249 4.15194702 C306.06150883 4.13835919 295.88171911 4.13233823 285.70191789 4.12793636 C279.3465067 4.12517461 272.99109703 4.12093736 266.63568687 4.11643219 C249.04218675 4.10423876 231.44868786 4.09393971 213.8551836 4.0905571 C212.72892826 4.09033753 211.60267291 4.09011797 210.44228862 4.08989175 C209.31332497 4.08967347 208.18436132 4.08945519 207.02118665 4.0892303 C204.73344409 4.08878683 202.44570154 4.08834027 200.15795898 4.08789062 C199.02315756 4.0876692 197.88835613 4.08744777 196.71916678 4.08721963 C178.33144835 4.08327165 159.94376955 4.06581795 141.55606643 4.0425311 C122.68129763 4.01882022 103.80654872 4.00635536 84.93176478 4.00518918 C74.33283785 4.00427225 63.73396254 3.99851549 53.13504982 3.98036957 C44.1096352 3.96497213 35.08428816 3.95984601 26.0588629 3.96810767 C21.45423831 3.97201547 16.84974984 3.9710782 12.24514198 3.95705032 C8.0276372 3.94431931 3.81037092 3.94550189 -0.4071335 3.95764104 C-1.93071942 3.95959942 -3.45432219 3.95651304 -4.97788443 3.94779667 C-21.91334677 3.85706308 -31.45623425 8.15724624 -42.52734375 21.125 Z " fill="#020202" transform="translate(84.25390625,30.671875)"/>
<path d="M0 0 C4.85650806 3.85203106 8.60096607 8.70375203 9.33203125 14.98046875 C9.60528696 22.28480421 8.26400367 27.59706873 4.05859375 33.6328125 C2.1593933 35.56836128 0.26429773 37.02866415 -1.94140625 38.6328125 C-2.43640625 39.6228125 -2.43640625 39.6228125 -2.94140625 40.6328125 C-2.38453125 40.8803125 -1.82765625 41.1278125 -1.25390625 41.3828125 C4.94680046 44.73454586 8.69557131 48.99705968 11.05859375 55.6328125 C12.4104537 64.2847162 11.13498755 71.46139903 6.05859375 78.6328125 C3.30859375 81.5078125 3.30859375 81.5078125 0.05859375 83.6328125 C-0.53050781 84.02339844 -1.11960938 84.41398437 -1.7265625 84.81640625 C-9.68274403 89.24672699 -20.38242955 89.16559261 -29.015625 86.78515625 C-35.41142135 83.89578424 -40.78014996 78.95532508 -43.94140625 72.6328125 C-45.10077254 55.85051033 -45.10077254 55.85051033 -39.94140625 49.6328125 C-37.68844277 47.20422826 -35.36246001 44.89286022 -32.94140625 42.6328125 C-32.28140625 41.9728125 -31.62140625 41.3128125 -30.94140625 40.6328125 C-31.62976563 40.10494141 -31.62976563 40.10494141 -32.33203125 39.56640625 C-36.50740383 36.20681024 -40.42925687 32.93875679 -41.94140625 27.6328125 C-42.6042481 21.44856635 -43.35352834 14.35305232 -40.44140625 8.6328125 C-30.38341207 -3.43678052 -14.3336108 -8.45997265 0 0 Z " fill="#F8FBFD" transform="translate(166.94140625,279.3671875)"/>
<path d="M0 0 C1.21558594 -0.01611328 2.43117188 -0.03222656 3.68359375 -0.04882812 C14.46619778 -0.05464398 24.01525451 1.28025657 31.97265625 9.13671875 C38.73775639 16.42969118 39.58051527 22.70788946 39.4453125 32.5390625 C38.84499282 39.6111212 36.34884644 46.36359285 31.125 51.3125 C22.55424524 57.30152128 15.07844918 59.65348037 4.6875 59.4375 C1.861875 59.39625 -0.96375 59.355 -3.875 59.3125 C-3.875 68.8825 -3.875 78.4525 -3.875 88.3125 C-9.815 88.3125 -15.755 88.3125 -21.875 88.3125 C-21.875 59.9325 -21.875 31.5525 -21.875 2.3125 C-14.12144055 0.37411014 -7.87467591 -0.02074467 0 0 Z " fill="#F6FBFD" transform="translate(318.875,136.6875)"/>
<path d="M0 0 C0.53341184 1.57914015 1.05125763 3.16354387 1.5625 4.75 C1.85253906 5.63171875 2.14257812 6.5134375 2.44140625 7.421875 C3.02820214 10.13016374 3.19425609 11.50039423 2 14 C0.25 14.8359375 0.25 14.8359375 -2 15.375 C-12.19386446 18.40079786 -19.69251427 25.23857324 -24.9375 34.375 C-26.12506425 36.83700266 -26.12506425 36.83700266 -26 39 C-25.113125 38.34 -24.22625 37.68 -23.3125 37 C-17.96914701 33.92484583 -11.97131971 34.36989755 -6 35 C2.35775848 37.39663548 7.5225863 41.64424892 12 49 C15.27551514 57.03990079 14.76954524 65.48562935 12.0390625 73.61328125 C8.6871024 81.3127084 3.01990742 86.99345508 -4.765625 90.10546875 C-12.53511208 92.25427617 -21.27930362 92.31990458 -28.625 88.8125 C-36.76079752 84.01722862 -41.9927016 77.11049907 -44.45703125 68.015625 C-47.23672863 52.57730571 -44.03969131 36.58543779 -36.16015625 23.1015625 C-28.12247229 11.56101808 -14.94054431 -0.40379849 0 0 Z " fill="#F7FBFD" transform="translate(379,276)"/>
<path d="M0 0 C0.53341184 1.57914015 1.05125763 3.16354387 1.5625 4.75 C1.85253906 5.63171875 2.14257812 6.5134375 2.44140625 7.421875 C3.02820214 10.13016374 3.19425609 11.50039423 2 14 C0.25 14.8359375 0.25 14.8359375 -2 15.375 C-12.19386446 18.40079786 -19.69251427 25.23857324 -24.9375 34.375 C-26.12506425 36.83700266 -26.12506425 36.83700266 -26 39 C-25.113125 38.34 -24.22625 37.68 -23.3125 37 C-17.96914701 33.92484583 -11.97131971 34.36989755 -6 35 C2.35775848 37.39663548 7.5225863 41.64424892 12 49 C15.27551514 57.03990079 14.76954524 65.48562935 12.0390625 73.61328125 C8.6871024 81.3127084 3.01990742 86.99345508 -4.765625 90.10546875 C-12.53511208 92.25427617 -21.27930362 92.31990458 -28.625 88.8125 C-36.76079752 84.01722862 -41.9927016 77.11049907 -44.45703125 68.015625 C-47.23672863 52.57730571 -44.03969131 36.58543779 -36.16015625 23.1015625 C-28.12247229 11.56101808 -14.94054431 -0.40379849 0 0 Z " fill="#F7FBFD" transform="translate(308,276)"/>
<path d="M0 0 C17.16 0 34.32 0 52 0 C52 4.95 52 9.9 52 15 C40.78 15 29.56 15 18 15 C18 21.6 18 28.2 18 35 C28.23 35 38.46 35 49 35 C49 39.95 49 44.9 49 50 C38.77 50 28.54 50 18 50 C18 57.26 18 64.52 18 72 C29.55 72 41.1 72 53 72 C53 76.95 53 81.9 53 87 C35.51 87 18.02 87 0 87 C0 58.29 0 29.58 0 0 Z " fill="#F9FCFD" transform="translate(166,138)"/>
<path d="M0 0 C0.92409668 0.00797607 1.84819336 0.01595215 2.80029297 0.02416992 C10.90901038 0.19330969 18.72143065 0.40893065 24.6875 6.375 C23.0375 10.665 21.3875 14.955 19.6875 19.375 C10.0625 17.5 10.0625 17.5 6.6875 16.375 C4.56499355 16.25459396 2.43838413 16.19966181 0.3125 16.1875 C-1.36972656 16.16623047 -1.36972656 16.16623047 -3.0859375 16.14453125 C-6.26134842 16.37134632 -8.45484718 17.02109332 -11.3125 18.375 C-11.86851147 21.84835561 -12.02631916 24.91532173 -11.3125 28.375 C-7.60275841 32.7985401 -1.46109016 34.79268634 3.6394043 37.28076172 C4.33590088 37.62123535 5.03239746 37.96170898 5.75 38.3125 C6.44843018 38.65297363 7.14686035 38.99344727 7.86645508 39.34423828 C13.211527 42.00444092 17.69651606 44.86126753 21.6875 49.375 C22.20957031 49.94347656 22.73164063 50.51195312 23.26953125 51.09765625 C27.25348472 56.26691819 27.42058379 61.52161471 27.16796875 67.8984375 C26.22763234 74.70249774 23.47147551 80.01413945 18.5 84.75 C10.97349656 90.3269248 3.16419747 92.06049821 -6.0625 91.875 C-7.01535889 91.86509033 -7.96821777 91.85518066 -8.94995117 91.8449707 C-16.6607789 91.64368273 -24.28855548 90.81224945 -31.3125 87.375 C-32.66554209 83.31587374 -31.46466503 81.60350409 -29.875 77.6875 C-29.40191406 76.50800781 -28.92882812 75.32851562 -28.44140625 74.11328125 C-28.06886719 73.20964844 -27.69632813 72.30601562 -27.3125 71.375 C-26.63703125 71.57996094 -25.9615625 71.78492188 -25.265625 71.99609375 C-24.37359375 72.26550781 -23.4815625 72.53492188 -22.5625 72.8125 C-21.68078125 73.07933594 -20.7990625 73.34617187 -19.890625 73.62109375 C-19.03984375 73.86988281 -18.1890625 74.11867188 -17.3125 74.375 C-16.67441406 74.56707031 -16.03632813 74.75914062 -15.37890625 74.95703125 C-7.9745682 76.45469509 0.18858478 76.41876947 6.6875 72.375 C8.82632854 69.87970004 8.69100046 68.31199164 8.875 65 C7.08920881 59.54863742 3.62676674 57.96190646 -1.3125 55.375 C-4.57727107 53.83508951 -7.86422938 52.35173386 -11.15625 50.87109375 C-19.51932269 46.90691449 -25.44713996 42.48034313 -29.41796875 34.01953125 C-31.52152639 27.80071674 -31.17873622 20.66655185 -28.8125 14.5625 C-25.30160108 7.75086161 -19.75958604 3.49445427 -12.58740234 0.95947266 C-8.41605879 -0.11223763 -4.28381999 -0.06626861 0 0 Z " fill="#F9FCFD" transform="translate(259.3125,135.625)"/>
<path d="M0 0 C1.30388168 0.00187317 2.60776337 0.00374634 3.95115662 0.00567627 C6.68151708 0.01022915 9.41157429 0.02446902 12.1418457 0.046875 C15.63528697 0.07540797 19.12849394 0.0861177 22.62204075 0.0905571 C25.97722965 0.09570963 29.33233872 0.11023501 32.6875 0.125 C33.93849991 0.12924988 35.18949982 0.13349976 36.47840881 0.13787842 C38.21688332 0.15228973 38.21688332 0.15228973 39.99047852 0.16699219 C41.00827896 0.17382019 42.02607941 0.18064819 43.07472229 0.18768311 C45.46480216 0.31333667 47.45409966 0.68638159 49.74609375 1.328125 C51.28558704 1.41995442 52.8288723 1.45814852 54.37109375 1.453125 C55.14710938 1.45570312 55.923125 1.45828125 56.72265625 1.4609375 C59.24039539 1.35033914 61.67070357 1.11611908 64.17126465 0.82860184 C70.10970128 0.22846963 76.00228767 0.18298568 81.96679688 0.18768311 C83.16068275 0.18471198 84.35456863 0.18174086 85.58463287 0.1786797 C88.87200124 0.17154679 92.15933759 0.16882412 95.44671249 0.16808224 C99.00232264 0.16621944 102.55792173 0.15866639 106.11352539 0.15194702 C113.8736862 0.13841656 121.63384181 0.13234815 129.39401245 0.12793636 C134.24355172 0.12516673 139.09308902 0.12092825 143.94262695 0.11643219 C157.38358433 0.10424977 170.82454015 0.09394627 184.26550293 0.0905571 C185.12417859 0.09033753 185.98285424 0.09011797 186.86755037 0.08989175 C187.72819959 0.08967347 188.58884881 0.08945519 189.47557831 0.0892303 C191.21939596 0.08878684 192.9632136 0.08834028 194.70703125 0.08789062 C195.57201264 0.0876692 196.43699404 0.08744777 197.32818699 0.08721963 C211.35318197 0.08326903 225.37812508 0.06580244 239.40310001 0.0425311 C253.82016516 0.01880302 268.23720426 0.0063547 282.65428925 0.00518918 C290.74196708 0.0042736 298.82957719 -0.00144991 306.91723633 -0.01963043 C313.80077945 -0.03505062 320.68423387 -0.04014032 327.56779099 -0.03189233 C331.07692796 -0.02799351 334.58588637 -0.02887784 338.09500122 -0.04294968 C341.90528425 -0.05565378 345.71511067 -0.04980016 349.52539062 -0.03936768 C351.17570156 -0.05145228 351.17570156 -0.05145228 352.85935211 -0.06378102 C361.69492387 -0.00730093 369.59601698 1.60811135 377.24609375 6.203125 C378.468125 6.91082031 378.468125 6.91082031 379.71484375 7.6328125 C382.12657457 9.64568014 382.82144251 11.36321071 383.74609375 14.328125 C384.40609375 14.328125 385.06609375 14.328125 385.74609375 14.328125 C387.25390625 16.19140625 387.25390625 16.19140625 388.87109375 18.640625 C389.67933594 19.84138672 389.67933594 19.84138672 390.50390625 21.06640625 C391.74609375 23.328125 391.74609375 23.328125 391.74609375 26.328125 C392.40609375 26.328125 393.06609375 26.328125 393.74609375 26.328125 C394.49475729 30.99362708 394.8686849 35.4581344 394.85961914 40.18139648 C394.85976517 40.82615433 394.85991119 41.47091217 394.86006165 42.13520813 C394.85937192 44.23991407 394.85162417 46.34452851 394.84375 48.44921875 C394.84188247 49.91894991 394.84046015 51.38868169 394.83946228 52.8584137 C394.83566345 56.70691681 394.82585596 60.55538156 394.8147583 64.40386963 C394.80448725 68.3389026 394.79995251 72.27394183 394.79492188 76.20898438 C394.78423107 83.91538198 394.76718667 91.62174809 394.74609375 99.328125 C394.08609375 99.328125 393.42609375 99.328125 392.74609375 99.328125 C392.74609375 203.608125 392.74609375 307.888125 392.74609375 415.328125 C392.08609375 414.998125 391.42609375 414.668125 390.74609375 414.328125 C390.74723291 413.52497832 390.74837207 412.72183165 390.74954575 411.89434719 C390.81666441 364.30464329 390.86814556 316.71494441 390.89928974 269.12520266 C390.90304191 263.41240716 390.90692487 257.69961176 390.91088867 251.98681641 C390.9116756 250.84949066 390.91246253 249.71216492 390.91327331 248.54037476 C390.92633103 230.11939724 390.9499869 211.69844778 390.97755214 193.27748692 C391.00559614 174.37912266 391.02226788 155.4807731 391.02835923 136.58238888 C391.03247776 124.91892261 391.04549085 113.25553563 391.06984315 101.59209377 C391.08568791 93.59653553 391.09049696 85.60101836 391.08659788 77.60544556 C391.08467438 72.99084287 391.08764526 68.37637887 391.10371017 63.76180077 C391.11831363 59.5361761 391.11904321 55.31078333 391.10879043 51.08514798 C391.10752333 49.55742023 391.11132513 48.02967799 391.1207433 46.50197875 C391.17692589 36.82513149 391.00570317 28.75333146 384.55859375 20.953125 C381.74609375 17.51790602 381.74609375 17.51790602 381.74609375 15.328125 C380.92625 14.94333984 380.92625 14.94333984 380.08984375 14.55078125 C376.3557146 12.60281054 372.91361124 10.20666334 369.40234375 7.88671875 C365.01147785 5.31031361 361.38770065 5.20217589 356.32882404 5.19669724 C355.36103997 5.19361828 355.36103997 5.19361828 354.3737047 5.19047713 C352.20291885 5.1848043 350.03219639 5.18626473 347.86140442 5.18768311 C346.29281675 5.18509963 344.72422974 5.18208652 343.15564364 5.1786797 C338.83805364 5.17060434 334.52048026 5.16881983 330.2028836 5.16808224 C325.54901869 5.16623261 320.89516241 5.15868571 316.24130249 5.15194702 C306.06150883 5.13835919 295.88171911 5.13233823 285.70191789 5.12793636 C279.3465067 5.12517461 272.99109703 5.12093736 266.63568687 5.11643219 C249.04218675 5.10423876 231.44868786 5.09393971 213.8551836 5.0905571 C212.72892826 5.09033753 211.60267291 5.09011797 210.44228862 5.08989175 C209.31332497 5.08967347 208.18436132 5.08945519 207.02118665 5.0892303 C204.73344409 5.08878683 202.44570154 5.08834027 200.15795898 5.08789062 C199.02315756 5.0876692 197.88835613 5.08744777 196.71916678 5.08721963 C178.33144835 5.08327165 159.94376955 5.06581795 141.55606643 5.0425311 C122.68129763 5.01882022 103.80654872 5.00635536 84.93176478 5.00518918 C74.33283785 5.00427225 63.73396254 4.99851549 53.13504982 4.98036957 C44.1096352 4.96497213 35.08428816 4.95984601 26.0588629 4.96810767 C21.45423831 4.97201547 16.84974984 4.9710782 12.24514198 4.95705032 C8.0276372 4.94431931 3.81037092 4.94550189 -0.4071335 4.95764104 C-1.93071942 4.95959942 -3.45432219 4.95651304 -4.97788443 4.94779667 C-17.86520527 4.87875144 -26.58400124 6.47141127 -36.25390625 15.328125 C-43.58164811 22.68477314 -48.09324884 29.62785383 -48.5703125 40.19140625 C-48.61220703 41.07763672 -48.65410156 41.96386719 -48.69726562 42.87695312 C-48.75624023 44.2449707 -48.75624023 44.2449707 -48.81640625 45.640625 C-48.85958984 46.57197266 -48.90277344 47.50332031 -48.94726562 48.46289062 C-49.0528785 50.75116954 -49.15498377 53.03954872 -49.25390625 55.328125 C-49.58390625 55.328125 -49.91390625 55.328125 -50.25390625 55.328125 C-50.4809522 51.45398526 -50.68221103 47.57891485 -50.87890625 43.703125 C-50.94335938 42.60871094 -51.0078125 41.51429687 -51.07421875 40.38671875 C-51.47861911 32.04596141 -50.46241511 26.82045603 -45.94140625 19.703125 C-45.36777344 18.78273438 -44.79414062 17.86234375 -44.203125 16.9140625 C-42.14987525 14.19011192 -39.94833035 12.39520412 -37.25390625 10.328125 C-36.92390625 9.668125 -36.59390625 9.008125 -36.25390625 8.328125 C-35.26390625 8.328125 -34.27390625 8.328125 -33.25390625 8.328125 C-33.25390625 7.668125 -33.25390625 7.008125 -33.25390625 6.328125 C-31.27390625 5.998125 -29.29390625 5.668125 -27.25390625 5.328125 C-27.25390625 4.668125 -27.25390625 4.008125 -27.25390625 3.328125 C-18.03623369 0.79133928 -9.53847864 -0.09553167 0 0 Z " fill="#090909" transform="translate(84.25390625,30.671875)"/>
<path d="M0 0 C5.02569188 4.0554811 8.61231124 8.91185964 9.33203125 15.42578125 C10.08017874 35.1269986 -0.79362796 50.65434782 -12.8359375 65.328125 C-14.9765625 67.6328125 -14.9765625 67.6328125 -19.9765625 71.6328125 C-9.7465625 71.6328125 0.4834375 71.6328125 11.0234375 71.6328125 C11.0234375 76.2528125 11.0234375 80.8728125 11.0234375 85.6328125 C-6.4665625 85.6328125 -23.9565625 85.6328125 -41.9765625 85.6328125 C-41.9765625 76.6328125 -41.9765625 76.6328125 -39.0390625 73.2578125 C-38.07613281 72.41283203 -38.07613281 72.41283203 -37.09375 71.55078125 C-25.63099876 61.16662837 -10.05473959 41.64163769 -8.73828125 25.7578125 C-8.70154297 24.2109375 -8.70154297 24.2109375 -8.6640625 22.6328125 C-8.62667969 21.6015625 -8.58929688 20.5703125 -8.55078125 19.5078125 C-9.07928554 15.93919635 -10.2046923 14.85442275 -12.9765625 12.6328125 C-16.50046316 10.87086217 -20.1695589 11.10809353 -23.9765625 11.6328125 C-27.78855194 13.03413509 -31.38035996 14.75068781 -34.9765625 16.6328125 C-36.00976731 15.03658594 -37.02778679 13.43052144 -38.0390625 11.8203125 C-38.60753906 10.92699219 -39.17601562 10.03367187 -39.76171875 9.11328125 C-40.9765625 6.6328125 -40.9765625 6.6328125 -39.9765625 3.6328125 C-37.61328125 2.0625 -37.61328125 2.0625 -34.6640625 0.5078125 C-33.69855469 -0.01039063 -32.73304688 -0.52859375 -31.73828125 -1.0625 C-22.5173562 -5.41863715 -8.79799739 -5.2547766 0 0 Z " fill="#F8FCFD" transform="translate(235.9765625,279.3671875)"/>
<path d="M0 0 C16.66666667 0 16.66666667 0 21.58203125 4.296875 C24.87135472 8.24768776 25.44524579 11.58944072 25.3125 16.6171875 C24.79073636 20.59563525 23.44212377 23.81624969 21 27 C14.01839592 31.50895264 8.55509369 31 0 31 C0 20.77 0 10.54 0 0 Z " fill="#05CAFD" transform="translate(315,151)"/>
<path d="M0 0 C5.34740414 1.95385921 8.45618143 4.91236287 11 10 C11.37381854 15.60727817 11.18490827 19.16772538 8 24 C3.57466189 28.09343776 0.14035745 29.36336397 -5.9375 29.28515625 C-10.2295991 28.69174103 -13.04427497 26.08754917 -15.8125 22.9375 C-18.30909337 18.86411082 -18.62713547 14.65493512 -18 10 C-14.17920383 2.35840766 -8.43449648 -1.38325742 0 0 Z " fill="#565A5B" transform="translate(93,74)"/>
<path d="M0 0 C3.34303882 2.87656828 5.3233154 4.92506761 6.00390625 9.38671875 C6.30956027 15.19414511 5.1394691 18.64767689 1.6875 23.3125 C-1.24654974 25.77075789 -2.93280804 26.27107906 -6.75 26.6875 C-11.45528627 26.19220671 -14.54191944 25.25547919 -17.796875 21.68359375 C-21.05669427 17.15097988 -22.10017202 13.15069955 -21.80078125 7.58203125 C-21.01958473 3.95102984 -19.27699742 2.42058706 -16.3125 0.3125 C-10.90710535 -2.7554267 -5.41051677 -2.756301 0 0 Z " fill="#06CAFD" transform="translate(371.3125,326.6875)"/>
<path d="M0 0 C3.34303882 2.87656828 5.3233154 4.92506761 6.00390625 9.38671875 C6.30956027 15.19414511 5.1394691 18.64767689 1.6875 23.3125 C-1.24654974 25.77075789 -2.93280804 26.27107906 -6.75 26.6875 C-11.45528627 26.19220671 -14.54191944 25.25547919 -17.796875 21.68359375 C-21.05669427 17.15097988 -22.10017202 13.15069955 -21.80078125 7.58203125 C-21.01958473 3.95102984 -19.27699742 2.42058706 -16.3125 0.3125 C-10.90710535 -2.7554267 -5.41051677 -2.756301 0 0 Z " fill="#06CAFD" transform="translate(300.3125,326.6875)"/>
<path d="M0 0 C6.08381017 2.33618311 11.83750966 6.19012192 15 12 C15.89965799 15.93600371 15.35828698 19.13256836 13.8125 22.875 C10.78750505 26.42154581 8.11886439 26.89828506 3.5625 27.3125 C-1.10234743 26.90330286 -4.42583252 25.71727362 -7.6328125 22.21875 C-10.18433698 18.07799027 -9.92558858 13.66650907 -9 9 C-6.71906916 5.25784784 -3.96082387 1.98041193 0 0 Z " fill="#04CAFD" transform="translate(147,326)"/>
<path d="M0 0 C0.66 0.33 1.32 0.66 2 1 C2.04575573 49.81719492 2.08100817 98.63438768 2.10213066 147.45159981 C2.10463214 153.21203663 2.10722078 158.9724734 2.10986328 164.73291016 C2.1103879 165.87973237 2.11091252 167.02655458 2.11145304 168.20812897 C2.12016088 186.78887917 2.13593294 205.36961703 2.15430559 223.9503599 C2.1729941 243.00917724 2.1841145 262.06798811 2.18817699 281.12681425 C2.19092422 292.89160821 2.19960805 304.65636727 2.21583293 316.42115049 C2.22638687 324.48350141 2.22960424 332.54583423 2.22700275 340.60819156 C2.22571898 345.26302132 2.22771741 349.91778999 2.23841095 354.57260895 C2.24812625 358.83262898 2.2486461 363.09254672 2.24179779 367.35257141 C2.24095107 368.89506571 2.24350271 370.43756632 2.24976636 371.98004813 C2.25778011 374.07503838 2.25347377 376.16965825 2.24609566 378.26464272 C2.2468551 379.42886525 2.24761454 380.59308778 2.24839699 381.79258978 C1.9884737 385.14883261 1.1968187 387.86513928 0 391 C-0.66 391 -1.32 391 -2 391 C-1.75739488 389.25464509 -1.75739488 389.25464509 -1.50988865 387.47403049 C-0.73914929 380.47301991 -0.84608933 373.44888126 -0.84178162 366.41551208 C-0.83721026 364.83206959 -0.8322094 363.24862829 -0.82681805 361.66518837 C-0.81329291 357.33012393 -0.80583496 352.99506729 -0.79939139 348.65998733 C-0.79136262 343.97911093 -0.77767342 339.29825064 -0.76467896 334.61738586 C-0.74295126 326.51279138 -0.72479326 318.40819524 -0.70907402 310.30358696 C-0.68634157 298.58574759 -0.65820346 286.86792609 -0.62875474 275.15010191 C-0.58112016 256.13775487 -0.5378448 237.12540052 -0.49731445 218.11303711 C-0.45793847 199.64655997 -0.41650722 181.18008932 -0.37231445 162.71362305 C-0.36959018 161.57495525 -0.36686591 160.43628745 -0.36405908 159.26311456 C-0.35037926 153.55063497 -0.33665905 147.83815548 -0.32291877 142.12567604 C-0.20901896 94.75046425 -0.10219527 47.37523838 0 0 Z " fill="#4E4E4E" transform="translate(474,63)"/>
<path d="M0 0 C4.14218516 0.2716187 6.38312288 0.93716427 9.8125 3.25 C12.18097877 7.12569253 12.41639693 10.79626016 11.8125 15.25 C9.48610605 19.3670568 7.38438421 22.7260386 2.8125 24.25 C0.65625 23.17578125 0.65625 23.17578125 -1.6875 21.5625 C-2.4609375 21.04300781 -3.234375 20.52351563 -4.03125 19.98828125 C-7.77973245 16.96640681 -9.07268732 15.15414986 -9.6875 10.3125 C-9.57482648 6.75997016 -9.19077211 6.25394331 -6.75 3.3125 C-5.904375 2.631875 -5.05875 1.95125 -4.1875 1.25 C-3.1875 0.25 -3.1875 0.25 0 0 Z " fill="#09CBFD" transform="translate(149.1875,289.75)"/>
<path d="M0 0 C0.33 0 0.66 0 1 0 C1.17730246 23.10461391 1.3429704 46.20928513 1.49477577 69.31408119 C1.56553256 80.04195465 1.64010098 90.76977637 1.72363281 101.49755859 C1.79642668 110.84753078 1.86207883 120.19752111 1.91914403 129.54760301 C1.94961121 134.49870757 1.98366195 139.44972914 2.02626419 144.40074539 C2.06625257 149.06110319 2.09668904 153.72142593 2.11981392 158.38189697 C2.12998023 160.09193757 2.14363041 161.80196158 2.16103554 163.51194382 C2.1842935 165.84831987 2.19496534 168.18443252 2.20254517 170.52090454 C2.2117631 171.82800699 2.22098103 173.13510944 2.23047829 174.48182106 C2.00051009 177.99221357 1.27276917 180.73531219 0 184 C-0.66 184 -1.32 184 -2 184 C-1.83923477 182.8674025 -1.67846954 181.73480499 -1.51283264 180.56788635 C-0.68451376 173.04484114 -0.82140016 165.47267348 -0.79467773 157.91381836 C-0.78508593 156.18837252 -0.77507511 154.46292897 -0.76467896 152.73748779 C-0.73776479 148.07496101 -0.71668265 143.41242424 -0.69667697 138.74986339 C-0.6747337 133.86915844 -0.64738601 128.9884838 -0.62062073 124.10780334 C-0.5708062 114.87517701 -0.5258259 105.64253376 -0.48259836 96.4098745 C-0.43312963 85.89473096 -0.37824738 75.37961783 -0.32291877 64.86450374 C-0.20927138 43.24303086 -0.10239512 21.62152891 0 0 Z " fill="#434343" transform="translate(474,270)"/>
<path d="M0 0 C0.33 0 0.66 0 1 0 C1.22297226 2.87453422 1.42878171 5.7486182 1.625 8.625 C1.68945312 9.43324219 1.75390625 10.24148438 1.8203125 11.07421875 C2.13273892 15.87777492 1.92020113 19.47067061 0 24 C-0.66 24 -1.32 24 -2 24 C-1.34 16.08 -0.68 8.16 0 0 Z " fill="#4B4B4B" transform="translate(474,430)"/>
<path d="M0 0 C0 3 0 3 -2.5 5.6875 C-3.325 6.450625 -4.15 7.21375 -5 8 C-5 5 -5 5 -2.5 2.3125 C-1.675 1.549375 -0.85 0.78625 0 0 Z " fill="#6A6A6A" transform="translate(48,45)"/>
</svg>
