<?xml version="1.0" encoding="UTF-8"?>
<svg version="1.1" xmlns="http://www.w3.org/2000/svg" width="209" height="229">
<path d="M0 0 C1.6932843 0.00213753 1.6932843 0.00213753 3.42077637 0.00431824 C4.71144012 0.00128693 6.00210388 -0.00174438 7.33187866 -0.00486755 C8.76711152 0.00207421 10.20234305 0.00929562 11.63757324 0.01676941 C13.13733905 0.01758501 14.63710547 0.01761839 16.13687134 0.016922 C20.19863287 0.01797785 24.26024779 0.03233102 28.32196808 0.04980087 C30.84829327 0.05970667 33.37460056 0.06600955 35.90093994 0.07099915 C59.86988299 0.11866904 83.83720684 0.31093495 107.80374146 0.65385056 C109.98572562 0.6848006 112.16772576 0.71433972 114.34973145 0.74372864 C118.38591585 0.79897564 122.42187793 0.86390293 126.45788574 0.93083191 C128.25868088 0.95592331 128.25868088 0.95592331 130.09585571 0.98152161 C131.17777191 1.00145172 132.25968811 1.02138184 133.37438965 1.04191589 C134.79046005 1.06523232 134.79046005 1.06523232 136.23513794 1.08901978 C138.35632324 1.24723816 138.35632324 1.24723816 139.35632324 2.24723816 C139.4548901 4.03737458 139.48264433 5.831435 139.48330688 7.62428284 C139.48612671 8.79088943 139.48894653 9.95749603 139.49185181 11.15945435 C139.48881546 13.09662071 139.48881546 13.09662071 139.48571777 15.07292175 C139.48707182 16.43764289 139.48885178 17.80236366 139.49102783 19.16708374 C139.49560259 22.88405862 139.49381221 26.60100586 139.49064875 30.31798124 C139.48812434 34.20167842 139.49046301 38.08537317 139.49203491 41.96907043 C139.4938568 48.49441453 139.49145024 55.01974734 139.48669434 61.54508972 C139.48125623 69.0937069 139.48301101 76.64229704 139.48852074 84.19091356 C139.49305674 90.66396548 139.49369989 97.13700925 139.49108207 103.61006224 C139.4895214 107.47950599 139.48931972 111.34893704 139.49261856 115.21837997 C139.49550417 118.85773548 139.49350883 122.49705612 139.4877243 126.13640785 C139.48576779 128.11225969 139.48874509 130.08811448 139.49185181 132.06396484 C139.48903198 133.23621109 139.48621216 134.40845734 139.48330688 135.6162262 C139.48274135 137.1476806 139.48274135 137.1476806 139.48216438 138.71007347 C139.35632324 141.24723816 139.35632324 141.24723816 138.35632324 144.24723816 C131.67705234 145.47160848 125.06737875 145.38783039 118.29260254 145.37663269 C116.98781448 145.37838501 115.68302643 145.38013733 114.33869934 145.38194275 C110.77710015 145.3864828 107.21553009 145.38474227 103.65393043 145.38156366 C99.92328296 145.37902498 96.19263792 145.38138156 92.46199036 145.38294983 C86.20370029 145.38476599 79.94542206 145.38237855 73.68713379 145.37760925 C66.44738341 145.3721558 59.20766114 145.37393935 51.96791142 145.37943566 C45.74867979 145.38396839 39.52945663 145.38461691 33.31022388 145.38199699 C29.59683795 145.38043663 25.88346526 145.38023413 22.17008018 145.38353348 C18.03772681 145.38694921 13.90542228 145.38221992 9.77307129 145.37663269 C8.53826019 145.37865692 7.3034491 145.38068115 6.03121948 145.38276672 C4.3510247 145.37853699 4.3510247 145.37853699 2.6368866 145.3742218 C1.65965983 145.37384478 0.68243307 145.37346775 -0.32440662 145.3730793 C-2.64367676 145.24723816 -2.64367676 145.24723816 -4.64367676 144.24723816 C-4.690348 125.76729025 -4.72564163 107.28735427 -4.7473011 88.8073597 C-4.7576242 80.22724058 -4.77170421 71.64715803 -4.79455566 63.06706238 C-4.81445798 55.59073961 -4.82738567 48.11444331 -4.83185375 40.63809478 C-4.8344665 36.6775363 -4.84062891 32.71705358 -4.85513687 28.75651932 C-4.86867097 25.03180404 -4.87290791 21.30719602 -4.86989212 17.5824585 C-4.87044416 16.21261895 -4.87444643 14.84277596 -4.88208771 13.47295761 C-4.89198315 11.60820331 -4.8884669 9.74339198 -4.88418579 7.87861633 C-4.88602938 6.83330309 -4.88787296 5.78798985 -4.88977242 4.71100044 C-4.53254742 1.13467781 -3.54711689 0.3317284 0 0 Z " fill="#3E3B3C" transform="translate(36.6436767578125,41.75276184082031)"/>
<path d="M0 0 C1.98 0 3.96 0 6 0 C6 35.64 6 71.28 6 108 C4.02 108 2.04 108 0 108 C0 72.36 0 36.72 0 0 Z " fill="#F8F7F8" transform="translate(101,46)"/>
<path d="M0 0 C1.65 0 3.3 0 5 0 C5 35.97 5 71.94 5 109 C3.35 109 1.7 109 0 109 C0 73.03 0 37.06 0 0 Z " fill="#FAFAFA" transform="translate(138,75)"/>
<path d="M0 0 C1.65 0 3.3 0 5 0 C5 35.64 5 71.28 5 108 C3.35 108 1.7 108 0 108 C0 72.36 0 36.72 0 0 Z " fill="#F9F9F9" transform="translate(65,76)"/>
<path d="M0 0 C26.91304582 -0.11292491 53.82264103 0.19283367 80.73394775 0.46356201 C86.86949627 0.52496378 93.00506132 0.58466694 99.140625 0.64453125 C111.09376636 0.76139852 123.04688882 0.88008814 135 1 C135 1.33 135 1.66 135 2 C128.48286651 3.18275979 122.06494397 3.13380605 115.45532227 3.11352539 C114.20584305 3.11367142 112.95636383 3.11381744 111.66902161 3.1139679 C108.26042988 3.11339257 104.85189949 3.10839373 101.44331861 3.10139394 C97.87456269 3.09512245 94.30580587 3.09455361 90.73704529 3.09336853 C83.98698723 3.09026638 77.23694545 3.08206808 70.48689455 3.07201904 C62.79885173 3.06082319 55.11080812 3.05533872 47.42275918 3.05032361 C31.61516337 3.03988449 15.80758379 3.02230673 0 3 C0 2.01 0 1.02 0 0 Z " fill="#343334" transform="translate(34,184)"/>
<path d="M0 0 C0.66 0.33 1.32 0.66 2 1 C2.15369698 14.24727316 2.30187874 27.49459532 2.4429636 40.74200916 C2.50864507 46.89290056 2.57624677 53.04375852 2.64819336 59.19458008 C2.71751862 65.12727868 2.78185675 71.06001208 2.84269524 76.99280357 C2.86682394 79.25949769 2.89276846 81.52617321 2.92053413 83.7928257 C2.9590317 86.9605684 2.99114982 90.12831495 3.02172852 93.29614258 C3.03467453 94.23913208 3.04762054 95.18212158 3.06095886 96.15368652 C3.06799835 97.01605423 3.07503784 97.87842194 3.08229065 98.766922 C3.09058679 99.51633969 3.09888292 100.26575739 3.10743046 101.03788471 C3 103 3 103 2 106 C-1.465 106.495 -1.465 106.495 -5 107 C-5 106.67 -5 106.34 -5 106 C-12.92 105.67 -20.84 105.34 -29 105 C-29 104.67 -29 104.34 -29 104 C-19.43 104 -9.86 104 0 104 C0 69.68 0 35.36 0 0 Z " fill="#474646" transform="translate(173,80)"/>
<path d="M0 0 C1.98 0 3.96 0 6 0 C6 35.64 6 71.28 6 108 C5.67 108 5.34 108 5 108 C4.98786972 106.25019585 4.98786972 106.25019585 4.97549438 104.46504211 C4.89802231 93.47354188 4.81028018 82.48216526 4.71247292 71.49082661 C4.66251914 65.84001942 4.61618886 60.18923085 4.578125 54.53833008 C4.54126083 49.08528852 4.4948975 43.63240301 4.44193649 38.17949486 C4.42339862 36.09871342 4.40828842 34.01789853 4.39665604 31.93706703 C4.37978341 29.02339307 4.35074548 26.11007603 4.31884766 23.1965332 C4.31668747 22.33554016 4.31452728 21.47454712 4.31230164 20.58746338 C4.25276017 16.33230316 4.12121921 12.81548235 2 9 C1.34 8.67 0.68 8.34 0 8 C0 5.36 0 2.72 0 0 Z " fill="#DEDCDD" transform="translate(101,46)"/>
<path d="M0 0 C0.20638953 23.78877436 0.20638953 23.78877436 -1 34 C-1.33 34 -1.66 34 -2 34 C-2 23.11 -2 12.22 -2 1 C-23.12 1 -44.24 1 -66 1 C-66 0.67 -66 0.34 -66 0 C-57.69007608 -0.15370867 -49.38008005 -0.3018902 -41.06993294 -0.4429636 C-37.21144327 -0.50864033 -33.35300704 -0.57623988 -29.49462891 -0.64819336 C-25.77295488 -0.71752741 -22.0512253 -0.78186342 -18.32940292 -0.84269524 C-16.90756961 -0.86682075 -15.48576599 -0.8927648 -14.06399918 -0.92053413 C-12.07676984 -0.95904093 -10.08940869 -0.99055522 -8.10205078 -1.02172852 C-6.96953888 -1.04171402 -5.83702698 -1.06169952 -4.67019653 -1.08229065 C-2 -1 -2 -1 0 0 Z " fill="#4B494A" transform="translate(175,45)"/>
<path d="M0 0 C0.99 0.33 1.98 0.66 3 1 C3 1.99 3 2.98 3 4 C2.34 4 1.68 4 1 4 C1 35.35 1 66.7 1 99 C1.99 99.33 2.98 99.66 4 100 C2.68 100 1.36 100 0 100 C0 67 0 34 0 0 Z " fill="#E7E7E7" transform="translate(101,54)"/>
<path d="M0 0 C2.64 0 5.28 0 8 0 C8 4.29 8 8.58 8 13 C5.36 13 2.72 13 0 13 C0 8.71 0 4.42 0 0 Z " fill="#FAF8F9" transform="translate(156,159)"/>
<path d="M0 0 C1.98 0 3.96 0 6 0 C6 4.62 6 9.24 6 14 C5.01 13.67 4.02 13.34 3 13 C2.6278958 11.67696283 2.29369827 10.34262065 2 9 C1.34 8.67 0.68 8.34 0 8 C0 5.36 0 2.72 0 0 Z " fill="#C0C0C0" transform="translate(101,46)"/>
<path d="M0 0 C0.99 0.33 1.98 0.66 3 1 C3 1.99 3 2.98 3 4 C2.34 4 1.68 4 1 4 C1 9.94 1 15.88 1 22 C0.67 22 0.34 22 0 22 C0 14.74 0 7.48 0 0 Z " fill="#E0E0E0" transform="translate(101,54)"/>
<path d="M0 0 C2.64 0 5.28 0 8 0 C8 4.29 8 8.58 8 13 C7.67 13 7.34 13 7 13 C7 9.04 7 5.08 7 1 C3.9254644 1.7763932 3.9254644 1.7763932 2 4 C1.34 4 0.68 4 0 4 C0 2.68 0 1.36 0 0 Z " fill="#CFCECF" transform="translate(156,159)"/>
<path d="M0 0 C2.64 0 5.28 0 8 0 C7.01 0.33 6.02 0.66 5 1 C5.66 2.32 6.32 3.64 7 5 C5.35 5.33 3.7 5.66 2 6 C1.34 5.01 0.68 4.02 0 3 C0.66 2.67 1.32 2.34 2 2 C1.34 1.34 0.68 0.68 0 0 Z " fill="#494647" transform="translate(156,172)"/>
</svg>
