<?xml version="1.0" encoding="UTF-8"?>
<svg version="1.1" xmlns="http://www.w3.org/2000/svg" width="512" height="512">
<path d="M0 0 C4.09341499 -0.02469575 8.18680121 -0.04285793 12.28027344 -0.05493164 C13.67318477 -0.0599643 15.0660908 -0.06679098 16.45898438 -0.07543945 C18.45961246 -0.08755152 20.46027888 -0.09270412 22.4609375 -0.09765625 C23.66540527 -0.10289307 24.86987305 -0.10812988 26.11083984 -0.11352539 C29 0 29 0 31 1 C32.65749436 1.11736724 34.31913459 1.17882161 35.98046875 1.2109375 C36.98013672 1.23929687 37.97980469 1.26765625 39.00976562 1.296875 C41.10855659 1.34847404 43.20753808 1.3928842 45.30664062 1.4296875 C51.27770906 1.61329499 55.69746798 2.19498306 61 5 C61 5.66 61 6.32 61 7 C62.2375 7.061875 63.475 7.12375 64.75 7.1875 C70.9699425 7.84223079 76.3648994 10.4160537 82 13 C82 13.66 82 14.32 82 15 C82.5775 15.061875 83.155 15.12375 83.75 15.1875 C86.92448483 16.33384174 88.12848575 18.25956842 90 21 C90 21.66 90 22.32 90 23 C90.66 23 91.32 23 92 23 C94.57025846 27.2837641 96.58707905 31.1725201 98 36 C98.66 36 99.32 36 100 36 C100.33 34.02 100.66 32.04 101 30 C101.66 30 102.32 30 103 30 C103.20625 29.34 103.4125 28.68 103.625 28 C107.76554926 18.96607434 114.52249101 12.67685673 123.63671875 8.83203125 C126.60584213 7.78670351 129.555995 7.16383218 132.6640625 6.6875 C135.25425685 6.04972125 135.25425685 6.04972125 138.08984375 3.953125 C142.82969502 1.13772462 147.57443739 1.5593785 152.9375 1.75 C153.90751953 1.76804687 154.87753906 1.78609375 155.87695312 1.8046875 C158.25234894 1.85149333 160.62563844 1.91703615 163 2 C163 1.34 163 0.68 163 0 C197.52945243 -0.61294886 197.52945243 -0.61294886 209.609375 5.046875 C214.19592632 6.87550004 219.12762946 7.36374543 224 8 C224 8.66 224 9.32 224 10 C224.66 9.896875 225.32 9.79375 226 9.6875 C230.35540696 10.14118823 233.66439585 12.20192146 237 15 C238.23828125 17.171875 238.23828125 17.171875 239 19 C239.66 19 240.32 19 241 19 C241.53737595 22.35173048 242.05186798 25.70659961 242.5625 29.0625 C242.71396484 30.00544922 242.86542969 30.94839844 243.02148438 31.91992188 C243.81990266 37.24889972 244.04838084 41.65825001 243 47 C242.81129083 48.39317178 242.6334249 49.78784336 242.46484375 51.18359375 C242.37783203 51.88291016 242.29082031 52.58222656 242.20117188 53.30273438 C242.11416016 54.00720703 242.02714844 54.71167969 241.9375 55.4375 C241.84662109 56.16904297 241.75574219 56.90058594 241.66210938 57.65429688 C241.44083632 59.43612723 241.22033671 61.21805361 241 63 C240.34 63 239.68 63 239 63 C238.88398438 63.69996094 238.76796875 64.39992188 238.6484375 65.12109375 C237.936661 68.28120991 236.87185072 71.07383662 235.625 74.0625 C235.20476562 75.08472656 234.78453125 76.10695313 234.3515625 77.16015625 C233.11294002 79.76269538 231.92165112 81.85741039 230 84 C229.34 84 228.68 84 228 84 C228 84.66 228 85.32 228 86 C227.34 86.33 226.68 86.66 226 87 C225.67 87.99 225.34 88.98 225 90 C224.34 90 223.68 90 223 90 C222.938125 90.9075 222.87625 91.815 222.8125 92.75 C221.80779529 96.76881884 220.31954371 97.6763194 217 100 C216.67 100.66 216.34 101.32 216 102 C215.29875 102.37125 214.5975 102.7425 213.875 103.125 C209.88547535 105.7268639 206.64572764 109.02759626 204 113 C204 114.32 204 115.64 204 117 C204.56074219 117.23074219 205.12148438 117.46148437 205.69921875 117.69921875 C216.19951119 123.63571685 223.45065318 137.08298 226.75 148.25 C228.79986027 156.86959879 231 166.13342106 231 175 C231.66 175 232.32 175 233 175 C234.5859375 176.609375 234.5859375 176.609375 236.375 178.75 C238.33757727 181.06903702 240.2588295 183.25219284 242.4375 185.375 C244 187 244 187 244 189 C244.66 189 245.32 189 246 189 C250 195.75 250 195.75 250 198 C250.66 198 251.32 198 252 198 C252.82165509 199.70394893 253.63190645 201.41339898 254.4375 203.125 C254.88996094 204.07632813 255.34242188 205.02765625 255.80859375 206.0078125 C258.53211988 212.84788141 258.21591855 219.99917209 258.25 227.25 C258.2809375 228.87228516 258.2809375 228.87228516 258.3125 230.52734375 C258.36012452 240.39752459 256.03915081 248.29599609 251.8125 257.125 C251.28269531 258.24132812 250.75289063 259.35765625 250.20703125 260.5078125 C249.80871094 261.33023437 249.41039062 262.15265625 249 263 C248.34 263 247.68 263 247 263 C246.896875 263.70125 246.79375 264.4025 246.6875 265.125 C246 268 246 268 244.5625 270.5625 C242.6810136 274.70177007 242.19456378 278.57094029 241.52734375 283.04296875 C240.95183983 286.27005369 240.02355864 289.06712751 238.78125 292.0859375 C237.94403651 294.13711056 237.24737648 296.20576038 236.5625 298.3125 C236.30984375 299.06917969 236.0571875 299.82585937 235.796875 300.60546875 C235.25625326 302.22998407 234.72530618 303.85774493 234.203125 305.48828125 C229.92997418 318.13905669 223.52506627 330.49469528 214 340 C213.34 340 212.68 340 212 340 C212 340.66 212 341.32 212 342 C210.35546875 343.5078125 210.35546875 343.5078125 208.1875 345.125 C207.47980469 345.66382813 206.77210938 346.20265625 206.04296875 346.7578125 C204 348 204 348 201 348 C201 348.66 201 349.32 201 350 C198.38045638 351.42884197 195.76081034 352.85749116 193.140625 354.28515625 C191.14902191 355.37261117 189.15921221 356.46336233 187.171875 357.55859375 C182.64185902 360.05010254 178.09595252 362.50698383 173.5 364.875 C172.7059375 365.28492188 171.911875 365.69484375 171.09375 366.1171875 C169 367 169 367 166 367 C166 367.66 166 368.32 166 369 C164.02 369.33 162.04 369.66 160 370 C160 370.66 160 371.32 160 372 C159.26136719 372.3403125 158.52273438 372.680625 157.76171875 373.03125 C152.26847191 375.65572371 147.2434517 378.3920078 142.375 382.0625 C134.14784466 388.23875988 125.9920199 391.69824309 116 394 C115.33838867 394.17136475 114.67677734 394.34272949 113.99511719 394.51928711 C108.37949079 395.90477779 103.14563633 396.27592104 97.375 396.1875 C96.56804687 396.18685547 95.76109375 396.18621094 94.9296875 396.18554688 C87.95751833 396.13461382 81.59233349 395.41182933 75 393 C75 392.34 75 391.68 75 391 C73.8553125 391.0309375 73.8553125 391.0309375 72.6875 391.0625 C70 391 70 391 67 390 C67 389.34 67 388.68 67 388 C66.41226807 387.87778076 65.82453613 387.75556152 65.21899414 387.62963867 C62.97449099 386.99276183 61.44529912 386.18920028 59.49609375 384.92578125 C58.84374756 384.5086084 58.19140137 384.09143555 57.51928711 383.66162109 C56.83229736 383.21641113 56.14530762 382.77120117 55.4375 382.3125 C49.0828594 378.26961287 42.66286669 374.51651297 36 371 C34.88625 370.38640625 33.7725 369.7728125 32.625 369.140625 C22.99049586 363.85368115 13.09022734 359.3458482 3 355 C3 354.34 3 353.68 3 353 C2.43796875 352.88785156 1.8759375 352.77570313 1.296875 352.66015625 C-1.31513108 351.90942661 -3.39471322 350.78832624 -5.75 349.4375 C-6.54921875 348.98246094 -7.3484375 348.52742188 -8.171875 348.05859375 C-8.77515625 347.70925781 -9.3784375 347.35992187 -10 347 C-10 346.34 -10 345.68 -10 345 C-10.598125 344.71125 -11.19625 344.4225 -11.8125 344.125 C-14 343 -14 343 -17 341 C-17 340.34 -17 339.68 -17 339 C-17.59296875 338.7628125 -18.1859375 338.525625 -18.796875 338.28125 C-21.48100509 336.72026654 -22.57842113 335.10023379 -24.25 332.5 C-24.77078125 331.7059375 -25.2915625 330.911875 -25.828125 330.09375 C-27 328 -27 328 -27 326 C-27.66 326 -28.32 326 -29 326 C-29.23074219 325.41734375 -29.46148437 324.8346875 -29.69921875 324.234375 C-32.05828556 318.30407267 -34.51151057 312.42370902 -37.046875 306.56640625 C-38 304 -38 304 -38 301 C-38.66 301 -39.32 301 -40 301 C-40.391875 299.7625 -40.78375 298.525 -41.1875 297.25 C-42.45140502 293.43432466 -43.91796009 289.75711284 -45.5 286.0625 C-47.46038846 281.45882501 -49.03105792 276.89009648 -50.32421875 272.05859375 C-50.98711777 269.72951552 -50.98711777 269.72951552 -53 267 C-53.70905938 265.01463373 -54.37090235 263.01213334 -55 261 C-55.34160156 259.96101563 -55.68320313 258.92203125 -56.03515625 257.8515625 C-56.54369141 256.25441406 -56.54369141 256.25441406 -57.0625 254.625 C-57.40410156 253.56539062 -57.74570313 252.50578125 -58.09765625 251.4140625 C-60.15897038 243.61497788 -60.15463722 235.95436775 -60.125 227.9375 C-60.12886719 226.88755859 -60.13273437 225.83761719 -60.13671875 224.75585938 C-60.12997291 219.39628878 -59.94345556 214.27885852 -59 209 C-58.34 209 -57.68 209 -57 209 C-56.938125 208.21625 -56.87625 207.4325 -56.8125 206.625 C-55.22108094 199.52482264 -51.40557903 192.77282769 -47 187 C-46.34 187 -45.68 187 -45 187 C-45 186.01 -45 185.02 -45 184 C-44.360625 183.525625 -43.72125 183.05125 -43.0625 182.5625 C-40.65251399 180.73675302 -40.57173838 179.85869192 -40 177 C-39.34 176.67 -38.68 176.34 -38 176 C-37.67 175.01 -37.34 174.02 -37 173 C-36.34 173 -35.68 173 -35 173 C-33.13948057 168.87172298 -32.30780816 164.74763425 -31.5625 160.3125 C-30.45749192 154.05389488 -29.04374433 148.02977051 -27 142 C-26.34 142 -25.68 142 -25 142 C-24.814375 140.081875 -24.814375 140.081875 -24.625 138.125 C-24.25 134.25 -24.25 134.25 -22 132 C-21.67 131.01 -21.34 130.02 -21 129 C-20.34 129 -19.68 129 -19 129 C-18.731875 128.236875 -18.46375 127.47375 -18.1875 126.6875 C-17.03078648 124.06967466 -16.06505276 122.89296503 -14 121 C-13.01 119.515 -13.01 119.515 -12 118 C-11.01 116.515 -11.01 116.515 -10 115 C-9.34 115 -8.68 115 -8 115 C-7.13641377 113.21858253 -7.13641377 113.21858253 -7 111 C-8.89586384 108.85410577 -8.89586384 108.85410577 -11 107 C-11 106.34 -11 105.68 -11 105 C-11.99 104.67 -12.98 104.34 -14 104 C-14 103.34 -14 102.68 -14 102 C-15.11375 101.62875 -15.11375 101.62875 -16.25 101.25 C-20.40370476 99.36195238 -22.49764772 96.75352842 -25 93 C-25 92.34 -25 91.68 -25 91 C-25.66 91 -26.32 91 -27 91 C-27 90.34 -27 89.68 -27 89 C-27.66 89 -28.32 89 -29 89 C-29.33 87.35 -29.66 85.7 -30 84 C-30.66 84 -31.32 84 -32 84 C-32.33 82.68 -32.66 81.36 -33 80 C-33.66 80 -34.32 80 -35 80 C-35.33 78.02 -35.66 76.04 -36 74 C-36.66 74 -37.32 74 -38 74 C-38.4640625 72.3603125 -38.4640625 72.3603125 -38.9375 70.6875 C-39.58337897 68.44592006 -40.2623117 66.2130649 -41 64 C-41.66 64 -42.32 64 -43 64 C-43.53606366 61.0228781 -44.05405209 58.04435827 -44.5625 55.0625 C-44.71396484 54.23169922 -44.86542969 53.40089844 -45.02148438 52.54492188 C-45.99123456 46.7489731 -45.84111947 41.78834203 -45 36 C-44.88214461 34.62319823 -44.77382319 33.24554187 -44.67578125 31.8671875 C-43.55948684 18.69265504 -43.55948684 18.69265504 -38.6640625 14.0625 C-36.17577086 12.47373163 -33.91863087 12.06949121 -31 12 C-31 11.34 -31 10.68 -31 10 C-25.67067568 8.29915181 -20.56890517 7.47986031 -15 7 C-15 6.34 -15 5.68 -15 5 C-13.44033782 4.491217 -11.87710759 3.99336531 -10.3125 3.5 C-9.44238281 3.2215625 -8.57226562 2.943125 -7.67578125 2.65625 C-5.00608323 2.00149195 -2.73603316 1.88168505 0 2 C0 1.34 0 0.68 0 0 Z " fill="#010000" transform="translate(157,77)"/>
<path d="M0 0 C11.52164009 7.29840547 11.52164009 7.29840547 17 11 C17.33 8.03 17.66 5.06 18 2 C23.50095079 5.95682426 28.34239114 10.08040064 33 15 C33.33 13.02 33.66 11.04 34 9 C44.33689489 17.18337512 51.80667404 27.42002213 56 40 C56.70309302 47.13466525 56.39012737 53.13796404 52 59 C48.91041152 62.28313578 45.70263485 65.67505786 41 66 C39.08984375 64.76953125 39.08984375 64.76953125 36.9375 62.8125 C24.7003156 52.52173079 10.47907737 44.66768724 -4 38 C-5.19230225 37.44989258 -5.19230225 37.44989258 -6.40869141 36.88867188 C-8.89317052 35.74932976 -11.38225216 34.6211283 -13.875 33.5 C-14.65496338 33.14905273 -15.43492676 32.79810547 -16.23852539 32.43652344 C-19.97539952 30.64223964 -19.97539952 30.64223964 -24 30 C-23.05125 30.4640625 -22.1025 30.928125 -21.125 31.40625 C-0.71986419 41.66119117 23.12670433 55.22459786 38 73 C37.25919874 79.25430569 32.5863272 83.81972981 27.9140625 87.6171875 C19.28281451 93.85282381 9.88738638 95.35170206 -0.5625 95.25 C-1.36107422 95.25773437 -2.15964844 95.26546875 -2.98242188 95.2734375 C-9.41611583 95.25246376 -14.88581102 94.03806299 -21 92 C-20 90 -19 88 -18 86 C-22.62 85.01 -27.24 84.02 -32 83 C-32 80 -32 80 -30.5 78.3125 C-30.005 77.879375 -29.51 77.44625 -29 77 C-29.70511719 76.88785156 -30.41023438 76.77570313 -31.13671875 76.66015625 C-34.27389512 75.93685092 -36.90127906 74.80542309 -39.8125 73.4375 C-40.78832031 72.98246094 -41.76414063 72.52742188 -42.76953125 72.05859375 C-43.87361328 71.53458984 -43.87361328 71.53458984 -45 71 C-45 70.67 -45 70.34 -45 70 C-40.545 69.505 -40.545 69.505 -36 69 C-37.0828125 68.28972656 -38.165625 67.57945312 -39.28125 66.84765625 C-40.68761974 65.91945222 -42.09386327 64.99105696 -43.5 64.0625 C-44.21542969 63.59392578 -44.93085938 63.12535156 -45.66796875 62.64257812 C-47.46288408 61.45451512 -49.2336526 60.23013479 -51 59 C-51 58.67 -51 58.34 -51 58 C-46.545 57.505 -46.545 57.505 -42 57 C-43.0828125 56.28972656 -44.165625 55.57945312 -45.28125 54.84765625 C-46.68761974 53.91945222 -48.09386327 52.99105696 -49.5 52.0625 C-50.21542969 51.59392578 -50.93085938 51.12535156 -51.66796875 50.64257812 C-53.46288408 49.45451512 -55.2336526 48.23013479 -57 47 C-57 46.67 -57 46.34 -57 46 C-53.535 45.505 -53.535 45.505 -50 45 C-54.29 41.7 -58.58 38.4 -63 35 C-60.68055212 31.52082818 -58.73630036 30.70570234 -55 29 C-55.6496875 28.14535156 -56.299375 27.29070312 -56.96875 26.41015625 C-57.81262529 25.29436558 -58.6563685 24.17847501 -59.5 23.0625 C-59.92925781 22.49853516 -60.35851562 21.93457031 -60.80078125 21.35351562 C-64 17.11328125 -64 17.11328125 -64 16 C-57.4 15.01 -50.8 14.02 -44 13 C-44.33 12.01 -44.66 11.02 -45 10 C-45.66 10 -46.32 10 -47 10 C-47 9.34 -47 8.68 -47 8 C-47.99 7.67 -48.98 7.34 -50 7 C-46.89484695 6.03195926 -44.6488104 6.01878203 -41.453125 6.55859375 C-40.18662109 6.76645508 -40.18662109 6.76645508 -38.89453125 6.97851562 C-38.02183594 7.12998047 -37.14914063 7.28144531 -36.25 7.4375 C-35.36183594 7.58509766 -34.47367188 7.73269531 -33.55859375 7.88476562 C-31.37118754 8.24933333 -29.18542128 8.62371638 -27 9 C-28.65 6.69 -30.3 4.38 -32 2 C-31.35933594 2.19335938 -30.71867187 2.38671875 -30.05859375 2.5859375 C-25.04889015 4.0940748 -20.03460143 5.57717786 -15 7 C-15.66 5.02 -16.32 3.04 -17 1 C-11.53262809 2.74807129 -6.24175152 4.65794081 -1 7 C-0.67 4.69 -0.34 2.38 0 0 Z " fill="#6ABB49" transform="translate(190,90)"/>
<path d="M0 0 C0.495 3.465 0.495 3.465 1 7 C1.90363281 6.566875 2.80726563 6.13375 3.73828125 5.6875 C4.91777344 5.130625 6.09726562 4.57375 7.3125 4 C8.48425781 3.443125 9.65601563 2.88625 10.86328125 2.3125 C14 1 14 1 17 1 C16.34 2.98 15.68 4.96 15 7 C16.05960937 6.62746094 17.11921875 6.25492187 18.2109375 5.87109375 C19.59882289 5.39283595 20.98685122 4.91499278 22.375 4.4375 C23.42300781 4.0672168 23.42300781 4.0672168 24.4921875 3.68945312 C26.30959075 3.06908951 28.15391397 2.52893476 30 2 C30.99 2.495 30.99 2.495 32 3 C30.35 4.98 28.7 6.96 27 9 C27.92941406 8.855625 28.85882813 8.71125 29.81640625 8.5625 C31.67072266 8.2840625 31.67072266 8.2840625 33.5625 8 C34.78066406 7.814375 35.99882812 7.62875 37.25390625 7.4375 C40.87627848 7.01444923 44.35712046 6.92498575 48 7 C46.84826645 9.46800047 45.95216435 11.04783565 44 13 C50.6 13.99 57.2 14.98 64 16 C57.25 26.625 57.25 26.625 55 30 C59.455 31.98 59.455 31.98 64 34 C59.37951624 37.72619658 54.69017194 41.36230673 50 45 C52.31 45.33 54.62 45.66 57 46 C54.03352255 49.19249477 50.95036364 51.4592987 47.25 53.75 C46.26515625 54.36359375 45.2803125 54.9771875 44.265625 55.609375 C43.51796875 56.06828125 42.7703125 56.5271875 42 57 C44.97 57.33 47.94 57.66 51 58 C48.03352255 61.19249477 44.95036364 63.4592987 41.25 65.75 C40.26515625 66.36359375 39.2803125 66.9771875 38.265625 67.609375 C37.51796875 68.06828125 36.7703125 68.5271875 36 69 C38.97 69.33 41.94 69.66 45 70 C42.53859635 72.46140365 40.21543707 73.30326986 37 74.625 C35.9275 75.07101563 34.855 75.51703125 33.75 75.9765625 C31 77 31 77 29 77 C30.32 78.65 31.64 80.3 33 82 C28.47618873 84.04301154 23.83628305 85.00956295 19 86 C19 88.46278801 19.85452863 89.85224119 21 92 C5.12460918 96.22672846 -10.46833383 97.440138 -25.25 89.25 C-30.83386998 85.72935242 -34.37825551 81.43261674 -38 76 C-37.49007889 70.53190982 -32.88723974 67.39855817 -29 64 C-12.28227525 50.27114141 6.62775069 38.59803312 26 29 C2.8047669 36.19009744 -17.81430202 48.53890932 -37.25512695 62.83007812 C-39.10272799 64.0688782 -40.99243288 65.04645379 -43 66 C-48.62839202 62.27050723 -52.06206418 59.11090651 -55 53 C-55.33 52.34 -55.66 51.68 -56 51 C-57.322505 38.51208391 -52.58813348 29.58112573 -45 20 C-36.93509615 10.46754808 -36.93509615 10.46754808 -34 9 C-33.67 10.98 -33.34 12.96 -33 15 C-32.58113525 14.60619141 -32.16227051 14.21238281 -31.73071289 13.80664062 C-29.84370065 12.03519183 -27.95315944 10.26755528 -26.0625 8.5 C-25.0734668 7.56994141 -25.0734668 7.56994141 -24.06445312 6.62109375 C-23.43603516 6.03457031 -22.80761719 5.44804688 -22.16015625 4.84375 C-21.57886963 4.29912109 -20.99758301 3.75449219 -20.39868164 3.19335938 C-19 2 -19 2 -18 2 C-17.505 6.455 -17.505 6.455 -17 11 C-15.85660156 10.2059375 -14.71320313 9.411875 -13.53515625 8.59375 C-12.04435512 7.56237815 -10.55346512 6.53113476 -9.0625 5.5 C-7.93038086 4.71302734 -7.93038086 4.71302734 -6.77539062 3.91015625 C-5.69741211 3.16572266 -5.69741211 3.16572266 -4.59765625 2.40625 C-3.93258057 1.94541016 -3.26750488 1.48457031 -2.58227539 1.00976562 C-1 0 -1 0 0 0 Z " fill="#6ABC49" transform="translate(322,90)"/>
<path d="M0 0 C4.09341499 -0.02469575 8.18680121 -0.04285793 12.28027344 -0.05493164 C13.67318477 -0.0599643 15.0660908 -0.06679098 16.45898438 -0.07543945 C18.45961246 -0.08755152 20.46027888 -0.09270412 22.4609375 -0.09765625 C23.66540527 -0.10289307 24.86987305 -0.10812988 26.11083984 -0.11352539 C29 0 29 0 31 1 C32.65749436 1.11736724 34.31913459 1.17882161 35.98046875 1.2109375 C36.98013672 1.23929687 37.97980469 1.26765625 39.00976562 1.296875 C41.10855659 1.34847404 43.20753808 1.3928842 45.30664062 1.4296875 C51.27770906 1.61329499 55.69746798 2.19498306 61 5 C61 5.66 61 6.32 61 7 C62.2375 7.061875 63.475 7.12375 64.75 7.1875 C70.9699425 7.84223079 76.3648994 10.4160537 82 13 C82 13.66 82 14.32 82 15 C82.5775 15.061875 83.155 15.12375 83.75 15.1875 C86.92448483 16.33384174 88.12848575 18.25956842 90 21 C90 21.66 90 22.32 90 23 C90.66 23 91.32 23 92 23 C94.57025846 27.2837641 96.58707905 31.1725201 98 36 C98.66 36 99.32 36 100 36 C100.33 34.02 100.66 32.04 101 30 C101.66 30 102.32 30 103 30 C103.20625 29.34 103.4125 28.68 103.625 28 C107.23255402 20.12897304 112.88208459 14.74527694 120 10 C122.33333333 10 124.66666667 10 127 10 C128.85966548 9.79486999 130.71442974 9.54166823 132.5625 9.25 C133.45066406 9.11078125 134.33882812 8.9715625 135.25390625 8.828125 C138.15067609 8.14442011 138.15067609 8.14442011 140.53515625 5.9375 C145.83303055 2.97499081 150.9194587 3.57523242 156.875 3.75 C158.0403125 3.76804687 159.205625 3.78609375 160.40625 3.8046875 C163.27168249 3.8516618 166.13541168 3.91733707 169 4 C165.32584394 6.44943737 162.16178322 7.42034674 157.75 6.5625 C156.38875 6.2840625 156.38875 6.2840625 155 6 C148.22901207 5.38549017 144.55861757 5.80015561 139 10 C135.94088833 11.03894359 132.93918963 11.82267049 129.765625 12.421875 C124.64413533 13.418675 121.27656984 14.84348416 117 18 C116.01 18.33 115.02 18.66 114 19 C113.27782057 20.30410087 112.62293881 21.64568488 112 23 C110.7249531 24.90705066 109.43142721 26.80180789 108.125 28.6875 C104.80225252 33.61120763 102.12687018 38.45894347 100 44 C99.34 44 98.68 44 98 44 C97.36384766 42.64068359 97.36384766 42.64068359 96.71484375 41.25390625 C93.47430881 34.4766334 90.20563256 28.4250473 85.28515625 22.671875 C84 21 84 21 84 19 C83.484375 18.7525 82.96875 18.505 82.4375 18.25 C80 17 80 17 77.0625 15 C72.69401615 12.42249977 68.06034312 12.16012761 63.0859375 11.6875 C59.4697389 10.88186588 57.72731244 9.44979644 55 7 C49.42948413 4.21474207 41.18093613 6.10377158 35.2265625 6.9765625 C32.58062589 7.00441446 31.34212271 6.17326674 29 5 C23.65589058 4.4874479 18.18731071 4.38662808 13.0625 6.125 C9.39463882 7.17296034 8.3894902 6.47747009 5 5 C0.82541737 5.08882091 -0.6282949 5.64558351 -3.6875 8.5625 C-5.78368018 10.50934808 -6.70850618 10.97908565 -9.61328125 11.1875 C-11.54325058 11.10392893 -13.47295669 11.01404859 -15.40234375 10.91796875 C-19.11424973 11.03518683 -21.03846434 12.8576125 -24 15 C-26.56560979 15.70007964 -29.10729852 16.17431788 -31.73046875 16.60546875 C-34.15503261 16.9688583 -34.15503261 16.9688583 -37 18 C-39.22589981 22.56895224 -39.05881576 26.67850736 -38.93359375 31.62109375 C-39 34 -39 34 -40.0625 37.0625 C-41.54731713 41.714927 -40.70973534 46.31877762 -39.47265625 50.9921875 C-38.9555758 53.18871107 -38.85794927 55.24848667 -38.75 57.5 C-38.57713749 59.87269179 -38.57713749 59.87269179 -38 62 C-37.175 62.66 -36.35 63.32 -35.5 64 C-33 66 -33 66 -32.58984375 68.05859375 C-32.48829175 69.64436728 -32.38933262 71.23030899 -32.29296875 72.81640625 C-31.84849594 76.12921027 -30.3883088 77.74437502 -28 80 C-27.175 80.391875 -26.35 80.78375 -25.5 81.1875 C-22.01974922 83.71068181 -21.4610923 86.66532967 -20.02734375 90.62109375 C-18.64660171 93.81832531 -16.98300512 95.25385066 -14 97 C-13.113125 97.28875 -12.22625 97.5775 -11.3125 97.875 C-9 99 -9 99 -7.9375 102 C-7.628125 102.99 -7.31875 103.98 -7 105 C-5.24825871 106.10919628 -5.24825871 106.10919628 -3 107 C-2.07703125 107.42539063 -1.1540625 107.85078125 -0.203125 108.2890625 C1.25867188 108.95035156 1.25867188 108.95035156 2.75 109.625 C3.73484375 110.07101563 4.7196875 110.51703125 5.734375 110.9765625 C6.48203125 111.31429687 7.2296875 111.65203125 8 112 C8 112.66 8 113.32 8 114 C6.24429455 115.06186996 4.44249972 116.04775833 2.625 117 C-11.70570247 125.18656148 -19.75912465 137.32948464 -24.2734375 152.9921875 C-25.49679931 158.05664229 -26.01489943 162.59252041 -25.93359375 167.81005859 C-25.95038517 176.68642263 -25.95038517 176.68642263 -28.97265625 180.46875 C-30.68579114 181.76088265 -32.4442568 182.99462643 -34.23828125 184.171875 C-45.94583282 191.92171112 -52.71831145 205.80189492 -55.56640625 219.2109375 C-58.02122635 235.00140191 -52.7153427 250.85380161 -43.73120117 263.83300781 C-39.78521911 269.55678505 -38.4678848 275.24944446 -37.0625 282 C-31.98362058 304.54183088 -24.02494049 327.69581772 -4.3125 341.5625 C-0.37995209 343.9688786 3.62525611 345.56826564 8 347 C8 347.66 8 348.32 8 349 C8.57492188 349.27585937 9.14984375 349.55171875 9.7421875 349.8359375 C11.96897594 350.9840049 14.01710056 352.27262007 16.125 353.625 C25.38905484 359.2329145 35.6382808 363.46411153 45.8125 367.125 C49.44008473 368.5367504 51.17162213 370.09953382 53.5 373.29296875 C63.19752603 384.3289554 79.32131512 388.26669279 93.31640625 389.78125 C111.4138615 390.85596632 129.70511051 386.24291026 143.625 374.25 C145.25836785 372.72362131 146.82378591 371.19830661 148.30859375 369.52734375 C150.31632367 367.714359 152.12637471 366.9548928 154.6484375 365.984375 C156.0240686 365.443573 156.0240686 365.443573 157.42749023 364.8918457 C158.40016846 364.51503662 159.37284668 364.13822754 160.375 363.75 C176.42169331 357.40824636 176.42169331 357.40824636 190.26953125 347.328125 C192.36542195 345.71954071 194.39352665 344.95932651 196.875 344.0625 C212.1602932 338.36525435 219.64020958 324.12558182 226.08154297 310.05419922 C230.37299874 300.456031 233.27219804 291.12250664 235.375 280.8125 C237.05880965 272.65559344 239.24957027 266.89216291 244.00390625 260.0078125 C252.86510535 246.65532071 255.68629252 231.65379459 253 216 C249.50798949 202.91582785 242.22961087 191.80145091 232 183 C231.40590332 182.66887207 230.81180664 182.33774414 230.19970703 181.99658203 C227.25163066 180.2901182 225.34292497 179.13998704 224.33300781 175.78271484 C224.03577665 173.05288127 223.92653525 170.37035963 223.875 167.625 C222.89639074 150.04038902 217.46188162 135.51246637 204.5546875 123.07421875 C200.7574771 119.9911626 196.62483485 117.68951953 192.30859375 115.41015625 C191.54675781 114.94480469 190.78492188 114.47945313 190 114 C190 113.34 190 112.68 190 112 C190.96421875 111.57589844 191.9284375 111.15179688 192.921875 110.71484375 C200.95739514 107.47872141 200.95739514 107.47872141 206.4375 101.25 C208.50133425 96.95722475 210.70806805 96.76275777 215 95 C217.54470163 91.88980911 218.94994892 89.13195283 220.375 85.375 C222.30083773 81.37518317 224.2467225 80.23599511 228 78 C230.31110205 75.05987019 230.31110205 75.05987019 230.3125 71.125 C230.64910177 67.62561178 230.81637809 67.17903136 233.5 64.5625 C236.6049349 61.37994173 236.65086345 59.48042101 236.859375 55.18359375 C237.00021648 52.99663853 237.43842463 51.11318734 238 49 C239.08086514 43.28997508 238.95246649 38.74164956 237.46875 33.12890625 C237 31 237 31 237.0625 27.3125 C236.98803446 23.36582627 236.2009305 21.26344867 234 18 C231.11591557 16.31761741 228.89085943 15.98809376 225.5625 15.625 C222 15 222 15 219.25 12.9375 C215.66129415 10.7980792 214.53139597 10.85548237 210.5 11.0625 C206.60379429 11.22682976 204.45652314 11.18412281 201.4375 8.625 C200.2309375 7.325625 200.2309375 7.325625 199 6 C198.34 5.34 197.68 4.68 197 4 C201.75 4.75 201.75 4.75 204 7 C206.47430875 7.12005522 208.84396762 7.1401564 211.3125 7.0625 C215.72191754 6.96316934 219.70830891 6.92915251 224 8 C224 8.66 224 9.32 224 10 C224.66 9.896875 225.32 9.79375 226 9.6875 C230.35540696 10.14118823 233.66439585 12.20192146 237 15 C238.23828125 17.171875 238.23828125 17.171875 239 19 C239.66 19 240.32 19 241 19 C241.53737595 22.35173048 242.05186798 25.70659961 242.5625 29.0625 C242.71396484 30.00544922 242.86542969 30.94839844 243.02148438 31.91992188 C243.81990266 37.24889972 244.04838084 41.65825001 243 47 C242.81129083 48.39317178 242.6334249 49.78784336 242.46484375 51.18359375 C242.37783203 51.88291016 242.29082031 52.58222656 242.20117188 53.30273438 C242.11416016 54.00720703 242.02714844 54.71167969 241.9375 55.4375 C241.84662109 56.16904297 241.75574219 56.90058594 241.66210938 57.65429688 C241.44083632 59.43612723 241.22033671 61.21805361 241 63 C240.34 63 239.68 63 239 63 C238.88398438 63.69996094 238.76796875 64.39992188 238.6484375 65.12109375 C237.936661 68.28120991 236.87185072 71.07383662 235.625 74.0625 C235.20476562 75.08472656 234.78453125 76.10695313 234.3515625 77.16015625 C233.11294002 79.76269538 231.92165112 81.85741039 230 84 C229.34 84 228.68 84 228 84 C228 84.66 228 85.32 228 86 C227.34 86.33 226.68 86.66 226 87 C225.67 87.99 225.34 88.98 225 90 C224.34 90 223.68 90 223 90 C222.938125 90.9075 222.87625 91.815 222.8125 92.75 C221.80779529 96.76881884 220.31954371 97.6763194 217 100 C216.67 100.66 216.34 101.32 216 102 C215.29875 102.37125 214.5975 102.7425 213.875 103.125 C209.88547535 105.7268639 206.64572764 109.02759626 204 113 C204 114.32 204 115.64 204 117 C204.56074219 117.23074219 205.12148438 117.46148437 205.69921875 117.69921875 C216.19951119 123.63571685 223.45065318 137.08298 226.75 148.25 C228.79986027 156.86959879 231 166.13342106 231 175 C231.66 175 232.32 175 233 175 C234.5859375 176.609375 234.5859375 176.609375 236.375 178.75 C238.33757727 181.06903702 240.2588295 183.25219284 242.4375 185.375 C244 187 244 187 244 189 C244.66 189 245.32 189 246 189 C250 195.75 250 195.75 250 198 C250.66 198 251.32 198 252 198 C252.82165509 199.70394893 253.63190645 201.41339898 254.4375 203.125 C254.88996094 204.07632813 255.34242188 205.02765625 255.80859375 206.0078125 C258.53211988 212.84788141 258.21591855 219.99917209 258.25 227.25 C258.2809375 228.87228516 258.2809375 228.87228516 258.3125 230.52734375 C258.36012452 240.39752459 256.03915081 248.29599609 251.8125 257.125 C251.28269531 258.24132812 250.75289063 259.35765625 250.20703125 260.5078125 C249.80871094 261.33023437 249.41039062 262.15265625 249 263 C248.34 263 247.68 263 247 263 C246.896875 263.70125 246.79375 264.4025 246.6875 265.125 C246 268 246 268 244.5625 270.5625 C242.6810136 274.70177007 242.19456378 278.57094029 241.52734375 283.04296875 C240.95183983 286.27005369 240.02355864 289.06712751 238.78125 292.0859375 C237.94403651 294.13711056 237.24737648 296.20576038 236.5625 298.3125 C236.30984375 299.06917969 236.0571875 299.82585937 235.796875 300.60546875 C235.25625326 302.22998407 234.72530618 303.85774493 234.203125 305.48828125 C229.92997418 318.13905669 223.52506627 330.49469528 214 340 C213.34 340 212.68 340 212 340 C212 340.66 212 341.32 212 342 C210.35546875 343.5078125 210.35546875 343.5078125 208.1875 345.125 C207.47980469 345.66382813 206.77210938 346.20265625 206.04296875 346.7578125 C204 348 204 348 201 348 C201 348.66 201 349.32 201 350 C198.38045638 351.42884197 195.76081034 352.85749116 193.140625 354.28515625 C191.14902191 355.37261117 189.15921221 356.46336233 187.171875 357.55859375 C182.64185902 360.05010254 178.09595252 362.50698383 173.5 364.875 C172.7059375 365.28492188 171.911875 365.69484375 171.09375 366.1171875 C169 367 169 367 166 367 C166 367.66 166 368.32 166 369 C164.02 369.33 162.04 369.66 160 370 C160 370.66 160 371.32 160 372 C159.26136719 372.3403125 158.52273438 372.680625 157.76171875 373.03125 C152.26847191 375.65572371 147.2434517 378.3920078 142.375 382.0625 C134.14784466 388.23875988 125.9920199 391.69824309 116 394 C115.33838867 394.17136475 114.67677734 394.34272949 113.99511719 394.51928711 C108.37949079 395.90477779 103.14563633 396.27592104 97.375 396.1875 C96.56804687 396.18685547 95.76109375 396.18621094 94.9296875 396.18554688 C87.95751833 396.13461382 81.59233349 395.41182933 75 393 C75 392.34 75 391.68 75 391 C73.8553125 391.0309375 73.8553125 391.0309375 72.6875 391.0625 C70 391 70 391 67 390 C67 389.34 67 388.68 67 388 C66.41226807 387.87778076 65.82453613 387.75556152 65.21899414 387.62963867 C62.97449099 386.99276183 61.44529912 386.18920028 59.49609375 384.92578125 C58.84374756 384.5086084 58.19140137 384.09143555 57.51928711 383.66162109 C56.83229736 383.21641113 56.14530762 382.77120117 55.4375 382.3125 C49.0828594 378.26961287 42.66286669 374.51651297 36 371 C34.88625 370.38640625 33.7725 369.7728125 32.625 369.140625 C22.99049586 363.85368115 13.09022734 359.3458482 3 355 C3 354.34 3 353.68 3 353 C2.43796875 352.88785156 1.8759375 352.77570313 1.296875 352.66015625 C-1.31513108 351.90942661 -3.39471322 350.78832624 -5.75 349.4375 C-6.54921875 348.98246094 -7.3484375 348.52742188 -8.171875 348.05859375 C-8.77515625 347.70925781 -9.3784375 347.35992187 -10 347 C-10 346.34 -10 345.68 -10 345 C-10.598125 344.71125 -11.19625 344.4225 -11.8125 344.125 C-14 343 -14 343 -17 341 C-17 340.34 -17 339.68 -17 339 C-17.59296875 338.7628125 -18.1859375 338.525625 -18.796875 338.28125 C-21.48100509 336.72026654 -22.57842113 335.10023379 -24.25 332.5 C-24.77078125 331.7059375 -25.2915625 330.911875 -25.828125 330.09375 C-27 328 -27 328 -27 326 C-27.66 326 -28.32 326 -29 326 C-29.23074219 325.41734375 -29.46148437 324.8346875 -29.69921875 324.234375 C-32.05828556 318.30407267 -34.51151057 312.42370902 -37.046875 306.56640625 C-38 304 -38 304 -38 301 C-38.66 301 -39.32 301 -40 301 C-40.391875 299.7625 -40.78375 298.525 -41.1875 297.25 C-42.45140502 293.43432466 -43.91796009 289.75711284 -45.5 286.0625 C-47.46038846 281.45882501 -49.03105792 276.89009648 -50.32421875 272.05859375 C-50.98711777 269.72951552 -50.98711777 269.72951552 -53 267 C-53.70905938 265.01463373 -54.37090235 263.01213334 -55 261 C-55.34160156 259.96101563 -55.68320313 258.92203125 -56.03515625 257.8515625 C-56.54369141 256.25441406 -56.54369141 256.25441406 -57.0625 254.625 C-57.40410156 253.56539062 -57.74570313 252.50578125 -58.09765625 251.4140625 C-60.15897038 243.61497788 -60.15463722 235.95436775 -60.125 227.9375 C-60.12886719 226.88755859 -60.13273437 225.83761719 -60.13671875 224.75585938 C-60.12997291 219.39628878 -59.94345556 214.27885852 -59 209 C-58.34 209 -57.68 209 -57 209 C-56.938125 208.21625 -56.87625 207.4325 -56.8125 206.625 C-55.22108094 199.52482264 -51.40557903 192.77282769 -47 187 C-46.34 187 -45.68 187 -45 187 C-45 186.01 -45 185.02 -45 184 C-44.360625 183.525625 -43.72125 183.05125 -43.0625 182.5625 C-40.65251399 180.73675302 -40.57173838 179.85869192 -40 177 C-39.34 176.67 -38.68 176.34 -38 176 C-37.67 175.01 -37.34 174.02 -37 173 C-36.34 173 -35.68 173 -35 173 C-33.13948057 168.87172298 -32.30780816 164.74763425 -31.5625 160.3125 C-30.45749192 154.05389488 -29.04374433 148.02977051 -27 142 C-26.34 142 -25.68 142 -25 142 C-24.814375 140.081875 -24.814375 140.081875 -24.625 138.125 C-24.25 134.25 -24.25 134.25 -22 132 C-21.67 131.01 -21.34 130.02 -21 129 C-20.34 129 -19.68 129 -19 129 C-18.731875 128.236875 -18.46375 127.47375 -18.1875 126.6875 C-17.03078648 124.06967466 -16.06505276 122.89296503 -14 121 C-13.01 119.515 -13.01 119.515 -12 118 C-11.01 116.515 -11.01 116.515 -10 115 C-9.34 115 -8.68 115 -8 115 C-7.13641377 113.21858253 -7.13641377 113.21858253 -7 111 C-8.89586384 108.85410577 -8.89586384 108.85410577 -11 107 C-11 106.34 -11 105.68 -11 105 C-11.99 104.67 -12.98 104.34 -14 104 C-14 103.34 -14 102.68 -14 102 C-15.11375 101.62875 -15.11375 101.62875 -16.25 101.25 C-20.40370476 99.36195238 -22.49764772 96.75352842 -25 93 C-25 92.34 -25 91.68 -25 91 C-25.66 91 -26.32 91 -27 91 C-27 90.34 -27 89.68 -27 89 C-27.66 89 -28.32 89 -29 89 C-29.33 87.35 -29.66 85.7 -30 84 C-30.66 84 -31.32 84 -32 84 C-32.33 82.68 -32.66 81.36 -33 80 C-33.66 80 -34.32 80 -35 80 C-35.33 78.02 -35.66 76.04 -36 74 C-36.66 74 -37.32 74 -38 74 C-38.4640625 72.3603125 -38.4640625 72.3603125 -38.9375 70.6875 C-39.58337897 68.44592006 -40.2623117 66.2130649 -41 64 C-41.66 64 -42.32 64 -43 64 C-43.53606366 61.0228781 -44.05405209 58.04435827 -44.5625 55.0625 C-44.71396484 54.23169922 -44.86542969 53.40089844 -45.02148438 52.54492188 C-45.99123456 46.7489731 -45.84111947 41.78834203 -45 36 C-44.88214461 34.62319823 -44.77382319 33.24554187 -44.67578125 31.8671875 C-43.55948684 18.69265504 -43.55948684 18.69265504 -38.6640625 14.0625 C-36.17577086 12.47373163 -33.91863087 12.06949121 -31 12 C-31 11.34 -31 10.68 -31 10 C-25.67067568 8.29915181 -20.56890517 7.47986031 -15 7 C-15 6.34 -15 5.68 -15 5 C-13.44033782 4.491217 -11.87710759 3.99336531 -10.3125 3.5 C-9.44238281 3.2215625 -8.57226562 2.943125 -7.67578125 2.65625 C-5.00608323 2.00149195 -2.73603316 1.88168505 0 2 C0 1.34 0 0.68 0 0 Z " fill="#121212" transform="translate(157,77)"/>
<path d="M0 0 C0.80759766 -0.00773437 1.61519531 -0.01546875 2.44726562 -0.0234375 C13.95174784 0.01364383 25.28959879 3.86495558 34.1015625 11.4296875 C42.15129706 20.14269607 46.06688739 29.90236012 45.7421875 41.75390625 C44.88467361 53.6658927 39.75842166 64.22663934 30.9765625 72.34765625 C27.1007307 75.40191206 23.15280563 77.47108216 18.5625 79.25 C17.75554687 79.56839844 16.94859375 79.88679688 16.1171875 80.21484375 C5.2467035 83.82171688 -8.41541726 84.14388906 -18.984375 79.5078125 C-19.79390625 79.09273438 -20.6034375 78.67765625 -21.4375 78.25 C-22.74460938 77.59644531 -22.74460938 77.59644531 -24.078125 76.9296875 C-33.50840037 71.7628001 -39.66907685 64.39707385 -43.12109375 54.23828125 C-46.00527262 43.47731044 -45.52619073 32.20613403 -40.4375 22.25 C-34.1336595 11.69386472 -24.68907863 5.12403285 -13.21875 1.12890625 C-8.72055045 0.08335367 -4.59774781 -0.04382285 0 0 Z " fill="#C21949" transform="translate(256.4375,320.75)"/>
<path d="M0 0 C7.41890568 5.30858092 10.95688829 12.74696098 13.25 21.375 C13.43433594 21.97699219 13.61867188 22.57898438 13.80859375 23.19921875 C16.84738392 38.178034 12.46804163 52.87973203 4.25 65.375 C-2.63983933 74.20880551 -12.37179212 80.20349918 -23.48046875 82.125 C-35.35177345 83.43268245 -44.93575375 81.04149063 -54.74609375 74.07421875 C-61.37649396 68.45194957 -65.38906314 60.9226385 -66.75 52.375 C-67.80984201 35.53914913 -64.28109127 22.54727525 -53.5625 9.1875 C-39.63109607 -5.96864274 -17.91149757 -10.74689854 0 0 Z " fill="#C21949" transform="translate(229.75,245.625)"/>
<path d="M0 0 C9.34163004 7.65796416 16.57816341 19.43317235 18.703125 31.40234375 C19.43479787 44.93829181 18.86294398 56.60536255 9.703125 67.40234375 C0.64428868 75.98339334 -9.91765008 78.8158345 -22.140625 78.6796875 C-33.06858446 77.71943364 -43.15809183 71.42532645 -50.6015625 63.56640625 C-59.82627253 51.79108515 -63.55755031 38.18025989 -62.296875 23.40234375 C-60.7979272 12.6598845 -57.48129145 3.60280397 -49.046875 -3.53515625 C-33.71312583 -14.40724596 -14.51889523 -10.09902746 0 0 Z " fill="#C31949" transform="translate(330.296875,249.59765625)"/>
<path d="M0 0 C1.77697266 -0.02513672 1.77697266 -0.02513672 3.58984375 -0.05078125 C7.99718476 0.41027917 11.3999864 1.58775327 14.5234375 4.828125 C19.02667596 13.37273131 18.0839643 23.69974419 15.5625 32.75 C9.98433446 48.64287867 2.32169942 62.93652641 -12.9375 71.3125 C-13.5253125 71.65152344 -14.113125 71.99054688 -14.71875 72.33984375 C-19.31423772 74.52673155 -24.04516401 74.61579938 -29.0625 74.6875 C-29.7438501 74.70151855 -30.4252002 74.71553711 -31.12719727 74.72998047 C-35.79281315 74.68568126 -39.08188868 73.96113734 -42.9375 71.3125 C-47.10453691 65.01780229 -46.71273397 58.59231614 -45.9375 51.3125 C-41.79877645 33.47000292 -31.55131056 14.62835276 -15.8125 4.5 C-10.52699278 1.2870257 -6.23668044 0.02031492 0 0 Z " fill="#C11949" transform="translate(354.9375,341.6875)"/>
<path d="M0 0 C10.74620985 8.26380271 18.16162247 21.5340626 23 34 C23.47759766 35.19302734 23.47759766 35.19302734 23.96484375 36.41015625 C26.73303803 44.2554995 28.14665533 54.48667598 24.5 62.25 C21.24953027 65.8255167 18.64056714 66.59053819 14 67 C12.41058594 67.15662109 12.41058594 67.15662109 10.7890625 67.31640625 C-0.77669877 67.91639607 -8.55971173 64.1526965 -17.3125 56.8125 C-30.10927859 44.56942818 -36.67605352 27.42546557 -37.3125 10 C-37.24372768 4.56010951 -36.5671718 0.24866134 -33 -4 C-22.17420075 -11.2171995 -9.94695122 -6.41661841 0 0 Z " fill="#C11949" transform="translate(177,349)"/>
<path d="M0 0 C5.79421041 4.26114253 10.14615179 8.31129325 13 15 C13.59894614 19.70600541 13.10530074 23.23481862 10.51953125 27.30078125 C3.23401714 35.44782145 -8.92299049 38.52372848 -19.41381836 39.14233398 C-34.77449804 39.70373519 -48.66536356 39.40332594 -61 29 C-63.88425046 26.13700937 -66.80999096 22.92702984 -68 19 C-68 13.55480653 -66.33409481 10.11075259 -62.99609375 5.98828125 C-46.44246177 -10.50056156 -19.6778297 -10.70515308 0 0 Z " fill="#C11949" transform="translate(284,196)"/>
<path d="M0 0 C1.14316177 -0.00855011 1.14316177 -0.00855011 2.30941772 -0.01727295 C3.91801586 -0.02668104 5.52663291 -0.03324017 7.13525391 -0.03710938 C9.55797342 -0.04676357 11.97982464 -0.07780481 14.40234375 -0.109375 C26.65328378 -0.19317776 38.03315949 1.15119413 48.9609375 7.203125 C50.9609375 9.203125 50.9609375 9.203125 51.0234375 12.828125 C49.97351791 19.35178271 45.56171315 23.20698828 40.5078125 27.0859375 C26.07282708 36.83588379 11.06502267 39.75361727 -6.0390625 38.203125 C-18.81756856 35.23073337 -28.98921929 26.16740083 -37.0390625 16.203125 C-35.05581642 10.16138049 -31.51321999 8.07844005 -26.0390625 5.203125 C-17.40751431 1.71071882 -9.30544435 0.05501475 0 0 Z " fill="#C01949" transform="translate(249.0390625,416.796875)"/>
<path d="M0 0 C8.33225734 1.65238859 15.15835081 8.32442972 19.875 15.0625 C25.94758634 26.10021012 26.36194658 38.83154244 23.83203125 51.0625 C22.5669048 55.02828414 20.89137135 58.70270762 19.0625 62.4375 C18.56556641 63.45529541 18.56556641 63.45529541 18.05859375 64.49365234 C15.88313792 68.70755213 13.5458198 71.95366239 9.875 75.0625 C7.3125 75.1875 7.3125 75.1875 4.875 74.0625 C-7.11187792 61.21771432 -9.40619913 36.44494811 -9.5625 19.6875 C-9.57265137 18.93355957 -9.58280273 18.17961914 -9.59326172 17.40283203 C-9.50097866 11.60979582 -8.46481169 5.92673126 -4.71655273 1.33837891 C-3.125 0.0625 -3.125 0.0625 0 0 Z " fill="#C01948" transform="translate(371.125,264.9375)"/>
<path d="M0 0 C4.84198742 4.70364492 6.23617816 10.12755853 6.38037109 16.75805664 C6.34277991 32.01153507 4.02369199 47.11082067 -0.9375 61.5625 C-1.1658252 62.23418213 -1.39415039 62.90586426 -1.62939453 63.59790039 C-3.36527935 68.25496321 -5.70297057 71.37940423 -9 75 C-11.59287822 74.92373888 -13.41334037 74.47027139 -15.45703125 72.83203125 C-25.34354091 62.26729138 -28.50582026 47.95198356 -28.1796875 33.91015625 C-27.48566755 22.67005059 -23.87763422 14.29026715 -15.5 6.5625 C-6.06190092 -1.27618967 -6.06190092 -1.27618967 0 0 Z " fill="#C01948" transform="translate(144,265)"/>
<path d="M0 0 C1.72766602 0.01353516 1.72766602 0.01353516 3.49023438 0.02734375 C6.30621193 0.05071286 9.12174158 0.08347435 11.9375 0.125 C12.5234375 1.9609375 12.5234375 1.9609375 12.9375 4.125 C2.80136981 23.475794 -22.68142434 42.69287651 -42.0625 52.125 C-45.24218148 52.92656316 -47.76119965 53.125 -51.0625 53.125 C-51.96321393 39.91452906 -49.56322169 25.67043871 -41.0625 15.125 C-29.46713993 2.55037728 -16.4819049 -0.24727613 0 0 Z " fill="#C01949" transform="translate(197.0625,197.875)"/>
<path d="M0 0 C35.94215732 -0.8501602 35.94215732 -0.8501602 49.2890625 11.0390625 C59.76366405 22.14135553 63.51444948 35.77764539 63.10546875 50.83203125 C63.07066406 51.54746094 63.03585937 52.26289063 63 53 C54.07252699 54.4202798 47.06509883 48.21971861 40.16015625 43.28515625 C4.9919881 17.62525991 4.9919881 17.62525991 -1 4 C-0.55615234 1.87231445 -0.55615234 1.87231445 0 0 Z " fill="#C01949" transform="translate(303,198)"/>
<path d="M0 0 C4.75 0.75 4.75 0.75 7 3 C9.47430875 3.12005522 11.84396762 3.1401564 14.3125 3.0625 C18.72191754 2.96316934 22.70830891 2.92915251 27 4 C27 4.66 27 5.32 27 6 C27.66 5.896875 28.32 5.79375 29 5.6875 C33.35540696 6.14118823 36.66439585 8.20192146 40 11 C41.23828125 13.171875 41.23828125 13.171875 42 15 C42.66 15 43.32 15 44 15 C44.53737595 18.35173048 45.05186798 21.70659961 45.5625 25.0625 C45.78969727 26.47692383 45.78969727 26.47692383 46.02148438 27.91992188 C46.81990266 33.24889972 47.04838084 37.65825001 46 43 C45.81129083 44.39317178 45.6334249 45.78784336 45.46484375 47.18359375 C45.37783203 47.88291016 45.29082031 48.58222656 45.20117188 49.30273438 C45.0706543 50.35944336 45.0706543 50.35944336 44.9375 51.4375 C44.84662109 52.16904297 44.75574219 52.90058594 44.66210938 53.65429688 C44.44083632 55.43612723 44.22033671 57.21805361 44 59 C43.34 59 42.68 59 42 59 C41.88398438 59.69996094 41.76796875 60.39992187 41.6484375 61.12109375 C40.936661 64.28120991 39.87185072 67.07383662 38.625 70.0625 C38.20476562 71.08472656 37.78453125 72.10695313 37.3515625 73.16015625 C36.11294002 75.76269538 34.92165112 77.85741039 33 80 C32.34 80 31.68 80 31 80 C31 80.66 31 81.32 31 82 C30.01 82.495 30.01 82.495 29 83 C28.505 84.485 28.505 84.485 28 86 C27.34 86 26.68 86 26 86 C25.9071875 87.36125 25.9071875 87.36125 25.8125 88.75 C24.80779529 92.76881884 23.31954371 93.6763194 20 96 C19.67 96.66 19.34 97.32 19 98 C17.948125 98.556875 17.948125 98.556875 16.875 99.125 C12.88547535 101.7268639 9.64572764 105.02759626 7 109 C7 110.32 7 111.64 7 113 C7.56074219 113.23074219 8.12148438 113.46148437 8.69921875 113.69921875 C19.19951119 119.63571685 26.45065318 133.08298 29.75 144.25 C31.79986027 152.86959879 34 162.13342106 34 171 C34.66 171 35.32 171 36 171 C37.5859375 172.609375 37.5859375 172.609375 39.375 174.75 C41.33757727 177.06903702 43.2588295 179.25219284 45.4375 181.375 C47 183 47 183 47 185 C47.66 185 48.32 185 49 185 C53 191.75 53 191.75 53 194 C53.66 194 54.32 194 55 194 C55.82165509 195.70394893 56.63190645 197.41339898 57.4375 199.125 C57.88996094 200.07632813 58.34242188 201.02765625 58.80859375 202.0078125 C61.53211988 208.84788141 61.21591855 215.99917209 61.25 223.25 C61.270625 224.33152344 61.29125 225.41304687 61.3125 226.52734375 C61.34643337 233.56003518 60.45628336 239.41500825 58 246 C57.56300781 247.21429688 57.12601562 248.42859375 56.67578125 249.6796875 C52.54284131 259.36663556 52.54284131 259.36663556 47.625 261.8125 C46.42875 262.204375 45.2325 262.59625 44 263 C45.34794168 259.36125588 47.03703642 256.0010077 48.86938477 252.58398438 C56.3144785 238.49361269 59.25773707 224.1155511 55.0546875 208.484375 C51.04559192 197.28014761 44.0068162 184.0200725 33.19970703 177.99658203 C30.25163066 176.2901182 28.34292497 175.13998704 27.33300781 171.78271484 C27.03577665 169.05288127 26.92653525 166.37035963 26.875 163.625 C25.89639074 146.04038902 20.46188162 131.51246637 7.5546875 119.07421875 C3.7574771 115.9911626 -0.37516515 113.68951953 -4.69140625 111.41015625 C-5.45324219 110.94480469 -6.21507812 110.47945313 -7 110 C-7 109.34 -7 108.68 -7 108 C-5.55367188 107.36384766 -5.55367188 107.36384766 -4.078125 106.71484375 C3.95739514 103.47872141 3.95739514 103.47872141 9.4375 97.25 C11.50133425 92.95722475 13.70806805 92.76275777 18 91 C20.54470163 87.88980911 21.94994892 85.13195283 23.375 81.375 C25.30083773 77.37518317 27.2467225 76.23599511 31 74 C33.31110205 71.05987019 33.31110205 71.05987019 33.3125 67.125 C33.64910177 63.62561178 33.81637809 63.17903136 36.5 60.5625 C39.6049349 57.37994173 39.65086345 55.48042101 39.859375 51.18359375 C40.00021648 48.99663853 40.43842463 47.11318734 41 45 C42.08086514 39.28997508 41.95246649 34.74164956 40.46875 29.12890625 C40 27 40 27 40.0625 23.3125 C39.98803446 19.36582627 39.2009305 17.26344867 37 14 C34.11591557 12.31761741 31.89085943 11.98809376 28.5625 11.625 C25 11 25 11 22.25 8.9375 C18.66129415 6.7980792 17.53139597 6.85548237 13.5 7.0625 C9.60379429 7.22682976 7.45652314 7.18412281 4.4375 4.625 C3.633125 3.75875 2.82875 2.8925 2 2 C1.34 1.34 0.68 0.68 0 0 Z " fill="#171717" transform="translate(354,81)"/>
<path d="M0 0 C1.1653125 0.01804687 2.330625 0.03609375 3.53125 0.0546875 C6.39668249 0.1016618 9.26041168 0.16733707 12.125 0.25 C8.45084394 2.69943737 5.28678322 3.67034674 0.875 2.8125 C-0.48625 2.5340625 -0.48625 2.5340625 -1.875 2.25 C-8.64598793 1.63549017 -12.31638243 2.05015561 -17.875 6.25 C-20.93411167 7.28894359 -23.93581037 8.07267049 -27.109375 8.671875 C-32.23086467 9.668675 -35.59843016 11.09348416 -39.875 14.25 C-40.865 14.58 -41.855 14.91 -42.875 15.25 C-43.59717943 16.55410087 -44.25206119 17.89568488 -44.875 19.25 C-46.1500469 21.15705066 -47.44357279 23.05180789 -48.75 24.9375 C-52.07274748 29.86120763 -54.74812982 34.70894347 -56.875 40.25 C-57.535 40.25 -58.195 40.25 -58.875 40.25 C-59.51115234 38.89068359 -59.51115234 38.89068359 -60.16015625 37.50390625 C-63.40069119 30.7266334 -66.66936744 24.6750473 -71.58984375 18.921875 C-72.875 17.25 -72.875 17.25 -72.875 15.25 C-73.390625 15.0025 -73.90625 14.755 -74.4375 14.5 C-76.875 13.25 -76.875 13.25 -79.8125 11.25 C-84.22607901 8.63454577 -88.95597373 8.40525826 -93.984375 7.9375 C-96.875 7.25 -96.875 7.25 -98.765625 5.1875 C-99.13171875 4.548125 -99.4978125 3.90875 -99.875 3.25 C-99.32070312 3.58257812 -98.76640625 3.91515625 -98.1953125 4.2578125 C-95.45145455 5.43111203 -93.71150169 5.32358466 -90.75 5.125 C-84.74118083 4.97942968 -80.22474865 6.65055597 -74.875 9.25 C-74.875 9.91 -74.875 10.57 -74.875 11.25 C-74.2975 11.311875 -73.72 11.37375 -73.125 11.4375 C-69.95051517 12.58384174 -68.74651425 14.50956842 -66.875 17.25 C-66.875 17.91 -66.875 18.57 -66.875 19.25 C-66.215 19.25 -65.555 19.25 -64.875 19.25 C-62.30474154 23.5337641 -60.28792095 27.4225201 -58.875 32.25 C-58.215 32.25 -57.555 32.25 -56.875 32.25 C-56.545 30.27 -56.215 28.29 -55.875 26.25 C-55.215 26.25 -54.555 26.25 -53.875 26.25 C-53.66875 25.59 -53.4625 24.93 -53.25 24.25 C-49.64244598 16.37897304 -43.99291541 10.99527694 -36.875 6.25 C-34.54166667 6.25 -32.20833333 6.25 -29.875 6.25 C-28.01533452 6.04486999 -26.16057026 5.79166823 -24.3125 5.5 C-22.98025391 5.29117188 -22.98025391 5.29117188 -21.62109375 5.078125 C-18.72432391 4.39442011 -18.72432391 4.39442011 -16.33984375 2.1875 C-11.04196945 -0.77500919 -5.9555413 -0.17476758 0 0 Z " fill="#0B0B0B" transform="translate(313.875,80.75)"/>
<path d="M0 0 C37.97215548 -0.67406193 37.97215548 -0.67406193 49 6 C49.495 6.99 49.495 6.99 50 8 C41.37219731 8.49775785 41.37219731 8.49775785 37 5 C33.01926125 4.62445861 30.2024954 4.9371566 26.375 6.125 C23 7 23 7 20.81225586 6.07568359 C17.09072711 4.6522045 13.55806746 4.67549824 9.62890625 4.6640625 C8.82895737 4.6574057 8.02900848 4.6507489 7.20481873 4.64389038 C5.51799814 4.63379489 3.83113787 4.6290724 2.14428711 4.62939453 C-0.42596615 4.62501963 -2.99450308 4.58866507 -5.56445312 4.55078125 C-7.2083275 4.54491259 -8.85220998 4.54094353 -10.49609375 4.5390625 C-11.2587706 4.52469147 -12.02144745 4.51032043 -12.80723572 4.49551392 C-18.03070686 4.53989728 -20.74946962 5.74770321 -25 9 C-27.8515625 9.86328125 -27.8515625 9.86328125 -30.625 10.3125 C-31.54539062 10.47363281 -32.46578125 10.63476562 -33.4140625 10.80078125 C-35.91631059 10.99355263 -37.63238991 10.77253005 -40 10 C-36.69996606 7.79997737 -34.37450846 7.39575141 -30.546875 6.7578125 C-27.77374987 6.06664427 -27.77374987 6.06664427 -24.88671875 3.9453125 C-20.16068905 1.13113602 -15.41222211 1.55985267 -10.0625 1.75 C-9.09248047 1.76804687 -8.12246094 1.78609375 -7.12304688 1.8046875 C-4.74765106 1.85149333 -2.37436156 1.91703615 0 2 C0 1.34 0 0.68 0 0 Z " fill="#040404" transform="translate(320,77)"/>
<path d="M0 0 C1.90845703 0.15275391 1.90845703 0.15275391 3.85546875 0.30859375 C4.83128906 0.39238281 5.80710938 0.47617188 6.8125 0.5625 C6.8125 0.8925 6.8125 1.2225 6.8125 1.5625 C6.01585937 1.58828125 5.21921875 1.6140625 4.3984375 1.640625 C-2.1656962 1.99198982 -5.77981367 2.68307285 -11.1875 6.5625 C-12.8646338 6.90883495 -14.55459198 7.19601016 -16.25 7.4375 C-19.85285971 8.04429743 -21.80867091 8.61396399 -24.1875 11.4375 C-25.68944537 13.78428964 -27.10348916 16.00029256 -28.1875 18.5625 C-28.5175 18.5625 -28.8475 18.5625 -29.1875 18.5625 C-29.63500034 15.50458098 -29.64777197 13.34879795 -28.0625 10.640625 C-25.45732991 7.3570252 -23.93255078 5.76945855 -19.8125 4.625 C-18.94625 4.604375 -18.08 4.58375 -17.1875 4.5625 C-17.1875 3.9025 -17.1875 3.2425 -17.1875 2.5625 C-16.094375 2.253125 -15.00125 1.94375 -13.875 1.625 C-8.69240381 0.13170957 -5.41947063 -0.44747923 0 0 Z " fill="#040404" transform="translate(143.1875,84.4375)"/>
<path d="M0 0 C1.1653125 0.01804687 2.330625 0.03609375 3.53125 0.0546875 C6.39668249 0.1016618 9.26041168 0.16733707 12.125 0.25 C8.45084394 2.69943737 5.28678322 3.67034674 0.875 2.8125 C-0.48625 2.5340625 -0.48625 2.5340625 -1.875 2.25 C-8.64598793 1.63549017 -12.31638243 2.05015561 -17.875 6.25 C-20.93411167 7.28894359 -23.93581037 8.07267049 -27.109375 8.671875 C-32.24746535 9.67190601 -35.54508945 11.15720675 -39.875 14.25 C-40.865 14.25 -41.855 14.25 -42.875 14.25 C-36.24089599 8.26312565 -30.42259189 6.08402104 -21.62109375 4.97265625 C-18.71737779 4.40933885 -18.71737779 4.40933885 -16.33984375 2.19921875 C-11.04403225 -0.78004837 -5.96077854 -0.17492127 0 0 Z " fill="#383838" transform="translate(313.875,80.75)"/>
<path d="M0 0 C0.33 0 0.66 0 1 0 C1.18451025 9.41002278 1.18451025 9.41002278 0 14 C-0.66 14 -1.32 14 -2 14 C-2.0825 14.639375 -2.165 15.27875 -2.25 15.9375 C-3.2831832 20.15633138 -4.76095396 24.26310937 -7 28 C-7.99 28.33 -8.98 28.66 -10 29 C-8.48617102 17.62636387 -8.48617102 17.62636387 -4 13 C-1.54965922 9.26000618 -1.50012341 5.35821833 -1 1 C-0.67 0.67 -0.34 0.34 0 0 Z " fill="#030303" transform="translate(398,126)"/>
<path d="M0 0 C0.66 0.33 1.32 0.66 2 1 C1.38125 1.20625 0.7625 1.4125 0.125 1.625 C-2.84653645 3.54775888 -3.13024659 5.66594527 -4 9 C-2.68 10.32 -1.36 11.64 0 13 C-3.44360632 13 -4.74795392 12.20408468 -7.6875 10.5 C-8.49574219 10.0359375 -9.30398438 9.571875 -10.13671875 9.09375 C-11.05904297 8.55234375 -11.05904297 8.55234375 -12 8 C-12 7.34 -12 6.68 -12 6 C-10.04669132 4.96958487 -8.08718472 3.9509107 -6.125 2.9375 C-5.03445313 2.36902344 -3.94390625 1.80054688 -2.8203125 1.21484375 C-1.42425781 0.61349609 -1.42425781 0.61349609 0 0 Z " fill="#404040" transform="translate(359,183)"/>
<path d="M0 0 C0 0.99 0 1.98 0 3 C-0.66 3.66 -1.32 4.32 -2 5 C-2.49416119 6.99992488 -2.49416119 6.99992488 -2.8125 9.25 C-3.81164283 14.12770513 -5.39823386 16.56974653 -9 20 C-11.3125 20.875 -11.3125 20.875 -13 21 C-13.103125 21.53625 -13.20625 22.0725 -13.3125 22.625 C-14.18092697 25.62502044 -15.55620296 28.2379535 -17 31 C-18 29 -18 29 -17.43359375 26.9765625 C-15.14373899 21.57070929 -13.25501405 18.97022534 -8 16 C-5.68889795 13.05987019 -5.68889795 13.05987019 -5.6875 9.125 C-5.34145189 5.51811393 -4.98186056 4.97876358 -2.4375 2 C-1.633125 1.34 -0.82875 0.68 0 0 Z " fill="#424242" transform="translate(393,139)"/>
<path d="M0 0 C-0.5625 1.875 -0.5625 1.875 -2 4 C-7.19076517 6.01274568 -12.47893763 6.5242622 -18 7 C-15.68186264 4.27321663 -13.99984609 3.53830691 -10.5 2.9375 C-6.56963653 2.24968639 -3.9014324 0 0 0 Z " fill="#020202" transform="translate(298,81)"/>
<path d="M0 0 C1.25361328 0.00322266 2.50722656 0.00644531 3.79882812 0.00976562 C5.76432617 0.02233398 5.76432617 0.02233398 7.76953125 0.03515625 C9.10481606 0.04017308 10.44010266 0.04473566 11.77539062 0.04882812 C15.04431598 0.0606293 18.31315116 0.07709328 21.58203125 0.09765625 C21.58203125 0.42765625 21.58203125 0.75765625 21.58203125 1.09765625 C20.79699219 1.14664063 20.01195312 1.195625 19.203125 1.24609375 C12.31502012 1.66780745 12.31502012 1.66780745 5.64453125 3.28515625 C1.96277926 4.26194759 1.00013049 3.51491691 -2.41796875 2.09765625 C-5.15470121 2.20528056 -7.70787187 2.6383178 -10.41796875 3.09765625 C-8.3997653 -0.93875065 -3.97476603 -0.01798537 0 0 Z " fill="#313131" transform="translate(164.41796875,79.90234375)"/>
<path d="M0 0 C4.89190898 0.61148862 9.57553286 1.79304622 14 4 C14.33 4.66 14.66 5.32 15 6 C6.39636076 6.68829114 6.39636076 6.68829114 2.4375 4.125 C1.633125 3.42375 0.82875 2.7225 0 2 C0 1.34 0 0.68 0 0 Z " fill="#010101" transform="translate(355,79)"/>
<path d="M0 0 C0.81210938 0.41378906 0.81210938 0.41378906 1.640625 0.8359375 C4.31904312 2.15740869 7.02885041 3.39400376 9.75 4.625 C11.22726563 5.29402344 11.22726563 5.29402344 12.734375 5.9765625 C13.85585937 6.48316406 13.85585937 6.48316406 15 7 C15 7.66 15 8.32 15 9 C13.02 9.66 11.04 10.32 9 11 C9 9.68 9 8.36 9 7 C7.28498551 5.49478253 7.28498551 5.49478253 5.0625 4.375 C1.08658537 2.17317073 1.08658537 2.17317073 0 0 Z " fill="#545454" transform="translate(150,182)"/>
<path d="M0 0 C7.74136601 -0.10920422 15.31395526 0.02840067 23 1 C21.1875 2.546875 21.1875 2.546875 19 4 C16 3.25 16 3.25 14.21484375 2.6171875 C9.61513737 1.3354351 4.74863096 1.2963021 0 1 C0 0.67 0 0.34 0 0 Z " fill="#404040" transform="translate(326,80)"/>
<path d="M0 0 C0.54140625 0.32742187 1.0828125 0.65484375 1.640625 0.9921875 C4.50719067 2.21664767 6.6452987 2.19892146 9.75 2.125 C10.73484375 2.10695313 11.7196875 2.08890625 12.734375 2.0703125 C13.48203125 2.04710938 14.2296875 2.02390625 15 2 C15.33 2.99 15.66 3.98 16 5 C13.89504036 4.93994409 11.79088565 4.85114641 9.6875 4.75 C8.51574219 4.70359375 7.34398437 4.6571875 6.13671875 4.609375 C3 4 3 4 1.08203125 1.953125 C0.54642578 0.98632812 0.54642578 0.98632812 0 0 Z " fill="#1A1A1A" transform="translate(214,84)"/>
<path d="M0 0 C4.29 0 8.58 0 13 0 C9.03316008 2.64455995 5.84717515 3.28109187 1.125 2.5625 C0.42375 2.376875 -0.2775 2.19125 -1 2 C-0.67 1.34 -0.34 0.68 0 0 Z " fill="#3D3D3D" transform="translate(313,81)"/>
<path d="M0 0 C0.45375 0.66 0.9075 1.32 1.375 2 C1.91125 2.66 2.4475 3.32 3 4 C3.66 4 4.32 4 5 4 C6.63676257 2.0399719 6.63676257 2.0399719 8 0 C7.44271087 3.34373475 6.64826111 6.03312999 5 9 C4.34 9 3.68 9 3 9 C0 3.375 0 3.375 0 0 Z " fill="#262626" transform="translate(252,112)"/>
<path d="" fill="#000000" transform="translate(0,0)"/>
<path d="" fill="#000000" transform="translate(0,0)"/>
</svg>
