<?xml version="1.0" encoding="UTF-8"?>
<svg version="1.1" xmlns="http://www.w3.org/2000/svg" width="256" height="256">
<path d="M0 0 C2.9375 1.9375 2.9375 1.9375 5 5 C5.76307511 9.9838343 5.83086382 13.75370427 3 18 C2.34 18 1.68 18 1 18 C1 18.66 1 19.32 1 20 C-5.61251983 24.40834655 -15.29203728 23.23074872 -23 23.4375 C-33.2870461 23.75033431 -43.5015114 24.3283449 -53.74414062 25.33959961 C-60.84307759 26.01292843 -67.87156393 26.0957075 -75 26 C-74.98428955 27.39508789 -74.98428955 27.39508789 -74.96826172 28.81835938 C-74.75701353 49.63340278 -75.06037799 70.38864097 -75.9375 91.1875 C-75.98106628 92.24936523 -76.02463257 93.31123047 -76.06951904 94.40527344 C-76.19551675 97.43062556 -76.3284709 100.45556816 -76.46484375 103.48046875 C-76.50344009 104.38609055 -76.54203644 105.29171234 -76.58180237 106.22477722 C-76.62175827 107.06092056 -76.66171417 107.8970639 -76.70288086 108.75854492 C-76.73619003 109.48474533 -76.76949921 110.21094574 -76.80381775 110.95915222 C-77.00536597 113.0558212 -77.48616489 114.96071541 -78 117 C-78.09141977 119.40366682 -78.13159633 121.809456 -78.140625 124.21484375 C-78.15894743 125.63738588 -78.17851722 127.05991238 -78.19921875 128.48242188 C-78.22819797 130.71210307 -78.25000072 132.94077237 -78.25048828 135.1706543 C-78.25383087 137.33211787 -78.28840714 139.49128131 -78.328125 141.65234375 C-78.3374707 142.94132568 -78.34681641 144.23030762 -78.35644531 145.55834961 C-79.15744407 149.84199131 -80.63506981 151.31980859 -84 154 C-87.42529787 154.90984475 -90.53906318 154.72173888 -94 154 C-97.34625024 151.47323961 -98.67977847 149.96066458 -100 146 C-100.09590461 143.61740382 -100.13074273 141.23218093 -100.1328125 138.84765625 C-100.13376923 138.15111435 -100.13472595 137.45457245 -100.13571167 136.73692322 C-100.1363915 135.26512563 -100.13455095 133.79332502 -100.13037109 132.3215332 C-100.12502809 130.07431255 -100.13031853 127.8272925 -100.13671875 125.58007812 C-100.13605778 124.14843706 -100.13477621 122.71679612 -100.1328125 121.28515625 C-100.13168457 119.98457275 -100.13055664 118.68398926 -100.12939453 117.34399414 C-100 114 -100 114 -99.50949097 112.05906677 C-98.9742936 109.89610967 -98.81040765 107.93558562 -98.71875 105.7109375 C-98.68198151 104.86523193 -98.64521301 104.01952637 -98.60733032 103.14819336 C-98.57191132 102.23303955 -98.53649231 101.31788574 -98.5 100.375 C-98.45966644 99.41150635 -98.41933289 98.4480127 -98.3777771 97.45532227 C-98.24738413 94.30371252 -98.1234367 91.15188929 -98 88 C-97.91236153 85.8346318 -97.8246331 83.66926723 -97.73681641 81.50390625 C-96.99744962 63.00681965 -96.43707823 44.50653173 -96 26 C-97.06436279 26.02618408 -98.12872559 26.05236816 -99.2253418 26.0793457 C-103.18541327 26.17004776 -107.14539351 26.22732089 -111.10620117 26.2746582 C-112.81827245 26.29975714 -114.53023704 26.33384429 -116.24194336 26.37719727 C-118.70713645 26.43805739 -121.17090985 26.46625432 -123.63671875 26.48828125 C-124.77919319 26.52699089 -124.77919319 26.52699089 -125.94474792 26.56648254 C-129.9458588 26.56858013 -131.77166347 26.17862037 -134.96020508 23.68432617 C-137.52953611 20.30314189 -138 18.23435586 -138 14 C-136.72664868 10.10504301 -135.79137221 8.47648774 -132.26486206 6.35316467 C-128.83302661 4.9307957 -126.5168435 4.61717422 -122.82470703 4.59936523 C-121.62129669 4.58602646 -120.41788635 4.57268768 -119.17800903 4.5589447 C-117.88434418 4.55882889 -116.59067932 4.55871307 -115.2578125 4.55859375 C-113.88897314 4.54678568 -112.52014648 4.53341326 -111.15133667 4.51856995 C-107.54055797 4.4824239 -103.92989116 4.46222789 -100.31896973 4.44702148 C-93.92342654 4.41926583 -87.52809439 4.37241971 -81.1328125 4.30859375 C-80.43935856 4.30205654 -79.74590462 4.29551933 -79.03143692 4.28878403 C-68.01107516 4.1729851 -57.10566668 3.50412881 -46.13330078 2.46118164 C-38.20381657 1.71225448 -30.26907762 1.58181744 -22.30859375 1.43359375 C-21.17292969 1.40394531 -20.03726563 1.37429687 -18.8671875 1.34375 C-17.87831543 1.32505859 -16.88944336 1.30636719 -15.87060547 1.28710938 C-0.80543456 -0.21966397 -0.80543456 -0.21966397 0 0 Z " fill="#060606" transform="translate(174,48)"/>
<path d="M0 0 C2.7097168 2.05932617 2.7097168 2.05932617 5 5 C5.3708357 7.87478532 5.45799492 10.088158 5.26953125 12.92578125 C5.22562508 14.04716743 5.22562508 14.04716743 5.18083191 15.19120789 C5.08226687 17.56678529 4.94794249 19.93876818 4.8125 22.3125 C4.73916601 23.92762849 4.66817655 25.54286525 4.59960938 27.15820312 C4.42686834 31.1072387 4.22205127 35.0534425 4 39 C5.485 38.505 5.485 38.505 7 38 C18.66476154 36.78373523 28.22454128 37.08805949 38 44 C39.59697351 44.82654859 41.20096659 45.63971118 42.8125 46.4375 C48.31442726 49.48426617 51.56481381 53.84722071 55 59 C55.24291992 61.98339844 55.24291992 61.98339844 55.23046875 65.609375 C55.22853516 66.92164063 55.22660156 68.23390625 55.22460938 69.5859375 C55.21840576 70.27010742 55.21220215 70.95427734 55.20581055 71.65917969 C55.18768704 73.72864268 55.18530015 75.79765382 55.18554688 77.8671875 C55.11305713 94.33041431 55.11305713 94.33041431 52 99 C51.83128267 100.78674413 51.73419535 102.58091536 51.6875 104.375 C51.37484466 108.18233523 51.08968814 109.85244854 49.0625 113.1875 C44.70516717 115.76632963 40.94066114 116.0303185 36 115 C32.65374976 112.47323961 31.32022153 110.96066458 30 107 C29.54531139 101.25518424 29.46967274 95.87724473 31.5 90.4375 C34.2134882 82.70469561 33.22385885 74.07550065 33 66 C23.74226331 60.65532727 16.53371388 58.19100963 6 61 C6 61.66 6 62.32 6 63 C5.34 63 4.68 63 4 63 C4.03029297 63.67240723 4.06058594 64.34481445 4.09179688 65.03759766 C4.39172801 71.833345 4.65305157 78.6296368 4.87988281 85.42822266 C4.95703359 87.72236067 5.03928014 90.01633614 5.12792969 92.31005859 C5.23715163 95.31086158 5.31144237 98.3104269 5.375 101.3125 C5.41302734 102.21758301 5.45105469 103.12266602 5.49023438 104.05517578 C5.54742979 108.46174579 5.43507121 110.39658851 2.7890625 114.06640625 C-0.95632941 116.66300148 -3.1925463 116.71389117 -7.62109375 116.49609375 C-11.2664039 115.73590592 -12.86826562 113.95692188 -15 111 C-18.77629627 99.67111118 -17.17624529 85.09670167 -17.203125 73.21875 C-17.20595238 72.36080338 -17.20877975 71.50285675 -17.21169281 70.61891174 C-17.22652005 66.09684967 -17.23585847 61.57481827 -17.24023438 57.05273438 C-17.2457604 52.40842054 -17.26992134 47.76439373 -17.29820633 43.12017059 C-17.3168615 39.51695927 -17.32203938 35.91381766 -17.32357025 32.31056213 C-17.32658011 30.59784846 -17.33455171 28.88513552 -17.34775543 27.17247009 C-17.36491165 24.78077105 -17.36291515 22.38978336 -17.35644531 19.99804688 C-17.3656601 19.30388672 -17.37487488 18.60972656 -17.3843689 17.89453125 C-17.33281018 11.77498651 -15.93165687 6.35420681 -12 1.5625 C-7.97217943 -1.58423482 -4.7929429 -1.15691725 0 0 Z " fill="#050505" transform="translate(144,88)"/>
<path d="M0 0 C0.95583984 -0.01224609 1.91167969 -0.02449219 2.89648438 -0.03710938 C3.80591797 -0.03904297 4.71535156 -0.04097656 5.65234375 -0.04296875 C6.85685181 -0.04913208 6.85685181 -0.04913208 8.08569336 -0.05541992 C10.0625 0.1875 10.0625 0.1875 12.0625 2.1875 C12.3125 5.1875 12.3125 5.1875 12.0625 8.1875 C9.73448568 10.51551432 9.19024002 10.47664275 6.02880859 10.67407227 C5.19021805 10.73078094 4.3516275 10.78748962 3.48762512 10.84591675 C2.11316475 10.92412155 2.11316475 10.92412155 0.7109375 11.00390625 C-0.72159111 11.09564621 -0.72159111 11.09564621 -2.18305969 11.1892395 C-5.30901664 11.3860759 -8.43561427 11.5685636 -11.5625 11.75 C-13.69996612 11.88037033 -15.83741727 12.0109864 -17.97485352 12.1418457 C-34.95421655 13.15996558 -51.9314491 13.84461315 -68.9375 14.1875 C-68.793125 15.42242187 -68.64875 16.65734375 -68.5 17.9296875 C-67.5409204 26.51020751 -66.73266399 35.04800467 -66.6875 43.6875 C-66.67847656 44.3666748 -66.66945312 45.04584961 -66.66015625 45.74560547 C-66.68410907 49.90640982 -67.17941798 53.81831023 -67.91796875 57.9140625 C-69.04863906 64.30270274 -69.33926331 70.58598743 -69.5 77.0625 C-69.56025812 79.22666408 -69.6239481 81.39073588 -69.69140625 83.5546875 C-69.71533447 84.49425293 -69.7392627 85.43381836 -69.76391602 86.40185547 C-69.9375 89.1875 -69.9375 89.1875 -70.45117188 92.06225586 C-71.01335956 95.67498908 -71.02625339 99.18201327 -70.96484375 102.82421875 C-70.95218815 104.30403404 -70.93982789 105.78385188 -70.92773438 107.26367188 C-70.90307003 109.56282803 -70.87519247 111.86184572 -70.84155273 114.16088867 C-70.58715779 132.75976346 -70.58715779 132.75976346 -72.9375 140.1875 C-74.9375 142.1875 -74.9375 142.1875 -77.9375 142.4375 C-80.9375 142.1875 -80.9375 142.1875 -82.9375 140.1875 C-83.16796875 137.47265625 -83.16796875 137.47265625 -83.125 134.25 C-83.11855469 133.18910156 -83.11210938 132.12820312 -83.10546875 131.03515625 C-82.9375 128.1875 -82.9375 128.1875 -81.9375 125.1875 C-81.86428718 122.51413375 -81.84567747 119.86768368 -81.875 117.1953125 C-81.87878662 116.41235809 -81.88257324 115.62940369 -81.88647461 114.82272339 C-81.9028084 111.4753378 -81.93089361 108.12807457 -81.95800781 104.78076172 C-81.97613059 102.33561776 -81.98820314 99.89049387 -82 97.4453125 C-82.00829834 96.69307404 -82.01659668 95.94083557 -82.02514648 95.165802 C-82.04287233 91.35209808 -81.7533862 87.90396874 -80.9375 84.1875 C-80.8177772 82.34450983 -80.73816552 80.49862647 -80.69140625 78.65234375 C-80.65853516 77.59466797 -80.62566406 76.53699219 -80.59179688 75.44726562 C-80.53135683 73.25985035 -80.47398509 71.0723478 -80.41992188 68.88476562 C-80.2466112 63.47289468 -79.85938175 58.294695 -78.87890625 52.96484375 C-77.93692747 47.75854197 -77.86161313 43.06569883 -78.3125 37.8125 C-78.42618343 36.18380081 -78.53683115 34.55488704 -78.64453125 32.92578125 C-78.72501709 31.735896 -78.72501709 31.735896 -78.80712891 30.52197266 C-79.11094955 25.08164878 -79.01746132 19.63375443 -78.9375 14.1875 C-79.65035156 14.19910156 -80.36320312 14.21070312 -81.09765625 14.22265625 C-85.25737481 14.26184606 -89.25199183 14.28721028 -93.375 13.6875 C-101.24927116 12.58233914 -109.13018485 13.02138614 -116.9765625 14.1640625 C-117.62367187 14.17179687 -118.27078125 14.17953125 -118.9375 14.1875 C-120.9375 12.1875 -120.9375 12.1875 -121.3125 9.25 C-120.9375 6.1875 -120.9375 6.1875 -119.125 4.375 C-115.65938689 2.49366717 -112.95626242 2.0597655 -109.078125 2.0546875 C-108.12679687 2.05339844 -107.17546875 2.05210938 -106.1953125 2.05078125 C-105.20273438 2.05464844 -104.21015625 2.05851562 -103.1875 2.0625 C-102.21039063 2.05863281 -101.23328125 2.05476563 -100.2265625 2.05078125 C-95.01483604 2.05780514 -90.09773595 2.40158449 -84.9375 3.1875 C-82.19506025 3.30894687 -79.49200784 3.37763064 -76.75 3.375 C-75.92266357 3.37491943 -75.09532715 3.37483887 -74.24291992 3.37475586 C-57.63925702 3.23594146 -41.0266728 1.95320608 -24.46020508 0.90454102 C-16.30552816 0.39511289 -8.17318375 0.00586733 0 0 Z " fill="#FDFDFD" transform="translate(161.9375,54.8125)"/>
<path d="M0 0 C3 0.25 3 0.25 5 2.25 C5.53455045 9.07231331 5.13815684 15.90623462 4.22265625 22.67578125 C3.68963087 28.83830272 3.93175266 35.0698244 4 41.25 C4.845625 40.775625 5.69125 40.30125 6.5625 39.8125 C14.61838917 36.1507322 26.86060599 35.67967734 35.53515625 37.8984375 C43.69318769 41.69362509 52.55713821 49.86471884 56 58.25 C56.39157629 62.23876864 56.133392 66.24824001 56 70.25 C55.98066406 70.98863281 55.96132812 71.72726563 55.94140625 72.48828125 C55.2831053 96.148392 55.2831053 96.148392 50.58984375 102.01171875 C48.11122624 103.94223902 46.02926453 103.57226218 43 103.25 C41 101.25 41 101.25 40.953125 98.859375 C41.05109375 97.91578125 41.1490625 96.9721875 41.25 96 C41.33765625 95.06671875 41.4253125 94.1334375 41.515625 93.171875 C42 90.25 42 90.25 42.9921875 87.546875 C44.39199005 82.96767595 44.62253257 78.51366173 44.875 73.75 C44.9471875 72.82574219 45.019375 71.90148437 45.09375 70.94921875 C45.41465007 65.04634635 44.8777811 61.99113614 41 57.25 C40.67 56.26 40.34 55.27 40 54.25 C38.13253665 53.14940031 38.13253665 53.14940031 36 52.25 C35.45601562 51.88519531 34.91203125 51.52039063 34.3515625 51.14453125 C27.9591438 47.1384227 21.19647857 47.85578663 14 49.25 C11.97757727 50.20383767 9.97181331 51.19550853 8 52.25 C7.34 52.25 6.68 52.25 6 52.25 C5.21194658 58.90911485 4.88130529 65.42319411 4.97265625 72.125 C4.98528057 73.95182118 4.99764308 75.77864418 5.00976562 77.60546875 C5.034739 80.44748807 5.06295748 83.28940966 5.09594727 86.13134766 C5.1259958 88.90007172 5.1438547 91.66866591 5.16015625 94.4375 C5.17361588 95.29263184 5.1870755 96.14776367 5.20094299 97.02880859 C5.20983443 99.10360146 5.11416878 101.17833159 5 103.25 C3 105.25 3 105.25 0 105.5 C-3 105.25 -3 105.25 -5 103.25 C-6.66005167 93.64188212 -6.15542471 83.45856909 -6.13037109 73.73583984 C-6.12494853 71.22617725 -6.13038246 68.71668888 -6.13671875 66.20703125 C-6.1360589 64.59635378 -6.13477967 62.98567641 -6.1328125 61.375 C-6.13483673 60.6322583 -6.13686096 59.8895166 -6.13894653 59.12426758 C-6.12195049 55.35842185 -5.76820227 51.92758263 -5 48.25 C-5.33 47.92 -5.66 47.59 -6 47.25 C-6.84845035 41.79223783 -7.1937029 36.4556009 -7.1875 30.9375 C-7.18669434 30.17566406 -7.18588867 29.41382812 -7.18505859 28.62890625 C-7.12286595 22.63890146 -6.7203249 16.70951553 -6.125 10.75 C-6.04660889 9.93104248 -5.96821777 9.11208496 -5.88745117 8.26831055 C-5.01817794 0.41818149 -5.01817794 0.41818149 0 0 Z " fill="#FCFCFC" transform="translate(138,93.75)"/>
</svg>
