<?xml version="1.0" encoding="UTF-8"?>
<svg version="1.1" xmlns="http://www.w3.org/2000/svg" width="900" height="900">
<path d="M0 0 C2.03647529 1.02891531 4.0188645 2.12667103 6.00268555 3.25366211 C11.83732745 6.46047352 17.70244303 9.47444049 23.75268555 12.25366211 C29.77927662 15.03437169 35.64059837 18.01994461 41.46850586 21.19360352 C46.75917639 24.05067704 52.17099244 26.59134011 57.62915039 29.10986328 C63.64531527 31.90921322 69.50325231 34.9651994 75.33227539 38.13427734 C75.98921387 38.48949463 76.64615234 38.84471191 77.32299805 39.21069336 C77.89034668 39.52111572 78.45769531 39.83153809 79.04223633 40.15136719 C82.00836227 41.63026327 85.08130047 42.8855685 88.12768555 44.19116211 C88.12768555 77.85116211 88.12768555 111.51116211 88.12768555 146.19116211 C93.07768555 144.54116211 98.02768555 142.89116211 103.12768555 141.19116211 C106.87545969 140.14620632 110.60656653 139.13614185 114.37768555 138.19116211 C116.36991015 137.68089026 118.36209711 137.17047147 120.35424805 136.65991211 C121.3278125 136.41241211 122.30137695 136.16491211 123.30444336 135.90991211 C133.89278636 133.21429798 144.44389116 130.41363793 154.94018555 127.37866211 C164.89716962 124.50016969 174.90272936 121.81362006 184.92553711 119.17480469 C190.88949736 117.60223143 196.83903604 116.00352041 202.76049805 114.27709961 C204.27268921 113.84204102 204.27268921 113.84204102 205.81542969 113.39819336 C207.67781987 112.85916782 209.53670995 112.30783558 211.39111328 111.74194336 C217.40213904 110.01659453 217.40213904 110.01659453 220.7253418 110.81616211 C221.51811523 111.26991211 222.31088867 111.72366211 223.12768555 112.19116211 C224.35048538 112.75409582 225.57750746 113.30789981 226.80737305 113.85522461 C228.20706425 114.50618148 229.60543851 115.15997538 231.00268555 115.81616211 C231.75227539 116.16807617 232.50186523 116.51999023 233.27416992 116.88256836 C238.76727661 119.48773795 244.12747532 122.28529578 249.46557617 125.19189453 C254.06957633 127.67846612 258.7526301 129.93566206 263.50268555 132.12866211 C270.03387314 135.14488329 276.3893582 138.40354385 282.71923828 141.82006836 C288.63266357 144.98819575 294.66223015 147.86024338 300.7722168 150.62866211 C305.92391181 152.98738837 305.92391181 152.98738837 308.12768555 155.19116211 C308.3737812 158.23276711 308.3737812 158.23276711 308.36819458 162.22720337 C308.37075785 163.32620045 308.37075785 163.32620045 308.37337291 164.4473995 C308.37668057 166.91498207 308.36564332 169.38229578 308.35473633 171.84985352 C308.35417249 173.61367283 308.35448824 175.37749261 308.35562134 177.14131165 C308.35619692 181.94066774 308.34440948 186.73992457 308.33047342 191.53925753 C308.31800018 196.55077395 308.31679826 201.56229247 308.31442261 206.57382202 C308.3081978 216.06879828 308.29177347 225.56372868 308.27172363 235.05868471 C308.24939572 245.86625786 308.23837903 256.67383316 308.22833276 267.48142362 C308.20740809 289.71802875 308.17221271 311.95459254 308.12768555 334.19116211 C303.96534661 335.07987742 300.06199641 335.37231994 295.79956055 335.47241211 C295.09845154 335.49045898 294.39734253 335.50850586 293.67498779 335.52709961 C292.18180628 335.56537891 290.68857807 335.60187214 289.1953125 335.63671875 C286.06752757 335.71019352 282.94003754 335.79300694 279.81256104 335.87854004 C278.32916658 335.91902962 276.84572825 335.95795525 275.36224365 335.99499512 C269.17745908 336.1591243 263.01577794 336.53097015 256.8425293 336.94506836 C249.22507881 337.39315368 241.5873051 337.49167751 233.95977783 337.68527222 C223.96173981 337.94473781 214.01006402 338.42451964 204.03234863 339.11514282 C189.16773385 340.12961456 174.33805935 340.41088129 159.44018555 340.44116211 C157.9511673 340.44879074 157.9511673 340.44879074 156.43206787 340.45657349 C143.59986175 340.50965631 130.9773902 339.89098023 118.20458984 338.66333008 C112.4344761 338.10932814 106.67073244 337.81024844 100.87768555 337.62866211 C99.05984217 337.56883113 97.24211823 337.50521439 95.42456055 337.43725586 C94.28519043 337.40136353 94.28519043 337.40136353 93.12280273 337.36474609 C91.12768555 337.19116211 91.12768555 337.19116211 88.12768555 336.19116211 C88.12768555 364.57116211 88.12768555 392.95116211 88.12768555 422.19116211 C94.06768555 421.53116211 100.00768555 420.87116211 106.12768555 420.19116211 C111.75311033 419.79815298 117.37277883 419.43239121 123.00268555 419.12866211 C125.7918794 418.97338407 128.58088614 418.81495072 131.36987305 418.65600586 C132.04114731 418.6188446 132.71242157 418.58168335 133.40403748 418.543396 C137.3738859 418.31724393 141.32286918 417.99468523 145.2800293 417.60913086 C151.81700511 417.04192284 158.26784609 417.27392654 164.81518555 417.56616211 C166.67796143 417.64060547 166.67796143 417.64060547 168.57836914 417.71655273 C174.80852817 417.97353358 181.03054918 418.28636415 187.25268555 418.69116211 C196.6342668 419.29520758 206.02828773 419.49796325 215.42434692 419.75366211 C224.44978108 420.00088467 233.44611654 420.33756824 242.45581055 420.94506836 C246.46445777 421.18332514 250.47293206 421.29739415 254.48706055 421.40600586 C255.17255478 421.42462677 255.85804901 421.44324768 256.5643158 421.46243286 C259.97605529 421.55393912 263.38758654 421.63817104 266.79980469 421.71069336 C280.64762885 422.06474012 294.25024832 423.19991659 308.12768555 424.19116211 C308.12768555 483.26116211 308.12768555 542.33116211 308.12768555 603.19116211 C291.82979904 611.76899711 275.47464642 620.19363761 259.02612305 628.47192383 C255.90190102 630.04530857 252.78180307 631.62648463 249.66479492 633.21411133 C245.84949767 635.15727897 242.02751382 637.08663316 238.20037079 639.0063591 C236.75791667 639.73276576 235.31786046 640.46395585 233.88037872 641.20015335 C231.88096766 642.22296087 229.87342276 643.22773601 227.86303711 644.22875977 C226.72787659 644.80260406 225.59271606 645.37644836 224.42315674 645.96768188 C219.55668421 647.77441378 214.98343423 647.72419959 210.0456543 646.19506836 C209.29727295 645.97109375 208.5488916 645.74711914 207.77783203 645.51635742 C206.96515869 645.26466797 206.15248535 645.01297852 205.31518555 644.75366211 C196.65529626 642.17608164 187.9558804 639.79068753 179.21572876 637.50387573 C165.16925482 633.82845912 151.16407012 630.02249566 137.18994141 626.08081055 C121.21424528 621.5988976 105.17531422 617.43906382 89.12768555 613.19116211 C88.79768555 645.53116211 88.46768555 677.87116211 88.12768555 711.19116211 C80.53768555 714.82116211 72.94768555 718.45116211 65.12768555 722.19116211 C60.03799095 724.7353158 54.95341685 727.2815767 49.88500595 729.8666153 C46.08380068 731.80292815 42.27486843 733.72397817 38.4675293 735.64819336 C33.69071592 738.06367846 28.91629484 740.48363492 24.14868164 742.91723633 C20.22491089 744.91960279 16.29449178 746.90831922 12.35922623 748.88799286 C10.87592608 749.63733822 9.39514925 750.39170114 7.91704941 751.15125275 C5.8696781 752.20262304 3.81427993 753.23633949 1.75610352 754.26635742 C0.5930368 754.85717102 -0.57002991 755.44798462 -1.76834106 756.05670166 C-6.55994383 757.80796791 -8.97652919 756.57248896 -13.55200195 754.62475586 C-14.95365038 753.96618229 -16.35193558 753.30041748 -17.74731445 752.62866211 C-18.4969043 752.27223633 -19.24649414 751.91581055 -20.01879883 751.54858398 C-25.50253122 748.91546691 -30.86844084 746.09855771 -36.21020508 743.19067383 C-40.81399234 740.7036121 -45.49722855 738.44667622 -50.24731445 736.25366211 C-56.78365072 733.23506318 -63.14233304 729.97084271 -69.47924805 726.55566406 C-75.19257974 723.49820598 -81.00448252 720.70197491 -86.90161133 718.01733398 C-92.08505564 715.63880602 -96.83909705 712.987394 -101.87231445 710.19116211 C-101.87231445 678.18116211 -101.87231445 646.17116211 -101.87231445 613.19116211 C-110.45231445 615.50116211 -119.03231445 617.81116211 -127.87231445 620.19116211 C-140.87231445 623.69116211 -140.87231445 623.69116211 -147.3449707 625.43334961 C-151.76984804 626.62458595 -156.19427226 627.81748786 -160.6184082 629.01147461 C-170.36277629 631.64007594 -180.10794278 634.2627474 -189.87231445 636.81616211 C-196.07208667 638.4393752 -202.25890517 640.10430191 -208.43481445 641.81616211 C-209.56270386 642.12807495 -209.56270386 642.12807495 -210.71337891 642.44628906 C-215.39375358 643.75055277 -220.03396728 645.14268595 -224.6340332 646.71069336 C-231.71366934 648.23040583 -236.38143995 646.4354188 -242.5456543 643.25976562 C-243.38387726 642.84196838 -244.22210022 642.42417114 -245.08572388 641.99371338 C-247.84179903 640.61578622 -250.58739693 639.21823541 -253.33325195 637.82006836 C-255.24840784 636.8572287 -257.16415792 635.8955701 -259.08047485 634.93504333 C-264.11368386 632.40793045 -269.13808839 629.86376735 -274.16101074 627.31628418 C-278.27450845 625.23358497 -282.39398337 623.16287907 -286.51384544 621.09280491 C-295.00727535 616.82496977 -303.49690641 612.54950655 -311.9753418 608.25195312 C-312.76491272 607.85346664 -313.55448364 607.45498016 -314.36798096 607.04441833 C-319.75675365 604.30672291 -319.75675365 604.30672291 -320.87231445 603.19116211 C-320.96943388 600.88759777 -320.99418016 598.58098553 -320.99256897 596.27537537 C-320.99342339 595.54356507 -320.99427782 594.81175477 -320.99515814 594.0577684 C-320.99681511 591.58715332 -320.99128804 589.11660501 -320.98583984 586.64599609 C-320.98555799 584.88232424 -320.98571566 583.11865226 -320.98628235 581.35498047 C-320.98657041 576.55146368 -320.98067238 571.74797164 -320.97370839 566.94446063 C-320.96747619 561.93026526 -320.96687116 556.91606938 -320.96568298 551.90187073 C-320.96256927 542.3997945 -320.95435535 532.89772973 -320.94433349 523.39565855 C-320.93317359 512.58084872 -320.92766222 501.76603836 -320.92263806 490.95122421 C-320.91217276 468.69786378 -320.89457255 446.44451366 -320.87231445 424.19116211 C-316.40072864 423.86328541 -311.92890431 423.5387772 -307.45703125 423.21484375 C-306.1999511 423.12262794 -304.94287094 423.03041214 -303.64769745 422.93540192 C-294.32240882 422.26225844 -285.03141773 421.82731216 -275.68481445 421.62866211 C-272.86700442 421.55813625 -270.04934191 421.48254517 -267.23168945 421.40600586 C-265.9394043 421.37104004 -264.64711914 421.33607422 -263.31567383 421.30004883 C-259.34606177 421.17452082 -255.39725957 420.95833943 -251.43481445 420.69116211 C-242.56832867 420.10127309 -233.69171784 419.92694704 -224.81033325 419.697052 C-211.67900641 419.34882255 -198.57979096 418.67971222 -185.47045898 417.8515625 C-174.88293274 417.18878487 -164.73957883 417.00497157 -154.18481445 418.06616211 C-136.77827238 419.5371375 -119.31797519 420.29651284 -101.87231445 421.19116211 C-101.87231445 393.47116211 -101.87231445 365.75116211 -101.87231445 337.19116211 C-125.39246469 338.4159216 -125.39246469 338.4159216 -148.87231445 340.19116211 C-152.33900883 340.28960544 -155.78522201 340.35443847 -159.2512207 340.35913086 C-160.20873734 340.36322968 -161.16625397 340.36732849 -162.15278625 340.37155151 C-165.24683271 340.38106969 -168.3407555 340.38107986 -171.43481445 340.37866211 C-173.03308075 340.37925125 -173.03308075 340.37925125 -174.66363525 340.37985229 C-189.41756454 340.37336468 -204.07546727 339.99299458 -218.79248047 338.9753418 C-228.81918898 338.28267351 -238.82584229 337.88429929 -248.87231445 337.62866211 C-266.34773743 337.17826835 -266.34773743 337.17826835 -273.93481445 336.69116211 C-279.65761488 336.32924588 -285.37486917 336.10230882 -291.10668945 335.94116211 C-291.84781479 335.92017456 -292.58894012 335.89918701 -293.3525238 335.87756348 C-297.10710685 335.77275412 -300.86175087 335.67448922 -304.61669922 335.58374023 C-306.01050042 335.54672007 -307.40429935 335.50961434 -308.7980957 335.47241211 C-310.03986572 335.44211914 -311.28163574 335.41182617 -312.56103516 335.38061523 C-315.87231445 335.19116211 -315.87231445 335.19116211 -320.87231445 334.19116211 C-320.87231445 274.79116211 -320.87231445 215.39116211 -320.87231445 154.19116211 C-305.35283396 146.02301448 -289.81959415 137.89975245 -274.17983055 129.96707535 C-270.29910114 127.99813437 -266.42421949 126.01909552 -262.56030273 124.01733398 C-258.763213 122.05058963 -254.95391663 120.10972098 -251.13475418 118.18621063 C-249.69733348 117.45681959 -248.26442329 116.7184624 -246.83646774 115.97071075 C-234.39023269 109.46586021 -234.39023269 109.46586021 -228.74169922 110.68164062 C-227.43768551 111.1467246 -226.14453715 111.6450813 -224.87231445 112.19116211 C-223.97456299 112.41118896 -223.07681152 112.63121582 -222.15185547 112.85791016 C-221.400896 113.05425049 -220.64993652 113.25059082 -219.8762207 113.45288086 C-218.5636731 113.7952478 -218.5636731 113.7952478 -217.22460938 114.14453125 C-216.30397705 114.38679443 -215.38334473 114.62905762 -214.43481445 114.87866211 C-213.44908447 115.13703857 -212.46335449 115.39541504 -211.44775391 115.66162109 C-195.85589376 119.75972465 -180.28596372 123.94129298 -164.75976562 128.28173828 C-152.60426594 131.67126577 -140.40490121 134.90273761 -128.21655273 138.17163086 C-124.62245154 139.13577411 -121.02862921 140.10095181 -117.43481445 141.06616211 C-116.32106445 141.36441895 -115.20731445 141.66267578 -114.05981445 141.9699707 C-113.02985352 142.24663574 -111.99989258 142.52330078 -110.9387207 142.80834961 C-110.03065674 143.05182129 -109.12259277 143.29529297 -108.18701172 143.54614258 C-106.40058856 144.04395188 -104.63163524 144.60472185 -102.87231445 145.19116211 C-102.37731445 95.69116211 -102.37731445 95.69116211 -101.87231445 45.19116211 C-84.9513508 36.16664816 -84.9513508 36.16664816 -78.37231445 33.19116211 C-72.28865883 30.38299961 -66.35453666 27.38229849 -60.46386719 24.19116211 C-54.01745632 20.70541968 -47.46371869 17.44782603 -40.8972168 14.19555664 C-38.18367518 12.84958242 -35.47455002 11.4948833 -32.76635742 10.13818359 C-31.42944082 9.46972529 -30.09123733 8.8038341 -28.75170898 8.140625 C-25.46999711 6.51273705 -22.21855532 4.84949883 -19.0012207 3.09741211 C-18.37940918 2.76620361 -17.75759766 2.43499512 -17.11694336 2.09375 C-15.42331818 1.18927819 -13.73923121 0.2670096 -12.0559082 -0.65649414 C-7.59376277 -2.27162654 -4.35857905 -1.8829016 0 0 Z " fill="#D7A64A" transform="translate(456.872314453125,74.808837890625)"/>
<path d="M0 0 C0 249.15 0 498.3 0 755 C-5.76219029 755 -8.13886698 754.23371735 -12.8125 751.5 C-14.14245942 750.75540186 -15.47457678 750.01464774 -16.80859375 749.27734375 C-17.49679199 748.89690918 -18.18499023 748.51647461 -18.89404297 748.12451172 C-22.32166747 746.29427309 -25.84414333 744.6819124 -29.375 743.0625 C-35.91661431 740.04363692 -42.27834478 736.77417125 -48.62011719 733.35791016 C-53.55155973 730.71971322 -58.54804253 728.28222157 -63.625 725.9375 C-70.39823664 722.80935157 -76.98307759 719.42653593 -83.53515625 715.859375 C-87.31682175 713.82998066 -91.16130905 711.91934548 -95 710 C-95 677.99 -95 645.98 -95 613 C-103.58 615.31 -112.16 617.62 -121 620 C-134 623.5 -134 623.5 -140.47265625 625.2421875 C-144.89753359 626.43342384 -149.32195781 627.62632575 -153.74609375 628.8203125 C-163.49046183 631.44891383 -173.23562832 634.0715853 -183 636.625 C-189.19977222 638.24821309 -195.38659072 639.9131398 -201.5625 641.625 C-202.6903894 641.93691284 -202.6903894 641.93691284 -203.84106445 642.25512695 C-208.52143912 643.55939066 -213.16165282 644.95152384 -217.76171875 646.51953125 C-224.84135489 648.03924372 -229.5091255 646.24425669 -235.67333984 643.06860352 C-236.51156281 642.65080627 -237.34978577 642.23300903 -238.21340942 641.80255127 C-240.96948458 640.42462411 -243.71508248 639.0270733 -246.4609375 637.62890625 C-248.37609338 636.66606659 -250.29184346 635.70440799 -252.2081604 634.74388123 C-257.24136941 632.21676834 -262.26577394 629.67260524 -267.28869629 627.12512207 C-271.402194 625.04242286 -275.52166892 622.97171696 -279.64153099 620.9016428 C-288.1349609 616.63380766 -296.62459195 612.35834444 -305.10302734 608.06079102 C-305.89259827 607.66230453 -306.68216919 607.26381805 -307.4956665 606.85325623 C-312.8844392 604.1155608 -312.8844392 604.1155608 -314 603 C-314.09711942 600.69643567 -314.1218657 598.38982342 -314.12025452 596.08421326 C-314.12110894 595.35240296 -314.12196337 594.62059266 -314.12284368 593.8666063 C-314.12450066 591.39599121 -314.11897359 588.9254429 -314.11352539 586.45483398 C-314.11324354 584.69116213 -314.11340121 582.92749015 -314.1139679 581.16381836 C-314.11425595 576.36030157 -314.10835792 571.55680953 -314.10139394 566.75329852 C-314.09516174 561.73910315 -314.09455671 556.72490727 -314.09336853 551.71070862 C-314.09025482 542.2086324 -314.08204089 532.70656762 -314.07201904 523.20449644 C-314.06085914 512.38968661 -314.05534776 501.57487625 -314.05032361 490.7600621 C-314.03985831 468.50670167 -314.0222581 446.25335155 -314 424 C-309.52841419 423.6721233 -305.05658986 423.34761509 -300.5847168 423.02368164 C-299.32763664 422.93146584 -298.07055649 422.83925003 -296.775383 422.74423981 C-287.45009437 422.07109633 -278.15910328 421.63615005 -268.8125 421.4375 C-265.99468997 421.36697414 -263.17702745 421.29138306 -260.359375 421.21484375 C-259.06708984 421.17987793 -257.77480469 421.14491211 -256.44335938 421.10888672 C-252.47374732 420.98335871 -248.52494511 420.76717732 -244.5625 420.5 C-235.69601422 419.91011098 -226.81940339 419.73578493 -217.9380188 419.50588989 C-204.80669195 419.15766044 -191.7074765 418.48855011 -178.59814453 417.66040039 C-168.01061829 416.99762276 -157.86726437 416.81380946 -147.3125 417.875 C-129.90595792 419.34597539 -112.44566073 420.10535073 -95 421 C-95 393.28 -95 365.56 -95 337 C-118.52015024 338.22475949 -118.52015024 338.22475949 -142 340 C-145.46669437 340.09844333 -148.91290756 340.16327636 -152.37890625 340.16796875 C-153.33642288 340.17206757 -154.29393951 340.17616638 -155.2804718 340.1803894 C-158.37451826 340.18990758 -161.46844104 340.18991775 -164.5625 340.1875 C-166.1607663 340.18808914 -166.1607663 340.18808914 -167.7913208 340.18869019 C-182.54525009 340.18220258 -197.20315281 339.80183247 -211.92016602 338.78417969 C-221.94687452 338.0915114 -231.95352783 337.69313718 -242 337.4375 C-259.47542297 336.98710624 -259.47542297 336.98710624 -267.0625 336.5 C-272.78530043 336.13808377 -278.50255471 335.91114671 -284.234375 335.75 C-284.97550034 335.72901245 -285.71662567 335.7080249 -286.48020935 335.68640137 C-290.2347924 335.58159201 -293.98943641 335.48332711 -297.74438477 335.39257812 C-299.13818597 335.35555796 -300.5319849 335.31845223 -301.92578125 335.28125 C-303.16755127 335.25095703 -304.40932129 335.22066406 -305.6887207 335.18945312 C-309 335 -309 335 -314 334 C-314 274.6 -314 215.2 -314 154 C-298.48051951 145.83185237 -282.9472797 137.70859035 -267.3075161 129.77591324 C-263.42678668 127.80697226 -259.55190504 125.82793341 -255.68798828 123.82617188 C-251.89089855 121.85942753 -248.08160217 119.91855887 -244.26243973 117.99504852 C-242.82501903 117.26565748 -241.39210883 116.52730029 -239.96415329 115.77954865 C-227.51791824 109.2746981 -227.51791824 109.2746981 -221.86938477 110.49047852 C-220.56537106 110.95556249 -219.2722227 111.45391919 -218 112 C-217.10224854 112.22002686 -216.20449707 112.44005371 -215.27954102 112.66674805 C-214.52858154 112.86308838 -213.77762207 113.05942871 -213.00390625 113.26171875 C-211.69135864 113.60408569 -211.69135864 113.60408569 -210.35229492 113.95336914 C-209.4316626 114.19563232 -208.51103027 114.43789551 -207.5625 114.6875 C-206.57677002 114.94587646 -205.59104004 115.20425293 -204.57543945 115.47045898 C-188.98357931 119.56856254 -173.41364927 123.75013087 -157.88745117 128.09057617 C-145.73195149 131.48010366 -133.53258675 134.7115755 -121.34423828 137.98046875 C-117.75013709 138.944612 -114.15631475 139.9097897 -110.5625 140.875 C-109.44875 141.17325684 -108.335 141.47151367 -107.1875 141.77880859 C-106.15753906 142.05547363 -105.12757813 142.33213867 -104.06640625 142.6171875 C-103.15834229 142.86065918 -102.25027832 143.10413086 -101.31469727 143.35498047 C-99.52827411 143.85278977 -97.75932079 144.41355974 -96 145 C-95.505 95.5 -95.505 95.5 -95 45 C-78.07903635 35.97548605 -78.07903635 35.97548605 -71.5 33 C-65.41634438 30.1918375 -59.48222221 27.19113638 -53.59155273 24 C-47.15666241 20.52048703 -40.61484598 17.26838008 -34.06005859 14.02197266 C-30.49387085 12.25282572 -26.93487833 10.46929865 -23.375 8.6875 C-22.09117762 8.04550935 -20.80732503 7.40357911 -19.5234375 6.76171875 C-17.27598735 5.63799368 -15.03553617 4.50008232 -12.8046875 3.34375 C-8.80170722 1.42588758 -4.48574358 0 0 0 Z " fill="#86682E" transform="translate(450,75)"/>
<path d="M0 0 C0.66 0 1.32 0 2 0 C2 53.46 2 106.92 2 162 C-9.2462908 160.87537092 -9.2462908 160.87537092 -13.171875 160.203125 C-14.06890137 160.05149902 -14.96592773 159.89987305 -15.89013672 159.74365234 C-17.30576904 159.49929443 -17.30576904 159.49929443 -18.75 159.25 C-20.85152336 158.89299866 -22.95308794 158.53623998 -25.0546875 158.1796875 C-26.16811523 157.98987305 -27.28154297 157.80005859 -28.42871094 157.60449219 C-32.24518042 156.95849968 -36.06364855 156.32512247 -39.8828125 155.6953125 C-41.22428784 155.47365695 -42.56575921 155.25197732 -43.90722656 155.03027344 C-46.49492519 154.60265264 -49.08284248 154.17643778 -51.67089844 153.75097656 C-57.66106523 152.75771322 -63.61149763 151.72635646 -69.52783203 150.35400391 C-72.98528094 149.85891197 -76.50728344 150 -80 150 C-80.33 178.38 -80.66 206.76 -81 236 C-78.69 236.33 -76.38 236.66 -74 237 C-72.46407486 237.42024817 -70.93968469 237.88700246 -69.43603516 238.41113281 C-68.19776474 238.83727875 -68.19776474 238.83727875 -66.93447876 239.27203369 C-66.06149139 239.57929382 -65.18850403 239.88655396 -64.2890625 240.203125 C-63.36265961 240.52279236 -62.43625671 240.84245972 -61.48178101 241.17181396 C-58.52742446 242.19193909 -55.57601787 243.22026051 -52.625 244.25 C-40.94517323 248.31466541 -29.29979892 252.35293747 -17.38818359 255.69042969 C-10.87566344 257.63396803 -4.44757583 259.85080806 2 262 C2 299.29 2 336.58 2 375 C3.32 375.33 4.64 375.66 6 376 C8.90430876 377.18162146 11.72615541 378.53940483 14.5625 379.875 C15.33013672 380.22691406 16.09777344 380.57882812 16.88867188 380.94140625 C17.62794922 381.28816406 18.36722656 381.63492187 19.12890625 381.9921875 C19.79994385 382.30526855 20.47098145 382.61834961 21.16235352 382.94091797 C23.11942394 384.06882703 24.48047552 385.33981703 26 387 C23.16861541 386.36870172 20.68847827 385.49372623 18.06640625 384.2578125 C17.33486328 383.91363281 16.60332031 383.56945312 15.84960938 383.21484375 C15.09486328 382.85519531 14.34011719 382.49554687 13.5625 382.125 C12.81162109 381.77308594 12.06074219 381.42117188 11.28710938 381.05859375 C9.17767532 380.06046224 7.07649994 379.06513619 5 378 C3.71618439 377.51074791 3.71618439 377.51074791 2.40643311 377.01161194 C0 375 0 375 -0.45314121 373.17774582 C-0.61902181 370.69061868 -0.61761714 368.24745308 -0.56762695 365.75512695 C-0.56872215 364.33532532 -0.56872215 364.33532532 -0.56983948 362.88684082 C-0.56635174 359.75340776 -0.52743378 356.62145509 -0.48828125 353.48828125 C-0.47895737 351.31781323 -0.47183925 349.14733471 -0.46684265 346.97685242 C-0.44773959 341.26043716 -0.39860963 335.54465578 -0.34332275 329.82849121 C-0.29220196 323.99707617 -0.2693439 318.16555884 -0.24414062 312.33398438 C-0.19049464 300.88904421 -0.10514134 289.44457478 0 278 C-0.71953857 278.19372192 -1.43907715 278.38744385 -2.18041992 278.58703613 C-19.04296868 283.12695311 -19.04296868 283.12695311 -22.51502991 284.06173706 C-24.85555639 284.69187999 -27.19608168 285.32202735 -29.53660583 285.95217896 C-30.66591019 286.2562265 -31.79521454 286.56027405 -32.95874023 286.87353516 C-33.96557358 287.1446109 -34.97240692 287.41568665 -36.00975037 287.69497681 C-39.1640226 288.54415752 -42.31833694 289.39318168 -45.47265625 290.2421875 C-49.89753359 291.43342384 -54.32195781 292.62632575 -58.74609375 293.8203125 C-68.49046183 296.44891383 -78.23562832 299.0715853 -88 301.625 C-94.19977222 303.24821309 -100.38659072 304.9131398 -106.5625 306.625 C-107.6903894 306.93691284 -107.6903894 306.93691284 -108.84106445 307.25512695 C-113.52143912 308.55939066 -118.16165282 309.95152384 -122.76171875 311.51953125 C-129.84135489 313.03924372 -134.5091255 311.24425669 -140.67333984 308.06860352 C-141.51156281 307.65080627 -142.34978577 307.23300903 -143.21340942 306.80255127 C-145.96948458 305.42462411 -148.71508248 304.0270733 -151.4609375 302.62890625 C-153.37609338 301.66606659 -155.29184346 300.70440799 -157.2081604 299.74388123 C-162.24136941 297.21676834 -167.26577394 294.67260524 -172.28869629 292.12512207 C-176.402194 290.04242286 -180.52166892 287.97171696 -184.64153099 285.9016428 C-193.1349609 281.63380766 -201.62459195 277.35834444 -210.10302734 273.06079102 C-210.89259827 272.66230453 -211.68216919 272.26381805 -212.4956665 271.85325623 C-217.8844392 269.1155608 -217.8844392 269.1155608 -219 268 C-219.09711942 265.69643567 -219.1218657 263.38982342 -219.12025452 261.08421326 C-219.12110894 260.35240296 -219.12196337 259.62059266 -219.12284368 258.8666063 C-219.12450066 256.39599121 -219.11897359 253.9254429 -219.11352539 251.45483398 C-219.11324354 249.69116213 -219.11340121 247.92749015 -219.1139679 246.16381836 C-219.11425595 241.36030157 -219.10835792 236.55680953 -219.10139394 231.75329852 C-219.09516174 226.73910315 -219.09455671 221.72490727 -219.09336853 216.71070862 C-219.09025482 207.2086324 -219.08204089 197.70656762 -219.07201904 188.20449644 C-219.06085914 177.38968661 -219.05534776 166.57487625 -219.05032361 155.7600621 C-219.03985831 133.50670167 -219.0222581 111.25335155 -219 89 C-214.52841419 88.6721233 -210.05658986 88.34761509 -205.5847168 88.02368164 C-204.32763664 87.93146584 -203.07055649 87.83925003 -201.775383 87.74423981 C-192.45009437 87.07109633 -183.15910328 86.63615005 -173.8125 86.4375 C-170.99468997 86.36697414 -168.17702745 86.29138306 -165.359375 86.21484375 C-163.42094727 86.16239502 -163.42094727 86.16239502 -161.44335938 86.10888672 C-157.47374732 85.98335871 -153.52494511 85.76717732 -149.5625 85.5 C-140.69601422 84.91011098 -131.81940339 84.73578493 -122.9380188 84.50588989 C-109.80669195 84.15766044 -96.7074765 83.48855011 -83.59814453 82.66040039 C-73.01061829 81.99762276 -62.86726437 81.81380946 -52.3125 82.875 C-34.90595792 84.34597539 -17.44566073 85.10535073 0 86 C0 57.62 0 29.24 0 0 Z " fill="#D7A64C" transform="translate(355,410)"/>
<path d="M0 0 C1.22279983 0.56293371 2.44982192 1.1167377 3.6796875 1.6640625 C5.07937871 2.31501937 6.47775296 2.96881327 7.875 3.625 C8.62458984 3.97691406 9.37417969 4.32882813 10.14648438 4.69140625 C15.63959106 7.29657584 20.99978977 10.09413367 26.33789062 13.00073242 C30.94189078 15.48730401 35.62494455 17.74449995 40.375 19.9375 C46.9061876 22.95372118 53.26167265 26.21238174 59.59155273 29.62890625 C65.50497802 32.79703364 71.5345446 35.66908127 77.64453125 38.4375 C82.79622626 40.79622626 82.79622626 40.79622626 85 43 C85.24609566 46.041605 85.24609566 46.041605 85.24050903 50.03604126 C85.24221788 50.76870598 85.24392673 51.5013707 85.24568737 52.25623739 C85.24899503 54.72381996 85.23795778 57.19113367 85.22705078 59.65869141 C85.22648694 61.42251072 85.22680269 63.1863305 85.22793579 64.95014954 C85.22851137 69.74950563 85.21672394 74.54876246 85.20278788 79.34809542 C85.19031463 84.35961184 85.18911271 89.37113036 85.18673706 94.38265991 C85.18051225 103.87763617 85.16408793 113.37256657 85.14403808 122.8675226 C85.12171018 133.67509575 85.11069349 144.48267105 85.10064721 155.29026151 C85.07972254 177.52686664 85.04452717 199.76343043 85 222 C80.83766106 222.88871531 76.93431087 223.18115783 72.671875 223.28125 C71.97076599 223.29929687 71.26965698 223.31734375 70.54730225 223.3359375 C69.05412073 223.3742168 67.56089252 223.41071003 66.06762695 223.44555664 C62.93984203 223.51903142 59.812352 223.60184483 56.68487549 223.68737793 C55.20148103 223.72786751 53.71804271 223.76679314 52.23455811 223.80383301 C46.04977353 223.9679622 39.88809239 224.33980804 33.71484375 224.75390625 C26.09739326 225.20199157 18.45961955 225.3005154 10.83209229 225.49411011 C0.83405426 225.7535757 -9.11762153 226.23335753 -19.09533691 226.92398071 C-33.95995169 227.93845245 -48.7896262 228.21971918 -63.6875 228.25 C-65.17651825 228.25762863 -65.17651825 228.25762863 -66.69561768 228.26541138 C-79.53017801 228.31850393 -92.15244768 227.69507374 -104.92749023 226.46777344 C-111.5953251 225.83021032 -118.25746116 225.59443203 -124.95117188 225.43359375 C-125.82708984 225.40394531 -126.70300781 225.37429688 -127.60546875 225.34375 C-128.35981201 225.32505859 -129.11415527 225.30636719 -129.89135742 225.28710938 C-132 225 -132 225 -136 223 C-136 198.58 -136 174.16 -136 149 C-117.61744896 151.29781888 -117.61744896 151.29781888 -109.25 152.8125 C-108.3024585 152.98064209 -107.35491699 153.14878418 -106.37866211 153.32202148 C-104.33724164 153.68487107 -102.29615121 154.04958165 -100.25537109 154.41601562 C-96.79216897 155.03728302 -93.32782804 155.65190262 -89.86328125 156.265625 C-77.56309434 158.44925919 -65.27924482 160.6976416 -53 163 C-53 133.96 -53 104.92 -53 75 C-55.97 74.34 -58.94 73.68 -62 73 C-69.24727989 71.10773982 -76.11616478 68.9502151 -83 66 C-85.01130503 65.41142562 -87.02930096 64.84558538 -89.05078125 64.29296875 C-98.02917477 61.76000686 -106.84867261 58.7903441 -115.6875 55.8125 C-117.33258688 55.26078315 -118.9777687 54.70934928 -120.62304688 54.15820312 C-123.60825267 53.15774189 -126.59294135 52.15577336 -129.5769043 51.15161133 C-131.71700396 50.43163058 -133.8579078 49.71403073 -136 49 C-136 44.38 -136 39.76 -136 35 C-134.35 35 -132.7 35 -131 35 C-130.67 34.01 -130.34 33.02 -130 32 C-127.15869141 30.91259766 -127.15869141 30.91259766 -123.3515625 29.9140625 C-122.67191437 29.73207809 -121.99226624 29.55009369 -121.29202271 29.3625946 C-119.07266262 28.77139889 -116.84906801 28.1982039 -114.625 27.625 C-113.09767466 27.22145681 -111.57065623 26.81675023 -110.04394531 26.41088867 C-106.34184268 25.42962366 -102.63639749 24.4618939 -98.92907715 23.50054932 C-95.60271463 22.63743791 -92.27921109 21.76344572 -88.95532227 20.89086914 C-87.48222078 20.50453266 -86.00874795 20.11960944 -84.53491211 19.73608398 C-79.06052454 18.30439629 -73.62302452 16.75967354 -68.1875 15.1875 C-58.23054495 12.30891333 -48.22495352 9.62245725 -38.20214844 6.98364258 C-32.23818819 5.41106932 -26.28864951 3.8123583 -20.3671875 2.0859375 C-19.35906006 1.79589844 -18.35093262 1.50585938 -17.31225586 1.20703125 C-15.44986567 0.66800571 -13.5909756 0.11667347 -11.73657227 -0.44921875 C-7.07590033 -1.7869746 -4.3935305 -2.51467112 0 0 Z " fill="#86692F" transform="translate(680,187)"/>
<path d="M0 0 C0.99 0.495 0.99 0.495 2 1 C1.67 38.95 1.34 76.9 1 116 C-5.75730425 119.37865212 -5.75730425 119.37865212 -8.92578125 120.4296875 C-9.63001221 120.66461914 -10.33424316 120.89955078 -11.05981445 121.14160156 C-11.80320068 121.38362305 -12.54658691 121.62564453 -13.3125 121.875 C-14.50588989 122.26896973 -14.50588989 122.26896973 -15.72338867 122.67089844 C-20.72495422 124.3062067 -25.75096051 125.81343742 -30.8125 127.25 C-40.19987848 129.91740181 -49.38619485 133.18764718 -58.58520508 136.43457031 C-77.30379944 143 -77.30379944 143 -82 143 C-82 172.37 -82 201.74 -82 232 C-78.04 232 -74.08 232 -70 232 C-67.48987161 232.23046379 -64.98354346 232.51398788 -62.48828125 232.87109375 C-61.1208681 233.05776087 -59.75317663 233.24239746 -58.38525391 233.42529297 C-57.32108246 233.56846954 -57.32108246 233.56846954 -56.2354126 233.71453857 C-52.24122728 234.22459468 -48.23616431 234.62728852 -44.23046875 235.03515625 C-43.40709015 235.11986176 -42.58371155 235.20456726 -41.73538208 235.2918396 C-38.35146776 235.63927906 -34.96726699 235.98378512 -31.58276367 236.32543945 C-29.06918737 236.57989793 -26.55606493 236.8385053 -24.04296875 237.09765625 C-22.89467842 237.21174583 -22.89467842 237.21174583 -21.72319031 237.32814026 C-18.65730386 237.64623357 -15.93505731 238.02164756 -13 239 C-8.71 239.33 -4.42 239.66 0 240 C0 255.51 0 271.02 0 287 C-20.25932628 287 -20.25932628 287 -28.25 286.6875 C-29.30968994 286.64681396 -30.36937988 286.60612793 -31.46118164 286.56420898 C-44.16792668 286.02329058 -56.85419608 285.11532931 -69.53808594 284.19213867 C-90.02102924 282.74903074 -110.4633555 281.95519277 -131 281 C-131 210.71 -131 140.42 -131 68 C-134.3 69.65 -137.6 71.3 -141 73 C-142.32 72.67 -143.64 72.34 -145 72 C-143.20660102 70.92578132 -141.38896434 69.89198264 -139.5625 68.875 C-138.55316406 68.29492188 -137.54382813 67.71484375 -136.50390625 67.1171875 C-131.72877164 65.59468081 -128.69992859 66.61579722 -124 68 C-122.33563068 68.42449447 -120.67022422 68.84493919 -119.00390625 69.26171875 C-117.18957907 69.73497065 -115.37580122 70.21033217 -113.5625 70.6875 C-112.08390503 71.0750647 -112.08390503 71.0750647 -110.57543945 71.47045898 C-94.98357931 75.56856254 -79.41364927 79.75013087 -63.88745117 84.09057617 C-51.73195149 87.48010366 -39.53258675 90.7115755 -27.34423828 93.98046875 C-23.75013709 94.944612 -20.15631475 95.9097897 -16.5625 96.875 C-15.44875 97.17325684 -14.335 97.47151367 -13.1875 97.77880859 C-12.15753906 98.05547363 -11.12757813 98.33213867 -10.06640625 98.6171875 C-9.15834229 98.86065918 -8.25027832 99.10413086 -7.31469727 99.35498047 C-5.52827411 99.85278977 -3.75932079 100.41355974 -2 101 C-1.98969254 99.74941299 -1.97938507 98.49882599 -1.96876526 97.21034241 C-1.87121298 85.45240313 -1.76849664 73.69451894 -1.66066074 61.93666935 C-1.60538258 55.89114817 -1.5519549 49.8456222 -1.50268555 43.80004883 C-1.455114 37.97101411 -1.40277409 32.1420403 -1.34705925 26.31307793 C-1.32660291 24.0838414 -1.30789539 21.85458814 -1.29092598 19.62532234 C-1.26695429 16.51455736 -1.23689022 13.40390871 -1.20532227 10.29321289 C-1.1995668 9.36173431 -1.19381134 8.43025574 -1.18788147 7.47055054 C-1.11405216 1.11405216 -1.11405216 1.11405216 0 0 Z " fill="#D7A64C" transform="translate(356,119)"/>
<path d="M0 0 C18.06338028 0 18.06338028 0 26.02734375 0.71484375 C31.67992088 1.12058429 37.33688696 1.3003962 43 1.5 C56.66140117 1.98671659 56.66140117 1.98671659 62.5 2.5 C66.41785247 2.84385407 70.32006848 3.05739243 74.25 3.1796875 C93.64295502 3.78571734 112.55758153 5.42358769 132 7 C132 77.29 132 147.58 132 220 C126.88400837 219.36050105 122.74674904 218.8020502 117.9296875 217.43359375 C116.80240234 217.11729004 115.67511719 216.80098633 114.51367188 216.47509766 C113.31291016 216.13269043 112.11214844 215.7902832 110.875 215.4375 C108.25858463 214.70166452 105.64096489 213.97014966 103.0234375 213.23828125 C102.35532043 213.05090393 101.68720337 212.86352661 100.99884033 212.67047119 C94.18185376 210.76186302 87.34294731 208.93814374 80.5 207.125 C72.22559575 204.92912359 63.95451381 202.72239875 55.69140625 200.484375 C54.89880402 200.26978134 54.10620178 200.05518768 53.2895813 199.83409119 C49.30144624 198.75385868 45.31392591 197.67141367 41.32714844 196.58618164 C34.42323451 194.71033956 27.51832164 192.85966303 20.57421875 191.13671875 C18.94697876 190.72993896 18.94697876 190.72993896 17.28686523 190.31494141 C15.32169957 189.82803405 13.35386456 189.3517254 11.38305664 188.88818359 C10.5399292 188.67887207 9.69680176 188.46956055 8.828125 188.25390625 C8.1052832 188.08189697 7.38244141 187.9098877 6.63769531 187.73266602 C6.09725586 187.49088623 5.55681641 187.24910645 5 187 C4.67 186.01 4.34 185.02 4 184 C2.68 184 1.36 184 0 184 C0 179.38 0 174.76 0 170 C5.45813535 168.22048254 10.91673157 166.44238796 16.37573242 164.66552734 C18.22709218 164.06271419 20.07833235 163.45953361 21.92944336 162.85595703 C40.86629572 156.68189811 40.86629572 156.68189811 50.40576172 153.83300781 C52.97838928 153.00693918 55.44724917 152.04631714 57.9375 151 C66.00552873 147.65922869 74.40012228 145.43331295 83 144 C83 114.63 83 85.26 83 55 C79.04 55 75.08 55 71 55 C68.18255749 54.78350394 65.41989344 54.53672306 62.62109375 54.1953125 C61.89005936 54.11190613 61.15902496 54.02849976 60.40583801 53.94256592 C58.08229715 53.6762071 55.75994868 53.4007028 53.4375 53.125 C51.82202363 52.93824091 50.20646288 52.75221036 48.59082031 52.56689453 C45.45008595 52.20640425 42.30966793 51.84333356 39.16943359 51.47851562 C32.93655564 50.75833273 26.69570984 50.12158391 20.453125 49.4921875 C13.6265618 48.73767262 6.81509693 47.85188712 0 47 C0 31.49 0 15.98 0 0 Z " fill="#87692F" transform="translate(544,502)"/>
<path d="M0 0 C0.8677002 0.39106934 0.8677002 0.39106934 1.75292969 0.79003906 C3.80130673 1.71923189 5.83906177 2.66886582 7.875 3.625 C8.62458984 3.97691406 9.37417969 4.32882813 10.14648438 4.69140625 C15.63959106 7.29657584 20.99978977 10.09413367 26.33789062 13.00073242 C30.94189078 15.48730401 35.62494455 17.74449995 40.375 19.9375 C46.9061876 22.95372118 53.26167265 26.21238174 59.59155273 29.62890625 C65.50497802 32.79703364 71.5345446 35.66908127 77.64453125 38.4375 C82.79622626 40.79622626 82.79622626 40.79622626 85 43 C85.24609566 46.041605 85.24609566 46.041605 85.24050903 50.03604126 C85.24221788 50.76870598 85.24392673 51.5013707 85.24568737 52.25623739 C85.24899503 54.72381996 85.23795778 57.19113367 85.22705078 59.65869141 C85.22648694 61.42251072 85.22680269 63.1863305 85.22793579 64.95014954 C85.22851137 69.74950563 85.21672394 74.54876246 85.20278788 79.34809542 C85.19031463 84.35961184 85.18911271 89.37113036 85.18673706 94.38265991 C85.18051225 103.87763617 85.16408793 113.37256657 85.14403808 122.8675226 C85.12171018 133.67509575 85.11069349 144.48267105 85.10064721 155.29026151 C85.07972254 177.52686664 85.04452717 199.76343043 85 222 C81.64867396 222.70541386 78.61566599 223.11366666 75.1875 223.0625 C74.39730469 223.05347656 73.60710937 223.04445313 72.79296875 223.03515625 C71.90544922 223.01775391 71.90544922 223.01775391 71 223 C72.32 222.34 73.64 221.68 75 221 C72.41442829 219.70721415 70.33720776 219.73785989 67.4453125 219.5703125 C66.28700928 219.4988501 65.12870605 219.4273877 63.93530273 219.35375977 C62.67790283 219.27826904 61.42050293 219.20277832 60.125 219.125 C49.87268959 218.46123639 39.65523148 217.6533254 29.4375 216.5625 C27.85702881 216.39741943 27.85702881 216.39741943 26.24462891 216.22900391 C16.10149669 215.11442524 6.11608592 213.51741289 -4 212 C-4 142.04 -4 72.08 -4 0 C-6.31 0.33 -8.62 0.66 -11 1 C-6.40279738 -2.06480175 -4.88357671 -2.24454083 0 0 Z " fill="#D8A64A" transform="translate(680,187)"/>
<path d="M0 0 C4.00697289 0.30733062 8.01352201 0.61988756 12.02001953 0.93334961 C13.14805496 1.01980492 14.27609039 1.10626022 15.43830872 1.19533539 C22.31468527 1.73636531 29.06806256 2.50191775 35.88183594 3.56689453 C42.7502879 4.52090595 49.69719141 4.7553737 56.6171875 5.12304688 C67.30661632 5.77071423 77.2561616 7.38842424 88 9 C88 78.96 88 148.92 88 221 C81.24974261 219.8749571 81.24974261 219.8749571 78.25482178 218.38137817 C77.57633179 218.04777283 76.8978418 217.71416748 76.1987915 217.37045288 C75.1137735 216.82187119 75.1137735 216.82187119 74.00683594 216.26220703 C73.22888672 215.87673706 72.4509375 215.49126709 71.64941406 215.09411621 C69.09032893 213.8233452 66.53724523 212.54101746 63.984375 211.2578125 C62.20435562 210.36915044 60.42409898 209.48096348 58.64361572 208.5932312 C54.91896521 206.73385073 51.1972628 204.86872785 47.47753906 202.99951172 C42.70566272 200.60215953 37.92672613 198.21928667 33.145504 195.84063911 C29.47096456 194.01058841 25.80026219 192.17294902 22.1306839 190.33297348 C20.36956524 189.4510788 18.60725233 188.5715649 16.84374237 187.69446182 C14.38373882 186.46952807 11.92908341 185.23448419 9.47558594 183.99658203 C8.37842255 183.45407303 8.37842255 183.45407303 7.25909424 182.90060425 C3.90977874 181.19763616 2.12474723 180.18712084 0 177 C-0.24609566 173.86658192 -0.24609566 173.86658192 -0.24050903 169.91963196 C-0.24221788 169.19427992 -0.24392673 168.46892787 -0.24568737 167.72159547 C-0.24898844 165.28475629 -0.23796854 162.84819088 -0.22705078 160.41137695 C-0.2264868 158.66711432 -0.22680297 156.92285122 -0.22793579 155.17858887 C-0.22851082 150.4371408 -0.21673229 145.69579344 -0.20278788 140.95436883 C-0.19030546 136.00158206 -0.18911198 131.04879311 -0.18673706 126.09599304 C-0.18051496 116.71438089 -0.16409428 107.33281522 -0.14403808 97.95122355 C-0.12170177 87.27179899 -0.11069136 76.59237223 -0.10064721 65.91293013 C-0.07972869 43.94192745 -0.04453854 21.97096665 0 0 Z " fill="#86682E" transform="translate(137,500)"/>
<path d="M0 0 C0.66 0 1.32 0 2 0 C2 30.36 2 60.72 2 92 C-14.89389205 93.12625947 -31.61147122 94.20124552 -48.50390625 94.78515625 C-53.46714264 94.96486963 -58.39668447 95.31509314 -63.34375 95.75 C-69.97903299 96.20369456 -76.62870277 96.38943271 -83.27539062 96.60742188 C-88.59644706 96.79112885 -93.88310332 97.05572931 -99.1875 97.51953125 C-107.45483746 98.18573176 -115.71094626 98.19695939 -124 98.1875 C-125.22555099 98.18759064 -125.22555099 98.18759064 -126.4758606 98.18768311 C-138.28456796 98.17527157 -149.88660079 97.72264228 -161.61621094 96.27783203 C-165.92250805 95.77593054 -170.2433778 95.43404157 -174.5625 95.0625 C-183.42534078 94.27015089 -192.2761539 93.37263311 -201.125 92.4375 C-202.94946655 92.24716187 -202.94946655 92.24716187 -204.81079102 92.05297852 C-205.94830811 91.93108154 -207.0858252 91.80918457 -208.2578125 91.68359375 C-209.2698877 91.57587646 -210.28196289 91.46815918 -211.32470703 91.35717773 C-213.62608379 91.04992146 -215.75873897 90.58413404 -218 90 C-217.89288016 113.04342424 -217.78014043 136.08681484 -217.66066074 159.13017845 C-217.60531949 169.8289619 -217.55183602 180.52774868 -217.50268555 191.2265625 C-217.45985475 200.54872588 -217.41357958 209.87086461 -217.36312145 219.19298995 C-217.3365116 224.13160596 -217.31165831 229.07021706 -217.29092598 234.00886154 C-217.27137629 238.65284701 -217.24723756 243.29678553 -217.21950912 247.94072914 C-217.21012983 249.64919115 -217.20245773 251.35766348 -217.19658089 253.06614113 C-217.18833459 255.39077479 -217.17406217 257.71529405 -217.15821838 260.03988647 C-217.14853956 261.99500939 -217.14853956 261.99500939 -217.1386652 263.98962975 C-217.20746936 266.92304793 -217.20746936 266.92304793 -216 269 C-216.99 268.67 -217.98 268.34 -219 268 C-219 208.93 -219 149.86 -219 89 C-187.06970959 86.71926497 -187.06970959 86.71926497 -173.8125 86.4375 C-170.99468997 86.36697414 -168.17702745 86.29138306 -165.359375 86.21484375 C-163.42094727 86.16239502 -163.42094727 86.16239502 -161.44335938 86.10888672 C-157.47374732 85.98335871 -153.52494511 85.76717732 -149.5625 85.5 C-140.69601422 84.91011098 -131.81940339 84.73578493 -122.9380188 84.50588989 C-109.80669195 84.15766044 -96.7074765 83.48855011 -83.59814453 82.66040039 C-73.01061829 81.99762276 -62.86726437 81.81380946 -52.3125 82.875 C-34.90595792 84.34597539 -17.44566073 85.10535073 0 86 C0 57.62 0 29.24 0 0 Z " fill="#F0D29B" transform="translate(355,410)"/>
<path d="M0 0 C0.33 0 0.66 0 1 0 C1 28.38 1 56.76 1 86 C9.91 85.01 9.91 85.01 19 84 C24.62542478 83.60699087 30.24509328 83.2412291 35.875 82.9375 C38.66419385 82.78222196 41.45320059 82.62378861 44.2421875 82.46484375 C44.91346176 82.4276825 45.58473602 82.39052124 46.27635193 82.35223389 C50.24620035 82.12608182 54.19518363 81.80352312 58.15234375 81.41796875 C64.68931956 80.85076073 71.14016055 81.08276443 77.6875 81.375 C78.92935059 81.42462891 80.17120117 81.47425781 81.45068359 81.52539062 C87.68084263 81.78237147 93.90286364 82.09520204 100.125 82.5 C109.50658125 83.10404547 118.90060218 83.30680114 128.29666138 83.5625 C137.32209553 83.80972256 146.31843099 84.14640614 155.328125 84.75390625 C159.33677222 84.99216303 163.34524652 85.10623204 167.359375 85.21484375 C168.04486923 85.23346466 168.73036346 85.25208557 169.43663025 85.27127075 C172.84836974 85.36277701 176.259901 85.44700893 179.67211914 85.51953125 C193.5199433 85.87357801 207.12256278 87.00875448 221 88 C221 147.07 221 206.14 221 267 C220.67 267 220.34 267 220 267 C220 208.26 220 149.52 220 89 C213.565 89.99 213.565 89.99 207 91 C204.26514831 91.29425716 201.52684215 91.5595306 198.78515625 91.78125 C198.08208847 91.84026489 197.37902069 91.89927979 196.65464783 91.96008301 C194.45759193 92.14432045 192.26014192 92.32290065 190.0625 92.5 C181.94403642 93.15583672 173.86681447 93.81695136 165.80859375 95.03125 C153.50578773 96.8592654 141.26127095 97.16316882 128.84985352 97.13037109 C126.43694808 97.12499877 124.02422806 97.13035936 121.61132812 97.13671875 C113.71895477 97.14015395 105.92660427 96.94443685 98.05883789 96.24951172 C92.71417487 95.81354352 87.35842049 95.6757383 82 95.5 C68.40458015 95.01908397 68.40458015 95.01908397 62.5 94.5 C56.27763666 93.95417865 50.05314534 93.77376948 43.8125 93.5625 C34.39938286 93.23360961 25.01664719 92.71796332 15.625 92 C14.52003174 91.91693604 13.41506348 91.83387207 12.27661133 91.74829102 C8.0271935 91.40931087 4.14887102 91.03721775 0 90 C0 60.3 0 30.6 0 0 Z " fill="#F6D69B" transform="translate(544,411)"/>
<path d="M0 0 C1.5437279 0.13919798 3.08751136 0.27778093 4.63134766 0.41577148 C9.00516713 0.80901603 13.3776591 1.21569706 17.75 1.625 C19.38630371 1.77654541 19.38630371 1.77654541 21.05566406 1.93115234 C26.1245666 2.40138342 31.19188071 2.88611215 36.25830078 3.38232422 C41.02556061 3.84662524 45.79414845 4.2970748 50.5625 4.75 C52.33984864 4.9192195 54.11719288 5.08848522 55.89453125 5.2578125 C57.80298828 5.43957031 57.80298828 5.43957031 59.75 5.625 C54.37756429 8.50309056 49.39407091 8.85488844 43.3671875 9.125 C42.11622787 9.18536438 42.11622787 9.18536438 40.83999634 9.24694824 C38.10185261 9.3774067 35.3634631 9.5014407 32.625 9.625 C30.71419155 9.71416779 28.80338427 9.80336076 26.89257812 9.89257812 C14.65155808 10.45408571 2.4120633 10.87561237 -9.83789062 11.17623901 C-18.66851395 11.39589665 -27.46003216 11.80022275 -36.27416992 12.40722656 C-51.83340965 13.47757266 -67.34120791 13.8432996 -82.9375 13.875 C-84.42651825 13.88262863 -84.42651825 13.88262863 -85.94561768 13.89041138 C-98.7778238 13.9434942 -111.40029535 13.32481812 -124.1730957 12.09716797 C-129.94320945 11.54316603 -135.7069531 11.24408633 -141.5 11.0625 C-143.31784338 11.00266902 -145.13556732 10.93905229 -146.953125 10.87109375 C-147.71270508 10.84716553 -148.47228516 10.8232373 -149.25488281 10.79858398 C-151.25 10.625 -151.25 10.625 -154.25 9.625 C-154.25 8.305 -154.25 6.985 -154.25 5.625 C-143.6537661 2.66791147 -131.66470754 3.38992186 -120.75146484 3 C-115.40618699 2.80392733 -110.07973633 2.59354825 -104.75 2.125 C-100.53985653 1.77930303 -96.34264828 1.52435295 -92.12109375 1.375 C-90.98542969 1.33310547 -89.84976563 1.29121094 -88.6796875 1.24804688 C-86.41546683 1.16826729 -84.15114565 1.09127249 -81.88671875 1.01757812 C-75.65359936 0.80303235 -69.46962452 0.41493914 -63.25756836 -0.13427734 C-58.03227042 -0.55250478 -52.80015777 -0.74374795 -47.5625 -0.9375 C-46.51900391 -0.98068359 -45.47550781 -1.02386719 -44.40039062 -1.06835938 C-29.48061126 -1.63767864 -14.86269297 -1.39390344 0 0 Z " fill="#6B542E" transform="translate(699.25,401.375)"/>
<path d="M0 0 C0.70605251 0.03509548 1.41210503 0.07019096 2.13955307 0.10634995 C18.01471029 0.90318202 33.86653668 1.95030346 49.71151733 3.21607971 C57.18358796 3.80806588 64.63140128 4.22841105 72.125 4.4375 C95.38046497 5.21954836 95.38046497 5.21954836 101.3125 6.875 C101.3125 7.535 101.3125 8.195 101.3125 8.875 C100.6525 8.875 99.9925 8.875 99.3125 8.875 C99.3125 9.535 99.3125 10.195 99.3125 10.875 C96.3622891 12.35010545 93.57284779 12.19272343 90.28515625 12.375 C89.58160507 12.41560547 88.87805389 12.45621094 88.15318298 12.49804688 C85.89400109 12.62783561 83.63454763 12.75175632 81.375 12.875 C79.14764869 12.99910533 76.92038586 13.12452646 74.69322205 13.25195312 C72.64857657 13.36853309 70.60371218 13.48125492 68.55883789 13.59375 C65.34569932 13.78585695 62.15053989 14.08026928 58.94726562 14.39575195 C53.59940216 14.89239297 48.30210553 15.03570067 42.93359375 15.04296875 C41.97607712 15.04706757 41.01856049 15.05116638 40.0320282 15.0553894 C36.93798174 15.06490758 33.84405896 15.06491775 30.75 15.0625 C29.68448914 15.06289276 28.61897827 15.06328552 27.5211792 15.06369019 C12.76724991 15.05720258 -1.89065281 14.67683247 -16.60766602 13.65917969 C-26.63449302 12.96650321 -36.64101407 12.57020501 -46.6875 12.3125 C-65.96756287 11.80071875 -65.96756287 11.80071875 -73.375 11.4375 C-75.29892578 11.34662109 -75.29892578 11.34662109 -77.26171875 11.25390625 C-80.9159103 10.84973683 -84.17112171 9.92827415 -87.6875 8.875 C-89.32661346 8.61911484 -90.97305635 8.40248711 -92.625 8.25 C-93.39714844 8.17523438 -94.16929687 8.10046875 -94.96484375 8.0234375 C-95.81755859 7.94996094 -95.81755859 7.94996094 -96.6875 7.875 C-96.6875 7.545 -96.6875 7.215 -96.6875 6.875 C-95.0375 6.875 -93.3875 6.875 -91.6875 6.875 C-91.6875 6.215 -91.6875 5.555 -91.6875 4.875 C-90.60082031 4.77703125 -89.51414063 4.6790625 -88.39453125 4.578125 C-87.26494995 4.47310669 -87.26494995 4.47310669 -86.11254883 4.3659668 C-84.29384326 4.19821963 -82.47461924 4.03603922 -80.6550293 3.87817383 C-74.85526891 3.35208836 -69.12754266 2.65616397 -63.375 1.74609375 C-42.16162753 -1.43806094 -21.35316179 -1.06832526 0 0 Z " fill="#6B542E" transform="translate(254.6875,400.125)"/>
<path d="M0 0 C0 7.26 0 14.52 0 22 C-12.99793806 22.27033373 -25.63469278 21.39033659 -38.55834961 20.02856445 C-41.82352006 19.686345 -45.09018856 19.36287562 -48.35742188 19.04101562 C-68.54512705 16.99293749 -68.54512705 16.99293749 -78 14 C-74.52725848 11.96244394 -71.27552987 11.42834401 -67.3125 10.8515625 C-66.6618457 10.75425842 -66.01119141 10.65695435 -65.34082031 10.55670166 C-63.94912935 10.34873311 -62.55702255 10.14353163 -61.16455078 9.94085693 C-57.52381845 9.40959171 -53.88676143 8.85459523 -50.25 8.296875 C-49.17359253 8.1319606 -49.17359253 8.1319606 -48.07543945 7.9637146 C-40.05540812 6.72064665 -32.11941914 5.1230322 -24.17871094 3.45410156 C-20.50023441 2.68740879 -16.81451496 1.96142731 -13.125 1.25 C-11.89007813 1.00765625 -10.65515625 0.7653125 -9.3828125 0.515625 C-6 0 -6 0 0 0 Z " fill="#634B21" transform="translate(357,336)"/>
<path d="M0 0 C0 7.59 0 15.18 0 23 C-10.12166172 21.87537092 -10.12166172 21.87537092 -14.07421875 21.203125 C-15.42459229 20.97568604 -15.42459229 20.97568604 -16.80224609 20.74365234 C-17.75437988 20.58074707 -18.70651367 20.4178418 -19.6875 20.25 C-21.79814516 19.89304036 -23.90882394 19.53627944 -26.01953125 19.1796875 C-27.13924316 18.98987305 -28.25895508 18.80005859 -29.41259766 18.60449219 C-33.23601949 17.96022974 -37.06110376 17.32638245 -40.88671875 16.6953125 C-42.89329192 16.36363796 -44.89984746 16.03185689 -46.90640259 15.70007324 C-48.82767265 15.38281514 -50.74916088 15.06687913 -52.6706543 14.75097656 C-71.19663086 11.67928626 -71.19663086 11.67928626 -80 9 C-80 8.67 -80 8.34 -80 8 C-78.10894531 7.83564453 -78.10894531 7.83564453 -76.1796875 7.66796875 C-66.7914611 6.82620314 -57.45565878 5.84225485 -48.125 4.5 C-39.24043727 3.22288414 -30.35956033 2.33633656 -21.41064453 1.64648438 C-20.49911621 1.57494141 -19.58758789 1.50339844 -18.6484375 1.4296875 C-17.84583496 1.37022949 -17.04323242 1.31077148 -16.21630859 1.24951172 C-5.11741683 0 -5.11741683 0 0 0 Z " fill="#F6D391" transform="translate(356,549)"/>
<path d="M0 0 C12.74862417 1.57714938 25.35671359 3.7382482 38 6 C39.18078125 6.21092285 40.3615625 6.4218457 41.578125 6.63916016 C51.91577465 8.48614266 51.91577465 8.48614266 56.15698242 9.24926758 C57.8175769 9.54740356 57.8175769 9.54740356 59.51171875 9.8515625 C61.12119385 10.14208496 61.12119385 10.14208496 62.76318359 10.43847656 C64.98092967 10.82321151 67.2030444 11.1833439 69.42822266 11.52246094 C70.51022949 11.6877832 71.59223633 11.85310547 72.70703125 12.0234375 C73.67745361 12.16442871 74.64787598 12.30541992 75.64770508 12.45068359 C78 13 78 13 80 15 C78.97342285 15.11069824 77.9468457 15.22139648 76.88916016 15.33544922 C72.98629677 15.75638294 69.08347499 16.17770135 65.18066406 16.59912109 C63.50912546 16.7795604 61.8375764 16.9599029 60.16601562 17.14013672 C39.85154174 19.32499353 39.85154174 19.32499353 19.55078125 21.6328125 C18.46700195 21.75849609 18.46700195 21.75849609 17.36132812 21.88671875 C15.95214818 22.05060812 14.54330844 22.21744096 13.13476562 22.38671875 C12.42642578 22.46792969 11.71808594 22.54914063 10.98828125 22.6328125 C10.08396362 22.73940186 10.08396362 22.73940186 9.16137695 22.84814453 C6.11467558 23.06220172 3.05421181 23 0 23 C0 15.41 0 7.82 0 0 Z " fill="#634A21" transform="translate(545,336)"/>
<path d="M0 0 C12.63137207 -0.28102584 24.72770551 0.79895236 37.25 2.375 C40.90062066 2.82378833 44.55185473 3.26746967 48.203125 3.7109375 C49.09052368 3.81968201 49.97792236 3.92842651 50.89221191 4.04046631 C60.24672519 5.17579713 69.62004498 6.10310682 79 7 C79 7.66 79 8.32 79 9 C77.09734375 9.31130859 77.09734375 9.31130859 75.15625 9.62890625 C65.10376139 11.28508814 55.05985602 12.98090853 45.02734375 14.75390625 C44.15772003 14.90732986 43.28809631 15.06075348 42.39212036 15.21882629 C38.03671839 15.98759899 33.68198061 16.75987181 29.328125 17.53735352 C19.57231724 19.26844931 9.83179333 20.76567915 0 22 C0 14.74 0 7.48 0 0 Z " fill="#F7D492" transform="translate(544,550)"/>
<path d="M0 0 C6.75 1.75 6.75 1.75 9 4 C9.24609566 7.041605 9.24609566 7.041605 9.24050903 11.03604126 C9.24221788 11.76870598 9.24392673 12.5013707 9.24568737 13.25623739 C9.24899503 15.72381996 9.23795778 18.19113367 9.22705078 20.65869141 C9.22648694 22.42251072 9.22680269 24.1863305 9.22793579 25.95014954 C9.22851137 30.74950563 9.21672394 35.54876246 9.20278788 40.34809542 C9.19031463 45.35961184 9.18911271 50.37113036 9.18673706 55.38265991 C9.18051225 64.87763617 9.16408793 74.37256657 9.14403808 83.8675226 C9.12171018 94.67509575 9.11069349 105.48267105 9.10064721 116.29026151 C9.07972254 138.52686664 9.04452717 160.76343043 9 183 C5.64867396 183.70541386 2.61566599 184.11366666 -0.8125 184.0625 C-1.60269531 184.05347656 -2.39289062 184.04445313 -3.20703125 184.03515625 C-4.09455078 184.01775391 -4.09455078 184.01775391 -5 184 C-0.87477326 181.42173329 1.54443033 181.68194621 7 181 C7 122.59 7 64.18 7 4 C5.02 3.34 3.04 2.68 1 2 C0.67 1.34 0.34 0.68 0 0 Z " fill="#E4C386" transform="translate(756,226)"/>
<path d="M0 0 C0.66 0.33 1.32 0.66 2 1 C1.67 1.33 1.34 1.66 1 2 C0.89060084 4.27793744 0.85306341 6.55932401 0.84178162 8.83985901 C0.83684364 9.5635022 0.83190566 10.28714539 0.82681805 11.03271717 C0.81136852 13.47566643 0.80306239 15.91858927 0.79467773 18.36157227 C0.78510506 20.10554235 0.77509535 21.84951009 0.76467896 23.59347534 C0.73755765 28.34324967 0.71658734 33.093034 0.69667697 37.84284329 C0.67486182 42.80100422 0.64745134 47.75913403 0.62062073 52.7172699 C0.57063318 62.11307573 0.52571692 71.50889877 0.48259836 80.90473837 C0.43327768 91.59865358 0.37834045 102.29253759 0.32291877 112.98642266 C0.2090057 134.99091939 0.10218707 156.99544589 0 179 C0.90492188 179.07347656 0.90492188 179.07347656 1.828125 179.1484375 C2.62734375 179.22320312 3.4265625 179.29796875 4.25 179.375 C5.03890625 179.44460938 5.8278125 179.51421875 6.640625 179.5859375 C9.085877 180.01507113 10.84836903 180.78600638 13 182 C11.60427948 182.02736707 10.20839779 182.04655989 8.8125 182.0625 C8.03519531 182.07410156 7.25789062 182.08570313 6.45703125 182.09765625 C3.87761706 181.99513581 1.52200033 181.53085076 -1 181 C-1.02332637 157.54818754 -1.04097789 134.09637681 -1.05181217 110.64455509 C-1.05697569 99.75627823 -1.06401944 88.86800857 -1.07543945 77.97973633 C-1.0853846 68.49316431 -1.09185302 59.00659751 -1.09408849 49.52002043 C-1.09539589 44.49367245 -1.09848356 39.46733938 -1.10573006 34.44099617 C-1.11248761 29.71578103 -1.11461751 24.99058702 -1.11310768 20.26536751 C-1.11338413 18.52583705 -1.11539082 16.78630593 -1.11920547 15.04677963 C-1.12413859 12.68241015 -1.12299972 10.31812175 -1.12025452 7.95375061 C-1.12316736 7.25629276 -1.1260802 6.55883491 -1.12908131 5.84024197 C-1.11412121 1.11412121 -1.11412121 1.11412121 0 0 Z " fill="#BAA887" transform="translate(137,228)"/>
<path d="M0 0 C2.04159095 -0.0272616 4.08328963 -0.04651345 6.125 -0.0625 C7.26195312 -0.07410156 8.39890625 -0.08570313 9.5703125 -0.09765625 C12.8129156 -0.005327 15.81932612 0.38610094 19 1 C14.60256024 3.3557713 10.99770449 4.12803478 6.015625 4.09765625 C5.08105469 4.09443359 4.14648438 4.09121094 3.18359375 4.08789062 C2.21550781 4.07951172 1.24742187 4.07113281 0.25 4.0625 C-0.73355469 4.05798828 -1.71710937 4.05347656 -2.73046875 4.04882812 C-5.15370791 4.03706483 -7.57682273 4.02062684 -10 4 C-6.66688525 2.2175082 -3.75519057 1.51207144 0 1 C0 0.67 0 0.34 0 0 Z " fill="#85704A" transform="translate(740,406)"/>
<path d="M0 0 C1.32987412 0.67354068 2.6628133 1.34109641 4 2 C0.66674246 2.05874776 -2.66637938 2.09384467 -6 2.125 C-6.93457031 2.14175781 -7.86914062 2.15851563 -8.83203125 2.17578125 C-14.59209963 2.21606145 -19.4774282 1.65416655 -25 0 C-25 -0.33 -25 -0.66 -25 -1 C-22.81274749 -1.16988369 -20.62518299 -1.33575269 -18.4375 -1.5 C-16.61025391 -1.63921875 -16.61025391 -1.63921875 -14.74609375 -1.78125 C-3.89103039 -2.41512231 -3.89103039 -2.41512231 0 0 Z " fill="#7F6B4A" transform="translate(167,408)"/>
<path d="M0 0 C0 0.66 0 1.32 0 2 C-2.88211302 2.96070434 -4.69850044 3.10581883 -7.6875 3.0625 C-8.89986328 3.04896484 -8.89986328 3.04896484 -10.13671875 3.03515625 C-11.05904297 3.01775391 -11.05904297 3.01775391 -12 3 C-7.74560485 0.81962249 -4.84315381 0 0 0 Z " fill="#C8B9A0" transform="translate(763,407)"/>
<path d="M0 0 C1.41750563 0.11509661 2.83401169 0.24253658 4.25 0.375 C5.03890625 0.44460938 5.8278125 0.51421875 6.640625 0.5859375 C9.085877 1.01507113 10.84836903 1.78600638 13 3 C4.80743982 3.4726477 4.80743982 3.4726477 1.4375 1.5 C0.963125 1.005 0.48875 0.51 0 0 Z " fill="#C0B6A2" transform="translate(137,407)"/>
</svg>
