<?xml version="1.0" encoding="UTF-8"?>
<svg version="1.1" xmlns="http://www.w3.org/2000/svg" width="491" height="512">
<path d="M0 0 C1.13787964 -0.00315216 2.27575928 -0.00630432 3.44812012 -0.009552 C4.6866272 -0.00752777 5.92513428 -0.00550354 7.20117188 -0.00341797 C8.46255981 -0.00437469 9.72394775 -0.00533142 11.02355957 -0.00631714 C13.69689325 -0.00699922 16.37013624 -0.00564076 19.04345703 -0.00097656 C22.47698878 0.00472073 25.91044237 0.00144152 29.34397125 -0.00454903 C32.6088743 -0.00902309 35.87376781 -0.0058943 39.13867188 -0.00341797 C40.37717896 -0.0054422 41.61568604 -0.00746643 42.89172363 -0.009552 C44.02960327 -0.00639984 45.16748291 -0.00324768 46.33984375 0 C47.34720581 0.00079559 48.35456787 0.00159119 49.39245605 0.00241089 C51.66992188 0.12939453 51.66992188 0.12939453 52.66992188 1.12939453 C54.37211706 1.42694714 56.08431016 1.66781492 57.79882812 1.88330078 C59.35053711 2.08149414 59.35053711 2.08149414 60.93359375 2.28369141 C62.56651367 2.48575195 62.56651367 2.48575195 64.23242188 2.69189453 C65.32490234 2.83046875 66.41738281 2.96904297 67.54296875 3.11181641 C70.25149635 3.45481772 72.96046456 3.79382968 75.66992188 4.12939453 C75.66992188 4.78939453 75.66992188 5.44939453 75.66992188 6.12939453 C76.40597656 6.18998047 77.14203125 6.25056641 77.90039062 6.31298828 C78.87621094 6.39677734 79.85203125 6.48056641 80.85742188 6.56689453 C81.82035156 6.64810547 82.78328125 6.72931641 83.77539062 6.81298828 C86.45641789 7.10605604 89.03622048 7.55643207 91.66992188 8.12939453 C91.66992188 8.78939453 91.66992188 9.44939453 91.66992188 10.12939453 C92.88679688 10.27376953 94.10367187 10.41814453 95.35742188 10.56689453 C98.49662565 10.95720406 101.57743528 11.45291309 104.66992188 12.12939453 C104.66992188 12.78939453 104.66992188 13.44939453 104.66992188 14.12939453 C105.3221875 14.23896484 105.97445313 14.34853516 106.64648438 14.46142578 C111.81770194 15.39956702 116.03827817 16.54429107 120.66992188 19.12939453 C121.39179688 19.41685547 122.11367188 19.70431641 122.85742188 20.00048828 C126.42290573 21.43163389 129.88175159 23.05687989 133.35742188 24.69189453 C134.03353516 25.00835938 134.70964844 25.32482422 135.40625 25.65087891 C140.29789807 27.94338263 140.29789807 27.94338263 142.66992188 29.12939453 C142.66992188 29.78939453 142.66992188 30.44939453 142.66992188 31.12939453 C144.97992188 31.78939453 147.28992188 32.44939453 149.66992188 33.12939453 C149.66992188 33.78939453 149.66992188 34.44939453 149.66992188 35.12939453 C150.98863281 35.50644531 150.98863281 35.50644531 152.33398438 35.89111328 C155.7922979 37.17481982 158.12835078 38.70528649 161.04492188 40.94189453 C164.93078008 43.86422931 168.82155422 46.56372114 173.01367188 49.02392578 C174.80274563 50.21804812 176.163236 51.60178246 177.66992188 53.12939453 C178.32992188 53.45939453 178.98992187 53.78939453 179.66992188 54.12939453 C179.66992188 54.78939453 179.66992188 55.44939453 179.66992188 56.12939453 C180.98992187 56.78939453 182.30992187 57.44939453 183.66992188 58.12939453 C183.66992188 58.78939453 183.66992188 59.44939453 183.66992188 60.12939453 C184.41242188 60.38076172 185.15492188 60.63212891 185.91992188 60.89111328 C188.87626674 62.22230834 190.45180738 63.6030359 192.66992188 65.94189453 C193.70439453 67.01890625 193.70439453 67.01890625 194.75976562 68.11767578 C195.39011719 68.78154297 196.02046875 69.44541016 196.66992188 70.12939453 C197.51554687 70.95439453 198.36117188 71.77939453 199.23242188 72.62939453 C208.66992188 82.30888171 208.66992188 82.30888171 208.66992188 85.12939453 C209.50523437 85.40783203 209.50523437 85.40783203 210.35742188 85.69189453 C213.28572604 87.51219172 214.65717945 89.71497063 216.52148438 92.57080078 C217.60239122 94.28511968 217.60239122 94.28511968 219.66992188 95.12939453 C220.67731933 96.79160034 221.67515142 98.45960127 222.66992188 100.12939453 C224.20843022 102.19550652 225.77827607 104.23311109 227.36523438 106.26220703 C228.66992188 108.12939453 228.66992188 108.12939453 229.66992188 111.12939453 C230.32992188 111.45939453 230.98992187 111.78939453 231.66992188 112.12939453 C233.24540871 114.75520592 233.66992188 116.0003924 233.66992188 119.12939453 C234.32992188 119.12939453 234.98992187 119.12939453 235.66992188 119.12939453 C250.66992188 146.91978754 250.66992188 146.91978754 250.66992188 153.12939453 C251.32992188 153.12939453 251.98992187 153.12939453 252.66992188 153.12939453 C252.94255859 154.07298828 252.94255859 154.07298828 253.22070312 155.03564453 C254.41946907 159.11759625 255.632853 163.16066643 257.16992188 167.12939453 C259.77143451 173.89877559 261.71828337 180.81836046 263.14257812 187.92626953 C263.65551389 190.24864758 263.65551389 190.24864758 264.66210938 192.88330078 C265.84567012 196.69546738 266.31310151 200.36069803 266.73242188 204.31689453 C267.31029932 209.79774648 267.31029932 209.79774648 268.66992188 215.12939453 C268.77113301 217.70278852 268.81676444 220.24916285 268.81518555 222.82275391 C268.82022346 223.99659637 268.82022346 223.99659637 268.82536316 225.19415283 C268.83487741 227.78716615 268.8368171 230.38011483 268.83789062 232.97314453 C268.84110499 234.78096544 268.84446919 236.58878608 268.84797668 238.39660645 C268.85397062 242.1929586 268.85581652 245.98928798 268.85522461 249.78564453 C268.85512345 254.62614699 268.86872603 259.46650122 268.88599682 264.30696869 C268.89717866 268.04586441 268.89914186 271.78472514 268.89861488 275.52363586 C268.89978761 277.30642707 268.90416921 279.0892194 268.91194725 280.87199402 C268.94878182 290.19410272 268.78173864 298.99677597 266.66992188 308.12939453 C266.28325736 310.523373 265.90590882 312.9189098 265.54492188 315.31689453 C265.37734375 316.42419922 265.20976562 317.53150391 265.03710938 318.67236328 C264.9159375 319.48318359 264.79476563 320.29400391 264.66992188 321.12939453 C264.00992187 321.12939453 263.34992188 321.12939453 262.66992188 321.12939453 C262.72792969 322.07814453 262.7859375 323.02689453 262.84570312 324.00439453 C262.84195304 328.97451067 261.3418207 333.42704364 259.85742188 338.12939453 C259.59638672 338.99306641 259.33535156 339.85673828 259.06640625 340.74658203 C257.54309248 345.69641146 255.77010777 350.39787108 253.66992188 355.12939453 C253.29683556 356.45215509 252.93945772 357.7817153 252.66992188 359.12939453 C252.00992187 359.12939453 251.34992188 359.12939453 250.66992188 359.12939453 C250.50492187 360.28439453 250.33992188 361.43939453 250.16992188 362.62939453 C247.80583017 373.37835823 241.12597169 383.68623139 235.66992188 393.12939453 C235.00992187 393.12939453 234.34992188 393.12939453 233.66992188 393.12939453 C233.52554687 393.72751953 233.38117188 394.32564453 233.23242188 394.94189453 C232.78267798 396.69089858 232.24099847 398.41616476 231.66992188 400.12939453 C231.00992187 400.45939453 230.34992188 400.78939453 229.66992188 401.12939453 C228.70863546 402.81993271 227.75058149 404.5125008 226.81835938 406.21923828 C225.67781179 408.11627151 224.43065478 409.70932248 222.98242188 411.37939453 C220.52008637 413.96466143 220.52008637 413.96466143 219.66992188 417.12939453 C218.3601819 418.48591093 217.02190046 419.81497091 215.66992188 421.12939453 C214.78651397 422.20588261 213.91171905 423.28948684 213.04492188 424.37939453 C212.26117188 425.28689453 211.47742188 426.19439453 210.66992188 427.12939453 C210.00992187 427.12939453 209.34992188 427.12939453 208.66992188 427.12939453 C208.48429687 427.81001953 208.29867188 428.49064453 208.10742188 429.19189453 C206.07808825 433.33879368 202.99844671 435.99023872 199.66992188 439.12939453 C198.49429688 440.33595703 198.49429688 440.33595703 197.29492188 441.56689453 C194.89652279 443.90818888 192.46230813 446.18745248 189.98242188 448.44189453 C189.21542969 449.13927734 188.4484375 449.83666016 187.65820312 450.55517578 C185.66992188 452.12939453 185.66992188 452.12939453 183.66992188 452.12939453 C183.00992187 453.44939453 182.34992188 454.76939453 181.66992188 456.12939453 C181.00992187 456.12939453 180.34992188 456.12939453 179.66992188 456.12939453 C179.66992188 456.78939453 179.66992188 457.44939453 179.66992188 458.12939453 C179.07179688 458.39751953 178.47367187 458.66564453 177.85742188 458.94189453 C175.69311451 459.97372621 175.69311451 459.97372621 174.41992188 461.43017578 C172.00084019 463.7790609 169.25903179 465.61054714 166.48242188 467.50439453 C165.90451904 467.90070068 165.32661621 468.29700684 164.73120117 468.70532227 C152.38887562 477.12939453 152.38887562 477.12939453 149.66992188 477.12939453 C149.66992188 477.78939453 149.66992188 478.44939453 149.66992188 479.12939453 C147.35992187 479.78939453 145.04992187 480.44939453 142.66992188 481.12939453 C142.66992188 481.78939453 142.66992188 482.44939453 142.66992188 483.12939453 C141.78949219 483.52771484 140.9090625 483.92603516 140.00195312 484.33642578 C138.84050781 484.86623047 137.6790625 485.39603516 136.48242188 485.94189453 C135.33386719 486.46396484 134.1853125 486.98603516 133.00195312 487.52392578 C129.73147001 489.03506855 129.73147001 489.03506855 127.01367188 490.73486328 C124.79113259 492.05727415 122.81959459 492.87318792 120.35742188 493.62939453 C117.28969024 494.59734324 114.28963297 495.64217361 111.29492188 496.81689453 C107.66992187 498.12939453 107.66992187 498.12939453 104.66992188 498.12939453 C104.66992188 498.78939453 104.66992188 499.44939453 104.66992188 500.12939453 C103.25453471 500.46811967 101.83754225 500.80014077 100.41992188 501.12939453 C99.63101562 501.31501953 98.84210938 501.50064453 98.02929688 501.69189453 C95.66992188 502.12939453 95.66992188 502.12939453 91.66992188 502.12939453 C91.66992188 502.78939453 91.66992188 503.44939453 91.66992188 504.12939453 C86.28965163 505.32028439 81.21700803 506.42134643 75.66992188 506.12939453 C75.66992188 506.78939453 75.66992188 507.44939453 75.66992188 508.12939453 C74.97842041 508.21503662 74.28691895 508.30067871 73.57446289 508.38891602 C70.45987976 508.77715755 67.3461601 509.17193658 64.23242188 509.56689453 C63.14380859 509.70160156 62.05519531 509.83630859 60.93359375 509.97509766 C59.38188477 510.17329102 59.38188477 510.17329102 57.79882812 510.37548828 C56.84049072 510.49593506 55.88215332 510.61638184 54.89477539 510.74047852 C52.70391768 510.9038037 52.70391768 510.9038037 51.66992188 512.12939453 C49.89546178 512.22833231 48.11705936 512.25738546 46.33984375 512.25878906 C45.20196411 512.26194122 44.06408447 512.26509338 42.89172363 512.26834106 C41.65321655 512.26631683 40.41470947 512.2642926 39.13867188 512.26220703 C37.87728394 512.26316376 36.615896 512.26412048 35.31628418 512.2651062 C32.6429505 512.26578828 29.96970751 512.26442982 27.29638672 512.25976562 C23.86285497 512.25406834 20.42940138 512.25734754 16.9958725 512.26333809 C13.73096945 512.26781215 10.46607594 512.26468337 7.20117188 512.26220703 C5.96266479 512.26423126 4.72415771 512.26625549 3.44812012 512.26834106 C2.31024048 512.2651889 1.17236084 512.26203674 0 512.25878906 C-1.00736206 512.25799347 -2.01472412 512.25719788 -3.0526123 512.25637817 C-5.33007813 512.12939453 -5.33007813 512.12939453 -6.33007812 511.12939453 C-8.03227331 510.83184192 -9.74446641 510.59097415 -11.45898438 510.37548828 C-13.01069336 510.17729492 -13.01069336 510.17729492 -14.59375 509.97509766 C-15.68236328 509.84039062 -16.77097656 509.70568359 -17.89257812 509.56689453 C-18.98505859 509.42832031 -20.07753906 509.28974609 -21.203125 509.14697266 C-23.9116526 508.80397134 -26.62062081 508.46495938 -29.33007812 508.12939453 C-29.33007812 507.46939453 -29.33007812 506.80939453 -29.33007812 506.12939453 C-30.06613281 506.06880859 -30.8021875 506.00822266 -31.56054688 505.94580078 C-33.02427734 505.82011719 -33.02427734 505.82011719 -34.51757812 505.69189453 C-35.48050781 505.61068359 -36.4434375 505.52947266 -37.43554688 505.44580078 C-40.11657414 505.15273302 -42.69637673 504.70235699 -45.33007812 504.12939453 C-45.33007812 503.46939453 -45.33007812 502.80939453 -45.33007812 502.12939453 C-46.54695312 501.98501953 -47.76382813 501.84064453 -49.01757812 501.69189453 C-52.1567819 501.301585 -55.23759153 500.80587597 -58.33007812 500.12939453 C-58.33007812 499.46939453 -58.33007812 498.80939453 -58.33007812 498.12939453 C-59.30847656 497.96503906 -59.30847656 497.96503906 -60.30664062 497.79736328 C-65.47785819 496.85922204 -69.69843442 495.714498 -74.33007812 493.12939453 C-75.05195313 492.84193359 -75.77382812 492.55447266 -76.51757812 492.25830078 C-80.08306198 490.82715518 -83.54190784 489.20190917 -87.01757812 487.56689453 C-87.69369141 487.25042969 -88.36980469 486.93396484 -89.06640625 486.60791016 C-93.95805432 484.31540644 -93.95805432 484.31540644 -96.33007812 483.12939453 C-96.33007812 482.46939453 -96.33007812 481.80939453 -96.33007812 481.12939453 C-98.64007813 480.46939453 -100.95007813 479.80939453 -103.33007812 479.12939453 C-103.33007812 478.46939453 -103.33007812 477.80939453 -103.33007812 477.12939453 C-104.20921875 476.87802734 -105.08835937 476.62666016 -105.99414062 476.36767578 C-109.45245415 475.08396924 -111.78850703 473.55350257 -114.70507812 471.31689453 C-118.59093633 468.39455975 -122.48171047 465.69506792 -126.67382812 463.23486328 C-128.46290188 462.04074094 -129.82339225 460.6570066 -131.33007812 459.12939453 C-131.99007812 458.79939453 -132.65007812 458.46939453 -133.33007812 458.12939453 C-133.33007812 457.46939453 -133.33007812 456.80939453 -133.33007812 456.12939453 C-134.65007812 455.46939453 -135.97007812 454.80939453 -137.33007812 454.12939453 C-137.33007812 453.46939453 -137.33007812 452.80939453 -137.33007812 452.12939453 C-138.07386719 451.87802734 -138.81765625 451.62666016 -139.58398438 451.36767578 C-142.53742989 450.03589452 -144.06886362 448.66848489 -146.26757812 446.31689453 C-148.57105887 443.90969233 -150.81438156 441.66016643 -153.45507812 439.62939453 C-156.99927166 436.54748711 -159.84589908 433.11993747 -162.33007812 429.12939453 C-162.33007812 428.46939453 -162.33007812 427.80939453 -162.33007812 427.12939453 C-162.88695312 426.94376953 -163.44382813 426.75814453 -164.01757812 426.56689453 C-166.94588229 424.74659735 -168.3173357 422.54381843 -170.18164062 419.68798828 C-171.26254747 417.97366938 -171.26254747 417.97366938 -173.33007812 417.12939453 C-173.99674479 415.7960612 -174.66341146 414.46272786 -175.33007812 413.12939453 C-175.99007812 412.79939453 -176.65007812 412.46939453 -177.33007812 412.12939453 C-179.18971056 409.04937831 -180.91598481 406.00359153 -182.45507812 402.75439453 C-183.23163846 400.93882544 -183.23163846 400.93882544 -185.33007812 400.12939453 C-186.90556496 397.50358315 -187.33007812 396.25839666 -187.33007812 393.12939453 C-187.99007812 393.12939453 -188.65007812 393.12939453 -189.33007812 393.12939453 C-204.33007812 365.33900152 -204.33007812 365.33900152 -204.33007812 359.12939453 C-204.99007812 359.12939453 -205.65007812 359.12939453 -206.33007812 359.12939453 C-206.51183594 358.50033203 -206.69359375 357.87126953 -206.88085938 357.22314453 C-208.06091111 353.20491707 -209.24622349 349.22059021 -210.76757812 345.31689453 C-215.72548474 332.41595429 -219.2012507 319.11366018 -220.68408203 305.3840332 C-221.0529056 301.6359094 -221.0529056 301.6359094 -222.33007812 298.12939453 C-222.43355087 295.52759155 -222.47688831 292.95236688 -222.4753418 290.35009766 C-222.47870041 289.5465686 -222.48205902 288.74303955 -222.48551941 287.91516113 C-222.49505047 285.24697336 -222.4969742 282.5788483 -222.49804688 279.91064453 C-222.50126011 278.05415827 -222.50462423 276.19767225 -222.50813293 274.34118652 C-222.51413109 270.44050511 -222.51597235 266.53984586 -222.51538086 262.63916016 C-222.51527969 257.66064875 -222.52888216 252.68228141 -222.54615307 247.70380402 C-222.55732393 243.86372232 -222.55929844 240.02367476 -222.55877113 236.18357849 C-222.55994551 234.34972135 -222.56433657 232.51586316 -222.5721035 230.68202209 C-222.60695273 221.59652841 -222.62851518 212.98258796 -220.33007812 204.12939453 C-219.81517824 200.79327235 -219.34883656 197.45440054 -218.89257812 194.10986328 C-218.34651946 191.21651075 -217.45042788 188.8402016 -216.33007812 186.12939453 C-215.97804647 184.55437885 -215.66548145 182.97003103 -215.39257812 181.37939453 C-213.92397975 173.68348367 -211.19609009 166.60921403 -208.19726562 159.39111328 C-207.40127901 157.31509412 -206.8160135 155.29626961 -206.33007812 153.12939453 C-205.67007813 153.12939453 -205.01007813 153.12939453 -204.33007812 153.12939453 C-204.16507813 151.97439453 -204.00007813 150.81939453 -203.83007812 149.62939453 C-201.46598642 138.88043083 -194.78612794 128.57255767 -189.33007812 119.12939453 C-188.67007813 119.12939453 -188.01007813 119.12939453 -187.33007812 119.12939453 C-187.18570313 118.53126953 -187.04132813 117.93314453 -186.89257812 117.31689453 C-186.44283423 115.56789049 -185.90115472 113.8426243 -185.33007812 112.12939453 C-184.67007813 111.79939453 -184.01007813 111.46939453 -183.33007812 111.12939453 C-181.48278295 108.0698119 -179.75865575 105.06218113 -178.26757812 101.81689453 C-177.33007812 100.12939453 -177.33007812 100.12939453 -174.33007812 98.12939453 C-173.83507812 96.64439453 -173.83507812 96.64439453 -173.33007812 95.12939453 C-172.02033815 93.77287813 -170.68205671 92.44381816 -169.33007812 91.12939453 C-168.44667022 90.05290645 -167.5718753 88.96930222 -166.70507812 87.87939453 C-165.92132813 86.97189453 -165.13757813 86.06439453 -164.33007812 85.12939453 C-163.67007813 85.12939453 -163.01007813 85.12939453 -162.33007812 85.12939453 C-162.08257812 84.40751953 -161.83507812 83.68564453 -161.58007812 82.94189453 C-159.12342903 77.41443407 -155.07962831 73.8927309 -150.56054688 70.04345703 C-147.37866692 67.31294708 -144.30126539 64.46879468 -141.21289062 61.63330078 C-139.33007812 60.12939453 -139.33007812 60.12939453 -137.33007812 60.12939453 C-136.67007813 58.80939453 -136.01007813 57.48939453 -135.33007812 56.12939453 C-134.67007813 56.12939453 -134.01007813 56.12939453 -133.33007812 56.12939453 C-133.33007812 55.46939453 -133.33007812 54.80939453 -133.33007812 54.12939453 C-132.73195313 53.86126953 -132.13382812 53.59314453 -131.51757812 53.31689453 C-129.35327076 52.28506285 -129.35327076 52.28506285 -128.08007812 50.82861328 C-125.66099644 48.47972817 -122.91918804 46.64824193 -120.14257812 44.75439453 C-119.56467529 44.35808838 -118.98677246 43.96178223 -118.39135742 43.5534668 C-106.04903187 35.12939453 -106.04903187 35.12939453 -103.33007812 35.12939453 C-103.33007812 34.46939453 -103.33007812 33.80939453 -103.33007812 33.12939453 C-101.02007812 32.46939453 -98.71007812 31.80939453 -96.33007812 31.12939453 C-96.33007812 30.46939453 -96.33007812 29.80939453 -96.33007812 29.12939453 C-95.44964844 28.73107422 -94.56921875 28.33275391 -93.66210938 27.92236328 C-91.91994141 27.12765625 -91.91994141 27.12765625 -90.14257812 26.31689453 C-88.41974609 25.53378906 -88.41974609 25.53378906 -86.66210938 24.73486328 C-83.39162626 23.22372051 -83.39162626 23.22372051 -80.67382812 21.52392578 C-78.45128884 20.20151491 -76.47975084 19.38560114 -74.01757812 18.62939453 C-70.94984649 17.66144582 -67.94978922 16.61661546 -64.95507812 15.44189453 C-61.33007812 14.12939453 -61.33007812 14.12939453 -58.33007812 14.12939453 C-58.33007812 13.46939453 -58.33007812 12.80939453 -58.33007812 12.12939453 C-56.91469096 11.7906694 -55.4976985 11.45864829 -54.08007812 11.12939453 C-53.29117188 10.94376953 -52.50226563 10.75814453 -51.68945312 10.56689453 C-49.33007812 10.12939453 -49.33007812 10.12939453 -45.33007812 10.12939453 C-45.33007812 9.46939453 -45.33007812 8.80939453 -45.33007812 8.12939453 C-39.94980788 6.93850467 -34.87716428 5.83744263 -29.33007812 6.12939453 C-29.33007812 5.46939453 -29.33007812 4.80939453 -29.33007812 4.12939453 C-28.63857666 4.04375244 -27.9470752 3.95811035 -27.23461914 3.86987305 C-24.12003601 3.48163152 -21.00631635 3.08685248 -17.89257812 2.69189453 C-16.80396484 2.5571875 -15.71535156 2.42248047 -14.59375 2.28369141 C-13.55927734 2.1515625 -12.52480469 2.01943359 -11.45898438 1.88330078 C-10.50064697 1.762854 -9.54230957 1.64240723 -8.55493164 1.51831055 C-5.27556847 0.94506074 -3.69681118 0.00291966 0 0 Z " fill="#F48536" transform="translate(222.330078125,-0.12939453125)"/>
<path d="M0 0 C27.06 0 54.12 0 82 0 C93.00268097 27.50670241 93.00268097 27.50670241 94 36 C94.66 36 95.32 36 96 36 C97.92743031 40.68649298 99.83558334 45.35723454 101.375 50.1875 C102.6950287 54.2623712 104.26494375 58.22059973 105.875 62.1875 C107.92699005 67.26651193 109.92323239 72.35790641 111.8125 77.5 C112.21082031 78.5828125 112.60914063 79.665625 113.01953125 80.78125 C114.05605708 84.18402802 114.58568362 87.47162828 115 91 C115.66 91 116.32 91 117 91 C119.17912126 96.09936499 121.09999504 101.11154611 122.4375 106.5 C123.65175102 111.22429904 125.51986503 115.16004603 127.8046875 119.44921875 C129.4708461 123.00477942 130.35797485 126.63862969 131.2265625 130.45703125 C132.09528802 133.31329547 133.44372695 135.46019398 135 138 C135.71178385 139.77422593 136.3784073 141.56720123 137 143.375 C138.09319585 146.49247866 139.21417681 149.47975606 140.5625 152.5 C141.78463761 155.47563939 142.59757529 158.20714431 143.375 161.3125 C144.3753031 165.17156407 145.63107982 168.48038684 147.5 172 C149.33150334 175.45042148 150.55376452 178.64718176 151.5 182.4375 C152.72140325 187.32311302 154.52511507 191.63789427 156.671875 196.18359375 C159.81235182 202.84325194 162.70636178 209.47060036 164.5 216.625 C165.68355709 221.31887984 167.54560828 225.20767508 169.8125 229.46484375 C171.06708495 232.14321754 171.79754323 234.69280443 172.5 237.5625 C173.65040645 242.25722229 175.43095059 245.95445004 178.01171875 250.02734375 C179 252 179 252 179 256 C186.39683258 254.31014246 192.94778029 251.76671969 199.78125 248.48828125 C203.63674096 246.70558458 207.55298872 245.25292465 211.5625 243.859375 C213.25179579 243.26378994 214.91871931 242.60226176 216.5625 241.890625 C219 241 219 241 223 241 C225.45489316 246.12325529 226.50341703 250.33895411 227 256 C227.66 256 228.32 256 229 256 C230.31626692 259.61973402 231 262.09567131 231 266 C231.66 266 232.32 266 233 266 C233.18175781 266.64066406 233.36351562 267.28132813 233.55078125 267.94140625 C234.72170409 271.97058178 235.90521527 275.78855715 237.625 279.625 C239.22206562 283.54507015 239.63158108 286.80002436 240 291 C236.61117642 292.82475116 233.28599828 294.28273105 229.625 295.4375 C226.69112737 296.37653386 224.02935501 297.42639851 221.3125 298.875 C213.98338961 302.6931593 205.93884496 305.21043128 198 307.4375 C192.56108468 309.00555631 187.48076514 311.32295465 182.3046875 313.59375 C179.06682876 314.97156223 175.84291322 316.09654904 172.4921875 317.15234375 C169.00917605 318.33700438 165.60271039 319.69625242 162.1875 321.0625 C161.54047119 321.3203125 160.89344238 321.578125 160.22680664 321.84375 C157.67637509 322.87124284 155.17580642 323.90799768 152.73828125 325.18359375 C151 326 151 326 148 326 C147.78085937 325.21238281 147.56171875 324.42476563 147.3359375 323.61328125 C145.59323131 317.62715633 143.64436094 311.99798046 140.9375 306.375 C138.60521689 301.52385112 137.05934801 296.90286737 135.77734375 291.69140625 C134.6492629 287.7856389 132.93249486 284.22540082 131.1953125 280.55859375 C129.29947588 276.5005121 127.7312993 272.34585621 126.3984375 268.0703125 C124.32494224 261.45011679 121.51347188 255.20811165 118.70703125 248.875 C114.64176778 239.68977416 111.25696416 230.40651695 108.5 220.75 C107.41896372 217.08461137 106.00580926 214.25944004 104 211 C102.07187013 206.09704119 100.67152876 201.23792432 100 196 C99.34 196 98.68 196 98 196 C92.00324113 180.35796878 92.00324113 180.35796878 89.72265625 172.328125 C88.41567697 168.1175323 86.70313628 164.06332005 85 160 C81.79851787 162.13432142 81.47793261 162.68419896 80.3125 166.125 C80.06113281 166.84945312 79.80976563 167.57390625 79.55078125 168.3203125 C79.36902344 168.87460938 79.18726563 169.42890625 79 170 C78.34 170 77.68 170 77 170 C76.6596875 171.175625 76.6596875 171.175625 76.3125 172.375 C74.59339067 177.12301625 72.31915279 181.52102552 70 186 C69.34 186 68.68 186 68 186 C67.7525 186.680625 67.505 187.36125 67.25 188.0625 C66.25913014 190.39104417 65.21945876 192.39948594 63.9375 194.5625 C62.4391943 197.22078431 61.47198038 199.0501226 61 202 C60.34 202 59.68 202 59 202 C58.7328418 202.7101123 58.46568359 203.42022461 58.19042969 204.15185547 C56.95923818 207.09752407 55.52433415 209.79174821 53.953125 212.5703125 C53.355 213.6325 52.756875 214.6946875 52.140625 215.7890625 C51.51671875 216.88992188 50.8928125 217.99078125 50.25 219.125 C49.02543693 221.29392951 47.80147393 223.46319794 46.578125 225.6328125 C45.97967773 226.69411377 45.38123047 227.75541504 44.76464844 228.84887695 C42.13548064 233.54376748 39.56307201 238.26879179 37 243 C34.17004555 248.21114744 31.33081503 253.41570775 28.43359375 258.58984375 C27.98145508 259.3986499 27.52931641 260.20745605 27.06347656 261.04077148 C26.15748594 262.6600127 25.24933708 264.27804854 24.33886719 265.89477539 C23.9215332 266.64106201 23.50419922 267.38734863 23.07421875 268.15625 C22.69869873 268.82462891 22.32317871 269.49300781 21.9362793 270.18164062 C20.86652176 272.14519556 20.86652176 272.14519556 20 275 C19.34 275 18.68 275 18 275 C17.7321167 275.87978516 17.4642334 276.75957031 17.18823242 277.66601562 C16.05366428 280.84942688 14.72400557 283.45377033 12.98828125 286.34375 C12.39466797 287.3440625 11.80105469 288.344375 11.18945312 289.375 C10.57005859 290.40625 9.95066406 291.4375 9.3125 292.5 C4.10831519 301.17550464 -0.45657111 309.91314221 -5 319 C-25.46 319 -45.92 319 -67 319 C-66.505 317.02 -66.505 317.02 -66 315 C-65.34 314.67 -64.68 314.34 -64 314 C-63.29907986 312.11601162 -62.60247895 310.23029429 -61.92871094 308.33642578 C-60.25958385 304.13728113 -57.90995963 300.32564072 -55.625 296.4375 C-54.55403658 294.59022097 -53.48374955 292.74254967 -52.4140625 290.89453125 C-51.85750977 289.93627441 -51.30095703 288.97801758 -50.72753906 287.99072266 C-47.78112912 282.88988577 -44.89215298 277.75673244 -42 272.625 C-38.68081264 266.74179743 -35.35834412 260.86095632 -32 255 C-31.34 255 -30.68 255 -30 255 C-29.9175 254.34 -29.835 253.68 -29.75 253 C-28.76146107 249.0458443 -27.14741483 245.46827753 -25 242 C-24.34 241.67 -23.68 241.34 -23 241 C-22.05712693 239.22895085 -22.05712693 239.22895085 -21.2109375 237.06640625 C-18.97769433 231.84761541 -16.35967558 226.90847995 -13.625 221.9375 C-13.10824707 220.99358398 -12.59149414 220.04966797 -12.05908203 219.07714844 C-7.53995228 210.87451686 -2.83355503 202.78642392 1.90966797 194.71191406 C7.08851506 185.88783895 12.08465054 176.97290849 17 168 C17.60714844 166.89785156 18.21429688 165.79570312 18.83984375 164.66015625 C21.31701622 160.14794722 23.74802757 155.62905445 26 151 C26.66 151 27.32 151 28 151 C28.37125 149.453125 28.37125 149.453125 28.75 147.875 C29.85198253 144.03336646 31.71632473 141.29864205 34 138 C34.93976966 136.3394277 35.85962031 134.66751408 36.765625 132.98828125 C37.29446289 132.01101074 37.82330078 131.03374023 38.36816406 130.02685547 C39.17592285 128.52856201 39.17592285 128.52856201 40 127 C41.99792575 123.31137306 43.99890712 119.62440941 46 115.9375 C46.495 115.02162109 46.99 114.10574219 47.5 113.16210938 C50.44304062 107.74737448 53.51218483 102.47844723 56.86181641 97.3034668 C58.76649799 93.44875408 58.40829297 90.21902735 58 86 C57.34 86 56.68 86 56 86 C55.49528803 84.23050388 54.99639315 82.45934777 54.5 80.6875 C54.2215625 79.70136719 53.943125 78.71523437 53.65625 77.69921875 C53 75 53 75 53 72 C52.34 72 51.68 72 51 72 C50.60167969 70.66195312 50.60167969 70.66195312 50.1953125 69.296875 C49.84210938 68.12640625 49.48890625 66.9559375 49.125 65.75 C48.77695313 64.58984375 48.42890625 63.4296875 48.0703125 62.234375 C47.01976956 58.80024804 47.01976956 58.80024804 45 55 C30.15 54.67 15.3 54.34 0 54 C0 36.18 0 18.36 0 0 Z " fill="#FEFDFC" transform="translate(164,76)"/>
<path d="M0 0 C0.33 0 0.66 0 1 0 C1 4.95 1 9.9 1 15 C1.66 15 2.32 15 3 15 C3.06469482 15.62229492 3.12938965 16.24458984 3.19604492 16.88574219 C4.73569451 31.29104732 7.0542996 45.06216538 11 59 C11.22510254 59.81243164 11.45020508 60.62486328 11.68212891 61.46191406 C12.34043173 63.83180422 13.01004875 66.19801753 13.6875 68.5625 C13.88972168 69.27140381 14.09194336 69.98030762 14.30029297 70.71069336 C15.23710783 73.87488111 16.15234564 76.22851846 18 79 C18 79.99 18 80.98 18 82 C18.66 82 19.32 82 20 82 C20.38478516 83.00353516 20.38478516 83.00353516 20.77734375 84.02734375 C23.72341964 91.41733211 27.19631558 98.34471439 31.05249023 105.29858398 C31.43348877 105.99540283 31.8144873 106.69222168 32.20703125 107.41015625 C32.5522583 108.03027588 32.89748535 108.65039551 33.25317383 109.28930664 C34 111 34 111 34 114 C34.99 114.33 35.98 114.66 37 115 C38.02231018 116.98868849 39.01616828 118.99199722 40 121 C42.04987455 124.07013175 44.2448476 127.03073217 46.4375 130 C47.58304573 131.56175639 48.72759897 133.12424131 49.87109375 134.6875 C50.4117749 135.42492432 50.95245605 136.16234863 51.50952148 136.92211914 C52.80776532 138.73200501 54.04148366 140.56330466 55.25 142.43359375 C57.17894071 145.26241975 59.33445256 146.88123152 62 149 C62.474375 149.804375 62.94875 150.60875 63.4375 151.4375 C65.09254245 154.15176962 66.98856969 155.74008792 69.46875 157.69140625 C71.44910861 159.38380455 72.9810201 161.38346317 74.60546875 163.41015625 C76.78054328 165.88986307 79.27029338 167.9583414 81.78125 170.08984375 C84.1444294 172.12434151 86.40808612 174.24730035 88.6875 176.375 C97.67716912 184.48089213 108.16618398 191.58309199 119 197 C119 197.66 119 198.32 119 199 C119.65871094 199.24105469 120.31742187 199.48210937 120.99609375 199.73046875 C124.8271102 201.34955893 128.4117111 203.32653279 132.0625 205.3125 C141.03745145 210.12581177 150.07756961 214.5193924 160 217 C160 217.66 160 218.32 160 219 C160.74765625 219.12117187 161.4953125 219.24234375 162.265625 219.3671875 C163.74289063 219.61855469 163.74289063 219.61855469 165.25 219.875 C166.71179688 220.11863281 166.71179688 220.11863281 168.203125 220.3671875 C171 221 171 221 172.83325195 221.97705078 C175.38995683 223.18410356 177.6707614 223.57657543 180.46484375 224 C181.51220703 224.165 182.55957031 224.33 183.63867188 224.5 C184.72728516 224.665 185.81589844 224.83 186.9375 225 C189.0932792 225.32791413 191.24826937 225.66106758 193.40234375 226 C194.35616943 226.144375 195.30999512 226.28875 196.29272461 226.4375 C199.04349476 227.00903706 201.3980728 227.95829205 204 229 C206.30673796 229.44184886 206.30673796 229.44184886 208.64453125 229.6328125 C209.48564453 229.71660156 210.32675781 229.80039062 211.19335938 229.88671875 C212.05767578 229.96535156 212.92199219 230.04398438 213.8125 230.125 C214.69615234 230.21136719 215.57980469 230.29773438 216.49023438 230.38671875 C218.65952058 230.59778444 220.82968458 230.79979426 223 231 C223 231.66 223 232.32 223 233 C229.07933502 232.90504658 235.15833595 232.79867888 241.23730469 232.68261719 C243.2968223 232.64479847 245.35639548 232.60987252 247.41601562 232.578125 C263.38357159 232.32911828 279.44753012 231.98941111 295 228 C296.58277413 227.66402141 298.16612052 227.33072851 299.75 227 C302.13850068 226.47288261 304.2220766 225.91116936 306.5 225 C308.75827385 224.09669046 310.72837304 223.6155359 313.1015625 223.14453125 C317.89769355 222.10025905 322.3285447 220.51647119 326.875 218.6875 C328.05715088 218.21848267 328.05715088 218.21848267 329.26318359 217.73999023 C335.26384105 215.33985049 341.18159804 212.81665378 347 210 C347.58958496 209.71543945 348.17916992 209.43087891 348.78662109 209.13769531 C372.51111281 197.63599498 394.96628864 184.03371136 413.7109375 165.2890625 C415.50386082 163.49613918 417.26179912 161.93141988 419.25 160.375 C424.19290478 156.19171911 427.98585591 151.0480903 432 146 C433.49921965 144.20768031 434.99921368 142.41600806 436.5 140.625 C442.55794238 133.22202495 448.00059317 125.38189667 452.9375 117.1875 C453.618125 116.135625 454.29875 115.08375 455 114 C455.66 114 456.32 114 457 114 C457.16435547 112.93458984 457.16435547 112.93458984 457.33203125 111.84765625 C458.06492577 108.72321118 459.21153347 106.28483701 460.6875 103.4375 C461.22890625 102.37917969 461.7703125 101.32085937 462.328125 100.23046875 C462.87984375 99.16441406 463.4315625 98.09835937 464 97 C470.27408048 84.79856454 476.62147237 72.35877593 480 59 C480.32742188 57.741875 480.65484375 56.48375 480.9921875 55.1875 C482.03582443 51.13438325 483.02625965 47.07048542 484 43 C484.20753906 42.13632812 484.41507812 41.27265625 484.62890625 40.3828125 C486.46172134 32.04133911 487.13124276 23.48424625 488 15 C488.66 15 489.32 15 490 15 C490 13.02 490 11.04 490 9 C490.33 9 490.66 9 491 9 C491.05009283 13.071006 491.08604089 17.14188832 491.10986328 21.21313477 C491.11981266 22.59304944 491.13337705 23.97294365 491.15087891 25.3527832 C491.25577604 33.84636594 490.80637721 41.70426863 489 50 C488.61333548 52.39397847 488.23598695 54.78951527 487.875 57.1875 C487.70742188 58.29480469 487.53984375 59.40210938 487.3671875 60.54296875 C487.24601562 61.35378906 487.12484375 62.16460937 487 63 C486.34 63 485.68 63 485 63 C485.05800781 63.94875 485.11601562 64.8975 485.17578125 65.875 C485.17203116 70.84511614 483.67189883 75.29764911 482.1875 80 C481.79594727 81.29550781 481.79594727 81.29550781 481.39648438 82.6171875 C479.87317061 87.56701693 478.10018589 92.26847655 476 97 C475.62691369 98.32276056 475.26953585 99.65232077 475 101 C474.34 101 473.68 101 473 101 C472.835 102.155 472.67 103.31 472.5 104.5 C470.1359083 115.2489637 463.45604981 125.55683686 458 135 C457.34 135 456.68 135 456 135 C455.855625 135.598125 455.71125 136.19625 455.5625 136.8125 C455.1127561 138.56150404 454.57107659 140.28677023 454 142 C453.34 142.33 452.68 142.66 452 143 C451.03871359 144.69053818 450.08065961 146.38310627 449.1484375 148.08984375 C448.00788991 149.98687698 446.76073291 151.57992795 445.3125 153.25 C442.8501645 155.8352669 442.8501645 155.8352669 442 159 C440.69026002 160.3565164 439.35197858 161.68557638 438 163 C437.11659209 164.07648808 436.24179717 165.16009231 435.375 166.25 C434.59125 167.1575 433.8075 168.065 433 169 C432.34 169 431.68 169 431 169 C430.814375 169.680625 430.62875 170.36125 430.4375 171.0625 C428.40816638 175.20939915 425.32852484 177.86084419 422 181 C420.824375 182.2065625 420.824375 182.2065625 419.625 183.4375 C417.22660091 185.77879435 414.79238626 188.05805795 412.3125 190.3125 C411.54550781 191.00988281 410.77851563 191.70726562 409.98828125 192.42578125 C408 194 408 194 406 194 C405.34 195.32 404.68 196.64 404 198 C403.34 198 402.68 198 402 198 C402 198.66 402 199.32 402 200 C401.401875 200.268125 400.80375 200.53625 400.1875 200.8125 C398.02319264 201.84433168 398.02319264 201.84433168 396.75 203.30078125 C394.33091832 205.64966636 391.58910991 207.48115261 388.8125 209.375 C388.23459717 209.77130615 387.65669434 210.1676123 387.0612793 210.57592773 C374.71895374 219 374.71895374 219 372 219 C372 219.66 372 220.32 372 221 C368.535 221.99 368.535 221.99 365 223 C365 223.66 365 224.32 365 225 C364.11957031 225.39832031 363.23914063 225.79664063 362.33203125 226.20703125 C361.17058594 226.73683594 360.00914062 227.26664063 358.8125 227.8125 C357.66394531 228.33457031 356.51539063 228.85664063 355.33203125 229.39453125 C352.06154814 230.90567402 352.06154814 230.90567402 349.34375 232.60546875 C347.12121072 233.92787962 345.14967271 234.74379339 342.6875 235.5 C339.61976836 236.46794871 336.61971109 237.51277908 333.625 238.6875 C330 240 330 240 327 240 C327 240.66 327 241.32 327 242 C325.58461283 242.33872513 324.16762037 242.67074624 322.75 243 C321.96109375 243.185625 321.1721875 243.37125 320.359375 243.5625 C318 244 318 244 314 244 C314 244.66 314 245.32 314 246 C308.61972975 247.19088986 303.54708616 248.2919519 298 248 C298 248.66 298 249.32 298 250 C297.30849854 250.08564209 296.61699707 250.17128418 295.90454102 250.25952148 C292.78995789 250.64776301 289.67623823 251.04254205 286.5625 251.4375 C285.47388672 251.57220703 284.38527344 251.70691406 283.26367188 251.84570312 C282.22919922 251.97783203 281.19472656 252.10996094 280.12890625 252.24609375 C279.17056885 252.36654053 278.21223145 252.4869873 277.22485352 252.61108398 C275.0339958 252.77440917 275.0339958 252.77440917 274 254 C272.22553991 254.09893778 270.44713749 254.12799092 268.66992188 254.12939453 C267.53204224 254.13254669 266.3941626 254.13569885 265.22180176 254.13894653 C263.98329468 254.1369223 262.7447876 254.13489807 261.46875 254.1328125 C260.20736206 254.13376923 258.94597412 254.13472595 257.6463623 254.13571167 C254.97302862 254.13639375 252.29978563 254.13503529 249.62646484 254.13037109 C246.19293309 254.12467381 242.7594795 254.12795301 239.32595062 254.13394356 C236.06104757 254.13841762 232.79615407 254.13528883 229.53125 254.1328125 C228.29274292 254.13483673 227.05423584 254.13686096 225.77819824 254.13894653 C224.6403186 254.13579437 223.50243896 254.13264221 222.33007812 254.12939453 C221.32271606 254.12859894 220.315354 254.12780334 219.27746582 254.12698364 C217 254 217 254 216 253 C214.29780482 252.70244739 212.58561171 252.46157961 210.87109375 252.24609375 C209.83662109 252.11396484 208.80214844 251.98183594 207.73632812 251.84570312 C206.64771484 251.71099609 205.55910156 251.57628906 204.4375 251.4375 C203.34501953 251.29892578 202.25253906 251.16035156 201.12695312 251.01757812 C198.41842553 250.67457681 195.70945731 250.33556485 193 250 C193 249.34 193 248.68 193 248 C192.26394531 247.93941406 191.52789062 247.87882813 190.76953125 247.81640625 C189.79371094 247.73261719 188.81789062 247.64882813 187.8125 247.5625 C186.36810547 247.44068359 186.36810547 247.44068359 184.89453125 247.31640625 C182.21350398 247.02333849 179.6337014 246.57296246 177 246 C177 245.34 177 244.68 177 244 C175.1746875 243.7834375 175.1746875 243.7834375 173.3125 243.5625 C170.17329623 243.17219047 167.0924866 242.67648144 164 242 C164 241.34 164 240.68 164 240 C163.34773437 239.89042969 162.69546875 239.78085937 162.0234375 239.66796875 C156.85221993 238.72982751 152.63164371 237.58510347 148 235 C147.278125 234.71253906 146.55625 234.42507813 145.8125 234.12890625 C142.24701614 232.69776065 138.78817029 231.07251464 135.3125 229.4375 C134.63638672 229.12103516 133.96027344 228.80457031 133.26367188 228.47851562 C128.37202381 226.1860119 128.37202381 226.1860119 126 225 C126 224.34 126 223.68 126 223 C123.69 222.34 121.38 221.68 119 221 C119 220.34 119 219.68 119 219 C118.12085937 218.74863281 117.24171875 218.49726563 116.3359375 218.23828125 C112.87762398 216.95457471 110.5415711 215.42410804 107.625 213.1875 C103.73914179 210.26516522 99.84836766 207.56567339 95.65625 205.10546875 C93.86717625 203.91134641 92.50668588 202.52761207 91 201 C90.34 200.67 89.68 200.34 89 200 C89 199.34 89 198.68 89 198 C87.02 197.01 87.02 197.01 85 196 C85 195.34 85 194.68 85 194 C84.25621094 193.74863281 83.51242188 193.49726563 82.74609375 193.23828125 C79.79264824 191.90649999 78.2612145 190.53909036 76.0625 188.1875 C73.75901926 185.7802978 71.51569657 183.5307719 68.875 181.5 C65.33080646 178.41809258 62.48417905 174.99054294 60 171 C60 170.34 60 169.68 60 169 C59.443125 168.814375 58.88625 168.62875 58.3125 168.4375 C55.38419583 166.61720281 54.01274242 164.4144239 52.1484375 161.55859375 C51.06753066 159.84427485 51.06753066 159.84427485 49 159 C48.33333333 157.66666667 47.66666667 156.33333333 47 155 C46.34 154.67 45.68 154.34 45 154 C43.14036756 150.91998378 41.41409332 147.874197 39.875 144.625 C39.09843966 142.80943091 39.09843966 142.80943091 37 142 C35.42451317 139.37418862 35 138.12900213 35 135 C34.34 135 33.68 135 33 135 C18 107.20960699 18 107.20960699 18 101 C17.34 101 16.68 101 16 101 C15.81824219 100.3709375 15.63648438 99.741875 15.44921875 99.09375 C14.26916701 95.07552254 13.08385463 91.09119568 11.5625 87.1875 C6.60459339 74.28655975 3.12882742 60.98426565 1.64599609 47.25463867 C1.27717253 43.50651487 1.27717253 43.50651487 0 40 C-0.08705146 37.01029711 -0.11550145 34.04415045 -0.09765625 31.0546875 C-0.0962413 30.1696756 -0.09482635 29.2846637 -0.09336853 28.37283325 C-0.0877614 25.54018809 -0.07520771 22.70762136 -0.0625 19.875 C-0.05748592 17.95703239 -0.05292285 16.03906354 -0.04882812 14.12109375 C-0.03778966 9.41403218 -0.02052025 4.7070294 0 0 Z " fill="#9E5025" transform="translate(0,258)"/>
<path d="M0 0 C27.06 0 54.12 0 82 0 C81.67 0.66 81.34 1.32 81 2 C54.93 1.67 28.86 1.34 2 1 C2 17.83 2 34.66 2 52 C16.19 52 30.38 52 45 52 C45 52.66 45 53.32 45 54 C30.15 54 15.3 54 0 54 C0 36.18 0 18.36 0 0 Z " fill="#FBD4B9" transform="translate(164,76)"/>
<path d="M0 0 C1.56324232 0.11534604 3.12559683 0.24275126 4.6875 0.375 C5.99267578 0.47941406 5.99267578 0.47941406 7.32421875 0.5859375 C10 1 10 1 12.21875 1.96875 C16.32576089 3.49157426 20.47018803 3.72994999 24.8125 4.125 C26.13797852 4.25455078 26.13797852 4.25455078 27.49023438 4.38671875 C29.65952058 4.59778444 31.82968458 4.79979426 34 5 C34 5.33 34 5.66 34 6 C25.10747704 6.26197285 16.75003718 5.6039348 8 4 C8 3.34 8 2.68 8 2 C7.05125 2.04125 6.1025 2.0825 5.125 2.125 C2 2 2 2 0 0 Z " fill="#C96A2D" transform="translate(189,484)"/>
<path d="M0 0 C0.33 0 0.66 0 1 0 C1 4.95 1 9.9 1 15 C1.66 15 2.32 15 3 15 C3.66 21.93 4.32 28.86 5 36 C2.21904748 33.21904748 2.02394936 30.1790144 1.375 26.4375 C1.24311279 25.69185791 1.11122559 24.94621582 0.9753418 24.17797852 C-0.32952232 16.11346279 -0.27516453 8.14283197 0 0 Z " fill="#B75F29" transform="translate(0,258)"/>
</svg>
