<?xml version="1.0" encoding="UTF-8"?>
<svg version="1.1" xmlns="http://www.w3.org/2000/svg" width="300" height="300">
<path d="M0 0 C55.11 0 110.22 0 167 0 C167 50.82 167 101.64 167 154 C169.97 154.66 172.94 155.32 176 156 C182.40408659 159.25631522 186.09762295 164.02689545 188.4765625 170.86083984 C190.37773134 178.6304487 189.98585635 187.05126791 190 195 C193.63 195 197.26 195 201 195 C201 212.49 201 229.98 201 248 C178.23 248 155.46 248 132 248 C129.97367749 231.78941994 131 215.33673434 131 199 C87.77 199 44.54 199 0 199 C0 133.33 0 67.66 0 0 Z M146 165 C144.97936567 166.36580512 144.00881284 167.7691876 143.0625 169.1875 C142.53785156 169.96480469 142.01320312 170.74210938 141.47265625 171.54296875 C138.28206206 176.86626781 137.73196232 181.15637849 137.875 187.3125 C137.88402344 188.05306641 137.89304688 188.79363281 137.90234375 189.55664062 C137.92575787 191.37123467 137.96162385 193.18566071 138 195 C139.65 195 141.3 195 143 195 C143.03738281 193.75605469 143.07476562 192.51210937 143.11328125 191.23046875 C143.4502561 182.13945348 143.90708319 173.65627661 147 165 C146.67 165 146.34 165 146 165 Z M155.875 175.625 C154.52369836 179.29281873 154.7921915 182.87925221 154.875 186.75 C154.91625 189.4725 154.9575 192.195 155 195 C162.26 195 169.52 195 177 195 C177.0825 192.15375 177.165 189.3075 177.25 186.375 C177.30462402 185.04734619 177.30462402 185.04734619 177.36035156 183.69287109 C177.4355318 178.3053585 176.6275896 175.24088712 173 171 C165.63982524 166.09321682 160.45776828 169.00544581 155.875 175.625 Z " fill="#759C3E" transform="translate(48,51)"/>
<path d="M0 0 C33 0 66 0 100 0 C100 38.94 100 77.88 100 118 C67 118 34 118 0 118 C0 79.06 0 40.12 0 0 Z " fill="#779D40" transform="translate(85,87)"/>
<path d="M0 0 C0 1.65 0 3.3 0 5 C0.85271484 5.12955078 0.85271484 5.12955078 1.72265625 5.26171875 C8.78616314 6.54706474 13.27254325 8.49678805 17.73046875 14.22265625 C23.65307857 23.99988624 22.98023988 34.89481187 23 46 C26.63 46 30.26 46 34 46 C34 63.49 34 80.98 34 99 C11.23 99 -11.54 99 -35 99 C-37.02632251 82.78941994 -36 66.33673434 -36 50 C-79.23 50 -122.46 50 -167 50 C-167 47.03 -167 44.06 -167 41 C-121.46 41 -75.92 41 -29 41 C-29 42.65 -29 44.3 -29 46 C-27.35 46 -25.7 46 -24 46 C-24.03480469 44.74445313 -24.06960937 43.48890625 -24.10546875 42.1953125 C-24.43584326 24.95561327 -24.43584326 24.95561327 -21 17 C-25.7165436 23.83750503 -28.08838864 29.73262801 -29 38 C-29.33 38 -29.66 38 -30 38 C-30.52264479 26.2985639 -30.41351631 17.12591195 -22.6875 7.625 C-15.58144462 0.21911106 -10.22395745 -0.60437187 0 0 Z M-11.125 26.625 C-12.47630164 30.29281873 -12.2078085 33.87925221 -12.125 37.75 C-12.08375 40.4725 -12.0425 43.195 -12 46 C-4.74 46 2.52 46 10 46 C10.0825 43.15375 10.165 40.3075 10.25 37.375 C10.30462402 36.04734619 10.30462402 36.04734619 10.36035156 34.69287109 C10.4355318 29.3053585 9.6275896 26.24088712 6 22 C-1.36017476 17.09321682 -6.54223172 20.00544581 -11.125 26.625 Z " fill="#749B3D" transform="translate(215,200)"/>
<path d="M0 0 C1.14578018 -0.01547882 2.29156036 -0.03095764 3.47206116 -0.04690552 C7.24461095 -0.08777616 11.01488442 -0.07726825 14.78759766 -0.0625 C17.420224 -0.07230084 20.05284425 -0.08388382 22.68545532 -0.09716797 C28.19824252 -0.11900553 33.71038739 -0.11010079 39.22314453 -0.08496094 C45.57458529 -0.05657644 51.92383729 -0.08644856 58.27501714 -0.14558029 C64.41018648 -0.2005252 70.54435844 -0.2047587 76.67973709 -0.18896484 C79.27837946 -0.18799386 81.8770664 -0.20085378 84.47556686 -0.22802734 C107.32821278 -0.4317202 107.32821278 -0.4317202 113.74462891 5.30371094 C114.97623811 6.81849724 116.1750113 8.36106615 117.32666016 9.9375 C118.64049354 11.06507898 119.98265695 12.16162523 121.36572266 13.203125 C121.96513672 13.70199219 122.56455078 14.20085938 123.18212891 14.71484375 C124.37755044 15.70970891 125.59758152 16.67561863 126.83837891 17.61328125 C128.61572266 19.140625 128.61572266 19.140625 131.32666016 22.9375 C131.32666016 27.2275 131.32666016 31.5175 131.32666016 35.9375 C76.21666016 35.9375 21.10666016 35.9375 -35.67333984 35.9375 C-35.67333984 22.9375 -35.67333984 22.9375 -32.17333984 18.5625 C-30.69832085 17.32379567 -29.19782105 16.11479627 -27.67333984 14.9375 C-26.33474575 13.75593329 -25.00126145 12.56854859 -23.67333984 11.375 C-23.04534296 10.84672607 -22.41734608 10.31845215 -21.77031898 9.77416992 C-19.67604687 7.99856583 -19.67604687 7.99856583 -17.9431057 6.10351562 C-12.34339206 0.40344434 -7.77900675 -0.08030141 0 0 Z " fill="#749B3D" transform="translate(83.67333984375,0.0625)"/>
<path d="M0 0 C33 0 66 0 100 0 C100 38.94 100 77.88 100 118 C67 118 34 118 0 118 C0 79.06 0 40.12 0 0 Z M11 13 C11 43.69 11 74.38 11 106 C36.74 106 62.48 106 89 106 C89 75.31 89 44.62 89 13 C63.26 13 37.52 13 11 13 Z " fill="#FEFEFD" transform="translate(85,87)"/>
<path d="M0 0 C55.11 0 110.22 0 167 0 C167 3.96 167 7.92 167 12 C111.89 12 56.78 12 0 12 C0 8.04 0 4.08 0 0 Z " fill="#4B602B" transform="translate(48,24)"/>
<path d="M0 0 C45.54 0 91.08 0 138 0 C138 1.65 138 3.3 138 5 C136.02 5 134.04 5 132 5 C132 6.32 132 7.64 132 9 C88.44 9 44.88 9 0 9 C0 6.03 0 3.06 0 0 Z " fill="#4B612B" transform="translate(48,241)"/>
<path d="M0 0 C19.14 0 38.28 0 58 0 C58 3.96 58 7.92 58 12 C38.86 12 19.72 12 0 12 C0 8.04 0 4.08 0 0 Z " fill="#F5F7F1" transform="translate(106,168)"/>
<path d="M0 0 C19.14 0 38.28 0 58 0 C58 3.96 58 7.92 58 12 C38.86 12 19.72 12 0 12 C0 8.04 0 4.08 0 0 Z " fill="#F5F7F1" transform="translate(106,142)"/>
<path d="M0 0 C19.14 0 38.28 0 58 0 C58 3.63 58 7.26 58 11 C38.86 11 19.72 11 0 11 C0 7.37 0 3.74 0 0 Z " fill="#FAFBF8" transform="translate(106,116)"/>
<path d="M0 0 C0.33 0 0.66 0 1 0 C1 15.51 1 31.02 1 47 C-21.77 47 -44.54 47 -68 47 C-68 44.36 -68 41.72 -68 39 C-45.56 39 -23.12 39 0 39 C0 26.13 0 13.26 0 0 Z " fill="#4D632C" transform="translate(248,252)"/>
<path d="M0 0 C0 1.98 0 3.96 0 6 C-1.299375 6.20625 -2.59875 6.4125 -3.9375 6.625 C-12.36703258 8.52031943 -19.22610555 13.86826743 -24 21 C-27.13763533 26.57131401 -28.53785816 31.64554969 -29 38 C-29.33 38 -29.66 38 -30 38 C-30.52264479 26.2985639 -30.41351631 17.12591195 -22.6875 7.625 C-15.58144462 0.21911106 -10.22395745 -0.60437187 0 0 Z " fill="#4D642C" transform="translate(215,200)"/>
<path d="M0 0 C3.64825703 2.12814994 5.42170718 4.13809032 7 8 C7.22705078 10.38183594 7.22705078 10.38183594 7.1953125 12.984375 C7.18886719 13.91894531 7.18242187 14.85351562 7.17578125 15.81640625 C7.15902344 16.78449219 7.14226562 17.75257813 7.125 18.75 C7.11597656 19.73355469 7.10695312 20.71710938 7.09765625 21.73046875 C7.07412785 24.15389407 7.04125368 26.57682222 7 29 C6.67 29 6.34 29 6 29 C5.97421875 27.77023438 5.9484375 26.54046875 5.921875 25.2734375 C5.86556994 23.64059068 5.80822315 22.00777955 5.75 20.375 C5.73582031 19.56675781 5.72164062 18.75851563 5.70703125 17.92578125 C5.48199601 12.38991432 4.58509573 9.27246371 1 5 C-2.19647008 3.40176496 -5.53037114 3.49645545 -9 4 C-11.39628155 5.64619349 -11.39628155 5.64619349 -13 8 C-13.5775 8.7425 -14.155 9.485 -14.75 10.25 C-15.1625 10.8275 -15.575 11.405 -16 12 C-15.76276019 7.9669232 -15.30485596 5.46220098 -13.0625 2.0625 C-8.7351872 -0.8518127 -5.07542387 -0.90990329 0 0 Z " fill="#4D642C" transform="translate(219,217)"/>
</svg>
