<?xml version="1.0" encoding="UTF-8"?>
<svg version="1.1" xmlns="http://www.w3.org/2000/svg" width="1581" height="1561">
<path d="M0 0 C7.61117568 0.02813367 15.2212047 0.0128042 22.83229912 -0.03045726 C24.47710183 -0.03964156 24.47710183 -0.03964156 26.15513287 -0.0490114 C28.38516372 -0.06152016 30.61519435 -0.07406844 32.84522476 -0.08665575 C53.62156062 -0.19804139 74.39568939 -0.16342161 95.17202999 -0.0811903 C114.01052858 -0.01103711 132.84286965 -0.12031018 151.6803199 -0.31625414 C171.2002688 -0.51769469 190.71736323 -0.59636051 210.23833848 -0.5484975 C221.12701745 -0.52374565 232.01075844 -0.54252961 242.89860619 -0.6886108 C297.5233512 -1.37786549 337.47351351 4.26048343 384.11040056 33.58267498 C391.20847097 37.9233749 398.65276573 41.6547731 406.07848061 45.39775204 C407.83916972 46.29296016 407.83916972 46.29296016 409.63542832 47.20625329 C412.4844048 48.64928588 415.34200046 50.07344627 418.20348061 51.49150204 C419.24133705 52.00853695 420.2791935 52.52557187 421.34850014 53.0582745 C424.59082315 54.67346061 427.83445824 56.28598206 431.07848061 57.89775204 C455.14214361 69.85361588 455.14214361 69.85361588 465.51598061 75.36650204 C477.25539349 81.60413192 489.17470693 87.48183344 501.07848061 93.39775204 C526.21333723 105.8892333 526.21333723 105.8892333 536.59801186 111.41337704 C543.86733523 115.28017975 551.20974625 118.9820905 558.59019936 122.63212704 C559.66641548 123.1651141 560.74263161 123.69810116 561.85146035 124.24723935 C566.28398231 126.4409193 570.71740711 128.63263946 575.15636147 130.81327939 C578.45049541 132.43304822 581.73941606 134.06302062 585.02769936 135.69462704 C586.02049401 136.17913327 587.01328865 136.66363949 588.03616799 137.16282773 C599.47832735 142.86240363 607.72003111 150.43239263 616.00426186 160.03837704 C618.60477156 162.99639561 621.2757908 165.88467829 623.95348061 168.77275204 C628.27612993 173.43701501 632.55664818 178.13469489 636.80113686 182.87040829 C639.37657836 185.72857408 641.97533825 188.56485466 644.57848061 191.39775204 C648.67017268 195.85107821 652.72671037 200.33435092 656.76598061 204.83525204 C659.35463064 207.70375613 661.96433207 210.55251855 664.57848061 213.39775204 C668.67014168 217.85110691 672.72671007 222.33435059 676.76598061 226.83525204 C679.35463064 229.70375613 681.96433207 232.55251855 684.57848061 235.39775204 C688.67014168 239.85110691 692.72671007 244.33435059 696.76598061 248.83525204 C699.35463064 251.70375613 701.96433207 254.55251855 704.57848061 257.39775204 C708.67014168 261.85110691 712.72671007 266.33435059 716.76598061 270.83525204 C719.35463064 273.70375613 721.96433207 276.55251855 724.57848061 279.39775204 C728.67014168 283.85110691 732.72671007 288.33435059 736.76598061 292.83525204 C739.81477985 296.2136512 742.89344745 299.5643085 745.97276772 302.91484189 C749.77980135 307.06124921 753.54749911 311.24197163 757.30113686 315.43681454 C758.52637861 316.78861973 759.78840413 318.10767557 761.07848061 319.39775204 C761.33207696 321.76843044 761.33207696 321.76843044 761.33723361 324.81671267 C761.34743453 326.55729716 761.34743453 326.55729716 761.35784153 328.33304497 C761.35516013 329.62152943 761.35247873 330.9100139 761.34971607 332.23754334 C761.35392233 333.61513938 761.35900156 334.99273299 761.36487988 336.37032291 C761.37857106 340.18601928 761.37966857 344.00163445 761.37882525 347.81735154 C761.38006038 351.95723621 761.39274691 356.09708791 761.40397281 360.23695534 C761.4244133 368.4614983 761.43395312 376.68602193 761.44020065 384.91058651 C761.44815935 394.75644075 761.46758009 404.60226397 761.48709667 414.44810087 C761.53361619 438.24977223 761.55908424 462.05145253 761.58073675 485.8531575 C761.58793299 493.73478295 761.5958655 501.61640738 761.60428727 509.49803161 C761.60547496 510.61008397 761.60666265 511.72213633 761.60788632 512.86788725 C761.60907536 513.98105972 761.61026441 515.09423219 761.61148948 516.24113716 C761.65380896 555.87610453 761.68965543 595.51107363 761.70905293 635.14605927 C761.7138799 644.85373619 761.71877057 654.56141308 761.72374428 664.26908993 C761.72435534 665.47518023 761.7249664 666.68127052 761.72559597 667.923909 C761.74564895 707.03716923 761.80003064 746.15028035 761.87422175 785.26347272 C761.95031911 825.45480657 761.99745636 865.64606209 762.00589954 905.83747027 C762.00709234 911.51120438 762.00858808 917.18493838 762.01025284 922.85867238 C762.01056665 923.97535816 762.01088045 925.09204394 762.01120377 926.24256868 C762.01705549 944.23303427 762.05304407 962.22331965 762.09989132 980.21371986 C762.14623543 998.28935319 762.15952511 1016.36477415 762.1390194 1034.44045735 C762.12780612 1045.18562184 762.14172196 1055.9300732 762.19138491 1066.67513245 C762.22207131 1073.84895271 762.22018374 1081.02228291 762.19161526 1088.19611078 C762.17625822 1092.28645718 762.17521535 1096.37543873 762.21378681 1100.46566242 C762.24860645 1104.18806467 762.24189071 1107.9080074 762.20222304 1111.63034005 C762.19191414 1113.59760196 762.22573716 1115.56494458 762.26141111 1117.53191003 C762.14499601 1124.14423599 761.47305084 1127.74547473 756.71594829 1132.5209195 C755.17998436 1133.82489932 753.63477516 1135.11810528 752.07848061 1136.39775204 C750.94736335 1137.6234183 749.8375325 1138.86968296 748.76598061 1140.14775204 C745.65868389 1143.76692363 742.44645751 1147.27569144 739.20348061 1150.77275204 C734.880779 1155.43696579 730.60031209 1160.13469594 726.35582436 1164.87040829 C723.78038286 1167.72857408 721.18162297 1170.56485466 718.57848061 1173.39775204 C715.22554944 1177.04702375 711.88849704 1180.70944802 708.57848061 1184.39775204 C704.80310844 1188.60459532 700.98867612 1192.77450057 697.16441811 1196.93681454 C694.28425454 1200.0744229 691.42316447 1203.22796145 688.57848061 1206.39775204 C684.80310844 1210.60459532 680.98867612 1214.77450057 677.16441811 1218.93681454 C674.28425454 1222.0744229 671.42316447 1225.22796145 668.57848061 1228.39775204 C664.80310844 1232.60459532 660.98867612 1236.77450057 657.16441811 1240.93681454 C654.28425454 1244.0744229 651.42316447 1247.22796145 648.57848061 1250.39775204 C644.80310844 1254.60459532 640.98867612 1258.77450057 637.16441811 1262.93681454 C634.28425454 1266.0744229 631.42316447 1269.22796145 628.57848061 1272.39775204 C624.80799326 1276.59915223 621.00131785 1280.76632616 617.1776017 1284.91923642 C613.44572458 1288.97796454 609.78353393 1293.09540985 606.14879311 1297.24150204 C602.5028114 1301.03882639 598.60354203 1303.82186527 593.93394936 1306.22587704 C592.88835854 1306.76639706 591.84276772 1307.30691708 590.76549233 1307.8638165 C589.61065346 1308.45251523 588.45581459 1309.04121396 587.26598061 1309.64775204 C586.02385589 1310.28582242 584.78183487 1310.92409471 583.53990639 1311.56254696 C568.87280373 1319.08075363 554.10861536 1326.41056729 539.34874428 1333.74443173 C530.41096721 1338.19072093 521.4967334 1342.66441813 512.68004311 1347.34697079 C500.18767351 1353.98047978 487.49655714 1360.21844613 474.83043373 1366.51152157 C459.16366419 1374.29820936 459.16366419 1374.29820936 443.64098061 1382.36650204 C430.78653466 1389.19659457 417.71922948 1395.60650793 404.68492592 1402.08427548 C401.33606748 1403.74951252 397.98850932 1405.41734393 394.64098061 1407.08525204 C393.66121254 1407.57098691 392.68144448 1408.05672177 391.67198647 1408.55717587 C385.52191263 1411.62183014 379.41489724 1414.76390355 373.32938278 1417.95456147 C372.49943566 1418.38905841 371.66948854 1418.82355535 370.81439151 1419.27121887 C365.87745002 1421.87214885 361.00686414 1424.56109608 356.17380886 1427.34982221 C332.23250004 1441.09929093 312.62148237 1446.42895303 285.13071264 1446.14417684 C280.31830429 1446.11676899 275.50757563 1446.20628602 270.6958207 1446.27847409 C261.3257394 1446.40052696 251.95857953 1446.41655063 242.587855 1446.38944644 C234.94502009 1446.36865202 227.30304601 1446.3844099 219.66029442 1446.42451405 C218.56121401 1446.43017722 217.46213359 1446.43584039 216.32974771 1446.44167516 C214.09487335 1446.45322385 211.85999913 1446.46479949 209.62512504 1446.47640174 C188.78052784 1446.57940664 167.9375737 1446.5542892 147.09292697 1446.48833739 C128.17285297 1446.43243225 109.25769915 1446.53670579 90.3385376 1446.71789331 C70.75792451 1446.90393409 51.17960783 1446.97902165 31.59811378 1446.9397251 C20.66625974 1446.91961118 9.73849814 1446.93971362 -1.19263374 1447.07522893 C-51.20933517 1447.65953856 -90.62015504 1445.50661152 -133.43466102 1417.87159657 C-141.29173966 1412.81163841 -149.58343218 1408.59859585 -157.92151939 1404.39775204 C-159.13948107 1403.77909164 -160.3573249 1403.16019915 -161.57502472 1402.54102349 C-164.53755437 1401.04098798 -167.50892836 1399.5601985 -170.48401939 1398.08525204 C-171.56626793 1397.54602109 -172.64851646 1397.00679013 -173.76356041 1396.45121884 C-177.1485453 1394.76470866 -180.5348408 1393.08085821 -183.92151939 1391.39775204 C-196.59157759 1385.10100657 -209.25063104 1378.8047507 -221.74500572 1372.16496396 C-232.36760622 1366.54100189 -243.15812657 1361.24546901 -253.92151939 1355.89775204 C-277.97446077 1343.94721517 -277.97446077 1343.94721517 -288.32386314 1338.44462704 C-295.75823645 1334.49283203 -303.26240347 1330.69477999 -310.80042564 1326.94462704 C-312.47399635 1326.11197323 -312.47399635 1326.11197323 -314.18137657 1325.26249814 C-318.78401886 1322.97497094 -323.38814666 1320.69046706 -327.99402916 1318.40947079 C-331.41044858 1316.71642871 -334.82431532 1315.01832426 -338.23792564 1313.31962704 C-339.26414528 1312.81324704 -340.29036491 1312.30686703 -341.34768211 1311.78514218 C-358.93180218 1303.02342563 -358.93180218 1303.02342563 -364.60901939 1297.02275204 C-365.34894127 1296.24673642 -366.08886314 1295.47072079 -366.85120689 1294.67118954 C-369.2457994 1292.04165589 -371.60090562 1289.38516066 -373.91761314 1286.68681454 C-376.49021903 1283.74812633 -379.1409459 1280.88638682 -381.79651939 1278.02275204 C-386.119221 1273.3585383 -390.39968791 1268.66080815 -394.64417564 1263.92509579 C-397.21961714 1261.06693001 -399.81837703 1258.23064943 -402.42151939 1255.39775204 C-406.51321146 1250.94442587 -410.56974916 1246.46115316 -414.60901939 1241.96025204 C-417.19766942 1239.09174795 -419.80737085 1236.24298554 -422.42151939 1233.39775204 C-426.51318046 1228.94439717 -430.56974885 1224.4611535 -434.60901939 1219.96025204 C-437.19766942 1217.09174795 -439.80737085 1214.24298554 -442.42151939 1211.39775204 C-446.51318046 1206.94439717 -450.56974885 1202.4611535 -454.60901939 1197.96025204 C-457.19766942 1195.09174795 -459.80737085 1192.24298554 -462.42151939 1189.39775204 C-466.51318046 1184.94439717 -470.56974885 1180.4611535 -474.60901939 1175.96025204 C-477.19766942 1173.09174795 -479.80737085 1170.24298554 -482.42151939 1167.39775204 C-486.51318046 1162.94439717 -490.56974885 1158.4611535 -494.60901939 1153.96025204 C-497.65781863 1150.58185289 -500.73648623 1147.23119559 -503.8158065 1143.8806622 C-507.62284013 1139.73425487 -511.39053789 1135.55353245 -515.14417564 1131.35868954 C-516.3694174 1130.00688435 -517.63144291 1128.68782852 -518.92151939 1127.39775204 C-519.17511574 1125.02707364 -519.17511574 1125.02707364 -519.18027239 1121.97879141 C-519.18707301 1120.81840175 -519.19387362 1119.65801209 -519.20088031 1118.46245911 C-519.19819891 1117.17397465 -519.19551751 1115.88549019 -519.19275486 1114.55796074 C-519.19696111 1113.1803647 -519.20204035 1111.8027711 -519.20791867 1110.42518118 C-519.22160984 1106.60948481 -519.22270735 1102.79386963 -519.22186403 1098.97815254 C-519.22309917 1094.83826787 -519.23578569 1090.69841618 -519.24701159 1086.55854874 C-519.26745209 1078.33400579 -519.2769919 1070.10948216 -519.28323944 1061.88491757 C-519.29119813 1052.03906334 -519.31061888 1042.19324012 -519.33013545 1032.34740322 C-519.37665497 1008.54573186 -519.40212302 984.74405156 -519.42377553 960.94234659 C-519.43097178 953.06072114 -519.43890428 945.17909671 -519.44732606 937.29747247 C-519.44851374 936.18542011 -519.44970143 935.07336775 -519.4509251 933.92761683 C-519.45211415 932.81444436 -519.45330319 931.70127189 -519.45452826 930.55436692 C-519.49684775 890.91939956 -519.53269421 851.28443046 -519.55209171 811.64944481 C-519.55691869 801.94176789 -519.56180935 792.234091 -519.56678306 782.52641415 C-519.56769965 780.71727871 -519.56769965 780.71727871 -519.56863476 778.87159509 C-519.58868773 739.75833485 -519.64306942 700.64522374 -519.71726053 661.53203136 C-519.79335789 621.34069752 -519.84049514 581.14944199 -519.84893832 540.95803382 C-519.85013112 535.2842997 -519.85162687 529.6105657 -519.85329162 523.93683171 C-519.85360543 522.82014593 -519.85391924 521.70346015 -519.85424255 520.5529354 C-519.86009427 502.56246982 -519.89608285 484.57218444 -519.94293011 466.58178423 C-519.98927422 448.5061509 -520.00256389 430.43072993 -519.98205818 412.35504674 C-519.9708449 401.60988225 -519.98476074 390.86543088 -520.03442369 380.12037163 C-520.06511009 372.94655137 -520.06322252 365.77322117 -520.03465405 358.5993933 C-520.019297 354.50904691 -520.01825413 350.42006535 -520.05682559 346.32984166 C-520.09164523 342.60743941 -520.0849295 338.88749668 -520.04526183 335.16516404 C-520.03495292 333.19790212 -520.06877594 331.23055951 -520.10444989 329.26359406 C-519.98803479 322.65126809 -519.31608962 319.05002935 -514.55898707 314.27458459 C-513.02302315 312.97060477 -511.47781394 311.67739881 -509.92151939 310.39775204 C-508.79040214 309.17208578 -507.68057128 307.92582112 -506.60901939 306.64775204 C-503.50172267 303.02858046 -500.28949629 299.51981265 -497.04651939 296.02275204 C-492.72381778 291.3585383 -488.44335087 286.66080815 -484.19886314 281.92509579 C-481.62342164 279.06693001 -479.02466175 276.23064943 -476.42151939 273.39775204 C-473.06858822 269.74848033 -469.73153582 266.08605607 -466.42151939 262.39775204 C-462.64614722 258.19090877 -458.83171491 254.02100352 -455.00745689 249.85868954 C-452.12729332 246.72108119 -449.26620325 243.56754263 -446.42151939 240.39775204 C-442.64614722 236.19090877 -438.83171491 232.02100352 -435.00745689 227.85868954 C-432.12729332 224.72108119 -429.26620325 221.56754263 -426.42151939 218.39775204 C-422.64614722 214.19090877 -418.83171491 210.02100352 -415.00745689 205.85868954 C-412.12729332 202.72108119 -409.26620325 199.56754263 -406.42151939 196.39775204 C-402.64614722 192.19090877 -398.83171491 188.02100352 -395.00745689 183.85868954 C-392.12729332 180.72108119 -389.26620325 177.56754263 -386.42151939 174.39775204 C-382.65103204 170.19635185 -378.84435664 166.02917792 -375.02064048 161.87626767 C-371.28876336 157.81753954 -367.62657271 153.70009423 -363.99183189 149.55400204 C-358.91728314 144.26881165 -353.07764902 141.20750581 -346.62464439 137.90556454 C-345.61218651 137.38261807 -344.59972862 136.8596716 -343.55659019 136.32087826 C-332.31435316 130.53320168 -320.99613052 124.89699473 -309.67151939 119.27275204 C-293.03963462 111.02146225 -293.03963462 111.02146225 -276.56214439 102.46806454 C-263.68090666 95.62629629 -250.58836941 89.20196786 -237.5279647 82.71122861 C-225.98997318 76.97390315 -214.47712445 71.21206452 -203.09803306 65.16496396 C-191.40748598 58.97559504 -179.51890242 53.16930209 -167.67347252 47.28398251 C-164.46360779 45.68825163 -161.25504966 44.08991401 -158.04651939 42.49150204 C-157.11049888 42.02764096 -156.17447838 41.56377987 -155.21009361 41.08586239 C-152.73342281 39.85188658 -150.26358103 38.60550474 -147.79732024 37.35088408 C-146.50529746 36.69438139 -145.21211753 36.04015269 -143.91799294 35.38780295 C-135.81244003 31.28667638 -127.86474399 27.16125089 -120.37519335 22.00127083 C-83.73375141 -3.02246577 -42.57820978 -0.16162116 0 0 Z " fill="#2E73B8" transform="translate(677.9215193912387,54.60224795714021)"/>
<path d="M0 0 C4.29895308 1.43298436 7.89411491 2.82273866 11.88745117 4.82226562 C13.59664986 5.6745575 13.59664986 5.6745575 15.34037781 6.54406738 C16.57464468 7.16465594 17.80883971 7.78538739 19.04296875 8.40625 C20.33394456 9.05233571 21.62506992 9.69812267 22.91633606 10.34362793 C25.62670549 11.69959372 28.3357151 13.05822615 31.04370117 14.41894531 C34.45497337 16.1329618 37.86877879 17.84185298 41.28352165 19.54894257 C53.60391426 25.70941342 65.90554168 31.89291012 78.06864929 38.36010742 C88.60810282 43.94381648 99.31930707 49.1933719 110 54.5 C134.063663 66.45586383 134.063663 66.45586383 144.4375 71.96875 C156.17691288 78.20637988 168.09622632 84.0840814 180 90 C205.13485662 102.49148126 205.13485662 102.49148126 215.51953125 108.015625 C222.78885462 111.88242771 230.13126564 115.58433845 237.51171875 119.234375 C238.58793488 119.76736206 239.664151 120.30034912 240.77297974 120.8494873 C245.2055017 123.04316726 249.6389265 125.23488742 254.07788086 127.41552734 C257.3720148 129.03529618 260.66093545 130.66526857 263.94921875 132.296875 C265.43841072 133.02363434 265.43841072 133.02363434 266.95768738 133.76507568 C278.39984674 139.46465158 286.6415505 147.03464058 294.92578125 156.640625 C297.52629095 159.59864357 300.19731019 162.48692625 302.875 165.375 C307.19764932 170.03926296 311.47816757 174.73694285 315.72265625 179.47265625 C318.29809775 182.33082203 320.89685764 185.16710261 323.5 188 C327.59169207 192.45332617 331.64822977 196.93659888 335.6875 201.4375 C338.27615003 204.30600409 340.88585146 207.1547665 343.5 210 C347.59166107 214.45335487 351.64822946 218.93659854 355.6875 223.4375 C358.27615003 226.30600409 360.88585146 229.1547665 363.5 232 C367.59166107 236.45335487 371.64822946 240.93659854 375.6875 245.4375 C378.27615003 248.30600409 380.88585146 251.1547665 383.5 254 C387.59166107 258.45335487 391.64822946 262.93659854 395.6875 267.4375 C398.27615003 270.30600409 400.88585146 273.1547665 403.5 276 C407.59166107 280.45335487 411.64822946 284.93659854 415.6875 289.4375 C418.73629924 292.81589915 421.81496684 296.16655646 424.89428711 299.51708984 C428.70132074 303.66349717 432.4690185 307.84421959 436.22265625 312.0390625 C437.44789801 313.39086769 438.70992352 314.70992352 440 316 C440.25359635 318.3706784 440.25359635 318.3706784 440.258753 321.41896063 C440.26555361 322.57935029 440.27235423 323.73973995 440.27936092 324.93529293 C440.27533882 326.86801962 440.27533882 326.86801962 440.27123547 328.8397913 C440.27544172 330.21738734 440.28052096 331.59498095 440.28639928 332.97257087 C440.30009045 336.78826723 440.30118796 340.60388241 440.30034464 344.4195995 C440.30157978 348.55948417 440.3142663 352.69933587 440.3254922 356.8392033 C440.3459327 365.06374625 440.35547251 373.28826989 440.36172005 381.51283447 C440.36967874 391.3586887 440.38909948 401.20451193 440.40861606 411.05034883 C440.45513558 434.85202018 440.48060363 458.65370049 440.50225614 482.45540545 C440.50945239 490.33703091 440.51738489 498.21865533 440.52580667 506.10027957 C440.52699435 507.21233193 440.52818204 508.32438429 440.52940571 509.47013521 C440.53059475 510.58330768 440.5317838 511.69648015 440.53300887 512.84338512 C440.57532835 552.47835248 440.61117482 592.11332158 440.63057232 631.74830723 C440.6353993 641.45598415 440.64028996 651.16366104 440.64526367 660.87133789 C440.64587473 662.07742818 440.64648579 663.28351847 440.64711537 664.52615696 C440.66716834 703.63941719 440.72155003 742.7525283 440.79574114 781.86572068 C440.8718385 822.05705453 440.91897575 862.24831005 440.92741893 902.43971822 C440.92861173 908.11345234 440.93010747 913.78718634 440.93177223 919.46092033 C440.93224294 921.135949 440.93224294 921.135949 440.93272316 922.84481664 C440.93857488 940.83528222 440.97456346 958.8255676 441.02141072 976.81596781 C441.06775482 994.89160115 441.0810445 1012.96702211 441.06053879 1031.0427053 C441.04932551 1041.78786979 441.06324135 1052.53232116 441.1129043 1063.27738041 C441.1435907 1070.45120067 441.14170313 1077.62453087 441.11313466 1084.79835874 C441.09777761 1088.88870514 441.09673474 1092.97768669 441.1353062 1097.06791038 C441.17012584 1100.79031263 441.16341011 1104.51025536 441.12374244 1108.232588 C441.11343353 1110.19984992 441.14725655 1112.16719253 441.1829305 1114.13415799 C441.0665154 1120.74648395 440.39457023 1124.34772269 435.63746768 1129.12316746 C434.10150375 1130.42714728 432.55629455 1131.72035323 431 1133 C429.86888275 1134.22566626 428.75905189 1135.47193092 427.6875 1136.75 C424.58020328 1140.36917159 421.3679769 1143.8779394 418.125 1147.375 C413.80229839 1152.03921375 409.52183148 1156.7369439 405.27734375 1161.47265625 C402.70190225 1164.33082203 400.10314236 1167.16710261 397.5 1170 C394.14706883 1173.64927171 390.81001643 1177.31169598 387.5 1181 C383.72462783 1185.20684327 379.91019552 1189.37674853 376.0859375 1193.5390625 C373.20577393 1196.67667086 370.34468386 1199.83020941 367.5 1203 C363.72462783 1207.20684327 359.91019552 1211.37674853 356.0859375 1215.5390625 C353.20577393 1218.67667086 350.34468386 1221.83020941 347.5 1225 C343.72462783 1229.20684327 339.91019552 1233.37674853 336.0859375 1237.5390625 C333.20577393 1240.67667086 330.34468386 1243.83020941 327.5 1247 C323.72462783 1251.20684327 319.91019552 1255.37674853 316.0859375 1259.5390625 C313.20577393 1262.67667086 310.34468386 1265.83020941 307.5 1269 C303.72951265 1273.20140019 299.92283724 1277.36857412 296.09912109 1281.52148438 C292.36724397 1285.5802125 288.70505332 1289.69765781 285.0703125 1293.84375 C281.42433079 1297.64107434 277.52506143 1300.42411323 272.85546875 1302.828125 C271.80987793 1303.36864502 270.76428711 1303.90916504 269.68701172 1304.46606445 C268.53217285 1305.05476318 267.37733398 1305.64346191 266.1875 1306.25 C264.94537528 1306.88807038 263.70335426 1307.52634267 262.46142578 1308.16479492 C247.79432313 1315.68300159 233.03013475 1323.01281525 218.27026367 1330.34667969 C209.3324866 1334.79296888 200.41825279 1339.26666609 191.6015625 1343.94921875 C179.1091929 1350.58272773 166.41807654 1356.82069408 153.75195312 1363.11376953 C138.08518358 1370.90045731 138.08518358 1370.90045731 122.5625 1378.96875 C109.70805405 1385.79884252 96.64074888 1392.20875588 83.60644531 1398.68652344 C71.98182041 1404.46692779 60.38066931 1410.27105516 48.91297913 1416.35775757 C40.53419296 1420.79732288 32.06776029 1425.05916602 23.58666992 1429.29931641 C20.87785101 1430.65484923 18.17232844 1432.01682606 15.46679688 1433.37890625 C13.73717366 1434.24518011 12.00736346 1435.11108075 10.27734375 1435.9765625 C9.47231918 1436.38266754 8.66729462 1436.78877258 7.83787537 1437.20718384 C2.22890272 1440 2.22890272 1440 0 1440 C0 964.8 0 489.6 0 0 Z " fill="#5194CF" transform="translate(999,58)"/>
<path d="M0 0 C0 475.2 0 950.4 0 1440 C-4.11209928 1438.62930024 -7.53182237 1437.35859938 -11.33666992 1435.453125 C-12.3560112 1434.94499268 -13.37535248 1434.43686035 -14.42558289 1433.91333008 C-16.06150139 1433.08998169 -16.06150139 1433.08998169 -17.73046875 1432.25 C-18.87550369 1431.67725342 -20.02053864 1431.10450684 -21.20027161 1430.5144043 C-23.62817151 1429.29967361 -26.05471034 1428.08228 -28.48022461 1426.86279297 C-31.52831826 1425.33037914 -34.57893154 1423.80307042 -37.63049126 1422.27757263 C-49.09557319 1416.54474573 -60.52738039 1410.76481339 -71.84745789 1404.75048828 C-82.79209911 1398.95974273 -93.91246031 1393.51026792 -105 1388 C-117.6700582 1381.70325453 -130.32911165 1375.40699865 -142.82348633 1368.76721191 C-153.44608683 1363.14324985 -164.23660718 1357.84771697 -175 1352.5 C-199.05294138 1340.54946313 -199.05294138 1340.54946313 -209.40234375 1335.046875 C-216.83671706 1331.09507999 -224.34088408 1327.29702795 -231.87890625 1323.546875 C-233.55247696 1322.71422119 -233.55247696 1322.71422119 -235.25985718 1321.86474609 C-239.86249947 1319.5772189 -244.46662727 1317.29271502 -249.07250977 1315.01171875 C-252.48892919 1313.31867667 -255.90279593 1311.62057221 -259.31640625 1309.921875 C-260.34262589 1309.415495 -261.36884552 1308.90911499 -262.42616272 1308.38739014 C-280.01028279 1299.62567359 -280.01028279 1299.62567359 -285.6875 1293.625 C-286.42742187 1292.84898438 -287.16734375 1292.07296875 -287.9296875 1291.2734375 C-290.32428001 1288.64390384 -292.67938623 1285.98740861 -294.99609375 1283.2890625 C-297.56869964 1280.35037429 -300.21942651 1277.48863478 -302.875 1274.625 C-307.19770161 1269.96078625 -311.47816852 1265.2630561 -315.72265625 1260.52734375 C-318.29809775 1257.66917797 -320.89685764 1254.83289739 -323.5 1252 C-327.59169207 1247.54667383 -331.64822977 1243.06340112 -335.6875 1238.5625 C-338.27615003 1235.69399591 -340.88585146 1232.8452335 -343.5 1230 C-347.59166107 1225.54664513 -351.64822946 1221.06340146 -355.6875 1216.5625 C-358.27615003 1213.69399591 -360.88585146 1210.8452335 -363.5 1208 C-367.59166107 1203.54664513 -371.64822946 1199.06340146 -375.6875 1194.5625 C-378.27615003 1191.69399591 -380.88585146 1188.8452335 -383.5 1186 C-387.59166107 1181.54664513 -391.64822946 1177.06340146 -395.6875 1172.5625 C-398.27615003 1169.69399591 -400.88585146 1166.8452335 -403.5 1164 C-407.59166107 1159.54664513 -411.64822946 1155.06340146 -415.6875 1150.5625 C-418.73629924 1147.18410085 -421.81496684 1143.83344354 -424.89428711 1140.48291016 C-428.70132074 1136.33650283 -432.4690185 1132.15578041 -436.22265625 1127.9609375 C-437.44789801 1126.60913231 -438.70992352 1125.29007648 -440 1124 C-440.25359635 1121.6293216 -440.25359635 1121.6293216 -440.258753 1118.58103937 C-440.26555361 1117.42064971 -440.27235423 1116.26026005 -440.27936092 1115.06470707 C-440.27667952 1113.77622261 -440.27399812 1112.48773815 -440.27123547 1111.1602087 C-440.27544172 1109.78261266 -440.28052096 1108.40501905 -440.28639928 1107.02742913 C-440.30009045 1103.21173277 -440.30118796 1099.39611759 -440.30034464 1095.5804005 C-440.30157978 1091.44051583 -440.3142663 1087.30066413 -440.3254922 1083.1607967 C-440.3459327 1074.93625375 -440.35547251 1066.71173011 -440.36172005 1058.48716553 C-440.36967874 1048.6413113 -440.38909948 1038.79548807 -440.40861606 1028.94965117 C-440.45513558 1005.14797982 -440.48060363 981.34629951 -440.50225614 957.54459455 C-440.50945239 949.66296909 -440.51738489 941.78134467 -440.52580667 933.89972043 C-440.52699435 932.78766807 -440.52818204 931.67561571 -440.52940571 930.52986479 C-440.53059475 929.41669232 -440.5317838 928.30351985 -440.53300887 927.15661488 C-440.57532835 887.52164752 -440.61117482 847.88667842 -440.63057232 808.25169277 C-440.6353993 798.54401585 -440.64028996 788.83633896 -440.64526367 779.12866211 C-440.64618026 777.31952667 -440.64618026 777.31952667 -440.64711537 775.47384304 C-440.66716834 736.36058281 -440.72155003 697.2474717 -440.79574114 658.13427932 C-440.8718385 617.94294547 -440.91897575 577.75168995 -440.92741893 537.56028178 C-440.92861173 531.88654766 -440.93010747 526.21281366 -440.93177223 520.53907967 C-440.93208604 519.42239389 -440.93239984 518.3057081 -440.93272316 517.15518336 C-440.93857488 499.16471778 -440.97456346 481.1744324 -441.02141072 463.18403219 C-441.06775482 445.10839885 -441.0810445 427.03297789 -441.06053879 408.9572947 C-441.04932551 398.21213021 -441.06324135 387.46767884 -441.1129043 376.72261959 C-441.1435907 369.54879933 -441.14170313 362.37546913 -441.11313466 355.20164126 C-441.09777761 351.11129486 -441.09673474 347.02231331 -441.1353062 342.93208962 C-441.17012584 339.20968737 -441.16341011 335.48974464 -441.12374244 331.767412 C-441.11343353 329.80015008 -441.14725655 327.83280747 -441.1829305 325.86584201 C-441.0665154 319.25351605 -440.39457023 315.65227731 -435.63746768 310.87683254 C-434.10150375 309.57285272 -432.55629455 308.27964677 -431 307 C-429.86888275 305.77433374 -428.75905189 304.52806908 -427.6875 303.25 C-424.58020328 299.63082841 -421.3679769 296.1220606 -418.125 292.625 C-413.80229839 287.96078625 -409.52183148 283.2630561 -405.27734375 278.52734375 C-402.70190225 275.66917797 -400.10314236 272.83289739 -397.5 270 C-394.14706883 266.35072829 -390.81001643 262.68830402 -387.5 259 C-383.72462783 254.79315673 -379.91019552 250.62325147 -376.0859375 246.4609375 C-373.20577393 243.32332914 -370.34468386 240.16979059 -367.5 237 C-363.72462783 232.79315673 -359.91019552 228.62325147 -356.0859375 224.4609375 C-353.20577393 221.32332914 -350.34468386 218.16979059 -347.5 215 C-343.72462783 210.79315673 -339.91019552 206.62325147 -336.0859375 202.4609375 C-333.20577393 199.32332914 -330.34468386 196.16979059 -327.5 193 C-323.72462783 188.79315673 -319.91019552 184.62325147 -316.0859375 180.4609375 C-313.20577393 177.32332914 -310.34468386 174.16979059 -307.5 171 C-303.72951265 166.79859981 -299.92283724 162.63142588 -296.09912109 158.47851562 C-292.36724397 154.4197875 -288.70505332 150.30234219 -285.0703125 146.15625 C-279.99576375 140.87105961 -274.15612963 137.80975377 -267.703125 134.5078125 C-266.69066711 133.98486603 -265.67820923 133.46191956 -264.6350708 132.92312622 C-253.39283377 127.13544964 -242.07461113 121.49924269 -230.75 115.875 C-214.11811523 107.62371021 -214.11811523 107.62371021 -197.640625 99.0703125 C-184.75938727 92.22854424 -171.66685002 85.80421582 -158.60644531 79.31347656 C-147.06845379 73.5761511 -135.55560506 67.81431247 -124.17651367 61.76721191 C-112.48596659 55.577843 -100.59738303 49.77155005 -88.75195312 43.88623047 C-77.49685042 38.29094329 -66.27056233 32.66345292 -55.16835022 26.76992798 C-45.85996548 21.84175294 -36.44348754 17.12871574 -27.02319336 12.41894531 C-23.87980546 10.84613219 -20.73970042 9.26688309 -17.59960938 7.6875 C-15.59654888 6.68450689 -13.59330102 5.68188783 -11.58984375 4.6796875 C-10.18544289 3.97209793 -10.18544289 3.97209793 -8.75267029 3.25021362 C-7.46345421 2.60791306 -7.46345421 2.60791306 -6.14819336 1.95263672 C-5.39275742 1.57420624 -4.63732147 1.19577576 -3.85899353 0.80587769 C-2 0 -2 0 0 0 Z " fill="#1F5A99" transform="translate(599,58)"/>
<path d="M0 0 C4.64002411 3.97716353 8.82666703 7.76025364 12.875 12.25 C13.3918335 12.8164624 13.90866699 13.3829248 14.44116211 13.96655273 C15.96562921 15.6400474 17.48401507 17.31882145 19 19 C19.78761719 19.87269531 20.57523438 20.74539062 21.38671875 21.64453125 C22.83361508 23.25248247 24.27893695 24.86185189 25.72265625 26.47265625 C28.29809775 29.33082203 30.89685764 32.16710261 33.5 35 C37.59169207 39.45332617 41.64822977 43.93659888 45.6875 48.4375 C48.27615003 51.30600409 50.88585146 54.1547665 53.5 57 C57.59166107 61.45335487 61.64822946 65.93659854 65.6875 70.4375 C68.27615003 73.30600409 70.88585146 76.1547665 73.5 79 C77.59166107 83.45335487 81.64822946 87.93659854 85.6875 92.4375 C88.27615003 95.30600409 90.88585146 98.1547665 93.5 101 C97.59166107 105.45335487 101.64822946 109.93659854 105.6875 114.4375 C108.27615003 117.30600409 110.88585146 120.1547665 113.5 123 C117.59166107 127.45335487 121.64822946 131.93659854 125.6875 136.4375 C128.27615003 139.30600409 130.88585146 142.1547665 133.5 145 C136.85290579 148.64929525 140.18998331 152.31169568 143.5 156 C146.97783155 159.87475797 150.48158104 163.72463963 154 167.5625 C154.48146484 168.08779297 154.96292969 168.61308594 155.45898438 169.15429688 C157.6951392 171.60978138 157.6951392 171.60978138 160 174 C160.10117604 175.76258906 160.13129465 177.52927462 160.13455451 179.29476213 C160.13910783 180.4529045 160.14366114 181.61104686 160.14835244 182.80428445 C160.14829806 184.09539593 160.14824367 185.3865074 160.14818764 186.71674347 C160.15165382 188.09317229 160.15555496 189.46960007 160.15985495 190.84602654 C160.17047278 194.66312939 160.17476596 198.48021806 160.17807844 202.29733331 C160.18272947 206.43701629 160.19306287 210.57668565 160.20264852 214.71635962 C160.22074479 222.94264601 160.23329098 231.16893265 160.24411704 239.39523146 C160.25327215 246.23710331 160.2647569 253.07896798 160.27774811 259.92083359 C160.27961726 260.90636139 160.28148641 261.89188919 160.28341221 262.90728147 C160.28722922 264.91705477 160.29104802 266.92682807 160.2948686 268.93660136 C160.34606085 296.13480235 160.38175818 323.33302088 160.4140625 350.53125 C160.41538651 351.64447993 160.41671053 352.75770986 160.41807466 353.90467402 C160.47025023 397.95115248 160.51465201 441.99764011 160.54586862 486.04413857 C160.55362187 496.96139203 160.56166911 507.87864527 160.56982422 518.79589844 C160.57071816 520.00227162 160.57161211 521.20864479 160.57253314 522.45157474 C160.60174376 561.57151323 160.66274074 600.69131926 160.74120806 639.8111876 C160.82168703 680.00699722 160.87296851 720.20273534 160.88632692 760.39862621 C160.88822006 766.0730782 160.8904333 771.74753002 160.89283371 777.42198181 C160.89329402 778.53881409 160.89375432 779.65564637 160.89422858 780.80632206 C160.90247664 798.79963796 160.94135431 816.79276401 160.99144951 834.78600661 C161.04109027 852.86511609 161.05788416 870.94402022 161.04102559 889.02319211 C161.03199062 899.77057945 161.04812909 910.51724778 161.10004109 921.2645172 C161.13223268 928.43984394 161.13185693 935.61468774 161.10481049 942.79003458 C161.09032402 946.88126796 161.09016061 950.97113259 161.12962742 955.0622316 C161.16526426 958.78543794 161.15936029 962.50619368 161.12050111 966.22934668 C161.11062275 968.1970533 161.14488759 970.16483092 161.18100339 972.13223088 C161.06603609 978.74545119 160.39545209 982.34716954 155.63764226 987.12334204 C154.10162787 988.42727373 152.55636084 989.72042233 151 991 C149.86887578 992.22565984 148.75904331 993.47192373 147.6875 994.75 C144.58020328 998.36917159 141.3679769 1001.8779394 138.125 1005.375 C133.80229839 1010.03921375 129.52183148 1014.7369439 125.27734375 1019.47265625 C122.70190225 1022.33082203 120.10314236 1025.16710261 117.5 1028 C114.14706883 1031.64927171 110.81001643 1035.31169598 107.5 1039 C103.72462783 1043.20684327 99.91019552 1047.37674853 96.0859375 1051.5390625 C93.20577393 1054.67667086 90.34468386 1057.83020941 87.5 1061 C83.72462783 1065.20684327 79.91019552 1069.37674853 76.0859375 1073.5390625 C73.20577393 1076.67667086 70.34468386 1079.83020941 67.5 1083 C63.72462783 1087.20684327 59.91019552 1091.37674853 56.0859375 1095.5390625 C53.20577393 1098.67667086 50.34468386 1101.83020941 47.5 1105 C43.72462783 1109.20684327 39.91019552 1113.37674853 36.0859375 1117.5390625 C33.20577393 1120.67667086 30.34468386 1123.83020941 27.5 1127 C23.73089312 1131.19986195 19.92531391 1135.36522716 16.10351562 1139.51708984 C12.30856551 1143.64523551 8.5800895 1147.82997185 4.875 1152.0390625 C3 1154 3 1154 0 1156 C0 774.52 0 393.04 0 0 Z " fill="#2D72B7" transform="translate(1279,200)"/>
<path d="M0 0 C0.33 0 0.66 0 1 0 C1 381.48 1 762.96 1 1156 C-3.64002411 1152.02283647 -7.82666703 1148.23974636 -11.875 1143.75 C-12.3918335 1143.1835376 -12.90866699 1142.6170752 -13.44116211 1142.03344727 C-14.96562921 1140.3599526 -16.48401507 1138.68117855 -18 1137 C-18.78761719 1136.12730469 -19.57523438 1135.25460937 -20.38671875 1134.35546875 C-21.83361508 1132.74751753 -23.27893695 1131.13814811 -24.72265625 1129.52734375 C-27.29809775 1126.66917797 -29.89685764 1123.83289739 -32.5 1121 C-36.59169207 1116.54667383 -40.64822977 1112.06340112 -44.6875 1107.5625 C-47.27615003 1104.69399591 -49.88585146 1101.8452335 -52.5 1099 C-56.59166107 1094.54664513 -60.64822946 1090.06340146 -64.6875 1085.5625 C-67.27615003 1082.69399591 -69.88585146 1079.8452335 -72.5 1077 C-76.59166107 1072.54664513 -80.64822946 1068.06340146 -84.6875 1063.5625 C-87.27615003 1060.69399591 -89.88585146 1057.8452335 -92.5 1055 C-96.59166107 1050.54664513 -100.64822946 1046.06340146 -104.6875 1041.5625 C-107.27615003 1038.69399591 -109.88585146 1035.8452335 -112.5 1033 C-116.59166107 1028.54664513 -120.64822946 1024.06340146 -124.6875 1019.5625 C-127.27615003 1016.69399591 -129.88585146 1013.8452335 -132.5 1011 C-135.85290579 1007.35070475 -139.18998331 1003.68830432 -142.5 1000 C-145.97783155 996.12524203 -149.48158104 992.27536037 -153 988.4375 C-153.72219727 987.64956055 -153.72219727 987.64956055 -154.45898438 986.84570312 C-156.6951392 984.39021862 -156.6951392 984.39021862 -159 982 C-159.10117604 980.23741094 -159.13129465 978.47072538 -159.13455451 976.70523787 C-159.14138449 974.96802432 -159.14138449 974.96802432 -159.14835244 973.19571555 C-159.14829806 971.90460407 -159.14824367 970.6134926 -159.14818764 969.28325653 C-159.15165382 967.90682771 -159.15555496 966.53039993 -159.15985495 965.15397346 C-159.17047278 961.33687061 -159.17476596 957.51978194 -159.17807844 953.70266669 C-159.18272947 949.56298371 -159.19306287 945.42331435 -159.20264852 941.28364038 C-159.22074479 933.05735399 -159.23329098 924.83106735 -159.24411704 916.60476854 C-159.25327215 909.76289669 -159.2647569 902.92103202 -159.27774811 896.07916641 C-159.27961726 895.09363861 -159.28148641 894.10811081 -159.28341221 893.09271853 C-159.28722922 891.08294523 -159.29104802 889.07317193 -159.2948686 887.06339864 C-159.34606085 859.86519765 -159.38175818 832.66697912 -159.4140625 805.46875 C-159.41538651 804.35552007 -159.41671053 803.24229014 -159.41807466 802.09532598 C-159.47025023 758.04884752 -159.51465201 714.00235989 -159.54586862 669.95586143 C-159.55362187 659.03860797 -159.56166911 648.12135473 -159.56982422 637.20410156 C-159.57116514 635.3945418 -159.57116514 635.3945418 -159.57253314 633.54842526 C-159.60174376 594.42848677 -159.66274074 555.30868074 -159.74120806 516.1888124 C-159.82168703 475.99300278 -159.87296851 435.79726466 -159.88632692 395.60137379 C-159.88822006 389.9269218 -159.8904333 384.25246998 -159.89283371 378.57801819 C-159.89329402 377.46118591 -159.89375432 376.34435363 -159.89422858 375.19367794 C-159.90247664 357.20036204 -159.94135431 339.20723599 -159.99144951 321.21399339 C-160.04109027 303.13488391 -160.05788416 285.05597978 -160.04102559 266.97680789 C-160.03199062 256.22942055 -160.04812909 245.48275222 -160.10004109 234.7354828 C-160.13223268 227.56015606 -160.13185693 220.38531226 -160.10481049 213.20996542 C-160.09032402 209.11873204 -160.09016061 205.02886741 -160.12962742 200.9377684 C-160.16526426 197.21456206 -160.15936029 193.49380632 -160.12050111 189.77065332 C-160.11062275 187.8029467 -160.14488759 185.83516908 -160.18100339 183.86776912 C-160.06603609 177.25454881 -159.39545209 173.65283046 -154.63764226 168.87665796 C-153.10162787 167.57272627 -151.55636084 166.27957767 -150 165 C-148.86887578 163.77434016 -147.75904331 162.52807627 -146.6875 161.25 C-143.58020328 157.63082841 -140.3679769 154.1220606 -137.125 150.625 C-132.80229839 145.96078625 -128.52183148 141.2630561 -124.27734375 136.52734375 C-121.70190225 133.66917797 -119.10314236 130.83289739 -116.5 128 C-113.14706883 124.35072829 -109.81001643 120.68830402 -106.5 117 C-102.72462783 112.79315673 -98.91019552 108.62325147 -95.0859375 104.4609375 C-92.20577393 101.32332914 -89.34468386 98.16979059 -86.5 95 C-82.72462783 90.79315673 -78.91019552 86.62325147 -75.0859375 82.4609375 C-72.20577393 79.32332914 -69.34468386 76.16979059 -66.5 73 C-62.72462783 68.79315673 -58.91019552 64.62325147 -55.0859375 60.4609375 C-52.20577393 57.32332914 -49.34468386 54.16979059 -46.5 51 C-42.72462783 46.79315673 -38.91019552 42.62325147 -35.0859375 38.4609375 C-32.20577393 35.32332914 -29.34468386 32.16979059 -26.5 29 C-22.73121168 24.80049302 -18.92391717 20.63740524 -15.10571289 16.48291016 C-11.29867926 12.33650283 -7.5309815 8.15578041 -3.77734375 3.9609375 C-2.55210199 2.60913231 -1.29007648 1.29007648 0 0 Z " fill="#18476E" transform="translate(318,200)"/>
</svg>
