<?xml version="1.0" standalone="no"?>
<!DOCTYPE svg PUBLIC "-//W3C//DTD SVG 20010904//EN"
 "http://www.w3.org/TR/2001/REC-SVG-20010904/DTD/svg10.dtd">
<svg version="1.0" xmlns="http://www.w3.org/2000/svg"
 width="1200.000000pt" height="1436.000000pt" viewBox="0 0 1200.000000 1436.000000"
 preserveAspectRatio="xMidYMid meet">

<g transform="translate(0.000000,1436.000000) scale(0.100000,-0.100000)"
fill="#000000" stroke="none">
<path d="M4928 13373 l-998 -527 0 -1002 c0 -552 -3 -1005 -7 -1007 -5 -3
-618 165 -1363 373 -745 207 -1359 374 -1365 370 -5 -4 -175 -81 -378 -170
l-367 -163 2 -4096 3 -4095 374 -167 374 -166 91 23 c50 12 656 165 1346 339
690 173 1263 318 1272 321 17 5 18 -46 20 -948 l3 -953 1005 -526 1005 -527
206 107 c113 58 566 295 1007 526 l802 420 0 758 0 757 23 0 c12 0 604 -67
1316 -149 l1295 -148 478 266 477 266 1 3896 0 3896 -477 267 -478 267 -1280
-146 c-704 -80 -1297 -149 -1317 -152 l-38 -6 0 784 -1 784 -996 525 c-547
289 -999 526 -1004 528 -5 2 -10 -137 -12 -310 l-2 -313 -3 313 c-1 171 -5
312 -9 312 -5 0 -457 -237 -1005 -527z m1019 -155 c-3 -7 -5 -2 -5 12 0 14 2
19 5 13 2 -7 2 -19 0 -25z"/>
</g>
</svg>
