<?xml version="1.0" standalone="no"?>
<!DOCTYPE svg PUBLIC "-//W3C//DTD SVG 20010904//EN"
 "http://www.w3.org/TR/2001/REC-SVG-20010904/DTD/svg10.dtd">
<svg version="1.0" xmlns="http://www.w3.org/2000/svg"
 width="424.000000pt" height="512.000000pt" viewBox="0 0 424.000000 512.000000"
 preserveAspectRatio="xMidYMid meet">

<g transform="translate(0.000000,512.000000) scale(0.100000,-0.100000)"
fill="#000000" stroke="none">
<path d="M0 2560 l0 -2560 2120 0 2120 0 0 530 c0 292 -2 530 -5 530 -3 0
-477 -236 -1053 -525 -576 -289 -1051 -525 -1055 -525 -4 0 -7 227 -7 504 l0
504 -62 20 c-35 11 -187 57 -338 102 -151 45 -331 99 -400 120 -69 21 -181 55
-250 75 -69 20 -181 54 -250 75 -69 21 -181 55 -250 75 -69 20 -163 49 -210
64 l-85 26 -3 983 c-1 540 1 982 4 982 4 0 77 -11 163 -25 86 -13 181 -27 211
-30 30 -3 109 -14 175 -25 66 -10 147 -21 180 -25 33 -4 98 -13 145 -20 47 -8
153 -23 235 -34 83 -11 200 -27 260 -36 61 -8 191 -27 290 -41 362 -51 460
-66 483 -71 16 -4 22 -12 22 -34 0 -31 -6 -29 140 -49 41 -5 201 -26 355 -45
154 -20 386 -49 515 -66 352 -45 781 -99 786 -99 2 0 3 117 2 261 l-3 261
-830 249 c-456 138 -931 280 -1055 317 l-225 67 -3 508 c-1 279 1 507 5 507 4
0 479 -236 1055 -525 576 -289 1050 -525 1053 -525 3 0 5 239 5 530 l0 530
-2120 0 -2120 0 0 -2560z"/>
<path d="M1915 3185 c-93 -13 -246 -32 -340 -44 -93 -12 -185 -24 -202 -27
l-33 -5 0 -548 0 -549 33 -6 c17 -3 70 -10 117 -15 130 -15 561 -70 598 -76
l32 -6 0 651 c0 613 -1 650 -17 649 -10 -1 -94 -12 -188 -24z"/>
<path d="M895 3054 c-49 -7 -135 -18 -190 -24 -55 -6 -110 -14 -122 -17 l-23
-5 0 -449 c0 -247 1 -449 3 -449 1 0 106 -14 232 -30 127 -16 238 -30 248 -30
16 0 17 31 17 510 l0 510 -37 -1 c-21 -1 -78 -7 -128 -15z"/>
<path d="M4113 2169 c-28 -5 -107 -15 -175 -23 -68 -8 -339 -42 -603 -76 -264
-33 -532 -67 -595 -75 -63 -7 -157 -19 -207 -26 l-93 -13 0 -38 c0 -24 5 -38
12 -38 7 0 410 -49 895 -110 485 -60 884 -110 887 -110 3 0 6 117 6 260 l0
260 -37 -1 c-21 -1 -61 -5 -90 -10z"/>
</g>
</svg>
