<?xml version="1.0" encoding="UTF-8"?>
<svg version="1.1" xmlns="http://www.w3.org/2000/svg" width="512" height="512">
<path d="M0 0 C3.89094047 3.18349675 7.48925303 6.47302723 10.9699707 10.10473633 C54.48630103 55.18478772 124.22429003 71.06058276 184.62329102 72.23461914 C223.55881183 72.48659015 262.90999527 65.74311701 299 51 C299.74121094 50.70013184 300.48242188 50.40026367 301.24609375 50.09130859 C327.89842497 39.17286008 354.8185985 22.72675188 373 0 C373.66 0.33 374.32 0.66 375 1 C360.1185469 39.06621943 338.07270541 71.51049827 305 96 C303.75863281 96.93392578 303.75863281 96.93392578 302.4921875 97.88671875 C280.67338606 113.75157607 255.96621276 124.25715449 229.75 130.25 C229.0904834 130.40122314 228.4309668 130.55244629 227.75146484 130.70825195 C214.28038974 133.59584261 201.03283567 134.3746716 187.3125 134.3125 C186.47583801 134.31067719 185.63917603 134.30885437 184.77716064 134.30697632 C172.28916881 134.26120163 160.2217675 133.762362 148 131 C146.7936792 130.74259033 146.7936792 130.74259033 145.56298828 130.47998047 C127.0110093 126.47000085 109.68814276 120.01011214 93 111 C92.39849121 110.67918457 91.79698242 110.35836914 91.17724609 110.02783203 C67.84858924 97.50148206 47.21431752 79.9164696 31 59 C30.57074219 58.4524707 30.14148438 57.90494141 29.69921875 57.34082031 C19.91953777 44.79210863 12.4080716 31.23853209 5.5 16.9375 C5.17362549 16.27186035 4.84725098 15.6062207 4.51098633 14.92041016 C2.23630536 10.07074432 0.97868443 5.25890909 0 0 Z " fill="#F37625" transform="translate(76,314)"/>
<path d="M0 0 C0.77988281 0.6703125 1.55976563 1.340625 2.36328125 2.03125 C4.95259175 4.31083437 7.48323744 6.6405351 10 9 C10.49371094 9.45971191 10.98742187 9.91942383 11.49609375 10.39306641 C34.48255268 31.96795039 50.61180166 59.40937443 61 89 C57.42512996 87.52238705 55.5813683 85.57837667 53.125 82.625 C15.50062789 39.95945385 -48.83428017 21.13887651 -103.5546875 17.3125 C-172.80549488 13.42968952 -246.81621301 27.90843514 -299.86694336 75.26049805 C-304.60087098 79.56172717 -308.99913187 83.99891484 -313 89 C-313.66 88.67 -314.32 88.34 -315 88 C-307.26480239 67.6072063 -297.59011289 48.15279873 -284 31 C-283.360625 30.15566406 -282.72125 29.31132813 -282.0625 28.44140625 C-250.50822845 -12.04913361 -202.65525529 -38.01865885 -152.015625 -44.6796875 C-97.82787864 -51.170818 -41.59602658 -35.92718756 0 0 Z " fill="#F37625" transform="translate(390,88)"/>
<path d="M0 0 C8.13260896 6.46912076 14.93262623 14.56285333 16.75 25.1875 C17.7133794 38.46950123 15.56999208 49.79601712 6.75 60.1875 C-2.21587001 68.87802659 -11.31057254 71.82739695 -23.56616211 71.65380859 C-34.20575187 71.22017498 -41.34607112 68.0756681 -49.0234375 60.60546875 C-57.10795334 51.82596822 -60.99372167 42.11897596 -60.59765625 30.08203125 C-59.09488296 17.57017725 -53.91075652 8.72019934 -44.40234375 0.7265625 C-30.90311953 -8.9262403 -14.00347928 -7.80963268 0 0 Z " fill="#989798" transform="translate(136.25,440.8125)"/>
<path d="M0 0 C7.92710855 4.59729331 12.6785089 10.66342535 15.375 19.4375 C17.44560368 29.89631566 15.87184442 38.18211698 10.140625 47.140625 C7.36886125 50.74637077 4.29300392 53.16760481 0.375 55.4375 C-0.20636719 55.77652344 -0.78773438 56.11554687 -1.38671875 56.46484375 C-8.84092586 59.97365708 -18.35221478 59.81141726 -26.05078125 57.3359375 C-35.44467895 52.96069748 -40.75276903 46.945753 -44.625 37.4375 C-47.07004817 29.49109344 -45.87226129 20.96193754 -42.625 13.4375 C-33.54629827 -1.71975777 -16.18859859 -7.51973508 0 0 Z " fill="#757576" transform="translate(423.625,2.5625)"/>
<path d="M0 0 C5.26309771 4.55553577 8.56896477 9.27457671 9.2109375 16.3125 C9.47613289 23.00358365 8.6657966 28.56959507 4.48828125 33.9453125 C-0.87021542 39.70118083 -6.03523966 42.11982119 -13.9375 42.4375 C-21.33475572 42.21585938 -26.21329833 40.17351887 -31.3125 34.8125 C-35.53609174 29.38876197 -37.35902864 23.80841687 -36.9375 16.9375 C-35.90325656 9.98867686 -33.69326416 5.03276551 -28.125 0.625 C-18.92163662 -5.62377809 -9.52003848 -5.54174598 0 0 Z " fill="#6E6F6F" transform="translate(98,52)"/>
</svg>
