<?xml version="1.0" encoding="UTF-8"?>
<svg version="1.1" xmlns="http://www.w3.org/2000/svg" width="512" height="512">
<path d="M0 0 C41.66692235 26.59590789 56.01269498 109.0318797 70.88566208 153.30371094 C88.15390194 204.70367006 106.35840396 255.45429619 127.68359375 305.32421875 C128.07468575 306.24201111 128.07468575 306.24201111 128.47367859 307.17834473 C129.92283189 310.56412287 131.41002615 313.92877269 132.93798828 317.27978516 C133.26702652 318.00881546 133.59606476 318.73784576 133.93507385 319.4889679 C134.57200306 320.89699378 135.21681298 322.30148853 135.87046814 323.701828 C138.04938955 328.53933134 138.04938955 328.53933134 136.9375 331.875 C131.93339035 327.45592196 127.00159334 323.00456061 122.3125 318.25 C118.9981088 314.89497704 115.59162164 311.73568047 112.0078125 308.671875 C110.56233686 307.41731123 109.14207718 306.13336022 107.7421875 304.828125 C92.54280228 290.68216251 73.52930382 276.06487544 52.0078125 274.6875 C29.3049154 275.74038798 10.68770817 294.31590945 -4.0625 309.875 C-5.85036395 311.84455745 -7.60115031 313.8363475 -9.328125 315.859375 C-11.32162581 318.17614621 -13.37804388 320.42919984 -15.4375 322.6875 C-18.54778851 326.12878205 -21.52728312 329.63821298 -24.4375 333.25 C-28.12169615 337.80710674 -31.99383972 342.12012835 -35.98706055 346.40283203 C-38.89364552 349.53982626 -41.60822368 352.76365413 -44.25 356.125 C-53.48466366 367.56470903 -64.32539064 378.03060598 -76.0625 386.875 C-76.58489258 387.27912109 -77.10728516 387.68324219 -77.64550781 388.09960938 C-88.88871092 396.76638169 -100.74149911 403.98020984 -115.0625 405.875 C-117.51444777 400.49267562 -119.81736127 395.06542737 -122.0234375 389.578125 C-141.49906703 335.33789562 -141.49906703 335.33789562 -176.9375 292.125 C-177.73929688 291.55265625 -178.54109375 290.9803125 -179.3671875 290.390625 C-187.6394191 285.73899332 -198.23459006 285.32323121 -207.3046875 287.73828125 C-209.11907693 288.41437487 -210.91949244 289.13060887 -212.6953125 289.90234375 C-213.86707031 290.38380859 -213.86707031 290.38380859 -215.0625 290.875 C-216.19558594 291.36226563 -216.19558594 291.36226563 -217.3515625 291.859375 C-221.92270563 291.88572165 -224.80758808 288.90418281 -228.3125 286.1875 C-229.93151665 284.97422552 -231.5513267 283.76200917 -233.171875 282.55078125 C-233.98978516 281.93283691 -234.80769531 281.31489258 -235.65039062 280.67822266 C-239.23385629 277.99932818 -242.89460027 275.43637287 -246.5625 272.875 C-252.36783721 268.79668173 -258.13244888 264.66618914 -263.875 260.5 C-270.25074613 255.87791356 -276.66936687 251.32231928 -283.125 246.8125 C-283.9507251 246.23483887 -284.7764502 245.65717773 -285.62719727 245.06201172 C-289.77817259 242.16044614 -293.93664442 239.27039467 -298.10546875 236.39453125 C-299.67453765 235.30477171 -301.24355064 234.21493164 -302.8125 233.125 C-303.54605713 232.62347412 -304.27961426 232.12194824 -305.03540039 231.60522461 C-306.74720466 230.4120104 -308.41081476 229.15013524 -310.0625 227.875 C-310.0625 227.215 -310.0625 226.555 -310.0625 225.875 C-294.39119429 219.22960461 -278.68968736 212.67243327 -262.875 206.375 C-261.46646519 205.81373617 -260.05793667 205.25245656 -258.64941406 204.69116211 C-257.92298706 204.40171219 -257.19656006 204.11226227 -256.44812012 203.81404114 C-255.69953735 203.51575912 -254.95095459 203.21747711 -254.1796875 202.91015625 C-253.41209106 202.60434128 -252.64449463 202.29852631 -251.8536377 201.98344421 C-241.23320967 197.75018395 -230.62173234 193.49469996 -220.01547241 189.22607422 C-217.69093698 188.29137669 -215.3657715 187.35824438 -213.03994751 186.42675781 C-209.75288264 185.11009527 -206.46802431 183.78806154 -203.18359375 182.46484375 C-201.72150986 181.88119301 -201.72150986 181.88119301 -200.22988892 181.28575134 C-186.22555625 175.71360782 -186.22555625 175.71360782 -175.6875 165.375 C-174.57637844 163.9361222 -173.46173172 162.49996034 -172.34375 161.06640625 C-171.52003906 160.00123779 -171.52003906 160.00123779 -170.6796875 158.91455078 C-166.47215635 153.60813242 -161.74990148 148.75457659 -157.0625 143.875 C-156.45051758 143.23046875 -155.83853516 142.5859375 -155.20800781 141.921875 C-153.2555993 139.87267708 -151.28677658 137.84062049 -149.3125 135.8125 C-148.71066895 135.18077881 -148.10883789 134.54905762 -147.48876953 133.89819336 C-141.31552643 127.64645537 -134.41028748 124.86908701 -126.25 122 C-115.16115448 117.94172444 -106.00329197 112.63442606 -97.0625 104.875 C-96.08023438 104.02679688 -95.09796875 103.17859375 -94.0859375 102.3046875 C-88.30242354 97.21071458 -83.15937184 91.92835463 -78.40673828 85.83300781 C-76.11434816 82.94042307 -73.73915063 80.14009562 -71.33984375 77.3359375 C-66.16185619 71.18557879 -61.65197795 64.66272387 -57.25 57.9375 C-56.4698303 56.75690393 -55.68938959 55.5764869 -54.90869141 54.39624023 C-49.03793837 45.49115774 -43.39800922 36.45054622 -37.8203125 27.359375 C-17.15810672 -6.30297798 -17.15810672 -6.30297798 0 0 Z " fill="#ED6C3E" transform="translate(342.0625,54.125)"/>
<path d="M0 0 C0 3.24381008 -0.49954761 4.26457209 -2.03710938 7.03417969 C-2.4792981 7.84663147 -2.92148682 8.65908325 -3.3770752 9.49615479 C-3.86107788 10.37914246 -4.34508057 11.26213013 -4.84375 12.171875 C-11.12824011 23.90456947 -16.35058159 35.98706963 -21.5 48.25 C-22.42163828 50.42541281 -23.3443359 52.60037711 -24.26806641 54.77490234 C-26.05671363 58.98585164 -27.84244407 63.19801495 -29.62597656 67.41113281 C-33.97043794 77.65734142 -38.43923488 87.8482024 -43 98 C-43.32033203 98.71510742 -43.64066406 99.43021484 -43.97070312 100.16699219 C-47.63721047 108.31348887 -51.63127203 116.25546561 -55.89306641 124.10546875 C-57.62801022 127.31608514 -59.24918917 130.49928601 -60.640625 133.875 C-62 137 -62 137 -64 139 C-64.71408334 140.98356483 -65.38617742 142.98315437 -66 145 C-66.66 145 -67.32 145 -68 145 C-68.3403125 146.5159375 -68.3403125 146.5159375 -68.6875 148.0625 C-69.72208872 151.76602773 -71.48633319 154.34947658 -73.87890625 157.32421875 C-75.13019513 159.19461224 -75.57425549 160.80430642 -76 163 C-76.66 163 -77.32 163 -78 163 C-78.1546875 164.1446875 -78.1546875 164.1446875 -78.3125 165.3125 C-79.08325879 168.32546618 -79.8707539 168.8707539 -82 171 C-83.19599068 173.03232242 -83.19599068 173.03232242 -84.1875 175.1875 C-84.53167969 175.90292969 -84.87585938 176.61835938 -85.23046875 177.35546875 C-85.48441406 177.89816406 -85.73835937 178.44085938 -86 179 C-86.66 179 -87.32 179 -88 179 C-88.3403125 180.5778125 -88.3403125 180.5778125 -88.6875 182.1875 C-89.83943244 186.23134674 -91.98769429 188.05615579 -95 191 C-95.93223044 192.47765482 -96.82409955 193.98110006 -97.6875 195.5 C-101.52375081 202.12714793 -106.25215994 208.01798858 -111 214 C-111.67160156 214.8559375 -112.34320313 215.711875 -113.03515625 216.59375 C-129.74509182 237.72993134 -147.86682876 257.22898635 -169 274 C-165.7 274.66 -162.4 275.32 -159 276 C-163.01600507 277.00400127 -165.95220327 276.96977092 -170.0625 276.8125 C-176.14808438 276.68284608 -181.03998449 277.59681569 -186.6328125 280.02734375 C-187.80457031 280.50880859 -187.80457031 280.50880859 -189 281 C-190.13308594 281.48726563 -190.13308594 281.48726563 -191.2890625 281.984375 C-195.86020563 282.01072165 -198.74508808 279.02918281 -202.25 276.3125 C-203.86901665 275.09922552 -205.4888267 273.88700917 -207.109375 272.67578125 C-207.92728516 272.05783691 -208.74519531 271.43989258 -209.58789062 270.80322266 C-213.17135629 268.12432818 -216.83210027 265.56137287 -220.5 263 C-226.30533721 258.92168173 -232.06994888 254.79118914 -237.8125 250.625 C-244.18824613 246.00291356 -250.60686687 241.44731928 -257.0625 236.9375 C-257.8882251 236.35983887 -258.7139502 235.78217773 -259.56469727 235.18701172 C-263.71567259 232.28544614 -267.87414442 229.39539467 -272.04296875 226.51953125 C-273.61203765 225.42977171 -275.18105064 224.33993164 -276.75 223.25 C-277.48355713 222.74847412 -278.21711426 222.24694824 -278.97290039 221.73022461 C-280.68470466 220.5370104 -282.34831476 219.27513524 -284 218 C-284 217.34 -284 216.68 -284 216 C-268.32869429 209.35460461 -252.62718736 202.79743327 -236.8125 196.5 C-235.40396519 195.93873617 -233.99543667 195.37745656 -232.58691406 194.81616211 C-231.86048706 194.52671219 -231.13406006 194.23726227 -230.38562012 193.93904114 C-229.63703735 193.64075912 -228.88845459 193.34247711 -228.1171875 193.03515625 C-227.34959106 192.72934128 -226.58199463 192.42352631 -225.7911377 192.10844421 C-215.17070967 187.87518395 -204.55923234 183.61969996 -193.95297241 179.35107422 C-191.62843698 178.41637669 -189.3032715 177.48324438 -186.97744751 176.55175781 C-183.69038264 175.23509527 -180.40552431 173.91306154 -177.12109375 172.58984375 C-175.65900986 172.00619301 -175.65900986 172.00619301 -174.16738892 171.41075134 C-160.16305625 165.83860782 -160.16305625 165.83860782 -149.625 155.5 C-148.51387844 154.0611222 -147.39923172 152.62496034 -146.28125 151.19140625 C-145.45753906 150.12623779 -145.45753906 150.12623779 -144.6171875 149.03955078 C-140.40965635 143.73313242 -135.68740148 138.87957659 -131 134 C-130.38801758 133.35546875 -129.77603516 132.7109375 -129.14550781 132.046875 C-127.1930993 129.99767708 -125.22427658 127.96562049 -123.25 125.9375 C-122.64816895 125.30577881 -122.04633789 124.67405762 -121.42626953 124.02319336 C-115.25302643 117.77145537 -108.34778748 114.99408701 -100.1875 112.125 C-89.09865448 108.06672444 -79.94079197 102.75942606 -71 95 C-70.01773438 94.15179688 -69.03546875 93.30359375 -68.0234375 92.4296875 C-62.23992354 87.33571458 -57.09687184 82.05335463 -52.34423828 75.95800781 C-50.05184816 73.06542307 -47.67665063 70.26509562 -45.27734375 67.4609375 C-40.09935619 61.31057879 -35.58947795 54.78772387 -31.1875 48.0625 C-30.4073303 46.88190393 -29.62688959 45.7014869 -28.84619141 44.52124023 C-22.98391613 35.62901727 -17.3473992 26.60459884 -11.7890625 17.51953125 C-2.70106707 2.70106707 -2.70106707 2.70106707 0 0 Z " fill="#4498DC" transform="translate(316,64)"/>
<path d="M0 0 C0 3.24381008 -0.49954761 4.26457209 -2.03710938 7.03417969 C-2.4792981 7.84663147 -2.92148682 8.65908325 -3.3770752 9.49615479 C-3.86107788 10.37914246 -4.34508057 11.26213013 -4.84375 12.171875 C-11.12824011 23.90456947 -16.35058159 35.98706963 -21.5 48.25 C-22.42163828 50.42541281 -23.3443359 52.60037711 -24.26806641 54.77490234 C-26.05671363 58.98585164 -27.84244407 63.19801495 -29.62597656 67.41113281 C-33.97043794 77.65734142 -38.43923488 87.8482024 -43 98 C-43.32033203 98.71510742 -43.64066406 99.43021484 -43.97070312 100.16699219 C-47.63721047 108.31348887 -51.63127203 116.25546561 -55.89306641 124.10546875 C-57.62801022 127.31608514 -59.24918917 130.49928601 -60.640625 133.875 C-62 137 -62 137 -64 139 C-64.71408334 140.98356483 -65.38617742 142.98315437 -66 145 C-66.66 145 -67.32 145 -68 145 C-68.226875 146.010625 -68.45375 147.02125 -68.6875 148.0625 C-69.72208872 151.76602773 -71.48633319 154.34947658 -73.87890625 157.32421875 C-75.13019513 159.19461224 -75.57425549 160.80430642 -76 163 C-76.66 163 -77.32 163 -78 163 C-78.103125 163.763125 -78.20625 164.52625 -78.3125 165.3125 C-79.08325879 168.32546618 -79.8707539 168.8707539 -82 171 C-83.19599068 173.03232242 -83.19599068 173.03232242 -84.1875 175.1875 C-84.53167969 175.90292969 -84.87585938 176.61835938 -85.23046875 177.35546875 C-85.48441406 177.89816406 -85.73835938 178.44085938 -86 179 C-86.66 179 -87.32 179 -88 179 C-88.226875 180.051875 -88.45375 181.10375 -88.6875 182.1875 C-89.83943244 186.23134674 -91.98769429 188.05615579 -95 191 C-96.61502514 193.51992616 -98.10346428 196.08670134 -99.5703125 198.6953125 C-100.88713337 200.81805653 -102.21385708 202.28310181 -104 204 C-121.6028683 191.69376941 -138.84431215 178.92000768 -156 166 C-155.12861007 161.7692399 -152.97177856 159.00151991 -150.3125 155.6875 C-149.58317261 154.77097656 -149.58317261 154.77097656 -148.83911133 153.8359375 C-143.49159589 147.21913465 -137.72978585 141.01131766 -131.82470703 134.89208984 C-130.59151886 133.61336248 -129.36344457 132.32968658 -128.14013672 131.04150391 C-126.31352994 129.12009551 -124.47193608 127.21435515 -122.625 125.3125 C-122.0786792 124.73628906 -121.5323584 124.16007812 -120.96948242 123.56640625 C-115.02756153 117.54109942 -108.04157264 114.8864245 -100.1875 112.125 C-89.09865448 108.06672444 -79.94079197 102.75942606 -71 95 C-70.01773438 94.15179688 -69.03546875 93.30359375 -68.0234375 92.4296875 C-62.23992354 87.33571458 -57.09687184 82.05335463 -52.34423828 75.95800781 C-50.05184816 73.06542307 -47.67665063 70.26509562 -45.27734375 67.4609375 C-40.09935619 61.31057879 -35.58947795 54.78772387 -31.1875 48.0625 C-30.4073303 46.88190393 -29.62688959 45.7014869 -28.84619141 44.52124023 C-22.98391613 35.62901727 -17.3473992 26.60459884 -11.7890625 17.51953125 C-2.70106707 2.70106707 -2.70106707 2.70106707 0 0 Z " fill="#4B597B" transform="translate(316,64)"/>
<path d="M0 0 C0.66 0.33 1.32 0.66 2 1 C1.10861328 1.78310547 1.10861328 1.78310547 0.19921875 2.58203125 C-4.58812389 6.83331064 -9.21260003 11.17541552 -13.6875 15.75 C-17.57000827 19.6821426 -21.36002013 23.00979075 -26 26 C-24.50279557 22.51047992 -22.49524755 20.23761707 -19.82421875 17.55859375 C-18.99599609 16.72779297 -18.16777344 15.89699219 -17.31445312 15.04101562 C-16.44755859 14.18185547 -15.58066406 13.32269531 -14.6875 12.4375 C-13.83220703 11.57447266 -12.97691406 10.71144531 -12.09570312 9.82226562 C-11.26361328 8.99275391 -10.43152344 8.16324219 -9.57421875 7.30859375 C-8.81713623 6.55376709 -8.06005371 5.79894043 -7.2800293 5.02124023 C-4.96172049 2.96606531 -2.77193006 1.3843738 0 0 Z " fill="#3291CB" transform="translate(205,180)"/>
<path d="M0 0 C0 5.34691539 -3.27047151 9.88995606 -5.6875 14.5625 C-6.48317383 16.16254883 -6.48317383 16.16254883 -7.29492188 17.79492188 C-7.82021484 18.81263672 -8.34550781 19.83035156 -8.88671875 20.87890625 C-9.36326904 21.8129126 -9.83981934 22.74691895 -10.33081055 23.70922852 C-12.29864158 26.40985139 -13.83904653 27.06774802 -17 28 C-15.25855652 22.91908255 -12.42868007 18.54491296 -9.625 14 C-9.14289063 13.2059375 -8.66078125 12.411875 -8.1640625 11.59375 C-5.66103513 7.51272712 -3.11102041 3.6565548 0 0 Z " fill="#4393D2" transform="translate(316,64)"/>
<path d="M0 0 C3.45201639 1.47721422 5.64961936 3.43794001 8.25 6.125 C8.95640625 6.84945313 9.6628125 7.57390625 10.390625 8.3203125 C11.18726563 9.15175781 11.18726563 9.15175781 12 10 C12 8.35 12 6.7 12 5 C14.96 9.44 14.96 9.44 16 12 C15.67 12.99 15.34 13.98 15 15 C9.59947495 10.28109462 4.38185495 5.69641143 0 0 Z " fill="#A85061" transform="translate(464,371)"/>
<path d="M0 0 C1.33146198 2.66292396 0.74041344 3.69423853 -0.125 6.5 C-1.59713855 10.76577823 -1.59713855 10.76577823 -4.6875 12.5625 C-5.450625 12.706875 -6.21375 12.85125 -7 13 C-5.35821735 8.22390502 -2.73453298 4.20617096 0 0 Z " fill="#2D9BDB" transform="translate(306,79)"/>
<path d="M0 0 C0.99 0.33 1.98 0.66 3 1 C-0.3 3.97 -3.6 6.94 -7 10 C-7 7 -7 7 -5.46875 5.17578125 C-4.8190625 4.56089844 -4.169375 3.94601563 -3.5 3.3125 C-2.8503125 2.68988281 -2.200625 2.06726563 -1.53125 1.42578125 C-0.77328125 0.72001953 -0.77328125 0.72001953 0 0 Z " fill="#447BAB" transform="translate(187,196)"/>
<path d="M0 0 C-1.38188453 3.21043882 -2.92421903 5.04936365 -5.625 7.25 C-6.57246094 8.03117187 -6.57246094 8.03117187 -7.5390625 8.828125 C-8.02117187 9.21484375 -8.50328125 9.6015625 -9 10 C-9 7 -9 7 -7.5390625 5.17578125 C-6.90742188 4.56089844 -6.27578125 3.94601563 -5.625 3.3125 C-4.68527344 2.37857422 -4.68527344 2.37857422 -3.7265625 1.42578125 C-2 0 -2 0 0 0 Z " fill="#A0808A" transform="translate(327,54)"/>
<path d="M0 0 C0.66 0.66 1.32 1.32 2 2 C-0.31 4.31 -2.62 6.62 -5 9 C-5.66 8.67 -6.32 8.34 -7 8 C-4.69 5.36 -2.38 2.72 0 0 Z " fill="#546C90" transform="translate(178,205)"/>
<path d="M0 0 C2.96 4.44 2.96 4.44 4 7 C3.67 7.99 3.34 8.98 3 10 C1.5 8.9375 1.5 8.9375 0 7 C-0.1875 3.3125 -0.1875 3.3125 0 0 Z " fill="#985B77" transform="translate(476,376)"/>
</svg>
