<?xml version="1.0" encoding="UTF-8"?>
<svg version="1.1" xmlns="http://www.w3.org/2000/svg" width="396" height="396">
<path d="M0 0 C3.12218298 0.01372584 6.24314201 0.0068589 9.36523438 -0.02050781 C27.42175151 -0.17836862 44.52155063 0.16878103 61.94335938 5.57641602 C62.81578278 5.84496399 63.68820618 6.11351196 64.58706665 6.39019775 C105.56307014 19.18632306 143.31911127 45.0716862 167.94335938 80.57641602 C168.34280762 81.13683594 168.74225586 81.69725586 169.15380859 82.2746582 C186.617355 106.81471368 202.79723722 139.65547262 203.13623047 170.33422852 C203.14440796 170.98251617 203.15258545 171.63080383 203.16101074 172.29873657 C203.18569781 174.43295433 203.20235575 176.56710532 203.21679688 178.70141602 C203.22212055 179.44073364 203.22744423 180.18005127 203.23292923 180.94177246 C203.2596145 184.8704321 203.27898676 188.7990608 203.29345703 192.7277832 C203.30666838 195.93185798 203.33428458 199.13527639 203.37548828 202.33911133 C203.60517676 220.62152193 203.47033605 237.93806255 197.94335938 255.57641602 C197.67449417 256.44784241 197.40562897 257.3192688 197.12861633 258.21710205 C187.90137614 287.77063181 172.29165354 314.16873282 150.94335938 336.57641602 C150.40050293 337.14650391 149.85764648 337.7165918 149.29833984 338.30395508 C141.0572243 346.90123735 132.6915894 354.713685 122.94335938 361.57641602 C122.37713867 361.98166504 121.81091797 362.38691406 121.22753906 362.80444336 C96.69091966 380.25769593 63.8542913 396.43040449 33.18554688 396.76928711 C32.53725922 396.7774646 31.88897156 396.78564209 31.22103882 396.79406738 C29.08682106 396.81875445 26.95267007 396.83541239 24.81835938 396.84985352 C24.07904175 396.85517719 23.33972412 396.86050087 22.57800293 396.86598587 C18.64934329 396.89267114 14.7207146 396.9120434 10.79199219 396.92651367 C7.58791741 396.93972502 4.384499 396.96734122 1.18066406 397.00854492 C-17.10176185 397.23823359 -34.41826512 397.10335579 -52.05664062 391.57641602 C-52.92797638 391.30759613 -53.79931213 391.03877625 -54.697052 390.7618103 C-107.66795542 374.22396458 -149.59292376 337.20912866 -175.30273438 288.37329102 C-179.34116671 280.3877936 -182.42773708 272.10391199 -185.30664062 263.63891602 C-185.78278809 262.24721191 -185.78278809 262.24721191 -186.26855469 260.82739258 C-187.27081316 257.76159878 -188.1715971 254.678053 -189.05664062 251.57641602 C-189.42072021 250.40804199 -189.7847998 249.23966797 -190.15991211 248.03588867 C-194.27779954 233.54489259 -193.70091675 218.44919981 -193.63305664 203.51977539 C-193.6193308 200.39759241 -193.62619774 197.27663338 -193.65356445 194.15454102 C-193.81142526 176.09802388 -193.46427561 158.99822476 -188.05664062 141.57641602 C-187.78809265 140.70399261 -187.51954468 139.83156921 -187.24285889 138.93270874 C-170.70155813 85.96383096 -133.68879171 44.03983725 -84.85351562 18.33032227 C-76.86801821 14.29188993 -68.5841366 11.20531956 -60.11914062 8.32641602 C-58.72743652 7.85026855 -58.72743652 7.85026855 -57.30761719 7.36450195 C-54.24182339 6.36224348 -51.15827761 5.46145955 -48.05664062 4.57641602 C-46.8882666 4.21233643 -45.71989258 3.84825684 -44.51611328 3.47314453 C-30.0251172 -0.6447429 -14.92942442 -0.06786011 0 0 Z " fill="#FCFDFD" transform="translate(193.056640625,-0.576416015625)"/>
<path d="M0 0 C3.12218298 0.01372584 6.24314201 0.0068589 9.36523438 -0.02050781 C27.42175151 -0.17836862 44.52155063 0.16878103 61.94335938 5.57641602 C62.81578278 5.84496399 63.68820618 6.11351196 64.58706665 6.39019775 C105.56307014 19.18632306 143.31911127 45.0716862 167.94335938 80.57641602 C168.34280762 81.13683594 168.74225586 81.69725586 169.15380859 82.2746582 C186.617355 106.81471368 202.79723722 139.65547262 203.13623047 170.33422852 C203.14440796 170.98251617 203.15258545 171.63080383 203.16101074 172.29873657 C203.18569781 174.43295433 203.20235575 176.56710532 203.21679688 178.70141602 C203.22212055 179.44073364 203.22744423 180.18005127 203.23292923 180.94177246 C203.2596145 184.8704321 203.27898676 188.7990608 203.29345703 192.7277832 C203.30666838 195.93185798 203.33428458 199.13527639 203.37548828 202.33911133 C203.60517676 220.62152193 203.47033605 237.93806255 197.94335938 255.57641602 C197.67449417 256.44784241 197.40562897 257.3192688 197.12861633 258.21710205 C187.90137614 287.77063181 172.29165354 314.16873282 150.94335938 336.57641602 C150.40050293 337.14650391 149.85764648 337.7165918 149.29833984 338.30395508 C141.0572243 346.90123735 132.6915894 354.713685 122.94335938 361.57641602 C122.37713867 361.98166504 121.81091797 362.38691406 121.22753906 362.80444336 C96.69091966 380.25769593 63.8542913 396.43040449 33.18554688 396.76928711 C32.53725922 396.7774646 31.88897156 396.78564209 31.22103882 396.79406738 C29.08682106 396.81875445 26.95267007 396.83541239 24.81835938 396.84985352 C24.07904175 396.85517719 23.33972412 396.86050087 22.57800293 396.86598587 C18.64934329 396.89267114 14.7207146 396.9120434 10.79199219 396.92651367 C7.58791741 396.93972502 4.384499 396.96734122 1.18066406 397.00854492 C-17.10176185 397.23823359 -34.41826512 397.10335579 -52.05664062 391.57641602 C-52.92797638 391.30759613 -53.79931213 391.03877625 -54.697052 390.7618103 C-107.66795542 374.22396458 -149.59292376 337.20912866 -175.30273438 288.37329102 C-179.34116671 280.3877936 -182.42773708 272.10391199 -185.30664062 263.63891602 C-185.78278809 262.24721191 -185.78278809 262.24721191 -186.26855469 260.82739258 C-187.27081316 257.76159878 -188.1715971 254.678053 -189.05664062 251.57641602 C-189.42072021 250.40804199 -189.7847998 249.23966797 -190.15991211 248.03588867 C-194.27779954 233.54489259 -193.70091675 218.44919981 -193.63305664 203.51977539 C-193.6193308 200.39759241 -193.62619774 197.27663338 -193.65356445 194.15454102 C-193.81142526 176.09802388 -193.46427561 158.99822476 -188.05664062 141.57641602 C-187.78809265 140.70399261 -187.51954468 139.83156921 -187.24285889 138.93270874 C-170.70155813 85.96383096 -133.68879171 44.03983725 -84.85351562 18.33032227 C-76.86801821 14.29188993 -68.5841366 11.20531956 -60.11914062 8.32641602 C-58.72743652 7.85026855 -58.72743652 7.85026855 -57.30761719 7.36450195 C-54.24182339 6.36224348 -51.15827761 5.46145955 -48.05664062 4.57641602 C-46.8882666 4.21233643 -45.71989258 3.84825684 -44.51611328 3.47314453 C-30.0251172 -0.6447429 -14.92942442 -0.06786011 0 0 Z M16.94335938 51.57641602 C16.61335937 52.56641602 16.28335938 53.55641602 15.94335938 54.57641602 C17.90789062 54.76204102 17.90789062 54.76204102 19.91210938 54.95141602 C53.18778247 58.53803398 81.1613147 72.59436627 105.94335938 94.57641602 C100.83887116 100.75776471 95.26040995 106.37464479 89.56835938 112.01391602 C88.64152344 112.93624023 87.7146875 113.85856445 86.75976562 114.80883789 C84.48990092 117.06700226 82.217724 119.32278543 79.94335938 121.57641602 C76.58741743 120.31313181 74.31045642 119.31726522 71.94335938 116.57641602 C66.05763894 123.41325097 60.30817945 130.30172799 54.85375977 137.48950195 C51.49176382 141.903886 48.01714465 146.217604 44.50585938 150.51391602 C40.43414493 155.49645554 36.40260221 160.50399896 32.44335938 165.57641602 C27.3119127 172.14823548 22.06180687 178.61998836 16.79101562 185.08032227 C16.30391113 185.67989746 15.81680664 186.27947266 15.31494141 186.8972168 C14.07659745 188.41329543 12.82149756 189.91565007 11.56445312 191.41625977 C9.74328225 193.39289459 9.74328225 193.39289459 9.94335938 195.57641602 C15.1114957 194.07058459 20.24600843 192.5001845 25.33789062 190.75219727 C26.6769043 190.29296875 26.6769043 190.29296875 28.04296875 189.82446289 C29.87263504 189.19349806 31.7007354 188.55797635 33.52734375 187.91821289 C34.41357422 187.61592773 35.29980469 187.31364258 36.21289062 187.00219727 C37.39782104 186.59094604 37.39782104 186.59094604 38.60668945 186.17138672 C40.94335938 185.57641602 40.94335938 185.57641602 45.94335938 185.57641602 C46.93335938 192.50641602 46.93335938 192.50641602 47.94335938 199.57641602 C35.07335937 199.57641602 22.20335937 199.57641602 8.94335938 199.57641602 C13.02852224 203.71283416 13.02852224 203.71283416 17.40429688 207.26782227 C18.03295654 207.73140137 18.66161621 208.19498047 19.30932617 208.67260742 C19.97230713 209.15648926 20.63528809 209.64037109 21.31835938 210.13891602 C26.84296692 214.22400867 32.2838304 218.38634337 37.63085938 222.70141602 C42.21691806 226.40037074 46.82596208 230.05925005 51.50585938 233.63891602 C55.90548458 237.00420111 60.28000197 240.39827997 64.63085938 243.82641602 C72.27075108 249.84397001 79.94896189 255.81177179 87.62890625 261.77807617 C90.65462763 264.12907445 93.67920302 266.48154392 96.70361328 268.83422852 C98.19533509 269.99456499 99.68719682 271.15472161 101.17919922 272.31469727 C105.00674382 275.29065698 108.83222412 278.26921235 112.65429688 281.25219727 C121.02213965 287.77907983 129.41727022 294.25707935 137.94335938 300.57641602 C118.88917366 327.32699831 118.88917366 327.32699831 107.94335938 329.57641602 C101.23993024 321.37031039 94.5662145 313.14641284 88.03979492 304.79858398 C84.70358679 300.53407639 81.33169214 296.29960267 77.94335938 292.07641602 C74.1007157 287.28698045 70.28786111 282.47636009 66.50585938 277.63891602 C62.00077014 271.88023673 57.40219792 266.20213292 52.77954102 260.53759766 C48.83160231 255.69168267 44.95544083 250.79480483 41.10961914 245.86767578 C37.58960883 241.36977872 33.99484433 236.93651428 30.38085938 232.51391602 C25.52743108 226.57319371 20.79772473 220.55563061 16.16210938 214.44360352 C13.82100515 211.41830334 11.44841471 208.4675244 8.94335938 205.57641602 C8.61335937 205.57641602 8.28335938 205.57641602 7.94335938 205.57641602 C8.52736152 213.51689768 9.64236044 221.26716031 11.05273438 229.09985352 C11.36372574 230.85920479 11.36372574 230.85920479 11.68099976 232.65409851 C12.34764578 236.42061898 13.02047951 240.18600474 13.69335938 243.95141602 C14.15072756 246.5300221 14.60759524 249.108717 15.06396484 251.6875 C15.95483447 256.72057205 16.84743091 261.75333271 17.74121094 266.78588867 C19.2095981 275.06579307 20.64680111 283.35086008 22.06835938 291.63891602 C22.2678418 292.8002002 22.46732422 293.96148437 22.67285156 295.15795898 C23.09718738 297.63063672 23.52083203 300.10342875 23.94335938 302.57641602 C18.07575224 303.41752942 12.36863672 303.7685542 6.44335938 303.76391602 C5.58129883 303.76456055 4.71923828 303.76520508 3.83105469 303.76586914 C-4.24313853 303.70049106 -12.08319759 302.8236585 -20.05664062 301.57641602 C-19.77691406 300.56450195 -19.4971875 299.55258789 -19.20898438 298.51000977 C-15.54260146 285.02396128 -12.47263267 271.41267491 -9.43849182 257.77346802 C-8.3556609 252.90718183 -7.26059101 248.04377617 -6.15820312 243.18188477 C-6.0023172 242.49399872 -5.84643127 241.80611267 -5.68582153 241.09738159 C-4.94222979 237.81652143 -4.19813081 234.53577719 -3.45361328 231.25512695 C-2.6487504 227.69683631 -1.85001282 224.13728593 -1.05664062 220.57641602 C-0.84285767 219.61774628 -0.84285767 219.61774628 -0.62475586 218.63970947 C-0.19723604 216.71449772 0.22468999 214.7880465 0.64648438 212.86157227 C1.02015137 211.16013062 1.02015137 211.16013062 1.40136719 209.42431641 C2.03683803 206.56840128 2.03683803 206.56840128 1.94335938 203.57641602 C-3.10647093 205.23307971 -7.11721682 208.18880827 -11.43164062 211.20141602 C-12.2538208 211.76973145 -13.07600098 212.33804688 -13.9230957 212.92358398 C-16.63803166 214.80251137 -19.34764157 216.68894063 -22.05664062 218.57641602 C-23.99013249 219.92031262 -25.92372784 221.26406034 -27.85742188 222.60766602 C-29.81973119 223.97214908 -31.78197073 225.33673247 -33.74414062 226.70141602 C-34.7111792 227.37390381 -35.67821777 228.0463916 -36.67456055 228.73925781 C-41.09988704 231.81805548 -45.52161741 234.90151359 -49.93164062 238.00219727 C-51.36903874 239.00624939 -52.80653175 240.01016568 -54.24414062 241.01391602 C-54.88504639 241.46847168 -55.52595215 241.92302734 -56.1862793 242.39135742 C-59.24400607 244.51778202 -61.38163018 245.6576634 -65.05664062 246.57641602 C-67.36664063 242.28641602 -69.67664063 237.99641602 -72.05664062 233.57641602 C-70.07664062 232.91641602 -68.09664063 232.25641602 -66.05664062 231.57641602 C-64.79545645 231.0321564 -63.54519611 230.46123944 -62.31225586 229.85571289 C-61.63906311 229.52745514 -60.96587036 229.19919739 -60.27227783 228.86099243 C-59.20454132 228.33340836 -59.20454132 228.33340836 -58.11523438 227.79516602 C-57.35821228 227.42499359 -56.60119019 227.05482117 -55.82122803 226.6734314 C-53.37725125 225.47769075 -50.93573606 224.27701042 -48.49414062 223.07641602 C-45.15639224 221.4419803 -41.81740257 219.81008678 -38.47851562 218.17797852 C-37.66162766 217.77821808 -36.84473969 217.37845764 -36.00309753 216.96658325 C-26.72323709 212.42808587 -17.39805645 207.98671672 -8.05664062 203.57641602 C-8.05664062 203.24641602 -8.05664062 202.91641602 -8.05664062 202.57641602 C-17.1936766 203.0750542 -26.02312819 204.79137205 -34.97848511 206.55648804 C-39.608774 207.46816195 -44.24283892 208.36020406 -48.87695312 209.25219727 C-49.85560837 209.44078812 -50.83426361 209.62937897 -51.84257507 209.82368469 C-63.54200324 212.06843832 -75.26755789 214.16658458 -86.99414062 216.26391602 C-89.13030313 216.64665365 -91.26645236 217.02946535 -93.40258789 217.41235352 C-96.47843015 217.96357458 -99.55428565 218.51472076 -102.63020325 219.06552124 C-110.9417783 220.55424047 -119.25138419 222.05279606 -127.55664062 223.57641602 C-128.63550537 223.77195068 -129.71437012 223.96748535 -130.82592773 224.16894531 C-132.25497437 224.43251831 -132.25497437 224.43251831 -133.71289062 224.70141602 C-134.51533203 224.84836914 -135.31777344 224.99532227 -136.14453125 225.14672852 C-138.12810189 225.51205172 -138.12810189 225.51205172 -140.05664062 226.57641602 C-141.0565464 218.03176667 -141.24288639 209.52530891 -141.24194336 200.93432617 C-141.24413025 198.71196325 -141.26235894 196.49009802 -141.28125 194.26782227 C-141.32995052 182.22783299 -139.91978002 170.79641401 -136.80664062 159.13891602 C-136.49110229 157.93912109 -136.49110229 157.93912109 -136.16918945 156.71508789 C-134.40342357 150.27636936 -132.02089271 144.30358421 -129.19335938 138.26391602 C-127.8618643 135.60224901 -127.8618643 135.60224901 -128.05664062 132.57641602 C-127.39664063 132.57641602 -126.73664063 132.57641602 -126.05664062 132.57641602 C-125.52296875 131.57223633 -124.98929688 130.56805664 -124.43945312 129.53344727 C-117.64036571 116.96702855 -109.64995284 106.17496217 -100.05664062 95.57641602 C-105.16112884 89.39506732 -110.73959005 83.77818724 -116.43164062 78.13891602 C-117.35847656 77.2165918 -118.2853125 76.29426758 -119.24023438 75.34399414 C-121.51009908 73.08582977 -123.782276 70.8300466 -126.05664062 68.57641602 C-133.37183414 71.85956593 -138.26589434 78.77373114 -142.93164062 85.07641602 C-143.44629883 85.76928711 -143.96095703 86.4621582 -144.49121094 87.17602539 C-161.22815584 110.05296684 -172.51339775 135.81856226 -178.05664062 163.57641602 C-178.22180176 164.38804199 -178.38696289 165.19966797 -178.55712891 166.03588867 C-182.91115603 188.20225426 -181.69216101 210.405049 -178.05664062 232.57641602 C-177.86125622 233.89541578 -177.66593622 235.21442509 -177.47070312 236.53344727 C-174.48616174 254.11123319 -167.59087026 271.00526443 -159.05664062 286.57641602 C-158.44304687 287.74043945 -157.82945312 288.90446289 -157.19726562 290.10375977 C-149.91747903 303.47510333 -140.60071387 315.61192518 -130.05664062 326.57641602 C-129.31921631 327.36048828 -129.31921631 327.36048828 -128.56689453 328.16040039 C-102.29167425 356.01578653 -67.46228353 374.10650983 -30.05664062 381.57641602 C-29.24501465 381.74157715 -28.43338867 381.90673828 -27.59716797 382.0769043 C-5.43080238 386.43093142 16.77199236 385.2119364 38.94335938 381.57641602 C40.26235914 381.38103162 41.58136845 381.18571161 42.90039062 380.99047852 C60.47817655 378.00593713 77.37220779 371.11064565 92.94335938 362.57641602 C94.10738281 361.96282227 95.27140625 361.34922852 96.47070312 360.71704102 C109.84204669 353.43725442 121.97886854 344.12048926 132.94335938 333.57641602 C133.46607422 333.0847998 133.98878906 332.59318359 134.52734375 332.08666992 C157.56111069 310.35955054 172.8979296 283.42550224 182.94335938 253.57641602 C183.34554688 252.3840332 183.74773437 251.19165039 184.16210938 249.96313477 C198.07228028 205.12390961 191.87808636 154.46956787 170.65722656 113.06713867 C161.59505841 96.04277601 150.11856281 78.71657876 134.94335938 66.57641602 C126.36335938 75.15641602 117.78335937 83.73641602 108.94335938 92.57641602 C104.39728102 89.16685725 100.13519413 85.9371709 95.88085938 82.26391602 C75.0246 65.16579966 44.2669194 51.03741257 16.94335938 51.57641602 Z " fill="#FBFBFB" transform="translate(193.056640625,-0.576416015625)"/>
<path d="M0 0 C1.96050754 6.58921802 3.57371793 13.25605682 5.1875 19.9375 C5.64878296 21.84656128 5.64878296 21.84656128 6.11938477 23.79418945 C8.50548992 33.72953831 10.71456448 43.69903407 12.8687439 53.6869812 C15.12810426 64.15394987 17.52179739 74.58277268 20 85 C22.98426731 97.55055786 25.81931716 110.12655068 28.55102539 122.734375 C30.95746405 133.84079968 33.45411026 144.92479303 36 156 C38.06703095 152.89945358 39.19615709 150.09291129 40.49926758 146.60546875 C40.74202423 145.95899384 40.98478088 145.31251892 41.2348938 144.64645386 C42.04178215 142.49482575 42.84316344 140.34118969 43.64453125 138.1875 C44.21555355 136.66125618 44.786905 135.13513546 45.35856628 133.60913086 C46.87438615 129.55990797 48.38552043 125.50895148 49.89575195 121.4576416 C51.08713397 118.26375424 52.28153032 115.07099928 53.47624397 111.87835693 C54.65490663 108.72841911 55.83247539 105.57807274 57.01006699 102.42773438 C57.59963674 100.8511069 58.18955419 99.27460939 58.77981949 97.69824219 C61.81008346 89.60525655 64.82537448 81.5079422 67.76541233 73.38166809 C68.95349841 70.09909533 70.14941378 66.81939743 71.34558678 63.5397644 C71.91130934 61.98086188 72.47281818 60.42042328 73.02994728 58.85842896 C73.79715219 56.70776554 74.57804462 54.56254942 75.36206055 52.41796875 C75.80067917 51.19875732 76.23929779 49.9795459 76.69120789 48.72338867 C77.12310928 47.82467041 77.55501068 46.92595215 78 46 C82.84469283 44.38510239 86.38358718 47.16761477 90.8125 49.3125 C91.74924561 49.76093262 92.68599121 50.20936523 93.65112305 50.67138672 C101.74474523 54.65681418 108.93454813 59.41888676 116 65 C114.70891619 67.76655418 113.2935196 70.04962067 111.34765625 72.3984375 C110.82413574 73.03539551 110.30061523 73.67235352 109.76123047 74.32861328 C108.92035889 75.34157471 108.92035889 75.34157471 108.0625 76.375 C106.87799647 77.81696147 105.69441802 79.2596833 104.51171875 80.703125 C103.9192334 81.42564453 103.32674805 82.14816406 102.71630859 82.89257812 C100.23292407 85.94187759 97.79815312 89.02774325 95.375 92.125 C94.92825928 92.69541016 94.48151855 93.26582031 94.02124023 93.85351562 C92.67969539 95.56812985 91.33957836 97.2838491 90 99 C83.69256755 107.08053205 77.3175703 115.0964614 70.83642578 123.03857422 C66.89493525 127.87644163 63.02387162 132.76426716 59.18603516 137.68457031 C54.92079742 143.13745749 50.54684969 148.50020773 46.15039062 153.84765625 C45.36051758 154.81251953 45.36051758 154.81251953 44.5546875 155.796875 C44.08530762 156.36760742 43.61592773 156.93833984 43.13232422 157.52636719 C41.91144939 159.01847562 41.91144939 159.01847562 41 161 C41.98097656 160.62488281 42.96195313 160.24976563 43.97265625 159.86328125 C51.00997292 157.18750212 58.06419455 154.56392377 65.1875 152.125 C66.37730469 151.71507812 67.56710938 151.30515625 68.79296875 150.8828125 C71.7236968 150.0760591 73.98699426 149.80707685 77 150 C79.84559287 155.33548663 79 158.10556182 79 165 C66.46 165.33 53.92 165.66 41 166 C44.96 168.97 48.92 171.94 53 175 C55.88227769 177.22081257 58.75867318 179.44646204 61.625 181.6875 C63.17444588 182.89587601 64.72392607 184.10420804 66.2734375 185.3125 C67.05299805 185.9209375 67.83255859 186.529375 68.63574219 187.15625 C71.74282198 189.57928455 74.85460779 191.99623481 77.96630859 194.41333008 C84.55344566 199.53079053 91.12728618 204.66436494 97.68164062 209.82373047 C104.65988806 215.31262052 111.6743916 220.75491673 118.68554688 226.20166016 C122.45815636 229.13299364 126.22898151 232.06662028 130 235 C130.73855225 235.57435791 131.47710449 236.14871582 132.23803711 236.74047852 C136.05146465 239.70610866 139.86419963 242.67262266 143.67578125 245.640625 C152.42908437 252.45526479 161.19682525 259.24986247 170 266 C163.72512026 274.80943901 156.58264365 282.68540723 148.6875 290.0625 C148.18395996 290.53985596 147.68041992 291.01721191 147.16162109 291.5090332 C144.48047734 293.96324209 142.54406885 295.29269816 139 296 C131.91825605 287.46579021 124.86823972 278.91482127 118.0456543 270.17138672 C114.72924272 265.92138132 111.37414141 261.70430018 108 257.5 C104.15728254 252.71062432 100.34450098 247.89994312 96.5625 243.0625 C92.05741077 237.30382072 87.45883855 231.6257169 82.83618164 225.96118164 C78.88824294 221.11526665 75.01208145 216.21838882 71.16625977 211.29125977 C67.64624838 206.79336133 64.05142778 202.36014627 60.4375 197.9375 C55.55623557 191.96125118 50.79484184 185.90924417 46.12109375 179.76953125 C44.11521797 177.15044114 42.07049996 174.56817115 40 172 C40.62487018 179.60931592 41.79250055 187.05551216 43.14453125 194.56640625 C43.35559006 195.7581395 43.56664886 196.94987274 43.78410339 198.17771912 C44.45672138 201.97328041 45.13421852 205.76794705 45.8125 209.5625 C48.39704411 224.05842134 50.97273764 238.55395331 53.32421875 253.08984375 C53.49500443 254.13507706 53.6657901 255.18031036 53.8417511 256.25721741 C53.99540634 257.22026291 54.14906158 258.18330841 54.30737305 259.17553711 C54.50921455 260.43411781 54.50921455 260.43411781 54.71513367 261.71812439 C55 264 55 264 55 268 C48.96919394 269.74886436 43.57749503 270.31828826 37.3125 270.25 C36.44052979 270.24540771 35.56855957 270.24081543 34.67016602 270.23608398 C26.64974502 270.12437071 18.65718751 269.55239584 11 267 C12.28815968 258.45350021 14.08989667 250.13108806 16.1875 241.75 C18.80494047 231.11488258 21.25579231 220.45671519 23.5625 209.75 C26.50236917 196.11578818 29.66765985 182.54399217 33 169 C25.45671256 173.71718497 18.09352556 178.63865157 10.8125 183.75 C8.7893283 185.16444276 6.76588973 186.57850389 4.7421875 187.9921875 C3.7634668 188.67635742 2.78474609 189.36052734 1.77636719 190.06542969 C-2.61963852 193.12856275 -7.03874205 196.1577972 -11.46850586 199.171875 C-14.67704626 201.36442665 -17.83578707 203.60362207 -20.94921875 205.9296875 C-21.58851318 206.40293457 -22.22780762 206.87618164 -22.88647461 207.36376953 C-24.09477347 208.26259318 -25.29539379 209.17186934 -26.48657227 210.09326172 C-30.3643352 212.96935188 -30.3643352 212.96935188 -33.1875 213.10546875 C-35.89521047 211.45399879 -36.81078666 209.35733601 -38.25 206.5625 C-39.03117187 205.07943359 -39.03117187 205.07943359 -39.828125 203.56640625 C-41 201 -41 201 -41 199 C-35.22486754 196.17237848 -29.44879001 193.34669407 -23.67211914 190.5222168 C-21.71618323 189.56560814 -19.7604467 188.60859171 -17.80493164 187.65112305 C-4.91366464 181.33967004 8.01170067 175.10941957 21 169 C10.00941253 170.40943892 -0.83591158 172.40614579 -11.71575928 174.48358154 C-16.9938771 175.4906209 -22.2742243 176.48581168 -27.5546875 177.48046875 C-28.65003815 177.68685974 -29.74538879 177.89325073 -30.87393188 178.105896 C-43.19683029 180.42198647 -55.53439976 182.65546842 -67.875 184.875 C-69.42785706 185.15502365 -69.42785706 185.15502365 -71.01208496 185.44070435 C-83.65994514 187.72028986 -96.31694229 189.92480678 -109 192 C-111.02026123 183.45645792 -111.31055508 175.08474601 -111.26074219 166.35791016 C-111.25005033 164.13546256 -111.26067906 161.91382898 -111.2734375 159.69140625 C-111.28633508 147.71854062 -109.88225456 136.28534086 -106.8125 124.6875 C-106.60471924 123.89496826 -106.39693848 123.10243652 -106.18286133 122.28588867 C-103.94274589 114.15584946 -100.63348803 106.59158162 -97 99 C-93.97103001 99.65724147 -91.38534262 100.66394691 -88.59765625 102.01171875 C-87.72286621 102.43235596 -86.84807617 102.85299316 -85.94677734 103.28637695 C-84.51906006 103.97993286 -84.51906006 103.97993286 -83.0625 104.6875 C-82.05396973 105.17371826 -81.04543945 105.65993652 -80.00634766 106.16088867 C-77.81641841 107.2172525 -75.62732379 108.27534791 -73.43896484 109.33496094 C-69.97792753 111.0106868 -66.5146705 112.68174066 -63.05078125 114.3515625 C-56.32151917 117.59643196 -49.59466468 120.84626534 -42.86828613 124.09710693 C-7.53275061 141.25628746 -7.53275061 141.25628746 28 158 C22.90745829 150.9270254 17.25645275 144.3996218 11.5625 137.8125 C5.03294755 130.23821915 -1.37471227 122.56821064 -7.6875 114.8125 C-10.26146392 111.68200334 -12.87569086 108.58827539 -15.5 105.5 C-19.62101634 100.65040619 -23.66991354 95.74839194 -27.6875 90.8125 C-30.26146392 87.68200334 -32.87569086 84.58827539 -35.5 81.5 C-39.62101634 76.65040619 -43.66991354 71.74839194 -47.6875 66.8125 C-50.26147 63.68199595 -52.87600388 60.58854868 -55.5 57.5 C-59.02006173 53.34977338 -62.52941321 49.19174769 -66 45 C-66.70125 44.154375 -67.4025 43.30875 -68.125 42.4375 C-69.96212867 40.04923272 -71.50629183 37.6139893 -73 35 C-54.90580412 19.73947916 -24.92105662 -1.22311934 0 0 Z " fill="#5B5956" transform="translate(162,34)"/>
<path d="M0 0 C3.12218298 0.01372584 6.24314201 0.0068589 9.36523438 -0.02050781 C27.42175151 -0.17836862 44.52155063 0.16878103 61.94335938 5.57641602 C62.81578278 5.84496399 63.68820618 6.11351196 64.58706665 6.39019775 C105.56307014 19.18632306 143.31911127 45.0716862 167.94335938 80.57641602 C168.34280762 81.13683594 168.74225586 81.69725586 169.15380859 82.2746582 C186.617355 106.81471368 202.79723722 139.65547262 203.13623047 170.33422852 C203.14440796 170.98251617 203.15258545 171.63080383 203.16101074 172.29873657 C203.18569781 174.43295433 203.20235575 176.56710532 203.21679688 178.70141602 C203.22212055 179.44073364 203.22744423 180.18005127 203.23292923 180.94177246 C203.2596145 184.8704321 203.27898676 188.7990608 203.29345703 192.7277832 C203.30666838 195.93185798 203.33428458 199.13527639 203.37548828 202.33911133 C203.60517676 220.62152193 203.47033605 237.93806255 197.94335938 255.57641602 C197.67449417 256.44784241 197.40562897 257.3192688 197.12861633 258.21710205 C187.90137614 287.77063181 172.29165354 314.16873282 150.94335938 336.57641602 C150.40050293 337.14650391 149.85764648 337.7165918 149.29833984 338.30395508 C141.0572243 346.90123735 132.6915894 354.713685 122.94335938 361.57641602 C122.37713867 361.98166504 121.81091797 362.38691406 121.22753906 362.80444336 C96.69091966 380.25769593 63.8542913 396.43040449 33.18554688 396.76928711 C32.53725922 396.7774646 31.88897156 396.78564209 31.22103882 396.79406738 C29.08682106 396.81875445 26.95267007 396.83541239 24.81835938 396.84985352 C24.07904175 396.85517719 23.33972412 396.86050087 22.57800293 396.86598587 C18.64934329 396.89267114 14.7207146 396.9120434 10.79199219 396.92651367 C7.58791741 396.93972502 4.384499 396.96734122 1.18066406 397.00854492 C-17.10176185 397.23823359 -34.41826512 397.10335579 -52.05664062 391.57641602 C-52.92797638 391.30759613 -53.79931213 391.03877625 -54.697052 390.7618103 C-107.66795542 374.22396458 -149.59292376 337.20912866 -175.30273438 288.37329102 C-179.34116671 280.3877936 -182.42773708 272.10391199 -185.30664062 263.63891602 C-185.78278809 262.24721191 -185.78278809 262.24721191 -186.26855469 260.82739258 C-187.27081316 257.76159878 -188.1715971 254.678053 -189.05664062 251.57641602 C-189.42072021 250.40804199 -189.7847998 249.23966797 -190.15991211 248.03588867 C-194.27779954 233.54489259 -193.70091675 218.44919981 -193.63305664 203.51977539 C-193.6193308 200.39759241 -193.62619774 197.27663338 -193.65356445 194.15454102 C-193.81142526 176.09802388 -193.46427561 158.99822476 -188.05664062 141.57641602 C-187.78809265 140.70399261 -187.51954468 139.83156921 -187.24285889 138.93270874 C-170.70155813 85.96383096 -133.68879171 44.03983725 -84.85351562 18.33032227 C-76.86801821 14.29188993 -68.5841366 11.20531956 -60.11914062 8.32641602 C-58.72743652 7.85026855 -58.72743652 7.85026855 -57.30761719 7.36450195 C-54.24182339 6.36224348 -51.15827761 5.46145955 -48.05664062 4.57641602 C-46.8882666 4.21233643 -45.71989258 3.84825684 -44.51611328 3.47314453 C-30.0251172 -0.6447429 -14.92942442 -0.06786011 0 0 Z M-111.05664062 47.57641602 C-112.00410156 48.27895508 -112.9515625 48.98149414 -113.92773438 49.70532227 C-147.57991355 75.87923941 -170.7064881 113.96541161 -180.80664062 155.13891602 C-181.00547852 155.94055176 -181.20431641 156.7421875 -181.40917969 157.56811523 C-184.5561899 171.1088959 -185.47300951 184.71956268 -185.43164062 198.57641602 C-185.43043213 199.33509979 -185.42922363 200.09378357 -185.42797852 200.87545776 C-185.25082343 242.17473808 -170.9782143 281.76917938 -146.05664062 314.57641602 C-145.39664063 315.46200195 -144.73664063 316.34758789 -144.05664062 317.26000977 C-113.89955766 355.95767287 -68.85959458 380.31126192 -20.74414062 387.88891602 C30.06207738 393.20704656 80.16095698 380.55621652 120.94335938 349.57641602 C121.82894531 348.91641602 122.71453125 348.25641602 123.62695312 347.57641602 C160.94223718 318.49662083 184.64170317 275.83496356 192.94335938 229.57641602 C193.16765625 228.40852539 193.39195312 227.24063477 193.62304688 226.03735352 C201.21237265 178.31816818 188.58512412 127.42545782 160.32177734 88.42504883 C158.87416283 86.46626709 157.41205072 84.51942157 155.94335938 82.57641602 C155.24082031 81.62895508 154.53828125 80.68149414 153.81445312 79.70532227 C139.10889307 60.79817362 120.68351263 45.4141833 99.94335938 33.57641602 C99.0389209 33.04951172 99.0389209 33.04951172 98.11621094 32.51196289 C78.72906008 21.30083129 57.94612252 14.44092947 35.94335938 10.57641602 C34.96415527 10.39167725 33.98495117 10.20693848 32.97607422 10.01660156 C23.95589147 8.44090458 15.06737446 8.2178743 5.94335938 8.26391602 C5.17367828 8.26607117 4.40399719 8.26822632 3.61099243 8.27044678 C-38.42033636 8.45883285 -77.54582499 22.24604847 -111.05664062 47.57641602 Z " fill="#FCFDFD" transform="translate(193.056640625,-0.576416015625)"/>
<path d="M0 0 C4.89167374 0.63595365 8.85100515 2.69650657 13.2109375 4.8671875 C14.00707458 5.25764755 14.80321167 5.6481076 15.62347412 6.05039978 C18.20989013 7.3201049 20.79236659 8.59762126 23.375 9.875 C26.05582849 11.19280051 28.7376712 12.50852191 31.41952515 13.82423401 C33.18795027 14.69206493 34.95603881 15.56058206 36.7237854 16.42979431 C43.17122624 19.5994814 49.63664173 22.72729044 56.125 25.8125 C64.55481481 29.82710578 72.96850159 33.87433849 81.375 37.9375 C91.92708371 43.03758356 102.48700504 48.12079849 113.05810547 53.18139648 C117.72471116 55.41749471 122.38254692 57.66392814 127 60 C127 60.33 127 60.66 127 61 C125.78666992 61.2019397 125.78666992 61.2019397 124.54882812 61.40795898 C105.99358246 64.51037339 87.48440202 67.81225574 69 71.3125 C52.40916636 74.45102334 35.80583954 77.50847238 19.1796875 80.4546814 C16.90408538 80.85796983 14.6286921 81.2624385 12.35351562 81.66812134 C9.18944637 82.23168613 6.02457683 82.79049212 2.859375 83.34765625 C1.91688904 83.51593933 0.97440308 83.68422241 0.00335693 83.85760498 C-0.86432312 84.00908997 -1.73200317 84.16057495 -2.62597656 84.31665039 C-3.75450043 84.51575768 -3.75450043 84.51575768 -4.90582275 84.71888733 C-7 85 -7 85 -11 85 C-15.29740077 67.50343974 -13.8496339 48.43222692 -10 31 C-9.85546387 30.31502441 -9.71092773 29.63004883 -9.56201172 28.92431641 C-7.40213885 18.82816648 -4.08268665 9.47183302 0 0 Z " fill="#FCD964" transform="translate(66,137)"/>
<path d="M0 0 C3.64300412 15.53278981 7.25949342 31.07136159 10.8125 46.625 C10.97499237 47.33606903 11.13748474 48.04713806 11.30490112 48.77975464 C13.37582939 57.84545854 15.43404293 66.91399187 17.484375 75.984375 C21.70967563 94.66523884 25.97099658 113.33031238 30.52734375 131.93359375 C30.76694824 132.92343262 31.00655273 133.91327148 31.25341797 134.93310547 C31.78885134 137.13261951 32.33613715 139.32926125 32.89111328 141.52392578 C33.17583496 142.68263184 33.46055664 143.84133789 33.75390625 145.03515625 C34.01631104 146.08195557 34.27871582 147.12875488 34.54907227 148.20727539 C34.98633307 150.91535679 34.90670394 152.44690251 34 155 C33.47792969 154.35675781 32.95585937 153.71351563 32.41796875 153.05078125 C28.16055865 147.82408339 23.86528826 142.63667066 19.5 137.5 C15.37896395 132.65042237 11.33008631 127.74839175 7.3125 122.8125 C4.73853608 119.68200334 2.12430914 116.58827539 -0.5 113.5 C-4.62101634 108.65040619 -8.66991354 103.74839194 -12.6875 98.8125 C-15.26146392 95.68200334 -17.87569086 92.58827539 -20.5 89.5 C-24.62101634 84.65040619 -28.66991354 79.74839194 -32.6875 74.8125 C-35.26146392 71.68200334 -37.87569086 68.58827539 -40.5 65.5 C-44.61117749 60.6619845 -48.65912072 55.77934326 -52.6484375 50.83984375 C-54.41263188 48.70932993 -56.20078228 46.63117452 -58.0390625 44.56640625 C-58.55146484 43.98375 -59.06386719 43.40109375 -59.59179688 42.80078125 C-60.59569954 41.66259861 -61.60972844 40.53324929 -62.63476562 39.4140625 C-65.9648218 35.61505104 -65.9648218 35.61505104 -66.12109375 32.8828125 C-57.12535602 17.77498816 -28.18121628 7.92182586 -12.3125 2.5625 C-11.54566895 2.30315674 -10.77883789 2.04381348 -9.98876953 1.77661133 C-6.46546484 0.63297226 -3.73843821 0 0 0 Z " fill="#FDA365" transform="translate(160,37)"/>
<path d="M0 0 C0.75469574 -0.00012085 1.50939148 -0.0002417 2.28695679 -0.00036621 C15.81870896 0.03025949 28.78867109 1.31086905 42 4.375 C43.25425781 4.66375 44.50851563 4.9525 45.80078125 5.25 C49.25911622 6.16030204 52.61304339 7.22669493 56 8.375 C57.17731689 8.76099365 57.17731689 8.76099365 58.37841797 9.15478516 C79.52901908 16.14186118 98.27556118 25.89485364 116 39.375 C117.41732422 40.426875 117.41732422 40.426875 118.86328125 41.5 C157.4962161 71.51526956 181.76296913 116.75061869 189.3125 164.6875 C194.63063054 215.49371801 181.9798005 265.59259761 151 306.375 C150.34 307.26058594 149.68 308.14617187 149 309.05859375 C119.92020482 346.3738778 77.25854754 370.07334379 31 378.375 C29.83210937 378.59929687 28.66421875 378.82359375 27.4609375 379.0546875 C8.54694972 382.06279449 -14.24526017 382.35367474 -33 378.375 C-33.86931152 378.19195312 -34.73862305 378.00890625 -35.63427734 377.8203125 C-65.23398854 371.38062378 -91.85540605 359.73793175 -116 341.375 C-116.94488281 340.67375 -117.88976562 339.9725 -118.86328125 339.25 C-156.06196279 310.34905168 -179.81630282 267.43571375 -188 221.375 C-188.17587646 220.4473584 -188.35175293 219.5197168 -188.53295898 218.56396484 C-190.11710903 209.48732744 -190.35882609 200.5553687 -190.3125 191.375 C-190.31034485 190.60531891 -190.3081897 189.83563782 -190.30596924 189.04263306 C-190.11758316 147.01130426 -176.33036754 107.88581564 -151 74.375 C-149.94619141 72.95380859 -149.94619141 72.95380859 -148.87109375 71.50390625 C-122.69717661 37.85172707 -84.61100441 14.72515253 -43.4375 4.625 C-42.63586426 4.42616211 -41.83422852 4.22732422 -41.00830078 4.02246094 C-27.46496189 0.87485617 -13.85863598 -0.03453005 0 0 Z M-128 55.375 C-128.52271484 55.86661621 -129.04542969 56.35823242 -129.58398438 56.86474609 C-157.43937052 83.13996637 -175.53009381 117.9693571 -183 155.375 C-183.16516113 156.18662598 -183.33032227 156.99825195 -183.50048828 157.83447266 C-187.8545154 180.00083825 -186.63552038 202.20363299 -183 224.375 C-182.8046156 225.69399977 -182.60929559 227.01300908 -182.4140625 228.33203125 C-179.42952112 245.90981717 -172.53422964 262.80384841 -164 278.375 C-163.38640625 279.53902344 -162.7728125 280.70304687 -162.140625 281.90234375 C-154.8608384 295.27368731 -145.54407324 307.41050917 -135 318.375 C-134.26257568 319.15907227 -134.26257568 319.15907227 -133.51025391 319.95898438 C-107.23503363 347.81437052 -72.4056429 365.90509381 -35 373.375 C-34.18837402 373.54016113 -33.37674805 373.70532227 -32.54052734 373.87548828 C-10.37416175 378.2295154 11.82863299 377.01052038 34 373.375 C35.31899977 373.1796156 36.63800908 372.98429559 37.95703125 372.7890625 C55.53481717 369.80452112 72.42884841 362.90922964 88 354.375 C89.16402344 353.76140625 90.32804687 353.1478125 91.52734375 352.515625 C104.89868731 345.2358384 117.03550917 335.91907324 128 325.375 C128.52271484 324.88338379 129.04542969 324.39176758 129.58398438 323.88525391 C152.61775131 302.15813452 167.95457022 275.22408622 178 245.375 C178.4021875 244.18261719 178.804375 242.99023438 179.21875 241.76171875 C193.12892091 196.92249359 186.93472698 146.26815185 165.71386719 104.86572266 C157.4352286 89.31331364 147.21700991 75.07913151 135 62.375 C134.50838379 61.85228516 134.01676758 61.32957031 133.51025391 60.79101562 C111.78313452 37.75724869 84.84908622 22.42042978 55 12.375 C53.80761719 11.9728125 52.61523438 11.570625 51.38671875 11.15625 C-10.89293237 -8.16434682 -81.48295196 10.6415811 -128 55.375 Z " fill="#205F84" transform="translate(198,7.625)"/>
<path d="M0 0 C13.2 0 26.4 0 40 0 C40 31.96976481 29.70674746 59.76778154 12 86 C6.74383555 85.60105014 3.8016477 82.76082537 -0.0625 79.5 C-1.38675514 78.40991892 -2.7122948 77.32139657 -4.0390625 76.234375 C-4.69938477 75.69103516 -5.35970703 75.14769531 -6.04003906 74.58789062 C-8.9488276 72.23129363 -11.93228081 69.9815848 -14.9375 67.75 C-15.91589844 67.02296875 -16.89429688 66.2959375 -17.90234375 65.546875 C-18.94068359 64.78117187 -18.94068359 64.78117187 -20 64 C-19.43955571 59.916763 -18.15904551 57.4243279 -15.8125 54.0625 C-4.82188252 37.26126918 -1.60838905 19.56873347 0 0 Z " fill="#FEFEFE" transform="translate(303,199)"/>
<path d="M0 0 C0.268125 1.0415625 0.53625 2.083125 0.8125 3.15625 C5.82501852 21.81054396 14.52454692 37.27415871 27 52 C25.37843976 56.10108886 22.4232297 58.83148167 19.3359375 61.859375 C18.78386627 62.40861633 18.23179504 62.95785767 17.66299438 63.52374268 C15.90498185 65.27059293 14.1401311 67.01034601 12.375 68.75 C11.1792292 69.93573591 9.98391135 71.1219288 8.7890625 72.30859375 C5.86459747 75.21105085 2.93398126 78.1071641 0 81 C-4.0183546 77.88263683 -7.20999664 74.57555073 -10.3125 70.5625 C-10.79178955 69.94487793 -11.2710791 69.32725586 -11.76489258 68.69091797 C-23.23072885 53.68019061 -31.64759788 37.06954358 -37 19 C-37.37125 17.7625 -37.7425 16.525 -38.125 15.25 C-38.9172779 12.3072535 -39.18306075 10.02050241 -39 7 C-35.65660711 5.08847463 -32.50822539 4.38970806 -28.73046875 3.7109375 C-27.51166016 3.49179688 -26.29285156 3.27265625 -25.03710938 3.046875 C-23.76673828 2.82515625 -22.49636719 2.6034375 -21.1875 2.375 C-19.92873047 2.14554688 -18.66996094 1.91609375 -17.37304688 1.6796875 C-11.48306245 0.63644303 -5.9989826 -0.12445431 0 0 Z " fill="#FEFEFE" transform="translate(95,219)"/>
<path d="M0 0 C2.78454333 1.29765126 5.07241613 2.72684632 7.43359375 4.6875 C8.39628174 5.48015259 8.39628174 5.48015259 9.37841797 6.28881836 C10.39766357 7.13585327 10.39766357 7.13585327 11.4375 8 C17.93596507 13.34049 24.52143261 18.52343751 31.20849609 23.62646484 C34.71596925 26.3156232 38.20036641 29.03455409 41.6875 31.75 C42.44627441 32.34071289 43.20504883 32.93142578 43.98681641 33.54003906 C45.54188812 34.75073842 47.0969006 35.96151386 48.65185547 37.17236328 C50.98697983 38.98986598 53.3233471 40.80575788 55.66015625 42.62109375 C63.0159205 48.33609465 70.36227888 54.06217714 77.68164062 59.82373047 C84.6336338 65.29196967 91.6216565 70.71390065 98.60644531 76.14013672 C102.78052063 79.38351756 106.95263872 82.6294147 111.125 85.875 C112.64842912 87.05990661 114.17186582 88.24480347 115.6953125 89.4296875 C116.796875 90.28645833 117.8984375 91.14322917 119 92 C117.48699756 97.29043134 114.02127354 100.56663646 110.3125 104.4375 C109.41241211 105.40139648 109.41241211 105.40139648 108.49414062 106.38476562 C104.54940408 110.55830536 100.41742129 114.33110196 96 118 C92.87784572 116.64272489 91.06836881 115.21718037 88.93359375 112.578125 C88.09030518 111.54534424 88.09030518 111.54534424 87.22998047 110.49169922 C86.34270264 109.38205811 86.34270264 109.38205811 85.4375 108.25 C84.81762207 107.48574707 84.19774414 106.72149414 83.55908203 105.93408203 C78.88563478 100.15506228 74.28186566 94.32123053 69.7109375 88.4609375 C66.83819701 84.78240274 63.92128698 81.14002746 61 77.5 C57.15728254 72.71062432 53.34450098 67.89994312 49.5625 63.0625 C45.05741077 57.30382072 40.45883855 51.6257169 35.83618164 45.96118164 C31.89055408 41.11810348 28.01690214 36.22391272 24.17285156 31.30004883 C20.58619974 26.71775601 16.92768672 22.19693802 13.25 17.6875 C0 1.42922404 0 1.42922404 0 0 Z " fill="#FAA163" transform="translate(208,208)"/>
<path d="M0 0 C9.44418818 3.14806273 15.94770078 18.39305904 20.4375 26.640625 C27.30977803 40.64289149 30 55.55464822 30 71 C17.13 71 4.26 71 -9 71 C-10.32 64.73 -11.64 58.46 -13 52 C-16.82163216 43.37050803 -20.314041 35.685959 -27 29 C-25.37843976 24.89891114 -22.4232297 22.16851833 -19.3359375 19.140625 C-18.78386627 18.59138367 -18.23179504 18.04214233 -17.66299438 17.47625732 C-15.90498185 15.72940707 -14.1401311 13.98965399 -12.375 12.25 C-11.1792292 11.06426409 -9.98391135 9.8780712 -8.7890625 8.69140625 C-5.86459747 5.78894915 -2.93398126 2.8928359 0 0 Z " fill="#FEFEFE" transform="translate(271,126)"/>
<path d="M0 0 C12.87 0 25.74 0 39 0 C39 21.77014383 33.39143611 43.98612443 19 61 C13.34302625 58.49631544 8.70989998 54.24703598 3.87451172 50.45703125 C1.94077517 48.95396539 -0.00993761 47.47540086 -1.96484375 46 C-3.24753682 45.02101803 -4.53009245 44.04185596 -5.8125 43.0625 C-6.73748291 42.37232788 -6.73748291 42.37232788 -7.68115234 41.66821289 C-9.17717752 40.51517781 -10.5967954 39.26435677 -12 38 C-12 33.91811352 -10.07274453 31.13069136 -8.1875 27.625 C-4.52472659 20.58434445 -2.29649031 13.86466023 -1 6 C-0.67 4.02 -0.34 2.04 0 0 Z " fill="#FEFEFE" transform="translate(262,199)"/>
<path d="M0 0 C4.60853662 0.81458036 8.46740605 2.46590172 12.625 4.5625 C13.6759082 5.0884375 13.6759082 5.0884375 14.74804688 5.625 C20.98044886 8.82958364 26.51319417 12.62915468 32 17 C22.91606822 29.13002858 13.77922167 41.17209565 4.09399414 52.83154297 C0.01418171 57.74775953 -3.96628873 62.72901051 -7.89160156 67.76904297 C-11.32506426 72.16793227 -14.83956156 76.49532748 -18.375 80.8125 C-25.11767652 89.05591992 -31.57712809 97.50625123 -38 106 C-39 104 -39 104 -38.22067261 101.37550354 C-37.79577545 100.25973434 -37.3708783 99.14396515 -36.93310547 97.99438477 C-36.58392657 97.06788604 -36.58392657 97.06788604 -36.22769356 96.12267017 C-35.44805804 94.05944045 -34.65760412 92.00052734 -33.8671875 89.94140625 C-33.31684945 88.49103747 -32.76722006 87.04039961 -32.21826172 85.58950806 C-31.05072554 82.50789465 -29.87854527 79.42810587 -28.70257568 76.34970093 C-26.88180807 71.58331081 -25.07091121 66.81321514 -23.26220703 62.04223633 C-21.47992235 57.34198464 -19.69729026 52.64186999 -17.91110229 47.94309998 C-13.51483156 36.37666912 -9.16665521 24.79319681 -4.875 13.1875 C-4.35141871 11.77351186 -3.82781928 10.35953043 -3.30419922 8.94555664 C-2.20118901 5.96429441 -1.09950593 2.98255594 0 0 Z " fill="#DEFC7D" transform="translate(242,83)"/>
<path d="M0 0 C-3.8433813 3.24384225 -8.26532803 5.21791937 -12.76171875 7.38671875 C-13.62577835 7.80742142 -14.48983795 8.22812408 -15.38008118 8.66157532 C-18.1473107 10.00752319 -20.91740612 11.34745894 -23.6875 12.6875 C-25.50082859 13.56929644 -27.31398137 14.45145451 -29.12695312 15.33398438 C-34.41136298 17.9031174 -39.70353575 20.45582106 -45 23 C-45.84451721 23.40623596 -46.68903442 23.81247192 -47.55914307 24.23101807 C-49.93952264 25.37364453 -52.32264509 26.5102935 -54.70703125 27.64453125 C-55.41889084 27.98634933 -56.13075043 28.32816742 -56.86418152 28.68034363 C-61.76878552 31 -61.76878552 31 -64 31 C-60.535 37.435 -60.535 37.435 -57 44 C-52.66173489 42.91543372 -49.8091674 40.99149595 -46.25 38.4375 C-45.64800781 38.01275391 -45.04601562 37.58800781 -44.42578125 37.15039062 C-42.94670286 36.10564478 -41.47282741 35.05353984 -40 34 C-35.74816494 35.61276502 -35.65120081 36.58133199 -33 41 C-41.91 49.91 -50.82 58.82 -60 68 C-73.20687274 61.39656363 -81.53324823 41.14938379 -86.0625 27.75 C-87.3836643 23.67529798 -88.24995519 20.28955355 -88 16 C-82.50233818 13.92768884 -76.93823364 12.99386028 -71.171875 12.01171875 C-69.59011978 11.73621185 -69.59011978 11.73621185 -67.97640991 11.45513916 C-64.56827638 10.86199305 -61.15914836 10.27478223 -57.75 9.6875 C-53.11667194 8.88315282 -48.48398846 8.07515024 -43.8515625 7.265625 C-42.72414642 7.06883652 -41.59673035 6.87204803 -40.43515015 6.66929626 C-30.96384039 5.00915276 -21.51939359 3.23916429 -12.09667969 1.32104492 C-11.20110352 1.14162354 -10.30552734 0.96220215 -9.3828125 0.77734375 C-8.64434082 0.62515381 -7.90586914 0.47296387 -7.14501953 0.31616211 C-4.73890685 -0.03848345 -2.42868661 -0.05300599 0 0 Z " fill="#FDFDFD" transform="translate(185,202)"/>
<path d="M0 0 C2.20271549 3.67651306 2.77284464 7.54290444 3.4453125 11.70703125 C3.57629837 12.48466827 3.70728424 13.2623053 3.84223938 14.06350708 C4.27580269 16.64554487 4.70037746 19.22897813 5.125 21.8125 C5.42651262 23.61867994 5.72868949 25.42474911 6.03149414 27.23071289 C6.51169322 30.09659833 6.99114436 32.96259705 7.46809387 35.82902527 C8.70402095 43.25681416 9.96566985 50.67997667 11.23828125 58.1015625 C11.42243591 59.17667587 11.60659058 60.25178925 11.79632568 61.35948181 C12.52374182 65.60609579 13.25125533 69.85269233 13.98028564 74.09902954 C14.48715082 77.05403072 14.99188199 80.00938884 15.49609375 82.96484375 C15.64887283 83.85253448 15.80165192 84.74022522 15.95906067 85.65481567 C17 91.77190777 17 91.77190777 17 94 C14.05361255 94.84699177 11.42902047 95.12846947 8.3671875 95.1328125 C7.47773438 95.13410156 6.58828125 95.13539063 5.671875 95.13671875 C4.74890625 95.13285156 3.8259375 95.12898438 2.875 95.125 C1.97523438 95.12886719 1.07546875 95.13273437 0.1484375 95.13671875 C-15.77231178 95.11384411 -15.77231178 95.11384411 -20 93 C-19.27027493 85.58266793 -17.61186885 78.44233441 -15.9375 71.1875 C-15.62747707 69.83048841 -15.31783389 68.47339 -15.00854492 67.11621094 C-14.18225652 63.49498213 -13.35126398 59.87485118 -12.51867676 56.25506592 C-10.94675531 49.42077764 -9.37921533 42.58548331 -7.8125 35.75 C-7.64257538 35.00933289 -7.47265076 34.26866577 -7.2975769 33.5055542 C-4.74258526 22.36204499 -2.2738441 11.20466599 0 0 Z " fill="#ADFAAB" transform="translate(197,206)"/>
<path d="M0 0 C2.79508587 1.35558603 5.04545836 2.76817485 7.4375 4.75 C13.71218475 9.55940997 21.29503722 13.19602741 29 15 C28.51330978 23.61810202 26.52959508 31.77720104 24.4375 40.125 C24.10418953 41.47640772 23.77150277 42.82796943 23.43945312 44.1796875 C22.6323998 47.45468648 21.81911651 50.7280013 21 54 C2.29319682 50.58161467 -12.98110788 41.52970578 -27 29 C-25.37843976 24.89891114 -22.4232297 22.16851833 -19.3359375 19.140625 C-18.78386627 18.59138367 -18.23179504 18.04214233 -17.66299438 17.47625732 C-15.90498185 15.72940707 -14.1401311 13.98965399 -12.375 12.25 C-11.1792292 11.06426409 -9.98391135 9.8780712 -8.7890625 8.69140625 C-5.86459747 5.78894915 -2.93398126 2.8928359 0 0 Z " fill="#FEFEFE" transform="translate(153,244)"/>
<path d="M0 0 C6.36590304 5.24458586 12.13570612 11.02097322 17.9375 16.875 C18.91708237 17.85960919 19.89689837 18.843986 20.87695312 19.828125 C23.25360252 22.21648203 25.62787356 24.60715212 28 27 C26.68109385 30.45811188 25.52723794 32.78653894 22.9375 35.4375 C17.80838292 41.05355858 13.99084796 47.55672619 10 54 C6.23743805 53.3898891 3.18613065 52.29835059 -0.23828125 50.63671875 C-1.22376953 50.16169922 -2.20925781 49.68667969 -3.22460938 49.19726562 C-4.75311523 48.44993164 -4.75311523 48.44993164 -6.3125 47.6875 C-7.31990234 47.20087891 -8.32730469 46.71425781 -9.36523438 46.21289062 C-14.93200268 43.51835717 -20.47497151 40.77901672 -26 38 C-20.55813736 23.55813378 -10.24064808 11.3171122 0 0 Z " fill="#FEFEFE" transform="translate(94,96)"/>
<path d="M0 0 C18.81 0 37.62 0 57 0 C57 11.39811754 55.28124061 25.20118185 47 34 C42.09005144 34 41.14119516 32.90158061 37.375 29.875 C36.217565 28.95688363 35.06000574 28.0389239 33.90234375 27.12109375 C32.96624268 26.37061768 32.96624268 26.37061768 32.01123047 25.60498047 C28.34720196 22.68105191 24.63908604 19.8136168 20.9375 16.9375 C19.7928125 16.04454224 19.7928125 16.04454224 18.625 15.13354492 C13.14176843 10.86182067 7.5979294 6.68357697 1.9921875 2.57421875 C1.33476562 2.05472656 0.67734375 1.53523437 0 1 C0 0.67 0 0.34 0 0 Z " fill="#FEFEFE" transform="translate(202,199)"/>
<path d="M0 0 C11.86368775 0 21.92058429 0.86869245 33 5 C32.43469437 9.98064016 31.34519412 14.27561883 29.56640625 18.95703125 C29.32840805 19.58606857 29.09040985 20.2151059 28.84519958 20.86320496 C28.34520086 22.17958619 27.84166223 23.49462794 27.3347168 24.80834961 C26.55916422 26.82115742 25.79742131 28.8388145 25.03710938 30.85742188 C21.27404686 40.72595314 21.27404686 40.72595314 19 43 C16.171875 42.57421875 16.171875 42.57421875 12.75 41.6875 C8.47389237 40.59876753 4.37186732 39.72864455 0 39 C0 26.13 0 13.26 0 0 Z " fill="#FEFEFE" transform="translate(199,95)"/>
<path d="M0 0 C4.10108886 1.62156024 6.83148167 4.5767703 9.859375 7.6640625 C10.40861633 8.21613373 10.95785767 8.76820496 11.52374268 9.33700562 C13.27059293 11.09501815 15.01034601 12.8598689 16.75 14.625 C17.93573591 15.8207708 19.1219288 17.01608865 20.30859375 18.2109375 C23.21105085 21.13540253 26.1071641 24.06601874 29 27 C26.89539085 30.54228296 24.6908751 33.94687486 22.3125 37.3125 C21.68988281 38.19550781 21.06726563 39.07851562 20.42578125 39.98828125 C19.95527344 40.65214844 19.48476562 41.31601563 19 42 C14.20346404 41.42293885 10.45590381 40.02301669 6.10546875 37.9453125 C5.47264481 37.64309784 4.83982086 37.34088318 4.18782043 37.0295105 C2.86073992 36.39283914 1.5355373 35.75223994 0.2121582 35.10791016 C-1.81792431 34.12236666 -3.85655021 33.15636249 -5.89648438 32.19140625 C-7.1880581 31.56886489 -8.47909388 30.94520596 -9.76953125 30.3203125 C-10.94104736 29.75586426 -12.11256348 29.19141602 -13.31958008 28.60986328 C-16 27 -16 27 -17 24 C-12.69366008 15.13548741 -6.41443632 7.40926787 0 0 Z " fill="#FDFDFD" transform="translate(123,126)"/>
<path d="M0 0 C0 13.2 0 26.4 0 40 C-4.95 40.33 -9.9 40.66 -15 41 C-17.97 41.495 -17.97 41.495 -21 42 C-29.50094752 10.18024781 -29.50094752 10.18024781 -29 3 C-19.1309489 0.87784496 -10.19366957 0 0 0 Z " fill="#FEFEFE" transform="translate(197,53)"/>
<path d="M0 0 C7.8152008 3.69471357 11.78102851 12.29501505 15 20 C17.55613681 27.14695852 18.3290929 33.43086333 18 41 C12.39 41 6.78 41 1 41 C0.01 37.04 -0.98 33.08 -2 29 C-6.52646015 29.41149638 -10.41498716 30.05506659 -14.6875 31.625 C-18.1434758 32.84055011 -20.48210271 33.49244128 -24 32 C-26 29 -26 29 -25.97290039 27.17871094 C-24.49614348 23.87166484 -21.99339997 21.6272599 -19.43359375 19.140625 C-18.88010757 18.59138367 -18.3266214 18.04214233 -17.75636292 17.47625732 C-15.99033441 15.72699536 -14.21415308 13.98846356 -12.4375 12.25 C-11.23694559 11.064495 -10.0370674 9.87830476 -8.83789062 8.69140625 C-5.89970905 5.78626707 -2.95237926 2.89070663 0 0 Z " fill="#FEFEFE" transform="translate(241,156)"/>
<path d="M0 0 C2.34543431 1.19948139 4.58810054 2.50638004 6.80786133 3.92456055 C6.15586947 11.56916509 4.57833142 18.84187287 2.80786133 26.29956055 C2.53458008 27.47389648 2.26129883 28.64823242 1.97973633 29.8581543 C-0.02937323 38.43626421 -0.02937323 38.43626421 -1.19213867 41.92456055 C-11.42414916 41.45946916 -20.50843971 35.29751087 -28.19213867 28.92456055 C-27.75616386 24.50328637 -24.7470789 22.01188539 -21.76635742 19.0300293 C-21.22235794 18.47841629 -20.67835846 17.92680328 -20.11787415 17.35847473 C-18.96755394 16.19736587 -17.8132503 15.04019174 -16.65527344 13.88671875 C-14.88232262 12.11474301 -13.13177958 10.32250406 -11.3815918 8.52807617 C-10.26114963 7.40242911 -9.13944642 6.27803556 -8.01635742 5.1550293 C-7.49329514 4.61557175 -6.97023285 4.0761142 -6.43132019 3.52030945 C-2.74748517 -0.09455094 -2.74748517 -0.09455094 0 0 Z " fill="#FDFDFD" transform="translate(184.192138671875,215.075439453125)"/>
<path d="M0 0 C2 2 2 2 2 14 C14.54 14 27.08 14 40 14 C40 9.38 40 4.76 40 0 C40.33 0 40.66 0 41 0 C41 8.58 41 17.16 41 26 C40.67 26 40.34 26 40 26 C40 22.7 40 19.4 40 16 C27.46 16 14.92 16 2 16 C2 21.28 2 26.56 2 32 C1.59407943 35.35577813 1.16340417 38.42324532 0.4375 41.6875 C0.25968994 42.51580322 0.08187988 43.34410645 -0.10131836 44.19750977 C-4.60581975 64.17228124 -11.97194726 84.02743508 -24.68334961 100.29760742 C-25.85682955 101.81488456 -26.93601835 103.40402753 -28 105 C-28.66 104.01 -29.32 103.02 -30 102 C-29.34 102 -28.68 102 -28 102 C-27.73445313 101.27425781 -27.46890625 100.54851562 -27.1953125 99.80078125 C-25.99637773 96.99151253 -24.58521425 94.71304895 -22.875 92.1875 C-9.78422659 71.76372073 -3.38127416 50.04710254 -1 26 C-0.67 22.7 -0.34 19.4 0 16 C-13.2 16 -26.4 16 -40 16 C-40 20.29 -40 24.58 -40 29 C-42.05539816 47.40843436 -50.12353378 63.60433207 -60 79 C-60.99 78.505 -60.99 78.505 -62 78 C-60.49372824 73.85968378 -58.45090305 70.273781 -56.1875 66.5 C-46.75468436 50.33250834 -44.07616076 34.68544683 -42 16 C-54.87 16 -67.74 16 -81 16 C-81.33 19.96 -81.66 23.92 -82 28 C-83.77635578 35.9526082 -87.08657214 44.45285737 -92 51 C-94.1875 51.80078125 -94.1875 51.80078125 -96 52 C-95.54109375 51.30777344 -95.0821875 50.61554688 -94.609375 49.90234375 C-87.96958615 39.31494934 -84.87852998 28.51905221 -84 16 C-89.94 16 -95.88 16 -102 16 C-102 14.35 -102 12.7 -102 11 C-101.67 11.99 -101.34 12.98 -101 14 C-95.06 14 -89.12 14 -83 14 C-82.67 12.68 -82.34 11.36 -82 10 C-82 11.32 -82 12.64 -82 14 C-68.8 14 -55.6 14 -42 14 C-42 9.71 -42 5.42 -42 1 C-41.34 1.33 -40.68 1.66 -40 2 C-40 5.96 -40 9.92 -40 14 C-26.8 14 -13.6 14 0 14 C0 9.38 0 4.76 0 0 Z " fill="#E6E6E7" transform="translate(343,183)"/>
<path d="M0 0 C0 12.87 0 25.74 0 39 C-5.94 39.495 -5.94 39.495 -12 40 C-14.26505555 31.83134224 -16.37796557 23.64286893 -18.25 15.375 C-18.42499023 14.61783691 -18.59998047 13.86067383 -18.78027344 13.08056641 C-19.61479797 9.32856424 -20.21294171 5.84816088 -20 2 C-14 0 -14 0 0 0 Z " fill="#FDFDFD" transform="translate(197,95)"/>
<path d="M0 0 C12.375 0 12.375 0 19 2 C18.28629307 6.34375904 16.88416076 10.34628764 15.34765625 14.453125 C15.08746201 15.15395203 14.82726776 15.85477905 14.55918884 16.57684326 C14.01061381 18.05002115 13.46000253 19.52244221 12.9074707 20.99414062 C12.06114682 23.25361265 11.2266287 25.51722328 10.39257812 27.78125 C9.85748479 29.21380855 9.32170163 30.64610966 8.78515625 32.078125 C8.41161766 33.09679657 8.41161766 33.09679657 8.03053284 34.13604736 C6.22892724 38.88553638 6.22892724 38.88553638 4 40 C2.68 39.67 1.36 39.34 0 39 C0 26.13 0 13.26 0 0 Z " fill="#FDFDFD" transform="translate(199,137)"/>
<path d="M0 0 C0.33 0 0.66 0 1 0 C0.99476318 0.96711914 0.98952637 1.93423828 0.98413086 2.93066406 C0.96580215 6.57616217 0.95446793 10.22165636 0.94506836 13.8671875 C0.940091 15.4342518 0.93330671 17.00131158 0.92456055 18.56835938 C0.87455951 27.76855053 1.00853745 36.83875192 2 46 C3.18698486 45.77449463 4.37396973 45.54898926 5.59692383 45.31665039 C31.69282647 40.36502645 57.8093471 35.56201282 83.9777832 31.00805664 C86.00736328 30.65403248 88.03690548 30.29979102 90.06640625 29.9453125 C91.02593704 29.77807175 91.98546783 29.61083099 92.97407532 29.43852234 C99.6964505 28.25668181 106.38141671 26.94496149 113.05444336 25.51123047 C115.77740784 25.03863307 118.24457807 24.89829087 121 25 C120.505 26.485 120.505 26.485 120 28 C117.27573266 28.81282821 114.70260025 29.40979596 111.91796875 29.92578125 C111.07131149 30.09282059 110.22465424 30.25985992 109.3523407 30.43196106 C106.57137479 30.97312805 103.78688258 31.49021823 101 32 C100.08252991 32.16820251 99.16505981 32.33640503 98.2197876 32.50970459 C92.32035615 33.58196498 86.41430841 34.61420625 80.50582886 35.63528442 C59.18631589 39.32202252 37.91042444 43.21484879 16.65551758 47.2565918 C15.19437027 47.53359421 15.19437027 47.53359421 13.70370483 47.81619263 C11.88300209 48.16160946 10.06260938 48.50866596 8.24258423 48.8576355 C2.22331597 50 2.22331597 50 0 50 C-2.08145035 41.28303765 -2.31047507 32.82255588 -2.26074219 23.91845703 C-2.24992102 21.60813754 -2.26074624 19.29857875 -2.2734375 16.98828125 C-2.27211742 15.50520663 -2.26955816 14.02213249 -2.265625 12.5390625 C-2.27169769 11.51397079 -2.27169769 11.51397079 -2.27789307 10.46817017 C-2.2395185 6.54311408 -1.71507701 3.53830436 0 0 Z " fill="#5E5C54" transform="translate(53,176)"/>
<path d="M0 0 C5.78313693 4.8032165 11.20607993 9.92373871 16.55517578 15.20507812 C17.52748263 16.16062673 18.50514744 17.11075057 19.48779297 18.05566406 C20.92035975 19.43376962 22.33550098 20.8299183 23.75 22.2265625 C24.59046875 23.04721191 25.4309375 23.86786133 26.296875 24.71337891 C28 27 28 27 27.765625 29.29833984 C27.38664062 30.14066162 27.38664062 30.14066162 27 31 C21.70080268 30.47629373 17.80829628 29.22542617 12.97265625 26.83984375 C12.33887558 26.53051407 11.70509491 26.22118439 11.05210876 25.90248108 C9.0509685 24.92321348 7.05677599 23.93065957 5.0625 22.9375 C3.69770438 22.26668473 2.33247358 21.59675406 0.96679688 20.92773438 C-2.36055933 19.29534863 -5.68182744 17.65098853 -9 16 C-9 12.43966371 -8.18315784 11.4418798 -6.1875 8.5625 C-5.66542969 7.80066406 -5.14335937 7.03882813 -4.60546875 6.25390625 C-3.10221168 4.14349426 -1.56584173 2.06427783 0 0 Z " fill="#FCFCFC" transform="translate(153,155)"/>
<path d="M0 0 C6.12689462 1.86272605 11.73932716 4.15199778 17.375 7.1875 C18.46929321 7.77035767 18.46929321 7.77035767 19.58569336 8.36499023 C25.79588807 11.74421775 31.45422006 15.604101 37 20 C35.70891619 22.76655418 34.2935196 25.04962067 32.34765625 27.3984375 C31.82413574 28.03539551 31.30061523 28.67235352 30.76123047 29.32861328 C30.20064941 30.0039209 29.64006836 30.67922852 29.0625 31.375 C27.87799647 32.81696147 26.69441802 34.2596833 25.51171875 35.703125 C24.62299072 36.7869043 24.62299072 36.7869043 23.71630859 37.89257812 C21.23292407 40.94187759 18.79815312 44.02774325 16.375 47.125 C15.70488892 47.98061523 15.70488892 47.98061523 15.02124023 48.85351562 C13.67969539 50.56812985 12.33957836 52.2838491 11 54 C4.69873631 62.07262918 -1.66607968 70.08414764 -8.14599609 78.0144043 C-12.27874834 83.08193105 -16.33129149 88.20744047 -20.31054688 93.39648438 C-27.59872013 102.79947857 -27.59872013 102.79947857 -33 105 C-31.70891619 102.23344582 -30.2935196 99.95037933 -28.34765625 97.6015625 C-27.82429687 96.96476562 -27.3009375 96.32796875 -26.76171875 95.671875 C-26.20097656 94.99640625 -25.64023438 94.3209375 -25.0625 93.625 C-23.87535508 92.18046525 -22.68917258 90.73513907 -21.50390625 89.2890625 C-20.91109863 88.5662207 -20.31829102 87.84337891 -19.70751953 87.09863281 C-17.26500651 84.09665369 -14.87868384 81.05263691 -12.5 78 C-8.60561654 73.00856708 -4.6354898 68.08602683 -0.625 63.1875 C4.41761099 57.02165339 9.28606309 50.74198373 14.09594727 44.39355469 C19.88368705 36.78232875 25.92733517 29.38459897 32 22 C28.18510379 17.81615831 24.26795462 15.137332 19.3125 12.4375 C18.60931641 12.04763916 17.90613281 11.65777832 17.18164062 11.25610352 C11.94793447 8.40119116 6.64538375 5.94060066 1 4 C0.67 4.99 0.34 5.98 0 7 C-0.66 7 -1.32 7 -2 7 C-1.125 1.125 -1.125 1.125 0 0 Z " fill="#5A5B55" transform="translate(241,79)"/>
<path d="M0 0 C0.66 0 1.32 0 2 0 C2 12.87 2 25.74 2 39 C14.44972238 38.26152794 14.44972238 38.26152794 26.625 36.375 C27.45418945 36.20387695 28.28337891 36.03275391 29.13769531 35.85644531 C49.12608878 31.50201839 67.61456177 24.05142234 84.21826172 12.0612793 C85.7630904 10.96796675 87.37750456 9.97433903 89 9 C89.99 9.33 90.98 9.66 92 10 C66.26815322 31.12670077 34.92040048 41 2 41 C2 53.54 2 66.08 2 79 C5.3 79 8.6 79 12 79 C12 79.33 12 79.66 12 80 C3.42 80 -5.16 80 -14 80 C-14 79.67 -14 79.34 -14 79 C-9.38 79 -4.76 79 0 79 C0 66.46 0 53.92 0 41 C-3.63 41 -7.26 41 -11 41 C-11.99 40.34 -12.98 39.68 -14 39 C-9.38 39 -4.76 39 0 39 C0 26.13 0 13.26 0 0 Z " fill="#E4E6E6" transform="translate(197,304)"/>
<path d="M0 0 C-3.86419033 3.25282138 -8.31189906 5.2773051 -12.81640625 7.484375 C-13.66927719 7.90422668 -14.52214813 8.32407837 -15.40086365 8.75665283 C-17.19930801 9.63969779 -18.99890126 10.52040621 -20.79956055 11.39892578 C-23.56096838 12.74925104 -26.31464368 14.11453932 -29.06835938 15.48046875 C-30.81725367 16.33686661 -32.56658794 17.19236669 -34.31640625 18.046875 C-35.14145157 18.45822693 -35.96649689 18.86957886 -36.81654358 19.293396 C-37.58421555 19.66418274 -38.35188751 20.03496948 -39.14282227 20.41699219 C-39.81692642 20.74769714 -40.49103058 21.0784021 -41.18556213 21.41912842 C-43 22 -43 22 -46 21 C-46.984375 19.328125 -46.984375 19.328125 -47.75 17.25 C-48.01296875 16.57453125 -48.2759375 15.8990625 -48.546875 15.203125 C-49.09502184 12.53799727 -48.58869686 10.63226935 -48 8 C-41.96877079 6.85489254 -35.93646015 5.71573095 -29.90307617 4.58203125 C-27.85133662 4.1956384 -25.79990042 3.80763109 -23.7487793 3.41796875 C-20.79814938 2.85771352 -17.84647233 2.30329969 -14.89453125 1.75 C-13.97976517 1.57500977 -13.06499908 1.40001953 -12.12251282 1.21972656 C-10.8317408 0.97947754 -10.8317408 0.97947754 -9.51489258 0.734375 C-8.76210526 0.59225586 -8.00931793 0.45013672 -7.23371887 0.30371094 C-4.798724 -0.02736679 -2.45445184 -0.05079562 0 0 Z " fill="#F8F8F8" transform="translate(185,202)"/>
<path d="M0 0 C0.66 0.33 1.32 0.66 2 1 C0.88103018 4.35690946 0.37845619 4.70265113 -2.4453125 6.57421875 C-3.55024048 7.31696045 -3.55024048 7.31696045 -4.67749023 8.07470703 C-5.48516846 8.60692871 -6.29284668 9.13915039 -7.125 9.6875 C-8.84837288 10.84398489 -10.57099444 12.00158996 -12.29296875 13.16015625 C-13.21255371 13.77648926 -14.13213867 14.39282227 -15.07958984 15.02783203 C-20.23442831 18.50892091 -25.33438515 22.06871362 -30.4375 25.625 C-31.91984131 26.65500122 -31.91984131 26.65500122 -33.43212891 27.70581055 C-38.37021522 31.11165587 -38.37021522 31.11165587 -43.16918945 34.70678711 C-45 36 -45 36 -47.046875 36.02734375 C-49.9425447 34.50422149 -50.76901521 32.43845278 -52.25 29.5625 C-52.77078125 28.57378906 -53.2915625 27.58507812 -53.828125 26.56640625 C-55 24 -55 24 -55 22 C-48.91821436 18.97985709 -42.83044529 15.97205262 -36.73828125 12.97290039 C-34.66492842 11.95036934 -32.5929814 10.92498274 -30.52246094 9.89672852 C-27.55244817 8.42238007 -24.57759211 6.95825085 -21.6015625 5.49609375 C-20.67131256 5.0315831 -19.74106262 4.56707245 -18.78262329 4.08848572 C-17.92188202 3.6679744 -17.06114075 3.24746307 -16.17431641 2.81420898 C-15.41486725 2.43892563 -14.65541809 2.06364227 -13.87295532 1.67698669 C-13.25488007 1.45358109 -12.63680481 1.23017548 -12 1 C-11.34 1.33 -10.68 1.66 -10 2 C-11 5 -11 5 -12.60084534 6.08207703 C-13.63676064 6.57838371 -13.63676064 6.57838371 -14.69360352 7.0847168 C-15.47433731 7.46488449 -16.25507111 7.84505219 -17.0594635 8.23674011 C-17.90737961 8.63685806 -18.75529572 9.03697601 -19.62890625 9.44921875 C-20.92525246 10.07543877 -20.92525246 10.07543877 -22.24778748 10.71430969 C-25.01486973 12.04828608 -27.7884926 13.36799419 -30.5625 14.6875 C-32.43729611 15.58826262 -34.31165118 16.48994381 -36.18554688 17.39257812 C-40.78531068 19.60575166 -45.39099031 21.80615054 -50 24 C-49.01 26.31 -48.02 28.62 -47 31 C-42.55195436 29.47255791 -38.93623664 27.06353924 -35.125 24.375 C-34.45315674 23.90715088 -33.78131348 23.43930176 -33.08911133 22.95727539 C-31.57993293 21.90571991 -30.07229445 20.8519521 -28.56591797 19.79638672 C-24.6526251 17.05670937 -20.72869286 14.3323701 -16.80615234 11.60595703 C-12.93467801 8.91404885 -9.06610948 6.21797805 -5.19799805 3.52124023 C-3.47714888 2.330236 -1.74131508 1.16087672 0 0 Z " fill="#575C5B" transform="translate(176,211)"/>
<path d="M0 0 C3.71563534 1.23854511 4.59458591 2.69017178 7 5.75 C8.17755859 7.22726563 8.17755859 7.22726563 9.37890625 8.734375 C9.79930176 9.26224609 10.21969727 9.79011719 10.65283203 10.33398438 C13.48697122 13.83890751 16.43660996 17.24827908 19.36914062 20.67089844 C25 27.27837275 25 27.27837275 25 32 C23.35 32.66 21.7 33.32 20 34 C11.09 25.09 2.18 16.18 -7 7 C-3 2 -3 2 0 0 Z " fill="#FBFBFB" transform="translate(103,88)"/>
<path d="M0 0 C0.66 0.33 1.32 0.66 2 1 C1.11183594 1.6084375 0.22367188 2.216875 -0.69140625 2.84375 C-10.10399054 9.30006699 -19.48254873 15.80396981 -28.84008789 22.33984375 C-30.68079008 23.62333363 -32.52419933 24.90295203 -34.37060547 26.17822266 C-36.11817193 27.38902497 -37.85692843 28.6126464 -39.58642578 29.84912109 C-40.38419434 30.40809082 -41.18196289 30.96706055 -42.00390625 31.54296875 C-42.70459229 32.04207764 -43.40527832 32.54118652 -44.12719727 33.05541992 C-44.74522217 33.36713135 -45.36324707 33.67884277 -46 34 C-46.99 33.67 -47.98 33.34 -49 33 C-50.6875 29.4375 -50.6875 29.4375 -52 26 C-40.69972929 19.87103961 -29.24413533 14.0672839 -17.69723511 8.41918945 C-16.18801946 7.68006165 -14.68014584 6.93818738 -13.1736145 6.19360352 C-11.03495383 5.13790373 -8.89138747 4.09292238 -6.74609375 3.05078125 C-6.09478485 2.72733231 -5.44347595 2.40388336 -4.77243042 2.07063293 C-3.20966334 1.31908311 -1.6073091 0.65086523 0 0 Z " fill="#7BF6DA" transform="translate(177,209)"/>
<path d="M0 0 C3.63 0 7.26 0 11 0 C11 12.87 11 25.74 11 39 C10.01 38.67 9.02 38.34 8 38 C7.03271484 35.3671875 7.03271484 35.3671875 6.2109375 31.875 C5.90929687 30.61042969 5.60765625 29.34585938 5.296875 28.04296875 C5.14541016 27.3782959 4.99394531 26.71362305 4.83789062 26.02880859 C4.38243053 24.03256737 3.90797415 22.0416618 3.4296875 20.05078125 C1.86185636 13.36722525 0.55536471 6.84449475 0 0 Z " fill="#FBFBFB" transform="translate(186,137)"/>
<path d="M0 0 C1.98 1.32 3.96 2.64 6 4 C4.37843976 8.10108886 1.4232297 10.83148167 -1.6640625 13.859375 C-2.21613373 14.40861633 -2.76820496 14.95785767 -3.33700562 15.52374268 C-5.09501815 17.27059293 -6.8598689 19.01034601 -8.625 20.75 C-9.8207708 21.93573591 -11.01608865 23.1219288 -12.2109375 24.30859375 C-15.13540253 27.21105085 -18.06601874 30.1071641 -21 33 C-21.99 32.67 -22.98 32.34 -24 32 C-23.55706487 27.07234672 -21.04218281 24.05946671 -18 20.375 C-17.26330078 19.46282715 -17.26330078 19.46282715 -16.51171875 18.53222656 C-15.50394727 17.28683455 -14.49221861 16.04463431 -13.4765625 14.80566406 C-12.09612074 13.11754447 -10.73266735 11.41739209 -9.375 9.7109375 C-3.40831758 2.27221172 -3.40831758 2.27221172 0 0 Z " fill="#FBFBFB" transform="translate(264,119)"/>
<path d="M0 0 C6.36590304 5.24458586 12.13570612 11.02097322 17.9375 16.875 C18.91708237 17.85960919 19.89689837 18.843986 20.87695312 19.828125 C23.25360252 22.21648203 25.62787356 24.60715212 28 27 C26.86695008 30.39914975 25.87481525 31.05254451 23 33 C19.80901499 31.62329319 18.0025688 30.13342907 15.828125 27.4375 C15.24949707 26.72730713 14.67086914 26.01711426 14.07470703 25.28540039 C13.47255371 24.53121826 12.87040039 23.77703613 12.25 23 C11.63108887 22.23486084 11.01217773 21.46972168 10.37451172 20.68139648 C9.14284321 19.15703354 7.91409718 17.63030402 6.68847656 16.10107422 C5.23929769 14.29777269 3.77756068 12.5065957 2.3046875 10.72265625 C1.58539063 9.84480469 0.86609375 8.96695313 0.125 8.0625 C-0.49117187 7.31097656 -1.10734375 6.55945313 -1.7421875 5.78515625 C-3 4 -3 4 -3 2 C-2.01 1.34 -1.02 0.68 0 0 Z " fill="#FCA265" transform="translate(242,244)"/>
<path d="M0 0 C0.66 0 1.32 0 2 0 C2 13.2 2 26.4 2 40 C-1.3 39.67 -4.6 39.34 -8 39 C-9.28568107 35.14295678 -8.5401858 33.05725554 -7.63671875 29.1015625 C-7.48467484 28.42958832 -7.33263092 27.75761414 -7.17597961 27.0652771 C-6.85262957 25.64388913 -6.52539695 24.22337964 -6.19458008 22.80371094 C-5.69145068 20.64197441 -5.20117903 18.47763143 -4.71289062 16.3125 C-2.07829184 4.79290019 -2.07829184 4.79290019 0 0 Z " fill="#AFFDAD" transform="translate(195,220)"/>
<path d="M0 0 C5.00054692 3.7183554 8.67168203 8.07817519 12.54296875 12.9453125 C14.26435406 15.08541316 15.99889261 17.17314578 17.80078125 19.2421875 C18.26129883 19.77577881 18.72181641 20.30937012 19.19628906 20.85913086 C20.50199836 22.36760309 21.81527497 23.86951522 23.12890625 25.37109375 C25 28 25 28 25 32 C20.89891114 30.37843976 18.16851833 27.4232297 15.140625 24.3359375 C14.59138367 23.78386627 14.04214233 23.23179504 13.47625732 22.66299438 C11.72940707 20.90498185 9.98965399 19.1401311 8.25 17.375 C7.06426409 16.1792292 5.8780712 14.98391135 4.69140625 13.7890625 C1.78894915 10.86459747 -1.1071641 7.93398126 -4 5 C-2.25 1.125 -2.25 1.125 0 0 Z " fill="#FAFAFA" transform="translate(130,120)"/>
<path d="M0 0 C0.66 0.33 1.32 0.66 2 1 C-7.24 10.24 -16.48 19.48 -26 29 C-27.65 27.35 -29.3 25.7 -31 24 C-28.50302634 18.36607203 -23.84395043 15.82051581 -18.875 12.5625 C-18.05773437 12.01529297 -17.24046875 11.46808594 -16.3984375 10.90429688 C-13.93857542 9.25984794 -11.4697957 7.62948059 -9 6 C-7.29364114 4.86422671 -5.58787886 3.72755646 -3.8828125 2.58984375 C-3.13660645 2.09218506 -2.39040039 1.59452637 -1.62158203 1.08178711 C-1.08645996 0.72479736 -0.55133789 0.36780762 0 0 Z " fill="#FAFAFA" transform="translate(180,212)"/>
<path d="M0 0 C0.66 0 1.32 0 2 0 C2.72037087 4.26704789 3.43210938 8.5354238 4.13623047 12.80517578 C4.37643338 14.25445378 4.61890218 15.70335827 4.86376953 17.15185547 C5.21738141 19.2461038 5.56254821 21.34160521 5.90625 23.4375 C6.11572266 24.69433594 6.32519531 25.95117188 6.54101562 27.24609375 C7.02880311 31.23557269 7.07778043 34.98652989 7 39 C3.535 39.495 3.535 39.495 0 40 C0 26.8 0 13.6 0 0 Z " fill="#ACF7AA" transform="translate(199,220)"/>
<path d="M0 0 C0.495 1.485 0.495 1.485 1 3 C0.41323486 3.18473877 -0.17353027 3.36947754 -0.77807617 3.55981445 C-20.00380239 9.70211763 -38.09856645 17.36121118 -54 30 C-54.99 30.66 -55.98 31.32 -57 32 C-57.66 31.01 -58.32 30.02 -59 29 C-57.576875 28.2265625 -57.576875 28.2265625 -56.125 27.4375 C-53.16991419 25.76139402 -50.4767096 23.89850555 -47.75 21.875 C-33.09996624 11.58693118 -16.95746715 5.39399805 0 0 Z " fill="#F49A5D" transform="translate(163,54)"/>
<path d="M0 0 C0.33 0 0.66 0 1 0 C0.99476318 0.96711914 0.98952637 1.93423828 0.98413086 2.93066406 C0.96580215 6.57616217 0.95446793 10.22165636 0.94506836 13.8671875 C0.940091 15.4342518 0.93330671 17.00131158 0.92456055 18.56835938 C0.87455951 27.76855053 1.00853745 36.83875192 2 46 C6.455 45.505 6.455 45.505 11 45 C11 45.99 11 46.98 11 48 C7.37 48.66 3.74 49.32 0 50 C-1.96000057 41.21110854 -2.31075309 32.87233173 -2.26074219 23.91845703 C-2.24992102 21.60813754 -2.26074624 19.29857875 -2.2734375 16.98828125 C-2.27211742 15.50520663 -2.26955816 14.02213249 -2.265625 12.5390625 C-2.27169769 11.51397079 -2.27169769 11.51397079 -2.27789307 10.46817017 C-2.2395185 6.54311408 -1.71507701 3.53830436 0 0 Z " fill="#555450" transform="translate(53,176)"/>
<path d="M0 0 C1 2 1 2 1 9 C-7.91 9 -16.82 9 -26 9 C-23.82171799 6.82171799 -22.64681381 6.41258015 -19.75390625 5.52734375 C-18.91666016 5.26759766 -18.07941406 5.00785156 -17.21679688 4.74023438 C-16.34087891 4.47533203 -15.46496094 4.21042969 -14.5625 3.9375 C-12.83463054 3.40496374 -11.10676576 2.87241229 -9.37890625 2.33984375 C-8.6113501 2.10644287 -7.84379395 1.87304199 -7.05297852 1.63256836 C-1.75453493 0 -1.75453493 0 0 0 Z " fill="#6592FA" transform="translate(237,187)"/>
<path d="M0 0 C12.87 0 25.74 0 39 0 C39 0.33 39 0.66 39 1 C32.07 1 25.14 1 18 1 C17.67 2.98 17.34 4.96 17 7 C16.37774395 8.68375165 15.72455635 10.35767228 15 12 C14.50371094 11.62488281 14.00742188 11.24976563 13.49609375 10.86328125 C10.03090771 8.25288493 6.55537475 5.67408111 3 3.1875 C2.01 2.465625 1.02 1.74375 0 1 C0 0.67 0 0.34 0 0 Z " fill="#DDDDDD" transform="translate(202,199)"/>
<path d="M0 0 C0.99 0.99 1.98 1.98 3 3 C-11.72275802 12.67495527 -25.73918577 19.18917088 -43 23 C-43 22.01 -43 21.02 -43 20 C-42.28457031 19.84144531 -41.56914062 19.68289063 -40.83203125 19.51953125 C-29.57595203 16.88389045 -19.40715662 12.97986884 -9.3125 7.375 C-8.61672852 6.99069824 -7.92095703 6.60639648 -7.20410156 6.21044922 C-3.98809722 4.37079249 -2.08583824 3.12875736 0 0 Z " fill="#E8E8E8" transform="translate(260,279)"/>
<path d="M0 0 C0.33 0 0.66 0 1 0 C1 1.98 1 3.96 1 6 C-0.20914063 6.4125 -1.41828125 6.825 -2.6640625 7.25 C-14.41035853 11.35644827 -25.04155792 15.99569916 -35.19921875 23.30078125 C-36.58560547 24.14189453 -36.58560547 24.14189453 -38 25 C-38.99 24.67 -39.98 24.34 -41 24 C-29.22878253 14.28064612 -15.13528646 6.60953215 0 4 C0 2.68 0 1.36 0 0 Z " fill="#F39A5D" transform="translate(172,92)"/>
<path d="M0 0 C-0.33 0.99 -0.66 1.98 -1 3 C-2.67407227 3.79956055 -2.67407227 3.79956055 -4.81640625 4.38671875 C-5.50420166 4.58225342 -6.19199707 4.77778809 -6.90063477 4.97924805 C-7.77905029 5.21297119 -8.65746582 5.44669434 -9.5625 5.6875 C-12.346875 6.450625 -15.13125 7.21375 -18 8 C-9.75 8.33 -1.5 8.66 7 9 C7 9.33 7 9.66 7 10 C-2.9 10 -12.8 10 -23 10 C-21 5 -21 5 -19.16821289 3.86572266 C-18.08141235 3.51840088 -18.08141235 3.51840088 -16.97265625 3.1640625 C-15.78446289 2.77541016 -15.78446289 2.77541016 -14.57226562 2.37890625 C-13.74404297 2.13011719 -12.91582031 1.88132813 -12.0625 1.625 C-10.8259668 1.21701172 -10.8259668 1.21701172 -9.56445312 0.80078125 C-3.42903998 -1.14301333 -3.42903998 -1.14301333 0 0 Z " fill="#58637B" transform="translate(231,187)"/>
<path d="M0 0 C5.28670249 1.57564466 8.98080007 5.02007984 13.125 8.5 C14.54338332 9.67815263 15.96262066 10.85527806 17.3828125 12.03125 C18.00559082 12.55267578 18.62836914 13.07410156 19.27001953 13.61132812 C21.16098876 15.17107877 21.16098876 15.17107877 24 17 C23.34 18.32 22.68 19.64 22 21 C18.54883098 19.5155686 16.31140759 17.55666933 13.671875 14.90234375 C12.87265625 14.10119141 12.0734375 13.30003906 11.25 12.47460938 C10.425 11.63736328 9.6 10.80011719 8.75 9.9375 C7.90953125 9.09638672 7.0690625 8.25527344 6.203125 7.38867188 C0 1.14023184 0 1.14023184 0 0 Z " fill="#F8A064" transform="translate(221,219)"/>
<path d="M0 0 C6.41069287 5.27101414 12.18590512 11.09128152 18 17 C17.34 18.32 16.68 19.64 16 21 C12.02992106 17.18959517 8.5769885 13.14326168 5.1875 8.8125 C4.68541016 8.18408203 4.18332031 7.55566406 3.66601562 6.90820312 C0 2.24463223 0 2.24463223 0 0 Z " fill="#F7A064" transform="translate(222,224)"/>
<path d="M0 0 C-0.57380172 3.66377743 -1.97269658 5.32767225 -4.59765625 7.890625 C-5.31630859 8.59960938 -6.03496094 9.30859375 -6.77539062 10.0390625 C-7.53013672 10.76867187 -8.28488281 11.49828125 -9.0625 12.25 C-9.82111328 12.99507812 -10.57972656 13.74015625 -11.36132812 14.5078125 C-13.23432207 16.34546694 -15.11395611 18.17575724 -17 20 C-17.66 19.67 -18.32 19.34 -19 19 C-17.11098713 16.57772512 -15.2142215 14.16226572 -13.3125 11.75 C-12.78205078 11.06808594 -12.25160156 10.38617188 -11.70507812 9.68359375 C-4.04281705 0 -4.04281705 0 0 0 Z " fill="#F8F8F8" transform="translate(240,152)"/>
<path d="M0 0 C3.59634744 3.49359465 6.83451967 7.11098131 10 11 C7 13 7 13 4.875 13.5 C4.25625 13.665 3.6375 13.83 3 14 C2.67 14.66 2.34 15.32 2 16 C1.66104344 14.27192682 1.32908475 12.54248026 1 10.8125 C0.814375 9.84957031 0.62875 8.88664063 0.4375 7.89453125 C0.03122388 5.2065794 -0.07933572 2.71228981 0 0 Z " fill="#EFEFEF" transform="translate(201,205)"/>
<path d="M0 0 C-0.28073073 2.14729141 -0.57488499 4.29283193 -0.875 6.4375 C-1.03742188 7.63246094 -1.19984375 8.82742187 -1.3671875 10.05859375 C-1.68042969 11.51458984 -1.68042969 11.51458984 -2 13 C-2.99 13.495 -2.99 13.495 -4 14 C-6.03144641 13.06553465 -8.03533587 12.06775224 -10 11 C-8.64763423 8.06120516 -7.10057341 5.70767089 -5 3.25 C-4.484375 2.63640625 -3.96875 2.0228125 -3.4375 1.390625 C-2 0 -2 0 0 0 Z " fill="#F7F7F7" transform="translate(195,203)"/>
<path d="M0 0 C0.66 0.33 1.32 0.66 2 1 C1.01749737 4.28732083 -0.5603332 5.5193702 -3.44921875 7.10546875 C-4.85573788 7.81204245 -6.26882321 8.50566526 -7.6875 9.1875 C-8.38294922 9.54263672 -9.07839844 9.89777344 -9.79492188 10.26367188 C-13.19232353 11.9354092 -16.17923763 13.17036752 -19.95703125 13.61328125 C-20.96121094 13.74089844 -21.96539062 13.86851562 -23 14 C-23.33 14.66 -23.66 15.32 -24 16 C-24 14.68 -24 13.36 -24 12 C-23.01 11.69707031 -22.02 11.39414062 -21 11.08203125 C-13.72098085 8.79478694 -7.20314732 6.59032902 -1 2 C-0.67 1.34 -0.34 0.68 0 0 Z " fill="#E6E6E6" transform="translate(234,246)"/>
<path d="M0 0 C0.5321441 2.08047297 1.05031786 4.16452293 1.5625 6.25 C1.85253906 7.41015625 2.14257812 8.5703125 2.44140625 9.765625 C3 13 3 13 2 17 C-0.97 13.37 -3.94 9.74 -7 6 C-6.01 5.01 -5.02 4.02 -4 3 C-3.46375 2.443125 -2.9275 1.88625 -2.375 1.3125 C-1 0 -1 0 0 0 Z " fill="#ED9B63" transform="translate(192,175)"/>
<path d="M0 0 C9.36492976 4.52383683 18.37626074 9.15339711 27 15 C26.01 15.99 25.02 16.98 24 18 C23.37738281 17.28457031 22.75476563 16.56914063 22.11328125 15.83203125 C18.40378315 12.12253315 13.82944355 10.02404877 9.1875 7.6875 C8.30384766 7.23310547 7.42019531 6.77871094 6.50976562 6.31054688 C4.344057 5.19842623 2.17426798 4.09526478 0 3 C0 2.01 0 1.02 0 0 Z " fill="#D5F274" transform="translate(236,99)"/>
<path d="M0 0 C0 0.66 0 1.32 0 2 C-0.92941406 2.30292969 -1.85882813 2.60585937 -2.81640625 2.91796875 C-10.61927059 5.56231798 -17.06226696 8.06226696 -23 14 C-23.33 12.68 -23.66 11.36 -24 10 C-5.4906428 -2.7453214 -5.4906428 -2.7453214 0 0 Z " fill="#F29A5D" transform="translate(183,137)"/>
<path d="M0 0 C0.66 0.33 1.32 0.66 2 1 C1.01 5.95 0.02 10.9 -1 16 C-1.99 15.34 -2.98 14.68 -4 14 C-3.6732039 11.66574212 -3.33859959 9.33257494 -3 7 C-2.855625 5.88625 -2.71125 4.7725 -2.5625 3.625 C-2.376875 2.75875 -2.19125 1.8925 -2 1 C-1.34 0.67 -0.68 0.34 0 0 Z " fill="#60675F" transform="translate(190,231)"/>
<path d="M0 0 C4.46527093 1.59473962 6.85507843 5.06903334 9.75 8.625 C10.25660156 9.23601562 10.76320312 9.84703125 11.28515625 10.4765625 C12.5296029 11.97929053 13.76564128 13.48897467 15 15 C14.67 15.66 14.34 16.32 14 17 C11.65453302 14.74141867 9.32587973 12.46623352 7 10.1875 C6.33226562 9.54490234 5.66453125 8.90230469 4.9765625 8.24023438 C4.34492188 7.61826172 3.71328125 6.99628906 3.0625 6.35546875 C2.47597656 5.78465576 1.88945312 5.21384277 1.28515625 4.62573242 C0 3 0 3 0 0 Z " fill="#F3F3F3" transform="translate(156,152)"/>
<path d="M0 0 C4 4 8 8 12 12 C11.34 12.66 10.68 13.32 10 14 C6 10 2 6 -2 2 C-1.34 1.34 -0.68 0.68 0 0 Z " fill="#E7E7E7" transform="translate(318,316)"/>
<path d="M0 0 C0.66 0.33 1.32 0.66 2 1 C2 1.66 2 2.32 2 3 C-4.435 5.97 -4.435 5.97 -11 9 C-10 5 -10 5 -7.78515625 3.48046875 C-6.88667969 3.05378906 -5.98820313 2.62710938 -5.0625 2.1875 C-4.16660156 1.74792969 -3.27070313 1.30835938 -2.34765625 0.85546875 C-1.57292969 0.57316406 -0.79820312 0.29085937 0 0 Z " fill="#525555" transform="translate(150,219)"/>
<path d="M0 0 C0.99 0.33 1.98 0.66 3 1 C3.6875 3.0625 3.6875 3.0625 4 5 C-0.1077065 6.58706842 -1.59232396 7.10191901 -6 6 C-4.02 4.02 -2.04 2.04 0 0 Z " fill="#FAFAFA" transform="translate(212,186)"/>
<path d="M0 0 C5.80342274 1.48805711 10.17590879 4.59097555 15 8 C14.67 8.66 14.34 9.32 14 10 C7.07 6.04 7.07 6.04 0 2 C0 1.34 0 0.68 0 0 Z " fill="#D3EF73" transform="translate(221,139)"/>
<path d="M0 0 C0.66 0.33 1.32 0.66 2 1 C2.59765625 2.92578125 2.59765625 2.92578125 3.0625 5.3125 C3.21847656 6.09238281 3.37445313 6.87226563 3.53515625 7.67578125 C3.68855469 8.44277344 3.84195313 9.20976562 4 10 C4.32529853 11.33531635 4.65593093 12.66939662 5 14 C2 13 2 13 1.015625 11.328125 C-0.50764155 7.19354438 -1.49659646 4.35373516 0 0 Z " fill="#E3E3E3" transform="translate(137,210)"/>
<path d="M0 0 C4.08649371 2.48743095 5.80682128 3.61364256 8 8 C4.7 6.35 1.4 4.7 -2 3 C-1.34 2.01 -0.68 1.02 0 0 Z " fill="#F1F1F1" transform="translate(183,185)"/>
<path d="M0 0 C1.32 0.33 2.64 0.66 4 1 C3.39009109 4.55780196 2.4216319 7.6828589 1 11 C0.67 11 0.34 11 0 11 C0 7.37 0 3.74 0 0 Z " fill="#F8F8F8" transform="translate(199,178)"/>
<path d="M0 0 C0.33 0.66 0.66 1.32 1 2 C1.99 2.33 2.98 2.66 4 3 C1.69 5.97 -0.62 8.94 -3 12 C-4 10 -4 10 -3.22265625 7.6171875 C-2.83980469 6.71226562 -2.45695313 5.80734375 -2.0625 4.875 C-1.68222656 3.96492187 -1.30195313 3.05484375 -0.91015625 2.1171875 C-0.60980469 1.41851562 -0.30945313 0.71984375 0 0 Z " fill="#CAE474" transform="translate(207,177)"/>
<path d="M0 0 C0.33 0 0.66 0 1 0 C1.25 6.625 1.25 6.625 -1 10 C-1.66 10 -2.32 10 -3 10 C-2.69201674 8.51988629 -2.378482 7.04092675 -2.0625 5.5625 C-1.88847656 4.73878906 -1.71445313 3.91507813 -1.53515625 3.06640625 C-1 1 -1 1 0 0 Z " fill="#545754" transform="translate(187,244)"/>
<path d="M0 0 C0.33 0 0.66 0 1 0 C0.67 3.3 0.34 6.6 0 10 C-0.99 10 -1.98 10 -3 10 C-2.69201674 8.51988629 -2.378482 7.04092675 -2.0625 5.5625 C-1.88847656 4.73878906 -1.71445313 3.91507812 -1.53515625 3.06640625 C-1 1 -1 1 0 0 Z " fill="#535453" transform="translate(179,279)"/>
<path d="M0 0 C0.66 0 1.32 0 2 0 C1.44894091 3.9492568 0.61064629 7.34920174 -1 11 C-1.99 10.01 -2.98 9.02 -4 8 C-2.68 5.36 -1.36 2.72 0 0 Z " fill="#E5E5E5" transform="translate(218,200)"/>
<path d="M0 0 C-0.33 0.99 -0.66 1.98 -1 3 C-3.97 3 -6.94 3 -10 3 C-7.28464405 0.28464405 -3.67870689 -1.83935344 0 0 Z " fill="#6089E8" transform="translate(221,193)"/>
<path d="M0 0 C-0.33 0.99 -0.66 1.98 -1 3 C-2.98 3.33 -4.96 3.66 -7 4 C-6.6875 2.0625 -6.6875 2.0625 -6 0 C-3 -1 -3 -1 0 0 Z " fill="#5B606C" transform="translate(231,187)"/>
<path d="M0 0 C-2.5654594 2.5654594 -4.47686668 2.54046087 -8 3 C-8.33 3.99 -8.66 4.98 -9 6 C-9 4.35 -9 2.7 -9 1 C-6.04335481 -0.4783226 -3.25770263 -0.06032783 0 0 Z " fill="#E0E0E0" transform="translate(176,53)"/>
<path d="M0 0 C0.66 0.33 1.32 0.66 2 1 C-2.455 3.97 -2.455 3.97 -7 7 C-7.33 6.01 -7.66 5.02 -8 4 C-6.71349294 3.30289269 -5.42059335 2.61757124 -4.125 1.9375 C-3.40570313 1.55464844 -2.68640625 1.17179688 -1.9453125 0.77734375 C-1.30335938 0.52082031 -0.66140625 0.26429688 0 0 Z " fill="#72D5BE" transform="translate(177,209)"/>
<path d="M0 0 C-2.62198774 2.15377564 -4.64404172 3.40072174 -8 4 C-8 3.34 -8 2.68 -8 2 C-8.99 1.67 -9.98 1.34 -11 1 C-7.27569643 0.30710631 -3.78916254 -0.11144596 0 0 Z " fill="#D2D2D2" transform="translate(185,202)"/>
<path d="M0 0 C0.99 0.33 1.98 0.66 3 1 C0.9859524 4.0210714 -0.63279613 5.60667426 -4 7 C-2.79618552 4.50638429 -1.54571278 2.31856917 0 0 Z " fill="#DFDFDF" transform="translate(207,188)"/>
<path d="M0 0 C1.65 1.65 3.3 3.3 5 5 C4.401875 4.79375 3.80375 4.5875 3.1875 4.375 C0.71549154 3.69328085 0.71549154 3.69328085 -2 6 C-2.99 5.34 -3.98 4.68 -5 4 C-4.360625 3.71125 -3.72125 3.4225 -3.0625 3.125 C-0.84793921 2.17176549 -0.84793921 2.17176549 0 0 Z " fill="#DADADA" transform="translate(182,182)"/>
<path d="M0 0 C0 2.64 0 5.28 0 8 C-0.99 7.67 -1.98 7.34 -3 7 C-3 5.02 -3 3.04 -3 1 C-1 0 -1 0 0 0 Z " fill="#62615E" transform="translate(55,170)"/>
<path d="M0 0 C0.33 1.32 0.66 2.64 1 4 C-0.98 4.99 -2.96 5.98 -5 7 C-5 6.01 -5 5.02 -5 4 C-4.360625 3.71125 -3.72125 3.4225 -3.0625 3.125 C-0.84793921 2.17176549 -0.84793921 2.17176549 0 0 Z " fill="#E5945B" transform="translate(191,175)"/>
</svg>
