<?xml version="1.0" encoding="UTF-8"?>
<svg version="1.1" xmlns="http://www.w3.org/2000/svg" width="512" height="512">
<path d="M0 0 C1.50346109 0.26720665 3.00702335 0.53384459 4.51068115 0.79994202 C7.64817208 1.35656645 10.78483712 1.91755512 13.92089844 2.48217773 C17.93694443 3.20523338 21.95422536 3.92110685 25.97204971 4.63420773 C29.81508884 5.31645922 33.65760261 6.00164468 37.5 6.6875 C38.59526379 6.88281468 38.59526379 6.88281468 39.71265411 7.08207512 C41.78040312 7.45149266 43.84777998 7.82292015 45.91503906 8.19506836 C47.09003967 8.40602646 48.26504028 8.61698456 49.47564697 8.83433533 C51.84169737 9.28715835 54.15814575 9.78951728 56.484375 10.41015625 C56.814375 12.06015625 57.144375 13.71015625 57.484375 15.41015625 C57.96028076 14.89469238 58.43618652 14.37922852 58.92651367 13.84814453 C62.786892 11.67790225 66.2302788 12.6766769 70.41015625 13.40234375 C71.77893669 13.61949539 71.77893669 13.61949539 73.17536926 13.84103394 C76.28239356 14.34232032 79.38322855 14.87374863 82.484375 15.41015625 C83.60954529 15.60146118 84.73471558 15.79276611 85.89398193 15.98986816 C93.23098586 17.24054147 100.55944912 18.53536675 107.88452148 19.85400391 C111.73135414 20.54585352 115.5794602 21.23028126 119.42773438 21.9140625 C121.87768165 22.35243174 124.32755443 22.79121762 126.77734375 23.23046875 C127.92607468 23.43463409 129.0748056 23.63879944 130.25834656 23.84915161 C131.83819084 24.13482498 131.83819084 24.13482498 133.44995117 24.42626953 C134.37700363 24.59264923 135.30405609 24.75902893 136.25920105 24.93045044 C138.484375 25.41015625 138.484375 25.41015625 140.484375 26.41015625 C141.109375 29.47265625 141.109375 29.47265625 141.484375 32.41015625 C142.061875 31.72953125 142.639375 31.04890625 143.234375 30.34765625 C151.22732989 25.58262545 164.52663059 30.31486683 173.296875 31.87890625 C174.68254256 32.12212966 176.06828635 32.36491912 177.45410156 32.6072998 C180.33212302 33.11176067 183.20951286 33.61962677 186.08642578 34.13037109 C189.76848159 34.78402745 193.45155869 35.43169013 197.13505554 36.07717133 C200.66851233 36.69659577 204.20146817 37.31885405 207.734375 37.94140625 C208.40312653 38.05902817 209.07187805 38.17665009 209.76089478 38.2978363 C211.65337172 38.631244 213.54544533 38.96693863 215.4375 39.30273438 C216.51161133 39.49291138 217.58572266 39.68308838 218.69238281 39.87902832 C220.98539396 40.31523379 223.22948538 40.81130725 225.484375 41.41015625 C225.814375 43.39015625 226.144375 45.37015625 226.484375 47.41015625 C227.061875 46.72953125 227.639375 46.04890625 228.234375 45.34765625 C236.49416524 40.42355053 250.12854422 45.43558165 259.27734375 47.09765625 C260.75988724 47.36324628 262.24249864 47.62845744 263.72517395 47.89331055 C266.80416298 48.44456048 269.88243325 48.99961241 272.96020508 49.55761719 C276.91124551 50.27372915 280.86377802 50.98118543 284.81684399 51.6860199 C287.86529918 52.2303271 290.91304065 52.77854382 293.96056557 53.32803345 C295.41927961 53.59067035 296.87819167 53.85220988 298.33730125 54.11264038 C300.36255954 54.47483754 302.38682242 54.84214549 304.41088867 55.2109375 C305.56272141 55.41887939 306.71455414 55.62682129 307.90129089 55.84106445 C310.484375 56.41015625 310.484375 56.41015625 311.484375 57.41015625 C311.60653855 58.74894811 311.66209775 60.09391766 311.68969727 61.43798828 C311.70961731 62.29987762 311.72953735 63.16176697 311.75006104 64.04977417 C311.76679871 64.99627838 311.78353638 65.94278259 311.80078125 66.91796875 C311.82178894 67.89919708 311.84279663 68.88042542 311.86444092 69.89138794 C311.93121561 73.10589146 311.98995596 76.32046386 312.046875 79.53515625 C312.07664932 81.16318176 312.07664932 81.16318176 312.10702515 82.82409668 C312.2063227 88.3041851 312.29897471 93.78433221 312.38476562 99.26464844 C312.4444389 103.06242631 312.51164357 106.85982668 312.59179688 110.65722656 C312.68326162 114.9914303 312.74349287 119.32531516 312.796875 123.66015625 C312.826604 124.91715332 312.85633301 126.17415039 312.88696289 127.46923828 C312.8946167 128.60989746 312.90227051 129.75055664 312.91015625 130.92578125 C312.93203003 132.38419434 312.93203003 132.38419434 312.9543457 133.87207031 C312.35165391 137.12691907 310.97505693 138.31851342 308.484375 140.41015625 C309.804375 140.74015625 311.124375 141.07015625 312.484375 141.41015625 C313.49024726 156.17930507 313.9577029 170.9423537 314.26171875 185.74121094 C314.32414746 188.7091656 314.40085903 191.67626195 314.48925781 194.64355469 C314.59703553 198.26678098 314.68013323 201.88978385 314.74551773 205.5140152 C314.77436742 206.88413676 314.81188471 208.25410535 314.85839462 209.62374115 C314.92130744 211.52684557 314.94948175 213.43100262 314.97607422 215.33496094 C315.00192596 216.41477234 315.02777771 217.49458374 315.05441284 218.6071167 C314.484375 221.41015625 314.484375 221.41015625 311.9536438 223.78985596 C311.1387851 224.32455505 310.32392639 224.85925415 309.484375 225.41015625 C310.804375 226.07015625 312.124375 226.73015625 313.484375 227.41015625 C314.28161078 245.37128469 314.65617497 263.34068589 314.77148438 281.31863403 C314.78842369 283.54792577 314.81235986 285.77717523 314.84326172 288.00631714 C314.88508356 291.16718514 314.9009158 294.32717171 314.91015625 297.48828125 C314.93635796 298.92540215 314.93635796 298.92540215 314.96308899 300.39155579 C314.94168763 306.93174366 314.94168763 306.93174366 312.45776367 309.53027344 C311.80654541 309.82063477 311.15532715 310.11099609 310.484375 310.41015625 C312.134375 311.07015625 313.784375 311.73015625 315.484375 312.41015625 C315.55799973 315.45050502 315.63078712 318.4908705 315.703125 321.53125 C315.7261821 322.48573029 315.7492392 323.44021057 315.772995 324.4236145 C315.89810152 329.71899854 316.00673254 335.01404064 316.0871582 340.31030273 C316.24070664 350.02796023 316.43993461 359.69458463 317.18359375 369.38671875 C318.53191103 389.04113354 318.53191103 389.04113354 314.92285156 394.97949219 C310.88714853 399.44229559 306.13472904 402.33617222 300.84472656 405.11181641 C297.31706998 407.05224646 294.28938664 409.50562688 291.171875 412.03515625 C290.18574219 412.79054688 289.19960938 413.5459375 288.18359375 414.32421875 C286.37415154 415.72254312 284.60125099 417.16937928 282.8671875 418.66015625 C279.51152634 421.12464183 276.44596825 420.9751596 272.484375 420.41015625 C269.80303231 419.79153264 267.14745722 419.10584126 264.484375 418.41015625 C264.67 419.6425 264.855625 420.87484375 265.046875 422.14453125 C266.37099445 434.7344986 266.37099445 434.7344986 263.15576172 439.29443359 C259.4603703 442.81853648 255.10857345 445.37882988 250.74316406 447.98779297 C247.02263459 450.33061665 243.68423191 453.11653447 240.296875 455.91015625 C238.54356079 457.32608995 236.78785652 458.73896815 235.03051758 460.14990234 C233.59788804 461.31763228 232.19585446 462.52262892 230.796875 463.73046875 C227.47990987 466.13975085 224.38457201 465.96640325 220.484375 465.41015625 C217.80303231 464.79153264 215.14745722 464.10584126 212.484375 463.41015625 C212.64679688 464.58191406 212.80921875 465.75367188 212.9765625 466.9609375 C214.13179306 478.81658592 214.13179306 478.81658592 211.40039062 483.11669922 C208.28215696 486.33604716 204.48254278 488.6206296 200.69335938 490.97070312 C196.54402718 493.6745562 192.73383438 496.8317322 188.859375 499.91015625 C187.34807345 501.08944622 185.83514994 502.26666171 184.3203125 503.44140625 C183.67626465 503.94220703 183.0322168 504.44300781 182.36865234 504.95898438 C181.74684082 505.43787109 181.1250293 505.91675781 180.484375 506.41015625 C179.62320068 507.24450195 179.62320068 507.24450195 178.74462891 508.09570312 C171.63306391 512.23144151 160.65201364 508.21129458 152.96875 506.8203125 C151.46528891 506.55310585 149.96172665 506.28646791 148.45806885 506.02037048 C145.32057792 505.46374605 142.18391288 504.90275738 139.04785156 504.33813477 C135.03180557 503.61507912 131.01452464 502.89920565 126.99670029 502.18610477 C123.15366116 501.50385328 119.31114739 500.81866782 115.46875 500.1328125 C114.37348621 499.93749782 114.37348621 499.93749782 113.25609589 499.73823738 C111.18834688 499.36881984 109.12097002 498.99739235 107.05371094 498.62524414 C105.87871033 498.41428604 104.70370972 498.20332794 103.49310303 497.98597717 C101.12705263 497.53315415 98.81060425 497.03079522 96.484375 496.41015625 C96.484375 494.43015625 96.484375 492.45015625 96.484375 490.41015625 C95.741875 491.09078125 94.999375 491.77140625 94.234375 492.47265625 C86.17325784 497.77747652 71.62696229 492.33288778 62.65625 490.6875 C61.17133284 490.41939545 59.68632535 490.15179076 58.20123291 489.88465881 C54.3338261 489.18764649 50.46766622 488.48394975 46.60174561 487.77874756 C42.64019026 487.05735984 38.67746696 486.34244735 34.71484375 485.62695312 C26.9702112 484.22760975 19.2268867 482.82118684 11.484375 481.41015625 C11.484375 479.10015625 11.484375 476.79015625 11.484375 474.41015625 C10.65808594 475.2815625 9.83179688 476.15296875 8.98046875 477.05078125 C4.45555463 480.24271369 0.50595098 479.37886751 -4.74223328 478.47465515 C-6.98346907 478.05631244 -9.21771776 477.60851644 -11.453125 477.16015625 C-13.02671283 476.8672309 -14.60086614 476.57732893 -16.17553711 476.2902832 C-19.52442141 475.67630327 -22.86983731 475.0466097 -26.21386719 474.40673828 C-31.69220023 473.3663113 -37.18359408 472.41020588 -42.6796875 471.46875 C-43.59381912 471.31179657 -44.50795074 471.15484314 -45.44978333 470.99313354 C-47.2663969 470.6812912 -49.08303177 470.36957291 -50.89968872 470.0579834 C-55.18056012 469.32225512 -59.4600683 468.57915229 -63.73828125 467.828125 C-64.48353058 467.69917343 -65.22877991 467.57022186 -65.99661255 467.43736267 C-68.92867004 466.92045119 -71.68597318 466.35337352 -74.515625 465.41015625 C-74.515625 463.76015625 -74.515625 462.11015625 -74.515625 460.41015625 C-75.07754547 460.90813721 -75.63946594 461.40611816 -76.21841431 461.91918945 C-78.98300108 463.713499 -80.04576863 463.66683862 -83.27099609 463.265625 C-84.2452655 463.14622559 -85.21953491 463.02682617 -86.22332764 462.90380859 C-92.64386933 461.94110228 -99.03868053 460.86163193 -105.4296875 459.72265625 C-106.9360972 459.45715516 -108.44255771 459.19194216 -109.94906616 458.92700195 C-113.08099068 458.37515973 -116.21232681 457.82012395 -119.34326172 457.26269531 C-123.36285182 456.54728542 -127.38376637 455.83965444 -131.40513039 455.1342926 C-134.50417787 454.58991241 -137.6025377 454.04170051 -140.70069504 453.49227905 C-142.18452141 453.22958112 -143.6685534 452.96804191 -145.15279007 452.70767212 C-147.21406196 452.34544714 -149.27436063 451.97813113 -151.33447266 451.609375 C-152.50708649 451.40143311 -153.67970032 451.19349121 -154.8878479 450.97924805 C-157.515625 450.41015625 -157.515625 450.41015625 -158.515625 449.41015625 C-158.63778855 448.07136439 -158.69334775 446.72639484 -158.72094727 445.38232422 C-158.74086731 444.52043488 -158.76078735 443.65854553 -158.78131104 442.77053833 C-158.79804871 441.82403412 -158.81478638 440.87752991 -158.83203125 439.90234375 C-158.86354279 438.43050125 -158.86354279 438.43050125 -158.89569092 436.92892456 C-158.96246561 433.71442104 -159.02120596 430.49984864 -159.078125 427.28515625 C-159.09797455 426.19980591 -159.1178241 425.11445557 -159.13827515 423.99621582 C-159.2375727 418.5161274 -159.33022471 413.03598029 -159.41601562 407.55566406 C-159.4756889 403.75788619 -159.54289357 399.96048582 -159.62304688 396.16308594 C-159.71451162 391.8288822 -159.77474287 387.49499734 -159.828125 383.16015625 C-159.857854 381.90315918 -159.88758301 380.64616211 -159.91821289 379.35107422 C-159.9258667 378.21041504 -159.93352051 377.06975586 -159.94140625 375.89453125 C-159.95598877 374.92225586 -159.97057129 373.94998047 -159.9855957 372.94824219 C-159.38290391 369.69339343 -158.00630693 368.50179908 -155.515625 366.41015625 C-156.835625 366.08015625 -158.155625 365.75015625 -159.515625 365.41015625 C-160.52149726 350.64100743 -160.9889529 335.8779588 -161.29296875 321.07910156 C-161.35539746 318.1111469 -161.43210903 315.14405055 -161.52050781 312.17675781 C-161.62828553 308.55353152 -161.71138323 304.93052865 -161.77676773 301.3062973 C-161.80561742 299.93617574 -161.84313471 298.56620715 -161.88964462 297.19657135 C-161.95255744 295.29346693 -161.98073175 293.38930988 -162.00732422 291.48535156 C-162.03317596 290.40554016 -162.05902771 289.32572876 -162.08566284 288.2131958 C-161.515625 285.41015625 -161.515625 285.41015625 -158.9848938 283.03045654 C-157.76260574 282.2284079 -157.76260574 282.2284079 -156.515625 281.41015625 C-157.835625 280.75015625 -159.155625 280.09015625 -160.515625 279.41015625 C-161.31286078 261.44902781 -161.68742497 243.47962661 -161.80273438 225.50167847 C-161.81967369 223.27238673 -161.84360986 221.04313727 -161.87451172 218.81399536 C-161.91633356 215.65312736 -161.9321658 212.49314079 -161.94140625 209.33203125 C-161.95887405 208.37395065 -161.97634186 207.41587006 -161.99433899 206.42875671 C-161.97293763 199.88856884 -161.97293763 199.88856884 -159.48901367 197.29003906 C-158.83779541 196.99967773 -158.18657715 196.70931641 -157.515625 196.41015625 C-159.165625 195.75015625 -160.815625 195.09015625 -162.515625 194.41015625 C-162.58924973 191.36980748 -162.66203712 188.329442 -162.734375 185.2890625 C-162.7574321 184.33458221 -162.7804892 183.38010193 -162.804245 182.396698 C-162.92935152 177.10131396 -163.03798254 171.80627186 -163.1184082 166.51000977 C-163.27195664 156.79235227 -163.47118461 147.12572787 -164.21484375 137.43359375 C-165.56316103 117.77917896 -165.56316103 117.77917896 -161.95410156 111.84082031 C-157.91839853 107.37801691 -153.16597904 104.48414028 -147.87597656 101.70849609 C-144.34831998 99.76806604 -141.32063664 97.31468562 -138.203125 94.78515625 C-137.21699219 94.02976562 -136.23085937 93.274375 -135.21484375 92.49609375 C-133.40540154 91.09776938 -131.63250099 89.65093322 -129.8984375 88.16015625 C-126.54277634 85.69567067 -123.47721825 85.8451529 -119.515625 86.41015625 C-116.83428231 87.02877986 -114.17870722 87.71447124 -111.515625 88.41015625 C-111.68964844 87.25 -111.86367187 86.08984375 -112.04296875 84.89453125 C-113.28212978 73.02507516 -113.28212978 73.02507516 -110.25292969 68.54101562 C-106.79422077 65.02601669 -102.71680846 62.37756622 -98.56835938 59.74511719 C-96.00182703 58.07601647 -93.61650911 56.2301588 -91.2175293 54.33129883 C-89.61802276 53.06670014 -87.99476629 51.84010687 -86.36328125 50.6171875 C-83.57072616 48.52259786 -83.57072616 48.52259786 -81.38671875 46.421875 C-78.27888572 43.59952141 -76.52893302 42.46342453 -72.24609375 42.23828125 C-67.81089546 42.53167915 -63.73895239 43.00238045 -59.515625 44.41015625 C-59.67804688 43.16621094 -59.84046875 41.92226563 -60.0078125 40.640625 C-61.16458197 27.98487983 -61.16458197 27.98487983 -58.35107422 23.59179688 C-55.17210426 20.31630579 -51.35711337 17.97019275 -47.46582031 15.62646484 C-44.36887957 13.69494772 -41.56068028 11.42391718 -38.703125 9.16015625 C-37.63126575 8.34366209 -36.55837733 7.52851689 -35.484375 6.71484375 C-33.6158521 5.26427992 -31.77686477 3.7740016 -29.984375 2.23046875 C-29.2315625 1.58851563 -28.47875 0.9465625 -27.703125 0.28515625 C-27.07792969 -0.27429688 -26.45273438 -0.83375 -25.80859375 -1.41015625 C-18.44568632 -5.19822787 -7.7825155 -1.40895069 0 0 Z " fill="#7486C8" transform="translate(179.515625,2.58984375)"/>
<path d="M0 0 C9.74488746 1.67399576 19.48918344 3.35138842 29.23273277 5.03315639 C33.75675576 5.81390658 38.28097634 6.59347195 42.80566406 7.37036133 C47.16978808 8.11972626 51.53337234 8.87216188 55.896595 9.62675667 C57.56381894 9.91453223 59.23123642 10.20118868 60.89884567 10.48672295 C63.22914274 10.88591922 65.55872846 11.28903933 67.88818359 11.69311523 C68.58229843 11.81107956 69.27641327 11.92904388 69.99156189 12.05058289 C74.77189568 12.88594784 74.77189568 12.88594784 77 14 C77 23.9 77 33.8 77 44 C77.33 44 77.66 44 78 44 C78.33 59.84 78.66 75.68 79 92 C66.62436997 90.87494272 66.62436997 90.87494272 61.76928711 90.00024414 C60.13720558 89.70972923 60.13720558 89.70972923 58.47215271 89.41334534 C57.33536575 89.20604294 56.1985788 88.99874054 55.02734375 88.78515625 C53.82364639 88.5693541 52.61994904 88.35355194 51.379776 88.13121033 C47.5648779 87.44603383 43.75120995 86.75425556 39.9375 86.0625 C37.37442254 85.60180396 34.81127209 85.14151386 32.24804688 84.68164062 C18.22201863 82.15806217 18.22201863 82.15806217 12 81 C10.52238693 80.72505203 10.52238693 80.72505203 9.0149231 80.44454956 C8.1058017 80.2700528 7.1966803 80.09555603 6.26000977 79.91577148 C5.0590139 79.68651222 5.0590139 79.68651222 3.83375549 79.45262146 C2 79 2 79 1 78 C0.83797377 75.48868975 0.73958082 73.00273995 0.68359375 70.48828125 C0.6524221 69.29382637 0.6524221 69.29382637 0.62062073 68.07524109 C0.57712217 66.35759279 0.53611136 64.63988007 0.49731445 62.92211914 C0.44067674 60.45109657 0.37448058 57.98050188 0.30664062 55.50976562 C-0.16108237 37.01060828 -0.04098818 18.50350719 0 0 Z " fill="#6689C0" transform="translate(103,304)"/>
<path d="M0 0 C13.88913382 1.45833161 27.59620408 3.92791888 41.34033203 6.3684082 C44.62796389 6.95206859 47.9161784 7.53215481 51.2048378 8.10997868 C54.37124602 8.66660264 57.53718753 9.22586186 60.703125 9.78515625 C62.46707611 10.09610985 62.46707611 10.09610985 64.2666626 10.41334534 C65.35590027 10.60702194 66.44513794 10.80069855 67.56738281 11.00024414 C68.52283997 11.16964005 69.47829712 11.33903595 70.46270752 11.51356506 C75.27003267 12.43519744 75.27003267 12.43519744 77 13 C79.08994153 17.17988306 78.41592428 22.59278759 78.5625 27.1875 C78.6049585 28.46641113 78.64741699 29.74532227 78.69116211 31.06298828 C79.3038334 51.36556934 79.08396418 71.69100239 79 92 C75.87415123 91.52626501 72.74949284 91.04509049 69.625 90.5625 C68.29082031 90.36043945 68.29082031 90.36043945 66.9296875 90.15429688 C65.65351563 89.95610352 65.65351563 89.95610352 64.3515625 89.75390625 C63.56604004 89.63345947 62.78051758 89.5130127 61.97119141 89.38891602 C60 89 60 89 58 88 C58 87.34 58 86.68 58 86 C57.4234668 85.96334229 56.84693359 85.92668457 56.25292969 85.88891602 C45.98066935 85.10285296 35.87783767 83.23690962 25.73193359 81.50854492 C23.28561089 81.09334336 20.83820647 80.68504904 18.390625 80.27734375 C17.65193176 80.14923813 16.91323853 80.02113251 16.15216064 79.8891449 C11.71301393 79.15280783 7.51290269 78.97425136 3 79 C1.43240255 77.43240255 1.79146946 75.8352257 1.70336914 73.65429688 C1.66432968 72.72178101 1.62529022 71.78926514 1.58506775 70.82849121 C1.54797195 69.80227661 1.51087616 68.77606201 1.47265625 67.71875 C1.43133072 66.65096313 1.39000519 65.58317627 1.34742737 64.48303223 C0.86997318 51.49252679 0.65236219 38.49696987 0.4375 25.5 C0.39414482 23.00780788 0.35052627 20.51562033 0.30664062 18.0234375 C0.20140634 12.01567399 0.0993641 6.00786333 0 0 Z " fill="#668AC0" transform="translate(100,134)"/>
<path d="M0 0 C4.73391096 -0.10578991 9.05720689 0.22393676 13.70703125 1.1015625 C15.00060547 1.34173096 16.29417969 1.58189941 17.62695312 1.8293457 C19.02215158 2.09447874 20.41733348 2.35969894 21.8125 2.625 C24.75603772 3.17572237 27.70032083 3.72241835 30.64453125 4.26953125 C31.40251007 4.41104111 32.16048889 4.55255096 32.94143677 4.698349 C38.52093776 5.73672503 44.10743592 6.72930972 49.69921875 7.69921875 C50.87494194 7.90363586 50.87494194 7.90363586 52.07441711 8.11218262 C55.14116686 8.64487373 58.20800888 9.17689272 61.27603149 9.70220947 C63.39296403 10.06497247 65.50903116 10.43244564 67.625 10.80078125 C68.83414063 11.00872314 70.04328125 11.21666504 71.2890625 11.4309082 C74 12 74 12 75 13 C75.12232986 14.39598088 75.17774894 15.79791539 75.20532227 17.19897461 C75.23523254 18.54570755 75.23523254 18.54570755 75.26574707 19.91964722 C75.2824646 20.90393707 75.29918213 21.88822693 75.31640625 22.90234375 C75.34764587 24.42832687 75.34764587 24.42832687 75.3795166 25.98513794 C75.44569836 29.30251457 75.50438556 32.61997299 75.5625 35.9375 C75.60525673 38.19002527 75.64814392 40.44254807 75.69116211 42.69506836 C75.97016066 57.79943698 76.1071856 72.89329055 76 88 C61.04665244 85.97089667 46.17490069 83.57318054 31.30883789 80.98339844 C27.75161648 80.36440565 24.19325623 79.75227471 20.63476562 79.140625 C18.36711777 78.74779814 16.09953693 78.35458419 13.83203125 77.9609375 C12.24017754 77.68750015 12.24017754 77.68750015 10.61616516 77.40853882 C9.64301865 77.23811066 8.66987213 77.0676825 7.66723633 76.89208984 C6.38324699 76.66916763 6.38324699 76.66916763 5.07331848 76.44174194 C3 76 3 76 1 75 C0.23704272 49.99285776 -0.14782477 25.01877364 0 0 Z " fill="#D5BE7C" transform="translate(190,322)"/>
<path d="M0 0 C15.92829472 2.37512632 31.77298186 5.17452295 47.61404419 8.06887817 C49.87721164 8.48236401 52.14062103 8.89452776 54.40426636 9.3053894 C57.62448396 9.89069402 60.84363303 10.48153677 64.0625 11.07421875 C65.04996719 11.25325745 66.03743439 11.43229614 67.05482483 11.61676025 C68.40633888 11.86773468 68.40633888 11.86773468 69.78515625 12.1237793 C70.57801025 12.2693779 71.37086426 12.4149765 72.18774414 12.56498718 C74 13 74 13 75 14 C75.12256589 15.46791836 75.17778662 16.94153765 75.20532227 18.41430664 C75.2352401 19.82958397 75.2352401 19.82958397 75.26576233 21.27345276 C75.28247482 22.30856491 75.29918732 23.34367706 75.31640625 24.41015625 C75.33718735 25.48381943 75.35796844 26.5574826 75.37937927 27.66368103 C75.4227917 29.95795509 75.46381443 32.25227537 75.50268555 34.54663086 C75.56089331 37.96805926 75.6264026 41.38927984 75.69335938 44.81054688 C75.96957689 59.54147977 76.05760688 74.26669296 76 89 C69.09811207 88.31096999 62.31914511 87.25670377 55.4921875 86.0390625 C53.86665451 85.75221085 53.86665451 85.75221085 52.20828247 85.45956421 C49.92376975 85.05578691 47.63950204 84.65062113 45.35546875 84.24414062 C41.90685068 83.63066592 38.45740988 83.02200354 35.0078125 82.4140625 C23.6444584 80.40470768 12.29809113 78.35173361 1 76 C0.27496311 50.66034652 -0.15700494 25.35025921 0 0 Z " fill="#FDD55D" transform="translate(22,375)"/>
<path d="M0 0 C7.93469939 0.76447808 15.74155826 2.09213516 23.58984375 3.46875 C24.98463875 3.71169811 26.3794604 3.95449332 27.77430725 4.19714355 C30.67839159 4.70301268 33.58211405 5.21089834 36.4855957 5.72021484 C40.20952551 6.37325389 43.93437243 7.02088726 47.6595068 7.66701508 C50.53114517 8.16575729 53.4022601 8.66746053 56.27322578 9.1700592 C57.64741032 9.41023074 59.0217629 9.64944282 60.3962841 9.88768005 C62.30890826 10.21960989 64.22075943 10.55598462 66.13256836 10.89257812 C67.22016953 11.08275513 68.30777069 11.27293213 69.42832947 11.46887207 C72 12 72 12 74 13 C75.04638787 29.25617228 75.11880235 45.46481097 75.0625 61.75 C75.05747043 64.30859287 75.05291012 66.8671867 75.04882812 69.42578125 C75.03794846 75.61720905 75.02132798 81.80859982 75 88 C68.78123789 87.49110604 62.65304979 86.8795906 56.5078125 85.765625 C55.84646301 85.64726288 55.18511353 85.52890076 54.50372314 85.4069519 C52.37670581 85.02547631 50.2508855 84.63772807 48.125 84.25 C45.88123535 83.84624233 43.6371716 83.44417534 41.39309692 83.04214478 C39.8686466 82.76890366 38.34429364 82.49511886 36.82003784 82.22079468 C29.01167375 80.81667503 21.19424078 79.46701318 13.375 78.125 C12.12477051 77.91004883 10.87454102 77.69509766 9.58642578 77.47363281 C6.72439159 76.98179055 3.86225745 76.49054102 1 76 C-0.00464938 59.38760721 -0.12022497 42.82645064 -0.0625 26.1875 C-0.0574695 23.63346443 -0.05290936 21.07942789 -0.04882812 18.52539062 C-0.03795795 12.35023874 -0.02134544 6.17512412 0 0 Z " fill="#FED55D" transform="translate(20,205)"/>
<path d="M0 0 C6.16663811 0.72392727 12.27355332 1.66870123 18.39453125 2.70703125 C19.38136398 2.87369797 20.36819672 3.04036469 21.38493347 3.21208191 C23.47024036 3.56501761 25.55538685 3.91890222 27.64038086 4.27368164 C30.76415128 4.80428745 33.88886552 5.32905014 37.01367188 5.85351562 C49.41033221 7.95017507 61.72112766 10.29685264 74 13 C74.87039063 30.01057168 75.1273158 46.96934399 75.0625 64 C75.0574649 66.34765527 75.05290562 68.69531162 75.04882812 71.04296875 C75.03800481 76.69533656 75.02143246 82.34766295 75 88 C65.94190781 86.45446657 56.88409936 84.90728373 47.82664871 83.35799503 C43.62089869 82.63864937 39.4150532 81.91987202 35.20898438 81.20239258 C31.14984294 80.50995479 27.0909591 79.81602534 23.03224945 79.12106133 C21.4838036 78.85619412 19.93526571 78.59186434 18.38663483 78.32808113 C16.21747134 77.95850613 14.04864303 77.58702101 11.87988281 77.21508789 C10.64522278 77.00412979 9.41056274 76.79317169 8.13848877 76.57582092 C5.72223305 76.13250865 3.36957456 75.64001911 1 75 C0.10959298 49.99282414 -0.12741258 25.02186996 0 0 Z " fill="#FED55D" transform="translate(277,422)"/>
<path d="M0 0 C7.58189383 1.24807257 15.1631706 2.49983762 22.74371529 3.75607777 C26.26521794 4.33954367 29.78690727 4.92182471 33.30908203 5.5012207 C36.72014564 6.06238681 40.13064174 6.62689643 43.54079819 7.1935482 C45.44879636 7.50975081 47.35734036 7.82265437 49.26589966 8.13545227 C57.57188738 9.51943508 65.78154293 11.16816931 74 13 C74.87039063 30.01057168 75.1273158 46.96934399 75.0625 64 C75.0574649 66.34765527 75.05290562 68.69531162 75.04882812 71.04296875 C75.03800481 76.69533656 75.02143246 82.34766295 75 88 C61.26775778 86.12577643 47.62870547 83.95259358 34 81.4375 C30.68793107 80.82965386 27.37537204 80.22454647 24.0625 79.62109375 C23.28003906 79.47787689 22.49757813 79.33466003 21.69140625 79.18710327 C15.90101171 78.13675085 10.10217845 77.228697 4.2734375 76.41430664 C2 76 2 76 1 75 C0.87779763 73.63999336 0.82227149 72.27389837 0.79467773 70.90869141 C0.77473251 70.03491852 0.75478729 69.16114563 0.73423767 68.26089478 C0.70916893 66.8207753 0.70916893 66.8207753 0.68359375 65.3515625 C0.66281265 64.35160248 0.64203156 63.35164246 0.62062073 62.32138062 C0.57719284 60.18093378 0.53617221 58.04043702 0.49731445 55.89990234 C0.43939402 52.72869938 0.37375348 49.55773881 0.30664062 46.38671875 C-0.00467946 30.92373477 -0.05182504 15.46573082 0 0 Z " fill="#FED55D" transform="translate(18,120)"/>
<path d="M0 0 C15.44660065 1.69256025 30.69798907 4.45005657 46 7.125 C59.86 9.538125 59.86 9.538125 74 12 C74.33 36.75 74.66 61.5 75 87 C61.5 85.875 61.5 85.875 55.94628906 84.87670898 C54.70590881 84.65655624 53.46552856 84.4364035 52.18756104 84.20957947 C50.89332214 83.97412918 49.59908325 83.73867889 48.265625 83.49609375 C46.8928069 83.25041722 45.51990063 83.00523291 44.14691162 82.76051331 C40.57544502 82.12260468 37.00519634 81.47812556 33.43518066 80.83215332 C29.77522343 80.17114881 26.1141251 79.51652735 22.453125 78.86132812 C15.30096746 77.58037576 8.15008752 76.29246265 1 75 C-0.0938207 66.60119958 -0.1301674 58.26196446 -0.09765625 49.8046875 C-0.09578696 48.36166432 -0.09436548 46.9186405 -0.09336853 45.47561646 C-0.08958356 41.71100048 -0.07978849 37.94642421 -0.06866455 34.18182373 C-0.05836313 30.32695045 -0.05385236 26.47207063 -0.04882812 22.6171875 C-0.03816187 15.07810707 -0.02113486 7.53905913 0 0 Z " fill="#FED55D" transform="translate(21,291)"/>
<path d="M0 0 C7.0880262 0.71028141 14.06676944 1.78910782 21.0859375 2.99609375 C22.22350494 3.18969986 23.36107239 3.38330597 24.53311157 3.58277893 C28.14749029 4.19860959 31.76123601 4.81807344 35.375 5.4375 C37.79423283 5.84983241 40.21350333 6.26194385 42.6328125 6.67382812 C44.97138794 7.07271869 47.3099307 7.47180095 49.6484375 7.87109375 C50.72274017 8.05449814 51.79704285 8.23790253 52.90390015 8.42686462 C55.93671108 8.94685589 58.9684377 9.47278394 62 10 C63.04891418 10.17886749 64.09782837 10.35773499 65.17852783 10.54202271 C66.67884552 10.803647 66.67884552 10.803647 68.20947266 11.07055664 C69.10735504 11.22537003 70.00523743 11.38018341 70.93032837 11.53968811 C73 12 73 12 74 13 C74.23887929 15.41081301 74.40552581 17.79293331 74.52734375 20.2109375 C74.56866928 20.99536224 74.60999481 21.77978699 74.65257263 22.58798218 C75.26307423 35.25658371 75.36872286 47.94485701 75.5625 60.625 C75.60540211 63.28907469 75.64941582 65.95312961 75.69335938 68.6171875 C75.7992473 75.07807012 75.90121113 81.53900513 76 88 C66.72120562 86.72328698 57.49381579 85.27751352 48.26953125 83.65234375 C47.03128098 83.43558487 45.7930307 83.21882599 44.51725769 82.99549866 C41.27471793 82.42711312 38.03256277 81.85659252 34.79052734 81.28533936 C32.13295876 80.81800156 29.47480593 80.35403434 26.81665516 79.89002132 C23.63389122 79.33384467 20.45173898 78.7741926 17.26953125 78.21484375 C16.08212845 78.00754135 14.89472565 77.80023895 13.67134094 77.58665466 C12.02768806 77.29613976 12.02768806 77.29613976 10.35083008 76.99975586 C9.3871199 76.83035995 8.42340973 76.66096405 7.43049622 76.48643494 C5 76 5 76 2 75 C1.29495663 62.78761077 0.78330625 50.58509893 0.49731445 38.35571289 C0.43727181 35.80279773 0.37223402 33.25004359 0.30664062 30.69726562 C0.05256432 20.46230486 -0.05617046 10.23818156 0 0 Z " fill="#D6BE7B" transform="translate(275,337)"/>
<path d="M0 0 C8.4130122 0.66211876 16.66951283 2.05280714 24.9765625 3.50390625 C26.39711288 3.74940691 27.81771732 3.99459499 29.2383728 4.23948669 C32.94432967 4.87916836 36.64954572 5.52304249 40.35461426 6.16784668 C44.1487245 6.82736377 47.94353287 7.48283838 51.73828125 8.13867188 C59.1595362 9.42186624 66.58001182 10.70949851 74 12 C74.65523627 30.50560741 75.15078399 48.98035153 75.0625 67.5 C75.05745016 69.42578002 75.0528937 71.3515614 75.04882812 73.27734375 C75.03815446 77.85159818 75.02110478 82.42578232 75 87 C66.27437944 86.39456551 57.74857248 85.02996745 49.14453125 83.49609375 C47.74784647 83.25050659 46.35109115 83.00532031 44.95426941 82.76051331 C41.31556382 82.12170408 37.67782875 81.47753078 34.0402832 80.83215332 C30.31324461 80.17190588 26.58529403 79.51684965 22.85742188 78.86132812 C15.57072319 77.57923637 8.28504405 76.29146426 1 75 C0.38998216 49.99738062 -0.19223943 25.01144572 0 0 Z " fill="#D5BE7C" transform="translate(273,167)"/>
<path d="M0 0 C14.13814065 1.51627985 28.07470053 4.04364699 42.0625 6.5625 C45.52057846 7.18191856 48.97886373 7.80015467 52.43736267 8.41722107 C54.57238289 8.79849132 56.70713441 9.18127039 58.84156799 9.56581116 C59.81045456 9.73946701 60.77934113 9.91312286 61.77758789 10.09204102 C62.61979385 10.24367203 63.46199982 10.39530304 64.32972717 10.55152893 C67.54409236 11.09138006 70.77337465 11.53905352 74 12 C74.33 36.75 74.66 61.5 75 87 C61.5 85.875 61.5 85.875 55.94628906 84.87670898 C54.70590881 84.65655624 53.46552856 84.4364035 52.18756104 84.20957947 C50.89332214 83.97412918 49.59908325 83.73867889 48.265625 83.49609375 C46.8928069 83.25041722 45.51990063 83.00523291 44.14691162 82.76051331 C40.57544502 82.12260468 37.00519634 81.47812556 33.43518066 80.83215332 C29.77522343 80.17114881 26.1141251 79.51652735 22.453125 78.86132812 C15.30096746 77.58037576 8.15008752 76.29246265 1 75 C0.25671461 57.24058767 -0.13772998 39.52414782 -0.0625 21.75 C-0.05745827 19.61328234 -0.05290024 17.47656348 -0.04882812 15.33984375 C-0.03807226 10.22653153 -0.02096664 5.11328011 0 0 Z " fill="#D5BE7C" transform="translate(275,252)"/>
<path d="M0 0 C9.27879438 1.27671302 18.50618421 2.72248648 27.73046875 4.34765625 C28.96871902 4.56441513 30.2069693 4.78117401 31.48274231 5.00450134 C34.72528207 5.57288688 37.96743723 6.14340748 41.20947266 6.71466064 C43.86704124 7.18199844 46.52519407 7.64596566 49.18334484 8.10997868 C52.36610878 8.66615533 55.54826102 9.2258074 58.73046875 9.78515625 C60.51157295 10.09610985 60.51157295 10.09610985 62.32865906 10.41334534 C63.42442764 10.60702194 64.52019623 10.80069855 65.64916992 11.00024414 C67.09473518 11.254338 67.09473518 11.254338 68.56950378 11.51356506 C71 12 71 12 74 13 C74.61000252 38.00199155 75.20542237 62.98903667 75 88 C50.27103325 84.00577259 25.635671 79.52908766 1 75 C0.31103602 49.99390574 -0.15793354 25.01606264 0 0 Z " fill="#D5BE7B" transform="translate(104,221)"/>
<path d="M0 0 C6.43699583 0.55627645 12.73034535 1.39093622 19.0703125 2.62890625 C20.28096878 2.8598423 20.28096878 2.8598423 21.51608276 3.09544373 C24.05319445 3.58036615 26.58909449 4.07131327 29.125 4.5625 C30.86190208 4.89558453 32.59888069 5.2282702 34.3359375 5.56054688 C38.5581886 6.36909971 42.77936563 7.18305169 47 8 C48.27753329 23.24888816 48.32145254 38.54790935 48.53222656 53.83947754 C48.5831504 57.47375586 48.63846006 61.10796744 48.69335938 64.7421875 C48.79977443 71.82806679 48.9014604 78.91400644 49 86 C39.99646835 85.43711248 31.24314043 84.13542914 22.37109375 82.53125 C21.00545007 82.28803691 19.63973092 82.04524721 18.27394104 81.80285645 C15.43876739 81.29853428 12.6042683 80.79063492 9.77026367 80.27978516 C6.13980415 79.62545517 2.50815336 78.97804554 -1.12396336 78.33298492 C-3.93210161 77.83388867 -6.73979847 77.33234782 -9.54734612 76.8299408 C-10.88729061 76.59023738 -12.2273232 76.35102586 -13.56744576 76.11231995 C-15.431528 75.77967155 -17.29500308 75.44362615 -19.15844727 75.10742188 C-20.21701431 74.91724487 -21.27558136 74.72706787 -22.3662262 74.53112793 C-25 74 -25 74 -28 73 C-29.71747442 68.36281906 -29.71747442 68.36281906 -29 65 C-26.04629504 61.62272358 -22.55884338 59.04178344 -18.94726562 56.41650391 C-16.83526555 54.88016684 -14.75275606 53.30867025 -12.671875 51.73046875 C-9.85112633 49.59503286 -7.01986271 47.47534499 -4.17578125 45.37109375 C-2.00364035 43.78290129 -2.00364035 43.78290129 0 42 C0.08874135 38.89748799 0.11518455 35.8173188 0.09765625 32.71484375 C0.09553383 31.31861534 0.09553383 31.31861534 0.09336853 29.8941803 C0.08775172 26.90858809 0.0751964 23.92306971 0.0625 20.9375 C0.05748716 18.91862087 0.05292388 16.89974057 0.04882812 14.88085938 C0.03777683 9.92054428 0.02050095 4.96028468 0 0 Z " fill="#6689C0" transform="translate(216,155)"/>
<path d="M0 0 C19.44424883 2.28755869 19.44424883 2.28755869 28.0625 4.0625 C29.78205353 4.4100281 31.50210136 4.75512015 33.22265625 5.09765625 C33.95234619 5.24726807 34.68203613 5.39687988 35.43383789 5.55102539 C38.94277813 6.16494805 42.46307041 6.57610968 46 7 C47.20994726 60.49688418 47.20994726 60.49688418 47 83 C29.74563584 80.32337591 12.5436599 77.43208136 -4.625 74.25 C-5.45759338 74.09570526 -6.29018677 73.94141052 -7.14801025 73.78244019 C-21.32567107 71.15051721 -21.32567107 71.15051721 -27 70 C-27.74371381 66.65328784 -27.99578805 65.21154679 -27 62 C-23.92795746 58.6624723 -20.41895486 56.00135534 -16.78027344 53.32177734 C-14.9633575 51.9727945 -13.18667444 50.58236285 -11.4140625 49.17578125 C-2.54999659 42.1833322 -2.54999659 42.1833322 1 41 C0.67 27.47 0.34 13.94 0 0 Z " fill="#628BBD" transform="translate(220,412)"/>
<path d="M0 0 C6.16663811 0.72392727 12.27355332 1.66870123 18.39453125 2.70703125 C19.38136398 2.87369797 20.36819672 3.04036469 21.38493347 3.21208191 C23.47024036 3.56501761 25.55538685 3.91890222 27.64038086 4.27368164 C30.76415128 4.80428745 33.88886552 5.32905014 37.01367188 5.85351562 C49.41496292 7.95095827 61.70958924 10.32555854 74 13 C74 20.59 74 28.18 74 36 C66.5032668 35.4769721 59.32728767 34.66971378 52 33 C51.34 31.02 50.68 29.04 50 27 C49.21625 27.680625 48.4325 28.36125 47.625 29.0625 C43.27538991 32.00366492 38.91307323 30.94856364 34 30 C32.66327362 29.68054505 31.32852013 29.35202722 30 29 C30.16242188 30.09957031 30.32484375 31.19914062 30.4921875 32.33203125 C31.6489084 43.5594773 31.6489084 43.5594773 28.83544922 47.72363281 C25.62857974 50.94620684 21.83002004 53.36119093 17.98535156 55.75585938 C14.78308961 57.7625892 11.73470053 59.95518334 8.6875 62.1875 C7.61886719 62.92355469 6.55023438 63.65960938 5.44921875 64.41796875 C2.09242695 67.95678754 2.18734115 70.20507923 2 75 C1.67 75 1.34 75 1 75 C0.10959298 49.99282414 -0.12741258 25.02186996 0 0 Z " fill="#DCC277" transform="translate(277,422)"/>
<path d="M0 0 C10.2924282 1.14360313 10.2924282 1.14360313 15.4375 2 C16.44683594 2.165 17.45617187 2.33 18.49609375 2.5 C21 3 21 3 23 4 C24.04638787 20.25617228 24.11880235 36.46481097 24.0625 52.75 C24.05747043 55.30859287 24.05291012 57.8671867 24.04882812 60.42578125 C24.03794846 66.61720905 24.02132798 72.80859982 24 79 C17.71562519 78.48788465 11.53624819 77.85817133 5.33203125 76.73046875 C4.65701065 76.60937241 3.98199005 76.48827606 3.28651428 76.36351013 C1.85916325 76.10700989 0.43217788 75.84846696 -0.9944458 75.58795166 C-4.73551528 74.90483243 -8.47927924 74.23674292 -12.22265625 73.56640625 C-12.96690857 73.43268616 -13.71116089 73.29896606 -14.47796631 73.16119385 C-21.35145695 71.92899836 -28.23539992 70.76364113 -35.125 69.625 C-36.13715576 69.45766357 -37.14931152 69.29032715 -38.19213867 69.11791992 C-40.461198 68.7438682 -42.73044695 68.37104228 -45 68 C-40.78769421 64.60998595 -36.53865228 61.27047573 -32.21850586 58.01855469 C-29.3679296 55.86607066 -26.61350716 53.68858826 -23.9765625 51.27734375 C-16.799539 45.05276707 -16.799539 45.05276707 -11.13671875 44.88671875 C-7.66018438 45.37937337 -4.37403417 46.03670326 -1 47 C-1.05800781 45.81921875 -1.11601563 44.6384375 -1.17578125 43.421875 C-1.22268643 41.86462289 -1.26818579 40.30732799 -1.3125 38.75 C-1.35439453 37.97269531 -1.39628906 37.19539063 -1.43945312 36.39453125 C-1.48727455 34.15648863 -1.46976923 32.19040326 -1 30 C1.51953125 27.453125 1.51953125 27.453125 4 26 C2.68 25.34 1.36 24.68 0 24 C0 16.08 0 8.16 0 0 Z " fill="#DBC276" transform="translate(71,214)"/>
<path d="M0 0 C8.09565471 0.61650276 15.94545851 1.76083977 24 3 C24.33 27.75 24.66 52.5 25 78 C11.5 76.875 11.5 76.875 6.40527344 75.96850586 C5.26499695 75.76837387 4.12472046 75.56824188 2.94989014 75.36204529 C1.17258514 75.04168053 1.17258514 75.04168053 -0.640625 74.71484375 C-1.88882019 74.49429825 -3.13701538 74.27375275 -4.42303467 74.04652405 C-7.69841088 73.46680315 -10.97288752 72.88245065 -14.24700928 72.29571533 C-17.60537129 71.69510508 -20.96484306 71.10076866 -24.32421875 70.50585938 C-30.88383528 69.34293574 -37.44233576 68.17387973 -44 67 C-42.515 66.01 -42.515 66.01 -41 65 C-39.20696722 63.6866596 -37.43339407 62.34891477 -35.65771484 61.01220703 C-34.23924845 59.9461259 -32.8162418 58.88606365 -31.38916016 57.83154297 C-28.07304191 55.37162649 -24.83202096 52.90865706 -21.76953125 50.13671875 C-14.75282537 44.04799826 -14.75282537 44.04799826 -9.1484375 43.89453125 C-5.66476876 44.37973161 -2.3796007 45.035114 1 46 C0.94199219 44.81921875 0.88398437 43.6384375 0.82421875 42.421875 C0.77731357 40.86462289 0.73181421 39.30732799 0.6875 37.75 C0.64560547 36.97269531 0.60371094 36.19539063 0.56054688 35.39453125 C0.51272545 33.15648863 0.53023077 31.19040326 1 29 C3.51953125 26.453125 3.51953125 26.453125 6 25 C5.195625 24.71125 4.39125 24.4225 3.5625 24.125 C1 23 1 23 0 21 C-0.08400529 19.40552536 -0.10727467 17.80759455 -0.09765625 16.2109375 C-0.09443359 15.26992188 -0.09121094 14.32890625 -0.08789062 13.359375 C-0.07532227 11.88210938 -0.07532227 11.88210938 -0.0625 10.375 C-0.05798828 9.38242187 -0.05347656 8.38984375 -0.04882812 7.3671875 C-0.03702145 4.9113984 -0.020554 2.45572896 0 0 Z " fill="#DBC276" transform="translate(71,300)"/>
<path d="M0 0 C1.93875 0.28875 3.8775 0.5775 5.875 0.875 C6.96554688 1.03742188 8.05609375 1.19984375 9.1796875 1.3671875 C12.21699918 1.87030048 15.22191681 2.4309825 18.23876953 3.03955078 C19.13242218 3.21946564 20.02607483 3.39938049 20.94680786 3.58474731 C21.62436127 3.7217807 22.30191467 3.85881409 23 4 C23.87039063 21.01057168 24.1273158 37.96934399 24.0625 55 C24.0574649 57.34765527 24.05290562 59.69531162 24.04882812 62.04296875 C24.03800481 67.69533656 24.02143246 73.34766295 24 79 C10.1617521 77.11379744 -3.57954057 74.91253933 -17.3125 72.375 C-19.87064403 71.90445867 -22.42899881 71.43515699 -24.98783875 70.96841431 C-26.55435955 70.68249066 -28.1204879 70.39440374 -29.68611145 70.10360718 C-34.44458997 69.23271779 -39.19487745 68.56148377 -44 68 C-39.78897393 64.61101585 -35.53533043 61.28136249 -31.22729492 58.01635742 C-28.36798824 55.84605952 -25.56156456 53.64924124 -22.8359375 51.3125 C-14.39339705 44.331588 -14.39339705 44.331588 -8.5625 44.875 C-7.03054531 45.20160963 -5.50807252 45.57658969 -4 46 C-2.3348778 46.34096471 -0.66856303 46.67629289 1 47 C0.95359375 45.73542969 0.9071875 44.47085938 0.859375 43.16796875 C0.82185788 41.50783609 0.78545765 39.84767792 0.75 38.1875 C0.71648437 37.35412109 0.68296875 36.52074219 0.6484375 35.66210938 C0.61167749 33.37379889 0.61504207 31.25678739 1 29 C3.015625 26.92578125 3.015625 26.92578125 5 26 C2.525 25.01 2.525 25.01 0 24 C0 16.08 0 8.16 0 0 Z " fill="#DBC276" transform="translate(69,129)"/>
<path d="M0 0 C9.480108 0.75649347 18.76715848 2.42251464 28.125 4.0625 C29.76556865 4.34732995 31.40619326 4.63183778 33.046875 4.91601562 C37.0319049 5.60696487 41.01615209 6.30226932 45 7 C45.6673617 32.00476492 46.17602449 56.98556576 46 82 C44.02043559 81.85966889 42.04134859 81.7125877 40.0625 81.5625 C38.40927734 81.44068359 38.40927734 81.44068359 36.72265625 81.31640625 C34 81 34 81 33 80 C32.83895156 77.59269918 32.74014541 75.21126183 32.68359375 72.80078125 C32.65235413 71.69209938 32.65235413 71.69209938 32.6204834 70.5610199 C32.55423925 68.14495376 32.49555323 65.7287758 32.4375 63.3125 C32.39469102 61.66633911 32.35180357 60.02018025 32.30883789 58.37402344 C32.00385938 46.24814967 31.87977258 34.12961053 32 22 C31.24380371 21.88930176 30.48760742 21.77860352 29.70849609 21.66455078 C26.26314587 21.15696507 22.81908998 20.64106449 19.375 20.125 C18.18519531 19.95097656 16.99539063 19.77695313 15.76953125 19.59765625 C14.61582031 19.42363281 13.46210938 19.24960938 12.2734375 19.0703125 C11.21560059 18.91320801 10.15776367 18.75610352 9.06787109 18.59423828 C6 18 6 18 0 16 C0 10.72 0 5.44 0 0 Z " fill="#638BBD" transform="translate(406,83)"/>
<path d="M0 0 C9.66073539 1.33598476 19.25702841 2.85920551 28.859375 4.56640625 C30.22460985 4.80788724 31.58986499 5.04925352 32.95513916 5.29051208 C35.7822209 5.79066643 38.60898902 6.29254804 41.43554688 6.7956543 C45.05960658 7.44050771 48.68453705 8.08031748 52.30971909 8.71882725 C55.1135742 9.21333518 57.91691044 9.71073441 60.7201004 10.20899773 C62.05799598 10.44639102 63.39606406 10.68281428 64.73430634 10.91824532 C66.59130359 11.24532298 68.44752858 11.57677624 70.30371094 11.90844727 C71.35846619 12.09560806 72.41322144 12.28276886 73.49993896 12.4756012 C76 13 76 13 78 14 C78 20.27 78 26.54 78 33 C76.453125 32.938125 74.90625 32.87625 73.3125 32.8125 C69.03011755 32.7942771 66.44046458 33.24762834 63 36 C63 33.69 63 31.38 63 29 C62.32934006 28.94884033 61.65868011 28.89768066 60.96769714 28.8449707 C54.34991045 28.29794078 47.8904853 27.3931431 41.36328125 26.1875 C40.39899704 26.01371826 39.43471283 25.83993652 38.44120789 25.66088867 C35.39747548 25.11172809 32.35493627 24.5562925 29.3125 24 C26.25919585 23.44463428 23.20565021 22.89067617 20.1516571 22.33911133 C18.26239426 21.99761498 16.37354114 21.65384106 14.48518372 21.30737305 C13.62035873 21.15051025 12.75553375 20.99364746 11.86450195 20.83203125 C11.11602493 20.69514893 10.36754791 20.5582666 9.59638977 20.41723633 C6.07794864 19.85182759 2.53606335 19.44200792 -1 19 C-0.67 12.73 -0.34 6.46 0 0 Z " fill="#628BBD" transform="translate(120,29)"/>
<path d="M0 0 C5.5088957 0 9.74441761 0.13212603 15.01098633 1.06982422 C15.98574417 1.24056961 15.98574417 1.24056961 16.98019409 1.4147644 C19.09876778 1.78782253 21.21538577 2.17085236 23.33203125 2.5546875 C24.81549554 2.81934016 26.29903261 3.08358516 27.78263855 3.34744263 C30.87732522 3.89947766 33.97106204 4.45649377 37.06420898 5.01708984 C41.02810209 5.73506801 44.99413452 6.44033385 48.96095753 7.14192009 C52.01846786 7.6841357 55.07474109 8.23307559 58.13068199 8.78406143 C59.59314288 9.04689462 61.05598437 9.30761918 62.51920509 9.56618881 C64.55943784 9.92775025 66.59782559 10.29834666 68.63598633 10.67138672 C69.79544266 10.88012421 70.95489899 11.08886169 72.14949036 11.30392456 C75 12 75 12 78 14 C78.2208564 16.95064148 78.28060989 19.68368231 78.1875 22.625 C78.16719727 23.82769531 78.16719727 23.82769531 78.14648438 25.0546875 C78.11109051 27.03674378 78.05728234 29.01845551 78 31 C77.40832031 30.97679688 76.81664062 30.95359375 76.20703125 30.9296875 C71.66198041 30.82588536 68.14059941 30.86291643 64 33 C63.505 30.03 63.505 30.03 63 27 C62.02555183 26.92767906 62.02555183 26.92767906 61.03141785 26.85389709 C53.78804928 26.26264348 46.70357444 25.20245439 39.55078125 23.93359375 C37.84283638 23.63606956 37.84283638 23.63606956 36.10038757 23.33253479 C32.50368325 22.70501415 28.90809128 22.07136371 25.3125 21.4375 C22.85749312 21.00805604 20.40241561 20.57901569 17.94726562 20.15039062 C11.96401731 19.10492288 5.98175788 18.05396053 0 17 C0 11.39 0 5.78 0 0 Z " fill="#628BBD" transform="translate(68,75)"/>
<path d="M0 0 C2.12534659 0.14069196 4.25027529 0.28770921 6.375 0.4375 C8.15003906 0.55931641 8.15003906 0.55931641 9.9609375 0.68359375 C13 1 13 1 15 2 C15.88080729 19.47553447 16.28542155 36.94310572 16.5625 54.4375 C16.60584014 57.03060365 16.64945842 59.62370266 16.69335938 62.21679688 C16.79876664 68.47781501 16.90078948 74.73888076 17 81 C14.68682039 80.69257097 12.37446648 80.37892298 10.0625 80.0625 C8.77472656 79.88847656 7.48695313 79.71445313 6.16015625 79.53515625 C3 79 3 79 2 78 C0.93751496 70.15011543 0.86103602 62.23551299 0.90234375 54.328125 C0.9037587 53.27969421 0.90517365 52.23126343 0.90663147 51.15106201 C0.91216324 47.85067714 0.92470228 44.55036385 0.9375 41.25 C0.94252384 38.99218849 0.94708519 36.7343759 0.95117188 34.4765625 C0.96211018 28.98435118 0.9787785 23.49218071 1 18 C-1.31 17.67 -3.62 17.34 -6 17 C-5.195625 16.4225 -4.39125 15.845 -3.5625 15.25 C0.55042128 11.26488136 -0.09424565 5.37200223 0 0 Z " fill="#648ABE" transform="translate(439,172)"/>
<path d="M0 0 C2.31317961 0.30742903 4.62553352 0.62107702 6.9375 0.9375 C8.22527344 1.11152344 9.51304687 1.28554688 10.83984375 1.46484375 C14 2 14 2 15 3 C15.12295786 4.59585519 15.17784911 6.19701406 15.20532227 7.79736328 C15.22526749 8.8241922 15.24521271 9.85102112 15.26576233 10.90896606 C15.28247482 12.03471039 15.29918732 13.16045471 15.31640625 14.3203125 C15.33718735 15.48513153 15.35796844 16.64995056 15.37937927 17.85006714 C15.42278465 20.33685458 15.46380832 22.82368452 15.50268555 25.31054688 C15.56105203 29.03266106 15.62648722 32.75459252 15.69335938 36.4765625 C15.94987622 51.31879839 16.0623435 66.15566991 16 81 C14.22880197 80.85866501 12.45804713 80.71176792 10.6875 80.5625 C9.20830078 80.44068359 9.20830078 80.44068359 7.69921875 80.31640625 C5 80 5 80 2 79 C1.505 79.99 1.505 79.99 1 81 C0.85439547 75.24242509 0.71216851 69.48477891 0.57275391 63.72705078 C0.52512584 61.77813598 0.47665594 59.82924153 0.42724609 57.88037109 C0.09088357 44.5837544 -0.06539614 31.30084863 0 18 C-1.98 17.67 -3.96 17.34 -6 17 C-5.195625 16.4225 -4.39125 15.845 -3.5625 15.25 C0.55042128 11.26488136 -0.09424565 5.37200223 0 0 Z " fill="#628BBD" transform="translate(442,342)"/>
<path d="M0 0 C2.14655501 0.30750371 4.29223285 0.6211366 6.4375 0.9375 C7.63246094 1.11152344 8.82742188 1.28554688 10.05859375 1.46484375 C13 2 13 2 14 3 C14.16206253 5.42689113 14.26030805 7.8276622 14.31640625 10.2578125 C14.33723267 11.01717606 14.35805908 11.77653961 14.3795166 12.55891418 C14.4462664 15.08083278 14.50483804 17.60285826 14.5625 20.125 C14.59426834 21.41206345 14.59426834 21.41206345 14.62667847 22.72512817 C15.10249233 42.15017843 15.09539807 61.57059377 15 81 C10.05 80.67 5.1 80.34 0 80 C-0.33 59.54 -0.66 39.08 -1 18 C-2.65 18 -4.3 18 -6 18 C-4.63016497 14.83884224 -4.0109362 14.0072908 -1 12 C-0.41518879 9.11404054 -0.41518879 9.11404054 -0.3125 5.875 C-0.24675781 4.77929688 -0.18101562 3.68359375 -0.11328125 2.5546875 C-0.07589844 1.71164062 -0.03851563 0.86859375 0 0 Z " fill="#6488BF" transform="translate(441,257)"/>
<path d="M0 0 C4.62 0.66 9.24 1.32 14 2 C14.75102289 14.08363585 15.23420347 26.154754 15.50268555 38.25854492 C15.56238244 40.93223469 15.62755429 43.6057512 15.69335938 46.27929688 C15.96740238 57.85473015 16.05213645 69.42157038 16 81 C14.0625 80.85416667 12.125 80.70833333 10.1875 80.5625 C8.56908203 80.44068359 8.56908203 80.44068359 6.91796875 80.31640625 C4 80 4 80 1 79 C0.67 58.54 0.34 38.08 0 17 C-1.65 17 -3.3 17 -5 17 C-3.84826645 14.53199953 -2.95216435 12.95216435 -1 11 C-0.53709779 8.33757179 -0.53709779 8.33757179 -0.375 5.375 C-0.189375 2.714375 -0.189375 2.714375 0 0 Z " fill="#628BBD" transform="translate(390,387)"/>
<path d="M0 0 C1.75032844 0.14183696 3.50025534 0.28863429 5.25 0.4375 C6.71179688 0.55931641 6.71179688 0.55931641 8.203125 0.68359375 C11 1 11 1 15 2 C15.66 27.74 16.32 53.48 17 80 C13.92478317 81.53760842 11.65324882 80.36599236 8.375 79.5625 C7.18648438 79.27503906 5.99796875 78.98757813 4.7734375 78.69140625 C3.85820312 78.46324219 2.94296875 78.23507812 2 78 C1.03672873 57.65345632 0.87998156 37.36435955 1 17 C-0.98 16.67 -2.96 16.34 -5 16 C-4.175 15.401875 -3.35 14.80375 -2.5 14.1875 C-0.41164071 12.16385044 -0.01913357 11.16027181 0.33203125 8.21875 C0.31428393 5.46436561 0.21637594 2.74557031 0 0 Z " fill="#678AC0" transform="translate(387,217)"/>
<path d="M0 0 C1.97993541 0.30759178 3.95893599 0.6212068 5.9375 0.9375 C7.03964844 1.11152344 8.14179688 1.28554688 9.27734375 1.46484375 C12 2 12 2 13 3 C13.92784528 9.63599288 14.20020217 16.20129524 14.31640625 22.89453125 C14.33718735 23.92196945 14.35796844 24.94940765 14.37937927 26.00798035 C14.42241897 28.17707627 14.46348662 30.34621213 14.50268555 32.51538086 C14.56163681 35.76491884 14.62694446 39.0142788 14.69335938 42.26367188 C14.9477119 55.17732321 15.05693052 68.0840021 15 81 C12.6875 80.70833333 10.375 80.41666667 8.0625 80.125 C6.77472656 79.96257812 5.48695313 79.80015625 4.16015625 79.6328125 C3.11730469 79.42398438 2.07445312 79.21515625 1 79 C-0.34049527 76.31900947 -0.1198052 74.26688794 -0.11352539 71.26513672 C-0.11344986 70.06404266 -0.11337433 68.86294861 -0.11329651 67.62545776 C-0.10813522 66.32335358 -0.10297394 65.02124939 -0.09765625 63.6796875 C-0.09579138 62.33733167 -0.0943678 60.99497516 -0.09336853 59.65261841 C-0.08954878 56.11804325 -0.07972312 52.58350913 -0.06866455 49.0489502 C-0.05843878 45.44279536 -0.05386841 41.8366339 -0.04882812 38.23046875 C-0.03810038 31.15362904 -0.02103045 24.0768172 0 17 C-1.98 16.67 -3.96 16.34 -6 16 C-4.7934375 15.1028125 -4.7934375 15.1028125 -3.5625 14.1875 C0.35490427 10.38075687 -0.09927877 5.15347066 0 0 Z " fill="#6788C1" transform="translate(389,302)"/>
<path d="M0 0 C15.85345933 1.63437725 31.38631957 4.88118695 47 8 C47 13.94 47 19.88 47 26 C44.69 26 42.38 26 40 26 C37.2094183 27.89816542 37.2094183 27.89816542 35 30 C34.34 30 33.68 30 33 30 C32.505 27.03 32.505 27.03 32 24 C21.44 22.02 10.88 20.04 0 18 C0 12.06 0 6.12 0 0 Z " fill="#6289BD" transform="translate(320,66)"/>
<path d="M0 0 C3.774375 0.639375 7.54875 1.27875 11.4375 1.9375 C12.62915771 2.13722412 13.82081543 2.33694824 15.04858398 2.54272461 C15.98001221 2.70264893 16.91144043 2.86257324 17.87109375 3.02734375 C18.82943115 3.18968506 19.78776855 3.35202637 20.77514648 3.51928711 C23 4 23 4 24 5 C24.08713831 6.70772358 24.10700007 8.41898649 24.09765625 10.12890625 C24.09443359 11.16337891 24.09121094 12.19785156 24.08789062 13.26367188 C24.07951172 14.35228516 24.07113281 15.44089844 24.0625 16.5625 C24.05798828 17.65498047 24.05347656 18.74746094 24.04882812 19.87304688 C24.03699826 22.58208495 24.02051543 25.29101599 24 28 C21.3115346 27.71573032 18.62447143 27.42281156 15.9375 27.125 C15.18533203 27.04636719 14.43316406 26.96773438 13.65820312 26.88671875 C12.54155273 26.76103516 12.54155273 26.76103516 11.40234375 26.6328125 C10.38901978 26.52283936 10.38901978 26.52283936 9.35522461 26.41064453 C6.18281043 25.85751914 3.09636979 24.88467708 0 24 C0 16.08 0 8.16 0 0 Z " fill="#DAC374" transform="translate(73,384)"/>
<path d="M0 0 C9.74980355 1.31051483 19.42459356 2.89224768 29.1003418 4.65942383 C31.3544524 5.07014412 33.60978039 5.47368251 35.86523438 5.87695312 C37.30216077 6.1375943 38.73901282 6.39864571 40.17578125 6.66015625 C41.46395752 6.89355713 42.75213379 7.12695801 44.0793457 7.36743164 C47 8 47 8 48 9 C48.12217338 10.34409571 48.17772421 11.69434653 48.20532227 13.04370117 C48.23523254 14.34128609 48.23523254 14.34128609 48.26574707 15.66508484 C48.2824646 16.61478653 48.29918213 17.56448822 48.31640625 18.54296875 C48.34764587 20.01918449 48.34764587 20.01918449 48.3795166 21.52522278 C48.44581071 24.74590083 48.50447521 27.96666313 48.5625 31.1875 C48.60531425 33.38216289 48.64820172 35.57682434 48.69116211 37.77148438 C49.0005166 54.1830024 49.12221773 70.58583256 49 87 C39.97294055 86.4007132 31.15614999 84.90121274 22.26953125 83.27734375 C20.78317088 83.00931618 19.29673449 82.74170985 17.81022644 82.47450256 C13.93473068 81.77671414 10.06028093 81.07328217 6.18603516 80.36859131 C2.21774905 79.64785471 -1.75151908 78.93256874 -5.72070312 78.21679688 C-13.48142939 76.81647211 -21.24105704 75.41017212 -29 74 C-29.33 71.36 -29.66 68.72 -30 66 C-28.515 65.01 -28.515 65.01 -27 64 C-27 66.64 -27 69.28 -27 72 C-25.73285156 72.12906738 -24.46570313 72.25813477 -23.16015625 72.39111328 C-17.88257299 72.97901259 -12.66888141 73.83814876 -7.4375 74.7421875 C-6.44733887 74.91122589 -5.45717773 75.08026428 -4.43701172 75.25442505 C-1.29091894 75.79218354 1.8545356 76.3335795 5 76.875 C7.07938795 77.23069758 9.15881475 77.58616814 11.23828125 77.94140625 C22.83203508 79.9254875 34.41642898 81.95584041 46 84 C46 59.25 46 34.5 46 9 C43.36 9 40.72 9 38 9 C35.43383789 8.68041992 35.43383789 8.68041992 33.22265625 8.23046875 C32.38694092 8.06514648 31.55122559 7.89982422 30.69018555 7.72949219 C29.82304932 7.55063477 28.95591309 7.37177734 28.0625 7.1875 C26.21634728 6.8205995 24.36998933 6.45473027 22.5234375 6.08984375 C21.14430176 5.81503174 21.14430176 5.81503174 19.73730469 5.53466797 C15.56336102 4.71938643 11.3771768 3.97940244 7.1875 3.25 C6.45861572 3.12262451 5.72973145 2.99524902 4.97875977 2.86401367 C3.31939826 2.57471509 1.65973697 2.28713667 0 2 C0 1.34 0 0.68 0 0 Z " fill="#6779C4" transform="translate(220,410)"/>
<path d="M0 0 C2.31 0.33 4.62 0.66 7 1 C7 1.33 7 1.66 7 2 C5.35 2 3.7 2 2 2 C2.03029297 2.92184082 2.06058594 3.84368164 2.09179688 4.79345703 C2.86279861 28.86946893 3.13175935 52.91236446 3 77 C3.92184082 77.1451001 4.84368164 77.2902002 5.79345703 77.43969727 C29.93586314 81.25060259 53.98272656 85.46859151 78 90 C77.93148331 89.45441437 77.86296661 88.90882874 77.79237366 88.34671021 C76.90073113 80.50634501 76.77923393 72.68807547 76.68359375 64.8046875 C76.66297502 63.36165845 76.64197744 61.91863477 76.62062073 60.47561646 C76.56590715 56.71106363 76.51627828 52.94646099 76.46777344 49.18182373 C76.41718363 45.32690088 76.36169493 41.47204872 76.30664062 37.6171875 C76.19968118 30.07818518 76.09810302 22.53912333 76 15 C75.0517334 14.86867676 74.1034668 14.73735352 73.12646484 14.60205078 C71.87559082 14.42657715 70.6247168 14.25110352 69.3359375 14.0703125 C68.0989209 13.89773926 66.8619043 13.72516602 65.58740234 13.54736328 C61.32652759 12.89724206 57.18823341 12.01095289 53 11 C53 10.67 53 10.34 53 10 C59.26217839 10.37061872 65.26796266 11.18991128 71.3984375 12.54296875 C72.64028809 12.81520264 73.88213867 13.08743652 75.16162109 13.36791992 C76.09828613 13.57650635 77.03495117 13.78509277 78 14 C79.1996911 68.03046093 79.1996911 68.03046093 79 92 C69.61653587 91.46766425 60.51582419 90.20913156 51.2734375 88.53125 C49.90923676 88.28796051 48.54494648 88.04517262 47.18057251 87.80285645 C44.35127846 87.2990452 41.52276537 86.79113485 38.69482422 86.27978516 C35.07234903 85.62484016 31.44855333 84.97758466 27.82422447 84.33298492 C25.02036413 83.83395935 22.21696019 83.33241152 19.41371536 82.8299408 C18.07655339 82.5902862 16.73931188 82.35107495 15.40198898 82.11231995 C13.54279836 81.77970503 11.68422522 81.44364423 9.82568359 81.10742188 C8.77013275 80.91724487 7.71458191 80.72706787 6.62704468 80.53112793 C4 80 4 80 1 79 C1.00261841 78.39225235 1.00523682 77.7845047 1.00793457 77.15834045 C1.07134394 59.91169391 0.84796165 42.68028419 0.5 25.4375 C0.45160198 22.94987408 0.40342394 20.46224387 0.35546875 17.97460938 C0.23950072 11.98302136 0.12087239 5.99149098 0 0 Z " fill="#6679C3" transform="translate(104,389)"/>
<path d="M0 0 C1.32 0.33 2.64 0.66 4 1 C3.34 1 2.68 1 2 1 C2.03029297 1.84554443 2.06058594 2.69108887 2.09179688 3.56225586 C2.94283612 28.04763684 3.12117973 52.5011874 3 77 C4.30525635 77.1350293 5.6105127 77.27005859 6.95532227 77.40917969 C11.57683847 77.92395295 16.13715312 78.64259301 20.71484375 79.453125 C21.52067398 79.59372849 22.32650421 79.73433197 23.15675354 79.87919617 C25.75089385 80.33301464 28.34422782 80.79124881 30.9375 81.25 C31.82018555 81.40518097 32.70287109 81.56036194 33.61230469 81.72024536 C48.4390184 84.3269868 63.2322953 87.07610226 78 90 C78 84.06 78 78.12 78 72 C78.33 72 78.66 72 79 72 C79 78.27 79 84.54 79 91 C73.01706945 91 68.44583807 90.92412102 62.75195312 89.91430664 C62.08900238 89.79887009 61.42605164 89.68343353 60.74301147 89.5644989 C58.58769345 89.18720027 56.43451658 88.79897693 54.28125 88.41015625 C52.7720308 88.14295009 51.2627109 87.87631214 49.7532959 87.61021423 C46.60907201 87.05424793 43.46582524 86.49314436 40.32324219 85.92797852 C36.28828107 85.20251286 32.25155296 84.48750822 28.21411896 83.77594852 C25.10643915 83.22753903 21.99950442 82.67500655 18.89280701 82.12106133 C17.40336945 81.85574303 15.91375531 81.59141405 14.42396545 81.32808113 C12.35286449 80.96109182 10.2827727 80.58888218 8.21289062 80.21508789 C7.03424438 80.00412979 5.85559814 79.79317169 4.64123535 79.57582092 C2 79 2 79 1 78 C0.87782662 76.65590429 0.82227579 75.30565347 0.79467773 73.95629883 C0.77473755 73.09124222 0.75479736 72.22618561 0.73425293 71.33491516 C0.7175354 70.38521347 0.70081787 69.43551178 0.68359375 68.45703125 C0.66276733 67.47288742 0.64194092 66.48874359 0.6204834 65.47477722 C0.55418929 62.25409917 0.49552479 59.03333687 0.4375 55.8125 C0.39468575 53.61783711 0.35179828 51.42317566 0.30883789 49.22851562 C-0.00050955 32.81737165 -0.1307476 16.41385309 0 0 Z " fill="#6A78C1" transform="translate(20,374)"/>
<path d="M0 0 C15.84872684 1.4898317 31.41104542 4.87809745 47 8 C47.1461387 15.07186788 47.28800352 22.14381334 47.42724609 29.21582031 C47.47482354 31.60874253 47.52328946 34.00164729 47.57275391 36.39453125 C47.92067856 53.2653266 48.06900168 70.12564007 48 87 C35.25 85.125 35.25 85.125 33 84 C33.33 83.34 33.66 82.68 34 82 C37.96 82.66 41.92 83.32 46 84 C45.89171875 81.28330078 45.89171875 81.28330078 45.78125 78.51171875 C44.9259674 55.33828637 44.89301878 32.1869455 45 9 C43.88492065 8.94501343 43.88492065 8.94501343 42.74731445 8.88891602 C33.37881119 8.31004798 24.3766741 6.73960434 15.1875 4.9375 C13.70520451 4.65233705 12.22278306 4.36782806 10.74023438 4.08398438 C7.15867774 3.39682867 3.578889 2.70093374 0 2 C0 1.34 0 0.68 0 0 Z " fill="#677AC4" transform="translate(406,81)"/>
<path d="M0 0 C13.88913382 1.45833161 27.59620408 3.92791888 41.34033203 6.3684082 C44.62796389 6.95206859 47.9161784 7.53215481 51.2048378 8.10997868 C54.37124602 8.66660264 57.53718753 9.22586186 60.703125 9.78515625 C62.46707611 10.09610985 62.46707611 10.09610985 64.2666626 10.41334534 C65.35590027 10.60702194 66.44513794 10.80069855 67.56738281 11.00024414 C68.52283997 11.16964005 69.47829712 11.33903595 70.46270752 11.51356506 C72.66811862 11.93637363 74.82922132 12.42802116 77 13 C76.67 13.66 76.34 14.32 76 15 C59.13745342 12.23961394 42.31288294 9.2972425 25.5 6.25 C23.20054761 5.8344872 20.90106854 5.41912202 18.6015625 5.00390625 C13.0674015 4.00429524 7.53356536 3.00290281 2 2 C2.03287613 2.74795334 2.06575226 3.49590668 2.09962463 4.26652527 C3.15566219 28.51227063 3.10234253 52.73537245 3 77 C5.31 77.33 7.62 77.66 10 78 C10 78.33 10 78.66 10 79 C7.66705225 79.04241723 5.33297433 79.04092937 3 79 C1.43240255 77.43240255 1.79146946 75.8352257 1.70336914 73.65429688 C1.66432968 72.72178101 1.62529022 71.78926514 1.58506775 70.82849121 C1.54797195 69.80227661 1.51087616 68.77606201 1.47265625 67.71875 C1.43133072 66.65096313 1.39000519 65.58317627 1.34742737 64.48303223 C0.86997318 51.49252679 0.65236219 38.49696987 0.4375 25.5 C0.39414482 23.00780788 0.35052627 20.51562033 0.30664062 18.0234375 C0.20140634 12.01567399 0.0993641 6.00786333 0 0 Z " fill="#687BC5" transform="translate(100,134)"/>
<path d="M0 0 C0.99 0.495 0.99 0.495 2 1 C2 6.28 2 11.56 2 17 C5.05121094 17.33837891 5.05121094 17.33837891 8.1640625 17.68359375 C19.99716308 19.10699385 31.718386 21.29179232 43.45019531 23.3684082 C46.75581125 23.95299803 50.06218 24.53284602 53.36910057 25.10997868 C56.54610357 25.66520735 59.7222391 26.22534603 62.8984375 26.78515625 C64.08472748 26.99245865 65.27101746 27.19976105 66.49325562 27.41334534 C67.58264435 27.60702194 68.67203308 27.80069855 69.79443359 28.00024414 C70.75433197 28.16964005 71.71423035 28.33903595 72.70321655 28.51356506 C75 29 75 29 77 30 C77 25.38 77 20.76 77 16 C77.33 16 77.66 16 78 16 C78 21.28 78 26.56 78 32 C69.31985321 31.34485966 60.85095523 30.05268368 52.28515625 28.53125 C50.8980462 28.28810176 49.51087351 28.04531062 48.12364197 27.80285645 C45.23973688 27.29789262 42.35636224 26.79003996 39.47338867 26.27978516 C35.78335248 25.62672942 32.0924203 24.97891968 28.40113163 24.33298492 C24.86214544 23.71343567 21.32364423 23.09113722 17.78515625 22.46875 C17.1148897 22.35112808 16.44462315 22.23350616 15.75404549 22.11231995 C13.85667602 21.7788811 11.95970086 21.44320091 10.06274414 21.10742188 C8.98561661 20.91724487 7.90848907 20.72706787 6.79872131 20.53112793 C4.51645521 20.0980104 2.2536411 19.56341028 0 19 C0 12.73 0 6.46 0 0 Z " fill="#717CBD" transform="translate(276,480)"/>
<path d="M0 0 C9.66073539 1.33598476 19.25702841 2.85920551 28.859375 4.56640625 C30.22460985 4.80788724 31.58986499 5.04925352 32.95513916 5.29051208 C35.7822209 5.79066643 38.60898902 6.29254804 41.43554688 6.7956543 C45.05960658 7.44050771 48.68453705 8.08031748 52.30971909 8.71882725 C55.1135742 9.21333518 57.91691044 9.71073441 60.7201004 10.20899773 C62.05799598 10.44639102 63.39606406 10.68281428 64.73430634 10.91824532 C66.59130359 11.24532298 68.44752858 11.57677624 70.30371094 11.90844727 C71.35846619 12.09560806 72.41322144 12.28276886 73.49993896 12.4756012 C76 13 76 13 78 14 C78 20.27 78 26.54 78 33 C77.34 32.67 76.68 32.34 76 32 C76 26.39 76 20.78 76 15 C74.65437988 14.88664307 73.30875977 14.77328613 71.92236328 14.65649414 C64.96949306 13.95834102 58.11851202 12.71709313 51.2421875 11.49609375 C49.84406022 11.25058166 48.44587597 11.00539382 47.04763794 10.76051331 C43.40083535 10.12094692 39.75481397 9.47703313 36.10894775 8.83215332 C32.37518471 8.17253987 28.64068573 7.51712041 24.90625 6.86132812 C17.60344652 5.5782792 10.30153702 4.29024035 3 3 C2.67 8.28 2.34 13.56 2 19 C1.01 18.67 0.02 18.34 -1 18 C-0.505 9.09 -0.505 9.09 0 0 Z M74 32 C76 33 76 33 76 33 Z " fill="#6679C4" transform="translate(120,29)"/>
<path d="M0 0 C5.5088957 0 9.74441761 0.13212603 15.01098633 1.06982422 C15.98574417 1.24056961 15.98574417 1.24056961 16.98019409 1.4147644 C19.09876778 1.78782253 21.21538577 2.17085236 23.33203125 2.5546875 C24.81549554 2.81934016 26.29903261 3.08358516 27.78263855 3.34744263 C30.87732522 3.89947766 33.97106204 4.45649377 37.06420898 5.01708984 C41.02810209 5.73506801 44.99413452 6.44033385 48.96095753 7.14192009 C52.01846786 7.6841357 55.07474109 8.23307559 58.13068199 8.78406143 C59.59314288 9.04689462 61.05598437 9.30761918 62.51920509 9.56618881 C64.55943784 9.92775025 66.59782559 10.29834666 68.63598633 10.67138672 C69.79544266 10.88012421 70.95489899 11.08886169 72.14949036 11.30392456 C75 12 75 12 78 14 C78.2208564 16.95064148 78.28060989 19.68368231 78.1875 22.625 C78.16719727 23.82769531 78.16719727 23.82769531 78.14648438 25.0546875 C78.11109051 27.03674378 78.05728234 29.01845551 78 31 C76.68 30.67 75.36 30.34 74 30 C74.66 30 75.32 30 76 30 C76 24.72 76 19.44 76 14 C74.49139404 13.88664307 72.98278809 13.77328613 71.4284668 13.65649414 C64.26368609 13.00213679 57.22259657 11.75792618 50.14453125 10.49609375 C48.74784647 10.25050659 47.35109115 10.00532031 45.95426941 9.76051331 C42.31556382 9.12170408 38.67782875 8.47753078 35.0402832 7.83215332 C31.31324461 7.17190588 27.58529403 6.51684965 23.85742188 5.86132812 C16.57072144 4.57923606 9.28513138 3.29098376 2 2 C2 6.95 2 11.9 2 17 C1.34 17 0.68 17 0 17 C0 11.39 0 5.78 0 0 Z " fill="#667BC3" transform="translate(68,75)"/>
<path d="M0 0 C2.31317961 0.30742903 4.62553352 0.62107702 6.9375 0.9375 C8.22527344 1.11152344 9.51304687 1.28554688 10.83984375 1.46484375 C14 2 14 2 15 3 C15.12295786 4.59585519 15.17784911 6.19701406 15.20532227 7.79736328 C15.22526749 8.8241922 15.24521271 9.85102112 15.26576233 10.90896606 C15.28247482 12.03471039 15.29918732 13.16045471 15.31640625 14.3203125 C15.33718735 15.48513153 15.35796844 16.64995056 15.37937927 17.85006714 C15.42278465 20.33685458 15.46380832 22.82368452 15.50268555 25.31054688 C15.56105203 29.03266106 15.62648722 32.75459252 15.69335938 36.4765625 C15.94987622 51.31879839 16.0623435 66.15566991 16 81 C14.22880197 80.85866501 12.45804713 80.71176792 10.6875 80.5625 C9.20830078 80.44068359 9.20830078 80.44068359 7.69921875 80.31640625 C5 80 5 80 2 79 C1.505 79.99 1.505 79.99 1 81 C1 79.68 1 78.36 1 77 C4.96 77.33 8.92 77.66 13 78 C13 53.58 13 29.16 13 4 C8.71 3.34 4.42 2.68 0 2 C0 1.34 0 0.68 0 0 Z " fill="#6679C4" transform="translate(442,342)"/>
<path d="M0 0 C14.69160301 1.55363848 29.20511121 4.17652548 43.7520752 6.71466064 C46.43882149 7.18242404 49.12624289 7.64624034 51.81368637 8.10997868 C55.03755882 8.66658715 58.26096597 9.22587121 61.484375 9.78515625 C62.68221619 9.99245865 63.88005737 10.19976105 65.11419678 10.41334534 C66.77808441 10.70386024 66.77808441 10.70386024 68.47558594 11.00024414 C69.93541901 11.254338 69.93541901 11.254338 71.42474365 11.51356506 C73.63275878 11.93063255 75.82003214 12.45500804 78 13 C78 19.27 78 25.54 78 32 C77.34 32 76.68 32 76 32 C76 26.06 76 20.12 76 14 C73.36 14 70.72 14 68 14 C65.62685299 13.69299138 63.26098081 13.32425883 60.90625 12.8984375 C60.24885834 12.78139465 59.59146667 12.66435181 58.91415405 12.54376221 C56.77481674 12.16095879 54.63745155 11.76818428 52.5 11.375 C51.0067616 11.10546668 49.51343327 10.83643118 48.02001953 10.56787109 C32.66466991 7.79591461 17.32985314 4.90916459 2 2 C2 7.61 2 13.22 2 19 C1.67 19 1.34 19 1 19 C-0.15368049 12.65475733 -0.07747442 6.43403722 0 0 Z " fill="#687AC5" transform="translate(204,45)"/>
<path d="M0 0 C4.62 0.66 9.24 1.32 14 2 C14.75102289 14.08363585 15.23420347 26.154754 15.50268555 38.25854492 C15.56238244 40.93223469 15.62755429 43.6057512 15.69335938 46.27929688 C15.96740238 57.85473015 16.05213645 69.42157038 16 81 C14.0625 80.85416667 12.125 80.70833333 10.1875 80.5625 C8.56908203 80.44068359 8.56908203 80.44068359 6.91796875 80.31640625 C4 80 4 80 1 79 C1 78.34 1 77.68 1 77 C2.6045556 77.14148989 4.20863767 77.28835686 5.8125 77.4375 C7.15248047 77.55931641 7.15248047 77.55931641 8.51953125 77.68359375 C11 78 11 78 14 79 C13.8928064 77.21879761 13.8928064 77.21879761 13.78344727 75.40161133 C12.92946662 60.15844486 12.88349424 44.95074914 12.9375 29.6875 C12.94253087 27.18164153 12.94709094 24.67578207 12.95117188 22.16992188 C12.96203834 16.11325912 12.97864774 10.05663441 13 4 C12.39671875 3.93941406 11.7934375 3.87882812 11.171875 3.81640625 C9.97304688 3.69072266 9.97304688 3.69072266 8.75 3.5625 C7.56664062 3.44068359 7.56664062 3.44068359 6.359375 3.31640625 C4.17635361 3.02365007 2.1226818 2.57935581 0 2 C0 1.34 0 0.68 0 0 Z " fill="#667AC4" transform="translate(390,387)"/>
<path d="M0 0 C0.66 0 1.32 0 2 0 C0.65156595 3.1252681 -0.69469279 4.82809247 -3.421875 6.84765625 C-4.45622681 7.62459839 -4.45622681 7.62459839 -5.51147461 8.41723633 C-6.25018799 8.96017334 -6.98890137 9.50311035 -7.75 10.0625 C-9.28853739 11.21250292 -10.82628484 12.36356335 -12.36328125 13.515625 C-13.13752441 14.09376953 -13.91176758 14.67191406 -14.70947266 15.26757812 C-18.77545677 18.34285241 -22.74855631 21.53737896 -26.70800781 24.74829102 C-30.78193899 28 -30.78193899 28 -33 28 C-32.99476318 28.86351074 -32.98952637 29.72702148 -32.98413086 30.61669922 C-32.88568236 49.44154766 -33.07328245 68.19207012 -34 87 C-34.33 87 -34.66 87 -35 87 C-35 67.86 -35 48.72 -35 29 C-37.31 29 -39.62 29 -42 29 C-39 27 -39 27 -35.67578125 26.140625 C-31.68166284 24.90121737 -29.42539912 23.36806033 -26.1875 20.75 C-25.07186794 19.86035927 -23.95596569 18.97105731 -22.83984375 18.08203125 C-22.23640137 17.59557129 -21.63295898 17.10911133 -21.01123047 16.60791016 C-17.1281645 13.50353136 -13.18166286 10.47990922 -9.25 7.4375 C-7.69186474 6.22895141 -6.13450938 5.01939631 -4.578125 3.80859375 C-3.91200195 3.29095459 -3.24587891 2.77331543 -2.55957031 2.23999023 C-1.05031775 1.08812345 -1.05031775 1.08812345 0 0 Z " fill="#8490B8" transform="translate(384,235)"/>
<path d="M0 0 C0.66 0 1.32 0 2 0 C3.06312764 25.323632 3.51437634 50.66012636 4 76 C6.97 76.66 9.94 77.32 13 78 C13 78.33 13 78.66 13 79 C11.56260487 79.02712066 10.12506137 79.04645067 8.6875 79.0625 C7.88699219 79.07410156 7.08648437 79.08570313 6.26171875 79.09765625 C4 79 4 79 1 78 C0.37555088 51.99734079 -0.19657455 26.01134883 0 0 Z " fill="#6979C2" transform="translate(16,119)"/>
<path d="M0 0 C8.47461487 0.6772919 16.75682557 2.08465057 25.1159668 3.58398438 C27.45607106 4.00332791 29.79726432 4.41612709 32.13867188 4.828125 C33.63288015 5.09336919 35.12702327 5.35898073 36.62109375 5.625 C37.31794785 5.74794434 38.01480194 5.87088867 38.73277283 5.99755859 C41.57938765 6.51058568 44.25076301 7.08358767 47 8 C47.99140745 18.98260388 48.12097056 29.85826433 48.0625 40.875 C48.05746914 42.54557156 48.05290907 44.2161446 48.04882812 45.88671875 C48.03796159 49.92451682 48.02078681 53.96224132 48 58 C46 56 46 56 45.75949097 53.97518921 C45.7661528 52.72942612 45.7661528 52.72942612 45.77294922 51.45849609 C45.77310028 50.51767181 45.77325134 49.57684753 45.77340698 48.60751343 C45.78372955 47.58976837 45.79405212 46.57202332 45.8046875 45.5234375 C45.8075174 44.48305328 45.81034729 43.44266907 45.81326294 42.37075806 C45.82448296 39.03872306 45.84959085 35.70695414 45.875 32.375 C45.88502744 30.11979554 45.8941537 27.86458688 45.90234375 25.609375 C45.92442822 20.07282546 45.95792361 14.53643173 46 9 C45.36608841 8.94163467 44.73217682 8.88326935 44.07905579 8.82313538 C38.82115519 8.32125228 33.62935868 7.68493693 28.41796875 6.80859375 C27.06055156 6.58395604 25.70312955 6.35934748 24.34570312 6.13476562 C22.25443956 5.78478296 20.16341043 5.4334429 18.07250977 5.08129883 C16.02153802 4.73704814 13.96980703 4.39763522 11.91796875 4.05859375 C10.10462036 3.75393188 10.10462036 3.75393188 8.25463867 3.44311523 C5.44378121 3.06042029 2.8294327 2.90946083 0 3 C0 2.01 0 1.02 0 0 Z " fill="#687DC5" transform="translate(218,240)"/>
<path d="M0 0 C8.64597233 0.70886689 17.10727162 2.17057106 25.6328125 3.72265625 C27.12061602 3.99060702 28.60848132 4.25821491 30.09640503 4.52549744 C33.97999115 5.2240607 37.86272968 5.92722629 41.74530029 6.63140869 C45.72031622 7.35149737 49.69612974 8.06715425 53.671875 8.78320312 C61.44869771 10.18450708 69.2245513 11.59109199 77 13 C77.495 21.91 77.495 21.91 78 31 C77.34 31 76.68 31 76 31 C76 25.72 76 20.44 76 15 C73.78410156 14.63648437 71.56820312 14.27296875 69.28515625 13.8984375 C66.21070332 13.39203851 63.13656959 12.88372058 60.0625 12.375 C59.26199219 12.24260925 58.46148437 12.11021851 57.63671875 11.97381592 C44.15072938 9.73858577 30.69701638 7.35274265 17.26196289 4.82958984 C15.96895264 4.58934082 14.67594238 4.3490918 13.34375 4.1015625 C11.64508789 3.78179443 11.64508789 3.78179443 9.91210938 3.45556641 C6.83259895 2.8969608 6.83259895 2.8969608 3 3 C2.34 5.31 1.68 7.62 1 10 C0.67 10 0.34 10 0 10 C0 6.7 0 3.4 0 0 Z " fill="#677CC4" transform="translate(152,90)"/>
<path d="M0 0 C1.75032844 0.14183696 3.50025534 0.28863429 5.25 0.4375 C6.71179688 0.55931641 6.71179688 0.55931641 8.203125 0.68359375 C11 1 11 1 15 2 C15.66 27.74 16.32 53.48 17 80 C13.92478317 81.53760842 11.65324882 80.36599236 8.375 79.5625 C6.59222656 79.13130859 6.59222656 79.13130859 4.7734375 78.69140625 C3.85820312 78.46324219 2.94296875 78.23507812 2 78 C2 77.67 2 77.34 2 77 C3.79206547 77.14084796 5.58364917 77.28783701 7.375 77.4375 C8.87160156 77.55931641 8.87160156 77.55931641 10.3984375 77.68359375 C13 78 13 78 15 79 C14.93148331 78.45695221 14.86296661 77.91390442 14.79237366 77.35440063 C13.89020615 69.44128311 13.77857223 61.53985691 13.68359375 53.5859375 C13.66297597 52.12048827 13.64197842 50.65504434 13.62062073 49.18960571 C13.56589733 45.36586854 13.51627263 41.54208223 13.46777344 37.71826172 C13.41719098 33.80301636 13.36169837 29.88784078 13.30664062 25.97265625 C13.1996691 18.31516355 13.09809342 10.65761212 13 3 C12.31292969 2.95101562 11.62585938 2.90203125 10.91796875 2.8515625 C10.01691406 2.77679688 9.11585938 2.70203125 8.1875 2.625 C7.29417969 2.55539063 6.40085937 2.48578125 5.48046875 2.4140625 C3 2 3 2 0 0 Z " fill="#697CC5" transform="translate(387,217)"/>
<path d="M0 0 C2.12534659 0.14069196 4.25027529 0.28770921 6.375 0.4375 C8.15003906 0.55931641 8.15003906 0.55931641 9.9609375 0.68359375 C13 1 13 1 15 2 C15.88080729 19.47553447 16.28542155 36.94310572 16.5625 54.4375 C16.60584014 57.03060365 16.64945842 59.62370266 16.69335938 62.21679688 C16.79876664 68.47781501 16.90078948 74.73888076 17 81 C14.68613705 80.71935082 12.37390992 80.42518311 10.0625 80.125 C8.77472656 79.96257812 7.48695313 79.80015625 6.16015625 79.6328125 C5.11730469 79.42398438 4.07445312 79.21515625 3 79 C2.67 78.34 2.34 77.68 2 77 C5.96 77.33 9.92 77.66 14 78 C14 53.25 14 28.5 14 3 C11.69 3 9.38 3 7 3 C4.56037242 2.51809826 2.37304743 1.77487263 0 1 C0 0.67 0 0.34 0 0 Z " fill="#6678C4" transform="translate(439,172)"/>
<path d="M0 0 C8.47461487 0.6772919 16.75682557 2.08465057 25.1159668 3.58398438 C27.45607106 4.00332791 29.79726432 4.41612709 32.13867188 4.828125 C33.63288015 5.09336919 35.12702327 5.35898073 36.62109375 5.625 C37.31794785 5.74794434 38.01480194 5.87088867 38.73277283 5.99755859 C41.57938765 6.51058568 44.25076301 7.08358767 47 8 C48.17117673 14.28288126 48.18387494 20.37715129 48.1875 26.75 C48.19974609 27.89855469 48.21199219 29.04710937 48.22460938 30.23046875 C48.22654297 31.32488281 48.22847656 32.41929687 48.23046875 33.546875 C48.23457764 34.54557617 48.23868652 35.54427734 48.24291992 36.57324219 C48 39 48 39 46 41 C46 30.44 46 19.88 46 9 C43.69 9 41.38 9 39 9 C37.31489381 8.77329209 35.63541542 8.49661685 33.96875 8.16015625 C33.07542969 7.98419922 32.18210937 7.80824219 31.26171875 7.62695312 C30.35035156 7.44068359 29.43898438 7.25441406 28.5 7.0625 C22.67654484 5.89698528 16.88835842 4.79572411 11 4 C9.20523486 3.70581673 7.41299924 3.39534294 5.625 3.0625 C4.77164062 2.90910156 3.91828125 2.75570312 3.0390625 2.59765625 C2.36617188 2.40042969 1.69328125 2.20320312 1 2 C0.67 1.34 0.34 0.68 0 0 Z " fill="#687DC4" transform="translate(353,126)"/>
<path d="M0 0 C0.66 0.33 1.32 0.66 2 1 C-3.36210365 6.064209 -9.02585407 10.6048348 -14.9375 15 C-15.62787354 15.51763916 -16.31824707 16.03527832 -17.02954102 16.56860352 C-20.06324209 18.83876634 -23.10379252 21.07192418 -26.21875 23.23046875 C-27.1159375 23.87628906 -28.013125 24.52210938 -28.9375 25.1875 C-29.70964844 25.71730469 -30.48179687 26.24710938 -31.27734375 26.79296875 C-33.97220397 30.24556744 -33.8120729 33.72296986 -34 38 C-34.05293213 38.95173096 -34.10586426 39.90346191 -34.16040039 40.8840332 C-34.31809822 43.94297627 -34.44470558 47.00177606 -34.5625 50.0625 C-34.60568359 51.11888672 -34.64886719 52.17527344 -34.69335938 53.26367188 C-34.79837337 55.84234879 -34.90052877 58.42110435 -35 61 C-35.33 61 -35.66 61 -36 61 C-36.02918634 56.64584756 -36.04686145 52.29172052 -36.0625 47.9375 C-36.07087891 46.70837891 -36.07925781 45.47925781 -36.08789062 44.21289062 C-36.09707154 40.80677075 -36.06540124 37.40543965 -36 34 C-35.99395752 33.25580811 -35.98791504 32.51161621 -35.98168945 31.74487305 C-35.75649768 28.20566497 -34.97275321 26.97199519 -32.47265625 24.40234375 C-31.35050558 23.5609414 -30.21250578 22.74041141 -29.0625 21.9375 C-27.79633205 21.00073343 -26.53073683 20.06319238 -25.265625 19.125 C-24.58306641 18.62871094 -23.90050781 18.13242188 -23.19726562 17.62109375 C-19.16776887 14.64822059 -15.25107281 11.52916214 -11.3125 8.4375 C-9.78907988 7.24700753 -8.26442414 6.05809378 -6.73828125 4.87109375 C-6.08899658 4.36505615 -5.43971191 3.85901855 -4.77075195 3.33764648 C-3.22215256 2.16781661 -1.61483408 1.07655605 0 0 Z " fill="#8793B8" transform="translate(383,150)"/>
<path d="M0 0 C0.99 0.33 1.98 0.66 3 1 C-4.88003374 7.20774362 -12.77497666 13.3962108 -20.6875 19.5625 C-21.46528809 20.16980957 -22.24307617 20.77711914 -23.04443359 21.40283203 C-23.7761377 21.97243652 -24.5078418 22.54204102 -25.26171875 23.12890625 C-25.91100342 23.63494385 -26.56028809 24.14098145 -27.22924805 24.66235352 C-28.77784744 25.83218339 -30.38516592 26.92344395 -32 28 C-32.60283808 30.60741187 -32.60283808 30.60741187 -32.73046875 33.6640625 C-32.81103516 34.78554688 -32.89160156 35.90703125 -32.97460938 37.0625 C-33.04486328 38.238125 -33.11511719 39.41375 -33.1875 40.625 C-33.26935547 41.80835938 -33.35121094 42.99171875 -33.43554688 44.2109375 C-33.63633054 47.1400168 -33.82390805 50.06934939 -34 53 C-34.33 53 -34.66 53 -35 53 C-37.83133532 31.54477016 -37.83133532 31.54477016 -33.50732422 24.60400391 C-29.45940219 20.40146301 -24.57194237 17.49583334 -19.55859375 14.57519531 C-15.27697856 11.93922382 -11.46467137 8.72144118 -7.5625 5.5625 C-6.17754405 4.44763466 -4.78374418 3.34361175 -3.37890625 2.25390625 C-2.7969751 1.79314697 -2.21504395 1.3323877 -1.61547852 0.85766602 C-1.08237061 0.57463623 -0.5492627 0.29160645 0 0 Z " fill="#8792B8" transform="translate(386,406)"/>
<path d="M0 0 C0.99 0.33 1.98 0.66 3 1 C-5.83211585 8.28179764 -14.73459605 15.41639992 -23.9453125 22.21582031 C-27.62045105 24.93235501 -27.62045105 24.93235501 -31 28 C-31.99 28 -32.98 28 -34 28 C-34 34.27 -34 40.54 -34 47 C-34.33 47 -34.66 47 -35 47 C-36.46371497 40.70199707 -37.74124838 34.35939667 -36 28 C-32.20285848 22.55790615 -26.13801646 19.22444086 -20.62207031 15.73535156 C-15.38146006 12.26698493 -10.61616135 8.14758973 -5.75268555 4.17651367 C-4.68594604 3.33310425 -4.68594604 3.33310425 -3.59765625 2.47265625 C-2.66191772 1.71867554 -2.66191772 1.71867554 -1.70727539 0.94946289 C-0.86217407 0.47947876 -0.86217407 0.47947876 0 0 Z " fill="#8A95B6" transform="translate(384,321)"/>
<path d="M0 0 C0 0.99 0 1.98 0 3 C-1.20885864 3.75265137 -1.20885864 3.75265137 -2.44213867 4.52050781 C-6.40626723 8.36318125 -5.83104365 12.35221134 -5.92578125 17.671875 C-5.9630986 18.70942932 -6.00041595 19.74698364 -6.03886414 20.815979 C-6.15274479 24.12704067 -6.23302428 27.43795127 -6.3125 30.75 C-6.38385563 32.99616511 -6.45739711 35.24226193 -6.53320312 37.48828125 C-6.7141646 42.99164678 -6.8675579 48.49526468 -7 54 C-7.33 54 -7.66 54 -8 54 C-8 38.82 -8 23.64 -8 8 C-10.97 7.67 -13.94 7.34 -17 7 C-13 5 -13 5 -10.1875 5.1875 C-5.74565673 4.9262151 -3.34623238 2.77202683 0 0 Z " fill="#848FB5" transform="translate(186,226)"/>
<path d="M0 0 C2.31 0.33 4.62 0.66 7 1 C8.2853157 16.65330905 8.10024144 32.30835927 8 48 C7.67 48 7.34 48 7 48 C3.63880321 33.22768134 4.87652703 17.04280715 5 2 C3.35 1.67 1.7 1.34 0 1 C0 0.67 0 0.34 0 0 Z " fill="#7B88B8" transform="translate(87,131)"/>
<path d="M0 0 C2.31 0.33 4.62 0.66 7 1 C7 1.33 7 1.66 7 2 C5.35 2 3.7 2 2 2 C2 19.49 2 36.98 2 55 C1.67 55 1.34 55 1 55 C0.28566411 36.65714623 -0.16019 18.36023869 0 0 Z " fill="#6D7CC3" transform="translate(102,219)"/>
<path d="M0 0 C0.33 0 0.66 0 1 0 C1.33 14.85 1.66 29.7 2 45 C-11 43 -11 43 -13 42 C-12.67 41.34 -12.34 40.68 -12 40 C-8.37 40.66 -4.74 41.32 -1 42 C-0.67 28.14 -0.34 14.28 0 0 Z " fill="#697AC6" transform="translate(400,168)"/>
<path d="M0 0 C0.33 0 0.66 0 1 0 C1.495 20.295 1.495 20.295 2 41 C-10.375 39.875 -10.375 39.875 -14.6875 38.9375 C-15.51636719 38.76089844 -16.34523437 38.58429688 -17.19921875 38.40234375 C-17.79347656 38.26957031 -18.38773438 38.13679688 -19 38 C-18.34 37.34 -17.68 36.68 -17 36 C-11.39 36.99 -5.78 37.98 0 39 C0 26.13 0 13.26 0 0 Z " fill="#677AC4" transform="translate(180,355)"/>
<path d="M0 0 C2.31 0.33 4.62 0.66 7 1 C7 1.33 7 1.66 7 2 C5.35 2 3.7 2 2 2 C2 17.51 2 33.02 2 49 C1.67 49 1.34 49 1 49 C0.67 32.83 0.34 16.66 0 0 Z " fill="#6A79C5" transform="translate(275,420)"/>
<path d="M0 0 C0 0.33 0 0.66 0 1 C-7.04983374 1.22741399 -11.643455 0.471309 -19 -1 C-19 8.24 -19 17.48 -19 27 C-19.33 27 -19.66 27 -20 27 C-20 17.43 -20 7.86 -20 -2 C-14.51238282 -4.74380859 -5.69543621 -1.38683198 0 0 Z " fill="#8489B1" transform="translate(40,292)"/>
<path d="M0 0 C0.99 0.495 0.99 0.495 2 1 C2 6.28 2 11.56 2 17 C3.98 17.33 5.96 17.66 8 18 C7.67 18.66 7.34 19.32 7 20 C4.69 19.67 2.38 19.34 0 19 C0 12.73 0 6.46 0 0 Z " fill="#6C7AC4" transform="translate(276,480)"/>
<path d="M0 0 C1.15371094 0.19980469 2.30742188 0.39960937 3.49609375 0.60546875 C4.56988281 0.79753906 5.64367187 0.98960938 6.75 1.1875 C8.18629398 1.40399164 9.62353594 1.61453164 11.0625 1.8125 C11.949375 1.93625 12.83625 2.06 13.75 2.1875 C13.09 2.8475 12.43 3.5075 11.75 4.1875 C9.08447223 4.03070425 6.56916877 3.76635235 3.9375 3.375 C3.22529297 3.27896484 2.51308594 3.18292969 1.77929688 3.08398438 C-1.92483557 2.57342403 -5.59376093 1.97046672 -9.25 1.1875 C-5.48409606 -1.32310263 -4.35333436 -0.78461259 0 0 Z " fill="#7B83B6" transform="translate(51.25,123.8125)"/>
<path d="M0 0 C0.33 0 0.66 0 1 0 C1 3.3 1 6.6 1 10 C3.31 10.33 5.62 10.66 8 11 C8 11.33 8 11.66 8 12 C5.03 12 2.06 12 -1 12 C-1.02687279 10.18757948 -1.04633715 8.37504767 -1.0625 6.5625 C-1.07410156 5.55316406 -1.08570312 4.54382813 -1.09765625 3.50390625 C-1 1 -1 1 0 0 Z " fill="#717DBD" transform="translate(21,356)"/>
<path d="M0 0 C1.17949219 0.20367187 2.35898437 0.40734375 3.57421875 0.6171875 C4.47785156 0.78476563 5.38148437 0.95234375 6.3125 1.125 C5.9825 1.785 5.6525 2.445 5.3125 3.125 C-5.24558656 2.16144647 -5.24558656 2.16144647 -9.6875 1.125 C-5.84419804 -1.43720131 -4.45559323 -0.79406612 0 0 Z " fill="#7C84B5" transform="translate(34.6875,120.875)"/>
<path d="M0 0 C3.3 0.33 6.6 0.66 10 1 C5.8204355 3.78637633 3.85331323 2.79562512 -1 2 C-0.67 1.34 -0.34 0.68 0 0 Z " fill="#7881B8" transform="translate(284,498)"/>
<path d="M0 0 C0.66 0.33 1.32 0.66 2 1 C-0.31 3.31 -2.62 5.62 -5 8 C-5.33 7.01 -5.66 6.02 -6 5 C-4.02 3.35 -2.04 1.7 0 0 Z " fill="#8290C0" transform="translate(100,126)"/>
</svg>
