<?xml version="1.0" encoding="UTF-8"?>
<svg version="1.1" xmlns="http://www.w3.org/2000/svg" width="194" height="259">
<path d="M0 0 C64.02 0 128.04 0 194 0 C194 85.47 194 170.94 194 259 C129.98 259 65.96 259 0 259 C0 173.53 0 88.06 0 0 Z " fill="#FEFEFE" transform="translate(0,0)"/>
<path d="M0 0 C7.26 0 14.52 0 22 0 C22 50.49 22 100.98 22 153 C14.74 153 7.48 153 0 153 C0 102.51 0 52.02 0 0 Z " fill="#110553" transform="translate(33,78)"/>
<path d="M0 0 C7.26 0 14.52 0 22 0 C22 50.49 22 100.98 22 153 C14.74 153 7.48 153 0 153 C0 102.51 0 52.02 0 0 Z " fill="#110553" transform="translate(139,28)"/>
<path d="M0 0 C7.26 0 14.52 0 22 0 C22 15.18 22 30.36 22 46 C14.74 46 7.48 46 0 46 C0 30.82 0 15.64 0 0 Z " fill="#110653" transform="translate(104,173)"/>
<path d="M0 0 C7.26 0 14.52 0 22 0 C22 15.18 22 30.36 22 46 C14.74 46 7.48 46 0 46 C0 30.82 0 15.64 0 0 Z " fill="#120653" transform="translate(69,135)"/>
<path d="M0 0 C7.26 0 14.52 0 22 0 C22 15.18 22 30.36 22 46 C14.74 46 7.48 46 0 46 C0 30.82 0 15.64 0 0 Z " fill="#110652" transform="translate(104,78)"/>
<path d="M0 0 C7.26 0 14.52 0 22 0 C22 15.18 22 30.36 22 46 C14.74 46 7.48 46 0 46 C0 30.82 0 15.64 0 0 Z " fill="#110653" transform="translate(69,40)"/>
<path d="M0 0 C7.26 0 14.52 0 22 0 C22 6.93 22 13.86 22 21 C14.74 21 7.48 21 0 21 C0 14.07 0 7.14 0 0 Z " fill="#E60387" transform="translate(104,138)"/>
<path d="M0 0 C7.26 0 14.52 0 22 0 C22 6.93 22 13.86 22 21 C14.74 21 7.48 21 0 21 C0 14.07 0 7.14 0 0 Z " fill="#FFC900" transform="translate(69,100)"/>
</svg>
