<?xml version="1.0" encoding="UTF-8"?>
<svg version="1.1" xmlns="http://www.w3.org/2000/svg" width="512" height="512">
<path d="M0 0 C2.48661959 -0.00435269 4.97323784 -0.00953769 7.45985413 -0.01548767 C13.48835337 -0.02744726 19.51678713 -0.03003621 25.54529223 -0.02768741 C30.4514009 -0.0258968 35.35749614 -0.02766972 40.26360321 -0.03191185 C40.96465067 -0.03250704 41.66569813 -0.03310223 42.38798945 -0.03371545 C43.81266707 -0.03492734 45.2373447 -0.03614147 46.66202232 -0.03735783 C59.993193 -0.04820945 73.32433831 -0.04608234 86.6555104 -0.03997298 C98.81646738 -0.03480753 110.97734418 -0.04605371 123.13828531 -0.0650712 C135.66271395 -0.08450505 148.18710477 -0.09269581 160.71154857 -0.08894795 C167.72796568 -0.08704409 174.74431459 -0.08944319 181.7607193 -0.10366249 C188.36330666 -0.11690911 194.96576106 -0.1142414 201.56835747 -0.1012516 C203.98006432 -0.09889892 206.39178262 -0.10157309 208.80347633 -0.10987473 C224.90986462 -0.16128312 240.79941585 0.23121483 256.07324219 5.9621582 C256.76619385 6.21562012 257.45914551 6.46908203 258.1730957 6.73022461 C282.25186522 15.9122694 302.10995651 34.67554926 312.76074219 58.0871582 C318.81243054 71.97464465 321.53982343 86.56817273 321.52618408 101.68283081 C321.53064077 103.23576912 321.53064077 103.23576912 321.53518748 104.82007992 C321.54384578 108.28264942 321.54538033 111.74518422 321.546875 115.20776367 C321.55150533 117.69349745 321.55653028 120.17923052 321.56192017 122.66496277 C321.57502838 129.41547573 321.58152371 136.16597518 321.58593082 142.91649771 C321.5886998 147.13875166 321.59293844 151.36100335 321.597435 155.58325577 C321.60962551 167.2929641 321.61992392 179.00267063 321.62331009 190.71238518 C321.62352966 191.46110364 321.62374922 192.20982211 321.62397544 192.98122901 C321.62419372 193.73166124 321.624412 194.48209347 321.62463689 195.25526607 C321.62508034 196.77572751 321.6255269 198.29618895 321.62597656 199.81665039 C321.62619799 200.57083937 321.62641942 201.32502835 321.62664756 202.10207154 C321.63058927 214.30220481 321.64802507 226.50227812 321.67133608 238.70238827 C321.69512279 251.25374207 321.70751533 263.80506589 321.70867801 276.35644257 C321.70959089 283.3930762 321.71524452 290.42963177 321.73349762 297.46624374 C321.75062876 304.09336563 321.75209685 310.72036647 321.74335861 317.3475132 C321.74259222 319.76889378 321.74687786 322.19028253 321.75681686 324.61164284 C321.88556001 357.9541407 314.38821862 385.39592204 291.19824219 409.9621582 C267.33805856 433.07987501 237.62559309 437.58622097 205.77148438 437.54931641 C203.28486478 437.5536691 200.79824653 437.5588541 198.31163025 437.56480408 C192.28313101 437.57676367 186.25469724 437.57935262 180.22619215 437.57700381 C175.32008347 437.57521321 170.41398824 437.57698612 165.50788116 437.58122826 C164.80683371 437.58182345 164.10578625 437.58241863 163.38349493 437.58303186 C161.9588173 437.58424375 160.53413968 437.58545788 159.10946205 437.58667424 C145.77829138 437.59752586 132.44714606 437.59539875 119.11597398 437.58928939 C106.95501699 437.58412393 94.7941402 437.59537011 82.63319907 437.61438761 C70.10877042 437.63382145 57.58437961 437.64201222 45.05993581 437.63826436 C38.0435187 437.6363605 31.02716978 437.6387596 24.01076508 437.6529789 C17.40817771 437.66622552 10.80572332 437.66355781 4.20312691 437.65056801 C1.79142005 437.64821532 -0.62029825 437.6508895 -3.03199196 437.65919113 C-19.13838025 437.71059952 -35.02793148 437.31810158 -50.30175781 431.5871582 C-50.99470947 431.33369629 -51.68766113 431.08023437 -52.40161133 430.8190918 C-76.48038084 421.63704701 -96.33847213 402.87376715 -106.98925781 379.4621582 C-113.04094616 365.57467176 -115.76833906 350.98114367 -115.75469971 335.8664856 C-115.75767083 334.83119339 -115.76064195 333.79590118 -115.76370311 332.72923648 C-115.7723614 329.26666699 -115.77389595 325.80413219 -115.77539062 322.34155273 C-115.78002095 319.85581896 -115.7850459 317.37008589 -115.79043579 314.88435364 C-115.80354401 308.13384068 -115.81003934 301.38334122 -115.81444645 294.6328187 C-115.81721543 290.41056475 -115.82145406 286.18831306 -115.82595062 281.96606064 C-115.83814113 270.2563523 -115.84843954 258.54664577 -115.85182571 246.83693123 C-115.85204528 246.08821276 -115.85226485 245.3394943 -115.85249107 244.56808739 C-115.85270934 243.81765516 -115.85292762 243.06722293 -115.85315251 242.29405034 C-115.85359597 240.77358889 -115.85404253 239.25312745 -115.85449219 237.73266602 C-115.85471362 236.97847704 -115.85493505 236.22428806 -115.85516319 235.44724487 C-115.8591049 223.2471116 -115.8765407 211.04703828 -115.89985171 198.84692813 C-115.92363842 186.29557434 -115.93603095 173.74425052 -115.93719363 161.19287384 C-115.93810651 154.15624021 -115.94376015 147.11968463 -115.96201324 140.08307266 C-115.97914439 133.45595077 -115.98061248 126.82894993 -115.97187424 120.20180321 C-115.97110785 117.78042263 -115.97539349 115.35903387 -115.98533249 112.93767357 C-116.11407563 79.5951757 -108.61673424 52.15339436 -85.42675781 27.5871582 C-61.56657419 4.4694414 -31.85410871 -0.03690456 0 0 Z " fill="#48D68B" transform="translate(153.6142578125,39.725341796875)"/>
<path d="M0 0 C2.21374435 -0.00350554 4.42748617 -0.00916898 6.64122009 -0.01681519 C12.62456299 -0.03100784 18.60744328 -0.01405696 24.59074187 0.00946999 C30.86455432 0.02964207 37.13834875 0.02369625 43.41218567 0.0213623 C53.94250272 0.0214158 64.47266964 0.04100132 75.00292969 0.07324219 C85.82100943 0.10635161 96.63890186 0.12049539 107.45703125 0.11425781 C120.52293907 0.10676116 133.58876041 0.11416085 146.65465736 0.13591003 C151.63490256 0.14407181 156.61510658 0.14679584 161.59535789 0.1452179 C167.46008215 0.14433748 173.32458359 0.15859767 179.18924904 0.18444443 C181.33823186 0.19159157 183.48723841 0.19369687 185.63623047 0.19032669 C188.5754097 0.18659719 191.5139439 0.20141051 194.45304871 0.2208252 C195.72047866 0.21283331 195.72047866 0.21283331 197.01351327 0.20467997 C208.07523275 0.33025808 216.53672633 4.75680403 224.72192383 11.99023438 C232.76002366 21.11456392 236.51693789 28.81685506 236.40864563 41.14086914 C236.41262004 42.0569246 236.41659444 42.97298006 236.42068928 43.91679478 C236.43025658 46.96357153 236.41852791 50.00987745 236.40673828 53.05664062 C236.40916808 55.25023572 236.41288922 57.44382971 236.4178009 59.63742065 C236.42718771 65.57951068 236.41780293 71.52143534 236.40446877 77.46351242 C236.39313145 83.68929816 236.39726355 89.91507604 236.3992157 96.14086914 C236.40009795 106.59491551 236.38910389 117.04890104 236.37060547 127.50292969 C236.35160342 138.24448609 236.34451854 148.98596705 236.35009766 159.72753906 C236.35681184 172.69271412 236.35349605 185.65784539 236.34099388 198.62301636 C236.33635597 203.56697204 236.33547055 208.51090724 236.33757973 213.4548645 C236.3394669 219.27927658 236.33132561 225.10359223 236.31551933 230.92798233 C236.31128615 233.06245652 236.31041941 235.19694052 236.31320953 237.33141708 C236.31644614 240.25091619 236.30731226 243.17012984 236.29512024 246.08959961 C236.29889956 246.92881738 236.30267889 247.76803514 236.30657274 248.63268375 C236.22294489 259.99849214 233.14540271 268.69725882 225.65942383 277.36523438 C224.79317383 278.10773438 223.92692383 278.85023438 223.03442383 279.61523438 C222.47239258 280.10636719 221.91036133 280.5975 221.33129883 281.10351562 C209.51676123 290.78087061 196.72462766 290.1926661 182.21411133 290.1328125 C180.00375916 290.13823879 177.7934106 290.14536429 175.58306885 290.15405273 C169.60374263 290.1722285 163.62469368 290.16524218 157.64536285 290.15253639 C151.37514014 290.14237897 145.10494048 290.15180968 138.8347168 290.15808105 C127.6333348 290.16581445 116.43205417 290.15341737 105.23069644 290.13304371 C95.09294442 290.11517486 84.95537567 290.11827964 74.81762695 290.13671875 C63.01955207 290.15816798 51.22156637 290.16606996 39.42347145 290.1542697 C33.18744129 290.1480474 26.95153711 290.1471644 20.71551514 290.16041565 C14.85158532 290.17200679 8.98800012 290.16388851 3.12410736 290.14083862 C0.97757285 290.135569 -1.16899089 290.13703521 -3.31551361 290.14588928 C-18.25185273 290.20179898 -30.72495338 289.68586665 -41.96557617 278.61523438 C-53.40573447 265.544004 -53.54898923 251.42300594 -53.46728516 234.95678711 C-53.47107333 232.77584485 -53.47657746 230.594905 -53.48365784 228.41397095 C-53.49756375 222.51939957 -53.4864771 216.62512168 -53.46994662 210.73056674 C-53.45604595 204.54710612 -53.46256184 198.36366167 -53.46607971 192.18019104 C-53.46877766 181.79952289 -53.45534117 171.41897064 -53.43212891 161.03833008 C-53.40551482 149.05376255 -53.40377588 137.06948092 -53.41551727 125.08488697 C-53.4263129 113.532636 -53.42009439 101.98045475 -53.40596199 90.4282093 C-53.40021841 85.52218023 -53.40027203 80.61620245 -53.40502739 75.71017265 C-53.40981526 69.92917153 -53.39962052 64.14838125 -53.37807274 58.3674202 C-53.3725296 56.25152485 -53.37201671 54.13560913 -53.3770256 52.01971245 C-53.40978671 36.19024471 -52.92980309 24.00699174 -41.96557617 11.61523438 C-29.95808822 -0.19254484 -15.74836022 -0.10518026 0 0 Z " fill="#010101" transform="translate(164.965576171875,111.384765625)"/>
<path d="M0 0 C2.48661959 -0.00435269 4.97323784 -0.00953769 7.45985413 -0.01548767 C13.48835337 -0.02744726 19.51678713 -0.03003621 25.54529223 -0.02768741 C30.4514009 -0.0258968 35.35749614 -0.02766972 40.26360321 -0.03191185 C40.96465067 -0.03250704 41.66569813 -0.03310223 42.38798945 -0.03371545 C43.81266707 -0.03492734 45.2373447 -0.03614147 46.66202232 -0.03735783 C59.993193 -0.04820945 73.32433831 -0.04608234 86.6555104 -0.03997298 C98.81646738 -0.03480753 110.97734418 -0.04605371 123.13828531 -0.0650712 C135.66271395 -0.08450505 148.18710477 -0.09269581 160.71154857 -0.08894795 C167.72796568 -0.08704409 174.74431459 -0.08944319 181.7607193 -0.10366249 C188.36330666 -0.11690911 194.96576106 -0.1142414 201.56835747 -0.1012516 C203.98006432 -0.09889892 206.39178262 -0.10157309 208.80347633 -0.10987473 C224.90986462 -0.16128312 240.79941585 0.23121483 256.07324219 5.9621582 C256.76619385 6.21562012 257.45914551 6.46908203 258.1730957 6.73022461 C282.25186522 15.9122694 302.10995651 34.67554926 312.76074219 58.0871582 C318.81243054 71.97464465 321.53982343 86.56817273 321.52618408 101.68283081 C321.53064077 103.23576912 321.53064077 103.23576912 321.53518748 104.82007992 C321.54384578 108.28264942 321.54538033 111.74518422 321.546875 115.20776367 C321.55150533 117.69349745 321.55653028 120.17923052 321.56192017 122.66496277 C321.57502838 129.41547573 321.58152371 136.16597518 321.58593082 142.91649771 C321.5886998 147.13875166 321.59293844 151.36100335 321.597435 155.58325577 C321.60962551 167.2929641 321.61992392 179.00267063 321.62331009 190.71238518 C321.62352966 191.46110364 321.62374922 192.20982211 321.62397544 192.98122901 C321.62419372 193.73166124 321.624412 194.48209347 321.62463689 195.25526607 C321.62508034 196.77572751 321.6255269 198.29618895 321.62597656 199.81665039 C321.62619799 200.57083937 321.62641942 201.32502835 321.62664756 202.10207154 C321.63058927 214.30220481 321.64802507 226.50227812 321.67133608 238.70238827 C321.69512279 251.25374207 321.70751533 263.80506589 321.70867801 276.35644257 C321.70959089 283.3930762 321.71524452 290.42963177 321.73349762 297.46624374 C321.75062876 304.09336563 321.75209685 310.72036647 321.74335861 317.3475132 C321.74259222 319.76889378 321.74687786 322.19028253 321.75681686 324.61164284 C321.88556001 357.9541407 314.38821862 385.39592204 291.19824219 409.9621582 C267.33805856 433.07987501 237.62559309 437.58622097 205.77148438 437.54931641 C203.28486478 437.5536691 200.79824653 437.5588541 198.31163025 437.56480408 C192.28313101 437.57676367 186.25469724 437.57935262 180.22619215 437.57700381 C175.32008347 437.57521321 170.41398824 437.57698612 165.50788116 437.58122826 C164.80683371 437.58182345 164.10578625 437.58241863 163.38349493 437.58303186 C161.9588173 437.58424375 160.53413968 437.58545788 159.10946205 437.58667424 C145.77829138 437.59752586 132.44714606 437.59539875 119.11597398 437.58928939 C106.95501699 437.58412393 94.7941402 437.59537011 82.63319907 437.61438761 C70.10877042 437.63382145 57.58437961 437.64201222 45.05993581 437.63826436 C38.0435187 437.6363605 31.02716978 437.6387596 24.01076508 437.6529789 C17.40817771 437.66622552 10.80572332 437.66355781 4.20312691 437.65056801 C1.79142005 437.64821532 -0.62029825 437.6508895 -3.03199196 437.65919113 C-19.13838025 437.71059952 -35.02793148 437.31810158 -50.30175781 431.5871582 C-50.99470947 431.33369629 -51.68766113 431.08023437 -52.40161133 430.8190918 C-76.48038084 421.63704701 -96.33847213 402.87376715 -106.98925781 379.4621582 C-113.04094616 365.57467176 -115.76833906 350.98114367 -115.75469971 335.8664856 C-115.75767083 334.83119339 -115.76064195 333.79590118 -115.76370311 332.72923648 C-115.7723614 329.26666699 -115.77389595 325.80413219 -115.77539062 322.34155273 C-115.78002095 319.85581896 -115.7850459 317.37008589 -115.79043579 314.88435364 C-115.80354401 308.13384068 -115.81003934 301.38334122 -115.81444645 294.6328187 C-115.81721543 290.41056475 -115.82145406 286.18831306 -115.82595062 281.96606064 C-115.83814113 270.2563523 -115.84843954 258.54664577 -115.85182571 246.83693123 C-115.85204528 246.08821276 -115.85226485 245.3394943 -115.85249107 244.56808739 C-115.85270934 243.81765516 -115.85292762 243.06722293 -115.85315251 242.29405034 C-115.85359597 240.77358889 -115.85404253 239.25312745 -115.85449219 237.73266602 C-115.85471362 236.97847704 -115.85493505 236.22428806 -115.85516319 235.44724487 C-115.8591049 223.2471116 -115.8765407 211.04703828 -115.89985171 198.84692813 C-115.92363842 186.29557434 -115.93603095 173.74425052 -115.93719363 161.19287384 C-115.93810651 154.15624021 -115.94376015 147.11968463 -115.96201324 140.08307266 C-115.97914439 133.45595077 -115.98061248 126.82894993 -115.97187424 120.20180321 C-115.97110785 117.78042263 -115.97539349 115.35903387 -115.98533249 112.93767357 C-116.11407563 79.5951757 -108.61673424 52.15339436 -85.42675781 27.5871582 C-61.56657419 4.4694414 -31.85410871 -0.03690456 0 0 Z M-37.61425781 13.2746582 C-38.674783 13.55392529 -39.73530819 13.83319237 -40.8279705 14.12092209 C-62.07084615 20.05806805 -81.12757835 37.26653152 -91.89550781 56.1574707 C-99.40345106 70.0981033 -103.76918581 84.55986874 -103.75469971 100.42417908 C-103.75767083 101.44369378 -103.76064195 102.46320849 -103.76370311 103.51361758 C-103.77237212 106.92868307 -103.77389686 110.34371344 -103.77539062 113.75878906 C-103.78002018 116.20821202 -103.78504503 118.65763426 -103.79043579 121.10705566 C-103.80355115 127.76245528 -103.81004055 134.4178412 -103.81444645 141.07325053 C-103.817214 145.23467749 -103.82145238 149.39610214 -103.82595062 153.55752754 C-103.83814204 165.09477435 -103.84844036 176.63201932 -103.85182571 188.16927242 C-103.85204528 188.90715869 -103.85226485 189.64504496 -103.85249107 190.40529141 C-103.85270934 191.14488287 -103.85292762 191.88447432 -103.85315251 192.64647764 C-103.85359597 194.14501504 -103.85404253 195.64355244 -103.85449219 197.14208984 C-103.85471362 197.88540649 -103.85493505 198.62872313 -103.85516319 199.39456452 C-103.85910573 211.42151667 -103.8765437 223.44840802 -103.89985171 235.47533672 C-103.92362621 247.84358723 -103.9360304 260.21180733 -103.93719363 272.58008105 C-103.93810718 279.51606182 -103.9437779 286.45196345 -103.96201324 293.38792229 C-103.97912423 299.91899442 -103.98062147 306.44994366 -103.97187424 312.98104095 C-103.97110686 315.36939712 -103.97540674 317.75776152 -103.98533249 320.14609718 C-104.09387597 347.9071121 -98.87799204 372.00106407 -79.61425781 393.2746582 C-78.78023437 394.2027832 -77.94621094 395.1309082 -77.08691406 396.0871582 C-60.94076178 413.15798 -38.60101042 423.00888234 -15.11090088 423.73924839 C-9.61929904 423.82883725 -4.12984653 423.82472116 1.36230469 423.80810547 C3.83966584 423.81517664 6.31702267 423.82392666 8.79437256 423.83421326 C14.7849601 423.85426643 20.7752763 423.85576961 26.76586962 423.84758771 C31.64090835 423.84124996 36.51589195 423.84245901 41.39093018 423.84885979 C42.08866031 423.84976144 42.78639045 423.8506631 43.50526392 423.85159208 C44.92333843 423.85344355 46.34141292 423.85530611 47.75948739 423.85717963 C61.01106443 423.87369996 74.26253453 423.86508778 87.51410508 423.84819406 C99.60050424 423.83349761 111.68665477 423.84813489 123.77302194 423.87696422 C136.22979592 423.90645241 148.68645554 423.91730346 161.14326286 423.90778202 C162.55569329 423.90675962 163.96812373 423.905765 165.3805542 423.90479851 C166.07523131 423.90432212 166.76990842 423.90384573 167.48563635 423.9033549 C172.34652773 423.90120343 177.20730921 423.91092656 182.06817627 423.92556953 C188.62822087 423.94505833 195.18788065 423.93785507 201.74793243 423.91337013 C204.14351425 423.90839189 206.53913167 423.91177344 208.93468475 423.92451859 C222.63335794 423.99158846 234.51304334 423.12826539 247.38574219 418.2746582 C248.51950287 417.85507623 249.65326355 417.43549425 250.82138062 417.00319767 C263.69078639 412.06660381 273.73784929 404.90916984 283.38574219 395.2746582 C284.60970703 394.0680957 284.60970703 394.0680957 285.85839844 392.8371582 C301.6589115 376.35909312 309.53731225 353.55829513 309.53291321 331.01834106 C309.53842824 329.48990407 309.53842824 329.48990407 309.54405469 327.93058956 C309.55504922 324.52330128 309.55892821 321.11604356 309.56274414 317.70874023 C309.56901209 315.26241459 309.57565918 312.8160899 309.58265686 310.36976624 C309.60184991 303.03401403 309.6124807 295.69826993 309.62138465 288.36250001 C309.62577737 284.89992867 309.63114165 281.43735883 309.63637352 277.97478867 C309.65338091 266.45037466 309.66787198 254.92596156 309.67512226 243.40153694 C309.67703186 240.41490808 309.67895224 237.42827922 309.6809082 234.44165039 C309.68139194 233.69942387 309.68187568 232.95719735 309.68237408 232.19247912 C309.69066293 220.18632147 309.71598261 208.18026382 309.74848888 196.17414977 C309.78165765 183.82167854 309.7995799 171.46925797 309.8027665 159.11674201 C309.80492266 152.19186118 309.81353906 145.26712613 309.83922768 138.34228897 C309.86336768 131.82020781 309.86669914 125.29831687 309.85646629 118.77619743 C309.85597336 116.3935134 309.86222161 114.01081604 309.87602234 111.62817192 C310.01525371 86.14723889 305.21152321 64.71283963 289.38574219 44.2746582 C288.76054687 43.46512695 288.13535156 42.6555957 287.49121094 41.8215332 C273.63752594 25.1387799 254.22399692 15.6257471 233.38574219 11.2746582 C232.72515242 11.10369251 232.06456264 10.93272682 231.383955 10.75658035 C227.03935541 10.05824474 222.75014813 10.13021661 218.35647583 10.13421631 C217.33781555 10.13124519 216.31915527 10.12827406 215.2696265 10.12521291 C211.85145494 10.11653182 208.43331843 10.11501813 205.01513672 10.11352539 C202.56586126 10.10889665 200.11658652 10.10387191 197.66731262 10.09848022 C191.00772169 10.08535604 184.34814445 10.0788737 177.6885438 10.07446957 C173.5249446 10.07170327 169.36134772 10.06746507 165.19775009 10.06296539 C153.65625466 10.05077188 142.11476108 10.0404745 130.57325935 10.0370903 C129.46562727 10.03676095 129.46562727 10.03676095 128.33561879 10.03642495 C127.22540945 10.03609753 127.22540945 10.03609753 126.09277165 10.0357635 C124.59309777 10.03532005 123.09342388 10.03487348 121.59375 10.03442383 C120.84986786 10.0342024 120.10598571 10.03398097 119.33956169 10.03375283 C107.30607944 10.02981112 95.27265798 10.01237669 83.23919918 9.98906431 C70.86646027 9.96528954 58.49375178 9.95288558 46.12098968 9.95172238 C39.18164057 9.95080876 32.24237056 9.94513635 25.30304337 9.92690277 C18.76788062 9.90979122 12.2328407 9.90829476 5.69765282 9.91704178 C3.30768494 9.91780916 0.91770884 9.91350918 -1.47223854 9.90358353 C-13.89098614 9.85506069 -25.5629915 10.05138542 -37.61425781 13.2746582 Z " fill="#010402" transform="translate(153.6142578125,39.725341796875)"/>
<path d="M0 0 C67.87174721 0 67.87174721 0 81.734375 11.7265625 C90.25269644 20.27425746 92.35725749 30.28954239 92.375 41.9375 C92.39949219 42.77990234 92.42398438 43.62230469 92.44921875 44.49023438 C92.49431879 54.25439358 88.08544746 62.5134844 82 70 C71.3812536 80.49970215 56.20296761 83.24699834 41.87060547 83.18017578 C39.89278076 83.15286377 39.89278076 83.15286377 37.875 83.125 C33.62625 83.08375 29.3775 83.0425 25 83 C25 94.55 25 106.1 25 118 C16.75 118 8.5 118 0 118 C0 79.06 0 40.12 0 0 Z " fill="#F3F3F3" transform="translate(142,151)"/>
<path d="M0 0 C1.93359375 1.64453125 1.93359375 1.64453125 4.43359375 4.14453125 C3.84100091 7.57853081 2.65435528 9.34890663 0.30859375 11.89453125 C-0.31402344 12.5803125 -0.93664062 13.26609375 -1.578125 13.97265625 C-2.23425781 14.689375 -2.89039063 15.40609375 -3.56640625 16.14453125 C-4.88250692 17.64137302 -6.19518445 19.14123371 -7.50390625 20.64453125 C-8.52473958 21.81119792 -9.54557292 22.97786458 -10.56640625 24.14453125 C-13.47855787 22.78250043 -15.92544859 21.17986648 -18.50390625 19.26953125 C-26.61741024 13.82494304 -36.78159181 10.64036802 -46.56640625 12.14453125 C-55.82297935 14.36979562 -63.96604841 18.94222581 -69.44140625 26.89453125 C-75.1794193 37.21898379 -76.29099722 49.58471248 -73.39453125 60.984375 C-71.79813523 65.14855896 -69.22083069 68.59605785 -66.56640625 72.14453125 C-65.96828125 73.05203125 -65.37015625 73.95953125 -64.75390625 74.89453125 C-58.62977446 81.19363824 -50.13498994 84.10322661 -41.50390625 84.58203125 C-31.24089059 84.3561602 -21.96310172 80.3703098 -14.43359375 73.5 C-12.56640625 72.14453125 -12.56640625 72.14453125 -8.56640625 72.14453125 C-6.82714844 73.38208008 -6.82714844 73.38208008 -5.11328125 75.1015625 C-4.49453125 75.71966797 -3.87578125 76.33777344 -3.23828125 76.97460938 C-2.6040625 77.62880859 -1.96984375 78.28300781 -1.31640625 78.95703125 C-0.66671875 79.59962891 -0.01703125 80.24222656 0.65234375 80.90429688 C5.43359375 85.75083705 5.43359375 85.75083705 5.43359375 89.14453125 C-3.69209125 99.70836145 -17.84766731 106.66179886 -31.56640625 108.14453125 C-51.63148385 109.27143108 -67.01657736 107.33288288 -82.75390625 93.89453125 C-95.4441186 81.97883891 -102.18290238 66.71812255 -102.89892578 49.43823242 C-103.25813901 32.1567731 -97.18255847 16.82339946 -85.44140625 4.26953125 C-61.86968753 -17.74587041 -26.00965888 -18.8045479 0 0 Z " fill="#F1F1F1" transform="translate(347.56640625,161.85546875)"/>
<path d="M0 0 C34.98 0 69.96 0 106 0 C106 6.27 106 12.54 106 19 C71.02 19 36.04 19 0 19 C0 12.73 0 6.46 0 0 Z " fill="#F1F1F1" transform="translate(141,343)"/>
<path d="M0 0 C0.33 0 0.66 0 1 0 C1 4.62 1 9.24 1 14 C1.66 14 2.32 14 3 14 C5.68381859 77.73004134 5.68381859 77.73004134 -8 93 C-10.83769234 95.61168145 -13.79593682 97.85824654 -17 100 C-17.60972656 100.41121094 -18.21945312 100.82242188 -18.84765625 101.24609375 C-25.61262196 105.45300865 -32.91775816 106.32290927 -40.6875 106.625 C-41.55834229 106.66222168 -42.42918457 106.69944336 -43.32641602 106.73779297 C-63.86886538 107.48629629 -84.66562293 107.66285345 -105.17944336 106.26806641 C-108.90965698 106.03300008 -112.40821038 105.99689516 -116.11743164 106.48413086 C-124.25191835 107.33801543 -132.44020271 107.14289197 -140.609375 107.1328125 C-142.44440739 107.13399816 -144.27943959 107.13552117 -146.11447144 107.13735962 C-151.99299631 107.1410917 -157.87148223 107.13355096 -163.75 107.125 C-165.75917558 107.12273026 -167.7683512 107.12049234 -169.77752686 107.11828613 C-183.1851226 107.10174598 -196.59253303 107.06030741 -210 107 C-210.75242477 106.99680252 -211.50484955 106.99360504 -212.28007507 106.99031067 C-219.80407931 106.95788632 -227.32700426 106.90653518 -234.85021973 106.79046631 C-236.66939414 106.76393618 -238.48866837 106.74341806 -240.3079834 106.72955322 C-264.47786555 106.52233032 -264.47786555 106.52233032 -272.38134766 100.04980469 C-274 98 -274 98 -274 95 C-274.86625 94.835 -275.7325 94.67 -276.625 94.5 C-281.31487266 92.41561215 -283.44658646 89.3693505 -286 85 C-287.69657204 80.52721918 -288.23256237 76.76752853 -288 72 C-286.28604351 74.57093474 -285.0477166 76.96423503 -283.75 79.75 C-278.85628235 89.59483961 -272.07537812 95.45233176 -261.67120361 99.13877869 C-253.35658934 101.08928968 -244.67355492 100.55261399 -236.1796875 100.51757812 C-233.96933533 100.52300442 -231.75898678 100.53012991 -229.54864502 100.53881836 C-223.5693188 100.55699413 -217.59026985 100.55000781 -211.61093903 100.53730202 C-205.34071631 100.5271446 -199.07051666 100.5365753 -192.80029297 100.54284668 C-181.59891098 100.55058007 -170.39763034 100.53818299 -159.19627261 100.51780933 C-149.05852059 100.49994048 -138.92095184 100.50304527 -128.78320312 100.52148438 C-116.98512825 100.54293361 -105.18714254 100.55083558 -93.38904762 100.53903532 C-87.15301746 100.53281303 -80.91711328 100.53193003 -74.68109131 100.54518127 C-68.81716149 100.55677242 -62.9535763 100.54865413 -57.08968353 100.52560425 C-54.94314902 100.52033463 -52.79658528 100.52180084 -50.65006256 100.53065491 C-36.88532543 100.58217907 -25.57303343 100.42308837 -14.55859375 91.171875 C-13 90 -13 90 -11 90 C-10.731875 89.43667969 -10.46375 88.87335938 -10.1875 88.29296875 C-8.49629956 85.02739421 -6.45073621 82.00099957 -4.4375 78.92578125 C-0.20217611 70.30551605 -0.66094244 60.83895689 -0.5859375 51.46484375 C-0.56719524 49.97553979 -0.54761963 48.48624612 -0.5272522 46.9969635 C-0.47624746 43.10582581 -0.43645389 39.21465381 -0.39910889 35.32336426 C-0.358869 31.34114314 -0.30786856 27.35906081 -0.2578125 23.37695312 C-0.16142887 15.58473115 -0.07690586 7.79244116 0 0 Z " fill="#527526" transform="translate(401,300)"/>
<path d="M0 0 C6.1875 -0.0928125 6.1875 -0.0928125 12.5 -0.1875 C13.78455078 -0.21481201 15.06910156 -0.24212402 16.39257812 -0.27026367 C24.4012728 -0.32819838 30.00751717 0.48299995 36.875 4.8125 C40.62450499 8.67228455 41.12749859 12.66948645 41.375 17.875 C41.20997001 23.10880824 40.34712641 26.91026355 37 31 C29.12489261 36.9959802 21.94316026 37.7934292 12.3125 37.375 C8.249375 37.25125 4.18625 37.1275 0 37 C0 24.79 0 12.58 0 0 Z " fill="#080808" transform="translate(167,174)"/>
<path d="M0 0 C0.33 0 0.66 0 1 0 C1 4.62 1 9.24 1 14 C1.66 14 2.32 14 3 14 C5.68381859 77.73004134 5.68381859 77.73004134 -8 93 C-10.83769234 95.61168145 -13.79593682 97.85824654 -17 100 C-17.60972656 100.41121094 -18.21945312 100.82242188 -18.84765625 101.24609375 C-25.61262196 105.45300865 -32.91775816 106.32290927 -40.6875 106.625 C-41.55834229 106.66222168 -42.42918457 106.69944336 -43.32641602 106.73779297 C-63.86886538 107.48629629 -84.66562293 107.66285345 -105.17944336 106.26806641 C-108.8874815 106.03439751 -112.36315525 105.99310521 -116.04931641 106.48413086 C-124.56552849 107.37840255 -133.14695096 107.14343838 -141.69921875 107.1328125 C-143.6219738 107.13348758 -145.54472876 107.1344593 -147.46748352 107.13571167 C-151.48768938 107.13718081 -155.50787292 107.13506055 -159.52807617 107.13037109 C-164.6403441 107.12469361 -169.75255928 107.12794525 -174.86482525 107.13394356 C-178.83462407 107.13758692 -182.80441075 107.13639306 -186.77420998 107.13381577 C-188.65696024 107.13315589 -190.53971165 107.13394145 -192.42246056 107.13629532 C-203.32889664 107.14693533 -214.12745719 106.90732247 -225 106 C-225 105.67 -225 105.34 -225 105 C-202.19325853 104.29016334 -179.39472078 103.81290364 -156.57824135 103.58500862 C-151.51948961 103.53428005 -146.46081847 103.47728292 -141.40214539 103.41929626 C-127.05210943 103.25548834 -112.70203902 103.09612285 -98.35180664 102.95043945 C-90.35171894 102.86917134 -82.3517354 102.7811405 -74.35180539 102.68557256 C-69.33158258 102.62595575 -64.31136671 102.57446425 -59.29099524 102.52918065 C-56.17992359 102.49909563 -53.06898705 102.46103094 -49.95803261 102.42072487 C-48.52502951 102.40372399 -47.09198392 102.38993112 -45.65891647 102.37970352 C-31.88416134 102.39827928 -31.88416134 102.39827928 -19 98 C-18.64587656 96.67203709 -18.31478446 95.33783393 -18 94 C-13.66666667 90 -13.66666667 90 -11 90 C-10.731875 89.43667969 -10.46375 88.87335938 -10.1875 88.29296875 C-8.49629956 85.02739421 -6.45073621 82.00099957 -4.4375 78.92578125 C-0.20217611 70.30551605 -0.66094244 60.83895689 -0.5859375 51.46484375 C-0.56719524 49.97553979 -0.54761963 48.48624612 -0.5272522 46.9969635 C-0.47624746 43.10582581 -0.43645389 39.21465381 -0.39910889 35.32336426 C-0.358869 31.34114314 -0.30786856 27.35906081 -0.2578125 23.37695312 C-0.16142887 15.58473115 -0.07690586 7.79244116 0 0 Z " fill="#BDCE38" transform="translate(401,300)"/>
<path d="M0 0 C0.66 0 1.32 0 2 0 C1.68163539 1.0301537 1.68163539 1.0301537 1.35683918 2.08111858 C-1.59648599 12.93361149 -1.41629233 23.5219646 -1.37231445 34.69262695 C-1.37474632 36.86560235 -1.37846946 39.03857663 -1.38337708 41.21154785 C-1.39273726 47.08156027 -1.38340075 52.95140451 -1.37004495 58.82140374 C-1.35867319 64.98650125 -1.36284248 71.15159117 -1.36479187 77.31669617 C-1.36567324 87.670387 -1.35462899 98.02401216 -1.33618164 108.37768555 C-1.31503329 120.31496797 -1.31150158 132.25215415 -1.3177436 144.18945152 C-1.32345742 155.71017295 -1.31776679 167.23086079 -1.30657005 178.75157738 C-1.30194902 183.63671686 -1.30103936 188.52183564 -1.3031559 193.4069767 C-1.30505287 199.17154706 -1.29682761 204.93602082 -1.2810955 210.70056915 C-1.27688722 212.80469297 -1.27597851 214.90882665 -1.27878571 217.0129528 C-1.29216932 228.8484299 -0.83897713 240.29278664 1 252 C-1.60774762 248.79678245 -2.34789916 247.1747899 -2 243 C-2.66 243 -3.32 243 -4 243 C-5.18267036 238.32821273 -5.14821581 233.80467648 -5.14717102 229.02026367 C-5.15084771 228.11453173 -5.1545244 227.20879978 -5.1583125 226.27562141 C-5.16932802 223.23973143 -5.1731896 220.20387571 -5.17700195 217.16796875 C-5.1832683 214.99130648 -5.18991526 212.81464527 -5.19691467 210.63798523 C-5.21794027 203.48783104 -5.22831693 196.33767668 -5.23828125 189.1875 C-5.24232962 186.7234089 -5.24644657 184.25931792 -5.25063133 181.79522705 C-5.26968115 170.21574993 -5.28391159 158.63627917 -5.2922433 147.0567894 C-5.30200975 133.70470965 -5.3283148 120.35281369 -5.36874419 107.0007906 C-5.39894263 96.67190825 -5.4137158 86.34307339 -5.41702431 76.01414776 C-5.41937088 69.84947528 -5.4282801 63.68498022 -5.45348549 57.52035522 C-5.47683574 51.7156356 -5.48097138 45.91120934 -5.47072411 40.10645485 C-5.4702303 37.98332555 -5.47650462 35.86018146 -5.49028015 33.73709679 C-5.56358074 21.76394026 -5.48157853 10.96315706 0 0 Z " fill="#27C36C" transform="translate(114,132)"/>
<path d="M0 0 C5.26363449 1.75454483 7.60071784 6.65683911 10.125 11.375 C17.10901199 26.21094585 15.2950571 43.91937502 15.265625 59.91796875 C15.26697431 62.51011695 15.26891706 65.1022649 15.27142334 67.69441223 C15.27435629 73.09618813 15.27032672 78.49789174 15.26074219 83.8996582 C15.24980171 90.13755285 15.25343387 96.3753173 15.264395 102.61320895 C15.27456191 108.64191562 15.27349171 114.67055863 15.26763153 120.69927406 C15.26629715 123.2553948 15.26793533 125.81151888 15.27259064 128.36763573 C15.27765587 131.92641495 15.26994827 135.48494088 15.25878906 139.04370117 C15.26283752 140.0997908 15.26688599 141.15588043 15.27105713 142.24397278 C15.26541748 143.21225006 15.25977783 144.18052734 15.25396729 145.17814636 C15.25321323 146.01777514 15.25245918 146.85740393 15.25168228 147.72247601 C14.97505394 150.22574191 14.1874623 151.80145421 13 154 C12.63675609 156.60750922 12.63675609 156.60750922 12.5859375 159.421875 C12.52792969 160.95908203 12.52792969 160.95908203 12.46875 162.52734375 C12.42234375 164.12255859 12.42234375 164.12255859 12.375 165.75 C12.31699219 167.36841797 12.31699219 167.36841797 12.2578125 169.01953125 C12.16365369 171.67951775 12.07802613 174.3394994 12 177 C11.67 177 11.34 177 11 177 C10.99853344 176.20100375 10.99706688 175.4020075 10.99555588 174.57879925 C10.95844676 155.10547938 10.89937768 135.6323383 10.81609726 116.15915966 C10.77634815 106.74192724 10.74393472 97.32477788 10.72900391 87.9074707 C10.71596595 79.6959342 10.68894673 71.48458078 10.64538693 63.2731474 C10.6228202 58.9283079 10.60708643 54.58369382 10.60811615 50.23879051 C10.60886561 46.14205532 10.59080116 42.04581751 10.55883217 37.94921112 C10.55037303 36.45256382 10.54855592 34.95586048 10.55419731 33.45919991 C10.59332997 21.47283847 8.95640932 11.90257566 1.171875 2.4609375 C0 1 0 1 0 0 Z " fill="#05A3BF" transform="translate(390,123)"/>
<path d="M0 0 C0.66 0 1.32 0 2 0 C1.78738872 0.67956347 1.57477743 1.35912695 1.35572338 2.05928326 C-1.66962342 13.10329573 -1.40112187 23.94440641 -1.34057617 35.3137207 C-1.33972871 37.55206287 -1.34020736 39.79040587 -1.34190369 42.02874756 C-1.34276042 48.07124754 -1.32518694 54.11356695 -1.30418181 60.15602517 C-1.28536111 66.48341713 -1.28366033 72.81081374 -1.28010559 79.13822937 C-1.27185647 89.74737594 -1.25314904 100.35646373 -1.22631836 110.96557617 C-1.19872729 121.88679682 -1.17751852 132.80799953 -1.16479492 143.72924805 C-1.16400675 144.40388064 -1.16321858 145.07851323 -1.16240653 145.77358923 C-1.15849105 149.15845505 -1.15470001 152.54332099 -1.15097082 155.92818701 C-1.11993542 183.95217039 -1.06692791 211.97608109 -1 240 C-4.07402487 236.92597513 -3.30164325 233.29826175 -3.3053894 229.17102051 C-3.31400407 228.24531738 -3.32261873 227.31961425 -3.33149445 226.36585951 C-3.35799622 223.24455031 -3.37013195 220.1233487 -3.38232422 217.00195312 C-3.39816127 214.77160062 -3.4148177 212.5412538 -3.43223572 210.31091309 C-3.47678607 204.23620615 -3.50829817 198.16149746 -3.53644323 192.08669472 C-3.5546368 188.29182517 -3.57564891 184.4969822 -3.59769058 180.70213318 C-3.67059376 168.14768238 -3.73517444 155.59322692 -3.78904222 143.03868252 C-3.7919493 142.36140557 -3.79485639 141.68412862 -3.79785156 140.98632812 C-3.80076042 140.30822206 -3.80366927 139.630116 -3.80666627 138.93146127 C-3.85425413 127.95804989 -3.92188837 116.98486619 -3.99868761 106.01162392 C-4.07733603 94.74082902 -4.14045239 83.47003202 -4.18866169 72.19905806 C-4.21598061 65.87287999 -4.24957563 59.54688888 -4.29885483 53.22084045 C-4.34470084 47.26521268 -4.37105557 41.30980909 -4.38261604 35.35401917 C-4.3901259 33.17155437 -4.4045019 30.9891004 -4.42636299 28.80673218 C-4.45520067 25.81915857 -4.45888583 22.83253786 -4.45651245 19.84484863 C-4.47069053 18.98820508 -4.4848686 18.13156152 -4.49947631 17.24895906 C-4.45435553 10.8301569 -2.7018993 5.79224822 0 0 Z " fill="#219B54" transform="translate(114,132)"/>
<path d="M0 0 C4.38889325 0.66498383 7.9811485 2.18757677 12 4 C12 4.66 12 5.32 12 6 C49.95 6 87.9 6 127 6 C127 6.33 127 6.66 127 7 C117.36558588 7.26575779 107.73105658 7.52676637 98.09636593 7.78230286 C93.61878761 7.90119634 89.1412584 8.02150787 84.66381836 8.14550781 C73.5728935 8.45179131 62.48181305 8.72448752 51.3889389 8.94995117 C49.06153973 8.99871073 46.73430644 9.05258708 44.40704346 9.10742188 C40.21030226 9.20349412 36.01392856 9.260779 31.81640625 9.3125 C30.6129808 9.342229 29.40955536 9.37195801 28.16966248 9.40258789 C19.8167269 9.45857296 11.67407469 8.49721653 4 5 C1.60084534 2.35668945 1.60084534 2.35668945 0 0 Z " fill="#64BC4B" transform="translate(127,397)"/>
<path d="M0 0 C0 0.66 0 1.32 0 2 C-8.82975606 7.5861722 -17.16534509 7.17961325 -27.43359375 7.31640625 C-28.77291334 7.33718072 -30.11222807 7.35827076 -31.45153809 7.37965393 C-35.03755318 7.43544003 -38.62362713 7.48498902 -42.20975876 7.53263092 C-44.44137965 7.56255202 -46.67297609 7.59391273 -48.90457153 7.62567139 C-68.24834044 7.89931118 -87.59160986 8.10106661 -106.9375 8.125 C-108.36338943 8.12888229 -108.36338943 8.12888229 -109.81808472 8.13284302 C-122.24546928 8.15988359 -134.59670774 7.77836399 -147 7 C-147 6.67 -147 6.34 -147 6 C-146.33169065 5.99945523 -145.66338129 5.99891047 -144.97482014 5.99834919 C-128.6635751 5.98333868 -112.35265464 5.94072024 -96.04156971 5.86790943 C-88.15341454 5.83335352 -80.26543243 5.80791632 -72.37719727 5.80444336 C-65.49648898 5.80139031 -58.61608962 5.78072109 -51.73550051 5.73947543 C-48.09699264 5.71826429 -44.45892261 5.70548276 -40.82035255 5.71384621 C-36.74414836 5.72288378 -32.66909742 5.69256592 -28.59301758 5.65942383 C-27.40545868 5.66804947 -26.21789978 5.67667511 -24.99435425 5.68556213 C-17.42091858 5.58297045 -11.51943323 4.07579824 -4.56118298 1.07056713 C-2 0 -2 0 0 0 Z " fill="#82A131" transform="translate(382,396)"/>
<path d="M0 0 C5.19103569 0.01046622 10.38207679 0.01484601 15.57312012 0.01983643 C25.65125858 0.03037274 35.72937416 0.04730152 45.80749512 0.06866455 C45.80749512 0.39866455 45.80749512 0.72866455 45.80749512 1.06866455 C24.37003489 3.73325028 2.86959434 3.33779098 -18.69091797 3.26428223 C-22.70424876 3.25342833 -26.71754543 3.25381512 -30.73088837 3.25442028 C-34.64490695 3.25414643 -38.55890422 3.24863246 -42.47291565 3.24141884 C-44.31938009 3.23827797 -46.16584689 3.23627574 -48.01231384 3.23552513 C-58.78429222 3.22633495 -69.45356666 2.95411786 -80.19250488 2.06866455 C-80.19250488 1.73866455 -80.19250488 1.40866455 -80.19250488 1.06866455 C-53.45706557 0.11843521 -26.75046034 -0.05992051 0 0 Z " fill="#7ED24F" transform="translate(256.1925048828125,403.93133544921875)"/>
<path d="M0 0 C1.71395649 2.57093474 2.9522834 4.96423503 4.25 7.75 C9.57469737 18.46185454 16.58884158 23.37746508 27.8046875 27.265625 C28.52914062 27.50796875 29.25359375 27.7503125 30 28 C30 28.66 30 29.32 30 30 C60.36 30 90.72 30 122 30 C122 30.33 122 30.66 122 31 C90.32 31 58.64 31 26 31 C26 30.34 26 29.68 26 29 C25.319375 28.896875 24.63875 28.79375 23.9375 28.6875 C20.37084011 27.85274981 17.33777806 26.50527246 14 25 C14 24.34 14 23.68 14 23 C13.13375 22.835 12.2675 22.67 11.375 22.5 C6.68512734 20.41561215 4.55341354 17.3693505 2 13 C0.30342796 8.52721918 -0.23256237 4.76752853 0 0 Z " fill="#489A41" transform="translate(113,372)"/>
<path d="M0 0 C0.33 0 0.66 0 1 0 C1 4.62 1 9.24 1 14 C1.66 14 2.32 14 3 14 C3.19473488 18.35536482 3.37301533 22.71102538 3.53710938 27.06762695 C3.59493898 28.54469148 3.6569977 30.02159753 3.72363281 31.49829102 C4.07511066 39.35062555 4.20860888 46.79526305 2.52099609 54.53100586 C1.51310176 59.30740484 1.21145884 64.19322334 0.7890625 69.05078125 C0.59302343 71.04159185 0.30481744 73.02292021 0 75 C-0.99 75.495 -0.99 75.495 -2 76 C-1.84152588 74.8354126 -1.68305176 73.6708252 -1.51977539 72.47094727 C-0.74847529 65.4898276 -0.76575892 58.4799558 -0.68359375 51.46484375 C-0.66298298 49.97554502 -0.64198556 48.4862516 -0.62062073 46.9969635 C-0.56582518 43.10580788 -0.51623121 39.21460327 -0.46777344 35.32336426 C-0.41724487 31.34118365 -0.36172367 27.35907287 -0.30664062 23.37695312 C-0.19958035 15.5846948 -0.09802305 7.79237781 0 0 Z " fill="#7DB85B" transform="translate(401,300)"/>
<path d="M0 0 C0.33 0 0.66 0 1 0 C1.58232854 11.27379756 2.06140357 22.53558065 2.2109375 33.82421875 C2.2252179 34.80029083 2.23949829 35.77636292 2.25421143 36.78201294 C2.31147535 40.76308443 2.36681082 44.74400009 2.40136719 48.7253418 C2.30879722 63.13259806 2.30879722 63.13259806 5.46337891 77.08520508 C6 79 6 79 5 82 C3.14223235 78.86501708 2.79859524 76.62528568 3 73 C2.34 73 1.68 73 1 73 C0.05069871 69.00487066 -0.12113477 65.29164046 -0.11352539 61.19018555 C-0.11367142 60.52621262 -0.11381744 59.86223969 -0.1139679 59.17814636 C-0.11327483 56.99763651 -0.10551099 54.81721356 -0.09765625 52.63671875 C-0.09578992 51.1192886 -0.09436703 49.60185785 -0.09336853 48.08442688 C-0.08956032 44.10108765 -0.07974459 40.1177852 -0.06866455 36.13446045 C-0.05841389 32.06555682 -0.05386309 27.99664721 -0.04882812 23.92773438 C-0.03812074 15.95180609 -0.02106478 7.97590763 0 0 Z " fill="#42C75F" transform="translate(109,302)"/>
<path d="M0 0 C0.33 0 0.66 0 1 0 C1.58312547 16.24652354 1.20538969 30.09752847 -10 43 C-12.247926 45.18232505 -14.51843906 47.07552417 -17 49 C-17.66 48.67 -18.32 48.34 -19 48 C-17.948125 46.9790625 -17.948125 46.9790625 -16.875 45.9375 C-15.91306958 44.96186687 -14.95506612 43.98235373 -14 43 C-13.47277344 42.46890625 -12.94554687 41.9378125 -12.40234375 41.390625 C-8.35455995 37.05442417 -7.24716037 33.7561248 -6 28 C-5.50781982 27.5464917 -5.01563965 27.0929834 -4.50854492 26.62573242 C-2.35424205 24.30407797 -2.38330594 22.35767957 -2.05078125 19.23828125 C-1.92509766 18.12001953 -1.79941406 17.00175781 -1.66992188 15.84960938 C-1.55197266 14.68236328 -1.43402344 13.51511719 -1.3125 12.3125 C-1.18294922 11.13365234 -1.05339844 9.95480469 -0.91992188 8.74023438 C-0.60156714 5.82787806 -0.29543371 2.9147559 0 0 Z " fill="#B8D041" transform="translate(403,350)"/>
<path d="M0 0 C1.06087326 0.00015106 2.12174652 0.00030212 3.21476746 0.00045776 C4.3585939 0.01078033 5.50242035 0.02110291 6.6809082 0.03173828 C7.85305374 0.03456818 9.02519928 0.03739807 10.23286438 0.04031372 C13.98257588 0.05152325 17.73204994 0.0766295 21.48168945 0.10205078 C24.02139955 0.11207957 26.56111338 0.12120559 29.10083008 0.12939453 C35.3320311 0.15146512 41.56309332 0.18495039 47.79418945 0.22705078 C47.79418945 0.55705078 47.79418945 0.88705078 47.79418945 1.22705078 C29.00763656 3.52086804 10.643637 3.10103781 -8.20581055 2.22705078 C-4.88005533 0.00988064 -3.86974815 -0.0183836 0 0 Z " fill="#9DD347" transform="translate(254.205810546875,403.77294921875)"/>
<path d="M0 0 C1.72786328 0.00502757 3.45572798 0.00958824 5.18359375 0.01367188 C9.37243168 0.02457203 13.56119967 0.04176652 17.75 0.0625 C17.75 0.3925 17.75 0.7225 17.75 1.0625 C1.22772435 3.41084375 -14.61258654 2.94159886 -31.25 2.0625 C-31.25 1.7325 -31.25 1.4025 -31.25 1.0625 C-20.82852858 -0.09587658 -10.46725935 -0.0533941 0 0 Z " fill="#B7D841" transform="translate(321.25,403.9375)"/>
<path d="M0 0 C0.66 0.33 1.32 0.66 2 1 C1.21238281 1.57105469 0.42476562 2.14210938 -0.38671875 2.73046875 C-11.65010318 11.05368234 -22.03566663 20.39482852 -30 32 C-30 26.94301814 -26.10465871 23.78679111 -23 20 C-22.56816406 19.41992188 -22.13632813 18.83984375 -21.69140625 18.2421875 C-15.99975285 10.9015504 -7.66937578 5.11291719 0 0 Z " fill="#11A96B" transform="translate(95,62)"/>
<path d="M0 0 C0.33 0.66 0.66 1.32 1 2 C-2.46010949 10.92676649 -7.69628802 17.02983094 -15 23 C-15.66 22.67 -16.32 22.34 -17 22 C-15.948125 20.9790625 -15.948125 20.9790625 -14.875 19.9375 C-12.77255579 17.82304183 -10.73527489 15.66254239 -8.75 13.4375 C-7.99976563 12.60025391 -7.99976563 12.60025391 -7.234375 11.74609375 C-5.88407587 9.83601872 -5.4199406 8.28467682 -5 6 C-4.34 6 -3.68 6 -3 6 C-3 5.34 -3 4.68 -3 4 C-2.34 4 -1.68 4 -1 4 C-0.67 2.68 -0.34 1.36 0 0 Z " fill="#D9E33B" transform="translate(401,376)"/>
<path d="M0 0 C2 2 2 2 2.23046875 4.25 C2.0098444 18.36995872 2.0098444 18.36995872 1 23 C0.34 23.33 -0.32 23.66 -1 24 C-1.02887236 20.18751574 -1.04675492 16.3750593 -1.0625 12.5625 C-1.07087891 11.47388672 -1.07925781 10.38527344 -1.08789062 9.26367188 C-1.09111328 8.22919922 -1.09433594 7.19472656 -1.09765625 6.12890625 C-1.10289307 5.17056885 -1.10812988 4.21223145 -1.11352539 3.22485352 C-1 1 -1 1 0 0 Z " fill="#33BAAC" transform="translate(403,276)"/>
<path d="M0 0 C0.72265625 1.70703125 0.72265625 1.70703125 1 4 C-1.87440742 8.6348846 -5.24139315 12.46613721 -10.5 14.0625 C-11.325 14.041875 -12.15 14.02125 -13 14 C-8.375 9.125 -8.375 9.125 -5 8 C-3.94978897 6.15028304 -3.94978897 6.15028304 -3 4 C-2.02418241 2.64886795 -1.02970259 1.31053056 0 0 Z " fill="#8E9B2D" transform="translate(395,382)"/>
<path d="M0 0 C4.38889325 0.66498383 7.9811485 2.18757677 12 4 C12 4.66 12 5.32 12 6 C12.99 6.33 13.98 6.66 15 7 C12.66404762 6.68554487 10.33094534 6.3496418 8 6 C6.9171875 5.87625 6.9171875 5.87625 5.8125 5.75 C3.00969292 4.59021776 1.73131746 2.4114779 0 0 Z " fill="#54C355" transform="translate(127,397)"/>
<path d="M0 0 C0.66 0.33 1.32 0.66 2 1 C-1.96 4.96 -5.92 8.92 -10 13 C-10 8.41771462 -7.08388033 6.1816619 -4 3 C-1.625 1.0625 -1.625 1.0625 0 0 Z " fill="#042215" transform="translate(129,118)"/>
<path d="M0 0 C4.2967595 0.57342494 7.18479721 2.10158964 10.8125 4.4375 C11.78832031 5.05496094 12.76414062 5.67242187 13.76953125 6.30859375 C14.50558594 6.86675781 15.24164063 7.42492187 16 8 C16 8.66 16 9.32 16 10 C12.49371851 8.30947142 9.27361517 6.31590972 6 4.21875 C4.04503484 3.02744311 2.06124007 1.99381218 0 1 C0 0.67 0 0.34 0 0 Z " fill="#0497A5" transform="translate(374,113)"/>
<path d="M0 0 C4.8991349 1.29977048 9.37559575 2.92373687 14 5 C14 5.33 14 5.66 14 6 C7.88225104 6.49940808 4.97504047 5.24900602 0 2 C0 1.34 0 0.68 0 0 Z " fill="#398138" transform="translate(129,395)"/>
<path d="M0 0 C0.66 0.33 1.32 0.66 2 1 C-1.3 4.3 -4.6 7.6 -8 11 C-8.66 10.67 -9.32 10.34 -10 10 C-3.84965831 2.51708428 -3.84965831 2.51708428 0 0 Z " fill="#333433" transform="translate(288,178)"/>
<path d="M0 0 C1.32 0.33 2.64 0.66 4 1 C3.01 2.485 3.01 2.485 2 4 C-1.625 4.6875 -1.625 4.6875 -5 5 C-3.625 3.5 -3.625 3.5 -2 2 C-1.34 2 -0.68 2 0 2 C0 1.34 0 0.68 0 0 Z " fill="#BDCA36" transform="translate(382,396)"/>
</svg>
